<svg width="1280" height="322" viewBox="0 0 1280 322" fill="none" xmlns="http://www.w3.org/2000/svg">
<g opacity="0.0645">
<g opacity="0.0645">
<path opacity="0.0645" d="M1315.28 -288.042C1314.9 -288.558 1315.18 -289.146 1315.84 -289.34C1316.53 -289.544 1317.35 -289.298 1317.72 -288.761C1318.08 -288.256 1317.85 -287.666 1317.16 -287.463C1316.5 -287.269 1315.64 -287.537 1315.28 -288.042ZM1290.16 -280.46C1289.76 -280.987 1289.98 -281.557 1290.65 -281.756C1291.3 -281.945 1292.15 -281.709 1292.55 -281.181C1292.92 -280.681 1292.7 -280.075 1292.06 -279.885C1291.39 -279.687 1290.54 -279.944 1290.16 -280.46ZM1265.54 -272.882C1265.12 -273.405 1265.33 -273.99 1265.96 -274.175C1266.61 -274.385 1267.45 -274.128 1267.87 -273.605C1268.28 -273.099 1268.1 -272.522 1267.45 -272.312C1266.82 -272.128 1265.95 -272.375 1265.54 -272.882ZM1241.36 -265.331C1240.9 -265.86 1241.05 -266.427 1241.71 -266.621C1242.33 -266.822 1243.2 -266.574 1243.66 -266.045C1244.08 -265.543 1243.94 -264.96 1243.31 -264.755C1242.66 -264.565 1241.8 -264.834 1241.36 -265.331ZM1217.49 -257.785C1217 -258.305 1217.13 -258.883 1217.75 -259.067C1218.39 -259.273 1219.27 -259.025 1219.75 -258.505C1220.22 -257.997 1220.12 -257.428 1219.48 -257.223C1218.88 -257.027 1217.95 -257.277 1217.49 -257.785ZM1193.88 -250.246C1193.34 -250.768 1193.43 -251.336 1194.07 -251.541C1194.68 -251.737 1195.6 -251.488 1196.14 -250.982C1196.65 -250.488 1196.57 -249.887 1195.96 -249.691C1195.31 -249.481 1194.39 -249.752 1193.88 -250.246ZM1170.39 -242.708C1169.82 -243.22 1169.89 -243.8 1170.5 -243.996C1171.14 -244.201 1172.06 -243.951 1172.63 -243.439C1173.18 -242.938 1173.16 -242.357 1172.53 -242.151C1171.92 -241.955 1170.94 -242.207 1170.39 -242.708ZM1146.97 -235.172C1146.35 -235.686 1146.41 -236.262 1147.03 -236.462C1147.63 -236.658 1148.6 -236.402 1149.22 -235.888C1149.81 -235.38 1149.82 -234.808 1149.21 -234.612C1148.59 -234.428 1147.57 -234.67 1146.97 -235.172ZM1123.55 -227.653C1122.89 -228.174 1122.9 -228.735 1123.5 -228.931C1124.14 -229.136 1125.14 -228.889 1125.8 -228.369C1126.43 -227.875 1126.48 -227.297 1125.84 -227.091C1125.24 -226.895 1124.19 -227.144 1123.55 -227.653ZM1100.01 -220.117C1099.32 -220.628 1099.27 -221.191 1099.88 -221.387C1100.52 -221.592 1101.56 -221.343 1102.26 -220.832C1102.93 -220.332 1102.98 -219.754 1102.34 -219.548C1101.75 -219.357 1100.69 -219.622 1100.01 -220.117ZM1076.25 -212.567C1075.5 -213.08 1075.47 -213.648 1076.09 -213.848C1076.72 -214.049 1077.8 -213.81 1078.54 -213.297C1079.24 -212.806 1079.33 -212.221 1078.71 -212.02C1078.09 -211.82 1076.95 -212.077 1076.25 -212.567ZM1052.2 -205.022C1051.44 -205.53 1051.34 -206.095 1051.97 -206.295C1052.62 -206.505 1053.74 -206.26 1054.51 -205.756C1055.25 -205.259 1055.36 -204.679 1054.7 -204.469C1054.08 -204.268 1052.94 -204.525 1052.2 -205.022ZM1027.75 -197.443C1026.95 -197.958 1026.86 -198.523 1027.51 -198.717C1028.17 -198.911 1029.31 -198.67 1030.1 -198.171C1030.87 -197.684 1031.01 -197.096 1030.35 -196.902C1029.69 -196.708 1028.52 -196.956 1027.75 -197.443ZM1002.83 -189.865C1002 -190.371 1001.92 -190.94 1002.61 -191.143C1003.26 -191.338 1004.41 -191.101 1005.24 -190.596C1006.04 -190.097 1006.19 -189.531 1005.53 -189.337C1004.84 -189.133 1003.61 -189.382 1002.83 -189.865ZM977.346 -182.28C976.496 -182.797 976.404 -183.345 977.094 -183.549C977.768 -183.748 978.972 -183.51 979.817 -183.009C980.626 -182.515 980.743 -181.939 980.085 -181.745C979.384 -181.521 978.155 -181.786 977.346 -182.28ZM951.508 -174.729C950.657 -175.246 950.577 -175.815 951.24 -175.993C951.93 -176.196 953.117 -175.954 953.952 -175.432C954.76 -174.938 954.926 -174.377 954.236 -174.173C953.578 -173.979 952.316 -174.235 951.508 -174.729ZM925.601 -167.053C924.767 -167.574 924.671 -168.139 925.377 -168.347C926.051 -168.546 927.271 -168.313 928.105 -167.791C928.897 -167.292 929.02 -166.701 928.33 -166.497C927.64 -166.294 926.415 -166.543 925.601 -167.053ZM899.176 -159.067C898.358 -159.593 898.321 -160.193 899.011 -160.396C899.733 -160.609 900.905 -160.362 901.723 -159.835C902.499 -159.332 902.626 -158.724 901.904 -158.511C901.214 -158.307 899.953 -158.563 899.176 -159.067ZM872.33 -150.852C871.539 -151.404 871.502 -152.003 872.224 -152.216C872.925 -152.44 874.134 -152.186 874.92 -151.651C875.685 -151.126 875.732 -150.495 875.026 -150.287C874.304 -150.074 873.095 -150.328 872.33 -150.852ZM845.095 -142.418C844.336 -142.979 844.342 -143.609 845.064 -143.822C845.798 -144.055 846.958 -143.787 847.717 -143.226C848.45 -142.692 848.497 -142.061 847.763 -141.827C847.057 -141.619 845.828 -141.884 845.095 -142.418ZM817.622 -133.844C816.891 -134.43 816.913 -135.065 817.651 -135.282C818.368 -135.511 819.529 -135.243 820.256 -134.673C820.961 -134.113 820.949 -133.447 820.226 -133.234C819.493 -133 818.312 -133.279 817.622 -133.844ZM789.911 -125.129C789.212 -125.726 789.294 -126.395 790.016 -126.608C790.765 -126.847 791.878 -126.564 792.577 -125.968C793.251 -125.399 793.243 -124.717 792.488 -124.494C791.755 -124.26 790.569 -124.556 789.911 -125.129ZM762.093 -116.366C761.437 -116.993 761.519 -117.662 762.273 -117.885C762.99 -118.114 764.108 -117.815 764.775 -117.21C765.405 -116.61 765.333 -115.909 764.615 -115.68C763.861 -115.457 762.739 -115.772 762.093 -116.366ZM734.231 -107.573C733.608 -108.209 733.717 -108.904 734.471 -109.126C735.22 -109.365 736.289 -109.052 736.897 -108.411C737.495 -107.803 737.428 -107.085 736.678 -106.847C735.913 -106.603 734.818 -106.943 734.231 -107.573ZM706.386 -98.784C705.805 -99.4501 705.963 -100.159 706.712 -100.398C707.429 -100.627 708.487 -100.293 709.079 -99.6481C709.649 -99.014 709.518 -98.2775 708.8 -98.0485C708.035 -97.8052 706.94 -98.1452 706.386 -98.784ZM678.675 -90.0699C678.127 -90.7455 678.279 -91.4707 679.033 -91.6932C679.751 -91.9222 680.777 -91.5794 681.329 -90.8877C681.857 -90.2234 681.709 -89.4822 680.987 -89.2692C680.233 -89.0467 679.202 -89.4056 678.675 -90.0699ZM651.143 -81.4608C650.622 -82.1619 650.827 -82.8853 651.545 -83.1143C652.278 -83.3481 653.276 -82.9797 653.797 -82.2786C654.292 -81.6048 654.117 -80.8381 653.379 -80.6203C652.657 -80.4074 651.622 -80.7823 651.143 -81.4608ZM623.876 -73.0171C623.387 -73.7277 623.587 -74.4671 624.321 -74.7008C625.054 -74.9346 625.988 -74.5473 626.482 -73.8207C626.945 -73.1375 626.786 -72.3754 626.052 -72.1416C625.319 -71.9079 624.36 -72.3226 623.876 -73.0171ZM596.954 -64.7625C596.493 -65.4986 596.725 -66.2475 597.447 -66.4604C598.137 -66.664 599.055 -66.2719 599.517 -65.5358C599.968 -64.8319 599.777 -64.0603 599.087 -63.8568C598.37 -63.6278 597.406 -64.0585 596.954 -64.7625ZM570.485 -56.7462C570.04 -57.487 570.256 -58.2311 570.963 -58.4394C571.669 -58.6477 572.559 -58.2301 573.005 -57.4893C573.424 -56.7758 573.233 -56.0043 572.532 -55.78C571.821 -55.5878 570.905 -56.0327 570.485 -56.7462ZM544.487 -49.0257C544.058 -49.7713 544.307 -50.5249 544.965 -50.7189C545.655 -50.9225 546.529 -50.5002 546.943 -49.7499C547.346 -49.0317 547.16 -48.2441 546.47 -48.0406C545.807 -47.8626 544.891 -48.3075 544.487 -49.0257ZM518.722 -41.2866C518.293 -42.0321 518.509 -42.7763 519.215 -42.9845C519.889 -43.1833 520.791 -42.7865 521.204 -42.0362C521.608 -41.3181 521.385 -40.5371 520.716 -40.3222C520.026 -40.1187 519.125 -40.5684 518.722 -41.2866ZM493.083 -34.0035C492.643 -34.7283 492.869 -35.4404 493.532 -35.6184C494.21 -35.8011 495.085 -35.3788 495.525 -34.654C495.94 -33.9566 495.777 -33.2106 495.093 -33.0439C494.414 -32.8612 493.498 -33.3061 493.083 -34.0035ZM467.92 -27.5932C467.473 -28.2812 467.644 -28.9422 468.307 -29.1203C468.958 -29.2775 469.86 -28.8807 470.312 -28.1767C470.755 -27.5048 470.577 -26.8069 469.925 -26.6497C469.258 -26.4878 468.358 -26.9374 467.92 -27.5932ZM443.1 -21.9121C442.63 -22.5585 442.795 -23.1827 443.435 -23.3192C444.107 -23.4651 444.988 -23.0796 445.463 -22.4172C445.928 -21.7868 445.784 -21.1513 445.128 -21.0101C444.488 -20.8737 443.56 -21.2978 443.1 -21.9121ZM418.624 -16.8384C418.116 -17.4385 418.246 -18.0003 418.902 -18.1415C419.526 -18.2732 420.456 -17.9019 420.964 -17.3018C421.447 -16.7291 421.326 -16.1352 420.702 -16.0034C420.025 -15.8736 419.107 -16.2656 418.624 -16.8384ZM394.344 -12.2236C393.818 -12.7661 393.926 -13.2864 394.555 -13.4021C395.215 -13.5272 396.115 -13.1993 396.646 -12.6408C397.151 -12.1096 397.08 -11.5827 396.435 -11.4623C395.834 -11.3722 394.861 -11.7132 394.344 -12.2236ZM370.277 -7.95075C369.717 -8.4309 369.791 -8.88888 370.436 -9.00928C371.065 -9.12495 372.023 -8.83205 372.583 -8.35191C373.123 -7.88308 373.053 -7.40906 372.441 -7.29813C371.775 -7.18904 370.812 -7.49797 370.277 -7.95075ZM346.275 -3.87153C345.681 -4.28933 345.749 -4.71048 346.366 -4.80537C347.016 -4.90973 347.976 -4.6697 348.57 -4.2519C349.144 -3.84541 349.129 -3.42244 348.479 -3.31808C347.862 -3.22319 346.849 -3.46504 346.275 -3.87153ZM322.328 0.156656C321.7 -0.198806 321.718 -0.552861 322.362 -0.673263C322.991 -0.788933 323.99 -0.595221 324.623 -0.223713C325.23 0.120435 325.217 0.490566 324.589 0.606235C323.951 0.68981 322.931 0.484756 322.328 0.156656ZM298.331 4.25193C297.669 3.95881 297.696 3.63684 298.309 3.5259C298.954 3.4055 299.975 3.55766 300.621 3.85551C301.247 4.14205 301.288 4.46114 300.639 4.5655C300.026 4.67643 298.952 4.52242 298.331 4.25193ZM274.237 8.55026C273.541 8.31948 273.529 8.04379 274.174 7.92339C274.803 7.80772 275.858 7.89757 276.554 8.12835C277.214 8.35255 277.246 8.63954 276.633 8.75048C275.968 8.85957 274.896 8.77446 274.237 8.55026ZM249.95 13.2019C249.236 13.0287 249.214 12.7738 249.842 12.6581C250.498 12.5169 251.561 12.5699 252.275 12.7431C252.972 12.921 253.043 13.1617 252.383 13.2869C251.77 13.3978 250.643 13.3637 249.95 13.2019ZM225.436 18.3219C224.683 18.195 224.638 17.9817 225.278 17.8453C225.95 17.6993 227.03 17.6947 227.782 17.8216C228.498 17.9419 228.597 18.1571 227.924 18.303C227.28 18.4234 226.151 18.4422 225.436 18.3219ZM200.598 24.0607C199.822 23.9753 199.798 23.7733 200.433 23.6208C201.1 23.4588 202.219 23.4079 202.99 23.4772C203.728 23.556 203.838 23.7504 203.154 23.9171C202.503 24.0743 201.32 24.1441 200.598 24.0607ZM175.357 30.5635C174.575 30.515 174.535 30.3177 175.197 30.1397C175.876 29.957 177.013 29.8485 177.799 29.913C178.549 29.971 178.67 30.1446 177.975 30.3321C177.308 30.494 176.118 30.6007 175.357 30.5635ZM149.71 37.9362C148.917 37.9085 148.876 37.7112 149.55 37.5124C150.224 37.3137 151.4 37.1589 152.193 37.1866C152.949 37.2077 153.043 37.4069 152.369 37.6057C151.695 37.8044 150.466 37.9574 149.71 37.9362ZM124.005 45.4658C123.212 45.438 123.139 45.2502 123.845 45.042C124.503 44.8479 125.651 44.7186 126.444 44.7463C127.2 44.7675 127.321 44.9411 126.647 45.1399C125.962 45.3594 124.766 45.5029 124.005 45.4658ZM97.845 53.5829C97.0793 53.5296 97.0451 53.2955 97.7464 53.0712C98.4317 52.8517 99.6118 52.7129 100.378 52.7661C101.127 52.8241 101.177 53.0535 100.492 53.273C99.7748 53.5021 98.5947 53.6408 97.845 53.5829ZM71.0108 62.6664C70.2677 62.5716 70.2882 62.2864 70.9961 62.0253C71.7248 61.7755 72.8567 61.6509 73.5999 61.7457C74.3061 61.8339 74.3545 62.1162 73.6258 62.366C72.9179 62.6271 71.7171 62.7546 71.0108 62.6664ZM43.5975 72.5661C42.8883 72.4089 42.9315 72.0822 43.6715 71.8116C44.3794 71.5505 45.5368 71.4533 46.2413 71.5944C46.9297 71.7402 46.9073 72.0782 46.1833 72.3441C45.4386 72.5986 44.2811 72.6958 43.5975 72.5661ZM15.6843 83.1365C15.0138 82.9331 15.1182 82.5185 15.8582 82.2479C16.6096 81.9565 17.7076 81.8943 18.3781 82.0977C19.0278 82.2898 18.9875 82.6855 18.2201 82.9816C17.5009 83.2635 16.334 83.3286 15.6843 83.1365ZM-12.5486 94.2198C-13.1691 93.9493 -13.042 93.4932 -12.2907 93.2018C-11.5554 92.9152 -10.4479 92.8851 -9.83214 93.1395C-9.2324 93.3987 -9.33874 93.8661 -10.0901 94.1575C-10.8574 94.4536 -11.9649 94.4837 -12.5486 94.2198ZM-41.0748 105.669C-41.6453 105.331 -41.4522 104.803 -40.7216 104.501C-39.959 104.188 -38.9223 104.214 -38.3518 104.552C-37.802 104.878 -37.931 105.387 -38.7097 105.704C-39.4355 106.023 -40.5411 106 -41.0748 105.669ZM-69.7349 117.314C-70.2602 116.894 -70.0444 116.324 -69.2818 116.012C-68.5352 115.704 -67.5164 115.788 -66.9959 116.192C-66.4961 116.586 -66.7071 117.171 -67.4537 117.479C-68.2116 117.807 -69.2352 117.708 -69.7349 117.314ZM-98.445 129.027C-98.9043 128.534 -98.6385 127.898 -97.9032 127.611C-97.1406 127.299 -96.1765 127.433 -95.7013 127.921C-95.2515 128.381 -95.4644 129.02 -96.243 129.337C-96.9783 129.623 -97.9952 129.487 -98.445 129.027ZM-127.055 140.605C-127.464 140.045 -127.192 139.372 -126.429 139.06C-125.694 138.773 -124.737 138.944 -124.327 139.504C-123.928 140.031 -124.207 140.742 -124.953 141.049C-125.716 141.361 -126.651 141.149 -127.055 140.605ZM-155.504 151.961C-155.863 151.335 -155.536 150.61 -154.806 150.308C-154.038 150.012 -153.163 150.259 -152.804 150.886C-152.454 151.48 -152.739 152.227 -153.502 152.54C-154.237 152.826 -155.154 152.556 -155.504 151.961ZM-183.646 162.879C-183.972 162.19 -183.638 161.428 -182.887 161.137C-182.168 160.855 -181.326 161.165 -181.001 161.854C-180.685 162.511 -181.009 163.304 -181.749 163.575C-182.48 163.877 -183.331 163.535 -183.646 162.879ZM-211.41 173.248C-211.685 172.492 -211.308 171.7 -210.6 171.439C-209.86 171.168 -209.068 171.545 -208.782 172.281C-208.5 173 -208.852 173.819 -209.592 174.089C-210.299 174.351 -211.128 173.967 -211.41 173.248ZM-238.623 182.879C-238.876 182.081 -238.503 181.274 -237.775 181.024C-237.078 180.784 -236.325 181.207 -236.073 182.005C-235.829 182.77 -236.192 183.61 -236.889 183.85C-237.617 184.1 -238.38 183.645 -238.623 182.879ZM-265.251 191.657C-265.476 190.834 -265.06 189.997 -264.391 189.782C-263.706 189.562 -262.96 190.022 -262.729 190.862C-262.514 191.653 -262.904 192.518 -263.589 192.737C-264.274 192.957 -265.035 192.449 -265.251 191.657ZM-291.138 199.398C-291.341 198.533 -290.936 197.716 -290.274 197.538C-289.579 197.351 -288.887 197.862 -288.689 198.71C-288.501 199.527 -288.859 200.383 -289.549 200.586C-290.228 200.769 -290.945 200.23 -291.138 199.398ZM-316.805 206.881C-317.007 206.016 -316.603 205.199 -315.929 205C-315.255 204.802 -314.531 205.303 -314.333 206.152C-314.14 206.985 -314.546 207.854 -315.209 208.032C-315.878 208.247 -316.611 207.713 -316.805 206.881ZM-342.577 214.36C-342.775 213.512 -342.387 212.7 -341.729 212.505C-341.039 212.302 -340.331 212.808 -340.133 213.657C-339.945 214.474 -340.319 215.334 -341.013 215.521C-341.683 215.736 -342.384 215.193 -342.577 214.36ZM-368.381 221.675C-368.579 220.826 -368.202 220.035 -367.511 219.831C-366.833 219.648 -366.114 220.134 -365.916 220.983C-365.727 221.799 -366.122 222.648 -366.801 222.831C-367.48 223.014 -368.181 222.47 -368.381 221.675ZM-394.167 228.81C-394.361 227.977 -393.951 227.176 -393.289 226.998C-392.594 226.811 -391.891 227.301 -391.698 228.134C-391.498 228.929 -391.882 229.758 -392.572 229.961C-393.234 230.139 -393.968 229.605 -394.167 228.81ZM-419.923 235.813C-420.128 235.001 -419.751 234.21 -419.056 234.023C-418.393 233.845 -417.658 234.325 -417.465 235.158C-417.265 235.954 -417.67 236.771 -418.348 236.954C-419.027 237.136 -419.739 236.614 -419.923 235.813ZM-445.723 242.725C-445.928 241.914 -445.509 241.145 -444.847 240.967C-444.152 240.779 -443.449 241.27 -443.249 242.065C-443.054 242.845 -443.426 243.653 -444.121 243.84C-444.784 244.018 -445.528 243.505 -445.723 242.725ZM-471.473 249.57C-471.673 248.775 -471.287 248.015 -470.608 247.833C-469.945 247.655 -469.215 248.119 -469.015 248.915C-468.825 249.679 -469.218 250.475 -469.897 250.658C-470.575 250.841 -471.283 250.334 -471.473 249.57ZM-497.249 256.388C-497.444 255.608 -497.042 254.844 -496.374 254.682C-495.679 254.495 -494.981 254.969 -494.786 255.749C-494.601 256.497 -494.962 257.283 -495.656 257.471C-496.329 257.617 -497.063 257.136 -497.249 256.388ZM-523.013 263.185C-523.22 262.426 -522.829 261.683 -522.134 261.495C-521.471 261.317 -520.746 261.766 -520.539 262.525C-520.338 263.268 -520.74 264.032 -521.419 264.215C-522.114 264.402 -522.817 263.912 -523.013 263.185ZM-548.805 270.007C-549.012 269.248 -548.6 268.516 -547.937 268.338C-547.242 268.151 -546.554 268.593 -546.347 269.352C-546.15 270.079 -546.521 270.834 -547.215 271.021C-547.878 271.199 -548.608 270.734 -548.805 270.007ZM-574.562 276.889C-574.764 276.146 -574.384 275.424 -573.689 275.236C-573.026 275.058 -572.294 275.47 -572.093 276.213C-571.9 276.924 -572.287 277.683 -572.966 277.866C-573.66 278.054 -574.354 277.595 -574.562 276.889ZM-600.348 283.85C-600.545 283.123 -600.144 282.411 -599.486 282.217C-598.791 282.03 -598.092 282.451 -597.895 283.178C-597.707 283.873 -598.062 284.623 -598.756 284.81C-599.419 284.988 -600.14 284.556 -600.348 283.85ZM-626.112 290.943C-626.32 290.237 -625.936 289.53 -625.246 289.327C-624.567 289.144 -623.872 289.549 -623.68 290.26C-623.476 290.95 -623.851 291.689 -624.53 291.872C-625.209 292.054 -625.913 291.617 -626.112 290.943ZM-651.907 298.167C-652.116 297.461 -651.731 296.755 -651.036 296.567C-650.362 296.369 -649.635 296.765 -649.443 297.475C-649.244 298.149 -649.635 298.893 -650.314 299.075C-650.992 299.258 -651.708 298.841 -651.907 298.167ZM-677.671 305.557C-677.879 304.851 -677.49 304.161 -676.8 303.957C-676.126 303.758 -675.436 304.148 -675.227 304.854C-675.029 305.528 -675.408 306.25 -676.066 306.445C-676.772 306.653 -677.472 306.231 -677.671 305.557Z" fill="url(#paint0_linear_351_731)"/>
</g>
</g>
<defs>
<linearGradient id="paint0_linear_351_731" x1="1058.36" y1="-210.678" x2="1007.95" y2="272.485" gradientUnits="userSpaceOnUse">
<stop stop-color="#07EDD2"/>
<stop offset="1" stop-color="#9C63F7"/>
</linearGradient>
</defs>
</svg>
