<svg width="1280" height="512" viewBox="0 0 1280 512" fill="none" xmlns="http://www.w3.org/2000/svg">
<g opacity="0.2581">
<g opacity="0.2581">
<path opacity="0.2581" d="M1380.85 -140.018C1380.77 -141.355 1381.54 -142.715 1382.58 -143.023C1383.62 -143.33 1384.55 -142.472 1384.64 -141.119C1384.73 -139.75 1383.92 -138.36 1382.88 -138.052C1381.81 -137.756 1380.92 -138.644 1380.85 -140.018ZM1357.68 -133.342C1357.64 -134.656 1358.4 -135.996 1359.4 -136.273C1360.39 -136.567 1361.23 -135.68 1361.29 -134.37C1361.33 -133.024 1360.58 -131.685 1359.58 -131.407C1358.57 -131.109 1357.73 -131.996 1357.68 -133.342ZM1335.59 -127.121C1335.59 -128.413 1336.33 -129.695 1337.28 -129.958C1338.23 -130.221 1339.02 -129.373 1339.03 -128.086C1339.04 -126.762 1338.25 -125.466 1337.3 -125.203C1336.33 -124.935 1335.59 -125.814 1335.59 -127.121ZM1314.35 -121.225C1314.41 -122.462 1315.19 -123.721 1316.1 -123.974C1317.02 -124.228 1317.72 -123.405 1317.67 -122.152C1317.63 -120.867 1316.85 -119.623 1315.93 -119.37C1315.01 -119.116 1314.31 -119.956 1314.35 -121.225ZM1293.88 -115.535C1293.99 -116.738 1294.78 -117.928 1295.66 -118.188C1296.55 -118.432 1297.18 -117.643 1297.09 -116.428C1296.98 -115.193 1296.15 -113.973 1295.26 -113.745C1294.37 -113.5 1293.77 -114.316 1293.88 -115.535ZM1273.95 -109.937C1274.14 -111.09 1274.98 -112.262 1275.83 -112.513C1276.66 -112.759 1277.24 -111.987 1277.07 -110.823C1276.9 -109.638 1276.04 -108.461 1275.19 -108.226C1274.32 -107.986 1273.78 -108.752 1273.95 -109.937ZM1254.47 -104.312C1254.72 -105.431 1255.57 -106.556 1256.42 -106.807C1257.27 -107.057 1257.75 -106.326 1257.52 -105.212C1257.28 -104.061 1256.4 -102.927 1255.54 -102.692C1254.67 -102.437 1254.21 -103.173 1254.47 -104.312ZM1235.21 -98.527C1235.52 -99.596 1236.43 -100.702 1237.28 -100.969C1238.09 -101.227 1238.54 -100.539 1238.25 -99.4584C1237.95 -98.3573 1237 -97.2415 1236.17 -96.9954C1235.32 -96.7285 1234.89 -97.4212 1235.21 -98.527ZM1216.07 -92.4622C1216.43 -93.4925 1217.4 -94.5809 1218.22 -94.8592C1219.06 -95.1421 1219.46 -94.4928 1219.11 -93.4465C1218.74 -92.3793 1217.74 -91.2814 1216.9 -91.0145C1216.05 -90.7476 1215.7 -91.4111 1216.07 -92.4622ZM1196.85 -86.0083C1197.26 -87.0208 1198.29 -88.1073 1199.13 -88.3903C1199.96 -88.6893 1200.3 -88.074 1199.91 -87.0502C1199.49 -86.0217 1198.46 -84.9304 1197.62 -84.6475C1196.76 -84.3598 1196.42 -84.9751 1196.85 -86.0083ZM1177.43 -79.0426C1177.89 -80.0324 1178.94 -81.1284 1179.79 -81.4321C1180.64 -81.7519 1180.99 -81.1734 1180.53 -80.1836C1180.06 -79.157 1178.97 -78.0675 1178.1 -77.7591C1177.25 -77.4553 1176.96 -78.032 1177.43 -79.0426ZM1157.6 -71.4506C1158.09 -72.4499 1159.2 -73.5601 1160.07 -73.9054C1160.95 -74.2506 1161.25 -73.6947 1160.78 -72.7002C1160.29 -71.6849 1159.17 -70.586 1158.28 -70.236C1157.4 -69.8907 1157.1 -70.4305 1157.6 -71.4506ZM1137.27 -63.0981C1137.78 -64.1021 1138.9 -65.2539 1139.8 -65.6407C1140.7 -66.0115 1141.02 -65.4765 1140.51 -64.4725C1139.99 -63.4477 1138.85 -62.3072 1137.93 -61.9156C1137.03 -61.5288 1136.75 -62.0733 1137.27 -63.0981ZM1116.22 -53.8708C1116.71 -54.9069 1117.89 -56.1258 1118.83 -56.5429C1119.75 -56.9553 1120.1 -56.4296 1119.6 -55.3935C1119.1 -54.3366 1117.88 -53.1243 1116.98 -52.7006C1116.04 -52.2836 1115.71 -52.8139 1116.22 -53.8708ZM1094.3 -43.6572C1094.78 -44.7575 1095.97 -46.05 1096.95 -46.5134C1097.93 -46.9768 1098.32 -46.4285 1097.83 -45.3443C1097.34 -44.2392 1096.15 -42.9467 1095.17 -42.4833C1094.21 -42.0086 1093.81 -42.5361 1094.3 -43.6572ZM1070.98 -32.4181C1071.42 -33.5939 1072.65 -34.9855 1073.71 -35.4726C1074.8 -35.9691 1075.32 -35.4058 1074.87 -34.2461C1074.42 -33.0655 1073.17 -31.6691 1072.09 -31.1566C1071.05 -30.6582 1070.53 -31.2215 1070.98 -32.4181ZM1045.32 -20.8372C1045.7 -22.0838 1046.95 -23.5331 1048.12 -24.0533C1049.28 -24.5527 1049.9 -23.9328 1049.52 -22.7023C1049.12 -21.435 1047.87 -20.0018 1046.71 -19.4863C1045.57 -18.9388 1044.95 -19.5586 1045.32 -20.8372ZM1018.03 -9.10694C1018.36 -10.4082 1019.59 -11.9057 1020.84 -12.4127C1022.06 -12.931 1022.8 -12.2593 1022.47 -10.9741C1022.12 -9.65201 1020.83 -8.13567 1019.6 -7.61734C1018.37 -7.11505 1017.69 -7.78487 1018.03 -9.10694ZM989.23 2.71894C989.515 1.37897 990.787 -0.164784 992.081 -0.686004C993.375 -1.20722 994.176 -0.50156 993.891 0.838406C993.595 2.19915 992.323 3.74284 991.045 4.25933C989.751 4.78055 988.95 4.07495 989.23 2.71894ZM959.262 14.541C959.505 13.1784 960.74 11.6281 962.087 11.1087C963.418 10.5941 964.325 11.3034 964.081 12.666C963.831 14.0654 962.532 15.6346 961.201 16.1493C959.875 16.68 959.028 15.9357 959.262 14.541ZM928.298 26.36C928.484 24.9795 929.762 23.399 931.146 22.8862C932.529 22.3734 933.462 23.1101 933.26 24.4953C933.063 25.8966 931.785 27.4771 930.422 28.0012C929.054 28.5093 928.089 27.7821 928.298 26.36ZM896.607 38.0795C896.756 36.6925 897.986 35.1261 899.407 34.6199C900.807 34.1024 901.845 34.8428 901.68 36.2346C901.524 37.6585 900.225 39.2277 898.825 39.7452C897.421 40.2467 896.447 39.4874 896.607 38.0795ZM864.398 49.638C864.515 48.2604 865.761 46.6893 867.182 46.1831C868.57 45.6863 869.645 46.4333 869.528 47.8109C869.405 49.2253 868.126 50.8059 866.754 51.2979C865.317 51.8088 864.274 51.0524 864.398 49.638ZM831.936 60.9918C832.021 59.6236 833.224 58.0828 834.645 57.5766C836.07 57.0864 837.177 57.8239 837.097 59.2081C837.005 60.6131 835.755 62.1681 834.329 62.6582C832.904 63.1484 831.845 62.3967 831.936 60.9918ZM799.411 72.068C799.463 70.7094 800.671 69.1845 802.096 68.6944C803.494 68.2297 804.617 68.9625 804.564 70.3212C804.505 71.7167 803.282 73.2462 801.904 73.7221C800.479 74.2123 799.367 73.4588 799.411 72.068ZM767.135 82.8089C767.155 81.4597 768.287 79.9746 769.701 79.5052C771.115 79.0359 772.227 79.7894 772.206 81.1386C772.174 82.5086 771.031 84.0144 769.612 84.4678C768.198 84.9371 767.123 84.1902 767.135 82.8089ZM735.269 93.1671C735.262 91.8434 736.367 90.3838 737.786 89.9305C739.14 89.4961 740.284 90.2402 740.291 91.5639C740.291 92.9244 739.138 94.3981 737.784 94.8325C736.365 95.2859 735.269 94.5276 735.269 93.1671ZM704.075 103.083C704.057 101.78 705.134 100.346 706.489 99.9115C707.844 99.4771 708.939 100.235 708.957 101.538C708.969 102.878 707.892 104.312 706.553 104.742C705.21 105.155 704.103 104.418 704.075 103.083ZM673.822 112.46C673.788 111.162 674.789 109.767 676.116 109.358C677.395 108.964 678.507 109.717 678.537 110.999C678.575 112.314 677.514 113.743 676.235 114.138C674.924 114.542 673.865 113.79 673.822 112.46ZM644.699 121.294C644.653 120.017 645.628 118.648 646.874 118.262C648.126 117.893 649.185 118.645 649.235 119.938C649.29 121.248 648.316 122.617 647.069 123.002C645.796 123.36 644.753 122.603 644.699 121.294ZM616.986 129.468C616.924 128.195 617.802 126.855 618.994 126.521C620.182 126.17 621.213 126.948 621.275 128.22C621.33 129.53 620.404 130.884 619.211 131.219C618.024 131.569 617.04 130.777 616.986 129.468ZM591.139 136.638C591.078 135.365 591.89 134.097 592.979 133.828C594.069 133.559 595.013 134.396 595.075 135.669C595.146 136.974 594.306 138.268 593.217 138.537C592.128 138.806 591.21 137.943 591.139 136.638ZM566.895 141.137C566.85 139.86 567.637 138.686 568.659 138.542C569.696 138.392 570.601 139.329 570.662 140.602C570.717 141.912 569.886 143.116 568.848 143.265C567.827 143.409 566.95 142.447 566.895 141.137ZM543.792 143.12C543.763 141.838 544.517 140.726 545.498 140.681C546.495 140.631 547.322 141.66 547.356 142.959C547.394 144.273 546.63 145.405 545.628 145.439C544.652 145.5 543.831 144.434 543.792 143.12ZM521.628 142.959C521.61 141.657 522.35 140.618 523.302 140.652C524.258 140.701 525.072 141.804 525.09 143.107C525.113 144.426 524.329 145.494 523.377 145.461C522.409 145.433 521.639 144.299 521.628 142.959ZM500.243 141.069C500.257 139.756 501.007 138.75 501.929 138.862C502.852 138.974 503.6 140.148 503.586 141.461C503.581 142.805 502.831 143.811 501.893 143.704C500.975 143.609 500.234 142.397 500.243 141.069ZM479.467 137.812C479.493 136.479 480.236 135.51 481.141 135.679C482.045 135.848 482.759 137.086 482.729 138.403C482.692 139.757 481.922 140.751 481.017 140.582C480.117 140.429 479.435 139.182 479.467 137.812ZM459.095 133.617C459.153 132.274 459.917 131.316 460.815 131.522C461.692 131.717 462.367 133.001 462.305 134.327C462.241 135.707 461.477 136.665 460.583 136.475C459.706 136.28 459.031 134.996 459.095 133.617ZM438.991 128.854C439.081 127.502 439.845 126.544 440.727 126.755C441.609 126.966 442.257 128.275 442.167 129.627C442.071 131.016 441.275 131.983 440.393 131.772C439.511 131.562 438.895 130.243 438.991 128.854ZM418.946 123.934C419.063 122.557 419.875 121.585 420.762 121.812C421.628 122.027 422.244 123.346 422.127 124.723C422.003 126.138 421.175 127.115 420.309 126.899C419.438 126.667 418.834 125.328 418.946 123.934ZM398.825 119.229C398.974 117.842 399.792 116.833 400.69 117.039C401.568 117.234 402.167 118.557 402.018 119.944C401.863 121.368 401.028 122.382 400.13 122.176C399.236 121.986 398.669 120.653 398.825 119.229ZM378.401 115.154C378.577 113.741 379.46 112.713 380.36 112.867C381.244 113.024 381.838 114.332 381.662 115.744C381.474 117.178 380.58 118.226 379.696 118.068C378.796 117.915 378.213 116.587 378.401 115.154ZM357.544 112.096C357.752 110.674 358.648 109.572 359.571 109.684C360.493 109.795 361.095 111.066 360.886 112.488C360.687 113.942 359.738 115.042 358.816 114.93C357.898 114.834 357.329 113.555 357.544 112.096ZM336.04 110.45C336.264 109.023 337.226 107.849 338.183 107.899C339.118 107.937 339.726 109.17 339.502 110.597C339.271 112.061 338.293 113.239 337.352 113.185C336.4 113.151 335.808 111.913 336.04 110.45ZM313.758 110.603C314.01 109.15 314.99 107.919 315.987 107.87C316.984 107.82 317.594 109 317.358 110.448C317.111 111.916 316.087 113.177 315.085 113.211C314.084 113.245 313.494 112.076 313.758 110.603ZM290.467 112.955C290.735 111.497 291.788 110.158 292.826 110.009C293.847 109.865 294.486 110.967 294.229 112.403C293.971 113.892 292.881 115.225 291.86 115.37C290.827 115.535 290.209 114.444 290.467 112.955ZM266.055 117.888C266.323 116.431 267.416 114.992 268.505 114.723C269.594 114.454 270.258 115.462 269.99 116.919C269.715 118.413 268.601 119.84 267.512 120.109C266.411 120.399 265.78 119.381 266.055 117.888ZM239.578 126.115C239.83 124.663 241.04 123.085 242.24 122.662C243.425 122.242 244.204 123.111 243.936 124.568C243.662 126.062 242.448 127.624 241.279 128.038C240.063 128.467 239.304 127.609 239.578 126.115ZM211.232 137.581C211.451 136.138 212.637 134.48 213.922 133.927C215.19 133.379 216.026 134.144 215.802 135.57C215.575 137.05 214.369 138.697 213.1 139.245C211.825 139.831 211.005 139.061 211.232 137.581ZM181.545 151.779C181.717 150.351 182.932 148.615 184.241 147.967C185.577 147.293 186.518 147.94 186.346 149.369C186.168 150.835 184.933 152.56 183.612 153.228C182.319 153.871 181.378 153.224 181.545 151.779ZM150.78 168.232C150.871 166.827 152.04 165.052 153.421 164.296C154.803 163.54 155.805 164.099 155.698 165.508C155.579 166.939 154.41 168.714 153.049 169.481C151.684 170.233 150.677 169.658 150.78 168.232ZM119.081 186.548C119.097 185.182 120.262 183.338 121.63 182.534C123.041 181.699 124.173 182.167 124.157 183.533C124.134 184.935 122.948 186.767 121.553 187.597C120.191 188.418 119.058 187.95 119.081 186.548ZM86.6861 206.289C86.6058 204.952 87.7185 203.106 89.1633 202.209C90.6081 201.312 91.7952 201.73 91.8642 203.087C91.9219 204.466 90.8413 206.302 89.4239 207.174C87.9904 208.05 86.7599 207.663 86.6861 206.289ZM53.8286 227.004C53.652 225.696 54.6684 223.879 56.1198 222.945C57.5759 222.027 58.9093 222.349 59.0699 223.662C59.2399 225.007 58.1801 226.855 56.7401 227.768C55.3047 228.697 54.01 228.329 53.8286 227.004ZM20.6818 248.276C20.4089 246.996 21.3724 245.177 22.8398 244.238C24.3073 243.299 25.6888 243.607 25.9457 244.892C26.2072 246.193 25.2805 248.019 23.8291 248.952C22.3777 249.886 20.9641 249.588 20.6818 248.276ZM-12.4962 269.679C-12.8767 268.448 -12.0255 266.662 -10.5741 265.728C-9.10667 264.789 -7.6015 265.043 -7.24837 266.3C-6.87446 267.567 -7.75299 269.379 -9.20437 270.313C-10.6397 271.242 -12.1062 270.942 -12.4962 269.679ZM-45.5686 290.789C-46.0454 289.587 -45.2536 287.836 -43.8135 286.922C-42.3848 286.03 -40.8107 286.281 -40.35 287.488C-39.8798 288.727 -40.6555 290.474 -42.0634 291.377C-43.5035 292.291 -45.0823 292.024 -45.5686 290.789ZM-78.2497 311.156C-78.8228 309.982 -78.1613 308.321 -76.7278 307.445C-75.2943 306.569 -73.6787 306.842 -73.1216 308.021C-72.5439 309.211 -73.1959 310.904 -74.6134 311.775C-76.0516 312.636 -77.6512 312.357 -78.2497 311.156ZM-110.394 330.387C-111.058 329.258 -110.456 327.632 -109.057 326.818C-107.689 326.014 -106 326.301 -105.351 327.435C-104.693 328.601 -105.279 330.222 -106.631 331.022C-108.014 331.831 -109.72 331.549 -110.394 330.387ZM-141.724 348.001C-142.469 346.895 -141.992 345.376 -140.638 344.646C-139.268 343.91 -137.553 344.224 -136.824 345.335C-136.07 346.473 -136.574 348.017 -137.928 348.748C-139.261 349.49 -140.97 349.139 -141.724 348.001ZM-172.111 363.609C-172.92 362.522 -172.505 361.092 -171.195 360.444C-169.914 359.822 -168.164 360.195 -167.371 361.287C-166.552 362.406 -166.947 363.848 -168.229 364.47C-169.538 365.118 -171.292 364.728 -172.111 363.609ZM-201.268 376.762C-202.125 375.689 -201.831 374.381 -200.574 373.854C-199.316 373.326 -197.607 373.798 -196.766 374.876C-195.899 375.981 -196.173 377.3 -197.43 377.828C-198.672 378.351 -200.386 377.862 -201.268 376.762ZM-229.039 387.046C-229.928 385.983 -229.686 384.795 -228.496 384.392C-227.334 384.014 -225.622 384.556 -224.749 385.624C-223.855 386.703 -224.072 387.919 -225.229 388.312C-226.423 388.699 -228.145 388.126 -229.039 387.046ZM-254.892 394.724C-255.777 393.677 -255.605 392.545 -254.477 392.229C-253.349 391.914 -251.735 392.537 -250.846 393.6C-249.952 394.68 -250.087 395.818 -251.215 396.134C-252.348 396.433 -253.998 395.804 -254.892 394.724ZM-280.847 401.35C-281.71 400.314 -281.476 399.216 -280.334 398.949C-279.213 398.67 -277.573 399.321 -276.705 400.373C-275.815 401.436 -276.017 402.525 -277.139 402.803C-278.302 403.059 -279.974 402.418 -280.847 401.35ZM-307.158 407.122C-307.996 406.114 -307.747 405.063 -306.596 404.828C-305.428 404.589 -303.821 405.248 -302.994 406.278C-302.146 407.319 -302.341 408.37 -303.514 408.594C-304.67 408.813 -306.294 408.158 -307.158 407.122ZM-333.792 412.152C-334.589 411.166 -334.294 410.155 -333.149 409.957C-331.972 409.749 -330.364 410.409 -329.563 411.411C-328.741 412.424 -329.019 413.431 -330.196 413.639C-331.342 413.837 -332.986 413.17 -333.792 412.152ZM-360.698 416.617C-361.453 415.654 -361.107 414.697 -359.925 414.505C-358.743 414.314 -357.173 414.967 -356.413 415.946C-355.632 416.937 -355.93 417.88 -357.112 418.071C-358.298 418.247 -359.917 417.608 -360.698 416.617ZM-387.752 420.637C-388.461 419.713 -388.106 418.788 -386.914 418.628C-385.728 418.453 -384.162 419.09 -383.448 420.031C-382.714 420.983 -383.09 421.896 -384.276 422.072C-385.473 422.215 -387.022 421.573 -387.752 420.637ZM-414.97 424.339C-415.632 423.453 -415.199 422.558 -414.007 422.399C-412.816 422.239 -411.324 422.863 -410.641 423.76C-409.952 424.674 -410.343 425.539 -411.55 425.703C-412.742 425.863 -414.298 425.258 -414.97 424.339ZM-442.235 427.881C-442.851 427.034 -442.404 426.187 -441.212 426.027C-440.021 425.867 -438.533 426.475 -437.917 427.323C-437.291 428.202 -437.744 429.033 -438.951 429.198C-440.127 429.352 -441.609 428.761 -442.235 427.881ZM-469.521 431.412C-470.075 430.598 -469.57 429.769 -468.374 429.625C-467.182 429.466 -465.757 430.04 -465.203 430.853C-464.624 431.694 -465.102 432.498 -466.298 432.641C-467.494 432.785 -468.963 432.241 -469.521 431.412ZM-496.747 435.029C-497.254 434.254 -496.739 433.457 -495.548 433.297C-494.357 433.138 -492.962 433.668 -492.438 434.438C-491.905 435.24 -492.441 436.026 -493.653 436.174C-494.839 436.35 -496.23 435.836 -496.747 435.029ZM-523.892 438.919C-524.358 438.167 -523.765 437.398 -522.583 437.207C-521.428 437.041 -520.063 437.528 -519.602 438.264C-519.115 439.027 -519.693 439.791 -520.863 439.962C-522.061 440.158 -523.421 439.687 -523.892 438.919ZM-550.834 443.202C-551.253 442.489 -550.676 441.725 -549.494 441.534C-548.317 441.326 -547.031 441.784 -546.606 442.513C-546.166 443.238 -546.748 443.986 -547.93 444.177C-549.111 444.369 -550.409 443.932 -550.834 443.202ZM-577.582 448.022C-577.961 447.331 -577.33 446.57 -576.19 446.355C-575.018 446.132 -573.746 446.541 -573.351 447.227C-572.952 447.93 -573.587 448.675 -574.76 448.899C-575.905 449.097 -577.183 448.724 -577.582 448.022ZM-603.994 453.51C-604.347 452.846 -603.717 452.085 -602.575 451.818C-601.428 451.567 -600.207 451.922 -599.854 452.585C-599.497 453.265 -600.116 454.005 -601.262 454.256C-602.421 454.528 -603.637 454.189 -603.994 453.51ZM-630.096 459.813C-630.428 459.161 -629.771 458.374 -628.638 458.075C-627.521 457.78 -626.326 458.108 -625.982 458.739C-625.646 459.407 -626.292 460.174 -627.413 460.452C-628.546 460.751 -629.764 460.465 -630.096 459.813Z" fill="url(#paint0_linear_351_773)"/>
</g>
</g>
<defs>
<linearGradient id="paint0_linear_351_773" x1="1123.01" y1="-61.3964" x2="414.908" y2="758.303" gradientUnits="userSpaceOnUse">
<stop stop-color="#07EDD2"/>
<stop offset="1" stop-color="#9C63F7"/>
</linearGradient>
</defs>
</svg>
