<svg width="1280" height="424" viewBox="0 0 1280 424" fill="none" xmlns="http://www.w3.org/2000/svg">
<g opacity="0.1613">
<g opacity="0.1613">
<path opacity="0.1613" d="M1360.22 -225.874C1359.8 -226.624 1360.1 -227.445 1360.92 -227.702C1361.76 -227.969 1362.75 -227.564 1363.16 -226.83C1363.57 -226.079 1363.26 -225.254 1362.41 -224.987C1361.6 -224.714 1360.63 -225.124 1360.22 -225.874ZM1337.71 -218.365C1337.28 -219.11 1337.55 -219.938 1338.32 -220.202C1339.08 -220.461 1340.06 -220.051 1340.48 -219.321C1340.91 -218.576 1340.64 -217.744 1339.87 -217.485C1339.13 -217.214 1338.14 -217.619 1337.71 -218.365ZM1316.49 -210.901C1316.04 -211.642 1316.25 -212.471 1316.98 -212.737C1317.7 -213.003 1318.69 -212.597 1319.14 -211.857C1319.58 -211.116 1319.36 -210.282 1318.63 -210.016C1317.91 -209.75 1316.95 -210.165 1316.49 -210.901ZM1296.32 -203.469C1295.84 -204.217 1295.98 -205.027 1296.69 -205.288C1297.38 -205.544 1298.35 -205.15 1298.84 -204.403C1299.32 -203.656 1299.16 -202.841 1298.47 -202.568C1297.76 -202.323 1296.82 -202.727 1296.32 -203.469ZM1276.96 -196.067C1276.45 -196.805 1276.55 -197.638 1277.23 -197.89C1277.9 -198.157 1278.89 -197.752 1279.4 -197.014C1279.92 -196.276 1279.78 -195.434 1279.12 -195.187C1278.45 -194.919 1277.48 -195.329 1276.96 -196.067ZM1258.21 -188.687C1257.64 -189.426 1257.69 -190.245 1258.37 -190.513C1259.02 -190.776 1260.01 -190.371 1260.56 -189.626C1261.11 -188.881 1261.06 -188.063 1260.4 -187.8C1259.73 -187.532 1258.76 -187.942 1258.21 -188.687ZM1239.8 -181.304C1239.2 -182.051 1239.22 -182.86 1239.86 -183.118C1240.5 -183.376 1241.54 -182.985 1242.14 -182.239C1242.75 -181.493 1242.69 -180.674 1242.05 -180.416C1241.41 -180.158 1240.4 -180.574 1239.8 -181.304ZM1221.57 -173.937C1220.91 -174.669 1220.88 -175.48 1221.54 -175.743C1222.18 -176.002 1223.24 -175.599 1223.87 -174.862C1224.51 -174.126 1224.52 -173.31 1223.89 -173.036C1223.25 -172.793 1222.22 -173.205 1221.57 -173.937ZM1203.25 -166.563C1202.56 -167.301 1202.51 -168.124 1203.15 -168.366C1203.79 -168.624 1204.91 -168.241 1205.59 -167.497C1206.28 -166.759 1206.29 -165.927 1205.65 -165.669C1205.03 -165.431 1203.93 -165.824 1203.25 -166.563ZM1184.65 -159.193C1183.92 -159.922 1183.83 -160.73 1184.5 -160.998C1185.15 -161.261 1186.3 -160.866 1187.02 -160.121C1187.74 -159.391 1187.82 -158.558 1187.16 -158.311C1186.48 -158.043 1185.37 -158.447 1184.65 -159.193ZM1165.51 -151.788C1164.74 -152.519 1164.66 -153.332 1165.34 -153.604C1166.02 -153.856 1167.23 -153.48 1167.99 -152.744C1168.75 -152.009 1168.81 -151.191 1168.14 -150.923C1167.47 -150.656 1166.29 -151.057 1165.51 -151.788ZM1145.65 -144.377C1144.86 -145.12 1144.74 -145.923 1145.47 -146.189C1146.17 -146.45 1147.43 -146.052 1148.22 -145.325C1149.01 -144.583 1149.09 -143.77 1148.38 -143.509C1147.68 -143.232 1146.46 -143.639 1145.65 -144.377ZM1124.82 -136.926C1124 -137.659 1123.92 -138.472 1124.66 -138.742C1125.4 -138.997 1126.72 -138.618 1127.54 -137.885C1128.37 -137.152 1128.42 -136.329 1127.68 -136.059C1126.94 -135.788 1125.65 -136.193 1124.82 -136.926ZM1102.82 -129.442C1101.98 -130.17 1101.9 -130.983 1102.67 -131.247C1103.48 -131.52 1104.83 -131.134 1105.68 -130.39C1106.52 -129.662 1106.57 -128.84 1105.77 -128.566C1104.99 -128.302 1103.69 -128.702 1102.82 -129.442ZM1079.4 -121.907C1078.54 -122.63 1078.51 -123.457 1079.36 -123.724C1080.2 -123.991 1081.62 -123.608 1082.47 -122.879C1083.32 -122.156 1083.31 -121.315 1082.48 -121.053C1081.66 -120.774 1080.27 -121.167 1079.4 -121.907ZM1054.01 -114.154C1053.15 -114.878 1053.16 -115.719 1054.11 -115.998C1055.04 -116.289 1056.54 -115.913 1057.4 -115.19C1058.26 -114.466 1058.18 -113.606 1057.25 -113.332C1056.31 -113.036 1054.87 -113.415 1054.01 -114.154ZM1026.44 -105.536C1025.6 -106.28 1025.69 -107.129 1026.66 -107.45C1027.65 -107.759 1029.19 -107.409 1030.03 -106.681C1030.88 -105.937 1030.76 -105.083 1029.78 -104.758C1028.8 -104.453 1027.29 -104.792 1026.44 -105.536ZM997.646 -96.1874C996.815 -96.9365 996.925 -97.8061 997.942 -98.1411C998.96 -98.4761 1000.52 -98.1516 1001.35 -97.4026C1002.18 -96.6535 1002.03 -95.7697 1000.99 -95.43C999.975 -95.095 998.489 -95.4592 997.646 -96.1874ZM967.754 -86.2367C966.938 -86.9905 967.087 -87.9065 968.185 -88.2651C969.246 -88.6304 970.811 -88.2898 971.627 -87.536C972.442 -86.7823 972.225 -85.8635 971.164 -85.4982C970.071 -85.1235 968.569 -85.483 967.754 -86.2367ZM936.969 -75.7614C936.181 -76.5407 936.41 -77.4802 937.503 -77.855C938.58 -78.225 940.157 -77.9052 940.945 -77.1259C941.728 -76.3627 941.472 -75.3976 940.395 -75.0276C939.286 -74.6481 937.757 -74.9821 936.969 -75.7614ZM905.531 -64.9012C904.775 -65.6899 905.015 -66.6503 906.156 -67.0393C907.265 -67.4187 908.794 -67.0847 909.55 -66.296C910.306 -65.5073 910.034 -64.5374 908.925 -64.158C907.784 -63.769 906.287 -64.1125 905.531 -64.9012ZM873.601 -53.7565C872.872 -54.5707 873.16 -55.5453 874.281 -55.9456C875.401 -56.3458 876.935 -55.9958 877.663 -55.1815C878.392 -54.3673 878.039 -53.3738 876.914 -52.9896C875.794 -52.5893 874.309 -52.9536 873.601 -53.7565ZM841.337 -42.4435C840.656 -43.2719 840.972 -44.272 842.14 -44.6865C843.261 -45.0867 844.751 -44.7064 845.431 -43.878C846.112 -43.0495 845.764 -42.04 844.644 -41.6397C843.47 -41.2413 842.017 -41.6151 841.337 -42.4435ZM808.958 -31.0445C808.305 -31.8984 808.696 -32.9382 809.821 -33.3224C810.942 -33.7227 812.432 -33.3424 813.085 -32.4884C813.738 -31.6344 813.326 -30.6059 812.19 -30.201C811.065 -29.8168 809.607 -30.2066 808.958 -31.0445ZM776.694 -19.7314C776.089 -20.5996 776.464 -21.6347 777.617 -22.0444C778.737 -22.4446 780.152 -22.0246 780.773 -21.1612C781.377 -20.293 780.97 -19.2485 779.85 -18.8482C778.698 -18.4385 777.304 -18.8472 776.694 -19.7314ZM744.688 -8.547C744.111 -9.44066 744.55 -10.4947 745.654 -10.8902C746.763 -11.2696 748.173 -10.8657 748.751 -9.97202C749.328 -9.07835 748.873 -8.01962 747.748 -7.63543C746.644 -7.23992 745.266 -7.65333 744.688 -8.547ZM713.191 2.34811C712.661 1.44024 713.063 0.379679 714.156 0.00495646C715.282 -0.379232 716.621 0.08046 717.15 0.988324C717.696 1.89146 717.261 2.96153 716.136 3.34572C715.038 3.70439 713.72 3.25597 713.191 2.34811ZM682.315 12.8679C681.796 11.9393 682.247 10.8645 683.313 10.5153C684.374 10.15 685.701 10.6305 686.203 11.5639C686.722 12.4926 686.25 13.556 685.189 13.9213C684.124 14.2705 682.833 13.7966 682.315 12.8679ZM652.335 22.8791C651.849 21.941 652.251 20.8804 653.317 20.5312C654.351 20.1915 655.598 20.6956 656.084 21.6337C656.57 22.5718 656.147 23.6211 655.118 23.9769C654.053 24.3261 652.826 23.8333 652.335 22.8791ZM623.387 32.307C622.913 31.3481 623.336 30.2988 624.326 29.9893C625.316 29.6798 626.548 30.1887 627.022 31.1476C627.497 32.1065 627.053 33.1444 626.068 33.47C625.061 33.7842 623.857 33.2498 623.387 32.307ZM595.704 40.9955C595.229 40.0366 595.593 39.0223 596.551 38.7223C597.525 38.4175 598.67 38.9869 599.14 39.9298C599.614 40.8887 599.219 41.9124 598.261 42.2124C597.303 42.5125 596.163 41.9591 595.704 40.9955ZM569.86 48.1125C569.385 47.1537 569.715 46.2017 570.584 46.015C571.449 45.8123 572.559 46.444 573.034 47.4029C573.509 48.3618 573.163 49.3185 572.298 49.5212C571.408 49.6966 570.313 49.0601 569.86 48.1125ZM545.777 52.3901C545.307 51.4472 545.554 50.5718 546.395 50.4635C547.246 50.3345 548.307 51.0333 548.777 51.9761C549.247 52.919 548.967 53.8039 548.127 53.9122C547.291 54.0365 546.247 53.3329 545.777 52.3901ZM522.758 54.5397C522.277 53.6176 522.516 52.8319 523.306 52.7907C524.096 52.7495 525.162 53.4643 525.643 54.3864C526.125 55.3084 525.874 56.1149 525.084 56.1561C524.289 56.1813 523.255 55.457 522.758 54.5397ZM500.703 54.8701C500.199 53.9896 500.372 53.2756 501.129 53.2968C501.917 53.3084 502.95 54.0328 503.454 54.9133C503.958 55.7938 503.753 56.5172 502.981 56.5008C502.229 56.4957 501.223 55.7458 500.703 54.8701ZM479.394 53.7072C478.872 52.8843 479.016 52.2488 479.766 52.3067C480.499 52.3694 481.533 53.0937 482.059 53.9327C482.586 54.7716 482.426 55.4119 481.692 55.3492C480.958 55.2865 479.92 54.5461 479.394 53.7072ZM458.654 51.3996C458.093 50.623 458.208 50.0658 458.935 50.1654C459.657 50.2488 460.723 50.9637 461.283 51.7403C461.844 52.5169 461.697 53.0835 460.975 53C460.268 52.9118 459.214 52.1762 458.654 51.3996ZM438.355 48.2815C437.76 47.5673 437.825 47.0772 438.557 47.1928C439.268 47.297 440.324 47.9798 440.919 48.6941C441.513 49.4083 441.421 49.9239 440.721 49.7989C439.994 49.6993 438.949 48.9958 438.355 48.2815ZM418.284 44.695C417.656 44.0431 417.708 43.6267 418.407 43.7517C419.107 43.8768 420.218 44.5085 420.83 45.1652C421.442 45.8218 421.379 46.259 420.68 46.134C419.991 45.9882 418.908 45.3309 418.284 44.695ZM398.304 40.9423C397.647 40.3688 397.676 39.9939 398.375 40.1189C399.075 40.2439 400.188 40.8228 400.85 41.4124C401.496 42.0067 401.472 42.3976 400.783 42.2518C400.084 42.1268 398.966 41.5319 398.304 40.9423ZM378.222 37.3766C377.531 36.8654 377.537 36.5321 378.237 36.6571C378.948 36.7614 380.115 37.2892 380.795 37.8211C381.476 38.3531 381.453 38.6912 380.753 38.5661C380.054 38.4411 378.918 37.9038 378.222 37.3766ZM357.883 34.3577C357.157 33.9088 357.12 33.6058 357.864 33.7006C358.586 33.784 359.766 34.2382 360.48 34.7079C361.195 35.1775 361.2 35.49 360.489 35.3858C359.757 35.2702 358.608 34.8066 357.883 34.3577ZM337.075 32.1748C336.327 31.7675 336.299 31.4965 337.033 31.5592C337.767 31.6219 339.008 31.9882 339.757 32.3955C340.505 32.8028 340.505 33.0993 339.771 33.0366C339.038 32.9739 337.839 32.5773 337.075 32.1748ZM315.696 31.1894C314.93 30.8397 314.865 30.5622 315.654 30.5739C316.405 30.579 317.681 30.8829 318.447 31.2326C319.218 31.5984 319.234 31.8901 318.478 31.869C317.706 31.8526 316.462 31.5391 315.696 31.1894ZM293.512 31.7324C292.718 31.4082 292.707 31.1325 293.492 31.0753C294.282 31.034 295.599 31.2389 296.392 31.563C297.185 31.8872 297.174 32.2044 296.384 32.2457C295.594 32.2869 294.3 32.0405 293.512 31.7324ZM270.389 34.1218C269.589 33.8345 269.564 33.5107 270.399 33.3863C271.219 33.2667 272.569 33.4092 273.369 33.6966C274.169 33.9839 274.167 34.3332 273.348 34.4528C272.512 34.5772 271.189 34.4092 270.389 34.1218ZM246.137 38.7111C245.321 38.4285 245.35 38.0536 246.214 37.8509C247.079 37.6482 248.491 37.7028 249.291 37.9902C250.107 38.2728 250.034 38.6779 249.17 38.8806C248.321 39.0786 246.953 38.9937 246.137 38.7111ZM219.781 46.9908C218.965 46.7081 219.062 46.2086 220.021 45.8557C221.013 45.4933 222.477 45.428 223.288 45.6946C224.104 45.9772 223.98 46.5022 222.993 46.8806C222.017 47.2383 220.597 47.2734 219.781 46.9908ZM191.07 58.7033C190.266 58.3999 190.456 57.803 191.477 57.3622C192.515 56.9168 194.044 56.7796 194.828 57.0717C195.628 57.3591 195.431 57.9927 194.394 58.4382C193.372 58.879 191.87 58.9906 191.07 58.7033ZM160.662 72.818C159.885 72.4891 160.104 71.8139 161.187 71.2853C162.301 70.7472 163.826 70.594 164.598 70.9069C165.376 71.2358 165.145 71.9318 164.019 72.4907C162.948 72.9985 161.439 73.147 160.662 72.818ZM128.795 88.9676C128.056 88.5924 128.365 87.8038 129.497 87.2081C130.63 86.6125 132.198 86.429 132.936 86.8042C133.691 87.1747 133.355 87.9888 132.223 88.5845C131.09 89.1802 129.534 89.3428 128.795 88.9676ZM95.7909 106.761C95.0863 106.323 95.4283 105.472 96.5995 104.83C97.7707 104.188 99.3227 104.01 100.039 104.427C100.739 104.848 100.342 105.75 99.1754 106.408C97.9995 107.034 96.4909 107.182 95.7909 106.761ZM61.837 125.829C61.1823 125.324 61.613 124.36 62.8116 123.692C64.0054 123.009 65.5461 122.851 66.2121 123.335C66.8781 123.818 66.4201 124.808 65.2262 125.492C64.0324 126.175 62.5077 126.328 61.837 125.829ZM27.3021 145.765C26.6974 145.194 27.146 144.172 28.3672 143.463C29.5724 142.758 31.1066 142.637 31.7065 143.193C32.3225 143.744 31.8031 144.821 30.5979 145.526C29.3815 146.251 27.9229 146.332 27.3021 145.765ZM-7.62131 166.218C-8.17602 165.579 -7.66137 164.485 -6.41283 163.751C-5.19165 163.042 -3.71223 162.972 -3.14621 163.59C-2.5915 164.228 -3.14957 165.352 -4.36602 166.078C-5.64192 166.838 -7.06187 166.873 -7.62131 166.218ZM-42.5966 186.79C-43.106 186.068 -42.5414 184.908 -41.3363 184.203C-40.1151 183.494 -38.6904 183.475 -38.1649 184.192C-37.6602 184.898 -38.2682 186.089 -39.4847 186.814C-40.7059 187.523 -42.0919 187.496 -42.5966 186.79ZM-77.4201 207.109C-77.8635 206.315 -77.2762 205.113 -76.039 204.399C-74.8339 203.695 -73.4818 203.784 -73.0223 204.573C-72.5676 205.346 -73.1662 206.569 -74.3873 207.278C-75.6454 207.981 -76.9814 207.886 -77.4201 207.109ZM-111.76 226.761C-112.153 225.9 -111.543 224.656 -110.361 223.994C-109.178 223.331 -107.849 223.462 -107.439 224.318C-107.03 225.174 -107.688 226.432 -108.882 227.116C-110.096 227.788 -111.366 227.622 -111.76 226.761ZM-145.402 245.406C-145.762 244.482 -145.141 243.218 -143.949 242.587C-142.789 241.966 -141.564 242.215 -141.193 243.118C-140.839 244.025 -141.476 245.294 -142.631 245.931C-143.834 246.583 -145.059 246.333 -145.402 245.406ZM-178.043 262.656C-178.364 261.686 -177.695 260.407 -176.59 259.837C-175.469 259.262 -174.273 259.59 -173.952 260.559C-173.631 261.529 -174.301 262.808 -175.417 263.399C-176.543 263.957 -177.739 263.63 -178.043 262.656ZM-209.388 278.093C-209.67 277.077 -209.06 275.833 -207.957 275.316C-206.885 274.808 -205.783 275.233 -205.485 276.244C-205.187 277.255 -205.813 278.504 -206.884 279.012C-208.019 279.538 -209.106 279.109 -209.388 278.093ZM-239.222 291.376C-239.493 290.339 -238.878 289.111 -237.868 288.691C-236.858 288.271 -235.786 288.775 -235.515 289.811C-235.244 290.848 -235.858 292.075 -236.884 292.5C-237.894 292.92 -238.951 292.412 -239.222 291.376ZM-267.214 302.091C-267.474 301.034 -266.937 299.899 -265.988 299.567C-265.007 299.225 -264.028 299.826 -263.768 300.883C-263.509 301.94 -264.046 303.076 -265.027 303.417C-265.991 303.754 -266.955 303.149 -267.214 302.091ZM-293.247 309.752C-293.507 308.695 -292.987 307.618 -292.084 307.369C-291.181 307.12 -290.214 307.794 -289.955 308.851C-289.695 309.908 -290.219 310.97 -291.123 311.219C-292.026 311.468 -292.992 310.794 -293.247 309.752ZM-319.015 316.48C-319.274 315.423 -318.782 314.371 -317.869 314.154C-316.945 313.916 -316.006 314.616 -315.751 315.657C-315.492 316.715 -315.988 317.751 -316.913 317.988C-317.805 318.217 -318.739 317.533 -319.015 316.48ZM-344.776 322.753C-345.031 321.712 -344.518 320.671 -343.606 320.454C-342.709 320.242 -341.738 320.933 -341.483 321.974C-341.228 323.015 -341.741 324.056 -342.654 324.273C-343.551 324.485 -344.517 323.811 -344.776 322.753ZM-370.514 328.635C-370.785 327.599 -370.283 326.579 -369.382 326.383C-368.464 326.182 -367.525 326.882 -367.259 327.902C-366.988 328.939 -367.495 329.943 -368.428 330.148C-369.325 330.36 -370.259 329.676 -370.514 328.635ZM-396.273 334.21C-396.539 333.189 -396.017 332.18 -395.115 331.984C-394.214 331.788 -393.275 332.488 -393.025 333.513C-392.758 334.533 -393.265 335.538 -394.155 335.713C-395.052 335.925 -396.007 335.23 -396.273 334.21ZM-421.997 339.547C-422.258 338.542 -421.763 337.559 -420.862 337.363C-419.955 337.183 -419.005 337.862 -418.739 338.882C-418.478 339.887 -419.005 340.879 -419.895 341.055C-420.801 341.235 -421.735 340.551 -421.997 339.547ZM-447.741 344.698C-447.997 343.71 -447.482 342.738 -446.58 342.542C-445.69 342.366 -444.74 343.045 -444.478 344.05C-444.217 345.054 -444.721 346.005 -445.611 346.181C-446.513 346.377 -447.479 345.702 -447.741 344.698ZM-473.488 349.78C-473.76 348.797 -473.224 347.836 -472.334 347.661C-471.427 347.481 -470.477 348.16 -470.209 349.127C-469.936 350.111 -470.473 351.071 -471.363 351.247C-472.253 351.422 -473.215 350.764 -473.488 349.78ZM-499.207 354.837C-499.475 353.869 -498.95 352.93 -498.043 352.75C-497.137 352.569 -496.208 353.237 -495.94 354.205C-495.672 355.172 -496.181 356.107 -497.071 356.283C-497.982 356.447 -498.939 355.805 -499.207 354.837ZM-524.944 359.951C-525.208 359 -524.682 358.06 -523.776 357.88C-522.87 357.7 -521.913 358.342 -521.65 359.294C-521.387 360.245 -521.912 361.185 -522.802 361.36C-523.724 361.545 -524.681 360.903 -524.944 359.951ZM-550.671 365.22C-550.93 364.284 -550.404 363.344 -549.514 363.169C-548.613 362.973 -547.677 363.604 -547.413 364.555C-547.155 365.491 -547.648 366.421 -548.554 366.601C-549.444 366.777 -550.397 366.15 -550.671 365.22ZM-576.41 370.683C-576.685 369.753 -576.155 368.829 -575.253 368.633C-574.352 368.437 -573.388 369.042 -573.13 369.978C-572.855 370.908 -573.385 371.832 -574.287 372.028C-575.193 372.208 -576.156 371.603 -576.41 370.683ZM-602.154 376.428C-602.423 375.513 -601.93 374.583 -600.997 374.377C-600.1 374.165 -599.157 374.759 -598.887 375.674C-598.618 376.588 -599.131 377.507 -600.028 377.719C-600.941 377.936 -601.884 377.342 -602.154 376.428ZM-627.926 382.547C-628.196 381.632 -627.666 380.708 -626.774 380.48C-625.877 380.268 -624.907 380.836 -624.642 381.735C-624.372 382.65 -624.902 383.573 -625.799 383.786C-626.691 384.014 -627.661 383.445 -627.926 382.547ZM-653.676 389.095C-653.941 388.197 -653.437 387.245 -652.513 387.008C-651.605 386.775 -650.672 387.337 -650.407 388.235C-650.141 389.134 -650.635 390.064 -651.538 390.313C-652.462 390.551 -653.411 389.994 -653.676 389.095Z" fill="url(#paint0_linear_351_752)"/>
</g>
</g>
<defs>
<linearGradient id="paint0_linear_351_752" x1="1100.93" y1="-146.176" x2="457.677" y2="681.913" gradientUnits="userSpaceOnUse">
<stop stop-color="#07EDD2"/>
<stop offset="1" stop-color="#9C63F7"/>
</linearGradient>
</defs>
</svg>
