<svg width="1280" height="878" viewBox="0 0 1280 878" fill="none" xmlns="http://www.w3.org/2000/svg">
<g opacity="0.6774">
<g opacity="0.6774">
<path opacity="0.6774" d="M1485.7 11.867C1485.98 11.12 1487.83 10.2423 1489.83 9.98399C1491.87 9.71618 1493.28 10.1362 1493 10.8464C1492.73 11.5359 1490.85 12.3011 1488.81 12.6057C1486.78 12.8896 1485.39 12.6027 1485.7 11.867ZM1460.56 17.2566C1460.94 16.3962 1462.87 15.2513 1464.93 14.7305C1466.96 14.2191 1468.35 14.5428 1467.99 15.3616C1467.66 16.1758 1465.68 17.2291 1463.63 17.766C1461.55 18.3077 1460.21 18.1123 1460.56 17.2566ZM1435.16 25.3788C1435.61 24.4419 1437.64 23.0411 1439.68 22.3342C1441.75 21.6019 1443.09 21.818 1442.66 22.7294C1442.23 23.6409 1440.17 24.9293 1438.07 25.6712C1435.98 26.4083 1434.7 26.2997 1435.16 25.3788ZM1409.53 35.8861C1410.09 34.9 1412.2 33.3008 1414.29 32.389C1416.34 31.4867 1417.61 31.584 1417.08 32.5607C1416.54 33.5373 1414.38 35.0288 1412.29 35.9614C1410.19 36.8939 1408.96 36.8722 1409.53 35.8861ZM1383.83 48.4555C1384.5 47.4202 1386.7 45.6708 1388.76 44.6099C1390.85 43.5395 1392.04 43.5386 1391.38 44.5692C1390.74 45.595 1388.49 47.2528 1386.38 48.3487C1384.28 49.4191 1383.15 49.4908 1383.83 48.4555ZM1358.1 62.7763C1358.88 61.7078 1361.17 59.8131 1363.24 58.6096C1365.29 57.4108 1366.4 57.3278 1365.65 58.4028C1364.92 59.457 1362.57 61.265 1360.49 62.4732C1358.37 63.707 1357.33 63.84 1358.1 62.7763ZM1332.52 78.5207C1333.4 77.4239 1335.77 75.4157 1337.83 74.1112C1339.89 72.7859 1340.9 72.6464 1340.06 73.7498C1339.21 74.8371 1336.8 76.7698 1334.69 78.0885C1332.62 79.3978 1331.64 79.6175 1332.52 78.5207ZM1307.17 95.3271C1308.15 94.2019 1310.56 92.1314 1312.6 90.7259C1314.64 89.3411 1315.56 89.1563 1314.6 90.2768C1313.67 91.3879 1311.18 93.4131 1309.13 94.8026C1307.05 96.2175 1306.21 96.4476 1307.17 95.3271ZM1282.13 112.917C1283.19 111.752 1285.63 109.619 1287.64 108.17C1289.67 106.717 1290.5 106.507 1289.48 107.663C1288.47 108.797 1285.95 110.901 1283.91 112.359C1281.86 113.834 1281.1 114.077 1282.13 112.917ZM1257.57 130.926C1258.66 129.714 1261.11 127.524 1263.1 126.048C1265.07 124.597 1265.82 124.391 1264.75 125.597C1263.67 126.788 1261.15 128.944 1259.18 130.415C1257.16 131.917 1256.48 132.137 1257.57 130.926ZM1233.53 149.075C1234.65 147.801 1237.08 145.567 1239.02 144.105C1240.95 142.648 1241.66 142.472 1240.55 143.74C1239.46 144.989 1236.91 147.223 1234.99 148.697C1233.03 150.18 1232.41 150.327 1233.53 149.075ZM1210.15 166.977C1211.26 165.602 1213.65 163.346 1215.51 161.923C1217.41 160.475 1218.07 160.403 1216.94 161.746C1215.83 163.067 1213.37 165.347 1211.48 166.811C1209.62 168.266 1209.05 168.33 1210.15 166.977ZM1187.52 184.36C1188.59 182.878 1190.89 180.56 1192.73 179.179C1194.54 177.808 1195.2 177.857 1194.13 179.307C1193.05 180.741 1190.64 183.092 1188.85 184.491C1187.02 185.904 1186.48 185.837 1187.52 184.36ZM1165.79 200.869C1166.78 199.236 1168.94 196.871 1170.71 195.583C1172.45 194.299 1173.1 194.528 1172.09 196.134C1171.09 197.703 1168.83 200.096 1167.11 201.423C1165.37 202.755 1164.82 202.481 1165.79 200.869ZM1145 216.193C1145.84 214.359 1147.85 211.952 1149.54 210.756C1151.22 209.581 1151.91 210.04 1151.02 211.803C1150.14 213.562 1148.03 216.034 1146.4 217.264C1144.76 218.514 1144.16 218.011 1145 216.193ZM1123.89 232.973C1124.57 230.837 1126.6 227.848 1128.48 226.283C1130.33 224.743 1131.26 225.115 1130.53 227.143C1129.81 229.151 1127.74 232.133 1125.93 233.785C1124.1 235.458 1123.22 235.072 1123.89 232.973ZM1100.54 253.258C1101.07 250.799 1103.08 247.502 1105.04 245.861C1106.98 244.24 1108.1 244.851 1107.53 247.218C1106.97 249.565 1104.92 252.871 1103.02 254.567C1101.1 256.284 1100.01 255.68 1100.54 253.258ZM1076.12 274.083C1076.53 271.381 1078.49 267.855 1080.51 266.195C1082.56 264.509 1083.87 265.275 1083.42 267.917C1082.99 270.522 1080.98 274.078 1078.99 275.819C1076.99 277.523 1075.72 276.748 1076.12 274.083ZM1050.73 295.281C1051.02 292.422 1052.93 288.72 1055.04 287.015C1057.14 285.315 1058.61 286.208 1058.29 289.024C1057.98 291.818 1056.02 295.535 1053.97 297.274C1051.89 299.022 1050.45 298.104 1050.73 295.281ZM1024.53 316.616C1024.7 313.652 1026.57 309.874 1028.73 308.155C1030.91 306.431 1032.52 307.403 1032.32 310.34C1032.11 313.244 1030.21 317.068 1028.08 318.831C1025.93 320.545 1024.36 319.543 1024.53 316.616ZM997.595 337.903C997.663 334.883 999.485 331.066 1001.73 329.34C1003.95 327.622 1005.68 328.646 1005.59 331.655C1005.51 334.628 1003.65 338.491 1001.46 340.198C999.242 341.952 997.533 340.887 997.595 337.903ZM970.131 358.929C970.099 355.921 971.889 352.114 974.129 350.424C976.396 348.708 978.26 349.764 978.26 352.781C978.267 355.762 976.439 359.615 974.203 361.321C971.984 363.022 970.159 361.921 970.131 358.929ZM942.196 379.536C942.067 376.556 943.823 372.811 946.121 371.139C948.391 369.493 950.339 370.54 950.441 373.545C950.528 376.502 948.77 380.3 946.516 381.942C944.246 383.588 942.31 382.467 942.196 379.536ZM913.983 399.439C913.788 396.531 915.487 392.89 917.772 391.292C920.105 389.68 922.122 390.724 922.31 393.669C922.484 396.565 920.767 400.264 918.466 401.867C916.188 403.428 914.184 402.31 913.983 399.439ZM885.556 418.499C885.279 415.668 886.931 412.163 889.267 410.619C891.575 409.101 893.678 410.138 893.927 412.995C894.167 415.819 892.497 419.382 890.221 420.891C887.908 422.393 885.823 421.298 885.556 418.499ZM857.092 436.488C856.759 433.761 858.353 430.412 860.696 428.954C863.023 427.5 865.178 428.539 865.489 431.308C865.807 434.04 864.179 437.45 861.863 438.883C859.542 440.3 857.421 439.199 857.092 436.488ZM828.737 453.189C828.347 450.566 829.883 447.374 832.211 446.042C834.507 444.719 836.699 445.765 837.062 448.414C837.436 451.042 835.866 454.296 833.582 455.598C831.281 456.904 829.122 455.796 828.737 453.189ZM800.565 468.441C800.13 465.9 801.621 462.914 803.913 461.697C806.195 460.501 808.424 461.553 808.848 464.114C809.262 466.643 807.73 469.729 805.477 470.899C803.191 472.079 800.991 470.949 800.565 468.441ZM772.76 481.979C772.279 479.522 773.701 476.713 775.956 475.664C778.222 474.595 780.433 475.704 780.902 478.182C781.362 480.628 779.916 483.532 777.656 484.565C775.434 485.604 773.236 484.421 772.76 481.979ZM745.401 493.66C744.886 491.265 746.254 488.629 748.483 487.727C750.679 486.835 752.909 488.009 753.428 490.42C753.922 492.804 752.525 495.518 750.329 496.41C748.111 497.291 745.911 496.039 745.401 493.66ZM718.681 503.25C718.139 500.881 719.438 498.422 721.585 497.719C723.76 496.99 725.943 498.3 726.485 500.67C727.017 503.007 725.71 505.555 723.536 506.284C721.383 506.971 719.214 505.587 718.681 503.25ZM692.613 510.555C692.055 508.191 693.305 505.921 695.435 505.397C697.534 504.883 699.685 506.324 700.243 508.689C700.792 511.021 699.544 513.413 697.445 513.927C695.326 514.43 693.162 512.888 692.613 510.555ZM666.696 515.06C666.111 512.721 667.364 510.642 669.46 510.355C671.588 510.059 673.759 511.686 674.329 514.03C674.893 516.357 673.668 518.533 671.552 518.808C669.451 519.079 667.272 517.367 666.696 515.06ZM640.736 516.996C640.124 514.682 641.344 512.787 643.476 512.681C645.575 512.585 647.769 514.346 648.366 516.664C648.953 518.95 647.745 520.946 645.661 521.037C643.541 521.122 641.339 519.277 640.736 516.996ZM614.804 516.778C614.153 514.51 615.347 512.763 617.457 512.82C619.588 512.89 621.815 514.762 622.45 517.034C623.081 519.29 621.894 521.123 619.775 521.033C617.676 520.954 615.446 519.013 614.804 516.778ZM588.85 514.769C588.16 512.548 589.323 510.932 591.455 511.123C593.555 511.323 595.805 513.276 596.484 515.518C597.153 517.728 595.993 519.413 593.909 519.208C591.788 518.996 589.519 516.979 588.85 514.769ZM562.905 511.433C562.171 509.242 563.299 507.741 565.411 508.042C567.539 508.339 569.841 510.347 570.558 512.542C571.271 514.722 570.158 516.271 568.041 515.953C565.944 515.647 563.629 513.592 562.905 511.433ZM536.936 507.127C536.147 504.987 537.25 503.58 539.381 503.946C541.476 504.305 543.814 506.319 544.57 508.468C545.337 510.597 544.249 512.051 542.166 511.672C540.051 511.301 537.703 509.255 536.936 507.127ZM510.964 502.281C510.142 500.203 511.206 498.843 513.31 499.234C515.434 499.636 517.805 501.641 518.616 503.739C519.422 505.821 518.399 507.204 516.27 506.786C514.198 506.385 511.781 504.342 510.964 502.281ZM485.023 497.303C484.147 495.277 485.151 493.951 487.292 494.349C489.396 494.74 491.81 496.714 492.675 498.762C493.536 500.793 492.531 502.118 490.459 501.718C488.314 501.304 485.896 499.314 485.023 497.303ZM459.069 492.574C458.137 490.599 459.11 489.283 461.22 489.637C463.351 490.003 465.799 491.915 466.72 493.911C467.63 495.875 466.679 497.202 464.559 496.816C462.464 496.457 459.996 494.533 459.069 492.574ZM433.102 488.511C432.132 486.582 433.062 485.244 435.191 485.54C437.303 485.842 439.775 487.659 440.734 489.609C441.684 491.527 440.785 492.856 438.689 492.55C436.576 492.249 434.067 490.425 433.102 488.511ZM407.176 485.536C406.151 483.658 407.052 482.276 409.152 482.476C411.288 482.683 413.796 484.385 414.81 486.284C415.803 488.172 414.93 489.528 412.825 489.312C410.72 489.095 408.18 487.402 407.176 485.536ZM381.21 484.019C380.141 482.172 381.018 480.709 383.149 480.779C385.244 480.841 387.803 482.423 388.856 484.276C389.887 486.117 389.054 487.549 386.971 487.466C384.84 487.397 382.253 485.84 381.21 484.019ZM355.273 484.378C354.182 482.572 355.026 480.997 357.126 480.901C359.242 480.801 361.823 482.22 362.903 484.047C363.973 485.842 363.168 487.37 361.052 487.471C358.968 487.562 356.36 486.169 355.273 484.378ZM329.336 487.04C328.218 485.259 329.04 483.552 331.167 483.255C333.263 482.969 335.861 484.208 336.968 486.01C338.066 487.779 337.283 489.44 335.187 489.727C333.066 489.987 330.433 488.809 329.336 487.04ZM303.384 492.374C302.25 490.598 303.057 488.721 305.171 488.202C307.27 487.688 309.88 488.732 311.015 490.508C312.139 492.252 311.371 494.083 309.273 494.597C307.158 495.116 304.509 494.118 303.384 492.374ZM277.122 499.789C276.045 498.031 276.907 496.102 279.03 495.494C281.185 494.876 283.799 495.814 284.891 497.567C285.98 499.305 285.155 501.24 282.979 501.847C280.824 502.465 278.189 501.515 277.122 499.789ZM250.66 507.472C249.709 505.729 250.693 503.8 252.822 503.154C254.94 502.529 257.439 503.432 258.442 505.177C259.425 506.91 258.478 508.847 256.323 509.465C254.141 510.108 251.589 509.204 250.66 507.472ZM224.227 515.373C223.472 513.642 224.577 511.712 226.69 511.071C228.82 510.425 231.188 511.297 232.011 513.025C232.814 514.742 231.725 516.668 229.547 517.327C227.365 517.971 224.977 517.088 224.227 515.373ZM197.761 523.459C197.238 521.746 198.539 519.828 200.659 519.15C202.768 518.493 204.935 519.337 205.547 521.057C206.134 522.751 204.87 524.676 202.693 525.336C200.483 526.005 198.279 525.155 197.761 523.459ZM171.322 531.693C171.068 530.006 172.58 528.095 174.668 527.427C176.788 526.749 178.755 527.564 179.099 529.26C179.437 530.939 177.941 532.845 175.736 533.531C173.574 534.186 171.57 533.364 171.322 531.693ZM144.867 540.054C144.904 538.404 146.643 536.495 148.763 535.817C150.863 535.128 152.598 535.925 152.656 537.6C152.704 539.243 150.964 541.151 148.792 541.827C146.566 542.501 144.826 541.688 144.867 540.054ZM118.416 548.484C118.774 546.861 120.767 544.982 122.85 544.298C124.965 543.604 126.463 544.366 126.195 545.998C125.942 547.625 123.949 549.503 121.744 550.188C119.571 550.864 118.069 550.086 118.416 548.484ZM91.9578 556.95C92.6383 555.354 94.8953 553.485 97.0106 552.791C99.0938 552.107 100.323 552.844 99.748 554.443C99.1686 556.027 96.9116 557.896 94.7387 558.572C92.5063 559.283 91.2726 558.531 91.9578 556.95ZM65.5046 565.433C66.507 563.864 69.0218 562.041 71.1163 561.336C73.2316 560.642 74.2075 561.349 73.2947 562.926C72.3933 564.483 69.8673 566.327 67.6623 567.012C65.478 567.709 64.5135 566.981 65.5046 565.433ZM39.0419 573.884C40.3663 572.342 43.1501 570.544 45.2655 569.85C47.3487 569.166 48.0602 569.863 46.8255 571.414C45.6021 572.943 42.8229 574.757 40.634 575.438C38.429 576.123 37.7335 575.421 39.0419 573.884ZM12.581 582.282C14.2114 580.772 17.2596 578.983 19.3636 578.31C21.4789 577.616 21.942 578.3 20.4014 579.818C18.8721 581.316 15.8446 583.116 13.6349 583.785C11.4459 584.465 10.9667 583.787 12.581 582.282ZM-13.8554 590.585C-11.9399 589.096 -8.68675 587.351 -6.56671 586.673C-4.46272 586 -4.23184 586.665 -6.0784 588.152C-7.89286 589.629 -11.1573 591.394 -13.335 592.054C-15.5447 592.723 -15.7435 592.049 -13.8554 590.585ZM-40.3183 598.739C-38.1498 597.28 -34.6644 595.554 -32.5765 594.886C-30.4517 594.224 -30.4162 594.877 -32.5158 596.333C-34.5834 597.78 -38.064 599.522 -40.2738 600.191C-42.4354 600.846 -42.4548 600.189 -40.3183 598.739ZM-66.7597 606.73C-64.3797 605.278 -60.7582 603.599 -58.6127 602.949C-56.4992 602.308 -56.6592 602.948 -58.9703 604.398C-61.2654 605.842 -64.9142 607.546 -67.0853 608.169C-69.279 608.834 -69.1076 608.173 -66.7597 606.73ZM-93.2049 614.53C-90.6616 613.1 -86.8815 611.427 -84.7633 610.802C-82.6131 610.168 -82.9109 610.814 -85.4014 612.246C-87.8599 613.669 -91.672 615.351 -93.8591 615.979C-96.0141 616.597 -95.721 615.935 -93.2049 614.53ZM-119.641 622.066C-117.008 620.644 -113.15 619 -110.99 618.398C-108.867 617.789 -109.229 618.454 -111.846 619.871C-114.431 621.279 -118.321 622.932 -120.481 623.535C-122.668 624.162 -122.258 623.483 -119.641 622.066ZM-145.958 629.235C-143.397 627.747 -139.543 626.087 -137.337 625.524C-135.131 624.96 -135.458 625.685 -138.045 627.145C-140.616 628.601 -144.465 630.277 -146.629 630.863C-148.81 631.454 -148.488 630.714 -145.958 629.235ZM-173.902 636.273C-171.542 634.635 -167.716 632.879 -165.384 632.331C-163.019 631.773 -163.085 632.612 -165.513 634.2C-167.908 635.779 -171.728 637.551 -174.026 638.159C-176.291 638.757 -176.234 637.886 -173.902 636.273ZM-203.375 643.327C-201.263 641.501 -197.554 639.587 -195.063 639.044C-192.571 638.501 -192.372 639.471 -194.568 641.253C-196.736 643.009 -200.404 644.945 -202.823 645.554C-205.227 646.158 -205.456 645.144 -203.375 643.327ZM-233.97 650.485C-232.176 648.403 -228.641 646.314 -226.102 645.757C-223.526 645.206 -222.978 646.353 -224.864 648.357C-226.739 650.34 -230.26 652.478 -232.743 653.106C-235.19 653.74 -235.752 652.545 -233.97 650.485ZM-265.403 657.872C-263.966 655.53 -260.677 653.199 -258.036 652.629C-255.428 652.069 -254.559 653.418 -256.089 655.683C-257.607 657.928 -260.899 660.311 -263.394 660.96C-265.93 661.586 -266.813 660.189 -265.403 657.872ZM-297.239 665.553C-296.204 662.91 -293.202 660.315 -290.566 659.73C-287.899 659.135 -286.688 660.696 -287.836 663.25C-288.977 665.767 -291.961 668.427 -294.515 669.11C-297.053 669.789 -298.262 668.175 -297.239 665.553ZM-329.206 673.673C-328.595 670.72 -325.932 667.859 -323.258 667.227C-320.616 666.605 -319.079 668.384 -319.825 671.238C-320.559 674.071 -323.203 676.996 -325.711 677.718C-328.255 678.434 -329.811 676.59 -329.206 673.673ZM-360.868 682.297C-360.68 679.032 -358.399 675.882 -355.787 675.217C-353.143 674.542 -351.286 676.523 -351.603 679.704C-351.914 682.848 -354.187 686.083 -356.702 686.842C-359.168 687.587 -361.05 685.525 -360.868 682.297ZM-391.948 691.534C-392.199 687.962 -390.3 684.524 -387.728 683.783C-385.183 683.067 -383.02 685.255 -382.899 688.743C-382.787 692.198 -384.646 695.712 -387.072 696.532C-389.515 697.357 -391.69 695.069 -391.948 691.534ZM-422.011 701.5C-422.68 697.633 -421.216 693.905 -418.743 693.123C-416.258 692.32 -413.827 694.708 -413.271 698.486C-412.724 702.232 -414.181 706.046 -416.536 706.932C-418.88 707.798 -421.355 705.318 -422.011 701.5ZM-450.772 712.268C-451.851 708.138 -450.796 704.147 -448.436 703.276C-446.092 702.411 -443.439 704.96 -442.469 709.017C-441.53 713.031 -442.552 717.135 -444.771 718.068C-447.022 719.011 -449.719 716.371 -450.772 712.268ZM-477.83 723.964C-479.272 719.61 -478.641 715.36 -476.459 714.42C-474.245 713.47 -471.4 716.137 -470.063 720.435C-468.74 724.684 -469.337 729.047 -471.442 730.069C-473.52 731.066 -476.403 728.27 -477.83 723.964ZM-502.875 736.689C-504.654 732.138 -504.435 727.677 -502.407 726.626C-500.407 725.6 -497.417 728.346 -495.742 732.841C-494.082 737.288 -494.259 741.892 -496.176 742.963C-498.12 744.06 -501.132 741.181 -502.875 736.689ZM-525.535 750.524C-527.579 745.842 -527.765 741.187 -525.957 740.043C-524.165 738.904 -521.096 741.68 -519.136 746.317C-517.184 750.922 -516.992 755.714 -518.706 756.882C-520.414 758.067 -523.505 755.158 -525.535 750.524ZM-545.41 765.579C-547.663 760.836 -548.226 756.031 -546.674 754.788C-545.11 753.525 -542.062 756.288 -539.866 761.013C-537.685 765.69 -537.1 770.628 -538.606 771.91C-540.101 773.17 -543.17 770.273 -545.41 765.579Z" fill="url(#paint0_linear_351_864)"/>
</g>
</g>
<defs>
<linearGradient id="paint0_linear_351_864" x1="1265.09" y1="235.375" x2="210.177" y2="939.824" gradientUnits="userSpaceOnUse">
<stop stop-color="#07EDD2"/>
<stop offset="1" stop-color="#9C63F7"/>
</linearGradient>
</defs>
</svg>
