<svg width="1280" height="725" viewBox="0 0 1280 725" fill="none" xmlns="http://www.w3.org/2000/svg">
<g opacity="0.4839">
<g opacity="0.4839">
<path opacity="0.4839" d="M1427.38 18.2106C1426.32 18.6977 1426.77 18.9305 1428.37 18.7376C1429.97 18.5448 1432.15 18.0229 1433.21 17.5198C1434.27 17.0327 1433.8 16.7517 1432.2 16.9446C1430.61 17.1167 1428.43 17.7075 1427.38 18.2106ZM1402.18 21.56C1401.09 22.0405 1401.5 22.2139 1403.13 21.9955C1404.74 21.7657 1406.93 21.2231 1408.03 20.7265C1409.12 20.23 1408.7 20.0038 1407.09 20.2335C1405.49 20.4632 1403.28 21.0795 1402.18 21.56ZM1376.9 25.5099C1375.77 25.9309 1376.17 26.0241 1377.78 25.7576C1379.4 25.5071 1381.63 24.9549 1382.76 24.5339C1383.88 24.0968 1383.51 23.9461 1381.9 24.2287C1380.29 24.5113 1378.04 25.1049 1376.9 25.5099ZM1351.62 30.1056C1350.44 30.419 1350.8 30.3998 1352.43 30.1125C1354.05 29.8092 1356.32 29.3325 1357.47 28.9918C1358.64 28.6462 1358.28 28.6125 1356.69 28.9433C1355.09 29.258 1352.81 29.8083 1351.62 30.1056ZM1326.37 35.3906C1325.15 35.5596 1325.47 35.412 1327.1 35.0718C1328.71 34.7363 1331 34.3239 1332.22 34.102C1333.43 33.8849 1333.11 33.9956 1331.51 34.3632C1329.9 34.7515 1327.6 35.2216 1326.37 35.3906ZM1301.23 41.3778C1299.96 41.4024 1300.28 41.0641 1301.88 40.6966C1303.49 40.3082 1305.8 39.976 1307.06 39.9194C1308.31 39.8627 1308.03 40.1386 1306.44 40.5543C1304.84 40.9747 1302.48 41.358 1301.23 41.3778ZM1276.26 48.0967C1274.96 47.94 1275.21 47.446 1276.8 47.0303C1278.4 46.5939 1280.72 46.3626 1282.01 46.4872C1283.3 46.5957 1283.07 47.0481 1281.48 47.5167C1279.9 47.9645 1277.56 48.2534 1276.26 48.0967ZM1251.51 55.6066C1250.17 55.2847 1250.36 54.6189 1251.98 54.1248C1253.54 53.6449 1255.89 53.51 1257.22 53.7998C1258.54 54.0896 1258.34 54.7233 1256.77 55.24C1255.16 55.7501 1252.84 55.9284 1251.51 55.6066ZM1227.01 63.914C1225.66 63.4222 1225.84 62.5497 1227.39 62.0217C1228.94 61.4937 1231.31 61.4598 1232.65 61.9195C1233.99 62.3792 1233.82 63.1941 1232.26 63.759C1230.72 64.3351 1228.36 64.4058 1227.01 63.914ZM1202.84 73.0644C1201.48 72.4027 1201.63 71.365 1203.18 70.7841C1204.72 70.1918 1207.07 70.2476 1208.42 70.8613C1209.78 71.4909 1209.65 72.471 1208.12 73.0953C1206.56 73.7291 1204.2 73.7101 1202.84 73.0644ZM1179.09 83.0708C1177.72 82.2713 1177.84 81.0844 1179.34 80.4327C1180.84 79.781 1183.18 79.8944 1184.54 80.678C1185.9 81.4454 1185.8 82.5907 1184.3 83.2792C1182.8 83.947 1180.46 83.8704 1179.09 83.0708ZM1155.77 94.0135C1154.4 93.1082 1154.5 91.7721 1155.98 91.0723C1157.48 90.3517 1159.78 90.5114 1161.14 91.4007C1162.5 92.29 1162.41 93.5731 1160.92 94.3258C1159.44 95.0417 1157.14 94.9188 1155.77 94.0135ZM1132.98 105.864C1131.64 104.88 1131.72 103.443 1133.17 102.668C1134.62 101.893 1136.86 102.066 1138.21 103.029C1139.56 103.992 1139.47 105.397 1138.03 106.189C1136.59 106.98 1134.32 106.848 1132.98 105.864ZM1110.74 118.703C1109.43 117.693 1109.53 116.183 1110.95 115.327C1112.33 114.502 1114.55 114.632 1115.86 115.642C1117.16 116.651 1117.07 118.145 1115.67 118.975C1114.24 119.815 1112.03 119.717 1110.74 118.703ZM1089.13 132.543C1087.88 131.567 1087.98 130.02 1089.33 129.098C1090.69 128.193 1092.8 128.266 1094.07 129.253C1095.32 130.244 1095.25 131.766 1093.87 132.661C1092.5 133.555 1090.38 133.518 1089.13 132.543ZM1067.86 147.538C1066.69 146.645 1066.88 145.105 1068.26 144.106C1069.64 143.106 1071.7 143.04 1072.89 143.96C1074.08 144.865 1073.92 146.394 1072.54 147.378C1071.13 148.351 1069.03 148.431 1067.86 147.538ZM1045.18 163.209C1044.08 162.382 1044.41 160.874 1045.89 159.862C1047.37 158.849 1049.46 158.721 1050.56 159.564C1051.68 160.403 1051.39 161.901 1049.89 162.902C1048.4 163.899 1046.28 164.036 1045.18 163.209ZM1021 179.098C1019.96 178.273 1020.4 176.78 1021.97 175.76C1023.54 174.74 1025.65 174.586 1026.72 175.407C1027.78 176.227 1027.36 177.711 1025.78 178.735C1024.19 179.744 1022.04 179.907 1021 179.098ZM995.536 195.069C994.538 194.229 995.1 192.703 996.734 191.68C998.389 190.669 1000.53 190.527 1001.53 191.366C1002.52 192.206 1002.01 193.718 1000.35 194.729C998.704 195.757 996.534 195.908 995.536 195.069ZM968.933 211.027C967.985 210.12 968.606 208.559 970.33 207.544C972.038 206.535 974.212 206.452 975.171 207.338C976.13 208.224 975.525 209.78 973.805 210.81C972.086 211.841 969.896 211.928 968.933 211.027ZM941.423 226.868C940.5 225.867 941.207 224.245 942.973 223.253C944.739 222.262 946.931 222.243 947.866 223.223C948.8 224.203 948.108 225.82 946.331 226.833C944.554 227.845 942.341 227.853 941.423 226.868ZM913.143 242.465C912.24 241.354 912.998 239.665 914.821 238.691C916.644 237.717 918.833 237.804 919.743 238.879C920.653 239.954 919.916 241.654 918.086 242.664C916.256 243.675 914.047 243.577 913.143 242.465ZM884.314 257.736C883.426 256.498 884.229 254.726 886.078 253.78C887.927 252.833 890.148 253.033 891.032 254.255C891.911 255.461 891.145 257.239 889.289 258.222C887.429 259.19 885.203 258.974 884.314 257.736ZM855.072 272.554C854.194 271.173 855.021 269.307 856.901 268.404C858.775 267.484 860.986 267.826 861.871 269.17C862.74 270.519 861.944 272.375 860.063 273.331C858.183 274.287 855.95 273.934 855.072 272.554ZM825.648 286.814C824.78 285.291 825.648 283.325 827.521 282.459C829.405 281.572 831.627 282.068 832.485 283.559C833.344 285.05 832.524 287.001 830.649 287.92C828.77 288.824 826.516 288.337 825.648 286.814ZM796.232 300.392C795.375 298.726 796.208 296.701 798.09 295.867C799.972 295.033 802.184 295.671 803.036 297.321C803.901 298.95 803.072 300.991 801.2 301.857C799.327 302.723 797.09 302.057 796.232 300.392ZM766.959 313.212C766.112 311.404 766.926 309.315 768.79 308.538C770.682 307.736 772.888 308.533 773.747 310.321C774.601 312.092 773.791 314.197 771.893 315.036C770.034 315.829 767.823 315.016 766.959 313.212ZM738.079 325.114C737.23 323.184 738.025 321.031 739.856 320.317C741.686 319.603 743.866 320.547 744.721 322.44C745.58 324.35 744.769 326.508 742.953 327.27C741.116 328.021 738.927 327.045 738.079 325.114ZM709.693 336.034C708.843 333.982 709.613 331.801 711.409 331.149C713.205 330.497 715.386 331.563 716.231 333.599C717.087 335.614 716.295 337.837 714.492 338.525C712.7 339.193 710.542 338.086 709.693 336.034ZM682.06 345.841C681.208 343.72 681.936 341.517 683.682 340.932C685.429 340.347 687.53 341.559 688.383 343.68C689.23 345.785 688.507 348.004 686.77 348.621C685.028 349.222 682.917 347.978 682.06 345.841ZM655.312 354.446C654.456 352.256 655.141 350.083 656.821 349.57C658.502 349.057 660.551 350.389 661.402 352.562C662.252 354.736 661.561 356.946 659.881 357.459C658.21 358.004 656.167 356.636 655.312 354.446ZM629.565 361.656C628.725 359.462 629.381 357.367 631.005 356.958C632.628 356.549 634.637 357.979 635.477 360.174C636.316 362.368 635.674 364.511 634.035 364.925C632.411 365.334 630.404 363.851 629.565 361.656ZM604.142 366.538C603.319 364.339 603.981 362.382 605.615 362.127C607.201 361.886 609.206 363.422 610.029 365.621C610.853 367.821 610.173 369.835 608.587 370.076C606.937 370.336 604.965 368.737 604.142 366.538ZM578.968 369.184C578.181 366.991 578.839 365.14 580.442 365.016C582.045 364.892 583.983 366.554 584.769 368.746C585.555 370.939 584.907 372.822 583.304 372.946C581.701 373.07 579.749 371.361 578.968 369.184ZM553.961 369.914C553.211 367.728 553.897 365.973 555.481 365.96C557.069 365.962 558.977 367.702 559.727 369.888C560.492 372.069 559.82 373.872 558.216 373.874C556.612 373.877 554.71 372.1 553.961 369.914ZM529.113 369.115C528.4 366.935 529.11 365.261 530.685 365.337C532.26 365.413 534.123 367.236 534.856 369.427C535.585 371.601 534.869 373.313 533.294 373.236C531.693 373.133 529.821 371.278 529.113 369.115ZM504.36 367.101C503.685 364.928 504.429 363.313 506.007 363.458C507.585 363.603 509.43 365.484 510.106 367.656C510.782 369.829 510.031 371.481 508.448 371.32C506.87 371.175 505.036 369.274 504.36 367.101ZM479.732 364.266C479.114 362.111 479.884 360.523 481.439 360.71C482.999 360.912 484.796 362.807 485.435 364.973C486.074 367.14 485.309 368.743 483.733 368.545C482.141 368.352 480.35 366.421 479.732 364.266ZM455.095 360.927C454.513 358.779 455.325 357.214 456.89 357.433C458.454 357.651 460.203 359.56 460.79 361.724C461.371 363.873 460.564 365.454 458.999 365.235C457.419 365.021 455.676 363.076 455.095 360.927ZM430.493 357.474C429.965 355.327 430.834 353.78 432.399 353.999C433.963 354.217 435.68 356.136 436.209 358.282C436.753 360.424 435.91 361.998 434.324 361.768C432.755 361.534 431.017 359.604 430.493 357.474ZM405.896 354.211C405.42 352.066 406.301 350.498 407.877 350.696C409.437 350.899 411.107 352.778 411.599 354.918C412.091 357.058 411.21 358.626 409.634 358.428C408.047 358.251 406.371 356.355 405.896 354.211ZM381.23 351.543C380.796 349.421 381.699 347.812 383.297 347.968C384.875 348.113 386.504 349.97 386.943 352.108C387.377 354.231 386.458 355.845 384.875 355.684C383.272 355.511 381.664 353.666 381.23 351.543ZM356.463 349.778C356.066 347.662 357.04 345.997 358.62 346.089C360.199 346.182 361.805 347.958 362.207 350.09C362.604 352.205 361.646 353.866 360.05 353.778C358.455 353.691 356.844 351.898 356.463 349.778ZM331.556 349.31C331.212 347.196 332.236 345.464 333.824 345.466C335.407 345.453 336.999 347.181 337.359 349.29C337.719 351.399 336.711 353.127 335.123 353.124C333.519 353.127 331.917 351.419 331.556 349.31ZM306.53 350.447C306.206 348.345 307.255 346.518 308.846 346.415C310.449 346.291 312.012 347.923 312.336 350.025C312.659 352.128 311.622 353.934 310.014 354.042C308.411 354.166 306.853 352.549 306.53 350.447ZM281.286 353.567C280.994 351.455 282.072 349.55 283.669 349.288C285.303 349.033 286.865 350.543 287.152 352.639C287.454 354.73 286.377 356.635 284.727 356.895C283.134 357.173 281.577 355.679 281.286 353.567ZM255.827 359.035C255.556 356.935 256.66 354.882 258.284 354.473C259.908 354.064 261.464 355.437 261.734 357.537C262.005 359.638 260.908 361.653 259.268 362.067C257.665 362.488 256.109 361.115 255.827 359.035ZM231.034 367.115C230.736 365.04 231.722 362.883 233.262 362.307C234.833 361.721 236.335 362.97 236.617 365.05C236.915 367.125 235.892 369.276 234.337 369.857C232.83 370.423 231.348 369.186 231.034 367.115ZM207.669 376.903C207.312 374.863 208.198 372.665 209.661 372.007C211.14 371.344 212.621 372.459 212.983 374.515C213.324 376.56 212.422 378.763 210.97 379.4C209.507 380.058 208.027 378.943 207.669 376.903ZM185.316 388.048C184.887 386.064 185.664 383.847 187.082 383.097C188.517 382.342 190.017 383.348 190.434 385.353C190.846 387.342 190.054 389.564 188.63 390.298C187.228 391.043 185.744 390.033 185.316 388.048ZM163.849 400.31C163.339 398.403 164.026 396.177 165.377 395.377C166.74 394.557 168.248 395.472 168.743 397.385C169.242 399.313 168.534 401.528 167.199 402.323C165.864 403.118 164.36 402.218 163.849 400.31ZM143.076 413.502C142.484 411.671 143.058 409.478 144.39 408.614C145.702 407.739 147.278 408.53 147.855 410.366C148.431 412.202 147.809 414.409 146.508 415.263C145.192 416.122 143.668 415.333 143.076 413.502ZM122.851 427.369C122.165 425.635 122.664 423.482 123.945 422.564C125.231 421.661 126.827 422.341 127.486 424.101C128.144 425.86 127.646 428.013 126.371 428.895C125.117 429.788 123.537 429.103 122.851 427.369ZM102.988 441.757C102.225 440.116 102.616 438.012 103.893 437.077C105.17 436.143 106.811 436.74 107.563 438.402C108.315 440.064 107.903 442.157 106.654 443.066C105.404 443.975 103.768 443.394 102.988 441.757ZM83.351 456.375C82.4944 454.831 82.8034 452.804 84.0754 451.853C85.3314 450.907 87.0501 451.412 87.8954 452.977C88.7406 454.542 88.4108 456.558 87.1709 457.499C85.9263 458.424 84.2236 457.915 83.351 456.375ZM63.7532 471.069C62.8033 469.623 63.051 467.683 64.3069 466.737C65.5629 465.791 67.3637 466.219 68.3024 467.687C69.241 469.154 68.9773 471.098 67.7487 472.019C66.488 472.949 64.7032 472.516 63.7532 471.069ZM44.0392 485.605C42.9959 484.256 43.1663 482.409 44.443 481.474C45.7197 480.54 47.5866 480.896 48.6186 482.266C49.6507 483.636 49.4642 485.488 48.1988 486.402C46.9495 487.311 45.0826 486.955 44.0392 485.605ZM24.0096 499.781C22.8729 498.529 22.998 496.765 24.305 495.874C25.6072 494.967 27.5656 495.279 28.675 496.556C29.7844 497.834 29.6546 499.581 28.3797 500.463C27.1161 501.324 25.1464 501.033 24.0096 499.781ZM3.54053 513.354C2.32167 512.178 2.39501 510.535 3.73222 509.687C5.08074 508.818 7.14671 509.081 8.34952 510.261C9.55233 511.441 9.46296 513.09 8.13049 513.954C6.82538 514.792 4.75938 514.529 3.54053 513.354ZM-17.5306 526.127C-18.8315 525.028 -18.778 523.495 -17.4105 522.691C-16.0431 521.886 -13.876 522.136 -12.5911 523.24C-11.3062 524.344 -11.3599 525.877 -12.716 526.661C-14.0627 527.477 -16.2297 527.226 -17.5306 526.127ZM-39.4031 537.899C-40.7862 536.876 -40.7363 535.449 -39.281 534.706C-37.8578 533.972 -35.601 534.231 -34.2293 535.274C-32.8737 536.322 -32.9075 537.745 -34.3194 538.458C-35.7634 539.18 -38.0201 538.921 -39.4031 537.899ZM-62.201 548.426C-63.6387 547.454 -63.5925 546.132 -62.1088 545.486C-60.6251 544.839 -58.2579 545.117 -56.8315 546.109C-55.4051 547.101 -55.4352 548.419 -56.9236 549.049C-58.396 549.676 -60.7632 549.397 -62.201 548.426ZM-86.1395 557.51C-87.6367 556.573 -87.5782 555.353 -86.0084 554.82C-84.4274 554.266 -81.9403 554.597 -80.4592 555.538C-78.978 556.479 -79.0205 557.695 -80.6015 558.249C-82.1665 558.797 -84.6536 558.467 -86.1395 557.51ZM-113.335 564.362C-114.784 563.412 -114.472 562.343 -112.664 561.967C-110.84 561.586 -108.193 562.044 -106.712 562.985C-105.247 563.93 -105.523 565.006 -107.363 565.392C-109.186 565.773 -111.87 565.308 -113.335 564.362ZM-143.531 569.205C-144.895 568.246 -144.384 567.258 -142.421 566.994C-140.443 566.724 -137.699 567.275 -136.298 568.24C-134.917 569.193 -135.424 570.197 -137.423 570.456C-139.434 570.735 -142.167 570.163 -143.531 569.205ZM-175.953 572.471C-177.216 571.5 -176.512 570.577 -174.399 570.408C-172.286 570.238 -169.55 570.879 -168.271 571.845C-166.992 572.81 -167.676 573.745 -169.805 573.919C-171.939 574.078 -174.69 573.441 -175.953 572.471ZM-210.232 574.47C-211.357 573.494 -210.48 572.625 -208.263 572.512C-206.025 572.41 -203.287 573.12 -202.125 574.103C-200.967 575.069 -201.84 575.955 -204.131 576.055C-206.368 576.157 -209.107 575.447 -210.232 574.47ZM-245.911 575.505C-246.904 574.507 -245.842 573.671 -243.553 573.624C-241.265 573.577 -238.576 574.353 -237.552 575.342C-236.528 576.331 -237.589 577.167 -239.91 577.224C-242.236 577.264 -244.919 576.503 -245.911 575.505ZM-282.628 575.921C-283.466 574.913 -282.246 574.082 -279.895 574.069C-277.544 574.056 -274.931 574.872 -274.061 575.871C-273.191 576.871 -274.411 577.701 -276.794 577.724C-279.182 577.731 -281.79 576.93 -282.628 575.921ZM-319.92 575.984C-320.609 574.949 -319.251 574.112 -316.863 574.106C-314.492 574.104 -311.975 574.949 -311.254 575.975C-310.533 577 -311.911 577.826 -314.315 577.837C-316.719 577.848 -319.231 577.019 -319.92 575.984ZM-357.456 576.049C-357.996 574.987 -356.509 574.113 -354.137 574.111C-351.766 574.109 -349.35 574.966 -348.778 576.019C-348.206 577.071 -349.713 577.934 -352.117 577.945C-354.537 577.961 -356.916 577.111 -357.456 576.049ZM-394.747 576.408C-395.143 575.304 -393.565 574.385 -391.203 574.351C-388.84 574.317 -386.579 575.185 -386.151 576.28C-385.728 577.358 -387.327 578.266 -389.721 578.309C-392.115 578.353 -394.352 577.512 -394.747 576.408ZM-431.473 577.385C-431.74 576.243 -430.08 575.247 -427.785 575.163C-425.469 575.091 -423.35 575.948 -423.067 577.086C-422.767 578.219 -424.448 579.203 -426.796 579.285C-429.107 579.373 -431.206 578.527 -431.473 577.385ZM-467.129 579.268C-467.273 578.072 -465.625 576.975 -463.349 576.827C-461.121 576.693 -459.144 577.54 -458.984 578.732C-458.809 579.918 -460.535 580.986 -462.79 581.145C-465.078 581.314 -466.986 580.464 -467.129 579.268ZM-501.389 582.396C-501.43 581.134 -499.751 579.906 -497.604 579.674C-495.473 579.447 -493.671 580.294 -493.599 581.545C-493.542 582.802 -495.267 583.991 -497.409 584.239C-499.588 584.481 -501.348 583.657 -501.389 582.396ZM-533.813 587.075C-533.776 585.721 -532.108 584.339 -530.096 584.007C-528.083 583.675 -526.444 584.5 -526.47 585.834C-526.495 587.167 -528.173 588.516 -530.201 588.853C-532.221 589.222 -533.85 588.429 -533.813 587.075ZM-563.962 593.613C-563.88 592.176 -562.317 590.616 -560.464 590.156C-558.611 589.697 -557.136 590.5 -557.206 591.917C-557.277 593.333 -558.882 594.87 -560.767 595.339C-562.631 595.819 -564.044 595.05 -563.962 593.613ZM-591.482 602.323C-591.385 600.759 -589.953 598.994 -588.264 598.391C-586.559 597.784 -585.236 598.544 -585.342 600.076C-585.449 601.607 -586.928 603.334 -588.639 603.979C-590.334 604.618 -591.6 603.875 -591.482 602.323Z" fill="url(#paint0_linear_351_822)"/>
</g>
</g>
<defs>
<linearGradient id="paint0_linear_351_822" x1="1186.87" y1="149.59" x2="475.815" y2="971.375" gradientUnits="userSpaceOnUse">
<stop stop-color="#07EDD2"/>
<stop offset="1" stop-color="#9C63F7"/>
</linearGradient>
</defs>
</svg>
