<svg width="1280" height="827" viewBox="0 0 1280 827" fill="none" xmlns="http://www.w3.org/2000/svg">
<g opacity="0.9677">
<g opacity="0.9677">
<path opacity="0.9677" d="M1529.68 192.821C1528.69 186.503 1530.33 180.996 1533.28 180.824C1536.26 180.642 1539.43 185.899 1540.41 192.254C1541.4 198.609 1539.8 203.545 1536.83 203.69C1533.89 203.842 1530.66 199.144 1529.68 192.821ZM1501.35 192.212C1500.35 186.036 1502.03 180.918 1505.12 181.052C1508.18 181.18 1511.49 186.553 1512.49 192.797C1513.49 199.026 1511.8 203.625 1508.74 203.445C1505.65 203.241 1502.34 198.372 1501.35 192.212ZM1472.11 189.078C1471.09 183.135 1472.84 178.415 1475.98 178.763C1479.15 179.118 1482.53 184.524 1483.55 190.553C1484.57 196.586 1482.84 200.845 1479.67 200.385C1476.52 199.936 1473.13 195.022 1472.11 189.078ZM1442.18 183.972C1441.13 178.313 1442.91 173.987 1446.16 174.529C1449.37 175.065 1452.85 180.369 1453.89 186.149C1454.93 191.914 1453.15 195.806 1449.94 195.148C1446.69 194.5 1443.23 189.625 1442.18 183.972ZM1411.81 177.474C1410.75 172.169 1412.58 168.247 1415.82 168.895C1419.11 169.566 1422.58 174.679 1423.65 180.122C1424.71 185.564 1422.93 189.107 1419.66 188.309C1416.41 187.524 1412.87 182.794 1411.81 177.474ZM1381.25 170.143C1380.16 165.214 1381.98 161.661 1385.26 162.401C1388.53 163.129 1392.05 167.969 1393.12 173.062C1394.19 178.134 1392.42 181.344 1389.15 180.478C1385.86 179.579 1382.32 175.078 1381.25 170.143ZM1350.67 162.521C1349.59 158.01 1351.4 154.823 1354.66 155.556C1357.94 156.295 1361.45 160.807 1362.54 165.493C1363.63 170.179 1361.86 173.055 1358.57 172.157C1355.33 171.265 1351.76 167.032 1350.67 162.521ZM1320.37 155.184C1319.29 151.091 1321.06 148.231 1324.32 148.911C1327.53 149.584 1331.01 153.703 1332.09 157.954C1333.17 162.206 1331.43 164.813 1328.2 163.97C1324.95 163.131 1321.46 159.261 1320.37 155.184ZM1290.51 148.661C1289.45 145.014 1291.22 142.434 1294.37 143.004C1297.56 143.582 1300.97 147.248 1302.05 151.065C1303.11 154.887 1301.4 157.258 1298.19 156.51C1295.04 155.765 1291.57 152.324 1290.51 148.661ZM1261.38 143.541C1260.36 140.318 1262.06 137.969 1265.16 138.379C1268.23 138.782 1271.57 141.932 1272.6 145.325C1273.64 148.717 1271.96 150.887 1268.88 150.314C1265.75 149.754 1262.41 146.763 1261.38 143.541ZM1233.15 140.357C1232.19 137.534 1233.87 135.364 1236.84 135.536C1239.82 135.72 1243.02 138.335 1244 141.324C1244.98 144.296 1243.36 146.346 1240.34 145.997C1237.35 145.66 1234.1 143.18 1233.15 140.357ZM1206.09 139.687C1205.21 137.242 1206.81 135.164 1209.65 135.078C1212.5 134.987 1215.53 137.041 1216.44 139.614C1217.35 142.208 1215.77 144.191 1212.88 144.138C1210 144.095 1206.97 142.131 1206.09 139.687ZM1180.38 142.07C1179.62 139.958 1181.18 137.911 1183.87 137.465C1186.54 137.045 1189.38 138.51 1190.2 140.746C1191.01 142.982 1189.44 144.997 1186.73 145.31C1183.99 145.611 1181.14 144.183 1180.38 142.07ZM1156.29 148.079C1155.66 146.257 1157.21 144.109 1159.69 143.29C1162.2 142.462 1164.76 143.346 1165.45 145.27C1166.14 147.195 1164.63 149.334 1162.07 150.054C1159.53 150.786 1156.92 149.916 1156.29 148.079ZM1134.07 158.26C1133.61 156.651 1135.09 154.347 1137.4 153.056C1139.67 151.775 1141.96 152.078 1142.49 153.753C1143.02 155.429 1141.52 157.79 1139.17 158.989C1136.81 160.225 1134.52 159.87 1134.07 158.26ZM1113.43 174.919C1113.12 173.595 1114.69 170.866 1116.89 168.682C1119.06 166.524 1121.06 165.831 1121.41 167.315C1121.76 168.799 1120.28 171.728 1118.07 173.758C1115.85 175.792 1113.75 176.254 1113.43 174.919ZM1092.55 195.275C1092.32 194.261 1094 191.725 1096.26 189.454C1098.49 187.192 1100.47 186.118 1100.74 187.244C1101 188.37 1099.41 191.158 1097.15 193.307C1094.86 195.482 1092.78 196.288 1092.55 195.275ZM1071.25 216.489C1071.07 215.705 1072.84 213.299 1075.12 210.97C1077.42 208.616 1079.37 207.307 1079.57 208.156C1079.77 209.021 1078.11 211.657 1075.78 213.932C1073.48 216.196 1071.41 217.278 1071.25 216.489ZM1049.49 238.36C1049.36 237.72 1051.19 235.418 1053.54 233.017C1055.87 230.637 1057.84 229.112 1057.99 229.8C1058.14 230.488 1056.39 233.064 1054.06 235.391C1051.7 237.744 1049.63 239 1049.49 238.36ZM1027.34 260.593C1027.21 260.038 1029.12 257.765 1031.5 255.37C1033.9 252.955 1035.88 251.341 1036 251.933C1036.14 252.504 1034.35 255.036 1031.95 257.419C1029.58 259.776 1027.47 261.148 1027.34 260.593ZM1004.82 282.934C1004.69 282.395 1006.62 280.17 1009.07 277.757C1011.48 275.369 1013.49 273.73 1013.61 274.253C1013.74 274.792 1011.93 277.296 1009.51 279.668C1007.05 282.102 1004.94 283.457 1004.82 282.934ZM981.897 305.167C981.769 304.612 983.737 302.357 986.197 299.992C988.689 297.617 990.725 296.005 990.849 296.544C990.973 297.083 989.133 299.597 986.667 301.998C984.207 304.364 982.026 305.722 981.897 305.167ZM958.631 326.996C958.478 326.36 960.436 324.126 962.962 321.811C965.457 319.505 967.553 317.98 967.697 318.583C967.84 319.186 965.983 321.705 963.498 324.042C960.986 326.406 958.783 327.631 958.631 326.996ZM934.998 348.234C934.817 347.503 936.818 345.238 939.352 343.008C941.918 340.768 944.053 339.371 944.241 340.066C944.412 340.766 942.544 343.305 939.992 345.593C937.467 347.855 935.179 348.966 934.998 348.234ZM911.063 368.568C910.844 367.708 912.813 365.453 915.413 363.326C917.98 361.208 920.188 359.999 920.387 360.794C920.592 361.606 918.729 364.161 916.176 366.327C913.595 368.519 911.282 369.428 911.063 368.568ZM886.802 387.794C886.545 386.806 888.546 384.541 891.152 382.552C893.789 380.553 896.037 379.541 896.275 380.465C896.517 381.405 894.659 383.977 892.036 386.024C889.445 388.061 887.059 388.783 886.802 387.794ZM862.267 405.619C861.972 404.502 863.946 402.263 866.583 400.439C869.246 398.589 871.561 397.802 871.841 398.87C872.121 399.939 870.259 402.494 867.609 404.392C864.975 406.285 862.55 406.756 862.267 405.619ZM837.417 421.844C837.101 420.595 839.056 418.413 841.74 416.749C844.413 415.106 846.794 414.544 847.112 415.741C847.43 416.937 845.546 419.482 842.888 421.173C840.207 422.905 837.733 423.094 837.417 421.844ZM812.326 436.187C811.977 434.825 813.929 432.749 816.653 431.283C819.35 429.842 821.759 429.55 822.11 430.86C822.445 432.174 820.602 434.618 817.919 436.108C815.183 437.595 812.671 437.533 812.326 436.187ZM786.955 448.398C786.587 446.971 788.535 445.001 791.277 443.774C793.988 442.556 796.472 442.521 796.831 443.915C797.195 445.325 795.319 447.658 792.613 448.892C789.884 450.168 787.323 449.824 786.955 448.398ZM761.386 458.224C761.004 456.75 762.972 454.966 765.705 454.002C768.471 453.03 770.957 453.238 771.34 454.713C771.718 456.171 769.863 458.34 767.097 459.313C764.348 460.281 761.769 459.699 761.386 458.224ZM735.613 464.989C735.23 463.515 737.192 462.064 739.965 461.472C742.707 460.891 745.241 461.382 745.624 462.856C746.006 464.33 744.103 466.217 741.362 466.799C738.593 467.407 735.995 466.463 735.613 464.989ZM710.103 467.681C709.725 466.223 711.664 465.11 714.391 464.952C717.134 464.788 719.613 465.626 719.991 467.085C720.374 468.559 718.521 470.083 715.778 470.246C713.036 470.41 710.481 469.14 710.103 467.681ZM684.786 466.829C684.413 465.386 686.341 464.591 689.05 464.786C691.743 464.986 694.218 466.105 694.591 467.547C694.964 468.989 693.106 470.2 690.413 470C687.705 469.805 685.159 468.271 684.786 466.829ZM659.705 462.993C659.342 461.583 661.261 461.051 663.933 461.537C666.626 462.033 669.046 463.377 669.414 464.804C669.783 466.23 667.945 467.156 665.252 466.659C662.586 466.137 660.069 464.403 659.705 462.993ZM634.763 456.727C634.413 455.365 636.325 455.045 639.004 455.79C641.662 456.523 644.061 458.031 644.42 459.425C644.774 460.803 642.96 461.513 640.297 460.764C637.629 459.998 635.128 458.084 634.763 456.727ZM609.949 448.591C609.614 447.277 611.561 447.139 614.203 448.052C616.865 448.976 619.248 450.61 619.588 451.94C619.928 453.27 618.11 453.789 615.443 452.849C612.797 451.92 610.289 449.921 609.949 448.591ZM585.248 439.184C584.927 437.918 586.844 437.911 589.503 438.941C592.124 439.964 594.494 441.672 594.82 442.954C595.146 444.236 593.317 444.601 590.691 443.561C588.039 442.495 585.585 440.445 585.248 439.184ZM560.585 429.015C560.278 427.798 562.239 427.882 564.864 428.974C567.525 430.073 569.864 431.791 570.175 433.024C570.487 434.258 568.662 434.517 565.996 433.402C563.366 432.294 560.887 430.217 560.585 429.015ZM535.943 418.684C535.655 417.53 537.605 417.635 540.251 418.739C542.875 419.831 545.199 421.501 545.513 422.681C545.81 423.867 543.971 424.078 541.342 422.97C538.675 421.855 536.236 419.853 535.943 418.684ZM511.266 408.764C510.992 407.658 512.958 407.759 515.58 408.782C518.239 409.812 520.56 411.412 520.838 412.534C521.116 413.655 519.261 413.871 516.614 412.82C513.983 411.765 511.556 409.864 511.266 408.764ZM486.509 399.756C486.25 398.699 488.233 398.742 490.891 399.65C493.533 400.563 495.843 402.01 496.107 403.083C496.371 404.156 494.515 404.425 491.868 403.496C489.206 402.572 486.785 400.809 486.509 399.756ZM461.651 392.297C461.389 391.293 463.425 391.216 466.083 391.949C468.762 392.694 471.074 393.966 471.324 394.991C471.59 396.011 469.692 396.379 467.013 395.634C464.366 394.88 461.912 393.301 461.651 392.297ZM436.688 386.909C436.436 385.937 438.472 385.685 441.166 386.181C443.838 386.667 446.14 387.732 446.397 388.72C446.654 389.708 444.73 390.223 442.053 389.722C439.355 389.21 436.919 387.87 436.688 386.909ZM411.506 384.15C411.264 383.21 413.34 382.737 416.049 382.932C418.758 383.127 421.086 383.923 421.312 384.868C421.559 385.824 419.612 386.556 416.898 386.345C414.189 386.149 411.733 385.095 411.506 384.15ZM386.127 384.623C385.889 383.699 387.986 382.941 390.692 382.771C393.434 382.608 395.757 383.091 395.995 384.015C396.233 384.939 394.265 385.956 391.522 386.12C388.828 386.269 386.36 385.531 386.127 384.623ZM360.474 388.841C360.241 387.933 362.355 386.821 365.129 386.229C367.87 385.648 370.247 385.784 370.485 386.708C370.718 387.616 368.707 388.959 365.966 389.541C363.192 390.132 360.707 389.749 360.474 388.841ZM333.924 396.166C333.691 395.258 336.009 394.068 338.927 393.26C341.883 392.458 344.327 392.347 344.544 393.26C344.777 394.168 342.699 395.758 339.744 396.56C336.825 397.369 334.14 397.079 333.924 396.166ZM304.62 403.501C304.387 402.593 306.916 401.411 310.157 400.629C313.398 399.848 316.09 399.751 316.323 400.66C316.556 401.568 314.246 403.139 311.006 403.92C307.754 404.722 304.853 404.409 304.62 403.501ZM272.918 410.689C272.669 409.785 275.383 408.636 278.835 407.862C282.324 407.095 285.244 407.001 285.477 407.909C285.71 408.817 283.204 410.376 279.715 411.143C276.275 411.896 273.167 411.592 272.918 410.689ZM239.135 417.74C238.87 416.841 241.726 415.702 245.427 414.942C249.095 414.192 252.227 414.105 252.476 415.009C252.725 415.912 250.024 417.459 246.356 418.209C242.687 418.96 239.4 418.639 239.135 417.74ZM203.72 424.697C203.439 423.803 206.438 422.675 210.269 421.946C214.133 421.207 217.387 421.12 217.668 422.014C217.949 422.908 215.137 424.434 211.274 425.173C207.458 425.897 203.996 425.575 203.72 424.697ZM167.074 431.564C166.761 430.679 169.801 429.573 173.787 428.834C177.741 428.104 181.116 428.015 181.413 428.905C181.71 429.794 178.804 431.296 174.872 432.037C170.897 432.756 167.383 432.432 167.074 431.564ZM129.573 438.369C129.249 437.505 132.326 436.406 136.348 435.673C140.424 434.942 143.884 434.846 144.213 435.725C144.522 436.594 141.584 438.106 137.524 438.832C133.502 439.565 129.898 439.232 129.573 438.369ZM91.5643 445.167C91.2077 444.312 94.2895 443.229 98.3969 442.489C102.456 441.762 106.006 441.674 106.347 442.533C106.687 443.392 103.724 444.877 99.6645 445.603C95.5523 446.328 91.9048 446.026 91.5643 445.167ZM53.4816 451.951C53.109 451.102 56.1908 450.018 60.25 449.292C64.3575 448.552 67.9074 448.464 68.2753 449.297C68.648 450.147 65.6845 451.631 61.5931 452.367C57.5338 453.093 53.8543 452.801 53.4816 451.951ZM15.753 458.754C15.3482 457.914 18.3338 456.859 22.3883 456.116C26.4108 455.383 29.9512 455.263 30.3399 456.108C30.7286 456.953 27.8293 458.419 23.8229 459.147C19.7636 459.873 16.153 459.577 15.753 458.754ZM-21.2996 465.601C-21.7157 464.781 -18.8085 463.697 -14.8871 462.977C-10.9222 462.226 -7.41856 462.099 -6.99778 462.935C-6.58172 463.754 -9.40738 465.233 -13.3562 465.979C-17.2776 466.699 -20.8675 466.415 -21.2996 465.601ZM-57.2003 472.509C-57.6484 471.699 -54.9112 470.63 -51.0681 469.881C-47.2732 469.145 -43.848 468.99 -43.4112 469.82C-42.9791 470.635 -45.6829 472.112 -49.4778 472.848C-53.3048 473.593 -56.7474 473.335 -57.2003 472.509ZM-91.6223 479.522C-92.0865 478.717 -89.4711 477.649 -85.8556 476.897C-82.208 476.135 -78.9045 475.981 -78.4403 476.786C-77.9922 477.595 -80.5421 479.063 -84.1897 479.824C-87.8213 480.582 -91.1742 480.332 -91.6223 479.522ZM-124.127 486.65C-124.607 485.85 -122.219 484.779 -118.783 484.01C-115.379 483.25 -112.223 483.069 -111.759 483.874C-111.294 484.679 -113.686 486.152 -117.069 486.923C-120.505 487.693 -123.663 487.455 -124.127 486.65ZM-154.371 493.931C-154.851 493.131 -152.659 492.048 -149.524 491.263C-146.357 490.468 -143.396 490.275 -142.916 491.076C-142.435 491.876 -144.615 493.356 -147.782 494.151C-150.933 494.941 -153.89 494.731 -154.371 493.931ZM-181.915 501.375C-182.396 500.575 -180.5 499.492 -177.634 498.682C-174.784 497.876 -172.072 497.669 -171.575 498.465C-171.095 499.265 -173.027 500.759 -175.876 501.565C-178.742 502.375 -181.419 502.171 -181.915 501.375ZM-206.921 510.861C-207.418 510.066 -205.704 508.601 -203.101 507.432C-200.482 506.258 -197.985 505.853 -197.489 506.649C-197.008 507.449 -198.72 509.157 -201.339 510.331C-203.942 511.5 -206.441 511.662 -206.921 510.861ZM-229.535 524.439C-230.04 523.611 -228.532 521.806 -226.19 520.225C-223.832 518.64 -221.524 517.889 -221.023 518.701C-220.522 519.513 -222.035 521.598 -224.388 523.2C-226.725 524.796 -229.029 525.266 -229.535 524.439ZM-250.049 541.583C-250.564 540.723 -249.24 538.589 -247.092 536.647C-244.955 534.726 -242.817 533.694 -242.307 534.538C-241.796 535.381 -243.12 537.812 -245.248 539.766C-247.396 541.708 -249.55 542.448 -250.049 541.583ZM-268.776 561.654C-269.31 560.73 -268.115 558.337 -266.173 556.107C-264.2 553.868 -262.225 552.64 -261.7 553.532C-261.175 554.424 -262.313 557.131 -264.282 559.386C-266.23 561.653 -268.263 562.567 -268.776 561.654ZM-286.078 584.13C-286.61 583.154 -285.555 580.522 -283.726 578.029C-281.92 575.578 -280.029 574.183 -279.506 575.128C-278.979 576.088 -279.988 579.055 -281.784 581.538C-283.608 584.047 -285.541 585.123 -286.078 584.13ZM-302.225 608.394C-302.76 607.349 -301.799 604.518 -300.097 601.888C-298.385 599.238 -296.619 597.775 -296.072 598.8C-295.526 599.825 -296.429 602.969 -298.133 605.652C-299.824 608.314 -301.669 609.451 -302.225 608.394ZM-317.58 633.924C-318.123 632.794 -317.199 629.835 -315.572 627.07C-313.957 624.326 -312.231 622.788 -311.681 623.882C-311.132 624.976 -311.979 628.313 -313.589 631.073C-315.239 633.879 -317.037 635.055 -317.58 633.924ZM-332.477 660.122C-333.018 658.938 -332.099 655.842 -330.514 653.054C-328.923 650.23 -327.272 648.731 -326.719 649.894C-326.183 651.062 -326.959 654.465 -328.557 657.326C-330.137 660.13 -331.936 661.305 -332.477 660.122ZM-347.2 686.373C-347.728 685.116 -346.794 682.014 -345.214 679.211C-343.645 676.428 -342.005 674.95 -341.466 676.187C-340.943 677.428 -341.726 680.921 -343.307 683.725C-344.898 686.549 -346.672 687.63 -347.2 686.373ZM-362.114 712.157C-362.608 710.837 -361.605 707.733 -360.017 705.015C-358.402 702.271 -356.777 700.919 -356.288 702.223C-355.783 703.522 -356.608 706.992 -358.218 709.752C-359.818 712.491 -361.62 713.476 -362.114 712.157ZM-377.499 736.876C-377.938 735.506 -376.854 732.499 -375.196 729.9C-373.533 727.316 -371.903 726.103 -371.452 727.453C-370.986 728.798 -371.883 732.202 -373.557 734.806C-375.242 737.431 -377.064 738.231 -377.499 736.876ZM-393.748 759.966C-394.128 758.561 -392.888 755.666 -391.132 753.282C-389.369 750.861 -387.719 749.833 -387.312 751.213C-386.905 752.593 -387.92 755.893 -389.715 758.323C-391.498 760.733 -393.368 761.372 -393.748 759.966ZM-411.126 780.826C-411.421 779.413 -410.014 776.73 -408.123 774.567C-406.243 772.426 -404.547 771.611 -404.22 773.015C-403.893 774.419 -405.066 777.538 -406.983 779.673C-408.918 781.866 -410.831 782.239 -411.126 780.826ZM-429.98 798.928C-430.169 797.519 -428.512 795.094 -426.473 793.254C-424.402 791.405 -422.683 790.845 -422.441 792.257C-422.215 793.673 -423.591 796.52 -425.715 798.368C-427.806 800.206 -429.807 800.342 -429.98 798.928ZM-450.632 813.654C-450.69 812.275 -448.791 810.198 -446.537 808.731C-444.268 807.259 -442.485 806.977 -442.369 808.373C-442.254 809.77 -443.894 812.312 -446.221 813.766C-448.532 815.215 -450.59 815.037 -450.632 813.654Z" fill="url(#paint0_linear_351_927)"/>
</g>
</g>
<defs>
<linearGradient id="paint0_linear_351_927" x1="1264.46" y1="215.135" x2="277.644" y2="913.628" gradientUnits="userSpaceOnUse">
<stop stop-color="#07EDD2"/>
<stop offset="1" stop-color="#9C63F7"/>
</linearGradient>
</defs>
</svg>
