<svg width="1280" height="827" viewBox="0 0 1280 827" fill="none" xmlns="http://www.w3.org/2000/svg">
<g opacity="0.9032">
<g opacity="0.9032">
<path opacity="0.9032" d="M1509.52 56.5448C1508.53 48.7072 1510 41.9243 1512.8 41.2915C1515.59 40.6586 1518.65 46.4722 1519.65 54.4107C1520.65 62.3493 1519.18 69.2012 1516.38 69.749C1513.58 70.2761 1510.51 64.3984 1509.52 56.5448ZM1481.17 61.4884C1480.18 53.9634 1481.76 47.5334 1484.67 47.0053C1487.59 46.4772 1490.71 52.1661 1491.7 59.8129C1492.68 67.4598 1491.14 73.9491 1488.22 74.3555C1485.32 74.741 1482.16 69.0087 1481.17 61.4884ZM1451.83 65.4131C1450.85 58.2902 1452.49 52.2229 1455.5 51.7721C1458.51 51.3213 1461.74 56.7864 1462.72 64.0678C1463.7 71.3493 1462.06 77.4488 1459.05 77.7457C1456.03 78.0426 1452.82 72.5359 1451.83 65.4131ZM1421.84 68.6424C1420.87 61.9699 1422.55 56.3113 1425.62 55.9105C1428.7 55.5097 1431.95 60.6737 1432.92 67.5208C1433.89 74.368 1432.22 80.0587 1429.15 80.2848C1426.07 80.5109 1422.82 75.331 1421.84 68.6424ZM1391.42 71.5285C1390.44 65.364 1392.15 60.0981 1395.26 59.72C1398.36 59.3465 1401.64 64.1355 1402.61 70.4955C1403.58 76.8555 1401.87 82.1374 1398.77 82.3201C1395.67 82.5028 1392.4 77.693 1391.42 71.5285ZM1360.91 74.3532C1359.94 68.724 1361.69 63.883 1364.78 63.4935C1367.86 63.1087 1371.16 67.4748 1372.12 73.2947C1373.09 79.1307 1371.35 83.9718 1368.27 84.1658C1365.16 84.3485 1361.87 79.9824 1360.91 74.3532ZM1330.58 77.4705C1329.63 72.4134 1331.35 67.984 1334.41 67.5512C1337.49 67.1135 1340.73 71.0066 1341.68 76.2752C1342.62 81.5598 1340.92 85.9523 1337.83 86.1832C1334.76 86.4093 1331.54 82.5276 1330.58 77.4705ZM1300.72 81.186C1299.8 76.7124 1301.51 72.6852 1304.51 72.1655C1307.5 71.6506 1310.71 75.0291 1311.64 79.7095C1312.57 84.4059 1310.84 88.4057 1307.85 88.6931C1304.82 89.0108 1301.64 85.6597 1300.72 81.186ZM1271.62 85.8281C1270.75 81.9332 1272.38 78.2951 1275.3 77.6772C1278.22 77.0594 1281.31 79.8829 1282.2 83.9798C1283.1 88.0928 1281.44 91.6875 1278.49 92.0872C1275.55 92.4983 1272.5 89.7182 1271.62 85.8281ZM1243.55 91.7345C1242.73 88.4344 1244.34 85.1343 1247.12 84.3844C1249.91 83.6298 1252.9 85.8727 1253.74 89.3908C1254.59 92.909 1252.93 96.1544 1250.1 96.691C1247.3 97.2389 1244.37 95.0506 1243.55 91.7345ZM1216.83 99.2129C1216.1 96.482 1217.61 93.5068 1220.27 92.5832C1222.93 91.6597 1225.7 93.3184 1226.47 96.2673C1227.23 99.2162 1225.66 102.121 1222.98 102.842C1220.29 103.548 1217.56 101.965 1216.83 99.2129ZM1191.69 108.599C1191.06 106.396 1192.53 103.678 1195.01 102.563C1197.45 101.458 1200.05 102.507 1200.72 104.907C1201.39 107.308 1199.85 109.943 1197.37 110.867C1194.86 111.78 1192.33 110.802 1191.69 108.599ZM1168.5 120.203C1168 118.502 1169.37 116.003 1171.64 114.653C1173.91 113.303 1176.23 113.771 1176.79 115.664C1177.34 117.542 1175.89 119.958 1173.57 121.132C1171.25 122.305 1169 121.92 1168.5 120.203ZM1147.45 134.364C1147.1 133.108 1148.39 130.755 1150.46 129.133C1152.47 127.546 1154.51 127.416 1154.93 128.844C1155.35 130.257 1153.94 132.521 1151.85 133.973C1149.73 135.418 1147.81 135.636 1147.45 134.364ZM1128.91 151.397C1128.74 150.523 1129.97 148.242 1131.75 146.34C1133.51 144.443 1135.18 143.776 1135.42 144.785C1135.67 145.794 1134.34 147.966 1132.5 149.728C1130.65 151.495 1129.08 152.272 1128.91 151.397ZM1111.34 174.791C1111.31 174.276 1112.84 171.556 1114.72 168.736C1116.6 165.896 1118.16 164.092 1118.22 164.756C1118.27 165.404 1116.77 168.146 1114.85 170.859C1112.96 173.529 1111.35 175.31 1111.34 174.791ZM1092.04 201.485C1092.09 201.26 1093.74 198.909 1095.72 196.161C1097.7 193.414 1099.27 191.468 1099.24 191.774C1099.21 192.096 1097.59 194.475 1095.58 197.126C1093.57 199.76 1091.98 201.695 1092.04 201.485ZM1071.81 227.301C1071.92 227.305 1073.67 225.201 1075.75 222.563C1077.82 219.93 1079.42 217.853 1079.32 217.934C1079.24 218.01 1077.49 220.13 1075.4 222.683C1073.32 225.252 1071.71 227.297 1071.81 227.301ZM1050.75 252.176C1050.88 252.329 1052.77 250.394 1054.93 247.875C1057.09 245.352 1058.72 243.233 1058.58 243.133C1058.47 243.028 1056.63 244.949 1054.44 247.425C1052.28 249.911 1050.62 252.024 1050.75 252.176ZM1028.95 276.015C1029.1 276.232 1031.03 274.494 1033.27 272.09C1035.51 269.685 1037.19 267.584 1037.04 267.383C1036.9 267.182 1034.98 268.952 1032.75 271.336C1030.5 273.708 1028.79 275.782 1028.95 276.015ZM1006.47 298.782C1006.63 299.031 1008.6 297.4 1010.91 295.115C1013.19 292.855 1014.96 290.783 1014.8 290.55C1014.64 290.301 1012.66 291.984 1010.36 294.249C1008.05 296.518 1006.3 298.532 1006.47 298.782ZM983.31 320.455C983.445 320.677 985.484 319.134 987.863 316.967C990.241 314.8 992.024 312.861 991.889 312.64C991.749 312.402 989.724 313.993 987.362 316.155C984.967 318.327 983.159 320.238 983.31 320.455ZM959.597 340.95C959.713 341.108 961.794 339.587 964.231 337.56C966.636 335.542 968.51 333.734 968.384 333.544C968.259 333.354 966.187 334.907 963.792 336.957C961.364 339.016 959.465 340.797 959.597 340.95ZM935.398 360.21C935.486 360.272 937.565 358.804 940.04 356.905C942.531 355.002 944.425 353.379 944.328 353.286C944.23 353.192 942.161 354.692 939.695 356.623C937.23 358.554 935.31 360.149 935.398 360.21ZM910.768 378.185C910.823 378.134 912.938 376.673 915.451 374.903C917.953 373.153 919.951 371.709 919.867 371.716C919.798 371.719 917.696 373.229 915.204 375.01C912.705 376.829 910.697 378.241 910.768 378.185ZM885.772 394.803C885.789 394.623 887.882 393.203 890.437 391.578C892.993 389.952 895.026 388.742 894.99 388.857C894.959 388.988 892.88 390.456 890.339 392.13C887.798 393.804 885.755 394.982 885.772 394.803ZM860.475 410.044C860.459 409.752 862.563 408.311 865.145 406.835C867.711 405.363 869.817 404.34 869.808 404.605C869.814 404.864 867.715 406.321 865.163 407.841C862.595 409.366 860.491 410.335 860.475 410.044ZM834.97 423.811C834.916 423.391 836.986 422.013 839.59 420.669C842.199 419.341 844.318 418.542 844.358 418.914C844.398 419.286 842.325 420.717 839.731 422.093C837.137 423.468 835.003 424.22 834.97 423.811ZM809.268 436.084C809.186 435.567 811.266 434.221 813.88 433.032C816.483 431.863 818.664 431.272 818.732 431.74C818.805 432.224 816.723 433.623 814.13 434.824C811.525 436.046 809.346 436.584 809.268 436.084ZM783.5 446.772C783.399 446.191 785.445 444.907 788.074 443.887C790.704 442.868 792.889 442.468 792.985 443.032C793.082 443.597 791.029 444.917 788.409 445.969C785.768 447.01 783.586 447.357 783.5 446.772ZM757.673 455.837C757.562 455.225 759.615 454.026 762.223 453.169C764.847 452.308 767.079 452.069 767.174 452.686C767.285 453.299 765.225 454.534 762.605 455.411C760.002 456.284 757.772 456.471 757.673 455.837ZM731.956 462.795C731.845 462.182 733.862 461.273 736.456 460.665C739.07 460.068 741.258 460.033 741.353 460.651C741.464 461.264 739.437 462.315 736.833 462.891C734.234 463.483 732.062 463.391 731.956 462.795ZM706.563 466.063C706.462 465.482 708.484 464.886 711.017 464.662C713.586 464.445 715.765 464.675 715.871 465.271C715.977 465.868 713.952 466.57 711.382 466.787C708.823 466.984 706.649 466.648 706.563 466.063ZM681.499 466.008C681.412 465.475 683.392 465.153 685.935 465.257C688.473 465.346 690.589 465.838 690.681 466.387C690.773 466.935 688.784 467.347 686.237 467.227C683.689 467.106 681.57 466.545 681.499 466.008ZM656.654 463.149C656.581 462.665 658.548 462.59 661.065 462.964C663.578 463.322 665.693 463.989 665.771 464.489C665.849 464.99 663.848 465.126 661.331 464.752C658.793 464.367 656.727 463.633 656.654 463.149ZM632.032 458.027C631.978 457.607 633.958 457.755 636.463 458.325C638.952 458.899 641.02 459.702 641.079 460.138C641.143 460.59 639.161 460.494 636.667 459.904C634.152 459.303 632.07 458.452 632.032 458.027ZM607.571 451.148C607.536 450.792 609.494 451.104 611.978 451.837C614.462 452.569 616.485 453.455 616.529 453.843C616.574 454.231 614.604 453.94 612.116 453.191C609.643 452.438 607.611 451.52 607.571 451.148ZM583.222 443.05C583.206 442.758 585.207 443.214 587.671 444.057C590.134 444.901 592.151 445.823 592.172 446.131C592.193 446.439 590.217 446.01 587.733 445.155C585.264 444.296 583.238 443.341 583.222 443.05ZM558.954 434.282C558.962 434.071 560.949 434.601 563.412 435.497C565.874 436.393 567.869 437.304 567.855 437.552C567.857 437.796 565.87 437.266 563.398 436.338C560.926 435.41 558.947 434.494 558.954 434.282ZM534.678 425.308C534.704 425.16 536.732 425.766 539.194 426.662C541.635 427.547 543.621 428.426 543.605 428.605C543.588 428.785 541.556 428.163 539.105 427.246C536.633 426.318 534.652 425.455 534.678 425.308ZM510.378 416.724C510.428 416.657 512.45 417.247 514.914 418.09C517.378 418.933 519.373 419.723 519.332 419.822C519.292 419.921 517.239 419.288 514.765 418.413C512.297 417.554 510.332 416.807 510.378 416.724ZM485.988 409.022C486.057 409.019 488.123 409.578 490.607 410.311C493.07 411.032 495.043 411.689 494.983 411.724C494.924 411.759 492.855 411.13 490.387 410.393C487.894 409.628 485.919 409.025 485.988 409.022ZM461.491 402.729C461.579 402.79 463.654 403.26 466.143 403.834C468.632 404.408 470.585 404.878 470.506 404.849C470.428 404.82 468.367 404.277 465.852 403.675C463.353 403.069 461.408 402.684 461.491 402.729ZM436.799 398.377C436.901 398.487 439.023 398.82 441.54 399.194C444.037 399.557 445.997 399.816 445.916 399.718C445.819 399.624 443.705 399.201 441.204 398.823C438.666 398.437 436.697 398.268 436.799 398.377ZM411.894 396.496C412.01 396.654 414.149 396.808 416.687 396.896C419.225 396.985 421.183 397.001 421.071 396.859C420.96 396.718 418.841 396.453 416.298 396.348C413.735 396.232 411.778 396.338 411.894 396.496ZM386.683 397.6C386.814 397.806 389.003 397.718 391.568 397.485C394.117 397.256 396.101 397.003 395.991 396.808C395.865 396.619 393.691 396.58 391.137 396.792C388.567 397.01 386.573 397.406 386.683 397.6ZM361.185 402.225C361.32 402.447 363.514 402.079 366.129 401.482C368.728 400.89 370.718 400.303 370.599 400.077C370.463 399.855 368.28 400.08 365.665 400.677C363.05 401.274 361.066 401.999 361.185 402.225ZM334.53 409.669C334.654 409.911 337.089 409.472 339.895 408.697C342.669 407.931 344.804 407.127 344.664 406.889C344.54 406.646 342.196 407.094 339.433 407.839C336.626 408.614 334.406 409.426 334.53 409.669ZM305.037 417.129C305.145 417.377 307.759 416.955 310.85 416.2C313.942 415.445 316.288 414.648 316.18 414.401C316.056 414.158 313.527 414.573 310.452 415.323C307.36 416.078 304.913 416.887 305.037 417.129ZM272.964 424.479C273.056 424.731 275.881 424.316 279.189 423.585C282.529 422.844 285.135 422.04 285.043 421.788C284.951 421.536 282.19 421.932 278.855 422.689C275.543 423.404 272.867 424.211 272.964 424.479ZM238.788 431.733C238.847 431.995 241.788 431.616 245.335 430.866C248.886 430.133 251.635 429.34 251.57 429.062C251.495 428.805 248.623 429.181 245.087 429.91C241.541 430.66 238.723 431.456 238.788 431.733ZM202.862 438.911C202.894 439.198 205.973 438.813 209.63 438.083C213.34 437.356 216.295 436.554 216.247 436.271C216.198 435.989 213.173 436.376 209.479 437.099C205.822 437.829 202.818 438.645 202.862 438.911ZM165.651 446.049C165.651 446.346 168.755 445.988 172.587 445.259C176.419 444.53 179.459 443.721 179.447 443.445C179.431 443.153 176.359 443.501 172.543 444.225C168.723 444.934 165.65 445.753 165.651 446.049ZM127.52 453.144C127.488 453.45 130.629 453.099 134.535 452.384C138.44 451.668 141.63 450.832 141.629 450.535C141.645 450.234 138.483 450.574 134.594 451.285C130.693 452.017 127.536 452.843 127.52 453.144ZM88.9297 460.218C88.8704 460.55 91.9953 460.204 95.9375 459.494C99.8429 458.779 103.085 457.944 103.133 457.634C103.181 457.323 100.015 457.646 96.1255 458.358C92.1832 459.067 88.9728 459.892 88.9297 460.218ZM50.2014 467.298C50.1101 467.639 53.2397 467.309 57.129 466.598C61.0665 465.872 64.309 465.038 64.3843 464.702C64.4596 464.366 61.3621 464.686 57.4359 465.391C53.5626 466.097 50.2927 466.957 50.2014 467.298ZM11.8225 474.379C11.6991 474.73 14.7645 474.419 18.6491 473.691C22.5337 472.964 25.7715 472.114 25.8789 471.768C25.9862 471.423 22.9529 471.724 19.0635 472.435C15.195 473.158 11.9459 474.029 11.8225 474.379ZM-25.7794 481.493C-25.9349 481.853 -23.0234 481.552 -19.2237 480.833C-15.4241 480.113 -12.2278 479.24 -12.0884 478.885C-11.9489 478.53 -14.902 478.808 -18.6809 479.539C-22.4692 480.238 -25.6286 481.117 -25.7794 481.493ZM-62.2662 488.662C-62.449 489.047 -59.6272 488.738 -55.9541 488.004C-52.3131 487.278 -49.1745 486.388 -48.9869 486.018C-48.82 485.638 -51.6834 485.924 -55.3036 486.66C-58.9815 487.379 -62.0833 488.276 -62.2662 488.662ZM-97.1668 495.886C-97.3817 496.281 -94.7666 495.98 -91.2682 495.245C-87.7697 494.51 -84.7576 493.604 -84.5587 493.214C-84.3598 492.824 -87.0325 493.106 -90.5309 493.841C-94.0133 494.572 -96.9518 495.491 -97.1668 495.886ZM-130.122 503.199C-130.353 503.599 -127.913 503.297 -124.626 502.555C-121.371 501.821 -118.486 500.9 -118.255 500.501C-118.04 500.106 -120.558 500.378 -123.808 501.127C-127.079 501.865 -129.891 502.799 -130.122 503.199ZM-160.662 510.602C-160.909 511.006 -158.728 510.712 -155.689 509.955C-152.667 509.203 -149.977 508.27 -149.746 507.871C-149.499 507.466 -151.79 507.741 -154.812 508.493C-157.835 509.245 -160.415 510.198 -160.662 510.602ZM-188.442 518.133C-188.705 518.542 -186.736 518.24 -184.047 517.482C-181.309 516.709 -178.831 515.769 -178.588 515.349C-178.325 514.94 -180.405 515.222 -183.126 515.99C-185.816 516.748 -188.179 517.724 -188.442 518.133ZM-213.302 527.227C-213.554 527.616 -211.829 527.019 -209.378 525.983C-206.928 524.946 -204.72 523.859 -204.457 523.45C-204.209 523.045 -206.01 523.506 -208.471 524.564C-210.937 525.605 -213.071 526.828 -213.302 527.227ZM-235.851 540.018C-236.08 540.365 -234.534 539.455 -232.315 538.05C-230.095 536.646 -228.057 535.277 -227.816 534.91C-227.576 534.542 -229.24 535.347 -231.455 536.768C-233.686 538.193 -235.622 539.671 -235.851 540.018ZM-256.32 556.015C-256.547 556.309 -255.14 555.109 -253.116 553.396C-251.092 551.682 -249.253 550.111 -249.03 549.801C-248.808 549.491 -250.285 550.572 -252.3 552.318C-254.319 554.047 -256.093 555.722 -256.32 556.015ZM-275.038 574.758C-275.252 574.978 -273.957 573.515 -272.125 571.562C-270.283 569.588 -268.565 567.843 -268.344 567.586C-268.124 567.329 -269.491 568.726 -271.328 570.716C-273.171 572.69 -274.828 574.522 -275.038 574.758ZM-292.243 595.671C-292.444 595.817 -291.263 594.143 -289.551 591.964C-287.839 589.784 -286.276 587.928 -286.08 587.765C-285.867 587.598 -287.104 589.201 -288.811 591.397C-290.518 593.592 -292.042 595.524 -292.243 595.671ZM-308.259 618.309C-308.451 618.365 -307.332 616.483 -305.743 614.183C-304.147 611.846 -302.688 609.933 -302.505 609.844C-302.306 609.75 -303.449 611.552 -305.051 613.926C-306.636 616.243 -308.071 618.236 -308.259 618.309ZM-323.332 642.134C-323.495 642.112 -322.419 640.085 -320.925 637.638C-319.427 635.208 -318.046 633.266 -317.876 633.251C-317.701 633.251 -318.781 635.209 -320.302 637.681C-321.823 640.153 -323.169 642.155 -323.332 642.134ZM-337.76 666.606C-337.899 666.49 -336.862 664.387 -335.415 661.902C-333.968 659.417 -332.672 657.482 -332.522 657.577C-332.376 657.657 -333.434 659.748 -334.888 662.27C-336.342 664.792 -337.622 666.722 -337.76 666.606ZM-351.815 691.281C-351.925 691.087 -350.87 688.927 -349.443 686.43C-348.044 683.959 -346.787 682.071 -346.671 682.229C-346.554 682.386 -347.632 684.588 -349.042 687.08C-350.48 689.597 -351.71 691.46 -351.815 691.281ZM-365.794 715.621C-365.838 715.355 -364.756 713.169 -363.331 710.726C-361.922 708.287 -360.71 706.481 -360.639 706.722C-360.568 706.963 -361.673 709.19 -363.109 711.654C-364.541 714.135 -365.735 715.882 -365.794 715.621ZM-379.967 739.128C-379.944 738.79 -378.768 736.629 -377.331 734.286C-375.905 731.964 -374.724 730.29 -374.714 730.619C-374.709 730.931 -375.877 733.125 -377.33 735.472C-378.783 737.819 -379.973 739.461 -379.967 739.128ZM-394.599 761.253C-394.506 760.859 -393.207 758.819 -391.727 756.621C-390.226 754.434 -389.095 752.949 -389.16 753.317C-389.226 753.685 -390.491 755.785 -392.018 757.997C-393.53 760.205 -394.692 761.647 -394.599 761.253ZM-409.994 781.562C-409.804 781.14 -408.35 779.211 -406.772 777.228C-405.21 775.25 -404.063 773.935 -404.22 774.347C-404.378 774.76 -405.813 776.753 -407.407 778.741C-409.017 780.733 -410.204 781.973 -409.994 781.562ZM-426.427 799.474C-426.105 799.03 -424.478 797.329 -422.792 795.593C-421.107 793.858 -419.978 792.775 -420.253 793.205C-420.527 793.635 -422.125 795.432 -423.843 797.177C-425.582 798.911 -426.738 799.897 -426.427 799.474ZM-444.174 814.529C-443.709 814.095 -441.837 812.636 -440.008 811.207C-438.196 809.783 -437.07 808.927 -437.466 809.358C-437.878 809.794 -439.701 811.361 -441.567 812.783C-443.469 814.199 -444.644 814.946 -444.174 814.529Z" fill="url(#paint0_linear_351_913)"/>
</g>
</g>
<defs>
<linearGradient id="paint0_linear_351_913" x1="1281.67" y1="211.306" x2="301.569" y2="923.532" gradientUnits="userSpaceOnUse">
<stop stop-color="#07EDD2"/>
<stop offset="1" stop-color="#9C63F7"/>
</linearGradient>
</defs>
</svg>
