<svg width="1280" height="858" viewBox="0 0 1280 858" fill="none" xmlns="http://www.w3.org/2000/svg">
<g opacity="0.6129">
<g opacity="0.6129">
<path opacity="0.6129" d="M1486.01 14.9776C1485.62 13.2067 1486.69 11.6187 1488.43 11.5579C1490.2 11.5084 1492.03 12.9912 1492.43 14.7414C1492.82 16.4755 1491.62 17.8208 1489.85 17.8911C1488.09 17.9727 1486.38 16.7164 1486.01 14.9776ZM1462.66 18.217C1462.32 16.4158 1463.4 14.5635 1465.17 14.2175C1466.93 13.8716 1468.69 15.1665 1469.04 16.963C1469.39 18.7273 1468.2 20.3531 1466.43 20.6991C1464.64 21.0545 1463 20.0021 1462.66 18.217ZM1439.37 24.9147C1439.09 23.0946 1440.23 21.0487 1441.96 20.4686C1443.72 19.8791 1445.42 20.9654 1445.73 22.7761C1446.03 24.5546 1444.78 26.4061 1443.01 26.9957C1441.27 27.5805 1439.65 26.698 1439.37 24.9147ZM1416.17 34.5648C1415.95 32.7626 1417.13 30.5646 1418.87 29.7569C1420.58 28.954 1422.28 29.8497 1422.5 31.6519C1422.73 33.4333 1421.41 35.4624 1419.65 36.2587C1417.9 37.0711 1416.38 36.3349 1416.17 34.5648ZM1392.96 46.7291C1392.83 44.9561 1394.06 42.6382 1395.81 41.6511C1397.56 40.6641 1399.15 41.3974 1399.31 43.1817C1399.47 44.95 1398.11 47.0942 1396.34 48.07C1394.56 49.0504 1393.1 48.486 1392.96 46.7291ZM1369.78 60.8949C1369.71 59.1511 1371 56.7662 1372.74 55.6413C1374.47 54.5212 1376.03 55.0893 1376.12 56.8444C1376.19 58.5674 1374.75 60.841 1372.99 61.9338C1371.23 63.0634 1369.83 62.6227 1369.78 60.8949ZM1346.53 76.631C1346.53 74.9371 1347.87 72.5012 1349.62 71.2706C1351.38 70.0352 1352.86 70.4891 1352.88 72.2103C1352.89 73.8994 1351.41 76.2033 1349.64 77.4226C1347.87 78.6579 1346.53 78.304 1346.53 76.631ZM1323.23 93.4453C1323.3 91.7854 1324.72 89.3258 1326.48 88.0215C1328.21 86.7427 1329.69 87.0749 1329.64 88.746C1329.59 90.4012 1328.03 92.7609 1326.28 94.0283C1324.48 95.326 1323.15 95.0891 1323.23 93.4453ZM1299.84 110.844C1299.95 109.207 1301.38 106.779 1303.15 105.454C1304.92 104.113 1306.34 104.427 1306.24 106.06C1306.14 107.676 1304.57 110.025 1302.78 111.354C1301 112.664 1299.74 112.445 1299.84 110.844ZM1276.3 128.391C1276.44 126.781 1277.93 124.372 1279.7 123.047C1281.46 121.742 1282.89 121.983 1282.76 123.609C1282.64 125.198 1280.99 127.549 1279.23 128.854C1277.45 130.163 1276.18 129.964 1276.3 128.391ZM1252.64 145.558C1252.77 143.948 1254.25 141.612 1256.05 140.314C1257.85 139.033 1259.27 139.31 1259.14 140.92C1259.01 142.493 1257.37 144.808 1255.57 146.105C1253.77 147.387 1252.51 147.147 1252.64 145.558ZM1228.77 161.929C1228.87 160.313 1230.36 158.009 1232.18 156.791C1233.97 155.599 1235.45 155.931 1235.35 157.548C1235.24 159.132 1233.59 161.414 1231.8 162.622C1229.98 163.84 1228.67 163.529 1228.77 161.929ZM1204.7 177.001C1204.73 175.335 1206.15 173.118 1208 172.034C1209.84 170.95 1211.35 171.394 1211.31 173.045C1211.25 174.668 1209.68 176.894 1207.85 177.99C1206.04 179.102 1204.68 178.631 1204.7 177.001ZM1180.37 190.317C1180.29 188.578 1181.68 186.424 1183.52 185.498C1185.39 184.563 1187 185.186 1187.05 186.882C1187.1 188.577 1185.57 190.737 1183.73 191.7C1181.91 192.653 1180.44 192.024 1180.37 190.317ZM1155.79 201.369C1155.56 199.519 1156.82 197.456 1158.72 196.686C1160.61 195.937 1162.37 196.777 1162.54 198.593C1162.72 200.389 1161.29 202.504 1159.45 203.292C1157.59 204.084 1156 203.192 1155.79 201.369ZM1130.54 210.789C1130.19 208.712 1131.41 206.399 1133.34 205.688C1135.31 204.968 1137.24 206.02 1137.59 208.012C1137.92 209.972 1136.56 212.222 1134.62 213.038C1132.69 213.834 1130.9 212.829 1130.54 210.789ZM1104.18 222.853C1103.75 220.488 1104.96 217.793 1106.99 216.827C1109 215.886 1111.06 216.969 1111.48 219.254C1111.88 221.524 1110.51 224.197 1108.52 225.202C1106.51 226.249 1104.6 225.171 1104.18 222.853ZM1076.97 237.614C1076.47 235.056 1077.67 232.033 1079.77 230.873C1081.86 229.717 1084 230.83 1084.48 233.34C1084.95 235.818 1083.6 238.815 1081.53 240.034C1079.45 241.243 1077.45 240.14 1076.97 237.614ZM1049.07 254.617C1048.51 251.919 1049.73 248.664 1051.87 247.336C1053.98 246.017 1056.23 247.096 1056.76 249.767C1057.29 252.401 1055.92 255.667 1053.82 257.017C1051.71 258.373 1049.61 257.283 1049.07 254.617ZM1020.57 273.452C1019.98 270.679 1021.19 267.253 1023.37 265.789C1025.56 264.325 1027.82 265.384 1028.41 268.141C1028.98 270.866 1027.66 274.293 1025.49 275.768C1023.32 277.264 1021.15 276.194 1020.57 273.452ZM991.633 293.674C991.001 290.878 992.209 287.347 994.418 285.789C996.627 284.23 998.964 285.233 999.581 288.034C1000.19 290.802 998.874 294.33 996.669 295.904C994.476 297.458 992.257 296.438 991.633 293.674ZM962.322 314.879C961.657 312.092 962.904 308.515 965.099 306.908C967.337 305.271 969.692 306.216 970.341 309.008C970.98 311.767 969.68 315.343 967.453 316.959C965.279 318.577 962.977 317.634 962.322 314.879ZM932.849 336.602C932.166 333.873 933.375 330.342 935.62 328.668C937.837 327.02 940.253 327.877 940.924 330.627C941.586 333.345 940.254 336.93 938.048 338.557C935.814 340.21 933.506 339.304 932.849 336.602ZM903.239 358.452C902.543 355.797 903.755 352.335 906.004 350.677C908.254 349.019 910.655 349.829 911.34 352.505C912.015 355.149 910.733 358.667 908.495 360.304C906.236 361.929 903.921 361.06 903.239 358.452ZM873.684 379.955C872.984 377.406 874.192 374.049 876.387 372.443C878.625 370.806 881.056 371.537 881.749 374.123C882.433 376.677 881.122 380.099 878.89 381.699C876.691 383.29 874.374 382.473 873.684 379.955ZM844.265 400.738C843.578 398.289 844.764 395.096 846.989 393.533C849.214 391.97 851.588 392.683 852.284 395.163C852.972 397.612 851.703 400.882 849.485 402.408C847.266 403.935 844.959 403.15 844.265 400.738ZM815.121 420.323C814.435 417.996 815.648 414.952 817.848 413.484C820.022 412.04 822.385 412.721 823.086 415.096C823.756 417.427 822.498 420.554 820.315 421.966C818.121 423.398 815.803 422.634 815.121 420.323ZM786.409 438.298C785.735 436.072 786.925 433.245 789.083 431.928C791.241 430.611 793.545 431.327 794.224 433.569C794.882 435.799 793.663 438.705 791.5 440.006C789.317 441.296 787.058 440.497 786.409 438.298ZM758.181 454.247C757.536 452.117 758.734 449.496 760.849 448.331C762.938 447.192 765.215 447.933 765.87 450.095C766.515 452.225 765.277 454.945 763.184 456.068C761.058 457.201 758.817 456.344 758.181 454.247ZM730.633 467.71C730.027 465.656 731.158 463.281 733.23 462.321C735.301 461.361 737.474 462.221 738.105 464.302C738.727 466.352 737.539 468.83 735.479 469.769C733.386 470.718 731.234 469.748 730.633 467.71ZM703.809 478.308C703.233 476.297 704.378 474.145 706.367 473.437C708.372 472.723 710.476 473.707 711.056 475.734C711.643 477.724 710.484 480.002 708.474 480.699C706.481 481.392 704.391 480.281 703.809 478.308ZM677.768 485.762C677.208 483.747 678.341 481.79 680.306 481.298C682.271 480.805 684.31 481.983 684.87 483.998C685.42 485.982 684.305 488.055 682.319 488.536C680.353 489.029 678.318 487.745 677.768 485.762ZM651.614 490.528C651.07 488.508 652.257 486.676 654.214 486.395C656.204 486.104 658.243 487.457 658.786 489.477C659.32 491.465 658.179 493.389 656.189 493.679C654.215 493.965 652.148 492.516 651.614 490.528ZM625.251 492.931C624.708 490.911 625.884 489.221 627.889 489.101C629.894 488.98 631.938 490.471 632.482 492.491C633.016 494.479 631.852 496.27 629.863 496.385C627.853 496.49 625.801 494.915 625.251 492.931ZM598.699 493.332C598.14 491.317 599.349 489.739 601.344 489.761C603.371 489.774 605.416 491.386 605.96 493.406C606.494 495.394 605.345 497.059 603.313 497.03C601.334 497.003 599.233 495.32 598.699 493.332ZM572.007 492.135C571.452 490.136 572.632 488.636 574.66 488.771C576.668 488.894 578.757 490.597 579.317 492.613C579.867 494.596 578.685 496.148 576.673 496.009C574.661 495.87 572.557 494.118 572.007 492.135ZM545.19 489.684C544.619 487.689 545.79 486.28 547.842 486.494C549.878 486.714 551.966 488.47 552.536 490.465C553.098 492.427 551.945 493.901 549.91 493.681C547.858 493.467 545.751 491.646 545.19 489.684ZM518.307 486.362C517.709 484.393 518.895 483.032 520.924 483.288C522.937 483.549 525.071 485.344 525.658 487.334C526.235 489.291 525.059 490.685 523.062 490.419C521.028 490.147 518.88 488.304 518.307 486.362ZM491.342 482.524C490.733 480.576 491.891 479.24 493.95 479.54C495.994 479.844 498.112 481.644 498.726 483.608C499.331 485.54 498.198 486.903 496.155 486.599C494.111 486.295 491.947 484.456 491.342 482.524ZM464.408 478.555C463.782 476.611 464.93 475.296 466.973 475.601C468.996 475.894 471.151 477.7 471.776 479.643C472.392 481.555 471.25 482.886 469.243 482.588C467.2 482.284 465.024 480.466 464.408 478.555ZM437.46 474.834C436.807 472.916 437.986 471.591 440 471.852C442.049 472.12 444.174 473.883 444.827 475.801C445.455 477.691 444.37 479.04 442.331 478.752C440.318 478.491 438.104 476.72 437.46 474.834ZM410.602 471.714C409.938 469.817 411.066 468.438 413.102 468.657C415.117 468.865 417.28 470.582 417.949 472.495C418.609 474.376 417.508 475.73 415.493 475.522C413.453 475.287 411.257 473.579 410.602 471.714ZM383.806 469.571C383.126 467.678 384.239 466.251 386.268 466.385C388.296 466.52 390.452 468.151 391.116 470.049C391.787 471.909 390.721 473.322 388.693 473.188C386.681 473.049 384.477 471.431 383.806 469.571ZM357.159 468.761C356.467 466.89 357.569 465.361 359.564 465.383C361.575 465.401 363.76 466.954 364.435 468.83C365.106 470.691 364.043 472.173 362.032 472.156C360.037 472.134 357.829 470.622 357.159 468.761ZM330.641 469.693C329.949 467.821 331.034 466.176 333.039 466.055C335.044 465.935 337.18 467.38 337.872 469.252C338.554 471.092 337.524 472.686 335.524 472.823C333.514 472.927 331.323 471.533 330.641 469.693ZM304.316 472.696C303.624 470.824 304.719 469.036 306.709 468.745C308.667 468.464 310.813 469.768 311.504 471.639C312.191 473.495 311.147 475.216 309.189 475.497C307.203 475.803 305.003 474.551 304.316 472.696ZM278.248 478.169C277.568 476.277 278.631 474.323 280.601 473.847C282.567 473.354 284.659 474.534 285.351 476.406C286.021 478.266 285.024 480.148 283.059 480.64C281.073 481.121 278.919 480.03 278.248 478.169ZM252.922 485.744C252.247 483.867 253.25 481.827 255.118 481.241C256.97 480.66 258.992 481.721 259.672 483.613C260.343 485.474 259.395 487.463 257.559 488.039C255.68 488.646 253.577 487.609 252.922 485.744ZM229.205 493.803C228.582 491.929 229.484 489.901 231.237 489.279C232.99 488.657 234.897 489.682 235.54 491.568C236.174 493.422 235.3 495.424 233.526 496.035C231.773 496.656 229.834 495.641 229.205 493.803ZM206.867 502.223C206.339 500.373 207.257 498.341 208.879 497.688C210.521 497.047 212.297 498.04 212.857 499.881C213.413 501.706 212.522 503.713 210.864 504.359C209.189 505.01 207.386 504.041 206.867 502.223ZM185.69 510.912C185.293 509.092 186.227 507.055 187.775 506.389C189.339 505.719 190.931 506.68 191.381 508.5C191.81 510.31 190.882 512.311 189.281 512.975C187.685 513.655 186.082 512.715 185.69 510.912ZM165.425 519.854C165.191 518.057 166.215 516.028 167.69 515.349C169.18 514.665 170.603 515.588 170.89 517.387C171.156 519.175 170.138 521.167 168.611 521.845C167.084 522.522 165.654 521.635 165.425 519.854ZM145.895 528.981C145.861 527.212 146.964 525.212 148.412 524.506C149.845 523.804 151.084 524.694 151.175 526.482C151.257 528.237 150.113 530.214 148.628 530.913C147.137 531.597 145.94 530.73 145.895 528.981ZM126.853 538.226C127.036 536.48 128.296 534.486 129.681 533.798C131.077 533.09 132.132 533.947 132.018 535.69C131.9 537.417 130.613 539.384 129.144 540.079C127.69 540.769 126.665 539.955 126.853 538.226ZM108.094 547.544C108.498 545.837 109.906 543.87 111.286 543.166C112.65 542.467 113.553 543.282 113.207 545.007C112.867 546.694 111.385 548.649 109.953 549.35C108.499 550.041 107.702 549.229 108.094 547.544ZM89.3609 556.889C89.9856 555.222 91.557 553.276 92.9529 552.568C94.3487 551.86 95.0404 552.667 94.4894 554.347C93.9336 556.011 92.2838 557.928 90.8143 558.623C89.3609 559.314 88.7475 558.535 89.3609 556.889ZM70.4869 566.171C71.3279 564.528 73.0882 562.631 74.5001 561.918C75.9007 561.226 76.4564 561.986 75.6731 563.647C74.8964 565.272 73.0142 567.17 71.5768 567.856C70.1073 568.551 69.6573 567.794 70.4869 566.171ZM51.2192 575.36C52.2603 573.745 54.2208 571.876 55.6695 571.17C57.123 570.479 57.5362 571.23 56.5319 572.852C55.555 574.448 53.4887 576.313 51.9985 576.997C50.4969 577.702 50.1894 576.955 51.2192 575.36ZM31.332 584.401C32.5572 582.818 34.7132 580.962 36.2243 580.289C37.6985 579.61 38.0427 580.363 36.8704 581.947C35.7093 583.511 33.4268 585.353 31.895 586.014C30.331 586.685 30.1181 585.962 31.332 584.401ZM10.6317 593.228C12.0042 591.671 14.333 589.868 15.897 589.198C17.4817 588.538 17.7155 589.272 16.3797 590.834C15.0553 592.376 12.6 594.165 10.9832 594.833C9.3777 595.481 9.27046 594.763 10.6317 593.228ZM-11.1234 601.79C-9.62431 600.249 -7.13219 598.467 -5.46909 597.837C-3.82676 597.196 -3.57221 597.94 -5.03918 599.472C-6.49011 600.999 -9.12954 602.754 -10.8087 603.389C-12.5086 604.012 -12.6111 603.31 -11.1234 601.79ZM-34.1477 610.011C-32.591 608.488 -29.979 606.758 -28.1893 606.143C-26.4158 605.533 -26.1612 606.277 -27.7178 607.801C-29.2472 609.298 -32.0179 611.023 -33.8236 611.642C-35.5972 612.253 -35.693 611.513 -34.1477 610.011ZM-58.6574 617.868C-57.08 616.356 -54.3367 614.658 -52.4479 614.083C-50.543 613.504 -50.1827 614.252 -51.7762 615.769C-53.3423 617.26 -56.2603 618.958 -58.1652 619.537C-60.0379 620.107 -60.2236 619.359 -58.6574 617.868ZM-86.0779 624.491C-84.4702 623.022 -81.4681 621.492 -79.2771 621.055C-77.0747 620.597 -76.5529 621.42 -78.1606 622.888C-79.7362 624.347 -82.8715 625.9 -85.0625 626.337C-87.2696 626.778 -87.6743 625.939 -86.0779 624.491ZM-117.513 629.332C-115.953 627.878 -112.711 626.451 -110.238 626.14C-107.75 625.825 -106.982 626.714 -108.562 628.157C-110.126 629.595 -113.449 631.046 -115.916 631.373C-118.363 631.711 -119.056 630.782 -117.513 629.332ZM-152.176 632.806C-150.7 631.306 -147.37 629.94 -144.646 629.713C-141.922 629.485 -140.893 630.49 -142.391 631.978C-143.877 633.445 -147.293 634.872 -149.98 635.106C-152.683 635.345 -153.625 634.28 -152.176 632.806ZM-189.519 635.238C-188.209 633.648 -184.794 632.275 -181.888 632.133C-179.019 631.984 -177.734 633.088 -179.102 634.66C-180.442 636.207 -183.886 637.659 -186.714 637.83C-189.578 637.994 -190.818 636.807 -189.519 635.238ZM-228.835 637.014C-227.716 635.306 -224.385 633.888 -221.327 633.788C-218.306 633.682 -216.744 634.896 -217.92 636.586C-219.089 638.239 -222.515 639.755 -225.473 639.895C-228.453 640.024 -229.926 638.697 -228.835 637.014ZM-269.532 638.482C-268.647 636.634 -265.376 635.128 -262.265 635.031C-259.117 634.94 -257.364 636.271 -258.311 638.086C-259.252 639.863 -262.522 641.491 -265.603 641.632C-268.636 641.759 -270.406 640.31 -269.532 638.482ZM-310.909 640.012C-310.262 638.007 -307.199 636.388 -304.019 636.287C-300.876 636.18 -298.846 637.622 -299.56 639.577C-300.263 641.511 -303.385 643.287 -306.465 643.428C-309.567 643.558 -311.534 641.975 -310.909 640.012ZM-352.396 641.939C-352.019 639.787 -349.108 638.004 -345.996 637.854C-342.83 637.705 -340.654 639.226 -341.094 641.344C-341.542 643.43 -344.406 645.374 -347.493 645.552C-350.538 645.752 -352.761 644.071 -352.396 641.939ZM-393.269 644.646C-393.146 642.342 -390.547 640.389 -387.437 640.17C-384.327 639.95 -381.995 641.53 -382.18 643.8C-382.375 646.037 -384.958 648.16 -387.985 648.425C-391.033 648.678 -393.38 646.929 -393.269 644.646ZM-432.958 648.468C-433.084 646.028 -430.733 643.887 -427.769 643.588C-424.772 643.28 -422.329 644.879 -422.265 647.285C-422.194 649.654 -424.489 651.988 -427.407 652.325C-430.316 652.695 -432.836 650.891 -432.958 648.468ZM-470.761 653.775C-471.132 651.215 -469.125 648.914 -466.288 648.478C-463.483 648.052 -460.96 649.628 -460.647 652.169C-460.347 654.663 -462.337 657.203 -465.063 657.658C-467.842 658.112 -470.399 656.302 -470.761 653.775ZM-506.115 660.94C-506.684 658.3 -505.009 655.818 -502.395 655.221C-499.775 654.64 -497.271 656.151 -496.759 658.774C-496.241 661.36 -497.845 664.083 -500.418 664.702C-502.975 665.317 -505.539 663.544 -506.115 660.94ZM-538.311 670.297C-539.048 667.619 -537.69 664.951 -535.318 664.181C-532.978 663.421 -530.539 664.83 -529.822 667.497C-529.131 670.136 -530.414 673.061 -532.701 673.823C-535.036 674.599 -537.567 672.938 -538.311 670.297ZM-566.688 682.191C-567.543 679.53 -566.54 676.722 -564.493 675.735C-562.447 674.747 -560.178 675.997 -559.339 678.662C-558.51 681.296 -559.412 684.388 -561.447 685.354C-563.461 686.332 -565.838 684.835 -566.688 682.191ZM-590.674 697.027C-591.595 694.438 -590.894 691.493 -589.215 690.265C-587.548 689.058 -585.496 690.041 -584.587 692.65C-583.687 695.228 -584.266 698.469 -585.922 699.655C-587.59 700.862 -589.763 699.584 -590.674 697.027Z" fill="url(#paint0_linear_351_850)"/>
</g>
</g>
<defs>
<linearGradient id="paint0_linear_351_850" x1="1255.75" y1="219.991" x2="229.196" y2="960.867" gradientUnits="userSpaceOnUse">
<stop stop-color="#07EDD2"/>
<stop offset="1" stop-color="#9C63F7"/>
</linearGradient>
</defs>
</svg>
