<svg width="1280" height="765" viewBox="0 0 1280 765" fill="none" xmlns="http://www.w3.org/2000/svg">
<g opacity="0.5161">
<g opacity="0.5161">
<path opacity="0.5161" d="M1445.33 9.04451C1444.2 9.60337 1444.62 9.89853 1446.27 9.70749C1447.93 9.51644 1450.17 8.92275 1451.28 8.36863C1452.39 7.8145 1451.96 7.52408 1450.32 7.71039C1448.69 7.8967 1446.45 8.48566 1445.33 9.04451ZM1420.72 12.7267C1419.55 13.2629 1419.98 13.4685 1421.62 13.1924C1423.27 12.9164 1425.53 12.2491 1426.68 11.7015C1427.83 11.154 1427.45 10.9504 1425.81 11.2424C1424.19 11.5297 1421.89 12.1905 1420.72 12.7267ZM1396.13 17.8176C1394.92 18.2783 1395.28 18.3649 1396.93 17.9992C1398.58 17.6335 1400.89 16.9359 1402.09 16.4591C1403.29 15.9663 1402.91 15.9052 1401.27 16.2822C1399.63 16.68 1397.33 17.3568 1396.13 17.8176ZM1371.51 24.2048C1370.27 24.5532 1370.62 24.4859 1372.27 24.0352C1373.91 23.5845 1376.24 22.9143 1377.48 22.5338C1378.71 22.1533 1378.4 22.2271 1376.75 22.6939C1375.12 23.1927 1372.75 23.8564 1371.51 24.2048ZM1346.98 31.791C1345.69 31.9949 1345.97 31.7559 1347.62 31.2523C1349.26 30.7327 1351.63 30.1059 1352.9 29.8698C1354.17 29.6177 1353.89 29.8728 1352.26 30.4245C1350.64 30.9554 1348.27 31.5662 1346.98 31.791ZM1322.49 40.4431C1321.16 40.4866 1321.44 40.0568 1323.08 39.4683C1324.72 38.8797 1327.1 38.3331 1328.42 38.2575C1329.74 38.1659 1329.51 38.6183 1327.88 39.2389C1326.24 39.8595 1323.82 40.3995 1322.49 40.4431ZM1298.12 50.0571C1296.75 49.9194 1296.95 49.3018 1298.59 48.6604C1300.24 48.019 1302.65 47.5687 1304 47.6583C1305.35 47.7479 1305.16 48.3816 1303.53 49.0711C1301.9 49.7607 1299.48 50.1949 1298.12 50.0571ZM1273.86 60.5436C1272.46 60.2246 1272.65 59.4002 1274.27 58.6946C1275.9 57.989 1278.33 57.6558 1279.72 57.9266C1281.1 58.1975 1280.95 59.0285 1279.34 59.7822C1277.72 60.5198 1275.26 60.8626 1273.86 60.5436ZM1249.78 71.7616C1248.36 71.2566 1248.5 70.2557 1250.12 69.518C1251.72 68.7643 1254.17 68.5321 1255.59 68.9842C1257.02 69.4363 1256.88 70.4532 1255.27 71.2598C1253.65 72.0503 1251.21 72.2665 1249.78 71.7616ZM1225.86 83.6309C1224.43 82.956 1224.57 81.7805 1226.17 80.9946C1227.77 80.2088 1230.21 80.0823 1231.65 80.7043C1233.09 81.3263 1232.97 82.5293 1231.38 83.3472C1229.79 84.1811 1227.31 84.285 1225.86 83.6309ZM1202.2 96.0014C1200.75 95.1886 1200.85 93.8686 1202.43 93.0554C1204 92.2262 1206.45 92.2007 1207.88 92.9814C1209.32 93.762 1209.23 95.1141 1207.66 95.9594C1206.08 96.8094 1203.64 96.8141 1202.2 96.0014ZM1178.73 108.818C1177.3 107.879 1177.39 106.458 1178.97 105.592C1180.53 104.731 1182.95 104.784 1184.38 105.686C1185.82 106.588 1185.73 108.062 1184.17 108.94C1182.6 109.822 1180.18 109.753 1178.73 108.818ZM1155.58 121.927C1154.16 120.914 1154.26 119.403 1155.8 118.53C1157.34 117.658 1159.73 117.736 1161.14 118.733C1162.55 119.73 1162.47 121.273 1160.93 122.161C1159.38 123.055 1156.99 122.924 1155.58 121.927ZM1132.69 135.235C1131.32 134.192 1131.42 132.644 1132.97 131.751C1134.46 130.876 1136.82 130.964 1138.21 132.003C1139.6 133.041 1139.48 134.63 1137.97 135.51C1136.42 136.403 1134.07 136.278 1132.69 135.235ZM1110.15 148.635C1108.84 147.626 1109 146.08 1110.49 145.168C1111.98 144.257 1114.26 144.353 1115.59 145.373C1116.92 146.394 1116.79 147.951 1115.29 148.846C1113.78 149.746 1111.46 149.644 1110.15 148.635ZM1087.65 162.248C1086.42 161.321 1086.66 159.82 1088.19 158.863C1089.74 157.9 1091.97 157.904 1093.22 158.843C1094.48 159.781 1094.27 161.309 1092.69 162.244C1091.16 163.185 1088.89 163.175 1087.65 162.248ZM1063.76 177.003C1062.6 176.142 1063.01 174.61 1064.62 173.592C1066.24 172.574 1068.5 172.468 1069.67 173.324C1070.86 174.197 1070.51 175.73 1068.87 176.737C1067.23 177.744 1064.93 177.864 1063.76 177.003ZM1038.62 192.705C1037.52 191.862 1038.02 190.302 1039.71 189.244C1041.42 188.165 1043.71 187.976 1044.82 188.835C1045.95 189.689 1045.45 191.266 1043.73 192.333C1042.02 193.395 1039.72 193.548 1038.62 192.705ZM1012.31 209.186C1011.27 208.308 1011.87 206.683 1013.66 205.581C1015.44 204.462 1017.72 204.277 1018.78 205.151C1019.84 206.024 1019.27 207.64 1017.49 208.758C1015.69 209.865 1013.36 210.065 1012.31 209.186ZM985.062 226.207C984.052 225.266 984.725 223.585 986.57 222.448C988.415 221.311 990.719 221.137 991.724 222.062C992.745 222.981 992.098 224.69 990.242 225.848C988.397 226.985 986.072 227.147 985.062 226.207ZM957.007 243.569C956.038 242.53 956.783 240.74 958.676 239.589C960.569 238.437 962.871 238.316 963.868 239.331C964.848 240.35 964.135 242.13 962.236 243.318C960.336 244.506 957.981 244.625 957.007 243.569ZM928.333 261.08C927.378 259.914 928.174 258.057 930.099 256.896C932.024 255.735 934.354 255.711 935.315 256.84C936.276 257.969 935.506 259.854 933.57 261.035C931.622 262.238 929.287 262.246 928.333 261.08ZM899.173 278.542C898.233 277.249 899.097 275.267 901.042 274.118C902.988 272.968 905.336 273.061 906.266 274.322C907.196 275.582 906.385 277.566 904.433 278.752C902.48 279.938 900.112 279.834 899.173 278.542ZM869.758 295.73C868.845 294.29 869.684 292.228 871.656 291.106C873.627 289.984 875.964 290.219 876.884 291.622C877.804 293.025 876.973 295.119 874.995 296.278C873.013 297.421 870.671 297.17 869.758 295.73ZM840.185 312.441C839.277 310.843 840.157 308.682 842.138 307.592C844.119 306.502 846.446 306.879 847.36 308.441C848.274 310.003 847.42 312.191 845.448 313.314C843.461 314.44 841.092 314.04 840.185 312.441ZM810.673 328.472C809.771 326.715 810.616 324.494 812.595 323.457C814.558 322.425 816.879 322.961 817.788 324.682C818.691 326.386 817.849 328.675 815.88 329.745C813.905 330.798 811.575 330.229 810.673 328.472ZM781.339 343.63C780.431 341.735 781.269 339.43 783.246 338.445C785.191 337.471 787.512 338.182 788.41 340.045C789.308 341.908 788.48 344.245 786.529 345.257C784.561 346.273 782.247 345.525 781.339 343.63ZM752.415 357.691C751.522 355.669 752.329 353.321 754.245 352.424C756.161 351.528 758.444 352.407 759.348 354.408C760.252 356.409 759.438 358.794 757.516 359.727C755.609 360.656 753.328 359.724 752.415 357.691ZM724.006 370.483C723.112 368.34 723.926 365.954 725.769 365.166C727.644 364.369 729.921 365.407 730.822 367.514C731.727 369.636 730.907 372.059 729.025 372.893C727.191 373.713 724.915 372.622 724.006 370.483ZM696.333 381.75C695.431 379.522 696.181 377.155 698.016 376.457C699.851 375.759 702.053 376.958 702.955 379.187C703.852 381.399 703.1 383.819 701.27 384.533C699.424 385.252 697.234 383.979 696.333 381.75ZM669.507 391.337C668.619 389.035 669.314 386.719 671.108 386.12C672.855 385.536 675.031 386.882 675.915 389.168C676.814 391.45 676.085 393.827 674.339 394.412C672.554 395.043 670.407 393.618 669.507 391.337ZM643.578 398.758C642.706 396.451 643.386 394.262 645.106 393.825C646.831 393.403 648.928 394.895 649.821 397.214C650.709 399.516 650.032 401.774 648.312 402.211C646.555 402.642 644.455 401.081 643.578 398.758ZM617.804 403.57C616.948 401.258 617.633 399.207 619.352 398.944C621.088 398.676 623.174 400.311 624.031 402.623C624.887 404.934 624.22 407.05 622.464 407.306C620.75 407.585 618.66 405.881 617.804 403.57ZM592.146 406.114C591.31 403.814 592.029 401.875 593.738 401.755C595.447 401.634 597.498 403.384 598.333 405.684C599.169 407.985 598.469 409.988 596.755 410.092C595.03 410.217 592.965 408.419 592.146 406.114ZM566.529 406.728C565.73 404.434 566.477 402.591 568.171 402.597C569.881 402.599 571.924 404.439 572.722 406.732C573.521 409.026 572.772 410.921 571.062 410.92C569.352 410.918 567.327 409.021 566.529 406.728ZM540.997 405.798C540.252 403.506 541.043 401.755 542.745 401.847C544.446 401.938 546.427 403.865 547.189 406.152C547.951 408.439 547.194 410.25 545.488 410.143C543.75 410.045 541.738 408.074 540.997 405.798ZM515.524 403.648C514.82 401.379 515.626 399.676 517.314 399.841C519.003 400.006 520.961 401.975 521.67 404.26C522.379 406.545 521.599 408.276 519.894 408.115C518.169 407.944 516.217 405.938 515.524 403.648ZM490.07 400.673C489.418 398.406 490.275 396.757 491.978 396.97C493.664 397.188 495.58 399.187 496.236 401.471C496.903 403.733 496.076 405.425 494.358 405.217C492.651 404.988 490.721 402.94 490.07 400.673ZM464.643 397.201C464.045 394.935 464.922 393.299 466.618 393.548C468.309 393.782 470.197 395.807 470.812 398.068C471.426 400.328 470.537 401.986 468.825 401.741C467.113 401.496 465.253 399.446 464.643 397.201ZM439.206 393.575C438.649 391.332 439.596 389.693 441.291 389.942C442.983 390.176 444.802 392.204 445.358 394.447C445.92 396.705 445.01 398.352 443.298 398.107C441.623 397.868 439.767 395.834 439.206 393.575ZM413.787 390.188C413.283 387.947 414.245 386.303 415.948 386.516C417.634 386.733 419.444 388.729 419.964 390.965C420.468 393.206 419.494 394.871 417.791 394.658C416.089 394.445 414.291 392.429 413.787 390.188ZM388.326 387.372C387.875 385.132 388.902 383.469 390.607 383.629C392.295 383.794 394.037 385.739 394.505 387.974C394.972 390.208 393.97 391.899 392.261 391.723C390.557 391.563 388.778 389.611 388.326 387.372ZM362.849 385.502C362.44 383.285 363.48 381.548 365.181 381.639C366.882 381.731 368.59 383.617 369.004 385.849C369.419 388.082 368.395 389.814 366.672 389.712C364.971 389.62 363.259 387.718 362.849 385.502ZM337.291 384.895C336.934 382.68 338.008 380.88 339.734 380.877C341.444 380.879 343.111 382.689 343.484 384.899C343.862 387.125 342.788 388.925 341.078 388.923C339.336 388.931 337.652 387.125 337.291 384.895ZM311.684 385.958C311.348 383.755 312.463 381.856 314.172 381.736C315.88 381.616 317.536 383.325 317.876 385.545C318.217 387.764 317.119 389.658 315.389 389.767C313.676 389.871 312.02 388.162 311.684 385.958ZM285.982 389.004C285.678 386.791 286.849 384.789 288.536 384.535C290.255 384.273 291.91 385.86 292.214 388.073C292.518 390.286 291.362 392.284 289.643 392.547C287.956 392.8 286.286 391.217 285.982 389.004ZM260.213 394.425C259.93 392.223 261.095 390.083 262.815 389.645C264.54 389.224 266.151 390.667 266.439 392.885C266.722 395.086 265.573 397.222 263.848 397.643C262.124 398.065 260.496 396.626 260.213 394.425ZM235.877 402.161C235.566 399.985 236.565 397.754 238.162 397.196C239.723 396.631 241.232 397.965 241.527 400.145C241.826 402.342 240.806 404.562 239.262 405.122C237.681 405.675 236.187 404.337 235.877 402.161ZM213.432 411.223C213.083 409.093 213.971 406.843 215.455 406.196C216.923 405.553 218.399 406.775 218.737 408.925C219.075 411.076 218.17 413.331 216.698 413.957C215.241 414.579 213.781 413.353 213.432 411.223ZM192.141 421.358C191.737 419.279 192.524 417.041 193.92 416.333C195.316 415.624 196.796 416.74 197.2 418.819C197.588 420.902 196.762 423.187 195.377 423.874C193.993 424.562 192.56 423.432 192.141 421.358ZM171.85 432.401C171.385 430.41 172.083 428.163 173.423 427.384C174.768 426.621 176.231 427.62 176.689 429.648C177.143 431.659 176.429 433.911 175.116 434.664C173.788 435.423 172.336 434.403 171.85 432.401ZM152.402 444.172C151.859 442.274 152.445 440.061 153.744 439.259C155.037 438.441 156.541 439.341 157.056 441.265C157.571 443.188 156.958 445.427 155.671 446.208C154.389 447.005 152.933 446.091 152.402 444.172ZM133.527 456.525C132.907 454.719 133.422 452.562 134.685 451.7C135.937 450.86 137.461 451.649 138.053 453.48C138.646 455.312 138.136 457.485 136.895 458.305C135.659 459.141 134.146 458.331 133.527 456.525ZM115.109 469.248C114.412 467.535 114.829 465.459 116.056 464.591C117.282 463.723 118.846 464.413 119.532 466.147C120.218 467.881 119.774 469.983 118.559 470.83C117.338 471.661 115.802 470.945 115.109 469.248ZM96.9123 482.186C96.1426 480.581 96.4932 478.577 97.7152 477.693C98.9372 476.809 100.546 477.416 101.305 479.041C102.063 480.667 101.685 482.697 100.491 483.555C99.2914 484.397 97.6981 483.786 96.9123 482.186ZM78.7823 495.173C77.9239 493.682 78.1972 491.77 79.4192 490.886C80.6412 490.003 82.3439 490.512 83.175 492.029C84.006 493.545 83.6941 495.504 82.4787 496.351C81.3001 497.204 79.6408 496.664 78.7823 495.173ZM60.4928 508.033C59.557 506.635 59.7897 504.822 61.0325 503.95C62.2753 503.077 64.028 503.52 64.9524 504.939C65.8769 506.358 65.6168 508.197 64.4013 509.044C63.1859 509.89 61.4285 509.432 60.4928 508.033ZM41.8904 520.602C40.882 519.312 41.0582 517.603 42.3104 516.763C43.5787 515.918 45.4182 516.3 46.4153 517.61C47.4124 518.921 47.1928 520.66 45.9519 521.48C44.727 522.295 42.9149 521.887 41.8904 520.602ZM22.7599 532.681C21.6741 531.484 21.8419 529.865 23.1405 529.063C24.439 528.261 26.3861 528.594 27.4558 529.796C28.5302 531.014 28.3351 532.659 27.0479 533.44C25.7654 534.237 23.8456 533.878 22.7599 532.681ZM2.93686 544.127C1.78981 543.018 1.92175 541.514 3.27131 540.767C4.62087 540.02 6.65954 540.308 7.79527 541.438C8.93101 542.569 8.75561 544.103 7.4221 544.845C6.08385 545.571 4.08391 545.237 2.93686 544.127ZM-17.8215 554.768C-19.0346 553.73 -18.8742 552.322 -17.4576 551.625C-16.0409 550.928 -13.8966 551.22 -12.6948 552.279C-11.493 553.337 -11.6647 554.766 -13.07 555.442C-14.4801 556.102 -16.6084 555.805 -17.8215 554.768ZM-39.6296 564.392C-40.8974 563.405 -40.736 562.119 -39.2476 561.488C-37.7544 560.874 -35.509 561.153 -34.2525 562.161C-32.996 563.168 -33.2009 564.484 -34.678 565.094C-36.1551 565.705 -38.3618 565.379 -39.6296 564.392ZM-62.7368 572.865C-64.048 571.908 -63.8374 570.73 -62.2564 570.176C-60.7027 569.648 -58.31 569.954 -57.0149 570.915C-55.7197 571.876 -55.969 573.101 -57.5226 573.629C-59.1036 574.183 -61.4256 573.821 -62.7368 572.865ZM-90.6235 579.799C-91.8979 578.849 -91.3464 577.762 -89.3574 577.35C-87.3684 576.938 -84.715 577.359 -83.4246 578.304C-82.1342 579.249 -82.7036 580.394 -84.7086 580.811C-86.7137 581.227 -89.3444 580.765 -90.6235 579.799ZM-122.245 584.835C-123.439 583.862 -122.668 582.867 -120.504 582.577C-118.307 582.278 -115.551 582.808 -114.325 583.772C-113.115 584.741 -113.904 585.793 -116.121 586.081C-118.334 586.385 -121.051 585.808 -122.245 584.835ZM-156.442 588.293C-157.535 587.307 -156.555 586.373 -154.24 586.179C-151.909 585.979 -149.109 586.601 -147.984 587.578C-146.859 588.554 -147.862 589.53 -150.225 589.739C-152.572 589.942 -155.349 589.279 -156.442 588.293ZM-192.787 590.501C-193.763 589.498 -192.594 588.613 -190.134 588.498C-187.673 588.382 -184.818 589.075 -183.81 590.068C-182.802 591.062 -184.046 591.987 -186.523 592.107C-189.015 592.232 -191.811 591.504 -192.787 590.501ZM-230.758 591.811C-231.596 590.802 -230.211 589.94 -227.667 589.87C-225.108 589.795 -222.318 590.56 -221.448 591.559C-220.573 592.574 -221.954 593.452 -224.545 593.536C-227.109 593.595 -229.904 592.815 -230.758 591.811ZM-269.846 592.525C-270.551 591.495 -269.044 590.631 -266.418 590.607C-263.796 590.566 -261.029 591.372 -260.291 592.393C-259.554 593.414 -261.142 594.301 -263.796 594.351C-266.438 594.381 -269.125 593.551 -269.846 592.525ZM-309.63 593.009C-310.202 591.957 -308.493 591.069 -305.846 591.055C-303.203 591.026 -300.553 591.849 -299.944 592.908C-299.34 593.951 -301.029 594.85 -303.719 594.894C-306.404 594.9 -309.058 594.061 -309.63 593.009ZM-349.545 593.583C-349.972 592.488 -348.199 591.582 -345.545 591.531C-342.891 591.481 -340.321 592.328 -339.862 593.414C-339.402 594.499 -341.256 595.429 -343.93 595.468C-346.632 595.533 -349.117 594.678 -349.545 593.583ZM-389.21 594.59C-389.509 593.457 -387.6 592.476 -384.988 592.403C-382.376 592.33 -379.981 593.176 -379.654 594.283C-379.323 595.407 -381.231 596.388 -383.871 596.487C-386.531 596.574 -388.926 595.728 -389.21 594.59ZM-428.054 596.367C-428.23 595.18 -426.313 594.109 -423.768 593.986C-421.211 593.842 -418.938 594.689 -418.735 595.851C-418.548 597.016 -420.534 598.091 -423.106 598.239C-425.695 598.392 -427.883 597.537 -428.054 596.367ZM-465.667 599.245C-465.719 598.004 -463.766 596.818 -461.302 596.597C-458.838 596.376 -456.765 597.195 -456.697 598.431C-456.613 599.662 -458.582 600.853 -461.062 601.079C-463.542 601.304 -465.599 600.481 -465.667 599.245ZM-501.482 603.547C-501.452 602.23 -499.558 600.903 -497.228 600.582C-494.898 600.262 -493.004 601.064 -493.007 602.355C-493.026 603.652 -494.952 604.987 -497.314 605.317C-499.671 605.664 -501.512 604.864 -501.482 603.547ZM-535.114 609.629C-535.023 608.224 -533.202 606.71 -530.995 606.269C-528.824 605.82 -527.115 606.589 -527.195 607.974C-527.275 609.358 -529.138 610.849 -531.335 611.323C-533.549 611.801 -535.206 611.034 -535.114 609.629ZM-565.983 617.809C-565.851 616.305 -564.16 614.586 -562.186 614.003C-560.196 613.417 -558.676 614.137 -558.812 615.625C-558.933 617.108 -560.681 618.81 -562.662 619.429C-564.642 620.048 -566.115 619.314 -565.983 617.809ZM-593.697 628.461C-593.566 626.835 -592.032 624.882 -590.285 624.123C-588.49 623.349 -587.153 624.036 -587.294 625.63C-587.434 627.224 -588.989 629.165 -590.78 629.955C-592.517 630.747 -593.828 630.087 -593.697 628.461Z" fill="url(#paint0_linear_351_829)"/>
</g>
</g>
<defs>
<linearGradient id="paint0_linear_351_829" x1="1209.6" y1="169.557" x2="361.47" y2="971.365" gradientUnits="userSpaceOnUse">
<stop stop-color="#07EDD2"/>
<stop offset="1" stop-color="#9C63F7"/>
</linearGradient>
</defs>
</svg>
