<svg width="4198" height="311" viewBox="0 0 4198 311" fill="none" xmlns="http://www.w3.org/2000/svg">
<path d="M2122.73 247.231C2122.55 243.315 2119.89 240.236 2116.96 240.921C2114 241.605 2111.9 245.758 2112.07 249.607C2112.25 253.489 2114.61 255.646 2117.58 255.028C2120.51 254.411 2122.9 251.18 2122.73 247.231ZM2149.38 238.53C2149.24 234.497 2146.62 231.704 2143.66 232.806C2140.73 233.892 2138.59 238.463 2138.75 242.462C2138.91 246.496 2141.31 248.435 2144.23 247.382C2147.18 246.296 2149.54 242.58 2149.38 238.53ZM2175.99 226.433C2175.89 222.367 2173.31 219.858 2170.37 221.279C2167.42 222.716 2165.26 227.554 2165.39 231.62C2165.51 235.704 2167.84 237.458 2170.78 236.038C2173.68 234.617 2176.1 230.533 2175.99 226.433ZM2202.49 211.692C2202.45 207.66 2199.95 205.402 2197 207.09C2194.07 208.779 2191.85 213.801 2191.91 217.85C2191.98 221.933 2194.28 223.486 2197.19 221.781C2200.11 220.076 2202.53 215.758 2202.49 211.692ZM2228.94 194.96C2228.99 190.995 2226.52 189.005 2223.62 190.878C2220.68 192.75 2218.42 197.839 2218.41 201.837C2218.4 205.869 2220.63 207.255 2223.54 205.333C2226.41 203.41 2228.9 198.942 2228.94 194.96ZM2255.27 176.972C2255.4 173.125 2253.05 171.337 2250.11 173.326C2247.2 175.299 2244.85 180.353 2244.77 184.251C2244.68 188.182 2246.86 189.401 2249.74 187.377C2252.64 185.338 2255.15 180.836 2255.27 176.972ZM2281.54 158.398C2281.73 154.702 2279.45 153.132 2276.56 155.121C2273.63 157.144 2271.24 162.065 2271.07 165.811C2270.9 169.591 2273 170.725 2275.89 168.635C2278.74 166.595 2281.33 162.128 2281.54 158.398ZM2307.69 140.008C2307.96 136.479 2305.78 135.027 2302.87 136.999C2300 138.956 2297.51 143.692 2297.25 147.287C2297.01 150.899 2299.06 151.95 2301.92 149.926C2304.81 147.87 2307.41 143.553 2307.69 140.008ZM2333.76 122.42C2334.1 119.076 2331.95 117.724 2329.1 119.563C2326.21 121.435 2323.69 125.87 2323.38 129.281C2323.06 132.726 2325.04 133.775 2327.92 131.836C2330.76 129.93 2333.42 125.797 2333.76 122.42ZM2359.71 106.404C2360.08 103.244 2358.03 101.893 2355.16 103.564C2352.31 105.22 2349.74 109.336 2349.37 112.563C2349 115.823 2350.96 116.906 2353.8 115.184C2356.67 113.445 2359.34 109.597 2359.71 106.404ZM2385.58 92.629C2385.98 89.6367 2383.94 88.252 2381.1 89.6396C2378.26 91.0272 2375.68 94.742 2375.28 97.8179C2374.89 100.911 2376.82 102.111 2379.66 100.673C2382.5 99.2015 2385.19 95.6548 2385.58 92.629ZM2411.33 81.7981C2411.72 78.9396 2409.7 77.4212 2406.87 78.4742C2404.05 79.5274 2401.47 82.8072 2401.07 85.7158C2400.66 88.6578 2402.63 90.0588 2405.45 88.9723C2408.3 87.8692 2410.94 84.6901 2411.33 81.7981ZM2436.97 74.6307C2437.31 71.8723 2435.28 70.153 2432.46 70.7879C2429.63 71.4227 2427.12 74.2177 2426.77 77.0095C2426.42 79.818 2428.36 81.5368 2431.21 80.8519C2434.06 80.1838 2436.65 77.406 2436.97 74.6307ZM2462.52 71.8294C2462.76 69.1372 2460.66 67.0996 2457.88 67.2496C2455.09 67.3826 2452.63 69.6761 2452.36 72.3848C2452.08 75.1101 2454.11 77.2141 2456.95 77.0479C2459.76 76.8982 2462.29 74.5383 2462.52 71.8294ZM2487.9 74.0964C2487.99 71.42 2485.83 68.9638 2483.05 68.5282C2480.3 68.0926 2477.94 69.8681 2477.79 72.544C2477.64 75.2367 2479.8 77.8268 2482.61 78.2626C2485.45 78.6987 2487.82 76.7895 2487.9 74.0964ZM2513.09 81.9167C2513.08 79.4238 2510.81 76.6993 2508.06 75.5945C2505.29 74.4897 2503.09 75.5968 2503.09 78.2403C2503.09 80.9004 2505.28 83.9926 2508.05 84.9302C2510.79 85.8508 2513.07 84.4095 2513.09 81.9167ZM2538.67 92.45C2538.68 90.2918 2536.37 87.6841 2533.52 86.4114C2530.68 85.1389 2528.39 85.7602 2528.37 88.0355C2528.36 90.3275 2530.63 93.3031 2533.47 94.4585C2536.31 95.614 2538.64 94.6248 2538.67 92.45ZM2564.94 104.627C2564.97 102.703 2562.58 100.179 2559.68 98.7551C2556.74 97.3147 2554.4 97.6011 2554.38 99.6087C2554.35 101.633 2556.66 104.525 2559.6 105.882C2562.5 107.222 2564.93 106.568 2564.94 104.627ZM2591.81 118.096C2591.84 116.34 2589.45 113.849 2586.44 112.291C2583.48 110.749 2581.05 110.768 2581.02 112.591C2580.99 114.415 2583.37 117.324 2586.34 118.798C2589.32 120.306 2591.78 119.87 2591.81 118.096ZM2619.21 132.522C2619.24 130.833 2616.78 128.341 2613.76 126.733C2610.71 125.091 2608.26 124.975 2608.22 126.682C2608.19 128.405 2610.58 131.297 2613.64 132.906C2616.65 134.497 2619.18 134.229 2619.21 132.522ZM2647.02 147.57C2647.07 145.897 2644.59 143.406 2641.49 141.73C2638.42 140.071 2635.91 139.838 2635.87 141.511C2635.82 143.183 2638.3 146.127 2641.35 147.786C2644.45 149.478 2646.98 149.26 2647.02 147.57ZM2675.18 162.921C2675.23 161.215 2672.7 158.673 2669.6 156.997C2666.46 155.304 2663.96 155.105 2663.91 156.777C2663.87 158.467 2666.33 161.444 2669.46 163.153C2672.56 164.862 2675.16 164.644 2675.18 162.921ZM2703.58 178.207C2703.61 176.434 2701.1 173.875 2697.95 172.199C2694.83 170.54 2692.25 170.39 2692.23 172.129C2692.18 173.886 2694.7 176.913 2697.82 178.606C2700.97 180.315 2703.55 179.997 2703.58 178.207ZM2732.18 193.109C2732.21 191.219 2729.65 188.609 2726.51 187.017C2723.34 185.408 2720.78 185.392 2720.76 187.232C2720.73 189.089 2723.22 192.149 2726.39 193.809C2729.54 195.451 2732.15 195.016 2732.18 193.109ZM2760.82 207.292C2760.85 205.268 2758.32 202.659 2755.13 201.133C2752 199.641 2749.4 199.775 2749.38 201.733C2749.35 203.707 2751.89 206.834 2755.02 208.377C2758.21 209.952 2760.79 209.316 2760.82 207.292ZM2789.5 220.404C2789.53 218.246 2787 215.62 2783.83 214.229C2780.66 212.854 2778.1 213.206 2778.08 215.314C2778.05 217.438 2780.56 220.549 2783.73 221.991C2786.88 223.45 2789.47 222.596 2789.5 220.404ZM2818.03 232.127C2818.06 229.819 2815.54 227.226 2812.38 226.002C2809.24 224.794 2806.71 225.398 2806.68 227.656C2806.65 229.931 2809.16 233.025 2812.3 234.3C2815.45 235.558 2818.02 234.453 2818.03 232.127ZM2846.43 242.126C2846.44 239.683 2843.92 237.141 2840.81 236.118C2837.71 235.111 2835.16 235.965 2835.13 238.358C2835.11 240.767 2837.62 243.844 2840.74 244.901C2843.84 245.975 2846.41 244.585 2846.43 242.126ZM2874.54 250.048C2874.55 247.489 2872.07 245.047 2868.97 244.275C2865.89 243.503 2863.36 244.641 2863.34 247.167C2863.33 249.694 2865.82 252.687 2868.91 253.493C2872.02 254.316 2874.52 252.625 2874.54 250.048ZM2902.31 255.576C2902.32 252.933 2899.88 250.642 2896.82 250.138C2893.8 249.633 2891.29 251.073 2891.28 253.683C2891.26 256.31 2893.74 259.153 2896.76 259.691C2899.84 260.228 2902.31 258.236 2902.31 255.576ZM2929.65 258.34C2929.65 255.663 2927.22 253.59 2924.24 253.388C2921.23 253.185 2918.81 254.926 2918.79 257.587C2918.78 260.28 2921.18 262.905 2924.19 263.125C2927.21 263.344 2929.65 261.051 2929.65 258.34ZM2956.25 257.804C2956.25 255.094 2953.95 253.356 2951.06 253.556C2948.18 253.755 2945.81 255.815 2945.79 258.508C2945.79 261.219 2948.15 263.576 2951.03 263.393C2953.92 263.211 2956.25 260.531 2956.25 257.804ZM2981.54 253.312C2981.54 250.585 2979.34 249.165 2976.61 249.784C2973.86 250.403 2971.61 252.831 2971.59 255.541C2971.59 258.285 2973.82 260.307 2976.58 259.688C2979.31 259.086 2981.54 256.072 2981.54 253.312ZM3005.6 245.381C3005.6 242.654 3003.52 241.52 3000.88 242.491C2998.28 243.462 2996.13 246.192 2996.13 248.919C2996.12 251.663 2998.26 253.4 3000.85 252.412C3003.49 251.441 3005.58 248.125 3005.6 245.381ZM3028.64 234.517C3028.64 231.79 3026.62 230.907 3024.12 232.18C3021.6 233.469 3019.56 236.434 3019.56 239.161C3019.56 241.905 3021.57 243.39 3024.09 242.101C3026.59 240.811 3028.64 237.261 3028.64 234.517ZM3050.84 221.288C3050.84 218.578 3048.9 217.88 3046.47 219.404C3044.05 220.911 3042.07 224.094 3042.06 226.804C3042.06 229.548 3044.02 230.799 3046.44 229.274C3048.89 227.751 3050.84 224.032 3050.84 221.288ZM3072.43 206.249C3072.43 203.555 3070.53 203.024 3068.18 204.733C3065.81 206.441 3063.9 209.742 3063.9 212.436C3063.9 215.163 3065.78 216.262 3068.15 214.537C3070.5 212.845 3072.43 208.976 3072.43 206.249ZM3093.57 189.968C3093.57 187.308 3091.71 186.878 3089.37 188.704C3087.07 190.513 3085.18 193.914 3085.18 196.591C3085.18 199.285 3087.04 200.25 3089.35 198.424C3091.67 196.582 3093.55 192.662 3093.57 189.968ZM3114.45 172.95C3114.45 170.306 3112.58 169.96 3110.31 171.837C3108.01 173.729 3106.16 177.131 3106.14 179.791C3106.14 182.468 3107.98 183.366 3110.28 181.473C3112.55 179.58 3114.44 175.61 3114.45 172.95ZM3135.27 155.781C3135.29 153.171 3133.43 152.825 3131.11 154.717C3128.83 156.594 3126.96 159.995 3126.95 162.622C3126.95 165.265 3128.8 166.13 3131.09 164.254C3133.39 162.344 3135.26 158.407 3135.27 155.781ZM3156.24 138.981C3156.26 136.388 3154.35 136.024 3152.05 137.85C3149.73 139.676 3147.87 143.01 3147.85 145.604C3147.83 148.23 3149.69 149.129 3152.02 147.286C3154.31 145.46 3156.22 141.591 3156.24 138.981ZM3177.5 123.136C3177.52 120.576 3175.6 120.113 3173.23 121.821C3170.88 123.513 3168.97 126.747 3168.97 129.323C3168.95 131.916 3170.85 132.882 3173.2 131.173C3175.57 129.448 3177.5 125.713 3177.5 123.136ZM3199.33 108.75C3199.34 106.207 3197.34 105.626 3194.94 107.134C3192.5 108.658 3190.56 111.724 3190.56 114.267C3190.54 116.843 3192.48 117.943 3194.91 116.419C3197.31 114.895 3199.33 111.31 3199.33 108.75ZM3221.84 96.4103C3221.86 93.8674 3219.8 93.0849 3217.29 94.3741C3214.78 95.6467 3212.76 98.5117 3212.76 101.055C3212.74 103.614 3214.76 104.899 3217.26 103.609C3219.78 102.32 3221.82 98.97 3221.84 96.4103ZM3245.27 86.6358C3245.29 84.0929 3243.14 83.0755 3240.52 84.0463C3237.92 85.0171 3235.82 87.6473 3235.8 90.1736C3235.78 92.7333 3237.88 94.2521 3240.48 93.2646C3243.1 92.3106 3245.28 89.1956 3245.27 86.6358ZM3269.81 80.0135C3269.83 77.4705 3267.56 76.1346 3264.83 76.7533C3262.08 77.3719 3259.86 79.717 3259.86 82.26C3259.84 84.8197 3262.04 86.6404 3264.8 86.022C3267.53 85.3866 3269.81 82.5733 3269.81 80.0135ZM3295.61 77.0632C3295.63 74.4868 3293.26 72.7989 3290.35 72.9981C3287.45 73.1975 3285.15 75.2075 3285.13 77.7672C3285.12 80.3436 3287.41 82.5162 3290.31 82.3336C3293.24 82.1344 3295.61 79.6397 3295.61 77.0632ZM3323.25 76.7846C3323.25 74.2081 3320.63 72.4851 3317.52 72.5325C3314.38 72.5798 3311.92 74.3713 3311.91 76.9477C3311.91 79.541 3314.37 81.9489 3317.51 81.9017C3320.64 81.8543 3323.25 79.3778 3323.25 76.7846ZM3353.41 75.7186C3353.39 73.142 3350.61 71.4849 3347.17 71.6308C3343.78 71.7768 3341.07 73.6671 3341.07 76.2437C3341.07 78.8369 3343.8 81.1628 3347.2 81.0168C3350.63 80.871 3353.42 78.312 3353.41 75.7186ZM3385.84 73.8137C3385.82 71.237 3382.82 69.6623 3379.19 69.8905C3375.53 70.1185 3372.65 72.0915 3372.65 74.668C3372.67 77.2613 3375.57 79.5214 3379.22 79.2933C3382.86 79.0484 3385.86 76.4238 3385.84 73.8137ZM3420.12 71.2343C3420.12 68.6578 3416.99 67.1324 3413.14 67.4429C3409.32 67.7536 3406.23 69.7754 3406.25 72.352C3406.26 74.9454 3409.36 77.1398 3413.18 76.829C3417.03 76.5185 3420.14 73.8277 3420.12 71.2343ZM3455.96 68.0792C3455.96 65.5026 3452.69 64.0266 3448.71 64.3865C3444.69 64.7461 3441.5 66.8174 3441.52 69.3941C3441.52 71.9873 3444.72 74.1321 3448.73 73.7725C3452.7 73.4125 3455.96 70.6724 3455.96 68.0792ZM3492.91 64.5127C3492.93 61.9363 3489.61 60.4934 3485.49 60.9026C3481.4 61.312 3478.06 63.4159 3478.06 65.9924C3478.06 68.5856 3481.38 70.6977 3485.48 70.2884C3489.58 69.8624 3492.89 67.1058 3492.91 64.5127ZM3530.68 60.6334C3530.69 58.057 3527.31 56.6305 3523.14 57.0728C3518.94 57.5149 3515.56 59.6353 3515.54 62.2117C3515.53 64.8049 3518.88 66.8837 3523.08 66.4583C3527.25 66.016 3530.66 63.2266 3530.68 60.6334ZM3568.85 56.6062C3568.88 54.0298 3565.53 52.6202 3561.28 53.062C3557.07 53.5042 3553.61 55.6407 3553.58 58.2171C3553.55 60.8101 3556.97 62.8727 3561.17 62.4305C3565.4 61.9886 3568.82 59.1992 3568.85 56.6062ZM3607.12 52.5628C3607.17 49.9866 3603.8 48.5768 3599.6 49.019C3595.36 49.4609 3591.92 51.5976 3591.87 54.1738C3591.84 56.7668 3595.2 58.8291 3599.44 58.3872C3603.62 57.9282 3607.07 55.139 3607.12 52.5628ZM3645.06 48.6177C3645.12 46.0416 3641.84 44.6156 3637.65 45.0411C3633.5 45.4668 3630.02 47.5866 3629.97 50.1628C3629.92 52.7557 3633.31 54.8181 3637.44 54.3922C3641.63 53.9667 3644.99 51.2105 3645.06 48.6177ZM3682.36 44.9195C3682.42 42.3434 3679.2 40.9012 3675.14 41.294C3671.03 41.6866 3667.64 43.7901 3667.59 46.3663C3667.52 48.9592 3670.81 51.0543 3674.89 50.6449C3678.96 50.2354 3682.29 47.5124 3682.36 44.9195ZM3718.65 41.5999C3718.73 39.0407 3715.61 37.5321 3711.65 37.892C3707.71 38.2355 3704.37 40.3059 3704.29 42.8652C3704.22 45.458 3707.42 47.5693 3711.37 47.226C3715.34 46.8828 3718.57 44.1759 3718.65 41.5999ZM3753.52 38.79C3753.6 36.2308 3750.63 34.6729 3746.87 34.9672C3743.05 35.2612 3739.87 37.2657 3739.79 39.8417C3739.71 42.4345 3742.76 44.5951 3746.57 44.3178C3750.34 44.0235 3753.43 41.3828 3753.52 38.79ZM3786.64 36.6217C3786.72 34.0624 3783.97 32.439 3780.36 32.6674C3776.79 32.8793 3773.72 34.8343 3773.64 37.4103C3773.55 40.003 3776.48 42.2298 3780.05 42.0179C3783.68 41.7897 3786.56 39.2144 3786.64 36.6217ZM3817.69 35.2434C3817.77 32.6841 3815.19 30.9949 3811.86 31.1079C3808.52 31.2376 3805.65 33.1102 3805.59 35.6863C3805.5 38.279 3808.25 40.5716 3811.58 40.4586C3814.91 40.3456 3817.6 37.8361 3817.69 35.2434ZM3846.25 34.7865C3846.31 32.2104 3843.97 30.439 3840.92 30.4701C3837.84 30.4843 3835.22 32.2915 3835.14 34.8675C3835.07 37.4604 3837.6 39.8352 3840.68 39.8211C3843.74 39.79 3846.18 37.3793 3846.25 34.7865ZM3872.72 36.9934C3872.82 34.4342 3870.62 32.2455 3867.73 31.8259C3864.86 31.4231 3862.39 32.9469 3862.3 35.5061C3862.22 38.0821 3864.55 40.7401 3867.41 41.1428C3870.28 41.5624 3872.62 39.5693 3872.72 36.9934ZM3898.02 43.9948C3898.15 41.4191 3896.06 38.8127 3893.32 37.9088C3890.55 36.988 3888.19 38.1109 3888.07 40.6699C3887.95 43.2457 3890.11 46.321 3892.86 47.2417C3895.59 48.1622 3897.89 46.5872 3898.02 43.9948ZM3922.28 55.1387C3922.46 52.5466 3920.49 49.5896 3917.84 48.2346C3915.2 46.8964 3912.87 47.6514 3912.71 50.2436C3912.54 52.8525 3914.59 56.3119 3917.23 57.6501C3919.86 59.0051 3922.09 57.7475 3922.28 55.1387ZM3945.69 69.7239C3945.91 67.0986 3944.01 63.8074 3941.46 62.1184C3938.89 60.4125 3936.63 60.917 3936.43 63.5258C3936.23 66.168 3938.15 69.9276 3940.71 71.6669C3943.26 73.3727 3945.49 72.3828 3945.69 69.7239ZM3968.4 87.082C3968.64 84.4066 3966.85 80.882 3964.36 78.8921C3961.88 76.9191 3959.65 77.2063 3959.42 79.865C3959.18 82.5404 3961.03 86.6176 3963.49 88.6072C3965.99 90.6138 3968.17 89.7742 3968.4 87.082ZM3990.62 106.545C3990.89 103.82 3989.12 100.078 3986.69 97.9042C3984.25 95.6971 3982.07 95.8676 3981.82 98.5764C3981.57 101.302 3983.31 105.579 3985.74 107.786C3988.15 109.993 3990.35 109.304 3990.62 106.545ZM4012.44 127.411C4012.72 124.636 4011.01 120.777 4008.6 118.436C4006.2 116.129 4004.03 116.199 4003.76 118.958C4003.47 121.733 4005.2 126.178 4007.58 128.518C4009.99 130.876 4012.15 130.203 4012.44 127.411ZM4034.1 149.029C4034.39 146.203 4032.67 142.244 4030.31 139.87C4027.92 137.479 4025.78 137.55 4025.49 140.359C4025.21 143.184 4026.87 147.712 4029.24 150.119C4031.61 152.51 4033.8 151.871 4034.1 149.029ZM4055.7 170.663C4055.99 167.787 4054.29 163.845 4051.89 161.471C4049.52 159.114 4047.37 159.201 4047.07 162.06C4046.77 164.935 4048.45 169.513 4050.82 171.887C4053.22 174.278 4055.4 173.556 4055.7 170.663ZM4077.47 191.713C4077.76 188.82 4075.99 184.894 4073.59 182.637C4071.18 180.347 4069.06 180.551 4068.75 183.443C4068.47 186.353 4070.13 190.88 4072.54 193.171C4074.95 195.445 4077.18 194.639 4077.47 191.713ZM4099.51 211.426C4099.78 208.516 4097.97 204.74 4095.52 202.617C4093.09 200.511 4090.93 200.832 4090.66 203.758C4090.39 206.701 4092.1 211.112 4094.55 213.235C4097.01 215.358 4099.24 214.369 4099.51 211.426ZM4122.06 229.184C4122.28 226.275 4120.37 222.699 4117.89 220.826C4115.39 218.937 4113.25 219.476 4113 222.385C4112.76 225.328 4114.53 229.555 4117.04 231.428C4119.54 233.301 4121.82 232.111 4122.06 229.184ZM4145.22 244.253C4145.39 241.36 4143.4 238.085 4140.82 236.513C4138.27 234.958 4136.09 235.697 4135.88 238.607C4135.68 241.533 4137.56 245.51 4140.13 247.049C4142.73 248.604 4145.03 247.163 4145.22 244.253ZM4169.19 255.981C4169.3 253.137 4167.13 250.229 4164.49 249.042C4161.86 247.871 4159.66 248.878 4159.51 251.738C4159.37 254.614 4161.36 258.241 4164.03 259.395C4166.71 260.566 4169.08 258.841 4169.19 255.981ZM4194.12 263.682C4194.15 260.922 4191.84 258.465 4189.07 257.745C4186.31 257.025 4184.1 258.35 4184.04 261.143C4183.98 263.954 4186.11 267.146 4188.9 267.833C4191.71 268.519 4194.08 266.46 4194.12 263.682Z" fill="url(#paint0_linear_357_1300)"/>
<path d="M2073.56 252.396C2073.72 248.48 2076.37 245.393 2079.3 246.068C2082.27 246.743 2084.39 250.889 2084.22 254.739C2084.06 258.622 2081.7 260.786 2078.73 260.178C2075.8 259.57 2073.39 256.347 2073.56 252.396ZM2046.87 243.781C2047 239.747 2049.62 236.945 2052.58 238.039C2055.51 239.115 2057.66 243.679 2057.52 247.679C2057.37 251.713 2054.98 253.659 2052.06 252.616C2049.11 251.54 2046.73 247.831 2046.87 243.781ZM2020.23 231.769C2020.32 227.702 2022.89 225.185 2025.83 226.596C2028.79 228.024 2030.96 232.855 2030.85 236.922C2030.74 241.005 2028.41 242.767 2025.47 241.356C2022.56 239.945 2020.13 235.869 2020.23 231.769ZM1993.69 217.112C1993.71 213.079 1996.2 210.814 1999.16 212.492C2002.09 214.171 2004.33 219.186 2004.28 223.236C2004.22 227.319 2001.93 228.879 1999.02 227.184C1996.09 225.488 1993.66 221.178 1993.69 217.112ZM1967.18 200.464C1967.12 196.499 1969.58 194.501 1972.49 196.364C1975.44 198.227 1977.71 203.309 1977.73 207.307C1977.75 211.339 1975.52 212.732 1972.61 210.819C1969.73 208.905 1967.23 204.445 1967.18 200.464ZM1940.79 182.559C1940.65 178.712 1943 176.917 1945.94 178.897C1948.85 180.86 1951.23 185.907 1951.32 189.805C1951.42 193.736 1949.24 194.961 1946.36 192.947C1943.45 190.917 1940.93 186.423 1940.79 182.559ZM1914.46 164.069C1914.26 160.373 1916.54 158.796 1919.44 160.776C1922.37 162.79 1924.77 167.703 1924.96 171.449C1925.14 175.228 1923.05 176.369 1920.15 174.288C1917.29 172.257 1914.68 167.798 1914.46 164.069ZM1888.26 145.762C1887.97 142.234 1890.15 140.775 1893.06 142.738C1895.94 144.685 1898.45 149.413 1898.72 153.008C1898.97 156.619 1896.92 157.676 1894.06 155.662C1891.16 153.615 1888.54 149.306 1888.26 145.762ZM1862.13 128.257C1861.78 124.914 1863.92 123.555 1866.78 125.385C1869.68 127.248 1872.21 131.675 1872.53 135.085C1872.86 138.529 1870.88 139.585 1868 137.654C1865.16 135.757 1862.48 131.633 1862.13 128.257ZM1836.13 112.323C1835.75 109.165 1837.79 107.807 1840.67 109.469C1843.53 111.115 1846.11 115.224 1846.49 118.449C1846.87 121.708 1844.91 122.798 1842.06 121.084C1839.19 119.355 1836.51 115.515 1836.13 112.323ZM1810.21 98.6307C1809.8 95.6397 1811.85 94.2485 1814.69 95.6271C1817.53 97.0057 1820.12 100.712 1820.54 103.787C1820.93 106.878 1819 108.084 1816.16 106.656C1813.32 105.193 1810.61 101.655 1810.21 98.6307ZM1784.43 87.8817C1784.04 85.0244 1786.05 83.4997 1788.88 84.5437C1791.7 85.5878 1794.29 88.8594 1794.71 91.7667C1795.12 94.7075 1793.16 96.1147 1790.34 95.0371C1787.48 93.9431 1784.83 90.7725 1784.43 87.8817ZM1758.77 80.7958C1758.42 78.0385 1760.45 76.3128 1763.26 76.9387C1766.1 77.5645 1768.62 80.3515 1768.98 83.1422C1769.34 85.9496 1767.4 87.6745 1764.55 86.9987C1761.7 86.3396 1759.09 83.5701 1758.77 80.7958ZM1733.21 78.0757C1732.97 75.3842 1735.05 73.3401 1737.83 73.4811C1740.63 73.6053 1743.09 75.891 1743.37 78.5988C1743.66 81.3232 1741.64 83.4337 1738.8 83.2765C1735.98 83.1357 1733.45 80.7838 1733.21 78.0757ZM1707.83 80.4233C1707.74 77.7472 1709.89 75.2842 1712.67 74.8397C1715.42 74.3954 1717.78 76.1634 1717.94 78.8388C1718.1 81.531 1715.95 84.128 1713.14 84.5727C1710.3 85.0178 1707.92 83.1162 1707.83 80.4233ZM1682.68 88.3236C1682.67 85.8307 1684.94 83.099 1687.69 81.9855C1690.45 80.8718 1692.66 81.972 1692.66 84.6154C1692.67 87.2756 1690.49 90.3747 1687.72 91.321C1684.99 92.2503 1682.7 90.8163 1682.68 88.3236ZM1657.13 98.9381C1657.11 96.78 1659.41 94.1649 1662.26 92.8832C1665.09 91.6016 1667.39 92.2157 1667.41 94.4909C1667.43 96.7829 1665.17 99.7657 1662.33 100.93C1659.5 102.095 1657.17 101.113 1657.13 98.9381ZM1630.89 111.199C1630.86 109.275 1633.24 106.743 1636.14 105.31C1639.07 103.86 1641.42 104.139 1641.44 106.147C1641.47 108.171 1639.17 111.07 1636.24 112.437C1633.34 113.786 1630.91 113.139 1630.89 111.199ZM1604.07 124.753C1604.03 122.997 1606.42 120.498 1609.42 118.93C1612.38 117.38 1614.81 117.39 1614.84 119.214C1614.87 121.037 1612.51 123.954 1609.54 125.438C1606.56 126.955 1604.1 126.526 1604.07 124.753ZM1576.71 139.266C1576.68 137.577 1579.13 135.077 1582.15 133.459C1585.19 131.808 1587.63 131.684 1587.68 133.39C1587.72 135.113 1585.34 138.014 1582.29 139.632C1579.28 141.233 1576.75 140.972 1576.71 139.266ZM1548.95 154.402C1548.9 152.73 1551.37 150.23 1554.47 148.545C1557.53 146.876 1560.04 146.635 1560.09 148.307C1560.13 149.98 1557.67 152.931 1554.62 154.6C1551.53 156.302 1549 156.092 1548.95 154.402ZM1520.84 169.843C1520.79 168.137 1523.31 165.586 1526.4 163.901C1529.53 162.198 1532.04 161.991 1532.09 163.663C1532.14 165.353 1529.69 168.337 1526.56 170.056C1523.46 171.775 1520.87 171.566 1520.84 169.843ZM1492.49 185.219C1492.46 183.445 1494.96 180.879 1498.1 179.193C1501.22 177.524 1503.79 177.365 1503.82 179.105C1503.87 180.861 1501.36 183.897 1498.25 185.599C1495.1 187.319 1492.52 187.008 1492.49 185.219ZM1463.94 200.211C1463.9 198.321 1466.45 195.704 1469.58 194.101C1472.75 192.482 1475.31 192.458 1475.34 194.298C1475.38 196.155 1472.89 199.223 1469.73 200.893C1466.59 202.546 1463.97 202.118 1463.94 200.211ZM1435.34 214.485C1435.31 212.461 1437.83 209.844 1441.01 208.308C1444.14 206.806 1446.73 206.932 1446.77 208.89C1446.8 210.864 1444.27 213.999 1441.14 215.552C1437.96 217.138 1435.38 216.509 1435.34 214.485ZM1406.71 227.689C1406.67 225.531 1409.19 222.897 1412.35 221.495C1415.52 220.11 1418.08 220.454 1418.1 222.562C1418.14 224.686 1415.64 227.805 1412.48 229.257C1409.33 230.726 1406.75 229.88 1406.71 227.689ZM1378.21 239.502C1378.17 237.194 1380.69 234.593 1383.84 233.359C1386.97 232.141 1389.51 232.737 1389.54 234.995C1389.58 237.27 1387.08 240.372 1383.95 241.657C1380.8 242.924 1378.23 241.828 1378.21 239.502ZM1349.84 249.591C1349.82 247.149 1352.34 244.598 1355.44 243.565C1358.55 242.549 1361.1 243.395 1361.14 245.787C1361.16 248.196 1358.66 251.281 1355.54 252.348C1352.44 253.432 1349.87 252.05 1349.84 249.591ZM1321.76 257.603C1321.74 255.043 1324.21 252.594 1327.31 251.812C1330.38 251.03 1332.92 252.16 1332.94 254.686C1332.97 257.212 1330.49 260.214 1327.4 261.03C1324.3 261.862 1321.79 260.179 1321.76 257.603ZM1294.01 263.219C1293.98 260.575 1296.42 258.277 1299.48 257.763C1302.5 257.249 1305.01 258.681 1305.03 261.291C1305.06 263.918 1302.59 266.768 1299.57 267.316C1296.49 267.863 1294.02 265.879 1294.01 263.219ZM1266.68 266.07C1266.67 263.393 1269.09 261.312 1272.07 261.1C1275.08 260.888 1277.51 262.622 1277.53 265.282C1277.56 267.975 1275.15 270.608 1272.15 270.837C1269.14 271.066 1266.69 268.78 1266.68 266.07ZM1240.07 265.618C1240.06 262.908 1242.36 261.163 1245.25 261.353C1248.13 261.544 1250.51 263.596 1250.54 266.289C1250.54 269 1248.19 271.364 1245.31 271.191C1242.42 271.017 1240.08 268.346 1240.07 265.618ZM1214.77 261.206C1214.76 258.479 1216.95 257.053 1219.69 257.663C1222.44 258.273 1224.7 260.694 1224.73 263.404C1224.74 266.148 1222.51 268.177 1219.75 267.567C1217.01 266.974 1214.78 263.967 1214.77 261.206ZM1190.68 253.352C1190.67 250.625 1192.76 249.485 1195.39 250.447C1197.99 251.409 1200.16 254.133 1200.17 256.86C1200.18 259.604 1198.05 261.347 1195.45 260.368C1192.82 259.406 1190.71 256.096 1190.68 253.352ZM1167.61 242.561C1167.6 239.834 1169.62 238.945 1172.12 240.21C1174.64 241.491 1176.7 244.45 1176.71 247.177C1176.71 249.92 1174.7 251.412 1172.18 250.131C1169.68 248.849 1167.62 245.305 1167.61 242.561ZM1145.37 229.403C1145.36 226.693 1147.29 225.988 1149.73 227.505C1152.16 229.004 1154.14 232.181 1154.17 234.891C1154.18 237.635 1152.22 238.892 1149.79 237.375C1147.34 235.859 1145.38 232.147 1145.37 229.403ZM1123.73 214.432C1123.72 211.738 1125.62 211.202 1127.98 212.903C1130.35 214.604 1132.28 217.898 1132.28 220.592C1132.29 223.319 1130.41 224.424 1128.04 222.707C1125.68 221.022 1123.74 217.159 1123.73 214.432ZM1102.54 198.219C1102.53 195.559 1104.39 195.123 1106.73 196.941C1109.04 198.743 1110.95 202.138 1110.95 204.815C1110.96 207.509 1109.1 208.48 1106.79 206.661C1104.46 204.826 1102.57 200.912 1102.54 198.219ZM1081.6 181.267C1081.59 178.624 1083.46 178.271 1085.74 180.141C1088.05 182.026 1089.91 185.422 1089.93 188.082C1089.94 190.759 1088.11 191.663 1085.8 189.777C1083.52 187.891 1081.63 183.927 1081.6 181.267ZM1060.73 164.164C1060.7 161.554 1062.56 161.202 1064.88 163.088C1067.18 164.957 1069.05 168.352 1069.07 170.979C1069.08 173.622 1067.23 174.493 1064.94 172.624C1062.63 170.722 1060.75 166.791 1060.73 164.164ZM1039.71 147.431C1039.68 144.838 1041.59 144.468 1043.9 146.287C1046.22 148.105 1048.09 151.434 1048.12 154.027C1048.14 156.654 1046.29 157.558 1043.95 155.723C1041.66 153.904 1039.73 150.041 1039.71 147.431ZM1018.39 131.654C1018.37 129.094 1020.29 128.624 1022.66 130.325C1025.02 132.009 1026.94 135.237 1026.95 137.814C1026.97 140.407 1025.08 141.378 1022.72 139.677C1020.34 137.96 1018.4 134.23 1018.39 131.654ZM996.524 117.338C996.5 114.795 998.502 114.207 1000.91 115.707C1003.35 117.223 1005.3 120.283 1005.31 122.826C1005.33 125.403 1003.4 126.508 1000.96 124.992C998.556 123.475 996.531 119.897 996.524 117.338ZM973.972 105.069C973.948 102.526 975.998 101.737 978.52 103.018C981.025 104.283 983.059 107.142 983.067 109.685C983.091 112.244 981.078 113.535 978.573 112.254C976.052 110.972 973.996 107.629 973.972 105.069ZM950.507 95.3691C950.483 92.8262 952.631 91.802 955.25 92.7645C957.853 93.727 959.969 96.3506 959.993 98.8767C960.017 101.436 957.923 102.962 955.321 101.983C952.702 101.037 950.514 97.9289 950.507 95.3691ZM925.951 88.8248C925.927 86.2819 928.189 84.9388 930.922 85.5488C933.672 86.1586 935.902 88.4966 935.91 91.0397C935.934 93.5993 933.743 95.427 930.976 94.8173C928.243 94.1906 925.958 91.3846 925.951 88.8248ZM900.141 85.9565C900.116 83.3801 902.476 81.6847 905.389 81.8747C908.286 82.0649 910.597 84.0675 910.621 86.6271C910.645 89.2035 908.357 91.3834 905.461 91.21C902.531 91.0201 900.148 88.533 900.141 85.9565ZM872.499 85.7657C872.492 83.1892 875.102 81.4579 878.214 81.4955C881.36 81.5327 883.82 83.3164 883.844 85.8928C883.852 88.486 881.398 90.9017 878.253 90.8645C875.124 90.8271 872.507 88.3589 872.499 85.7657ZM842.341 84.7955C842.35 82.2189 845.128 80.553 848.559 80.6879C851.957 80.8231 854.668 82.7049 854.676 85.2814C854.684 87.8746 851.962 90.2092 848.564 90.074C845.133 89.939 842.332 87.3889 842.341 84.7955ZM809.899 82.9936C809.908 80.417 812.905 78.8327 816.537 79.0494C820.203 79.2657 823.083 81.2295 823.091 83.8061C823.082 86.3995 820.192 88.6687 816.542 88.4522C812.893 88.2189 809.89 85.6038 809.899 82.9936ZM775.61 80.5232C775.603 77.9467 778.733 76.4114 782.584 76.7096C786.402 77.0082 789.499 79.0201 789.49 81.5968C789.481 84.1902 786.39 86.3944 782.573 86.0959C778.722 85.7976 775.601 83.1166 775.61 80.5232ZM739.76 77.482C739.753 74.9054 743.018 73.419 747.003 73.7662C751.022 74.1131 754.22 76.1743 754.211 78.751C754.219 81.3442 751.027 83.4992 747.008 83.1523C743.039 82.8049 739.768 80.0752 739.76 77.482ZM702.802 74.0329C702.778 71.4565 706.093 70.0031 710.213 70.3992C714.299 70.7956 717.648 72.8889 717.656 75.4654C717.664 78.0587 714.354 80.1812 710.252 79.785C706.148 79.372 702.827 76.626 702.802 74.0329ZM665.021 70.2737C664.997 67.6973 668.38 66.26 672.55 66.6891C676.753 67.1179 680.136 69.2275 680.161 71.8039C680.185 74.3969 676.842 76.4864 672.638 76.0744C668.468 75.6453 665.046 72.8668 665.021 70.2737ZM626.837 66.3677C626.796 63.7915 630.146 62.3712 634.4 62.7995C638.603 63.2283 642.07 65.3539 642.111 67.9301C642.152 70.523 638.742 72.5964 634.538 72.1676C630.301 71.7392 626.879 68.9606 626.837 66.3677ZM588.553 62.4459C588.495 59.8699 591.862 58.4494 596.065 58.8782C600.302 59.3067 603.752 61.4324 603.81 64.0085C603.851 66.6014 600.491 68.6744 596.254 68.2459C592.067 67.8002 588.611 65.022 588.553 62.4459ZM550.604 58.6214C550.53 56.0455 553.812 54.6091 557.999 55.0213C562.152 55.4338 565.635 57.5425 565.693 60.1186C565.751 62.7114 562.374 64.7844 558.238 64.3717C554.051 63.9595 550.679 61.214 550.604 58.6214ZM513.294 55.0418C513.219 52.4659 516.435 51.0134 520.504 51.3933C524.606 51.7728 528.006 53.8656 528.064 56.4416C528.138 59.0343 524.862 61.1398 520.776 60.7434C516.707 60.3468 513.368 57.6344 513.294 55.0418ZM476.99 51.8375C476.899 49.2785 480.014 47.76 483.982 48.1074C487.917 48.4383 491.266 50.4981 491.357 53.0571C491.432 55.6497 488.24 57.7712 484.288 57.4404C480.32 57.1098 477.082 54.4132 476.99 51.8375ZM442.114 49.1384C442.023 46.5794 444.986 45.0122 448.753 45.2945C452.571 45.5763 455.752 47.5708 455.843 50.1465C455.934 52.739 452.893 54.9092 449.076 54.6441C445.309 54.3618 442.205 51.7309 442.114 49.1384ZM408.984 47.0753C408.893 44.5163 411.638 42.8842 415.254 43.1011C418.819 43.3016 421.9 45.2469 421.991 47.8226C422.082 50.415 419.159 52.6511 415.593 52.4505C411.96 52.2339 409.075 49.6678 408.984 47.0753ZM377.935 45.7957C377.844 43.2367 380.422 41.5393 383.752 41.6417C387.083 41.7608 389.961 43.6242 390.036 46.2001C390.127 48.7926 387.388 51.0939 384.058 50.9915C380.727 50.8891 378.027 48.3881 377.935 45.7957ZM349.372 45.4295C349.298 42.8536 351.64 41.0748 354.685 41.0962C357.764 41.1006 360.391 42.8995 360.482 45.4753C360.557 48.0679 358.036 50.4508 354.957 50.4464C351.895 50.4251 349.447 48.0221 349.372 45.4295ZM322.908 47.7205C322.801 45.1617 324.988 42.966 327.879 42.5372C330.753 42.1253 333.226 43.6412 333.317 46.2002C333.409 48.7759 331.092 51.4412 328.234 51.853C325.361 52.2817 323.016 50.2961 322.908 47.7205ZM297.628 54.8022C297.486 52.227 299.57 49.614 302.305 48.7014C305.073 47.7718 307.443 48.8871 307.568 51.4458C307.692 54.0212 305.546 57.1033 302.795 58.0328C300.076 58.9619 297.769 57.3942 297.628 54.8022ZM273.406 66.0232C273.215 63.4317 275.178 60.4685 277.825 59.105C280.456 57.7584 282.789 58.506 282.964 61.0977C283.139 63.7061 281.097 67.172 278.466 68.5186C275.835 69.8819 273.598 68.6314 273.406 66.0232ZM250.038 80.6827C249.812 78.0581 251.705 74.7609 254.249 73.0638C256.809 71.3498 259.073 71.8471 259.281 74.4552C259.49 77.0967 257.585 80.8624 255.025 82.6099C252.481 84.3238 250.247 83.341 250.038 80.6827ZM227.381 98.1129C227.138 95.4382 228.912 91.908 231.403 89.9102C233.877 87.9293 236.105 88.2094 236.347 90.8674C236.59 93.5421 234.755 97.625 232.297 99.6225C229.807 101.637 227.624 100.804 227.381 98.1129ZM205.229 117.646C204.953 114.922 206.708 111.174 209.13 108.993C211.568 106.778 213.745 106.942 214.005 109.65C214.265 112.375 212.532 116.657 210.11 118.872C207.705 121.086 205.506 120.404 205.229 117.646ZM183.476 138.582C183.182 135.807 184.885 131.943 187.289 129.594C189.677 127.28 191.852 127.343 192.129 130.101C192.423 132.875 190.709 137.325 188.338 139.673C185.934 142.038 183.77 141.373 183.476 138.582ZM161.88 160.268C161.586 157.443 163.288 153.479 165.641 151.098C168.028 148.699 170.17 148.763 170.465 151.571C170.759 154.395 169.112 158.928 166.742 161.343C164.389 163.741 162.191 163.11 161.88 160.268ZM140.351 181.971C140.056 179.096 141.742 175.148 144.129 172.767C146.499 170.402 148.642 170.482 148.953 173.34C149.265 176.215 147.601 180.798 145.231 183.18C142.845 185.578 140.663 184.862 140.351 181.971ZM118.649 203.09C118.354 200.198 120.108 196.266 122.495 194.002C124.9 191.704 127.026 191.901 127.338 194.793C127.633 197.701 125.986 202.234 123.582 204.532C121.178 206.814 118.945 206.015 118.649 203.09ZM96.6675 222.873C96.3891 219.964 98.1938 216.182 100.633 214.051C103.056 211.937 105.217 212.251 105.496 215.177C105.775 218.119 104.076 222.535 101.637 224.666C99.1807 226.797 96.9462 225.815 96.6675 222.873ZM74.1819 240.703C73.9537 237.794 75.8439 234.212 78.3191 232.332C80.8108 230.434 82.9574 230.966 83.2191 233.875C83.4644 236.817 81.7142 241.05 79.2055 242.931C76.7136 244.811 74.427 243.628 74.1819 240.703ZM51.0686 255.845C50.8907 252.952 52.8675 249.671 55.4459 248.091C57.991 246.527 60.1729 247.26 60.3844 250.169C60.5961 253.095 58.7263 257.078 56.1644 258.624C53.5691 260.188 51.2634 258.754 51.0686 255.845ZM27.1374 267.649C27.0102 264.806 29.1745 261.891 31.8067 260.695C34.4391 259.515 36.6403 260.515 36.8011 263.375C36.9454 266.251 34.972 269.884 32.306 271.047C29.6234 272.226 27.2481 270.509 27.1374 267.649ZM2.23136 275.43C2.18857 272.669 4.49093 270.205 7.26141 269.476C10.0152 268.747 12.2361 270.065 12.2959 272.858C12.3727 275.669 10.2445 278.868 7.45702 279.563C4.65276 280.259 2.2743 278.207 2.23136 275.43Z" fill="url(#paint1_linear_357_1300)"/>
<defs>
<linearGradient id="paint0_linear_357_1300" x1="2388.57" y1="163.952" x2="3537.56" y2="548.942" gradientUnits="userSpaceOnUse">
<stop stop-color="#07EDD2"/>
<stop offset="1" stop-color="#9C63F7"/>
</linearGradient>
<linearGradient id="paint1_linear_357_1300" x1="1812.5" y1="168.675" x2="664.741" y2="557.314" gradientUnits="userSpaceOnUse">
<stop stop-color="#07EDD2"/>
<stop offset="1" stop-color="#9C63F7"/>
</linearGradient>
</defs>
</svg>
