<svg width="1280" height="951" viewBox="0 0 1280 951" fill="none" xmlns="http://www.w3.org/2000/svg">
<g opacity="0.8065">
<g opacity="0.8065">
<path opacity="0.8065" d="M1480.26 16.3107C1479.49 13.4514 1481.13 10.9785 1483.71 10.1315C1486.28 9.28448 1488.87 10.3701 1489.63 13.1652C1490.39 15.9763 1488.92 19.3924 1486.36 20.2875C1483.77 21.1714 1481.04 19.1699 1480.26 16.3107ZM1451.49 26.507C1450.68 23.5194 1452.5 20.9575 1455.21 19.9669C1457.91 18.997 1460.5 19.977 1461.3 22.9325C1462.1 25.888 1460.61 29.4514 1457.91 30.4581C1455.2 31.4647 1452.3 29.4946 1451.49 26.507ZM1421.67 37.9531C1420.81 34.9108 1422.77 32.2742 1425.55 31.1749C1428.33 30.0757 1430.94 30.9452 1431.79 33.9762C1432.63 37.0072 1431.06 40.6953 1428.28 41.7945C1425.5 42.8938 1422.54 40.9954 1421.67 37.9531ZM1391.14 50.6395C1390.22 47.5953 1392.35 44.8746 1395.2 43.6667C1398.05 42.4428 1400.56 43.2028 1401.46 46.2517C1402.36 49.3006 1400.81 53.0369 1397.96 54.2447C1395.12 55.4318 1392.05 53.6676 1391.14 50.6395ZM1360.29 64.5007C1359.34 61.5028 1361.55 58.7376 1364.41 57.4079C1367.26 56.0782 1369.73 56.6938 1370.67 59.7125C1371.61 62.7311 1370.06 66.5042 1367.19 67.8018C1364.34 69.1154 1361.26 67.4938 1360.29 64.5007ZM1329.48 79.5542C1328.48 76.6395 1330.82 73.8043 1333.66 72.3736C1336.51 70.9221 1338.8 71.4312 1339.8 74.3828C1340.79 77.3344 1339.29 81.0724 1336.45 82.4871C1333.61 83.8809 1330.49 82.4642 1329.48 79.5542ZM1299.13 95.7253C1298.1 92.9258 1300.46 90.049 1303.25 88.4947C1306.03 86.9404 1308.24 87.3192 1309.27 90.1555C1310.29 92.9919 1308.83 96.7206 1306.03 98.2428C1303.23 99.749 1300.17 98.5249 1299.13 95.7253ZM1269.55 113.034C1268.47 110.35 1270.86 107.432 1273.59 105.754C1276.3 104.101 1278.31 104.378 1279.36 107.104C1280.43 109.825 1279.06 113.489 1276.35 115.109C1273.63 116.714 1270.62 115.719 1269.55 113.034ZM1241.17 131.397C1240.09 128.839 1242.43 125.846 1245.02 124.105C1247.61 122.347 1249.47 122.513 1250.54 125.129C1251.62 127.723 1250.36 131.321 1247.77 133.046C1245.18 134.751 1242.24 133.96 1241.17 131.397ZM1214.33 150.862C1213.26 148.421 1215.48 145.359 1217.92 143.507C1220.37 141.65 1222.08 141.72 1223.16 144.193C1224.24 146.666 1223.11 150.21 1220.64 152.035C1218.2 153.872 1215.4 153.302 1214.33 150.862ZM1189.41 171.346C1188.36 169.007 1190.43 165.85 1192.68 163.911C1194.92 161.978 1196.49 161.985 1197.56 164.357C1198.62 166.729 1197.61 170.219 1195.36 172.121C1193.12 174.022 1190.49 173.681 1189.41 171.346ZM1166.85 192.829C1165.83 190.581 1167.63 187.313 1169.65 185.288C1171.69 183.236 1173.13 183.213 1174.15 185.493C1175.19 187.768 1174.33 191.232 1172.27 193.251C1170.25 195.261 1167.86 195.077 1166.85 192.829ZM1146.92 215.293C1145.98 213.079 1147.45 209.679 1149.22 207.57C1150.98 205.461 1152.31 205.418 1153.3 207.639C1154.29 209.86 1153.56 213.318 1151.79 215.41C1150.02 217.519 1147.87 217.507 1146.92 215.293ZM1130.07 238.701C1129.21 236.479 1130.24 232.947 1131.7 230.754C1133.17 228.56 1134.46 228.51 1135.36 230.723C1136.26 232.935 1135.68 236.436 1134.2 238.634C1132.74 240.843 1130.95 240.918 1130.07 238.701ZM1116.65 263.05C1115.9 260.779 1116.43 257.028 1117.57 254.755C1118.72 252.497 1119.96 252.514 1120.77 254.755C1121.57 256.996 1121.17 260.55 1120.01 262.844C1118.85 265.159 1117.4 265.341 1116.65 263.05ZM1103.59 294.917C1102.95 292.751 1103.58 287.68 1105.04 284.11C1106.51 280.536 1108.23 279.611 1108.9 281.89C1109.57 284.168 1108.87 288.823 1107.4 292.361C1105.91 295.888 1104.24 297.079 1103.59 294.917ZM1086.64 331.207C1086.07 329.318 1086.74 324.011 1088.36 320.775C1089.99 317.539 1091.94 317.454 1092.52 319.427C1093.12 321.396 1092.25 325.49 1090.62 328.71C1088.98 331.914 1087.22 333.096 1086.64 331.207ZM1068.14 363.912C1067.62 362.215 1068.29 356.855 1070.06 353.926C1071.83 351.013 1073.99 351.544 1074.53 353.288C1075.06 355.048 1074.02 358.739 1072.24 361.636C1070.47 364.533 1068.65 365.608 1068.14 363.912ZM1048.15 393.303C1047.67 391.735 1048.38 386.345 1050.28 383.727C1052.17 381.109 1054.51 382.165 1055 383.781C1055.49 385.381 1054.34 388.686 1052.44 391.304C1050.56 393.917 1048.65 394.882 1048.15 393.303ZM1026.88 419.601C1026.4 418.102 1027.15 412.84 1029.17 410.501C1031.18 408.163 1033.69 409.585 1034.16 411.105C1034.64 412.62 1033.34 415.655 1031.32 417.993C1029.33 420.327 1027.36 421.1 1026.88 419.601ZM1004.44 443.052C1003.97 441.569 1004.8 436.458 1006.9 434.371C1009.02 432.28 1011.63 434.007 1012.1 435.49C1012.57 436.973 1011.21 439.747 1009.09 441.854C1006.98 443.924 1004.91 444.535 1004.44 443.052ZM980.995 463.869C980.514 462.354 981.362 457.481 983.57 455.626C985.779 453.771 988.509 455.635 988.986 457.134C989.463 458.632 988.006 461.26 985.797 463.115C983.597 465.002 981.477 465.384 980.995 463.869ZM956.65 482.335C956.149 480.756 957.089 476.135 959.359 474.489C961.645 472.838 964.413 474.83 964.904 476.377C965.396 477.924 963.911 480.402 961.625 482.054C959.375 483.711 957.15 483.914 956.65 482.335ZM931.612 498.633C931.088 496.974 932.048 492.661 934.396 491.219C936.739 489.76 939.597 491.76 940.112 493.388C940.627 495.015 939.071 497.427 936.744 498.881C934.4 500.34 932.136 500.293 931.612 498.633ZM905.958 513.02C905.417 511.244 906.451 507.241 908.847 505.958C911.242 504.676 914.09 506.645 914.638 508.384C915.17 510.129 913.638 512.447 911.248 513.745C908.857 515.043 906.5 514.797 905.958 513.02ZM879.865 525.74C879.291 523.851 880.399 520.158 882.821 519.025C885.259 517.887 888.104 519.786 888.669 521.643C889.234 523.5 887.693 525.786 885.26 526.939C882.843 528.088 880.44 527.629 879.865 525.74ZM853.484 537.01C852.876 535.008 854.006 531.623 856.465 530.618C858.952 529.588 861.79 531.403 862.388 533.372C862.986 535.341 861.445 537.627 858.963 538.673C856.508 539.693 854.092 539.011 853.484 537.01ZM826.943 547.088C826.302 544.975 827.528 541.857 829.984 540.958C832.44 540.059 835.24 541.745 835.871 543.827C836.503 545.908 834.966 548.21 832.515 549.125C830.043 550.029 827.568 549.206 826.943 547.088ZM800.389 556.176C799.736 553.962 800.969 551.104 803.428 550.274C805.919 549.434 808.658 551.034 809.302 553.216C809.945 555.398 808.446 557.707 805.955 558.546C803.512 559.372 801.059 558.386 800.389 556.176ZM773.956 564.548C773.284 562.27 774.596 559.563 777.042 558.806C779.487 558.05 782.161 559.547 782.829 561.809C783.496 564.072 782.017 566.392 779.576 567.164C777.126 567.904 774.628 566.827 773.956 564.548ZM747.826 572.412C747.14 570.086 748.474 567.512 750.881 566.802C753.283 566.076 755.901 567.501 756.583 569.812C757.264 572.123 755.786 574.443 753.383 575.169C750.944 575.888 748.507 574.723 747.826 572.412ZM722.072 579.363C721.381 577.02 722.751 574.628 725.116 574.07C727.48 573.512 729.98 575.007 730.666 577.334C731.352 579.661 729.944 581.925 727.564 582.488C725.204 583.062 722.763 581.706 722.072 579.363ZM696.831 583.145C696.136 580.786 697.466 578.614 699.799 578.362C702.148 578.106 704.59 579.88 705.281 582.223C705.976 584.582 704.599 586.593 702.25 586.849C699.901 587.106 697.511 585.509 696.831 583.145ZM671.949 583.943C671.248 581.568 672.588 579.603 674.89 579.604C677.177 579.61 679.58 581.605 680.259 583.969C680.96 586.344 679.605 588.139 677.314 588.117C675.027 588.111 672.645 586.302 671.949 583.943ZM647.435 582.208C646.735 579.833 648.037 578.036 650.3 578.258C652.568 578.496 654.953 580.67 655.649 583.029C656.35 585.404 655.007 587.004 652.739 586.766C650.465 586.564 648.136 584.583 647.435 582.208ZM623.178 578.443C622.483 576.084 623.769 574.414 626.016 574.815C628.262 575.217 630.605 577.543 631.301 579.902C631.997 582.261 630.697 583.708 628.451 583.307C626.204 582.906 623.874 580.802 623.178 578.443ZM599.151 573.093C598.46 570.75 599.706 569.179 601.922 569.712C604.153 570.24 606.514 572.683 607.205 575.026C607.9 577.385 606.579 578.699 604.358 578.151C602.132 577.639 599.842 575.436 599.151 573.093ZM575.237 566.646C574.551 564.319 575.788 562.838 578.011 563.455C580.218 564.078 582.577 566.574 583.263 568.901C583.954 571.244 582.661 572.48 580.45 571.841C578.243 571.219 575.923 568.973 575.237 566.646ZM551.45 559.568C550.769 557.257 551.963 555.806 554.163 556.465C556.363 557.125 558.768 559.66 559.439 561.991C560.125 564.318 558.809 565.474 556.604 564.798C554.398 564.123 552.132 561.879 551.45 559.568ZM527.653 552.336C526.976 550.041 528.175 548.606 530.375 549.266C532.576 549.925 534.96 552.449 535.641 554.759C536.323 557.07 535.034 558.2 532.813 557.53C530.624 556.85 528.33 554.631 527.653 552.336ZM503.84 545.405C503.168 543.127 504.321 541.653 506.544 542.271C508.75 542.893 511.194 545.382 511.866 547.661C512.543 549.955 511.222 551.095 508.994 550.461C506.776 549.86 504.501 547.705 503.84 545.405ZM479.898 539.28C479.231 537.018 480.381 535.475 482.633 536.014C484.864 536.542 487.284 538.951 487.956 541.229C488.628 543.508 487.306 544.701 485.09 544.168C482.833 543.613 480.55 541.548 479.898 539.28ZM455.802 534.404C455.134 532.142 456.292 530.509 458.539 530.911C460.785 531.312 463.262 533.617 463.929 535.879C464.596 538.142 463.245 539.413 460.998 539.012C458.752 538.61 456.469 536.667 455.802 534.404ZM431.454 531.277C430.791 529.031 431.955 527.24 434.255 527.468C436.518 527.69 439.005 529.852 439.672 532.115C440.335 534.361 438.988 535.77 436.725 535.548C434.42 535.304 432.116 533.524 431.454 531.277ZM406.807 530.331C406.144 528.085 407.357 526.105 409.664 526.122C411.951 526.128 414.491 528.117 415.159 530.38C415.826 532.642 414.421 534.208 412.135 534.202C409.827 534.185 407.474 532.594 406.807 530.331ZM381.822 532.084C381.155 529.821 382.391 527.625 384.756 527.364C387.089 527.112 389.609 528.915 390.272 531.162C390.939 533.424 389.532 535.217 387.215 535.464C384.85 535.726 382.489 534.346 381.822 532.084ZM356.405 536.982C355.728 534.687 357.058 532.219 359.423 531.661C361.788 531.103 364.359 532.665 365.031 534.943C365.703 537.222 364.249 539.273 361.869 539.836C359.488 540.398 357.061 539.265 356.405 536.982ZM329.738 544.446C329.077 542.147 330.453 539.595 333.051 538.881C335.632 538.172 338.356 539.602 339.033 541.896C339.71 544.191 338.15 546.413 335.584 547.117C333.003 547.826 330.415 546.741 329.738 544.446ZM300.03 552.005C299.369 549.706 300.862 547.137 303.708 546.437C306.554 545.737 309.664 547.175 310.325 549.474C310.985 551.774 309.198 553.993 306.352 554.693C303.522 555.388 300.695 554.32 300.03 552.005ZM267.66 559.529C266.999 557.23 268.593 554.649 271.671 553.968C274.793 553.256 278.167 554.703 278.828 557.003C279.489 559.302 277.495 561.53 274.384 562.221C271.294 562.923 268.304 561.833 267.66 559.529ZM232.961 567.025C232.301 564.726 234.069 562.146 237.354 561.456C240.639 560.766 244.188 562.213 244.849 564.513C245.51 566.812 243.357 569.035 240.072 569.725C236.803 570.41 233.622 569.324 232.961 567.025ZM196.491 574.485C195.83 572.186 197.725 569.621 201.164 568.921C204.587 568.225 208.29 569.662 208.935 571.966C209.595 574.266 207.284 576.482 203.845 577.183C200.406 577.883 197.136 576.79 196.491 574.485ZM158.57 581.937C157.909 579.638 160.016 577.081 163.56 576.384C167.105 575.687 170.776 577.134 171.437 579.433C172.098 581.733 169.733 583.947 166.184 584.628C162.623 585.329 159.231 584.237 158.57 581.937ZM119.723 589.384C119.046 587.089 121.279 584.546 124.909 583.842C128.527 583.159 132.21 584.584 132.87 586.884C133.531 589.183 131.077 591.39 127.443 592.078C123.824 592.761 120.4 591.678 119.723 589.384ZM80.3107 596.805C79.6338 594.51 82.0413 591.968 85.6918 591.275C89.3423 590.582 92.9029 592.009 93.5797 594.304C94.2565 596.598 91.7978 598.789 88.1473 599.482C84.4807 600.18 80.9922 599.115 80.3107 596.805ZM40.85 604.24C40.1571 601.95 42.6543 599.417 46.3096 598.74C49.9601 598.047 53.4262 599.449 54.119 601.739C54.8119 604.029 52.3211 606.229 48.6545 606.927C44.9993 607.604 41.5429 606.53 40.85 604.24ZM1.70189 611.67C1.00902 609.38 3.61671 606.867 7.21432 606.172C10.8119 605.477 14.0873 606.883 14.7962 609.169C15.4891 611.459 13.0832 613.651 9.46484 614.334C5.85118 615.034 2.39477 613.96 1.70189 611.67ZM-36.6419 619.107C-37.3508 616.822 -34.7591 614.313 -31.2304 613.622C-27.7017 612.93 -24.5529 614.321 -23.86 616.611C-23.1511 618.896 -25.5409 621.084 -29.0696 621.775C-32.5983 622.467 -35.949 621.397 -36.6419 619.107ZM-73.8063 626.581C-74.5152 624.295 -71.9557 621.796 -68.5327 621.101C-65.1419 620.414 -62.1884 621.793 -61.4795 624.079C-60.7706 626.364 -63.0066 628.541 -66.4135 629.232C-69.8525 629.932 -73.0974 628.866 -73.8063 626.581ZM-109.293 634.065C-110.002 631.78 -107.564 629.281 -104.332 628.59C-101.1 627.898 -98.2888 629.267 -97.5799 631.552C-96.871 633.837 -99.0172 636.023 -102.249 636.714C-105.466 637.401 -108.573 636.329 -109.293 634.065ZM-142.716 641.568C-143.425 639.283 -141.182 636.773 -138.125 636.08C-135.088 635.376 -132.463 636.765 -131.754 639.05C-131.045 641.335 -132.985 643.512 -136.022 644.216C-139.063 644.904 -142.007 643.853 -142.716 641.568ZM-173.631 649.117C-174.34 646.831 -172.362 644.312 -169.569 643.61C-166.775 642.908 -164.224 644.284 -163.531 646.574C-162.822 648.859 -164.615 651.062 -167.392 651.759C-170.169 652.456 -172.922 651.402 -173.631 649.117ZM-201.556 656.69C-202.249 654.4 -200.71 651.871 -198.165 651.155C-195.652 650.449 -193.213 651.858 -192.52 654.148C-191.827 656.437 -193.36 658.634 -195.857 659.335C-198.369 660.042 -200.863 658.98 -201.556 656.69ZM-226.549 665.51C-227.269 663.246 -225.736 660.578 -223.496 659.656C-221.277 658.722 -219.112 659.915 -218.403 662.2C-217.694 664.485 -219.002 666.79 -221.247 667.696C-223.491 668.603 -225.824 667.791 -226.549 665.51ZM-249.3 677.436C-250.058 675.165 -248.525 672.376 -246.488 671.182C-244.423 669.962 -242.612 670.841 -241.875 673.1C-241.134 675.376 -242.255 677.905 -244.304 679.119C-246.362 680.302 -248.548 679.691 -249.3 677.436ZM-270.105 692.119C-270.899 689.842 -269.403 686.871 -267.542 685.433C-265.665 683.99 -264.115 684.631 -263.321 686.909C-262.532 689.171 -263.481 691.927 -265.342 693.366C-267.202 694.804 -269.295 694.392 -270.105 692.119ZM-289.127 709.12C-289.962 706.82 -288.608 703.664 -286.894 702.025C-285.179 700.386 -283.746 700.87 -282.915 703.154C-282.084 705.438 -282.887 708.396 -284.601 710.035C-286.306 711.707 -288.275 711.416 -289.127 709.12ZM-306.613 728.075C-307.49 725.752 -306.271 722.375 -304.694 720.567C-303.112 718.774 -301.766 719.197 -300.91 721.509C-300.037 723.816 -300.691 726.922 -302.248 728.741C-303.804 730.561 -305.736 730.398 -306.613 728.075ZM-322.744 748.549C-323.663 746.204 -322.643 742.624 -321.172 740.69C-319.697 738.772 -318.356 739.179 -317.458 741.513C-316.561 743.847 -317.098 747.111 -318.548 749.056C-319.993 751.017 -321.826 750.895 -322.744 748.549ZM-337.776 770.147C-338.725 767.758 -337.905 763.975 -336.532 761.948C-335.154 759.937 -333.778 760.403 -332.85 762.78C-331.906 765.153 -332.33 768.505 -333.682 770.544C-335.03 772.598 -336.827 772.536 -337.776 770.147ZM-351.886 792.449C-352.86 790.033 -352.261 786.088 -350.955 784.011C-349.649 781.934 -348.181 782.478 -347.227 784.883C-346.274 787.288 -346.617 790.738 -347.897 792.842C-349.182 794.931 -350.911 794.865 -351.886 792.449ZM-365.312 815.056C-366.296 812.607 -365.882 808.508 -364.65 806.418C-363.402 804.323 -361.842 804.997 -360.859 807.445C-359.879 809.877 -360.16 813.362 -361.388 815.468C-362.615 817.574 -364.328 817.504 -365.312 815.056ZM-378.252 837.536C-379.241 835.072 -379.021 830.908 -377.816 828.843C-376.611 826.778 -374.917 827.552 -373.945 830.021C-372.956 832.486 -373.212 835.997 -374.412 838.078C-375.596 840.154 -377.259 840.017 -378.252 837.536ZM-390.937 859.523C-391.914 857.038 -391.83 852.827 -390.643 850.82C-389.456 848.812 -387.667 849.732 -386.69 852.218C-385.713 854.703 -385.945 858.173 -387.112 860.191C-388.294 862.215 -389.96 862.008 -390.937 859.523ZM-403.568 880.569C-404.513 878.075 -404.532 873.929 -403.348 872.027C-402.17 870.11 -400.279 871.139 -399.318 873.629C-398.356 876.119 -398.619 879.546 -399.798 881.463C-400.981 883.365 -402.606 883.059 -403.568 880.569ZM-416.359 900.302C-417.262 897.83 -417.297 893.811 -416.101 892.011C-414.9 890.226 -412.955 891.379 -412.031 893.863C-411.107 896.346 -411.407 899.644 -412.613 901.413C-413.829 903.202 -415.455 902.774 -416.359 900.302ZM-429.544 918.285C-430.39 915.831 -430.358 912.037 -429.131 910.401C-427.899 908.782 -425.924 909.979 -425.041 912.439C-424.175 914.905 -424.571 918.057 -425.823 919.665C-427.081 921.256 -428.698 920.739 -429.544 918.285ZM-443.316 934.104C-444.074 931.711 -443.899 928.223 -442.622 926.817C-441.349 925.395 -439.397 926.633 -438.613 929.054C-437.813 931.469 -438.324 934.41 -439.643 935.794C-440.945 937.172 -442.537 936.508 -443.316 934.104Z" fill="url(#paint0_linear_351_892)"/>
</g>
</g>
<defs>
<linearGradient id="paint0_linear_351_892" x1="1282.13" y1="282.161" x2="183.12" y2="902.431" gradientUnits="userSpaceOnUse">
<stop stop-color="#07EDD2"/>
<stop offset="1" stop-color="#9C63F7"/>
</linearGradient>
</defs>
</svg>
