<svg width="1280" height="357" viewBox="0 0 1280 357" fill="none" xmlns="http://www.w3.org/2000/svg">
<g opacity="0.0968">
<g opacity="0.0968">
<path opacity="0.0968" d="M1330.68 -267.711C1330.24 -268.245 1330.49 -268.877 1331.19 -269.101C1331.93 -269.319 1332.88 -269.058 1333.3 -268.519C1333.72 -267.98 1333.49 -267.353 1332.75 -267.119C1332.05 -266.895 1331.12 -267.161 1330.68 -267.711ZM1306.5 -260.144C1306.04 -260.689 1306.23 -261.302 1306.95 -261.531C1307.63 -261.751 1308.58 -261.49 1309.04 -260.944C1309.5 -260.399 1309.29 -259.781 1308.61 -259.562C1307.91 -259.338 1306.95 -259.614 1306.5 -260.144ZM1283.1 -252.613C1282.61 -253.149 1282.75 -253.785 1283.42 -253.999C1284.12 -254.224 1285.06 -253.958 1285.53 -253.418C1286.02 -252.882 1285.89 -252.267 1285.21 -252.031C1284.54 -251.816 1283.59 -252.077 1283.1 -252.613ZM1260.3 -245.104C1259.77 -245.646 1259.87 -246.268 1260.55 -246.487C1261.21 -246.697 1262.19 -246.446 1262.72 -245.903C1263.24 -245.361 1263.15 -244.74 1262.49 -244.53C1261.81 -244.31 1260.83 -244.561 1260.3 -245.104ZM1238.02 -237.608C1237.45 -238.136 1237.51 -238.764 1238.14 -238.986C1238.8 -239.217 1239.78 -238.928 1240.35 -238.4C1240.93 -237.872 1240.88 -237.249 1240.23 -237.023C1239.6 -236.817 1238.6 -237.08 1238.02 -237.608ZM1216.07 -230.122C1215.44 -230.652 1215.45 -231.282 1216.12 -231.497C1216.75 -231.718 1217.79 -231.449 1218.4 -230.914C1219.01 -230.379 1219 -229.766 1218.38 -229.549C1217.74 -229.323 1216.7 -229.592 1216.07 -230.122ZM1194.38 -222.643C1193.72 -223.18 1193.67 -223.795 1194.31 -224.017C1194.95 -224.243 1196.01 -223.978 1196.67 -223.441C1197.34 -222.905 1197.4 -222.294 1196.75 -222.068C1196.13 -221.851 1195.06 -222.111 1194.38 -222.643ZM1172.76 -215.167C1172.04 -215.705 1171.97 -216.311 1172.62 -216.537C1173.25 -216.759 1174.36 -216.492 1175.07 -215.97C1175.78 -215.431 1175.86 -214.825 1175.24 -214.609C1174.59 -214.382 1173.47 -214.644 1172.76 -215.167ZM1151.12 -207.701C1150.35 -208.226 1150.22 -208.85 1150.86 -209.055C1151.5 -209.281 1152.66 -209.013 1153.43 -208.489C1154.19 -207.964 1154.31 -207.336 1153.66 -207.126C1153.04 -206.909 1151.89 -207.161 1151.12 -207.701ZM1129.27 -200.212C1128.45 -200.738 1128.3 -201.357 1128.95 -201.583C1129.59 -201.805 1130.79 -201.551 1131.6 -201.02C1132.41 -200.494 1132.56 -199.874 1131.93 -199.653C1131.28 -199.427 1130.09 -199.686 1129.27 -200.212ZM1107.13 -192.722C1106.26 -193.25 1106.09 -193.864 1106.73 -194.086C1107.38 -194.296 1108.62 -194.051 1109.48 -193.519C1110.33 -192.986 1110.51 -192.376 1109.88 -192.155C1109.25 -191.933 1108 -192.194 1107.13 -192.722ZM1084.54 -185.205C1083.64 -185.724 1083.44 -186.345 1084.12 -186.564C1084.79 -186.779 1086.07 -186.528 1086.98 -185.993C1087.88 -185.475 1088.08 -184.854 1087.43 -184.644C1086.74 -184.44 1085.45 -184.687 1084.54 -185.205ZM1061.38 -177.693C1060.44 -178.218 1060.22 -178.834 1060.91 -179.054C1061.59 -179.273 1062.92 -179.02 1063.86 -178.495C1064.8 -177.97 1065.02 -177.354 1064.35 -177.139C1063.67 -176.919 1062.33 -177.172 1061.38 -177.693ZM1037.49 -170.142C1036.52 -170.658 1036.31 -171.274 1037.01 -171.498C1037.72 -171.727 1039.11 -171.472 1040.08 -170.941C1041.06 -170.425 1041.27 -169.809 1040.56 -169.58C1039.85 -169.371 1038.47 -169.61 1037.49 -170.142ZM1012.76 -162.568C1011.77 -163.095 1011.55 -163.711 1012.31 -163.934C1013.03 -164.147 1014.46 -163.906 1015.45 -163.379C1016.45 -162.852 1016.68 -162.24 1015.94 -162.023C1015.19 -161.8 1013.77 -162.046 1012.76 -162.568ZM987.121 -154.935C986.129 -155.462 985.912 -156.079 986.666 -156.301C987.452 -156.533 988.889 -156.277 989.897 -155.754C990.906 -155.232 991.107 -154.611 990.32 -154.379C989.561 -154.173 988.114 -154.408 987.121 -154.935ZM960.6 -146.921C959.623 -147.453 959.45 -148.099 960.252 -148.336C961.038 -148.568 962.486 -148.332 963.463 -147.8C964.439 -147.269 964.612 -146.622 963.842 -146.395C963.029 -146.137 961.581 -146.373 960.6 -146.921ZM933.321 -138.456C932.356 -139.009 932.231 -139.67 933.028 -139.923C933.858 -140.185 935.31 -139.933 936.276 -139.38C937.241 -138.828 937.366 -138.167 936.553 -137.909C935.734 -137.668 934.287 -137.904 933.321 -138.456ZM905.384 -129.623C904.451 -130.185 904.369 -130.876 905.199 -131.138C906.012 -131.396 907.449 -131.139 908.382 -130.577C909.315 -130.015 909.413 -129.329 908.583 -129.067C907.753 -128.805 906.322 -129.045 905.384 -129.623ZM876.944 -120.485C876.054 -121.077 876.004 -121.777 876.834 -122.04C877.696 -122.311 879.084 -122.04 879.99 -121.453C880.896 -120.865 880.977 -120.174 880.116 -119.903C879.27 -119.636 877.834 -119.892 876.944 -120.485ZM848.087 -111.101C847.23 -111.703 847.191 -112.424 848.064 -112.717C848.91 -112.984 850.298 -112.713 851.156 -112.111C852.014 -111.509 852.02 -110.779 851.179 -110.496C850.301 -110.219 848.929 -110.495 848.087 -111.101ZM818.897 -101.55C818.083 -102.182 818.104 -102.938 818.95 -103.205C819.823 -103.497 821.199 -103.206 822.014 -102.574C822.828 -101.942 822.802 -101.201 821.929 -100.909C821.088 -100.626 819.711 -100.918 818.897 -101.55ZM789.528 -91.8929C788.757 -92.5551 788.826 -93.3256 789.7 -93.618C790.541 -93.901 791.89 -93.5839 792.656 -92.9377C793.427 -92.2755 793.358 -91.505 792.517 -91.2221C791.628 -90.9249 790.299 -91.2307 789.528 -91.8929ZM760.116 -82.206C759.393 -82.8824 759.49 -83.6785 760.347 -83.9661C761.188 -84.2491 762.505 -83.9225 763.233 -83.23C763.955 -82.5536 763.859 -81.7576 763.002 -81.47C762.145 -81.1823 760.843 -81.5136 760.116 -82.206ZM730.736 -72.5286C730.056 -73.2353 730.185 -74.0407 731.058 -74.3331C731.899 -74.6161 733.173 -74.2592 733.853 -73.5526C734.548 -72.8507 734.403 -72.0405 733.562 -71.7575C732.673 -71.4604 731.415 -71.822 730.736 -72.5286ZM701.534 -62.9561C700.898 -63.693 701.054 -64.524 701.9 -64.7909C702.746 -65.0578 703.971 -64.6867 704.619 -63.9706C705.271 -63.2385 705.094 -62.4188 704.253 -62.1359C703.412 -61.8529 702.181 -62.24 701.534 -62.9561ZM672.597 -53.5491C671.994 -54.2954 672.177 -55.1519 673.007 -55.4141C673.868 -55.6857 675.051 -55.2844 675.655 -54.538C676.259 -53.7917 676.07 -52.9512 675.213 -52.6636C674.384 -52.4014 673.201 -52.8027 672.597 -53.5491ZM644.098 -44.3755C643.537 -45.1521 643.709 -45.9878 644.55 -46.2708C645.364 -46.5282 646.514 -46.1174 647.075 -45.3408C647.651 -44.569 647.431 -43.7191 646.622 -43.4456C645.776 -43.1787 644.653 -43.615 644.098 -44.3755ZM616.069 -35.4979C615.541 -36.2839 615.756 -37.1499 616.554 -37.4026C617.383 -37.6648 618.49 -37.2237 619.04 -36.4264C619.584 -35.645 619.352 -34.7743 618.523 -34.5122C617.725 -34.2595 616.613 -34.7165 616.069 -35.4979ZM588.715 -26.9937C588.198 -27.8005 588.397 -28.6617 589.216 -28.9031C589.997 -29.1511 591.061 -28.6798 591.578 -27.873C592.095 -27.0661 591.863 -26.1955 591.077 -25.9635C590.264 -25.7061 589.232 -26.1868 588.715 -26.9937ZM562.079 -18.8932C561.594 -19.7095 561.81 -20.5755 562.564 -20.7979C563.35 -21.0299 564.382 -20.5491 564.883 -19.7375C565.368 -18.9212 565.152 -18.0553 564.366 -17.8233C563.612 -17.6009 562.58 -18.0816 562.079 -18.8932ZM536.296 -11.3929C535.811 -12.2092 536.004 -13.0336 536.746 -13.2353C537.489 -13.437 538.509 -12.9354 538.994 -12.1191C539.479 -11.3028 539.27 -10.4737 538.544 -10.2767C537.796 -10.0911 536.776 -10.5926 536.296 -11.3929ZM511.22 -5.2178C510.712 -5.99255 510.883 -6.77539 511.603 -6.9355C512.339 -7.10035 513.359 -6.59884 513.872 -5.80804C514.379 -5.03328 514.193 -4.2457 513.457 -4.08085C512.736 -3.92074 511.732 -4.427 511.22 -5.2178ZM486.83 -0.32631C486.3 -1.05951 486.441 -1.76395 487.134 -1.89855C487.826 -2.03315 488.847 -1.53164 489.381 -0.782393C489.912 -0.0491964 489.759 0.67603 489.062 0.794585C488.364 0.913139 487.36 0.406886 486.83 -0.32631ZM462.97 3.46673C462.422 2.79114 462.509 2.13773 463.195 2.03995C463.897 1.93744 464.929 2.41816 465.481 3.1098C466.034 3.80144 465.927 4.44355 465.225 4.54605C464.555 4.63909 463.539 4.15363 462.97 3.46673ZM439.581 6.37097C438.999 5.75773 439.072 5.17796 439.763 5.09623C440.438 5.01923 441.481 5.47917 442.063 6.09242C442.65 6.72171 442.577 7.30148 441.897 7.36242C441.222 7.43942 440.179 6.97949 439.581 6.37097ZM416.577 8.56868C415.961 8.01777 415.984 7.50506 416.648 7.44885C417.328 7.3879 418.372 7.795 418.993 8.36196C419.609 8.91287 419.602 9.42081 418.922 9.48176C418.253 9.52193 417.193 9.11959 416.577 8.56868ZM393.791 10.2658C393.125 9.78198 393.135 9.34295 393.82 9.29805C394.483 9.24183 395.571 9.61866 396.221 10.1072C396.871 10.5958 396.877 11.0301 396.225 11.0655C395.54 11.1104 394.441 10.7544 393.791 10.2658ZM371.169 11.6881C370.473 11.2827 370.433 10.9107 371.102 10.8705C371.786 10.8256 372.871 11.1335 373.567 11.539C374.262 11.9444 374.318 12.3117 373.633 12.3566C372.986 12.408 371.864 12.0936 371.169 11.6881ZM348.586 13.0112C347.846 12.6889 347.788 12.3745 348.457 12.3344C349.109 12.2989 350.26 12.535 350.989 12.8781C351.718 13.2212 351.788 13.5148 351.135 13.5502C350.467 13.5904 349.316 13.3543 348.586 13.0112ZM325.953 14.4543C325.178 14.1943 325.086 13.9422 325.739 13.9068C326.423 13.8619 327.576 14.0451 328.351 14.3051C329.125 14.5651 329.233 14.8124 328.564 14.8526C327.912 14.888 326.727 14.7143 325.953 14.4543ZM303.149 16.209C302.345 16.0274 302.215 15.8217 302.911 15.756C303.574 15.6998 304.793 15.8112 305.597 15.9928C306.405 16.1905 306.531 16.3801 305.867 16.4363C305.188 16.4973 303.969 16.3859 303.149 16.209ZM280.111 18.469C279.273 18.3498 279.12 18.1856 279.795 18.1086C280.486 18.0269 281.718 18.0647 282.561 18.2C283.398 18.3192 283.567 18.4787 282.876 18.5604C282.196 18.6213 280.948 18.5883 280.111 18.469ZM256.676 21.4564C255.805 21.3995 255.645 21.2721 256.348 21.1696C257.034 21.0719 258.316 21.0425 259.187 21.0995C260.059 21.1564 260.219 21.2838 259.532 21.3815C258.83 21.484 257.548 21.5133 256.676 21.4564ZM232.792 25.3439C231.887 25.3493 231.727 25.222 232.425 25.1034C233.118 24.9688 234.45 24.8724 235.344 24.8878C236.238 24.9031 236.409 25.0097 235.711 25.1283C235.014 25.2468 233.686 25.3593 232.792 25.3439ZM208.318 30.3648C207.39 30.4118 207.219 30.3052 207.971 30.1356C208.692 29.9755 210.037 29.8055 210.97 29.7745C211.887 29.7483 212.069 29.8341 211.349 29.9942C210.596 30.1638 209.23 30.3225 208.318 30.3648ZM183.184 36.6967C182.245 36.7644 182.074 36.6579 182.817 36.4562C183.56 36.2545 184.943 36.0382 185.883 35.9704C186.822 35.9027 186.993 36.0092 186.25 36.2109C185.507 36.4126 184.124 36.6289 183.184 36.6967ZM157.231 44.5087C156.307 44.5717 156.159 44.4236 156.92 44.1643C157.717 43.9116 159.108 43.6584 160.047 43.5907C160.987 43.5229 161.119 43.6758 160.321 43.9285C159.561 44.1878 158.154 44.4457 157.231 44.5087ZM130.163 53.9228C129.262 53.9443 129.164 53.7291 129.968 53.4395C130.772 53.15 132.179 52.8921 133.079 52.8706C133.996 52.8444 134.078 53.0644 133.274 53.3539C132.47 53.6434 131.063 53.9013 130.163 53.9228ZM102.027 64.8031C101.165 64.7782 101.128 64.4752 101.939 64.1488C102.798 63.8083 104.188 63.5551 105.066 63.5752C105.944 63.5953 105.977 63.8823 105.122 64.2389C104.316 64.5813 102.905 64.8231 102.027 64.8031ZM73.065 76.9038C72.2369 76.8166 72.2337 76.4513 73.0992 76.0739C73.9534 75.7173 75.3327 75.4849 76.1608 75.5721C76.9888 75.6592 76.9759 76.0294 76.1217 76.386C75.2562 76.7634 73.8931 76.991 73.065 76.9038ZM43.3693 90.0059C42.5912 89.8517 42.6654 89.3937 43.5261 89.0003C44.419 88.5974 45.7757 88.4066 46.5538 88.5608C47.3319 88.715 47.2576 89.173 46.3647 89.5759C45.504 89.9693 44.1474 90.1601 43.3693 90.0059ZM13.1445 103.857C12.4277 103.615 12.5198 103.099 13.44 102.671C14.3168 102.273 15.6508 102.124 16.3629 102.35C17.091 102.571 16.9555 103.117 16.0674 103.536C15.1632 103.959 13.8612 104.099 13.1445 103.857ZM-17.4755 118.261C-18.131 117.931 -17.9454 117.318 -17.0525 116.915C-16.1323 116.487 -14.8484 116.405 -14.1816 116.714C-13.5147 117.023 -13.7003 117.636 -14.6318 118.085C-15.5407 118.493 -16.82 118.591 -17.4755 118.261ZM-48.318 132.975C-48.9074 132.573 -48.6766 131.877 -47.7564 131.449C-46.8683 131.03 -45.6343 131.014 -45.0288 131.411C-44.4233 131.808 -44.6589 132.488 -45.5583 132.928C-46.4785 133.357 -47.7285 133.376 -48.318 132.975ZM-79.1945 147.751C-79.7387 147.266 -79.4418 146.498 -78.5537 146.079C-77.6335 145.651 -76.4495 145.703 -75.9053 146.188C-75.3611 146.672 -75.6467 147.419 -76.5782 147.869C-77.4663 148.288 -78.6503 148.236 -79.1945 147.751ZM-109.976 162.377C-110.459 161.804 -110.128 160.974 -109.208 160.545C-108.32 160.126 -107.197 160.266 -106.703 160.818C-106.22 161.391 -106.555 162.205 -107.443 162.624C-108.375 163.073 -109.509 162.954 -109.976 162.377ZM-140.457 176.6C-140.879 175.939 -140.509 175.063 -139.632 174.665C-138.723 174.257 -137.683 174.474 -137.25 175.113C-136.828 175.774 -137.17 176.625 -138.075 177.049C-138.963 177.467 -140.035 177.261 -140.457 176.6ZM-170.537 190.234C-170.908 189.506 -170.5 188.584 -169.607 188.181C-168.742 187.803 -167.735 188.082 -167.347 188.805C-166.976 189.533 -167.384 190.455 -168.245 190.849C-169.153 191.256 -170.181 190.966 -170.537 190.234ZM-199.982 203.001C-200.304 202.206 -199.873 201.242 -199.035 200.89C-198.197 200.538 -197.235 200.9 -196.914 201.694C-196.592 202.489 -197.023 203.454 -197.861 203.805C-198.711 204.178 -199.672 203.816 -199.982 203.001ZM-228.692 214.713C-228.964 213.851 -228.517 212.882 -227.674 212.547C-226.864 212.22 -225.947 212.665 -225.66 213.522C-225.372 214.379 -225.835 215.353 -226.646 215.679C-227.521 216.025 -228.421 215.575 -228.692 214.713ZM-256.451 225.098C-256.7 224.195 -256.242 223.205 -255.454 222.92C-254.666 222.636 -253.815 223.152 -253.566 224.056C-253.317 224.959 -253.775 225.949 -254.564 226.234C-255.363 226.539 -256.218 226.007 -256.451 225.098ZM-283.156 233.969C-283.382 233.024 -282.936 232.055 -282.181 231.833C-281.4 231.585 -280.584 232.164 -280.373 233.114C-280.147 234.059 -280.594 235.028 -281.375 235.276C-282.129 235.498 -282.93 234.914 -283.156 233.969ZM-308.957 241.527C-309.168 240.578 -308.764 239.639 -307.994 239.412C-307.256 239.194 -306.451 239.794 -306.241 240.743C-306.031 241.693 -306.466 242.641 -307.204 242.859C-307.974 243.086 -308.747 242.477 -308.957 241.527ZM-334.753 248.752C-334.974 247.823 -334.523 246.87 -333.78 246.668C-333.005 246.457 -332.216 247.062 -331.994 247.991C-331.773 248.92 -332.224 249.873 -332.983 250.079C-333.742 250.285 -334.531 249.681 -334.753 248.752ZM-360.511 255.687C-360.733 254.758 -360.309 253.83 -359.545 253.64C-358.802 253.438 -357.997 254.038 -357.792 254.972C-357.57 255.901 -358.01 256.833 -358.758 257.018C-359.522 257.209 -360.294 256.599 -360.511 255.687ZM-386.288 262.383C-386.505 261.47 -386.06 260.554 -385.312 260.368C-384.533 260.173 -383.749 260.761 -383.527 261.69C-383.31 262.603 -383.755 263.519 -384.519 263.71C-385.282 263.9 -386.071 263.295 -386.288 262.383ZM-412.037 268.878C-412.249 267.981 -411.847 267.096 -411.068 266.9C-410.32 266.715 -409.52 267.299 -409.303 268.211C-409.091 269.108 -409.524 270.004 -410.272 270.189C-411.052 270.384 -411.824 269.775 -412.037 268.878ZM-437.807 275.241C-438.03 274.365 -437.581 273.465 -436.844 273.3C-436.081 273.11 -435.281 273.693 -435.057 274.569C-434.85 275.45 -435.283 276.345 -436.052 276.52C-436.799 276.705 -437.595 276.138 -437.807 275.241ZM-463.553 281.509C-463.772 280.649 -463.365 279.779 -462.586 279.584C-461.838 279.398 -461.043 279.966 -460.819 280.842C-460.6 281.702 -461.039 282.582 -461.791 282.751C-462.571 282.946 -463.334 282.369 -463.553 281.509ZM-489.334 287.718C-489.548 286.874 -489.121 286.015 -488.373 285.83C-487.609 285.639 -486.83 286.212 -486.616 287.056C-486.397 287.916 -486.813 288.753 -487.577 288.944C-488.308 289.125 -489.12 288.562 -489.334 287.718ZM-515.066 293.912C-515.276 293.084 -514.876 292.251 -514.096 292.056C-513.349 291.871 -512.558 292.422 -512.333 293.245C-512.119 294.089 -512.555 294.916 -513.303 295.101C-514.083 295.296 -514.857 294.74 -515.066 293.912ZM-540.843 300.137C-541.068 299.314 -540.631 298.487 -539.879 298.318C-539.115 298.127 -538.329 298.663 -538.12 299.491C-537.895 300.314 -538.315 301.136 -539.084 301.31C-539.831 301.496 -540.617 300.96 -540.843 300.137ZM-566.606 306.463C-566.827 305.656 -566.386 304.845 -565.622 304.655C-564.874 304.469 -564.077 304.984 -563.857 305.791C-563.636 306.598 -564.077 307.409 -564.825 307.594C-565.593 307.769 -566.391 307.254 -566.606 306.463ZM-592.358 312.889C-592.574 312.098 -592.149 311.293 -591.401 311.107C-590.621 310.912 -589.861 311.42 -589.629 312.207C-589.413 312.998 -589.822 313.799 -590.586 313.989C-591.349 314.179 -592.142 313.681 -592.358 312.889ZM-618.137 319.516C-618.365 318.746 -617.923 317.936 -617.144 317.741C-616.401 317.539 -615.592 318.033 -615.381 318.808C-615.17 319.583 -615.595 320.389 -616.343 320.574C-617.122 320.769 -617.926 320.291 -618.137 319.516ZM-643.892 326.345C-644.115 325.591 -643.674 324.781 -642.931 324.579C-642.156 324.368 -641.389 324.839 -641.161 325.61C-640.939 326.364 -641.348 327.165 -642.123 327.376C-642.887 327.566 -643.686 327.104 -643.892 326.345ZM-669.693 333.432C-669.916 332.678 -669.47 331.884 -668.716 331.661C-667.973 331.459 -667.162 331.901 -666.956 332.66C-666.733 333.414 -667.179 334.208 -667.918 334.426C-668.676 334.632 -669.471 334.186 -669.693 333.432Z" fill="url(#paint0_linear_351_738)"/>
</g>
</g>
<defs>
<linearGradient id="paint0_linear_351_738" x1="1072.98" y1="-189.417" x2="800.919" y2="533.211" gradientUnits="userSpaceOnUse">
<stop stop-color="#07EDD2"/>
<stop offset="1" stop-color="#9C63F7"/>
</linearGradient>
</defs>
</svg>
