<svg width="1280" height="454" viewBox="0 0 1280 454" fill="none" xmlns="http://www.w3.org/2000/svg">
<g opacity="0.1935">
<g opacity="0.1935">
<path opacity="0.1935" d="M1370.73 -201.223C1370.44 -202.166 1370.89 -203.155 1371.78 -203.452C1372.66 -203.729 1373.63 -203.213 1373.94 -202.276C1374.24 -201.334 1373.75 -200.318 1372.86 -200.037C1371.97 -199.74 1371.03 -200.281 1370.73 -201.223ZM1348.44 -193.723C1348.14 -194.665 1348.56 -195.661 1349.39 -195.94C1350.21 -196.218 1351.11 -195.699 1351.41 -194.757C1351.71 -193.815 1351.25 -192.809 1350.43 -192.515C1349.62 -192.242 1348.73 -192.781 1348.44 -193.723ZM1327.64 -186.281C1327.35 -187.223 1327.72 -188.206 1328.49 -188.502C1329.26 -188.782 1330.13 -188.254 1330.42 -187.312C1330.72 -186.37 1330.3 -185.357 1329.55 -185.082C1328.78 -184.786 1327.94 -185.339 1327.64 -186.281ZM1308.11 -178.864C1307.82 -179.806 1308.14 -180.79 1308.86 -181.072C1309.58 -181.354 1310.43 -180.821 1310.73 -179.879C1311.02 -178.937 1310.66 -177.923 1309.94 -177.641C1309.21 -177.375 1308.41 -177.922 1308.11 -178.864ZM1289.53 -171.483C1289.22 -172.42 1289.5 -173.411 1290.21 -173.688C1290.89 -173.96 1291.73 -173.439 1292.04 -172.485C1292.36 -171.548 1292.03 -170.527 1291.34 -170.255C1290.65 -169.998 1289.84 -170.545 1289.53 -171.483ZM1271.67 -164.14C1271.34 -165.088 1271.59 -166.069 1272.26 -166.353C1272.93 -166.637 1273.76 -166.099 1274.1 -165.151C1274.43 -164.202 1274.13 -163.207 1273.46 -162.923C1272.81 -162.644 1272.02 -163.196 1271.67 -164.14ZM1254.25 -156.786C1253.91 -157.73 1254.12 -158.718 1254.77 -158.997C1255.42 -159.276 1256.28 -158.743 1256.62 -157.799C1256.97 -156.856 1256.71 -155.854 1256.06 -155.575C1255.43 -155.3 1254.62 -155.847 1254.25 -156.786ZM1237.04 -149.458C1236.66 -150.392 1236.87 -151.38 1237.52 -151.659C1238.17 -151.938 1239.04 -151.41 1239.41 -150.471C1239.79 -149.536 1239.53 -148.518 1238.88 -148.239C1238.23 -147.96 1237.42 -148.507 1237.04 -149.458ZM1219.72 -142.117C1219.32 -143.063 1219.5 -144.041 1220.17 -144.325C1220.83 -144.609 1221.72 -144.069 1222.12 -143.14C1222.52 -142.194 1222.27 -141.197 1221.62 -140.918C1220.95 -140.613 1220.12 -141.171 1219.72 -142.117ZM1202.05 -134.762C1201.64 -135.703 1201.82 -136.681 1202.5 -136.97C1203.19 -137.242 1204.09 -136.723 1204.53 -135.787C1204.94 -134.846 1204.71 -133.854 1204.03 -133.565C1203.33 -133.272 1202.47 -133.821 1202.05 -134.762ZM1183.75 -127.392C1183.32 -128.328 1183.52 -129.311 1184.22 -129.588C1184.92 -129.865 1185.88 -129.345 1186.32 -128.393C1186.75 -127.456 1186.51 -126.443 1185.8 -126.166C1185.08 -125.9 1184.18 -126.456 1183.75 -127.392ZM1164.57 -119.989C1164.12 -120.921 1164.32 -121.904 1165.08 -122.2C1165.81 -122.466 1166.83 -121.948 1167.28 -121.017C1167.73 -120.085 1167.44 -119.058 1166.72 -118.792C1165.95 -118.496 1165.02 -119.058 1164.57 -119.989ZM1144.22 -112.558C1143.77 -113.49 1144.02 -114.487 1144.81 -114.772C1145.6 -115.057 1146.64 -114.528 1147.09 -113.596C1147.54 -112.665 1147.25 -111.653 1146.44 -111.364C1145.67 -111.068 1144.68 -111.611 1144.22 -112.558ZM1122.46 -105.076C1122.01 -106.008 1122.33 -107.008 1123.15 -107.286C1124.01 -107.574 1125.09 -107.038 1125.54 -106.107C1125.99 -105.175 1125.63 -104.161 1124.79 -103.878C1123.96 -103.6 1122.92 -104.128 1122.46 -105.076ZM1099.04 -97.5408C1098.61 -98.477 1098.98 -99.4753 1099.89 -99.7611C1100.8 -100.047 1101.95 -99.5304 1102.38 -98.5941C1102.81 -97.6579 1102.4 -96.6454 1101.47 -96.3549C1100.54 -96.0643 1099.48 -96.6045 1099.04 -97.5408ZM1073.53 -89.8405C1073.1 -90.7768 1073.53 -91.7779 1074.54 -92.0761C1075.55 -92.3743 1076.75 -91.872 1077.18 -90.9357C1077.62 -89.9994 1077.11 -88.9794 1076.1 -88.6812C1075.11 -88.3877 1073.96 -88.9042 1073.53 -89.8405ZM1046.07 -81.2711C1045.62 -82.2026 1046.11 -83.218 1047.17 -83.5672C1048.24 -83.9003 1049.5 -83.433 1049.95 -82.5015C1050.4 -81.57 1049.85 -80.5357 1048.78 -80.1865C1047.71 -79.8533 1046.52 -80.3396 1046.07 -81.2711ZM1017.06 -71.8083C1016.62 -72.7398 1017.14 -73.7854 1018.26 -74.1488C1019.39 -74.5169 1020.69 -74.0798 1021.13 -73.1483C1021.58 -72.2168 1021.01 -71.157 1019.89 -70.7936C1018.76 -70.4254 1017.51 -70.8928 1017.06 -71.8083ZM986.803 -61.6269C986.354 -62.5584 986.911 -63.6295 988.084 -64.0279C989.257 -64.4263 990.603 -64.0034 991.052 -63.0719C991.501 -62.1404 990.876 -61.0664 989.719 -60.6727C988.529 -60.2696 987.248 -60.7114 986.803 -61.6269ZM955.452 -50.8273C955.019 -51.7635 955.607 -52.8441 956.808 -53.268C958.008 -53.6919 959.37 -53.2737 959.819 -52.3422C960.253 -51.4059 959.616 -50.3111 958.415 -49.8872C957.194 -49.4747 955.88 -49.9071 955.452 -50.8273ZM923.311 -39.5681C922.894 -40.5091 923.51 -41.6152 924.743 -42.0486C925.975 -42.4819 927.353 -42.0685 927.782 -41.1483C928.215 -40.212 927.519 -39.0823 926.286 -38.6489C925.053 -38.2156 923.724 -38.6432 923.311 -39.5681ZM890.539 -27.9658C890.138 -28.9115 890.797 -30.0478 892.046 -30.4859C893.295 -30.924 894.668 -30.5267 895.085 -29.5857C895.502 -28.6447 894.774 -27.5055 893.53 -27.0513C892.27 -26.5925 890.941 -27.0201 890.539 -27.9658ZM857.443 -16.1631C857.058 -17.1135 857.744 -18.2754 858.993 -18.7135C860.258 -19.1563 861.615 -18.7542 862.005 -17.7877C862.39 -16.8372 861.666 -15.682 860.406 -15.2231C859.158 -14.785 857.833 -15.1966 857.443 -16.1631ZM824.2 -4.26485C823.826 -5.2361 824.534 -6.38663 825.794 -6.84551C827.059 -7.28834 828.4 -6.88149 828.773 -5.91025C829.147 -4.93901 828.392 -3.77428 827.127 -3.33145C825.867 -2.87257 824.574 -3.29361 824.2 -4.26485ZM791.071 7.54735C790.73 6.56664 791.432 5.40006 792.681 4.96196C793.93 4.52386 795.26 4.95149 795.617 5.92747C795.975 6.90344 795.219 8.06817 793.959 8.52705C792.711 8.96515 791.434 8.53937 791.071 7.54735ZM758.261 19.196C757.935 18.2105 758.638 17.044 759.887 16.6059C761.119 16.1725 762.422 16.6256 762.763 17.6063C763.089 18.5918 762.333 19.7565 761.105 20.2059C759.857 20.644 758.602 20.1767 758.261 19.196ZM726.061 30.4901C725.747 29.4838 726.454 28.3333 727.654 27.9094C728.823 27.495 730.13 27.9642 730.456 28.9496C730.77 29.9558 729.998 31.1253 728.809 31.5284C727.592 31.9571 726.375 31.4963 726.061 30.4901ZM694.602 41.3389C694.287 40.3327 694.978 39.1869 696.152 38.7885C697.325 38.3901 698.552 38.8829 698.861 39.8731C699.176 40.8793 698.448 42.0186 697.274 42.4169C696.111 42.8474 694.916 42.3451 694.602 41.3389ZM664.19 51.5997C663.876 50.5934 664.54 49.4732 665.681 49.0843C666.838 48.6906 668.005 49.2184 668.32 50.2246C668.634 51.2309 667.954 52.3559 666.792 52.7335C665.651 53.1224 664.504 52.6059 664.19 51.5997ZM635.08 61.1277C634.765 60.1215 635.381 59.0154 636.468 58.6775C637.549 58.3236 638.701 58.8561 639.015 59.8624C639.329 60.8686 638.677 61.9681 637.595 62.322C636.492 62.6647 635.378 62.1387 635.08 61.1277ZM607.412 69.8115C607.082 68.8101 607.643 67.755 608.665 67.4361C609.688 67.1171 610.796 67.6799 611.126 68.6814C611.456 69.6829 610.863 70.7474 609.841 71.0663C608.825 71.3485 607.738 70.797 607.412 69.8115ZM581.633 77.0314C581.303 76.0299 581.793 75.0306 582.738 74.8043C583.683 74.5779 584.741 75.2078 585.071 76.2092C585.402 77.2107 584.879 78.2195 583.918 78.4506C582.973 78.677 581.947 78.0377 581.633 77.0314ZM557.489 81.3968C557.17 80.3745 557.626 79.4376 558.515 79.3151C559.403 79.1926 560.404 79.9264 560.723 80.9487C561.042 81.971 560.554 82.9174 559.65 83.0446C558.761 83.1671 557.792 82.4238 557.489 81.3968ZM534.69 83.1676C534.383 82.1246 534.794 81.2707 535.641 81.2474C536.489 81.2241 537.445 82.041 537.748 83.068C538.056 84.1111 537.597 84.9791 536.754 85.0184C535.922 85.037 534.998 84.2107 534.69 83.1676ZM512.983 82.7849C512.68 81.7579 513.057 80.9664 513.855 81.0102C514.669 81.0492 515.591 81.9285 515.91 82.9507C516.213 83.9777 515.792 84.7994 514.995 84.7557C514.176 84.7006 513.286 83.8119 512.983 82.7849ZM492.196 80.6133C491.877 79.591 492.22 78.8619 493.005 78.9793C493.785 79.0807 494.7 79.9967 495.015 81.0029C495.333 82.0252 494.942 82.7686 494.162 82.6672C493.394 82.5451 492.51 81.6195 492.196 80.6133ZM472.103 77.0684C471.777 76.0829 472.098 75.3953 472.844 75.559C473.601 75.702 474.505 76.6388 474.831 77.6242C475.161 78.6257 474.792 79.3275 474.046 79.1638C473.3 79.0001 472.428 78.0538 472.103 77.0684ZM452.525 72.5515C452.172 71.5915 452.475 70.9616 453.209 71.1461C453.944 71.3306 454.844 72.2513 455.197 73.2113C455.533 74.1759 455.203 74.8314 454.469 74.6469C453.734 74.4625 452.862 73.5161 452.525 72.5515ZM433.211 67.4509C432.852 66.5278 433.116 65.9441 433.855 66.1447C434.595 66.3452 435.506 67.2452 435.87 68.1844C436.234 69.1235 435.906 69.7262 435.187 69.5369C434.443 69.3203 433.571 68.374 433.211 67.4509ZM414.009 62.1954C413.622 61.2978 413.88 60.751 414.619 60.9515C415.358 61.1521 416.276 62.0153 416.663 62.9129C417.049 63.8104 416.733 64.3923 416.014 64.203C415.275 64.0025 414.396 63.093 414.009 62.1954ZM394.678 57.1525C394.284 56.2917 394.525 55.7496 395.26 55.9341C395.995 56.1186 396.956 56.9515 397.349 57.8123C397.742 58.673 397.442 59.2501 396.707 59.0657C395.972 58.8812 395.071 58.0132 394.678 57.1525ZM375.027 52.7442C374.607 51.909 374.869 51.3782 375.61 51.5258C376.367 51.6688 377.335 52.4649 377.755 53.3001C378.16 54.1401 377.859 54.7172 377.113 54.5535C376.372 54.4058 375.448 53.5795 375.027 52.7442ZM354.844 49.3655C354.411 48.5511 354.685 47.9995 355.449 48.1056C356.229 48.2069 357.23 48.9407 357.662 49.7552C358.094 50.5697 357.782 51.1675 356.998 51.0501C356.234 50.944 355.276 50.18 354.844 49.3655ZM333.948 47.4178C333.521 46.6193 333.785 46.0356 334.599 46.0747C335.412 46.1137 336.448 46.7851 336.875 47.5836C337.302 48.382 336.984 49.0167 336.165 48.9616C335.372 48.9339 334.391 48.2115 333.948 47.4178ZM312.11 47.3005C311.666 46.5068 311.985 45.8721 312.828 45.8327C313.676 45.8094 314.74 46.4024 315.179 47.1801C315.623 47.9738 315.249 48.6595 314.406 48.6989C313.563 48.7382 312.537 48.0989 312.11 47.3005ZM289.13 49.4037C288.703 48.6053 289.046 47.8762 289.939 47.7697C290.811 47.652 291.909 48.1827 292.353 48.9764C292.78 49.7748 292.382 50.555 291.51 50.6727C290.622 50.7952 289.578 50.2135 289.13 49.4037ZM264.803 54.1545C264.387 53.3353 264.786 52.5023 265.731 52.2759C266.676 52.0495 267.825 52.5131 268.241 53.3323C268.657 54.1515 268.202 55.0356 267.258 55.262C266.297 55.4931 265.219 54.9737 264.803 54.1545ZM238.524 62.3416C238.092 61.5271 238.564 60.5854 239.604 60.2089C240.645 59.8323 241.861 60.1712 242.293 60.9857C242.725 61.8002 242.198 62.7929 241.158 63.1695C240.134 63.5413 238.956 63.156 238.524 62.3416ZM209.841 74.0286C209.398 73.2349 209.92 72.2261 211.044 71.7202C212.173 71.2302 213.473 71.4398 213.917 72.2335C214.36 73.0271 213.788 74.103 212.659 74.5929C211.551 75.0942 210.285 74.8222 209.841 74.0286ZM179.087 88.6289C178.628 87.84 179.228 86.7386 180.413 86.1448C181.614 85.5462 182.981 85.6839 183.419 86.4616C183.879 87.2505 183.241 88.3982 182.039 88.9968C180.854 89.5906 179.526 89.4066 179.087 88.6289ZM146.635 105.632C146.192 104.838 146.82 103.658 148.088 102.988C149.335 102.306 150.751 102.377 151.194 103.17C151.638 103.964 150.949 105.179 149.703 105.86C148.44 106.547 147.078 106.425 146.635 105.632ZM112.731 124.632C112.299 123.818 112.994 122.566 114.295 121.833C115.592 121.085 117.031 121.114 117.463 121.928C117.895 122.743 117.157 124.024 115.86 124.773C114.563 125.522 113.163 125.447 112.731 124.632ZM77.801 145.121C77.3962 144.282 78.1251 142.968 79.4604 142.173C80.7958 141.378 82.246 141.386 82.6508 142.226C83.0715 143.061 82.2833 144.41 80.9479 145.205C79.6173 146.016 78.2104 145.978 77.801 145.121ZM42.0919 166.695C41.7098 165.814 42.4773 164.454 43.8353 163.617C45.198 162.796 46.6482 162.805 47.0256 163.67C47.419 164.531 46.5968 165.942 45.2388 166.779C43.8856 167.632 42.474 167.577 42.0919 166.695ZM5.97638 188.843C5.62163 187.936 6.42304 186.513 7.79707 185.672C9.17111 184.83 10.5939 184.864 10.9647 185.767C11.3195 186.674 10.4907 188.122 9.10064 188.968C7.73134 189.825 6.33586 189.766 5.97638 188.843ZM-30.2618 211.166C-30.5939 210.217 -29.7652 208.769 -28.3911 207.928C-27.0171 207.086 -25.6169 207.162 -25.2847 208.11C-24.9526 209.059 -25.8087 210.532 -27.1828 211.374C-28.5568 212.215 -29.9457 212.119 -30.2618 211.166ZM-66.2548 233.137C-66.5643 232.147 -65.7241 230.678 -64.3614 229.858C-62.9987 229.037 -61.6371 229.159 -61.3276 230.149C-61.0181 231.139 -61.8904 232.617 -63.2483 233.454C-64.6111 234.274 -65.9453 234.127 -66.2548 233.137ZM-101.735 254.364C-102.017 253.349 -101.177 251.88 -99.8366 251.101C-98.5125 250.327 -97.1736 250.49 -96.8915 251.505C-96.6093 252.521 -97.4816 253.999 -98.8169 254.794C-100.136 255.585 -101.448 255.396 -101.735 254.364ZM-136.292 274.343C-136.547 273.301 -135.718 271.853 -134.433 271.125C-133.147 270.397 -131.854 270.644 -131.599 271.685C-131.328 272.721 -132.189 274.179 -133.486 274.928C-134.771 275.656 -136.033 275.4 -136.292 274.343ZM-169.685 292.652C-169.928 291.59 -169.138 290.188 -167.903 289.527C-166.667 288.866 -165.44 289.184 -165.18 290.242C-164.921 291.299 -165.743 292.71 -166.994 293.376C-168.23 294.037 -169.441 293.714 -169.685 292.652ZM-201.536 308.797C-201.779 307.735 -201.039 306.4 -199.849 305.822C-198.675 305.249 -197.492 305.65 -197.249 306.712C-197.005 307.774 -197.762 309.114 -198.952 309.692C-200.126 310.265 -201.276 309.854 -201.536 308.797ZM-231.554 322.343C-231.813 321.285 -231.13 320.055 -230.028 319.59C-228.927 319.126 -227.811 319.599 -227.551 320.656C-227.292 321.713 -227.991 322.949 -229.093 323.413C-230.194 323.878 -231.294 323.4 -231.554 322.343ZM-259.401 332.841C-259.683 331.826 -259.088 330.708 -258.043 330.348C-257.031 329.997 -255.992 330.562 -255.721 331.599C-255.45 332.635 -256.033 333.732 -257.046 334.083C-258.08 334.423 -259.119 333.857 -259.401 332.841ZM-285.308 340.395C-285.59 339.38 -285.03 338.325 -284.062 338.057C-283.078 337.784 -282.057 338.407 -281.759 339.418C-281.477 340.434 -282.043 341.473 -283.01 341.741C-283.994 342.014 -285.026 341.411 -285.308 340.395ZM-311.092 347.128C-311.374 346.112 -310.813 345.057 -309.836 344.822C-308.863 344.57 -307.833 345.225 -307.535 346.236C-307.253 347.252 -307.802 348.286 -308.795 348.527C-309.768 348.778 -310.809 348.144 -311.092 347.128ZM-336.834 353.291C-337.116 352.275 -336.566 351.241 -335.585 351.021C-334.603 350.801 -333.572 351.456 -333.29 352.472C-333.008 353.488 -333.562 354.506 -334.544 354.726C-335.521 354.962 -336.547 354.322 -336.834 353.291ZM-362.587 359.003C-362.869 357.987 -362.315 356.969 -361.328 356.765C-360.362 356.55 -359.327 357.221 -359.04 358.253C-358.758 359.269 -359.317 360.271 -360.283 360.486C-361.274 360.674 -362.305 360.018 -362.587 359.003ZM-388.315 364.324C-388.598 363.308 -388.038 362.306 -387.068 362.107C-386.098 361.908 -385.062 362.579 -384.78 363.595C-384.498 364.611 -385.062 365.597 -386.032 365.796C-386.998 366.011 -388.033 365.339 -388.315 364.324ZM-414.056 369.369C-414.338 368.354 -413.79 367.372 -412.815 367.189C-411.84 367.006 -410.804 367.678 -410.522 368.693C-410.24 369.709 -410.793 370.674 -411.768 370.857C-412.743 371.04 -413.774 370.385 -414.056 369.369ZM-439.768 374.215C-440.061 373.22 -439.497 372.234 -438.522 372.051C-437.547 371.868 -436.512 372.539 -436.23 373.555C-435.936 374.55 -436.505 375.52 -437.48 375.703C-438.455 375.886 -439.49 375.214 -439.768 374.215ZM-465.513 378.948C-465.806 377.953 -465.238 376.983 -464.263 376.8C-463.287 376.617 -462.252 377.288 -461.975 378.288C-461.681 379.283 -462.255 380.237 -463.23 380.42C-464.189 380.598 -465.219 379.942 -465.513 378.948ZM-491.21 383.666C-491.503 382.671 -490.93 381.717 -489.971 381.539C-488.996 381.356 -487.961 382.028 -487.672 383.006C-487.378 384.001 -487.936 384.951 -488.916 385.118C-489.891 385.301 -490.921 384.645 -491.21 383.666ZM-516.957 388.452C-517.246 387.473 -516.688 386.524 -515.713 386.341C-514.738 386.158 -513.708 386.813 -513.419 387.792C-513.13 388.771 -513.687 389.72 -514.663 389.903C-515.638 390.086 -516.668 389.431 -516.957 388.452ZM-542.673 393.403C-542.961 392.424 -542.404 391.475 -541.434 391.276C-540.459 391.093 -539.433 391.732 -539.144 392.711C-538.855 393.69 -539.413 394.639 -540.388 394.822C-541.342 395.017 -542.384 394.382 -542.673 393.403ZM-568.419 398.607C-568.703 397.644 -568.15 396.679 -567.163 396.475C-566.193 396.276 -565.156 396.895 -564.867 397.874C-564.578 398.853 -565.136 399.802 -566.122 400.006C-567.093 400.205 -568.13 399.586 -568.419 398.607ZM-594.15 404.156C-594.434 403.193 -593.881 402.228 -592.9 402.008C-591.918 401.788 -590.897 402.412 -590.597 403.37C-590.313 404.332 -590.865 405.298 -591.847 405.518C-592.829 405.737 -593.861 405.135 -594.15 404.156ZM-619.907 410.148C-620.191 409.186 -619.627 408.2 -618.65 407.964C-617.673 407.728 -616.641 408.33 -616.357 409.293C-616.073 410.256 -616.637 411.242 -617.598 411.473C-618.591 411.714 -619.623 411.111 -619.907 410.148ZM-645.656 416.644C-645.94 415.681 -645.381 414.679 -644.413 414.411C-643.441 414.159 -642.397 414.741 -642.113 415.704C-641.829 416.667 -642.388 417.669 -643.361 417.921C-644.344 418.193 -645.367 417.623 -645.656 416.644Z" fill="url(#paint0_linear_351_759)"/>
</g>
</g>
<defs>
<linearGradient id="paint0_linear_351_759" x1="1111.25" y1="-121.489" x2="404.864" y2="702.666" gradientUnits="userSpaceOnUse">
<stop stop-color="#07EDD2"/>
<stop offset="1" stop-color="#9C63F7"/>
</linearGradient>
</defs>
</svg>
