<svg width="1280" height="391" viewBox="0 0 1280 391" fill="none" xmlns="http://www.w3.org/2000/svg">
<g opacity="0.129">
<g opacity="0.129">
<path opacity="0.129" d="M1346.27 -247.505C1345.81 -248.119 1346.05 -248.836 1346.81 -249.079C1347.59 -249.327 1348.59 -249.011 1349.05 -248.397C1349.5 -247.778 1349.25 -247.077 1348.47 -246.829C1347.69 -246.581 1346.71 -246.886 1346.27 -247.505ZM1323.05 -239.978C1322.58 -240.588 1322.78 -241.311 1323.51 -241.561C1324.25 -241.795 1325.23 -241.474 1325.71 -240.865C1326.18 -240.255 1325.97 -239.548 1325.25 -239.319C1324.53 -239.069 1323.53 -239.369 1323.05 -239.978ZM1300.88 -232.495C1300.36 -233.111 1300.49 -233.811 1301.18 -234.051C1301.9 -234.296 1302.9 -233.98 1303.41 -233.364C1303.92 -232.748 1303.76 -232.055 1303.05 -231.81C1302.37 -231.574 1301.39 -231.879 1300.88 -232.495ZM1279.51 -225.025C1278.97 -225.632 1279.04 -226.349 1279.73 -226.59C1280.41 -226.825 1281.41 -226.51 1281.98 -225.892C1282.52 -225.285 1282.43 -224.595 1281.76 -224.343C1281.04 -224.098 1280.06 -224.402 1279.51 -225.025ZM1258.82 -217.58C1258.23 -218.188 1258.25 -218.892 1258.91 -219.139C1259.57 -219.386 1260.62 -219.068 1261.22 -218.46C1261.81 -217.851 1261.74 -217.15 1261.09 -216.923C1260.44 -216.66 1259.42 -216.971 1258.82 -217.58ZM1238.59 -210.145C1237.94 -210.755 1237.9 -211.461 1238.58 -211.712C1239.22 -211.955 1240.29 -211.626 1240.92 -211.027C1241.56 -210.412 1241.57 -209.734 1240.92 -209.492C1240.29 -209.233 1239.24 -209.535 1238.59 -210.145ZM1218.69 -202.725C1217.99 -203.337 1217.92 -204.033 1218.55 -204.27C1219.19 -204.513 1220.32 -204.198 1221 -203.581C1221.69 -202.98 1221.72 -202.275 1221.09 -202.037C1220.46 -201.816 1219.38 -202.108 1218.69 -202.725ZM1198.88 -195.312C1198.13 -195.91 1198.01 -196.624 1198.67 -196.871C1199.29 -197.108 1200.45 -196.787 1201.19 -196.185C1201.93 -195.582 1202.02 -194.895 1201.4 -194.658C1200.74 -194.395 1199.62 -194.693 1198.88 -195.312ZM1179.03 -187.885C1178.22 -188.485 1178.07 -189.189 1178.69 -189.427C1179.34 -189.669 1180.54 -189.362 1181.34 -188.742C1182.13 -188.137 1182.24 -187.439 1181.6 -187.213C1181 -186.985 1179.83 -187.286 1179.03 -187.885ZM1158.94 -180.461C1158.08 -181.063 1157.9 -181.758 1158.56 -182.005C1159.2 -182.247 1160.44 -181.933 1161.3 -181.332C1162.14 -180.725 1162.31 -180.042 1161.66 -179.816C1160.99 -179.548 1159.78 -179.855 1158.94 -180.461ZM1138.44 -173.02C1137.55 -173.628 1137.33 -174.313 1137.99 -174.56C1138.65 -174.791 1139.94 -174.492 1140.84 -173.884C1141.73 -173.275 1141.92 -172.597 1141.25 -172.366C1140.59 -172.119 1139.34 -172.411 1138.44 -173.02ZM1117.34 -165.557C1116.4 -166.151 1116.16 -166.848 1116.87 -167.093C1117.55 -167.328 1118.92 -167.016 1119.84 -166.417C1120.77 -165.818 1120.97 -165.128 1120.29 -164.893C1119.59 -164.668 1118.28 -164.963 1117.34 -165.557ZM1095.46 -158.074C1094.48 -158.675 1094.25 -159.376 1094.97 -159.621C1095.68 -159.866 1097.08 -159.547 1098.06 -158.946C1099.04 -158.346 1099.24 -157.672 1098.53 -157.427C1097.83 -157.186 1096.44 -157.473 1095.46 -158.074ZM1072.66 -150.565C1071.65 -151.156 1071.41 -151.852 1072.17 -152.112C1072.92 -152.35 1074.37 -152.045 1075.36 -151.449C1076.36 -150.854 1076.58 -150.168 1075.83 -149.93C1075.09 -149.675 1073.68 -149.957 1072.66 -150.565ZM1048.72 -143.016C1047.69 -143.618 1047.48 -144.324 1048.27 -144.556C1049.05 -144.804 1050.55 -144.498 1051.58 -143.895C1052.62 -143.292 1052.8 -142.614 1052.02 -142.366C1051.23 -142.134 1049.75 -142.413 1048.72 -143.016ZM1023.24 -135.309C1022.21 -135.911 1022.02 -136.622 1022.87 -136.873C1023.74 -137.129 1025.3 -136.841 1026.34 -136.238C1027.37 -135.636 1027.52 -134.948 1026.64 -134.687C1025.79 -134.42 1024.26 -134.702 1023.24 -135.309ZM996.084 -126.914C995.067 -127.522 994.919 -128.263 995.829 -128.548C996.706 -128.825 998.29 -128.542 999.306 -127.935C1000.32 -127.327 1000.43 -126.609 999.536 -126.328C998.631 -126.026 997.1 -126.307 996.084 -126.914ZM967.941 -117.951C966.957 -118.567 966.851 -119.339 967.761 -119.624C968.703 -119.92 970.287 -119.637 971.271 -119.02C972.255 -118.403 972.319 -117.655 971.382 -117.343C970.472 -117.058 968.925 -117.334 967.941 -117.951ZM938.918 -108.483C937.961 -109.125 937.903 -109.911 938.873 -110.232C939.81 -110.543 941.378 -110.255 942.35 -109.618C943.307 -108.976 943.323 -108.213 942.386 -107.901C941.4 -107.576 939.875 -107.841 938.918 -108.483ZM909.208 -98.6213C908.278 -99.289 908.269 -100.089 909.234 -100.426C910.187 -100.742 911.787 -100.463 912.717 -99.7957C913.641 -99.144 913.586 -98.3254 912.633 -98.0093C911.648 -97.6837 910.117 -97.9649 909.208 -98.6213ZM878.899 -88.4258C878.018 -89.1077 878.08 -89.9632 879.049 -90.284C880.018 -90.6048 881.57 -90.3123 882.451 -89.6304C883.333 -88.9484 883.262 -88.1251 882.292 -87.8043C881.327 -87.4674 879.797 -87.7486 878.899 -88.4258ZM848.25 -78.0251C847.412 -78.7372 847.489 -79.5974 848.47 -79.939C849.483 -80.2901 850.996 -79.9514 851.845 -79.26C852.699 -78.5525 852.564 -77.7102 851.551 -77.3592C850.57 -77.0176 849.088 -77.3129 848.25 -78.0251ZM817.314 -67.4703C816.52 -68.2127 816.673 -69.1126 817.658 -69.4381C818.639 -69.7797 820.136 -69.4363 820.93 -68.6938C821.736 -67.9722 821.578 -67.0883 820.577 -66.7581C819.596 -66.4165 818.109 -66.7278 817.314 -67.4703ZM786.324 -56.8645C785.578 -57.6211 785.726 -58.537 786.728 -58.8673C787.708 -59.2089 789.194 -58.8446 789.956 -58.0927C790.719 -57.3408 790.497 -56.4381 789.5 -56.0917C788.494 -55.7775 787.087 -56.1126 786.324 -56.8645ZM755.373 -46.3049C754.67 -47.0918 754.866 -48.0219 755.879 -48.373C756.86 -48.7146 758.265 -48.3267 758.984 -47.5445C759.703 -46.7624 759.465 -45.8549 758.484 -45.5133C757.456 -45.1575 756.092 -45.5228 755.373 -46.3049ZM724.648 -35.8645C723.988 -36.6816 724.233 -37.626 725.214 -37.9676C726.183 -38.2884 727.54 -37.8863 728.216 -37.0739C728.887 -36.2775 728.637 -35.3492 727.657 -35.0077C726.676 -34.6661 725.323 -35.0521 724.648 -35.8645ZM694.328 -25.6482C693.7 -26.4748 693.956 -27.4399 694.91 -27.756C695.895 -28.0815 697.209 -27.6492 697.836 -26.8226C698.464 -25.996 698.182 -25.0582 697.201 -24.7166C696.248 -24.4006 694.955 -24.8216 694.328 -25.6482ZM664.511 -15.7372C663.926 -16.594 664.215 -17.5686 665.152 -17.88C666.089 -18.1913 667.359 -17.7287 667.96 -16.8766C668.56 -16.0245 668.262 -15.082 667.325 -14.7707C666.372 -14.4546 665.095 -14.8804 664.511 -15.7372ZM635.416 -6.21389C634.864 -7.0802 635.132 -8.06609 636.074 -8.36139C637 -8.65196 638.206 -8.17042 638.779 -7.2928C639.331 -6.4265 639.054 -5.47271 638.128 -5.18214C637.17 -4.88211 635.968 -5.34759 635.416 -6.21389ZM607.123 2.82918C606.582 1.94209 606.886 0.962789 607.78 0.68169C608.674 0.400591 609.841 0.928426 610.377 1.79946C610.918 2.68655 610.62 3.62903 609.726 3.91012C608.849 4.18649 607.659 3.70021 607.123 2.82918ZM579.871 11.2681C579.363 10.3716 579.603 9.41123 580.465 9.13959C581.342 8.86323 582.482 9.41657 583.007 10.3084C583.532 11.2002 583.25 12.1379 582.372 12.4143C581.495 12.6907 580.38 12.1647 579.871 11.2681ZM554.033 18.523C553.508 17.6312 553.746 16.7237 554.558 16.5191C555.354 16.3193 556.45 16.9029 556.959 17.7995C557.468 18.696 557.236 19.5667 556.44 19.7665C555.629 19.971 554.537 19.4035 554.033 18.523ZM529.563 23.56C529.032 22.705 529.204 21.8693 529.998 21.7223C530.76 21.5848 531.845 22.1892 532.365 23.065C532.896 23.92 532.704 24.7444 531.921 24.8705C531.143 25.0128 530.095 24.415 529.563 23.56ZM505.948 26.8798C505.394 26.0664 505.521 25.3138 506.297 25.2244C507.041 25.1446 508.11 25.7537 508.669 26.5831C509.223 27.3966 509.059 28.1426 508.315 28.2224C507.55 28.291 506.502 27.6932 505.948 26.8798ZM483.109 28.7497C482.532 27.9779 482.614 27.3084 483.335 27.2701C484.072 27.2271 485.158 27.8314 485.734 28.6033C486.311 29.3752 486.188 30.022 485.45 30.065C484.745 30.0986 483.68 29.5056 483.109 28.7497ZM460.856 29.4174C460.251 28.7239 460.319 28.1281 461.029 28.1105C461.739 28.093 462.82 28.6813 463.43 29.3908C464.041 30.1004 463.968 30.6801 463.253 30.6816C462.543 30.6992 461.467 30.1269 460.856 29.4174ZM439.086 29.1754C438.446 28.5443 438.454 28.0363 439.136 28.0443C439.856 28.0588 440.959 28.6056 441.603 29.2528C442.243 29.8839 442.204 30.4013 441.496 30.366C440.808 30.342 439.726 29.8066 439.086 29.1754ZM417.646 28.2779C416.956 27.7139 416.934 27.2843 417.642 27.3196C418.33 27.3437 419.455 27.8488 420.145 28.4129C420.819 28.9817 420.82 29.4 420.149 29.3712C419.42 29.3246 418.315 28.8307 417.646 28.2779ZM396.404 26.9904C395.685 26.5047 395.613 26.1422 396.289 26.187C396.965 26.2318 398.157 26.6652 398.876 27.1509C399.595 27.6366 399.614 27.9972 398.938 27.9524C398.262 27.9076 397.123 27.4761 396.404 26.9904ZM375.215 25.5829C374.45 25.1803 374.344 24.8802 375.053 24.9155C375.729 24.9603 376.934 25.32 377.686 25.7434C378.451 26.146 378.508 26.4603 377.828 26.3994C377.136 26.3594 375.979 25.9854 375.215 25.5829ZM353.966 24.3322C353.157 24.0127 353.033 23.7702 353.721 23.7942C354.408 23.8182 355.652 24.1316 356.466 24.4671C357.264 24.8074 357.335 25.0481 356.659 25.0033C355.962 24.9472 354.76 24.6563 353.966 24.3322ZM332.471 23.4857C331.628 23.2286 331.486 23.0437 332.185 23.0469C332.872 23.0709 334.156 23.2852 334.984 23.5471C335.827 23.8042 335.937 23.9986 335.249 23.9745C334.551 23.9713 333.315 23.7428 332.471 23.4857ZM310.66 23.3429C309.788 23.1642 309.619 23.0048 310.313 22.992C311.023 22.9744 312.357 23.1216 313.234 23.3164C314.111 23.5112 314.212 23.6735 313.513 23.6702C312.814 23.667 311.549 23.5169 310.66 23.3429ZM288.34 24.1352C287.434 24.0188 287.254 23.8802 287.991 23.8371C288.712 23.7988 290.071 23.8516 290.966 23.9887C291.877 24.1212 292.021 24.2532 291.3 24.2915C290.578 24.3299 289.247 24.2516 288.34 24.1352ZM265.406 26.1554C264.477 26.0806 264.301 25.9579 265.045 25.8781C265.789 25.7982 267.214 25.7791 268.143 25.854C269.072 25.9288 269.199 26.0656 268.455 26.1455C267.711 26.2254 266.335 26.2302 265.406 26.1554ZM241.725 29.6688C240.774 29.6355 240.582 29.5177 241.376 29.3707C242.138 29.2332 243.576 29.1405 244.527 29.1738C245.479 29.2071 245.623 29.3391 244.861 29.4766C244.062 29.6075 242.672 29.686 241.725 29.6688ZM217.116 34.9391C216.141 34.9474 215.988 34.7832 216.8 34.5786C217.596 34.3788 219.067 34.2238 220.042 34.2155C221 34.2119 221.137 34.3808 220.341 34.5806C219.546 34.7805 218.09 34.9308 217.116 34.9391ZM190.914 43.0336C189.951 43.0211 189.843 42.7738 190.728 42.4606C191.596 42.1521 193.113 41.914 194.087 41.9057C195.046 41.9021 195.121 42.1589 194.253 42.4673C193.373 42.7966 191.872 43.03 190.914 43.0336ZM162.856 53.8212C161.92 53.7832 161.889 53.4434 162.808 53.0678C163.726 52.6923 165.271 52.4286 166.206 52.4666C167.142 52.5046 167.156 52.8492 166.238 53.2248C165.331 53.5795 163.791 53.8592 162.856 53.8212ZM133.444 66.5256C132.542 66.4253 132.557 66.0023 133.53 65.5757C134.487 65.1539 136.027 64.8742 136.94 64.9538C137.837 65.0381 137.806 65.4658 136.838 65.9084C135.853 66.3557 134.346 66.626 133.444 66.5256ZM102.863 80.8832C101.999 80.7366 102.103 80.2002 103.099 79.7321C104.094 79.264 105.618 78.989 106.481 79.1356C107.344 79.2822 107.236 79.8026 106.245 80.2867C105.249 80.7548 103.71 81.0346 102.863 80.8832ZM71.357 96.5425C70.5553 96.308 70.6926 95.7093 71.711 95.1996C72.7567 94.6645 74.2785 94.4424 75.0916 94.6561C75.9046 94.8698 75.7352 95.4779 74.6734 96.0178C73.639 96.5323 72.1588 96.777 71.357 96.5425ZM39.1111 113.24C38.3594 112.938 38.5694 112.231 39.6264 111.675C40.656 111.145 42.1504 110.948 42.9022 111.25C43.654 111.551 43.4232 112.247 42.3775 112.782C41.3092 113.359 39.8469 113.546 39.1111 113.24ZM6.38611 130.62C5.69563 130.23 5.97166 129.451 7.0079 128.884C8.09228 128.302 9.52067 128.177 10.2272 128.562C10.9177 128.952 10.6208 129.719 9.53646 130.301C8.48417 130.873 7.06053 131.014 6.38611 130.62ZM-26.6662 148.427C-27.2953 147.95 -26.9741 147.088 -25.8897 146.506C-24.8374 145.934 -23.4429 145.872 -22.8138 146.349C-22.1846 146.826 -22.5267 147.677 -23.595 148.254C-24.6794 148.835 -26.0323 148.92 -26.6662 148.427ZM-59.743 166.329C-60.3109 165.764 -59.9282 164.814 -58.8872 164.262C-57.8029 163.681 -56.4584 163.686 -55.8906 164.251C-55.3227 164.816 -55.7147 165.734 -56.8152 166.32C-57.8674 166.892 -59.1751 166.894 -59.743 166.329ZM-92.7066 184.023C-93.2132 183.37 -92.7759 182.369 -91.7075 181.792C-90.6666 181.241 -89.3834 181.333 -88.8768 181.986C-88.3702 182.639 -88.8123 183.624 -89.8693 184.18C-90.9537 184.762 -92.2161 184.681 -92.7066 184.023ZM-125.286 201.185C-125.732 200.445 -125.276 199.386 -124.231 198.851C-123.201 198.32 -121.952 198.475 -121.507 199.216C-121.066 199.941 -121.574 200.997 -122.615 201.549C-123.64 202.095 -124.841 201.926 -125.286 201.185ZM-157.298 217.552C-157.678 216.74 -157.2 215.639 -156.149 215.12C-155.147 214.615 -153.986 214.883 -153.591 215.691C-153.196 216.499 -153.715 217.577 -154.718 218.082C-155.779 218.622 -156.919 218.365 -157.298 217.552ZM-188.493 232.788C-188.827 231.893 -188.317 230.783 -187.337 230.319C-186.357 229.856 -185.242 230.207 -184.897 231.082C-184.551 231.957 -185.11 233.081 -186.089 233.545C-187.085 234.013 -188.163 233.668 -188.493 232.788ZM-218.7 246.582C-218.995 245.64 -218.474 244.509 -217.501 244.083C-216.56 243.666 -215.533 244.13 -215.226 245.052C-214.931 245.994 -215.462 247.092 -216.398 247.525C-217.387 247.957 -218.4 247.54 -218.7 246.582ZM-247.671 258.651C-247.928 257.662 -247.39 256.527 -246.499 256.177C-245.592 255.822 -244.6 256.349 -244.343 257.338C-244.07 258.321 -244.633 259.429 -245.535 259.8C-246.426 260.15 -247.394 259.65 -247.671 258.651ZM-275.152 268.675C-275.402 267.65 -274.904 266.561 -274.03 266.268C-273.173 265.981 -272.274 266.605 -272.024 267.63C-271.779 268.639 -272.282 269.712 -273.139 270C-274.028 270.297 -274.907 269.684 -275.152 268.675ZM-301.137 276.322C-301.371 275.292 -300.879 274.24 -300.056 274.014C-299.233 273.789 -298.372 274.46 -298.122 275.485C-297.888 276.515 -298.357 277.525 -299.18 277.751C-300.004 277.976 -300.892 277.331 -301.137 276.322ZM-326.9 283.24C-327.129 282.227 -326.669 281.184 -325.842 280.975C-324.998 280.761 -324.121 281.426 -323.887 282.456C-323.658 283.47 -324.127 284.481 -324.971 284.695C-325.799 284.904 -326.655 284.25 -326.9 283.24ZM-352.662 289.81C-352.907 288.801 -352.406 287.781 -351.594 287.576C-350.766 287.367 -349.901 288.053 -349.655 289.063C-349.41 290.072 -349.889 291.05 -350.717 291.259C-351.549 291.453 -352.437 290.808 -352.662 289.81ZM-378.417 296.046C-378.658 295.053 -378.184 294.058 -377.34 293.844C-376.523 293.656 -375.647 294.322 -375.406 295.315C-375.165 296.308 -375.649 297.27 -376.461 297.475C-377.321 297.693 -378.177 297.039 -378.417 296.046ZM-404.175 302.038C-404.411 301.061 -403.916 300.078 -403.099 299.89C-402.283 299.701 -401.406 300.367 -401.165 301.36C-400.929 302.337 -401.397 303.295 -402.218 303.467C-403.051 303.66 -403.939 303.015 -404.175 302.038ZM-429.92 307.835C-430.151 306.874 -429.704 305.905 -428.867 305.728C-428.018 305.53 -427.158 306.201 -426.906 307.173C-426.675 308.134 -427.131 309.071 -427.984 309.253C-428.817 309.446 -429.668 308.808 -429.92 307.835ZM-455.666 313.511C-455.909 312.57 -455.441 311.613 -454.588 311.431C-453.767 311.258 -452.895 311.908 -452.652 312.848C-452.41 313.788 -452.887 314.714 -453.708 314.887C-454.573 315.089 -455.44 314.455 -455.666 313.511ZM-481.4 319.112C-481.637 318.188 -481.181 317.251 -480.36 317.079C-479.506 316.897 -478.639 317.53 -478.397 318.471C-478.159 319.395 -478.625 320.3 -479.478 320.482C-480.304 320.638 -481.162 320.036 -481.4 319.112ZM-507.158 324.686C-507.391 323.778 -506.93 322.857 -506.093 322.68C-505.272 322.508 -504.393 323.121 -504.155 324.045C-503.922 324.953 -504.393 325.842 -505.214 326.014C-506.051 326.191 -506.921 325.61 -507.158 324.686ZM-532.882 330.32C-533.126 329.433 -532.661 328.528 -531.844 328.339C-530.991 328.157 -530.133 328.759 -529.884 329.662C-529.64 330.55 -530.11 331.439 -530.963 331.621C-531.785 331.793 -532.654 331.212 -532.882 330.32ZM-558.641 336.069C-558.881 335.198 -558.415 334.293 -557.562 334.111C-556.745 333.922 -555.872 334.519 -555.632 335.391C-555.393 336.262 -555.868 337.135 -556.684 337.323C-557.538 337.505 -558.402 336.94 -558.641 336.069ZM-584.39 341.972C-584.63 341.1 -584.176 340.216 -583.343 340.023C-582.526 339.835 -581.625 340.406 -581.374 341.257C-581.135 342.128 -581.631 342.989 -582.447 343.178C-583.28 343.371 -584.135 342.838 -584.39 341.972ZM-610.158 348.107C-610.409 347.256 -609.934 346.383 -609.09 346.169C-608.262 345.96 -607.398 346.525 -607.147 347.376C-606.896 348.226 -607.376 349.083 -608.193 349.271C-609.036 349.485 -609.907 348.957 -610.158 348.107ZM-635.926 354.538C-636.172 353.704 -635.685 352.81 -634.857 352.601C-634.03 352.392 -633.138 352.931 -632.892 353.765C-632.646 354.6 -633.142 355.461 -633.969 355.671C-634.797 355.88 -635.68 355.373 -635.926 354.538ZM-661.679 361.314C-661.925 360.48 -661.45 359.607 -660.611 359.377C-659.787 359.152 -658.916 359.68 -658.67 360.514C-658.424 361.349 -658.904 362.205 -659.732 362.415C-660.576 362.629 -661.437 362.133 -661.679 361.314Z" fill="url(#paint0_linear_351_745)"/>
</g>
</g>
<defs>
<linearGradient id="paint0_linear_351_745" x1="1087.7" y1="-168.382" x2="590.18" y2="645.939" gradientUnits="userSpaceOnUse">
<stop stop-color="#07EDD2"/>
<stop offset="1" stop-color="#9C63F7"/>
</linearGradient>
</defs>
</svg>
