<svg width="1280" height="542" viewBox="0 0 1280 542" fill="none" xmlns="http://www.w3.org/2000/svg">
<g opacity="0.2903">
<g opacity="0.2903">
<path opacity="0.2903" d="M1381.81 -105.748C1381.79 -107.258 1382.7 -108.73 1383.82 -109.045C1384.97 -109.349 1385.92 -108.374 1385.96 -106.848C1385.98 -105.354 1385.07 -103.882 1383.92 -103.578C1382.79 -103.279 1381.83 -104.271 1381.81 -105.748ZM1357.7 -99.7355C1357.72 -101.223 1358.64 -102.646 1359.75 -102.92C1360.83 -103.189 1361.75 -102.204 1361.74 -100.717C1361.72 -99.2457 1360.78 -97.8175 1359.69 -97.5646C1358.56 -97.2861 1357.68 -98.2806 1357.7 -99.7355ZM1334.37 -94.3888C1334.45 -95.8419 1335.41 -97.206 1336.45 -97.4447C1337.53 -97.6929 1338.34 -96.7116 1338.28 -95.2633C1338.22 -93.8309 1337.27 -92.4716 1336.2 -92.2234C1335.13 -91.996 1334.28 -92.9678 1334.37 -94.3888ZM1311.71 -89.5373C1311.86 -90.9405 1312.81 -92.2517 1313.86 -92.4744C1314.88 -92.6876 1315.65 -91.745 1315.53 -90.3305C1315.39 -88.9482 1314.4 -87.6275 1313.37 -87.4096C1312.3 -87.1982 1311.58 -88.171 1311.71 -89.5373ZM1289.61 -84.9894C1289.82 -86.3426 1290.83 -87.599 1291.85 -87.8122C1292.87 -88.0255 1293.52 -87.1026 1293.32 -85.7334C1293.12 -84.4011 1292.11 -83.1285 1291.07 -82.9266C1290.05 -82.7295 1289.39 -83.6523 1289.61 -84.9894ZM1268.02 -80.5561C1268.32 -81.8479 1269.35 -83.0771 1270.35 -83.2856C1271.34 -83.4893 1271.91 -82.6116 1271.63 -81.3085C1271.35 -80.0214 1270.31 -78.8084 1269.31 -78.5999C1268.31 -78.3914 1267.73 -79.2851 1268.02 -80.5561ZM1246.79 -76.0569C1247.17 -77.3035 1248.25 -78.494 1249.23 -78.7138C1250.21 -78.9336 1250.73 -78.0899 1250.36 -76.832C1250.01 -75.5949 1248.91 -74.4158 1247.91 -74.2073C1246.92 -74.0036 1246.43 -74.8359 1246.79 -76.0569ZM1225.87 -71.3353C1226.32 -72.5319 1227.46 -73.6883 1228.44 -73.9242C1229.39 -74.1506 1229.83 -73.3569 1229.38 -72.1604C1228.95 -70.9685 1227.8 -69.812 1226.84 -69.5969C1225.86 -69.3611 1225.43 -70.1595 1225.87 -71.3353ZM1205.16 -66.1671C1205.69 -67.3345 1206.88 -68.4731 1207.84 -68.7203C1208.81 -68.9722 1209.17 -68.2398 1208.66 -67.0771C1208.16 -65.9353 1206.96 -64.7967 1205.97 -64.54C1204.99 -64.3042 1204.64 -65.0366 1205.16 -66.1671ZM1184.55 -60.4024C1185.14 -61.5358 1186.39 -62.6726 1187.35 -62.9726C1188.3 -63.2519 1188.6 -62.5742 1188.03 -61.4295C1187.47 -60.3216 1186.22 -59.1848 1185.27 -58.9055C1184.29 -58.6328 1183.98 -59.3105 1184.55 -60.4024ZM1163.94 -53.854C1164.57 -54.9648 1165.87 -56.1318 1166.84 -56.4526C1167.81 -56.7735 1168.07 -56.1345 1167.44 -55.0236C1166.82 -53.9336 1165.52 -52.7827 1164.55 -52.4619C1163.58 -52.1411 1163.32 -52.7639 1163.94 -53.854ZM1143.29 -46.3331C1143.98 -47.442 1145.3 -48.6346 1146.27 -49.0083C1147.23 -49.3772 1147.46 -48.7816 1146.79 -47.6774C1146.13 -46.5939 1144.79 -45.3967 1143.83 -45.0438C1142.86 -44.6701 1142.62 -45.2449 1143.29 -46.3331ZM1122.45 -37.6545C1123.15 -38.7682 1124.52 -40.0278 1125.49 -40.4544C1126.46 -40.8809 1126.7 -40.3222 1126 -39.2085C1125.31 -38.1156 1123.95 -36.8767 1122.96 -36.4454C1121.97 -36.0142 1121.76 -36.5616 1122.45 -37.6545ZM1101.36 -27.6502C1102.07 -28.8007 1103.45 -30.1339 1104.44 -30.6342C1105.41 -31.1136 1105.66 -30.5916 1104.93 -29.4364C1104.23 -28.3227 1102.85 -26.9894 1101.88 -26.494C1100.89 -25.9937 1100.66 -26.5204 1101.36 -27.6502ZM1079.89 -16.1028C1080.59 -17.3014 1081.97 -18.7565 1082.99 -19.319C1084.01 -19.8816 1084.27 -19.3644 1083.57 -18.1818C1082.89 -17.0039 1081.49 -15.581 1080.49 -15.0071C1079.46 -14.4238 1079.21 -14.9249 1079.89 -16.1028ZM1057.68 -2.95639C1058.32 -4.24659 1059.73 -5.7961 1060.79 -6.40494C1061.88 -7.0393 1062.23 -6.51367 1061.57 -5.23951C1060.93 -3.98613 1059.52 -2.43665 1058.45 -1.79098C1057.4 -1.16609 1057.05 -1.6917 1057.68 -2.95639ZM1033.46 10.4644C1034.04 9.09211 1035.46 7.48504 1036.64 6.87516C1037.79 6.27474 1038.3 6.8588 1037.7 8.21978C1037.12 9.55997 1035.68 11.1718 1034.53 11.7882C1033.35 12.3981 1032.88 11.8046 1033.46 10.4644ZM1007.5 23.5806C1008.03 22.1536 1009.43 20.5191 1010.68 19.9064C1011.93 19.2936 1012.51 19.9597 1011.99 21.3868C1011.47 22.7769 1010.04 24.4369 1008.79 25.0496C1007.56 25.6577 1006.99 24.9868 1007.5 23.5806ZM980.02 36.4318C980.474 34.9548 981.914 33.274 983.226 32.6952C984.522 32.1211 985.202 32.8277 984.743 34.2887C984.279 35.7336 982.855 37.4096 981.564 37.9997C980.257 38.5946 979.573 37.8719 980.02 36.4318ZM951.287 48.9534C951.678 47.4425 953.087 45.7712 954.468 45.1895C955.848 44.6078 956.627 45.3549 956.215 46.8546C955.814 48.3334 954.373 50.0142 953.013 50.6072C951.632 51.1889 950.886 50.4322 951.287 48.9534ZM921.469 61.1672C921.819 59.6336 923.243 57.9576 924.661 57.3824C926.083 56.8234 926.908 57.6092 926.553 59.1267C926.21 60.6235 924.806 62.3108 923.4 62.8652C921.982 63.4403 921.125 62.6639 921.469 61.1672ZM890.836 73.0454C891.134 71.51 892.569 69.8132 894.001 69.2862C895.46 68.7337 896.391 69.5233 896.078 71.0634C895.771 72.5667 894.368 74.254 892.924 74.8018C891.509 75.3241 890.546 74.544 890.836 73.0454ZM859.656 84.5446C859.9 83.0073 861.293 81.3407 862.778 80.8156C864.23 80.2999 865.198 81.0961 864.953 82.6333C864.7 84.1385 863.307 85.805 861.875 86.332C860.407 86.8524 859.418 86.045 859.656 84.5446ZM828.108 95.6814C828.32 94.1536 829.701 92.5079 831.153 91.9922C832.643 91.4831 833.668 92.2971 833.456 93.8249C833.25 95.3159 831.874 96.9777 830.4 97.4821C828.98 97.9883 827.918 97.1677 828.108 95.6814ZM796.493 106.419C796.658 104.905 797.995 103.29 799.469 102.785C800.931 102.302 801.992 103.123 801.828 104.636C801.655 106.118 800.322 107.749 798.876 108.228C797.382 108.721 796.32 107.9 796.493 106.419ZM764.956 116.767C765.093 115.279 766.367 113.683 767.849 113.211C769.332 112.738 770.41 113.554 770.278 115.058C770.153 116.526 768.843 118.116 767.381 118.599C765.909 119.051 764.831 118.235 764.956 116.767ZM733.816 126.685C733.904 125.211 735.155 123.656 736.606 123.193C738.025 122.74 739.123 123.567 739.035 125.041C738.937 126.483 737.674 128.059 736.256 128.512C734.816 128.954 733.718 128.127 733.816 126.685ZM703.241 136.157C703.302 134.708 704.505 133.168 705.928 132.73C707.352 132.293 708.45 133.12 708.373 134.573C708.307 136.006 707.105 137.546 705.676 137.968C704.258 138.421 703.175 137.589 703.241 136.157ZM673.513 145.187C673.558 143.743 674.685 142.242 676.065 141.835C677.408 141.421 678.491 142.253 678.451 143.713C678.412 145.12 677.253 146.63 675.91 147.044C674.562 147.441 673.479 146.61 673.513 145.187ZM644.833 153.75C644.847 152.316 645.93 150.845 647.246 150.457C648.562 150.069 649.629 150.906 649.615 152.34C649.593 153.742 648.514 155.229 647.198 155.617C645.862 155.994 644.811 155.153 644.833 153.75ZM617.469 161.804C617.466 160.375 618.469 158.928 619.705 158.563C620.957 158.194 621.975 159.045 621.978 160.474C621.971 161.872 620.952 163.324 619.7 163.693C618.469 164.073 617.467 163.218 617.469 161.804ZM591.642 169.038C591.639 167.609 592.592 166.229 593.762 165.936C594.947 165.639 595.916 166.557 595.919 167.986C595.928 169.379 594.968 170.796 593.782 171.093C592.592 171.374 591.635 170.436 591.642 169.038ZM567.1 173.713C567.113 172.279 568.037 170.977 569.144 170.825C570.262 170.652 571.173 171.674 571.181 173.12C571.179 174.533 570.239 175.839 569.121 176.012C567.994 176.153 567.077 175.115 567.1 173.713ZM543.54 175.918C543.58 174.458 544.48 173.251 545.562 173.193C546.644 173.136 547.478 174.25 547.454 175.705C547.42 177.128 546.541 178.346 545.448 178.425C544.35 178.487 543.506 177.34 543.54 175.918ZM520.84 176.072C520.896 174.607 521.794 173.453 522.815 173.483C523.872 173.52 524.677 174.713 524.621 176.178C524.571 177.605 523.662 178.78 522.609 178.76C521.568 178.718 520.774 177.504 520.84 176.072ZM498.803 174.513C498.887 173.023 499.783 171.922 500.806 172.021C501.83 172.12 502.553 173.389 502.469 174.879C502.392 176.333 501.501 177.45 500.477 177.351C499.458 177.268 498.71 175.971 498.803 174.513ZM477.293 171.665C477.425 170.161 478.346 169.087 479.315 169.237C480.321 169.394 481.026 170.721 480.91 172.22C480.785 173.688 479.889 174.789 478.883 174.632C477.898 174.487 477.168 173.132 477.293 171.665ZM456.175 167.899C456.334 166.369 457.261 165.311 458.239 165.494C459.201 165.681 459.873 167.07 459.725 168.579C459.572 170.072 458.65 171.146 457.688 170.959C456.689 170.765 456.022 169.392 456.175 167.899ZM435.257 163.568C435.448 162.029 436.402 160.945 437.374 161.165C438.346 161.384 438.985 162.783 438.793 164.322C438.609 165.824 437.655 166.908 436.672 166.709C435.705 166.506 435.077 165.087 435.257 163.568ZM414.434 159.087C414.669 157.518 415.639 156.429 416.61 156.649C417.561 156.857 418.173 158.281 417.938 159.85C417.71 161.383 416.74 162.471 415.773 162.268C414.807 162.065 414.206 160.62 414.434 159.087ZM393.508 154.846C393.775 153.267 394.767 152.137 395.745 152.32C396.728 152.518 397.308 153.952 397.041 155.531C396.781 157.073 395.772 158.207 394.773 158.014C393.811 157.827 393.252 156.404 393.508 154.846ZM372.322 151.205C372.632 149.596 373.684 148.431 374.674 148.592C375.642 148.743 376.218 150.16 375.907 151.769C375.62 153.337 374.552 154.507 373.583 154.356C372.589 154.179 372.034 152.772 372.322 151.205ZM350.742 148.534C351.085 146.916 352.17 145.688 353.194 145.788C354.218 145.887 354.767 147.277 354.446 148.907C354.11 150.489 353.024 151.716 352 151.617C350.961 151.522 350.411 150.132 350.742 148.534ZM328.611 147.247C328.981 145.603 330.117 144.309 331.17 144.33C332.19 144.36 332.747 145.714 332.393 147.353C332.03 148.96 330.894 150.255 329.857 150.229C328.82 150.203 328.264 148.85 328.611 147.247ZM305.762 147.725C306.164 146.071 307.341 144.678 308.439 144.616C309.521 144.558 310.095 145.854 309.693 147.507C309.314 149.119 308.116 150.502 307.018 150.564C305.936 150.621 305.383 149.337 305.762 147.725ZM282.072 150.317C282.49 148.659 283.723 147.161 284.845 147.004C285.979 146.827 286.55 148.054 286.148 149.707C285.742 151.345 284.499 152.81 283.366 152.988C282.248 153.16 281.665 151.954 282.072 150.317ZM257.334 155.45C257.764 153.771 259.058 152.186 260.243 151.889C261.429 151.591 262.025 152.724 261.607 154.382C261.184 156.024 259.89 157.609 258.7 157.891C257.514 158.188 256.912 157.092 257.334 155.45ZM231.276 163.555C231.689 161.881 233.019 160.18 234.251 159.747C235.5 159.309 236.175 160.296 235.762 161.97C235.355 163.608 234.005 165.297 232.777 165.746C231.555 166.159 230.869 165.192 231.276 163.555ZM204.059 174.653C204.412 173.013 205.746 171.207 207.042 170.633C208.338 170.059 209.101 170.933 208.736 172.593C208.378 174.216 207.056 176.001 205.76 176.575C204.475 177.129 203.716 176.271 204.059 174.653ZM176.001 188.283C176.275 186.667 177.574 184.802 178.921 184.108C180.226 183.444 181.078 184.204 180.788 185.825C180.51 187.424 179.207 189.274 177.902 189.938C176.587 190.622 175.723 189.883 176.001 188.283ZM147.17 204.078C147.347 202.491 148.611 200.566 149.972 199.798C151.344 199.01 152.294 199.689 152.101 201.281C151.914 202.836 150.651 204.761 149.306 205.524C147.945 206.292 147.004 205.645 147.17 204.078ZM117.769 221.611C117.834 220.057 119.04 218.114 120.398 217.277C121.804 216.426 122.843 216.992 122.762 218.551C122.672 220.078 121.482 222.016 120.108 222.857C118.766 223.689 117.711 223.128 117.769 221.611ZM87.893 240.488C87.8503 238.983 88.962 237.015 90.3699 236.112C91.794 235.203 92.9198 235.708 92.9512 237.234C92.9731 238.728 91.8841 240.654 90.4921 241.553C89.1002 242.451 87.9423 241.956 87.893 240.488ZM57.7257 260.27C57.5546 258.803 58.5539 256.869 59.9845 255.923C61.4151 254.978 62.692 255.404 62.8309 256.88C62.9765 258.32 61.9498 260.28 60.5513 261.216C59.1207 262.161 57.8873 261.705 57.7257 260.27ZM27.3378 280.606C27.0384 279.177 27.9688 277.245 29.3994 276.3C30.8413 275.334 32.1823 275.741 32.4657 277.175C32.7397 278.576 31.8366 280.482 30.4268 281.439C29.0122 282.379 27.6278 282.003 27.3378 280.606ZM-3.0858 301.057C-3.50889 299.681 -2.69081 297.783 -1.26021 296.838C0.181707 295.872 1.6624 296.22 2.06944 297.6C2.47175 298.964 1.64892 300.846 0.223052 301.808C-1.1915 302.748 -2.67217 302.4 -3.0858 301.057ZM-33.3926 321.194C-33.9441 319.857 -33.2289 318.024 -31.7983 317.078C-30.395 316.159 -28.8181 316.478 -28.2987 317.825C-27.7888 319.14 -28.4832 320.985 -29.8704 321.9C-31.2689 322.835 -32.8506 322.499 -33.3926 321.194ZM-63.4752 340.672C-64.1503 339.389 -63.5427 337.605 -62.13 336.717C-60.722 335.814 -59.0393 336.137 -58.3915 337.446C-57.7533 338.723 -58.3448 340.502 -59.7415 341.385C-61.1381 342.268 -62.8209 341.945 -63.4752 340.672ZM-93.1536 359.037C-93.9411 357.787 -93.4477 356.089 -92.0528 355.259C-90.6901 354.438 -88.9498 354.78 -88.1784 356.035C-87.4278 357.278 -87.9212 358.976 -89.2726 359.776C-90.6514 360.602 -92.3917 360.26 -93.1536 359.037ZM-122.351 375.899C-123.234 374.677 -122.85 373.082 -121.485 372.33C-120.119 371.578 -118.321 371.938 -117.454 373.164C-116.595 374.359 -116.991 375.976 -118.34 376.722C-119.685 377.485 -121.488 377.11 -122.351 375.899ZM-150.872 390.853C-151.852 389.659 -151.557 388.177 -150.221 387.504C-148.912 386.856 -147.079 387.275 -146.115 388.473C-145.176 389.644 -145.467 391.143 -146.76 391.786C-148.059 392.465 -149.918 392.019 -150.872 390.853ZM-178.605 403.516C-179.644 402.357 -179.442 400.972 -178.153 400.434C-176.864 399.897 -174.991 400.391 -173.951 401.55C-172.933 402.697 -173.135 404.083 -174.419 404.636C-175.709 405.173 -177.591 404.647 -178.605 403.516ZM-205.399 413.442C-206.487 412.298 -206.369 411.042 -205.127 410.641C-203.917 410.249 -202.037 410.828 -200.949 411.972C-199.882 413.106 -200.016 414.366 -201.222 414.774C-202.448 415.17 -204.337 414.559 -205.399 413.442ZM-231.418 420.855C-232.501 419.726 -232.38 418.54 -231.146 418.228C-229.917 417.9 -228.066 418.558 -226.979 419.702C-225.917 420.819 -226.022 422.002 -227.255 422.313C-228.473 422.62 -230.356 421.972 -231.418 420.855ZM-257.944 427.022C-259.006 425.905 -258.83 424.788 -257.598 424.53C-256.35 424.266 -254.478 424.935 -253.416 426.052C-252.379 427.142 -252.535 428.269 -253.799 428.538C-255.031 428.796 -256.908 428.111 -257.944 427.022ZM-285.097 432.187C-286.112 431.109 -285.885 430.047 -284.611 429.811C-283.333 429.591 -281.473 430.281 -280.452 431.375C-279.457 432.442 -279.669 433.499 -280.947 433.719C-282.225 433.939 -284.106 433.238 -285.097 432.187ZM-312.7 436.474C-313.67 435.434 -313.391 434.428 -312.119 434.244C-310.816 434.052 -308.987 434.751 -308.013 435.807C-307.064 436.835 -307.322 437.853 -308.631 438.03C-309.907 438.197 -311.752 437.502 -312.7 436.474ZM-340.746 440.089C-341.653 439.083 -341.324 438.131 -340.011 437.971C-338.697 437.81 -336.922 438.507 -335.994 439.524C-335.091 440.514 -335.384 441.473 -336.702 441.617C-338.036 441.767 -339.849 441.063 -340.746 440.089ZM-369.059 443.155C-369.92 442.188 -369.523 441.286 -368.237 441.151C-366.919 441.006 -365.132 441.683 -364.272 442.65C-363.431 443.605 -363.796 444.498 -365.135 444.631C-366.448 444.792 -368.219 444.11 -369.059 443.155ZM-397.609 445.889C-398.403 444.972 -397.955 444.125 -396.632 443.996C-395.293 443.863 -393.601 444.515 -392.803 445.448C-392.009 446.365 -392.424 447.203 -393.768 447.32C-395.095 447.433 -396.836 446.795 -397.609 445.889ZM-426.273 448.413C-427 447.546 -426.474 446.728 -425.167 446.604C-423.824 446.487 -422.141 447.107 -421.409 447.99C-420.682 448.857 -421.177 449.666 -422.525 449.767C-423.852 449.879 -425.551 449.264 -426.273 448.413ZM-454.926 450.916C-455.591 450.083 -455.05 449.313 -453.707 449.196C-452.4 449.072 -450.763 449.654 -450.099 450.487C-449.439 451.304 -449.98 452.074 -451.291 452.182C-452.635 452.299 -454.271 451.717 -454.926 450.916ZM-483.488 453.55C-484.086 452.767 -483.536 452.029 -482.197 451.896C-480.858 451.762 -479.289 452.294 -478.671 453.088C-478.062 453.851 -478.66 454.603 -480.004 454.72C-481.347 454.837 -482.901 454.301 -483.488 453.55ZM-511.929 456.479C-512.475 455.75 -511.851 455.026 -510.517 454.876C-509.216 454.737 -507.713 455.218 -507.146 455.958C-506.6 456.686 -507.228 457.395 -508.53 457.534C-509.864 457.684 -511.382 457.207 -511.929 456.479ZM-540.052 459.89C-540.536 459.195 -539.908 458.487 -538.599 458.31C-537.291 458.133 -535.835 458.576 -535.335 459.266C-534.851 459.96 -535.5 460.658 -536.829 460.823C-538.138 461 -539.573 460.568 -540.052 459.89ZM-567.837 463.916C-568.275 463.26 -567.594 462.554 -566.311 462.35C-565.044 462.15 -563.643 462.522 -563.185 463.189C-562.747 463.845 -563.433 464.536 -564.7 464.735C-566.004 464.928 -567.4 464.572 -567.837 463.916ZM-595.174 468.752C-595.57 468.119 -594.873 467.408 -593.6 467.172C-592.331 466.919 -590.981 467.237 -590.565 467.881C-590.173 468.498 -590.87 469.21 -592.144 469.446C-593.433 469.687 -594.783 469.37 -595.174 468.752ZM-621.931 474.551C-622.301 473.945 -621.593 473.213 -620.354 472.917C-619.148 472.631 -617.833 472.889 -617.463 473.495C-617.097 474.085 -617.81 474.801 -619.033 475.092C-620.271 475.387 -621.565 475.141 -621.931 474.551Z" fill="url(#paint0_linear_351_780)"/>
</g>
</g>
<defs>
<linearGradient id="paint0_linear_351_780" x1="1125.68" y1="-28.2492" x2="424.396" y2="787.144" gradientUnits="userSpaceOnUse">
<stop stop-color="#07EDD2"/>
<stop offset="1" stop-color="#9C63F7"/>
</linearGradient>
</defs>
</svg>
