<svg width="1280" height="658" viewBox="0 0 1280 658" fill="none" xmlns="http://www.w3.org/2000/svg">
<g opacity="0.4194">
<g opacity="0.4194">
<path opacity="0.4194" d="M1396.88 17.4204C1396.26 16.6788 1396.99 15.7671 1398.5 15.5129C1400.04 15.2493 1401.76 15.7541 1402.37 16.5165C1403 17.2741 1402.31 18.0177 1400.77 18.2606C1399.27 18.494 1397.5 18.162 1396.88 17.4204ZM1370.57 20.9586C1369.91 20.2472 1370.65 19.4366 1372.2 19.2579C1373.73 19.0679 1375.48 19.5999 1376.12 20.316C1376.77 21.0321 1376.11 21.6813 1374.57 21.8553C1373.04 22.0292 1371.24 21.6699 1370.57 20.9586ZM1344.12 23.512C1343.44 22.8054 1344.15 22.0203 1345.68 21.8992C1347.25 21.7686 1349.02 22.3281 1349.7 23.0347C1350.38 23.7414 1349.72 24.3537 1348.16 24.5002C1346.62 24.6213 1344.8 24.2187 1344.12 23.512ZM1317.54 25.3839C1316.84 24.6339 1317.51 23.8582 1319.09 23.7597C1320.63 23.6707 1322.44 24.2897 1323.14 25.0237C1323.85 25.7737 1323.22 26.3974 1321.68 26.5024C1320.12 26.6122 1318.26 26.15 1317.54 25.3839ZM1291.05 26.9196C1290.3 26.0941 1290.96 25.2703 1292.5 25.202C1294.03 25.1338 1295.88 25.8075 1296.61 26.6217C1297.36 27.4312 1296.72 28.1078 1295.19 28.192C1293.66 28.2763 1291.78 27.7339 1291.05 26.9196ZM1264.68 28.4014C1263.9 27.4956 1264.53 26.5963 1266.07 26.5073C1267.6 26.4231 1269.44 27.1704 1270.19 28.0648C1270.96 28.9546 1270.38 29.7019 1268.88 29.8135C1267.34 29.9186 1265.45 29.3233 1264.68 28.4014ZM1238.62 30.1747C1237.83 29.1519 1238.41 28.161 1239.91 28.0655C1241.42 27.9699 1243.3 28.7767 1244.08 29.7674C1244.87 30.7534 1244.31 31.6177 1242.81 31.7454C1241.31 31.8731 1239.41 31.1976 1238.62 30.1747ZM1212.91 32.5586C1212.09 31.4395 1212.63 30.3203 1214.14 30.1718C1215.62 30.0329 1217.46 30.8859 1218.27 31.989C1219.09 33.0921 1218.59 34.0753 1217.12 34.2303C1215.62 34.4109 1213.73 33.6777 1212.91 32.5586ZM1187.76 35.8617C1186.92 34.6416 1187.43 33.394 1188.87 33.1795C1190.31 32.981 1192.17 33.8615 1193 35.0656C1193.82 36.2697 1193.33 37.3907 1191.9 37.6213C1190.45 37.8565 1188.59 37.0818 1187.76 35.8617ZM1163.19 40.4031C1162.35 39.0819 1162.83 37.7012 1164.26 37.4018C1165.66 37.1118 1167.48 38.0224 1168.32 39.3275C1169.16 40.6327 1168.74 41.8887 1167.33 42.1994C1165.89 42.5036 1164.02 41.729 1163.19 40.4031ZM1139.37 46.5215C1138.54 45.1267 1139 43.5968 1140.35 43.2153C1141.7 42.8338 1143.5 43.7171 1144.34 45.0911C1145.18 46.4651 1144.76 47.8798 1143.41 48.2773C1142.05 48.6636 1140.2 47.9163 1139.37 46.5215ZM1116.43 54.4917C1115.61 53.06 1116.01 51.3905 1117.34 50.8759C1118.63 50.3707 1120.35 51.2087 1121.19 52.6356C1122.01 54.0672 1121.66 55.6169 1120.35 56.1268C1119.02 56.6575 1117.26 55.9394 1116.43 54.4917ZM1094.46 64.6875C1093.66 63.2303 1094.06 61.4389 1095.3 60.7941C1096.54 60.1492 1098.2 60.8797 1099.02 62.3321C1099.81 63.7892 1099.47 65.4606 1098.21 66.1102C1096.97 66.7551 1095.26 66.1446 1094.46 64.6875ZM1073.59 77.3834C1072.84 75.9649 1073.19 74.066 1074.38 73.2606C1075.56 72.46 1077.11 73.0489 1077.89 74.4948C1078.64 75.9293 1078.35 77.7083 1077.15 78.4976C1075.95 79.2868 1074.36 78.7972 1073.59 77.3834ZM1053.93 92.9165C1053.24 91.5688 1053.59 89.5962 1054.7 88.6078C1055.81 87.6354 1057.25 88.0299 1057.96 89.389C1058.68 90.748 1058.38 92.6167 1057.26 93.573C1056.15 94.5454 1054.62 94.2642 1053.93 92.9165ZM1035.12 111.46C1034.48 110.236 1034.9 108.297 1036.02 107.182C1037.15 106.047 1038.54 106.196 1039.18 107.436C1039.83 108.676 1039.48 110.575 1038.34 111.694C1037.23 112.773 1035.76 112.684 1035.12 111.46ZM1014.58 129.779C1014.01 128.658 1014.56 126.872 1015.8 125.809C1017.03 124.766 1018.48 124.897 1019.06 126.034C1019.66 127.166 1019.18 128.912 1017.94 129.939C1016.69 130.991 1015.16 130.9 1014.58 129.779ZM992.167 146.804C991.627 145.742 992.316 144.056 993.652 143.087C995.005 142.112 996.504 142.228 997.049 143.306C997.593 144.384 997.007 146.004 995.639 146.984C994.314 147.933 992.707 147.866 992.167 146.804ZM968.143 162.577C967.629 161.542 968.399 159.955 969.839 159.041C971.268 158.149 972.798 158.308 973.333 159.354C973.847 160.388 973.157 161.952 971.728 162.845C970.263 163.731 968.658 163.611 968.143 162.577ZM942.682 177.203C942.184 176.164 943.037 174.622 944.538 173.795C946.038 172.969 947.651 173.173 948.149 174.213C948.648 175.252 947.843 176.78 946.342 177.606C944.821 178.421 943.165 178.247 942.682 177.203ZM915.983 190.765C915.507 189.684 916.407 188.18 918.011 187.41C919.584 186.65 921.22 186.935 921.691 188C922.162 189.064 921.331 190.565 919.759 191.325C918.154 192.095 916.459 191.845 915.983 190.765ZM888.312 203.339C887.838 202.206 888.79 200.704 890.419 200.014C892.074 199.299 893.734 199.664 894.219 200.777C894.689 201.895 893.8 203.377 892.15 204.109C890.526 204.814 888.786 204.473 888.312 203.339ZM859.852 215.013C859.38 213.826 860.376 212.294 862.066 211.639C863.725 210.993 865.429 211.449 865.896 212.619C866.369 213.806 865.432 215.303 863.762 215.97C862.081 216.658 860.329 216.215 859.852 215.013ZM830.87 225.864C830.407 224.587 831.402 223.055 833.091 222.453C834.78 221.85 836.545 222.393 837.004 223.653C837.479 224.909 836.487 226.457 834.804 227.076C833.12 227.694 831.334 227.14 830.87 225.864ZM801.496 235.975C801.025 234.614 802.027 233.045 803.762 232.481C805.465 231.927 807.21 232.58 807.688 233.905C808.171 235.245 807.205 236.821 805.491 237.396C803.782 237.987 801.983 237.332 801.496 235.975ZM772.018 245.438C771.523 243.996 772.564 242.381 774.276 241.858C775.988 241.336 777.773 242.065 778.247 243.495C778.738 244.921 777.749 246.538 776.047 247.092C774.339 247.631 772.513 246.879 772.018 245.438ZM742.665 254.322C742.167 252.812 743.146 251.162 744.863 250.656C746.564 250.154 748.329 250.994 748.822 252.488C749.316 253.983 748.378 255.654 746.677 256.156C744.965 256.679 743.163 255.832 742.665 254.322ZM713.6 262.703C713.1 261.124 714.069 259.442 715.743 258.966C717.416 258.49 719.2 259.394 719.701 260.973C720.218 262.548 719.258 264.261 717.6 264.732C715.927 265.209 714.101 264.282 713.6 262.703ZM685.095 270.674C684.58 269.047 685.476 267.353 687.154 266.892C688.784 266.446 690.535 267.413 691.049 269.04C691.564 270.668 690.694 272.389 689.053 272.856C687.386 273.295 685.61 272.302 685.095 270.674ZM657.311 278.311C656.787 276.652 657.657 274.93 659.255 274.493C660.837 274.062 662.56 275.054 663.084 276.713C663.608 278.372 662.78 280.117 661.198 280.549C659.604 281.001 657.835 279.971 657.311 278.311ZM630.52 285.707C629.975 284.037 630.764 282.339 632.298 281.921C633.848 281.499 635.523 282.505 636.068 284.176C636.613 285.846 635.838 287.593 634.288 288.015C632.754 288.432 631.06 287.362 630.52 285.707ZM604.815 292.766C604.259 291.116 605.01 289.464 606.505 289.093C607.979 288.71 609.627 289.742 610.188 291.408C610.744 293.058 609.996 294.779 608.522 295.161C607.026 295.532 605.376 294.432 604.815 292.766ZM579.787 297.741C579.225 296.075 579.946 294.554 581.394 294.319C582.858 294.079 584.47 295.226 585.031 296.892C585.592 298.558 584.891 300.143 583.426 300.383C581.978 300.618 580.348 299.407 579.787 297.741ZM555.19 300.513C554.633 298.863 555.324 297.421 556.774 297.307C558.186 297.187 559.778 298.445 560.334 300.095C560.891 301.744 560.219 303.251 558.806 303.371C557.357 303.484 555.746 302.163 555.19 300.513ZM531.035 301.411C530.494 299.756 531.177 298.403 532.569 298.394C533.978 298.379 535.557 299.71 536.097 301.365C536.637 303.02 535.974 304.437 534.565 304.451C533.156 304.465 531.575 303.065 531.035 301.411ZM507.165 300.793C506.641 299.134 507.31 297.855 508.706 297.914C510.085 297.979 511.63 299.372 512.154 301.031C512.694 302.686 512.028 304.034 510.649 303.97C509.253 303.91 507.705 302.448 507.165 300.793ZM483.58 299.011C483.076 297.363 483.755 296.116 485.101 296.243C486.483 296.376 488.005 297.811 488.529 299.47C489.049 301.113 488.368 302.413 486.986 302.28C485.624 302.158 484.083 300.659 483.58 299.011ZM460.151 296.398C459.663 294.745 460.356 293.546 461.732 293.716C463.087 293.875 464.586 295.351 465.074 297.004C465.577 298.652 464.882 299.904 463.528 299.745C462.147 299.559 460.633 298.035 460.151 296.398ZM436.807 293.306C436.34 291.664 437.07 290.472 438.418 290.667C439.762 290.847 441.266 292.339 441.738 293.997C442.205 295.638 441.489 296.878 440.141 296.683C438.787 296.472 437.29 294.942 436.807 293.306ZM413.527 290.073C413.076 288.427 413.81 287.251 415.17 287.425C416.514 287.604 417.981 289.09 418.432 290.737C418.883 292.383 418.162 293.607 416.814 293.412C415.454 293.237 413.972 291.703 413.527 290.073ZM390.202 287.045C389.772 285.41 390.518 284.213 391.873 284.372C393.228 284.53 394.695 286.016 395.125 287.651C395.555 289.286 394.786 290.524 393.448 290.361C392.088 290.187 390.632 288.68 390.202 287.045ZM366.746 284.579C366.337 282.955 367.106 281.717 368.483 281.834C369.845 281.956 371.282 283.398 371.696 285.038C372.11 286.677 371.346 287.932 369.984 287.81C368.586 287.682 367.139 286.207 366.746 284.579ZM343.085 283.011C342.692 281.383 343.499 280.098 344.878 280.162C346.258 280.226 347.713 281.611 348.106 283.239C348.499 284.868 347.68 286.173 346.301 286.109C344.922 286.045 343.478 284.639 343.085 283.011ZM319.179 282.684C318.802 281.051 319.611 279.713 321.019 279.699C322.412 279.689 323.848 281.01 324.225 282.643C324.602 284.276 323.782 285.634 322.394 285.66C320.997 285.654 319.556 284.317 319.179 282.684ZM294.905 283.948C294.532 282.331 295.398 280.889 296.81 280.769C298.223 280.649 299.704 281.887 300.065 283.525C300.442 285.158 299.576 286.599 298.164 286.719C296.752 286.839 295.282 285.581 294.905 283.948ZM270.261 287.152C269.889 285.535 270.742 283.993 272.19 283.757C273.654 283.517 275.128 284.67 275.484 286.292C275.857 287.909 274.987 289.456 273.523 289.696C272.096 289.943 270.617 288.774 270.261 287.152ZM245.088 292.641C244.711 291.008 245.62 289.362 247.079 288.984C248.537 288.606 250.079 289.634 250.44 291.272C250.817 292.905 249.891 294.556 248.433 294.934C246.974 295.311 245.46 294.258 245.088 292.641ZM219.512 300.847C219.135 299.214 220.002 297.423 221.499 296.878C222.963 296.341 224.492 297.268 224.869 298.901C225.246 300.534 224.346 302.334 222.882 302.871C221.386 303.417 219.894 302.496 219.512 300.847ZM194.586 311.374C194.189 309.729 195.039 307.822 196.469 307.173C197.9 306.524 199.38 307.343 199.762 308.993C200.144 310.642 199.31 312.545 197.895 313.189C196.469 313.854 194.989 313.034 194.586 311.374ZM170.437 323.765C170.023 322.125 170.801 320.151 172.199 319.39C173.613 318.624 175.069 319.363 175.467 321.008C175.865 322.652 175.087 324.626 173.673 325.392C172.307 326.143 170.851 325.404 170.437 323.765ZM146.873 337.727C146.432 336.113 147.191 334.075 148.545 333.222C149.903 332.385 151.368 333.035 151.809 334.649C152.234 336.268 151.479 338.322 150.137 339.154C148.784 340.006 147.319 339.357 146.873 337.727ZM123.842 352.962C123.373 351.374 124.075 349.318 125.394 348.406C126.744 347.484 128.19 348.069 128.658 349.658C129.111 351.251 128.446 353.314 127.096 354.235C125.773 355.131 124.311 354.551 123.842 352.962ZM101.173 369.19C100.661 367.631 101.326 365.569 102.642 364.588C103.946 363.628 105.405 364.139 105.905 365.718C106.401 367.281 105.773 369.351 104.464 370.295C103.16 371.255 101.664 370.737 101.173 369.19ZM78.7834 386.068C78.2327 384.556 78.8448 382.491 80.1555 381.494C81.4775 380.476 82.9592 380.946 83.4938 382.463C84.0284 383.98 83.4484 386.035 82.1378 387.032C80.8432 388.024 79.3341 387.58 78.7834 386.068ZM56.528 403.342C55.9387 401.876 56.5234 399.837 57.8406 398.803C59.1305 397.795 60.6301 398.207 61.2081 399.694C61.7862 401.18 61.2495 403.205 59.971 404.193C58.6698 405.222 57.1221 404.824 56.528 403.342ZM34.3283 420.687C33.7003 419.267 34.2577 417.254 35.5315 416.25C36.8488 415.216 38.3758 415.603 38.9925 417.044C39.6092 418.484 39.1112 420.462 37.8053 421.475C36.5475 422.474 34.9611 422.122 34.3283 420.687ZM12.019 437.837C11.3523 436.464 11.8758 434.513 13.1977 433.495C14.4923 432.503 16.0627 432.86 16.7181 434.254C17.3734 435.648 16.9142 437.58 15.6149 438.556C14.325 439.564 12.6904 439.227 12.019 437.837ZM-10.4786 454.468C-11.1887 453.125 -10.6511 451.222 -9.34228 450.278C-8.03347 449.334 -6.39885 449.671 -5.70481 451.019C-5.01077 452.367 -5.4682 454.246 -6.77701 455.19C-8.08582 456.134 -9.78458 455.816 -10.4786 454.468ZM-33.2913 470.267C-34.0287 468.949 -33.5316 467.146 -32.1652 466.219C-30.8262 465.319 -29.1774 465.705 -28.4447 467.006C-27.7072 468.323 -28.1401 470.108 -29.4631 471.004C-30.8295 471.931 -32.5538 471.584 -33.2913 470.267ZM-56.5523 484.96C-57.3332 483.673 -56.8171 481.933 -55.4544 481.112C-54.0917 480.292 -52.3693 480.691 -51.6092 481.967C-50.8444 483.259 -51.2962 484.979 -52.6429 485.795C-53.9848 486.627 -55.7715 486.247 -56.5523 484.96ZM-80.363 498.262C-81.1552 496.996 -80.6362 495.325 -79.213 494.591C-77.8219 493.867 -76.0805 494.33 -75.2884 495.597C-74.4962 496.863 -74.9236 498.489 -76.3099 499.23C-77.7492 499.968 -79.5708 499.529 -80.363 498.262ZM-104.871 509.852C-105.679 508.59 -105.12 506.995 -103.68 506.378C-102.245 505.745 -100.443 506.295 -99.6344 507.557C-98.8262 508.819 -99.2933 510.369 -100.729 511.002C-102.148 511.63 -104.063 511.113 -104.871 509.852ZM-130.15 519.418C-130.963 518.14 -130.392 516.646 -128.881 516.149C-127.408 515.644 -125.573 516.307 -124.76 517.584C-123.947 518.862 -124.41 520.307 -125.884 520.811C-127.385 521.341 -129.316 520.707 -130.15 519.418ZM-156.359 526.364C-157.172 525.086 -156.51 523.722 -154.952 523.385C-153.399 523.031 -151.494 523.813 -150.681 525.09C-149.869 526.368 -150.402 527.694 -151.959 528.031C-153.517 528.369 -155.546 527.641 -156.359 526.364ZM-184.239 531.308C-185.027 530.058 -184.3 528.797 -182.645 528.553C-180.974 528.304 -179.029 529.161 -178.226 530.406C-177.418 531.668 -178.053 532.885 -179.74 533.138C-181.395 533.382 -183.431 532.57 -184.239 531.308ZM-213.659 534.7C-214.405 533.472 -213.549 532.295 -211.817 532.133C-210.086 531.972 -208.074 532.878 -207.328 534.106C-206.562 535.345 -207.326 536.478 -209.074 536.644C-210.805 536.806 -212.913 535.928 -213.659 534.7ZM-244.32 536.784C-245.008 535.574 -244.096 534.468 -242.293 534.372C-240.473 534.271 -238.468 535.215 -237.775 536.441C-237.066 537.662 -237.924 538.717 -239.743 538.818C-241.551 538.898 -243.632 537.994 -244.32 536.784ZM-276.019 537.831C-276.633 536.634 -275.613 535.6 -273.742 535.555C-271.888 535.513 -269.91 536.483 -269.275 537.691C-268.644 538.883 -269.585 539.893 -271.455 539.938C-273.351 539.957 -275.404 539.027 -276.019 537.831ZM-308.453 538.1C-308.994 536.917 -307.89 535.928 -306.01 535.914C-304.094 535.907 -302.143 536.902 -301.581 538.097C-301.024 539.276 -302.064 540.245 -304.001 540.241C-305.902 540.243 -307.912 539.284 -308.453 538.1ZM-341.399 537.875C-341.866 536.705 -340.636 535.731 -338.726 535.761C-336.821 535.775 -334.902 536.779 -334.43 537.965C-333.947 539.131 -335.097 540.081 -337.023 540.056C-338.954 540.015 -340.948 539.05 -341.399 537.875ZM-374.57 537.42C-374.948 536.258 -373.697 535.296 -371.787 535.326C-369.84 535.362 -367.974 536.364 -367.581 537.522C-367.182 538.695 -368.411 539.615 -370.374 539.584C-372.3 539.559 -374.193 538.582 -374.57 537.42ZM-407.753 536.986C-408.061 535.821 -406.762 534.845 -404.82 534.865C-402.915 534.879 -401.118 535.884 -400.789 537.06C-400.464 538.22 -401.757 539.159 -403.678 539.151C-405.62 539.13 -407.444 538.151 -407.753 536.986ZM-440.655 536.853C-440.899 535.669 -439.535 534.674 -437.635 534.671C-435.718 534.664 -433.979 535.651 -433.735 536.835C-433.474 538.014 -434.81 538.984 -436.748 538.98C-438.644 538.998 -440.41 538.036 -440.655 536.853ZM-473.004 537.289C-473.185 536.086 -471.852 535.048 -469.965 534.997C-468.111 534.956 -466.446 535.93 -466.249 537.128C-466.053 538.326 -467.396 539.333 -469.261 539.394C-471.148 539.445 -472.803 538.503 -473.004 537.289ZM-504.548 538.569C-504.7 537.341 -503.375 536.217 -501.572 536.121C-499.768 536.026 -498.145 536.977 -497.987 538.221C-497.834 539.449 -499.206 540.534 -501.009 540.63C-502.812 540.726 -504.395 539.797 -504.548 538.569ZM-535.091 540.932C-535.226 539.646 -533.956 538.452 -532.176 538.276C-530.445 538.114 -528.895 539.052 -528.765 540.322C-528.634 541.592 -529.946 542.764 -531.672 542.941C-533.447 543.134 -534.956 542.218 -535.091 540.932ZM-564.317 544.686C-564.466 543.352 -563.234 542.029 -561.579 541.785C-559.924 541.541 -558.4 542.452 -558.255 543.77C-558.111 545.088 -559.384 546.388 -561.034 546.648C-562.705 546.897 -564.184 546.024 -564.317 544.686ZM-591.969 550.051C-592.158 548.641 -591.069 547.187 -589.48 546.84C-587.906 546.498 -586.476 547.384 -586.292 548.778C-586.107 550.171 -587.253 551.608 -588.822 551.966C-590.391 552.324 -591.78 551.46 -591.969 550.051Z" fill="url(#paint0_linear_351_808)"/>
</g>
</g>
<defs>
<linearGradient id="paint0_linear_351_808" x1="1145.94" y1="96.0528" x2="469.118" y2="903.027" gradientUnits="userSpaceOnUse">
<stop stop-color="#07EDD2"/>
<stop offset="1" stop-color="#9C63F7"/>
</linearGradient>
</defs>
</svg>
