<svg width="1280" height="896" viewBox="0 0 1280 896" fill="none" xmlns="http://www.w3.org/2000/svg">
<g opacity="0.7097">
<g opacity="0.7097">
<path opacity="0.7097" d="M1481.06 11.6148C1481.42 10.9499 1483.5 10.0381 1485.65 9.63139C1487.83 9.19919 1489.27 9.40297 1488.92 10.0103C1488.57 10.6385 1486.55 11.4784 1484.36 11.9474C1482.18 12.4164 1480.69 12.2798 1481.06 11.6148ZM1454.91 18.5253C1455.36 17.747 1457.51 16.5727 1459.74 15.9308C1461.94 15.2984 1463.39 15.4126 1462.96 16.1493C1462.54 16.9021 1460.38 18.0282 1458.17 18.6974C1455.91 19.3809 1454.46 19.3036 1454.91 18.5253ZM1428.26 27.7795C1428.81 26.9199 1431.08 25.501 1433.29 24.6732C1435.54 23.8359 1436.93 23.8792 1436.41 24.7133C1435.89 25.5634 1433.64 26.9247 1431.37 27.7875C1429.12 28.6617 1427.7 28.6599 1428.26 27.7795ZM1401.25 39.165C1401.9 38.2241 1404.27 36.6342 1406.55 35.6128C1408.81 34.6169 1410.13 34.5574 1409.51 35.4727C1408.88 36.4088 1406.51 37.9619 1404.23 38.9833C1401.93 40.0303 1400.61 40.1059 1401.25 39.165ZM1374.11 52.404C1374.88 51.4092 1377.36 49.6483 1379.62 48.4938C1381.91 47.3298 1383.13 47.2136 1382.39 48.1829C1381.65 49.1682 1379.21 50.8828 1376.89 52.0723C1374.59 53.2203 1373.32 53.4035 1374.11 52.404ZM1347 67.2215C1347.88 66.1936 1350.42 64.292 1352.7 63.0109C1354.95 61.7346 1356.08 61.5411 1355.23 62.5595C1354.39 63.594 1351.84 65.4427 1349.56 66.7446C1347.25 68.0351 1346.11 68.2494 1347 67.2215ZM1320.06 83.4003C1321.04 82.344 1323.68 80.3083 1325.91 78.9357C1328.15 77.5423 1329.19 77.2875 1328.24 78.3344C1327.28 79.402 1324.66 81.3961 1322.39 82.783C1320.13 84.1811 1319.07 84.4774 1320.06 83.4003ZM1293.52 100.663C1294.59 99.562 1297.27 97.4639 1299.48 95.9743C1301.68 94.5054 1302.59 94.2195 1301.54 95.3155C1300.47 96.4163 1297.83 98.4842 1295.61 99.9786C1293.37 101.457 1292.44 101.768 1293.52 100.663ZM1267.52 118.78C1268.68 117.635 1271.39 115.442 1273.53 113.903C1275.68 112.379 1276.52 112.043 1275.39 113.179C1274.25 114.32 1271.55 116.512 1269.38 118.04C1267.19 119.594 1266.35 119.946 1267.52 118.78ZM1242.25 137.484C1243.47 136.288 1246.13 134.02 1248.25 132.437C1250.33 130.863 1251.04 130.565 1249.84 131.757C1248.63 132.953 1245.95 135.189 1243.86 136.783C1241.75 138.383 1241.02 138.701 1242.25 137.484ZM1217.87 156.537C1219.1 155.267 1221.77 152.909 1223.78 151.323C1225.79 149.736 1226.44 149.457 1225.2 150.695C1223.95 151.953 1221.29 154.29 1219.27 155.914C1217.27 157.533 1216.61 157.832 1217.87 156.537ZM1194.58 175.67C1195.81 174.295 1198.37 171.901 1200.28 170.306C1202.24 168.701 1202.77 168.508 1201.54 169.847C1200.29 171.195 1197.73 173.605 1195.79 175.242C1193.88 176.869 1193.33 177.067 1194.58 175.67ZM1172.53 194.662C1173.71 193.162 1176.15 190.68 1177.99 189.093C1179.81 187.526 1180.31 187.448 1179.12 188.899C1177.89 190.376 1175.44 192.879 1173.63 194.478C1171.8 196.097 1171.32 196.186 1172.53 194.662ZM1151.92 213.211C1153.02 211.545 1155.3 208.972 1157 207.459C1158.72 205.921 1159.17 206.016 1158.04 207.623C1156.9 209.25 1154.62 211.823 1152.92 213.405C1151.26 214.977 1150.8 214.903 1151.92 213.211ZM1132.89 231.122C1133.86 229.25 1135.91 226.569 1137.49 225.11C1139.05 223.672 1139.52 223.953 1138.51 225.749C1137.49 227.567 1135.41 230.273 1133.89 231.787C1132.35 233.305 1131.92 233.015 1132.89 231.122ZM1113.93 251.926C1114.72 249.757 1116.81 246.331 1118.56 244.316C1120.33 242.276 1121.02 242.333 1120.18 244.394C1119.33 246.477 1117.3 249.884 1115.59 252.047C1113.87 254.158 1113.11 254.121 1113.93 251.926ZM1092.49 276.423C1093.13 273.915 1095.19 270.239 1097.05 268.223C1098.91 266.229 1099.85 266.579 1099.16 268.996C1098.47 271.433 1096.45 275.116 1094.64 277.202C1092.82 279.309 1091.85 278.952 1092.49 276.423ZM1069.88 300.397C1070.38 297.651 1072.38 293.799 1074.33 291.845C1076.31 289.865 1077.42 290.481 1076.89 293.167C1076.35 295.891 1074.39 299.713 1072.45 301.768C1070.54 303.777 1069.37 303.18 1069.88 300.397ZM1046.15 323.809C1046.53 320.873 1048.48 316.929 1050.54 314.979C1052.57 313.054 1053.88 313.872 1053.47 316.748C1053.06 319.661 1051.13 323.596 1049.13 325.564C1047.12 327.553 1045.79 326.76 1046.15 323.809ZM1021.47 346.525C1021.71 343.489 1023.66 339.46 1025.78 337.597C1027.91 335.712 1029.38 336.658 1029.1 339.671C1028.81 342.721 1026.93 346.695 1024.83 348.606C1022.75 350.508 1021.23 349.598 1021.47 346.525ZM995.99 368.467C996.125 365.375 998 361.385 1000.2 359.551C1002.37 357.742 1003.99 358.799 1003.83 361.864C1003.67 364.982 1001.8 368.95 999.668 370.766C997.512 372.623 995.865 371.591 995.99 368.467ZM969.849 389.539C969.877 386.443 971.699 382.504 973.924 380.766C976.178 379.003 977.922 380.128 977.857 383.217C977.801 386.338 975.996 390.272 973.758 392.031C971.585 393.771 969.809 392.655 969.849 389.539ZM943.099 409.673C943.037 406.622 944.812 402.766 947.105 401.078C949.371 399.416 951.231 400.577 951.266 403.654C951.311 406.763 949.547 410.597 947.293 412.239C945.048 413.913 943.172 412.757 943.099 409.673ZM915.953 428.756C915.803 425.766 917.559 422.021 919.849 420.438C922.138 418.856 924.14 420.027 924.263 423.044C924.394 426.092 922.633 429.821 920.372 431.378C918.114 432.951 916.117 431.796 915.953 428.756ZM888.555 446.693C888.324 443.778 890.01 440.211 892.311 438.73C894.661 437.234 896.705 438.428 896.91 441.368C897.123 444.34 895.453 447.903 893.131 449.373C890.84 450.833 888.796 449.639 888.555 446.693ZM860.977 463.426C860.673 460.621 862.301 457.21 864.647 455.82C866.993 454.431 869.106 455.621 869.388 458.469C869.679 461.348 868.046 464.743 865.711 466.112C863.388 467.46 861.275 466.269 860.977 463.426ZM833.404 478.815C833.043 476.114 834.617 472.876 836.927 471.601C839.27 470.317 841.44 471.526 841.795 474.265C842.142 477.04 840.579 480.257 838.248 481.52C835.945 482.758 833.779 481.565 833.404 478.815ZM805.931 492.832C805.509 490.218 807.018 487.173 809.362 486.011C811.657 484.863 813.901 486.085 814.296 488.725C814.716 491.392 813.164 494.466 810.875 495.577C808.554 496.698 806.358 495.462 805.931 492.832ZM778.74 505.317C778.273 502.786 779.707 499.904 782.024 498.889C784.305 497.867 786.526 499.131 786.982 501.682C787.448 504.266 785.976 507.142 783.724 508.138C781.418 509.132 779.217 507.88 778.74 505.317ZM751.889 516.237C751.372 513.773 752.78 511.038 755.034 510.164C757.272 509.294 759.524 510.601 760.03 513.086C760.546 515.603 759.116 518.327 756.895 519.191C754.652 520.045 752.416 518.733 751.889 516.237ZM725.601 525.456C725.056 523.018 726.369 520.433 728.565 519.715C730.772 518.977 733.004 520.394 733.549 522.833C734.087 525.308 732.757 527.898 730.546 528.62C728.366 529.332 726.155 527.926 725.601 525.456ZM699.808 532.628C699.231 530.199 700.516 527.814 702.678 527.281C704.846 526.764 707.079 528.303 707.644 530.752C708.215 533.218 706.907 535.645 704.756 536.157C702.593 536.69 700.394 535.089 699.808 532.628ZM674.198 536.815C673.61 534.407 674.85 532.227 677.004 531.958C679.173 531.684 681.394 533.419 681.987 535.843C682.585 538.283 681.333 540.484 679.163 540.758C677.01 541.027 674.795 539.255 674.198 536.815ZM648.639 538.336C648.007 535.958 649.22 533.978 651.398 533.911C653.544 533.854 655.808 535.733 656.428 538.132C657.053 540.546 655.792 542.54 653.662 542.593C651.512 542.634 649.275 540.73 648.639 538.336ZM623.196 537.59C622.526 535.258 623.701 533.446 625.846 533.564C628.008 533.676 630.272 535.677 630.931 538.029C631.595 540.398 630.409 542.23 628.259 542.097C626.129 541.975 623.876 539.953 623.196 537.59ZM597.791 535.018C597.082 532.733 598.215 531.073 600.382 531.324C602.517 531.584 604.821 533.66 605.519 535.966C606.226 538.304 605.077 539.969 602.954 539.688C600.798 539.417 598.51 537.336 597.791 535.018ZM572.441 531.036C571.677 528.801 572.795 527.268 574.921 527.618C577.068 527.979 579.408 530.114 580.16 532.369C580.922 534.657 579.804 536.19 577.668 535.808C575.569 535.433 573.214 533.302 572.441 531.036ZM547.162 526.055C546.344 523.872 547.4 522.426 549.55 522.856C551.684 523.291 554.06 525.433 554.851 527.642C555.663 529.862 554.586 531.296 552.484 530.852C550.345 530.401 547.974 528.275 547.162 526.055ZM521.855 520.507C520.982 518.375 522.026 517.003 524.153 517.474C526.297 517.941 528.726 520.085 529.571 522.243C530.438 524.412 529.406 525.763 527.274 525.275C525.178 524.794 522.738 522.671 521.855 520.507ZM496.596 514.823C495.668 512.741 496.636 511.409 498.784 511.892C500.912 512.363 503.379 514.461 504.275 516.552C505.196 518.67 504.219 519.97 502.108 519.494C499.975 519.006 497.533 516.936 496.596 514.823ZM471.295 509.412C470.317 507.398 471.269 506.071 473.403 506.505C475.553 506.935 478.071 508.966 479.021 511.006C479.997 513.073 479.048 514.347 476.925 513.892C474.807 513.452 472.283 511.458 471.295 509.412ZM445.991 504.7C444.975 502.733 445.853 501.392 448 501.753C450.131 502.119 452.69 504.05 453.695 506.039C454.721 508.039 453.812 509.336 451.697 508.965C449.577 508.579 447.033 506.696 445.991 504.7ZM420.632 501.104C419.561 499.187 420.425 497.799 422.56 498.058C424.711 498.314 427.321 500.125 428.381 502.063C429.446 504.016 428.584 505.352 426.444 505.076C424.32 504.795 421.729 503.048 420.632 501.104ZM395.236 499.036C394.126 497.165 394.93 495.69 397.091 495.803C399.236 495.92 401.872 497.584 402.971 499.476C404.09 501.378 403.252 502.794 401.139 502.667C398.989 502.534 396.371 500.934 395.236 499.036ZM369.744 498.95C368.591 497.109 369.414 495.524 371.544 495.471C373.69 495.414 376.38 496.905 377.517 498.75C378.68 500.622 377.838 502.144 375.703 502.181C373.589 502.229 370.918 500.801 369.744 498.95ZM344.196 501.217C343.016 499.403 343.78 497.677 345.965 497.399C348.119 497.13 350.821 498.426 351.986 500.245C353.171 502.076 352.388 503.738 350.25 504.002C348.081 504.275 345.386 503.064 344.196 501.217ZM318.507 506.317C317.299 504.528 318.092 502.603 320.243 502.09C322.394 501.578 325.157 502.664 326.349 504.458C327.561 506.263 326.761 508.104 324.61 508.617C322.47 509.108 319.736 508.118 318.507 506.317ZM291.517 513.633C290.362 511.845 291.299 509.877 293.629 509.26C295.938 508.631 298.768 509.593 299.939 511.375C301.131 513.169 300.206 515.117 297.881 515.75C295.514 516.361 292.673 515.42 291.517 513.633ZM263.291 521.191C262.263 519.418 263.386 517.43 265.747 516.803C268.105 516.16 270.909 517.095 271.991 518.869C273.077 520.659 271.965 522.627 269.556 523.268C267.141 523.893 264.325 522.979 263.291 521.191ZM234.409 528.89C233.576 527.129 234.842 525.151 237.251 524.51C239.689 523.844 242.367 524.763 243.258 526.541C244.169 528.331 242.91 530.272 240.404 530.941C237.953 531.56 235.263 530.661 234.409 528.89ZM204.924 536.732C204.323 534.99 205.832 533.01 208.29 532.355C210.743 531.684 213.295 532.588 213.981 534.322C214.676 536.088 213.162 538.052 210.652 538.705C208.125 539.363 205.529 538.489 204.924 536.732ZM174.964 544.679C174.616 542.968 176.389 540.997 178.875 540.316C181.376 539.63 183.728 540.507 184.149 542.231C184.575 543.972 182.866 545.924 180.275 546.601C177.716 547.269 175.305 546.427 174.964 544.679ZM144.678 552.705C144.631 551.009 146.641 549.073 149.159 548.383C151.66 547.697 153.812 548.546 153.948 550.25C154.089 551.97 152.095 553.901 149.504 554.578C146.892 555.244 144.729 554.417 144.678 552.705ZM114.109 560.779C114.369 559.115 116.676 557.179 119.193 556.489C121.743 555.789 123.609 556.617 123.444 558.305C123.284 560.009 121.053 561.906 118.397 562.602C115.806 563.279 113.844 562.48 114.109 560.779ZM83.4498 568.898C84.031 567.261 86.591 565.355 89.1406 564.655C91.6581 563.965 93.3082 564.769 92.8167 566.414C92.3185 568.096 89.8066 569.988 87.1786 570.659C84.5233 571.355 82.8411 570.56 83.4498 568.898ZM52.7211 577.019C53.6404 575.405 56.4856 573.519 59.0031 572.829C61.5527 572.129 62.9015 572.918 62.088 574.536C61.2631 576.174 58.5029 578.053 55.8636 578.744C53.2356 579.414 51.7905 578.654 52.7211 577.019ZM22.1048 585.108C23.3414 583.505 26.4075 581.658 28.9618 580.975C31.4793 580.284 32.543 581.052 31.4122 582.659C30.2654 584.271 27.2729 586.13 24.661 586.796C22.0169 587.471 20.8683 586.711 22.1048 585.108ZM-8.33023 593.16C-6.8038 591.594 -3.45731 589.752 -0.951108 589.082C1.55036 588.397 2.37705 589.13 0.94032 590.705C-0.523769 592.305 -3.78529 594.14 -6.36514 594.796C-8.97236 595.478 -9.88402 594.752 -8.33023 593.16ZM-38.4349 601.15C-36.6233 599.604 -33.0926 597.795 -30.5864 597.126C-28.1171 596.45 -27.5387 597.169 -29.2766 598.728C-31.0306 600.292 -34.4876 602.114 -37.0467 602.781C-39.6426 603.442 -40.2786 602.706 -38.4349 601.15ZM-68.1497 609.042C-66.0898 607.51 -62.3589 605.73 -59.9217 605.063C-57.4844 604.397 -57.1496 605.118 -59.1406 606.647C-61.1589 608.201 -64.784 609.986 -67.295 610.639C-69.8059 611.293 -70.2417 610.584 -68.1497 609.042ZM-97.3094 616.806C-95.0494 615.302 -91.192 613.536 -88.7707 612.874C-86.3816 612.222 -86.2743 612.941 -88.4976 614.451C-90.7322 615.982 -94.4678 617.747 -96.9305 618.386C-99.4207 619.051 -99.6129 618.34 -97.3094 616.806ZM-125.861 624.442C-123.443 622.944 -119.475 621.198 -117.134 620.56C-114.793 619.922 -114.849 620.619 -117.231 622.123C-119.64 623.654 -123.486 625.399 -125.88 626.035C-128.258 626.667 -128.312 625.95 -125.861 624.442ZM-153.633 631.884C-151.109 630.389 -147.152 628.664 -144.823 628.047C-142.53 627.423 -142.772 628.139 -145.26 629.641C-147.779 631.151 -151.63 632.88 -153.96 633.498C-156.301 634.136 -156.185 633.404 -153.633 631.884ZM-178.758 640.079C-176.326 638.507 -172.534 636.639 -170.424 635.929C-168.308 635.235 -168.682 635.921 -171.155 637.471C-173.661 639.029 -177.299 640.887 -179.368 641.62C-181.421 642.347 -181.218 641.677 -178.758 640.079ZM-204.182 649.096C-201.94 647.353 -198.28 645.332 -196.094 644.582C-193.876 643.823 -194.067 644.595 -196.36 646.283C-198.685 647.98 -202.223 650.001 -204.358 650.805C-206.493 651.609 -206.456 650.848 -204.182 649.096ZM-230.25 658.825C-228.276 656.883 -224.756 654.623 -222.516 653.823C-220.275 653.023 -220.173 653.9 -222.235 655.781C-224.328 657.672 -227.715 659.909 -229.863 660.787C-232.032 661.654 -232.251 660.794 -230.25 658.825ZM-256.724 669.25C-255.069 667.053 -251.8 664.536 -249.52 663.689C-247.209 662.833 -246.864 663.883 -248.627 666.007C-250.401 668.153 -253.547 670.616 -255.746 671.561C-257.916 672.48 -258.405 671.473 -256.724 669.25ZM-283.378 680.304C-282.089 677.813 -279.123 675.037 -276.809 674.128C-274.512 673.224 -273.814 674.466 -275.237 676.856C-276.667 679.284 -279.553 682.036 -281.737 683.029C-283.937 684.027 -284.694 682.82 -283.378 680.304ZM-310.022 691.983C-309.125 689.171 -306.508 686.097 -304.22 685.161C-301.905 684.199 -300.913 685.668 -301.929 688.375C-302.956 691.102 -305.513 694.141 -307.694 695.203C-309.869 696.229 -310.931 694.815 -310.022 691.983ZM-336.471 704.267C-336.001 701.128 -333.755 697.744 -331.465 696.755C-329.196 695.754 -327.846 697.432 -328.45 700.471C-329.065 703.53 -331.268 706.884 -333.408 707.968C-335.563 709.058 -336.936 707.421 -336.471 704.267ZM-362.478 717.101C-362.452 713.639 -360.581 709.93 -358.342 708.886C-356.103 707.842 -354.423 709.754 -354.599 713.12C-354.765 716.518 -356.603 720.165 -358.707 721.309C-360.791 722.464 -362.505 720.615 -362.478 717.101ZM-387.832 730.492C-388.234 726.704 -386.814 722.709 -384.61 721.605C-382.438 720.511 -380.443 722.661 -380.159 726.345C-379.877 730.082 -381.312 734.029 -383.354 735.207C-385.424 736.41 -387.42 734.313 -387.832 730.492ZM-412.341 744.384C-413.182 740.289 -412.148 735.99 -410.06 734.85C-407.939 733.702 -405.666 736.084 -404.954 740.095C-404.233 744.138 -405.238 748.359 -407.224 749.608C-409.199 750.836 -411.501 748.532 -412.341 744.384ZM-435.782 758.764C-437.037 754.389 -436.448 749.82 -434.427 748.631C-432.438 747.451 -429.881 750.029 -428.755 754.319C-427.615 758.657 -428.238 763.167 -430.119 764.42C-431.99 765.704 -434.512 763.186 -435.782 758.764ZM-457.952 773.606C-459.579 768.975 -459.391 764.175 -457.521 762.943C-455.647 761.728 -452.847 764.478 -451.349 769.024C-449.816 773.631 -450.045 778.355 -451.806 779.66C-453.555 780.943 -456.31 778.285 -457.952 773.606ZM-478.628 788.844C-480.592 784.016 -480.809 779.022 -479.06 777.739C-477.322 776.476 -474.369 779.39 -472.508 784.161C-470.633 788.981 -470.456 793.899 -472.09 795.219C-473.756 796.548 -476.644 793.736 -478.628 788.844ZM-497.624 804.512C-499.859 799.537 -500.42 794.382 -498.855 793.066C-497.284 791.766 -494.186 794.759 -492.035 799.689C-489.848 804.678 -489.363 809.75 -490.85 811.096C-492.337 812.441 -495.354 809.546 -497.624 804.512ZM-514.701 820.538C-517.15 815.486 -518.052 810.241 -516.65 808.903C-515.237 807.544 -512.104 810.597 -509.712 815.63C-507.285 820.723 -506.481 825.875 -507.836 827.252C-509.181 828.608 -512.217 825.648 -514.701 820.538Z" fill="url(#paint0_linear_351_871)"/>
</g>
</g>
<defs>
<linearGradient id="paint0_linear_351_871" x1="1267.64" y1="248.954" x2="195.261" y2="925.598" gradientUnits="userSpaceOnUse">
<stop stop-color="#07EDD2"/>
<stop offset="1" stop-color="#9C63F7"/>
</linearGradient>
</defs>
</svg>
