<svg width="1280" height="938" viewBox="0 0 1280 938" fill="none" xmlns="http://www.w3.org/2000/svg">
<g opacity="0.7742">
<g opacity="0.7742">
<path opacity="0.7742" d="M1475.77 13.5704C1475.65 12.0363 1477.63 10.2843 1480.08 9.54411C1482.55 8.79917 1484.57 9.33579 1484.7 10.8331C1484.83 12.3465 1483.03 14.2739 1480.54 15.0604C1478.06 15.8261 1475.88 15.1254 1475.77 13.5704ZM1447.65 23.1223C1447.61 21.5116 1449.73 19.5423 1452.28 18.6519C1454.82 17.7615 1456.86 18.2405 1456.93 19.8257C1457 21.4269 1455.06 23.5348 1452.49 24.4668C1449.92 25.3827 1447.69 24.749 1447.65 23.1223ZM1418.65 34.2902C1418.69 32.6398 1420.92 30.5157 1423.53 29.4685C1426.13 28.4213 1428.2 28.822 1428.18 30.4676C1428.17 32.1293 1426.07 34.4063 1423.43 35.463C1420.79 36.5196 1418.62 35.9567 1418.65 34.2902ZM1389.08 46.973C1389.21 45.2942 1391.52 43.0615 1394.2 41.8689C1396.85 40.6857 1398.85 41.0202 1398.75 42.6895C1398.64 44.3797 1396.46 46.7653 1393.78 47.9579C1391.06 49.144 1388.95 48.6679 1389.08 46.973ZM1359.21 61.1016C1359.45 59.4265 1361.88 57.0548 1364.54 55.7451C1367.21 54.4354 1369.13 54.6719 1368.92 56.3535C1368.71 58.056 1366.43 60.5437 1363.75 61.8581C1361.05 63.1773 1358.99 62.8088 1359.21 61.1016ZM1329.39 76.5603C1329.74 74.8889 1332.22 72.4294 1334.92 70.9884C1337.57 69.5617 1339.41 69.7 1339.1 71.378C1338.8 73.072 1336.43 75.6524 1333.75 77.0725C1331.04 78.5182 1329.05 78.2478 1329.39 76.5603ZM1299.96 93.2132C1300.39 91.5503 1302.94 89.0028 1305.54 87.4845C1308.16 85.9454 1309.89 86.0112 1309.47 87.6694C1309.06 89.3598 1306.67 92.0024 1304.01 93.5349C1301.39 95.0579 1299.52 94.897 1299.96 93.2132ZM1271.18 111C1271.68 109.351 1274.24 106.73 1276.81 105.083C1279.36 103.457 1280.96 103.423 1280.47 105.084C1279.97 106.75 1277.56 109.466 1275.01 111.092C1272.39 112.737 1270.66 112.671 1271.18 111ZM1243.38 129.786C1243.96 128.133 1246.48 125.453 1248.93 123.738C1251.38 122.019 1252.84 121.921 1252.29 123.565C1251.72 125.233 1249.34 127.993 1246.87 129.717C1244.41 131.436 1242.81 131.455 1243.38 129.786ZM1216.88 149.5C1217.49 147.854 1219.95 145.087 1222.3 143.279C1224.63 141.492 1225.96 141.326 1225.35 142.988C1224.74 144.651 1222.4 147.486 1220.08 149.289C1217.71 151.102 1216.26 151.183 1216.88 149.5ZM1191.99 169.991C1192.61 168.308 1194.97 165.468 1197.14 163.607C1199.31 161.745 1200.51 161.565 1199.89 163.232C1199.25 164.919 1197.04 167.822 1194.87 169.684C1192.69 171.582 1191.36 171.695 1191.99 169.991ZM1169.02 191.211C1169.62 189.48 1171.79 186.538 1173.8 184.639C1175.82 182.698 1176.89 182.523 1176.28 184.238C1175.65 185.974 1173.61 188.968 1171.58 190.925C1169.6 192.835 1168.4 192.963 1169.02 191.211ZM1148.29 213.006C1148.83 211.188 1150.78 208.138 1152.57 206.179C1154.37 204.219 1155.31 204.062 1154.76 205.847C1154.19 207.654 1152.35 210.745 1150.58 212.732C1148.82 214.735 1147.75 214.84 1148.29 213.006ZM1130.08 235.313C1130.5 233.359 1132.18 230.194 1133.77 228.174C1135.34 226.175 1136.18 226.083 1135.72 227.983C1135.25 229.899 1133.69 233.116 1132.16 235.153C1130.61 237.216 1129.65 237.273 1130.08 235.313ZM1114.74 257.996C1114.99 255.882 1116.34 252.52 1117.66 250.507C1118.97 248.499 1119.72 248.504 1119.41 250.568C1119.09 252.648 1117.87 256.009 1116.62 258.088C1115.36 260.151 1114.49 260.147 1114.74 257.996ZM1099.96 286.638C1100.04 284.222 1101.47 279.841 1103.02 276.803C1104.55 273.77 1105.6 273.076 1105.47 275.364C1105.33 277.673 1104.14 282.194 1102.65 285.356C1101.14 288.521 1099.87 289.07 1099.96 286.638ZM1082.03 319.415C1082 316.651 1083.46 312.155 1085.13 309.344C1086.81 306.528 1088.05 306.354 1088.03 309.027C1088.03 311.716 1086.81 316.279 1085.17 319.186C1083.53 322.094 1082.05 322.201 1082.03 319.415ZM1062.62 349.542C1062.48 346.53 1063.93 342.039 1065.75 339.445C1067.55 336.856 1069 337.055 1069.12 339.986C1069.23 342.954 1067.95 347.568 1066.19 350.233C1064.42 352.903 1062.76 352.57 1062.62 349.542ZM1041.87 377.223C1041.64 374.045 1043.12 369.544 1045.03 367.149C1046.95 364.77 1048.58 365.319 1048.77 368.455C1048.97 371.622 1047.71 376.162 1045.81 378.605C1043.93 381.044 1042.1 380.434 1041.87 377.223ZM1019.94 402.529C1019.62 399.257 1021.09 394.846 1023.12 392.661C1025.14 390.477 1026.94 391.271 1027.22 394.52C1027.51 397.802 1026.2 402.304 1024.21 404.515C1022.21 406.727 1020.25 405.838 1019.94 402.529ZM996.913 425.648C996.526 422.325 997.999 418.036 1000.12 416.014C1002.24 414.012 1004.16 415.033 1004.53 418.343C1004.9 421.686 1003.59 426.034 1001.51 428.042C999.389 430.08 997.309 429.002 996.913 425.648ZM973.007 446.67C972.556 443.367 974.019 439.22 976.201 437.391C978.382 435.561 980.437 436.734 980.872 440.042C981.301 443.387 979.99 447.576 977.824 449.401C975.664 451.242 973.468 450.006 973.007 446.67ZM948.306 465.765C947.8 462.513 949.294 458.531 951.539 456.857C953.784 455.183 955.941 456.466 956.436 459.739C956.94 463.044 955.593 467.052 953.359 468.705C951.13 470.374 948.826 469.065 948.306 465.765ZM923.001 483.049C922.45 479.88 923.916 476.098 926.208 474.585C928.5 473.072 930.746 474.415 931.29 477.621C931.844 480.859 930.488 484.661 928.191 486.158C925.922 487.63 923.561 486.25 923.001 483.049ZM897.171 498.674C896.58 495.604 898.039 492.034 900.401 490.639C902.736 489.271 905.059 490.643 905.628 493.755C906.223 496.894 904.842 500.493 902.53 501.82C900.19 503.173 897.768 501.76 897.171 498.674ZM871.021 512.736C870.398 509.798 871.845 506.423 874.218 505.182C876.574 503.947 878.955 505.337 879.56 508.334C880.186 511.341 878.817 514.745 876.451 515.949C874.096 517.132 871.653 515.707 871.021 512.736ZM844.638 525.419C844 522.607 845.43 519.412 847.836 518.284C850.209 517.165 852.628 518.563 853.263 521.428C853.908 524.325 852.532 527.522 850.16 528.587C847.761 529.679 845.285 528.264 844.638 525.419ZM818.205 536.809C817.547 534.107 818.965 531.108 821.356 530.106C823.731 529.109 826.165 530.502 826.815 533.24C827.476 536.011 826.095 539.017 823.727 539.977C821.342 540.942 818.871 539.543 818.205 536.809ZM791.826 547.084C791.165 544.488 792.562 541.652 794.96 540.735C797.326 539.828 799.76 541.22 800.415 543.853C801.079 546.518 799.715 549.345 797.36 550.231C794.968 551.111 792.497 549.712 791.826 547.084ZM765.679 556.366C765.021 553.839 766.418 551.124 768.76 550.312C771.101 549.499 773.52 550.896 774.182 553.439C774.855 556.014 773.485 558.703 771.154 559.495C768.808 560.292 766.342 558.909 765.679 556.366ZM739.901 564.772C739.257 562.293 740.597 559.682 742.894 558.953C745.19 558.223 747.613 559.636 748.257 562.115C748.91 564.626 747.554 567.241 745.253 567.955C742.94 568.689 740.549 567.267 739.901 564.772ZM714.427 571.727C713.783 569.248 715.116 566.849 717.401 566.315C719.685 565.78 722.061 567.33 722.689 569.813C723.338 572.308 722.007 574.776 719.718 575.295C717.45 575.824 715.076 574.222 714.427 571.727ZM689.216 575.43C688.572 572.952 689.87 570.789 692.118 570.545C694.366 570.301 696.739 572.078 697.383 574.556C698.031 577.051 696.699 579.276 694.451 579.52C692.203 579.765 689.869 577.941 689.216 575.43ZM664.31 576.27C663.655 573.812 664.942 571.845 667.175 571.849C669.409 571.853 671.754 573.83 672.393 576.293C673.058 578.783 671.765 580.787 669.547 580.778C667.33 580.769 664.97 578.744 664.31 576.27ZM639.681 574.674C638.998 572.241 640.231 570.447 642.437 570.651C644.643 570.855 647.014 572.982 647.685 575.435C648.361 577.904 647.085 579.728 644.891 579.504C642.685 579.299 640.352 577.127 639.681 574.674ZM615.232 571.088C614.523 568.681 615.75 567.045 617.934 567.413C620.134 567.776 622.47 570.017 623.168 572.445C623.872 574.889 622.654 576.556 620.465 576.172C618.297 575.8 615.952 573.527 615.232 571.088ZM590.969 565.999C590.231 563.618 591.391 562.107 593.576 562.596C595.761 563.086 598.157 565.414 598.878 567.8C599.609 570.219 598.402 571.743 596.233 571.249C594.059 570.739 591.711 568.397 590.969 565.999ZM566.806 559.835C566.03 557.499 567.181 556.078 569.353 556.641C571.525 557.204 573.914 559.569 574.679 561.926C575.448 564.298 574.286 565.739 572.142 565.151C569.97 564.588 567.575 562.207 566.806 559.835ZM542.712 553.074C541.908 550.764 542.988 549.399 545.159 550.015C547.329 550.631 549.771 552.998 550.558 555.312C551.371 557.654 550.222 559.022 548.068 558.402C545.914 557.781 543.541 555.411 542.712 553.074ZM518.623 546.155C517.781 543.892 518.855 542.563 521.025 543.179C523.195 543.795 525.644 546.125 526.475 548.409C527.31 550.71 526.225 552.059 524.066 551.422C521.928 550.797 519.491 548.446 518.623 546.155ZM494.535 539.532C493.649 537.299 494.686 535.964 496.858 536.527C499.03 537.09 501.538 539.385 502.408 541.623C503.287 543.893 502.197 545.226 500.036 544.643C497.864 544.08 495.43 541.798 494.535 539.532ZM470.324 533.678C469.416 531.487 470.418 530.092 472.624 530.593C474.809 531.082 477.321 533.272 478.234 535.479C479.151 537.703 478.092 539.08 475.923 538.586C473.733 538.08 471.258 535.897 470.324 533.678ZM446.034 529.034C445.083 526.873 446.081 525.409 448.266 525.777C450.466 526.14 453.014 528.214 453.949 530.38C454.894 532.578 453.854 534.019 451.67 533.651C449.497 533.263 446.974 531.216 446.034 529.034ZM421.517 526.044C420.554 523.903 421.536 522.323 423.762 522.538C425.968 522.742 428.575 524.66 429.521 526.805C430.494 528.978 429.466 530.52 427.26 530.315C425.033 530.1 422.505 528.212 421.517 526.044ZM396.809 525.186C395.819 523.071 396.806 521.332 399.04 521.336C401.274 521.34 403.897 523.078 404.887 525.193C405.887 527.34 404.837 529.045 402.619 529.036C400.39 529.048 397.809 527.333 396.809 525.186ZM371.799 526.911C370.793 524.801 371.797 522.882 374.045 522.638C376.329 522.4 378.992 523.917 379.982 526.032C380.993 528.159 379.931 530.059 377.663 530.292C375.415 530.537 372.815 529.053 371.799 526.911ZM346.497 531.67C345.491 529.56 346.514 527.409 348.798 526.875C351.083 526.341 353.774 527.657 354.775 529.752C355.786 531.878 354.717 533.99 352.433 534.524C350.148 535.059 347.508 533.796 346.497 531.67ZM319.016 538.973C317.973 536.856 319.237 534.635 321.828 533.958C324.435 533.276 327.354 534.421 328.381 536.542C329.413 538.68 328.164 540.95 325.556 541.632C322.997 542.299 320.064 541.106 319.016 538.973ZM288.797 546.456C287.77 544.335 289.203 542.098 291.974 541.438C294.756 540.757 297.834 541.907 298.877 544.024C299.924 546.157 298.526 548.453 295.739 549.118C292.937 549.788 289.829 548.594 288.797 546.456ZM256.459 553.971C255.485 551.851 257.114 549.626 260.07 548.946C263.043 548.261 266.222 549.4 267.212 551.515C268.211 553.662 266.634 555.941 263.624 556.62C260.668 557.3 257.438 556.107 256.459 553.971ZM222.448 561.491C221.6 559.386 223.436 557.153 226.514 556.471C229.593 555.79 232.788 556.924 233.688 559.03C234.598 561.169 232.829 563.452 229.698 564.132C226.583 564.806 223.305 563.628 222.448 561.491ZM186.996 569.034C186.291 566.94 188.354 564.709 191.538 564.032C194.723 563.354 197.929 564.467 198.687 566.563C199.454 568.692 197.442 570.977 194.205 571.653C190.952 572.333 187.711 571.161 186.996 569.034ZM150.469 576.599C149.944 574.521 152.218 572.298 155.524 571.619C158.793 570.934 161.878 572.048 162.461 574.143C163.049 576.255 160.878 578.535 157.551 579.202C154.193 579.879 151.004 578.708 150.469 576.599ZM113.243 584.16C112.913 582.094 115.42 579.89 118.742 579.206C122.064 578.523 125.022 579.622 125.426 581.7C125.818 583.8 123.452 586.068 120.056 586.738C116.666 587.424 113.583 586.257 113.243 584.16ZM75.5881 591.743C75.4695 589.685 78.1765 587.508 81.5626 586.806C84.9167 586.113 87.716 587.206 87.8875 589.266C88.0846 591.354 85.5182 593.593 82.1066 594.268C78.6515 594.973 75.7115 593.817 75.5881 591.743ZM37.8959 599.319C37.9935 597.285 40.8753 595.109 44.2133 594.421C47.5673 593.728 50.1711 594.809 50.1425 596.841C50.1072 598.91 47.3983 601.139 43.9914 601.83C40.5798 602.505 37.7871 601.375 37.8959 599.319ZM0.426584 606.882C0.735651 604.855 3.76472 602.706 7.11875 602.013C10.4407 601.33 12.8444 602.382 12.6042 604.407C12.3688 606.447 9.52202 608.682 6.14722 609.364C2.70822 610.064 0.106203 608.93 0.426584 606.882ZM-36.429 614.456C-35.9405 612.446 -32.785 610.312 -29.5319 609.631C-26.2789 608.951 -24.0868 609.996 -24.5224 612.008C-24.9693 614.042 -27.8897 616.263 -31.2164 616.931C-34.527 617.593 -36.9127 616.483 -36.429 614.456ZM-72.384 622.009C-71.7321 620.02 -68.5076 617.883 -65.3075 617.2C-62.1395 616.528 -60.1795 617.554 -60.7785 619.545C-61.3887 621.557 -64.3828 623.765 -67.599 624.452C-70.852 625.133 -73.0471 624.018 -72.384 622.009ZM-107.052 629.548C-106.262 627.553 -103.033 625.432 -99.9708 624.756C-96.9245 624.084 -95.1761 625.103 -95.929 627.104C-96.6771 629.122 -99.6759 631.314 -102.754 631.996C-105.842 632.645 -107.842 631.543 -107.052 629.548ZM-140.158 637.062C-139.294 635.081 -136.081 632.965 -133.145 632.273C-130.242 631.591 -128.7 632.619 -129.547 634.596C-130.406 636.593 -133.331 638.799 -136.255 639.47C-139.239 640.176 -141.048 639.069 -140.158 637.062ZM-171.335 644.549C-170.44 642.558 -167.344 640.459 -164.615 639.776C-161.881 639.109 -160.535 640.125 -161.43 642.116C-162.337 644.128 -165.145 646.316 -167.879 646.983C-170.592 647.661 -172.242 646.561 -171.335 644.549ZM-200.268 652.019C-199.388 650.032 -196.487 647.921 -193.949 647.242C-191.39 646.574 -190.198 647.601 -191.093 649.592C-191.984 651.599 -194.597 653.8 -197.135 654.479C-199.662 655.137 -201.158 654.026 -200.268 652.019ZM-224.256 661.466C-223.356 659.491 -220.795 657.114 -218.735 656.175C-216.674 655.236 -215.883 656.084 -216.784 658.059C-217.695 660.054 -219.927 662.422 -222.004 663.366C-224.048 664.3 -225.167 663.462 -224.256 661.466ZM-246.48 673.464C-245.599 671.425 -243.148 668.853 -241.177 667.73C-239.178 666.583 -238.462 667.296 -239.352 669.303C-240.254 671.331 -242.414 673.886 -244.392 675.045C-246.354 676.2 -247.373 675.523 -246.48 673.464ZM-267.55 687.545C-266.766 685.412 -264.491 682.596 -262.609 681.291C-260.726 679.985 -259.987 680.657 -260.818 682.751C-261.638 684.877 -263.667 687.638 -265.503 688.982C-267.34 690.326 -268.324 689.709 -267.55 687.545ZM-287.56 703.442C-286.945 701.15 -284.885 698.083 -283.097 696.631C-281.278 695.17 -280.47 695.839 -281.152 698.081C-281.829 700.339 -283.681 703.344 -285.434 704.855C-287.17 706.362 -288.186 705.754 -287.56 703.442ZM-306.569 720.84C-306.17 718.35 -304.36 715.025 -302.643 713.455C-300.925 711.884 -300.014 712.609 -300.485 715.033C-300.967 717.478 -302.594 720.714 -304.24 722.351C-305.88 724.003 -306.975 723.367 -306.569 720.84ZM-324.665 739.504C-324.501 736.804 -322.983 733.199 -321.347 731.531C-319.684 729.836 -318.618 730.673 -318.857 733.29C-319.103 735.945 -320.48 739.438 -322.056 741.194C-323.631 742.949 -324.834 742.24 -324.665 739.504ZM-341.929 759.091C-342.044 756.159 -340.829 752.295 -339.249 750.556C-337.669 748.816 -336.426 749.776 -336.404 752.63C-336.373 755.516 -337.504 759.251 -338.975 761.063C-340.458 762.896 -341.805 762.055 -341.929 759.091ZM-358.435 779.361C-358.848 776.186 -357.926 772.095 -356.418 770.289C-354.894 768.479 -353.462 769.609 -353.141 772.707C-352.827 775.841 -353.662 779.75 -355.09 781.654C-356.521 783.541 -358.028 782.573 -358.435 779.361ZM-374.265 800.026C-374.972 796.624 -374.345 792.305 -372.883 790.46C-371.432 788.637 -369.773 789.944 -369.18 793.258C-368.572 796.62 -369.162 800.771 -370.524 802.655C-371.894 804.577 -373.549 803.46 -374.265 800.026ZM-389.468 820.749C-390.448 817.131 -390.116 812.638 -388.718 810.812C-387.321 808.987 -385.467 810.481 -384.58 814.022C-383.678 817.611 -384.03 821.919 -385.324 823.8C-386.65 825.692 -388.479 824.399 -389.468 820.749ZM-404.162 841.305C-405.401 837.519 -405.344 832.863 -403.983 831.031C-402.633 829.22 -400.585 830.901 -399.429 834.642C-398.264 838.414 -398.371 842.842 -399.633 844.714C-400.927 846.596 -402.925 845.144 -404.162 841.305ZM-418.394 861.359C-419.855 857.411 -420.028 852.683 -418.733 850.923C-417.438 849.163 -415.2 851.015 -413.811 854.896C-412.403 858.842 -412.317 863.334 -413.565 865.132C-414.789 866.958 -416.919 865.354 -418.394 861.359ZM-432.267 880.678C-433.91 876.645 -434.272 871.868 -432.995 870.165C-431.734 868.468 -429.364 870.472 -427.778 874.488C-426.183 878.535 -425.949 883.053 -427.153 884.769C-428.383 886.51 -430.625 884.764 -432.267 880.678ZM-445.838 898.949C-447.596 894.88 -448.103 890.146 -446.883 888.547C-445.662 886.949 -443.185 889.079 -441.463 893.141C-439.728 897.252 -439.391 901.705 -440.575 903.31C-441.763 904.899 -444.054 903.045 -445.838 898.949ZM-459.193 915.883C-460.995 911.845 -461.59 907.224 -460.373 905.731C-459.173 904.243 -456.646 906.48 -454.861 910.524C-453.045 914.611 -452.677 918.933 -453.866 920.4C-455.056 921.867 -457.366 919.949 -459.193 915.883Z" fill="url(#paint0_linear_351_885)"/>
</g>
</g>
<defs>
<linearGradient id="paint0_linear_351_885" x1="1274.29" y1="272.714" x2="182.328" y2="905.805" gradientUnits="userSpaceOnUse">
<stop stop-color="#07EDD2"/>
<stop offset="1" stop-color="#9C63F7"/>
</linearGradient>
</defs>
</svg>
