<svg width="1280" height="864" viewBox="0 0 1280 864" fill="none" xmlns="http://www.w3.org/2000/svg">
<g opacity="0.6452">
<g opacity="0.6452">
<path opacity="0.6452" d="M1488.18 13.7096C1488.22 12.5832 1489.74 11.4717 1491.6 11.3409C1493.5 11.2006 1495.04 12.07 1495.01 13.1596C1495 14.2284 1493.4 15.152 1491.5 15.3291C1489.63 15.4967 1488.14 14.8199 1488.18 13.7096ZM1464.03 17.7993C1464.13 16.6011 1465.71 15.2111 1467.59 14.8112C1469.47 14.416 1470.98 15.1202 1470.9 16.3136C1470.82 17.4863 1469.16 18.6932 1467.27 19.1091C1465.36 19.5345 1463.93 18.9975 1464.03 17.7993ZM1439.78 24.967C1439.97 23.7083 1441.61 22.1086 1443.48 21.4699C1445.39 20.8377 1446.84 21.3861 1446.68 22.6353C1446.53 23.8685 1444.81 25.3172 1442.87 25.9749C1440.97 26.6231 1439.61 26.2049 1439.78 24.967ZM1415.43 34.836C1415.7 33.5536 1417.42 31.7556 1419.32 30.9167C1421.2 30.0825 1422.6 30.5073 1422.35 31.7849C1422.11 33.0417 1420.3 34.7096 1418.39 35.5324C1416.47 36.3969 1415.18 36.0976 1415.43 34.836ZM1391.08 46.9549C1391.44 45.6442 1393.23 43.7055 1395.11 42.7126C1397.01 41.6991 1398.34 41.9888 1398.01 43.2901C1397.67 44.5754 1395.8 46.3839 1393.85 47.4116C1391.95 48.4252 1390.73 48.2449 1391.08 46.9549ZM1366.72 60.9792C1367.16 59.6608 1369.04 57.6247 1370.93 56.4733C1372.82 55.3426 1374.07 55.5135 1373.64 56.8272C1373.22 58.12 1371.24 60.0627 1369.34 61.1981C1367.4 62.3476 1366.26 62.2815 1366.72 60.9792ZM1342.4 76.4715C1342.95 75.1568 1344.84 73.0471 1346.74 71.7899C1348.64 70.5327 1349.8 70.6423 1349.28 71.9475C1348.77 73.248 1346.76 75.2738 1344.82 76.5244C1342.91 77.7863 1341.86 77.7654 1342.4 76.4715ZM1318.15 93.0618C1318.77 91.7442 1320.74 89.558 1322.65 88.2272C1324.53 86.9058 1325.63 86.9285 1325.03 88.2574C1324.44 89.5655 1322.36 91.6632 1320.46 92.9732C1318.53 94.3088 1317.53 94.3586 1318.15 93.0618ZM1294.03 110.308C1294.72 108.972 1296.71 106.781 1298.61 105.418C1300.5 104.039 1301.55 104.028 1300.89 105.355C1300.23 106.666 1298.09 108.814 1296.2 110.193C1294.28 111.561 1293.36 111.624 1294.03 110.308ZM1270.06 127.861C1270.78 126.515 1272.83 124.289 1274.7 122.899C1276.55 121.534 1277.57 121.512 1276.86 122.874C1276.15 124.199 1273.99 126.389 1272.13 127.759C1270.23 129.138 1269.34 129.191 1270.06 127.861ZM1246.31 145.263C1247.05 143.876 1249.07 141.659 1250.94 140.306C1252.8 138.952 1253.76 138.986 1253.03 140.368C1252.3 141.735 1250.15 143.921 1248.29 145.29C1246.41 146.664 1245.58 146.646 1246.31 145.263ZM1222.77 162.185C1223.49 160.734 1225.5 158.501 1227.32 157.231C1229.17 155.935 1230.16 156.028 1229.43 157.463C1228.71 158.878 1226.56 161.101 1224.72 162.412C1222.9 163.715 1222.05 163.616 1222.77 162.185ZM1199.5 178.17C1200.16 176.631 1202.1 174.438 1203.94 173.216C1205.75 172.02 1206.75 172.245 1206.07 173.757C1205.39 175.247 1203.31 177.466 1201.51 178.695C1199.69 179.945 1198.85 179.688 1199.5 178.17ZM1176.55 192.842C1177.12 191.173 1178.98 188.967 1180.78 187.897C1182.6 186.801 1183.64 187.208 1183.04 188.833C1182.45 190.438 1180.44 192.67 1178.66 193.805C1176.9 194.918 1175.97 194.478 1176.55 192.842ZM1153.93 205.81C1154.37 203.988 1156.11 201.783 1157.89 200.84C1159.66 199.917 1160.8 200.555 1160.31 202.322C1159.83 204.068 1157.97 206.327 1156.23 207.293C1154.5 208.292 1153.5 207.611 1153.93 205.81ZM1130.72 218.726C1131.01 216.634 1132.75 214.027 1134.66 212.908C1136.59 211.779 1137.97 212.489 1137.65 214.484C1137.34 216.442 1135.48 219.03 1133.58 220.255C1131.7 221.471 1130.44 220.796 1130.72 218.726ZM1105.66 234.838C1105.83 232.435 1107.54 229.488 1109.55 228.198C1111.55 226.928 1113.07 227.77 1112.88 230.093C1112.68 232.383 1110.85 235.348 1108.89 236.677C1106.9 238.031 1105.48 237.193 1105.66 234.838ZM1079.62 252.567C1079.68 249.949 1081.37 246.694 1083.44 245.3C1085.54 243.896 1087.2 244.818 1087.1 247.376C1087.01 249.898 1085.23 253.161 1083.17 254.624C1081.12 256.082 1079.54 255.153 1079.62 252.567ZM1052.74 271.623C1052.71 268.842 1054.38 265.402 1056.53 263.878C1058.65 262.38 1060.44 263.353 1060.44 266.09C1060.45 268.79 1058.69 272.259 1056.59 273.785C1054.48 275.331 1052.76 274.355 1052.74 271.623ZM1025.19 291.629C1025.07 288.766 1026.72 285.176 1028.89 283.595C1031.09 282.004 1032.98 282.997 1033.09 285.844C1033.19 288.658 1031.46 292.256 1029.28 293.874C1027.12 295.471 1025.3 294.455 1025.19 291.629ZM997.02 312.339C996.825 309.431 998.434 305.781 1000.69 304.14C1002.9 302.528 1004.9 303.509 1005.07 306.405C1005.25 309.265 1003.55 312.959 1001.36 314.582C999.144 316.23 997.221 315.21 997.02 312.339ZM968.444 333.378C968.18 330.473 969.769 326.813 972.003 325.16C974.284 323.492 976.352 324.47 976.6 327.38C976.854 330.252 975.189 333.953 972.924 335.615C970.718 337.243 968.694 336.235 968.444 333.378ZM939.501 354.474C939.178 351.604 940.728 347.99 943.026 346.318C945.296 344.671 947.44 345.609 947.747 348.484C948.06 351.322 946.423 354.996 944.18 356.617C941.899 358.285 939.826 357.291 939.501 354.474ZM910.384 375.272C909.994 372.474 911.504 368.959 913.811 367.319C916.119 365.679 918.278 366.612 918.656 369.431C919.019 372.202 917.46 375.784 915.164 377.403C912.868 379.023 910.763 378.038 910.384 375.272ZM881.169 395.506C880.74 392.807 882.241 389.382 884.546 387.795C886.824 386.233 889.054 387.11 889.473 389.83C889.882 392.518 888.33 396.011 886.063 397.551C883.769 399.117 881.59 398.173 881.169 395.506ZM852.046 414.806C851.576 412.206 853.051 408.928 855.315 407.44C857.612 405.943 859.842 406.82 860.285 409.446C860.735 412.034 859.258 415.365 856.972 416.842C854.698 418.298 852.507 417.374 852.046 414.806ZM823.055 432.899C822.56 430.393 823.986 427.304 826.231 425.926C828.503 424.524 830.781 425.387 831.265 427.913C831.739 430.407 830.272 433.595 828.006 434.961C825.763 436.286 823.551 435.351 823.055 432.899ZM794.42 449.42C793.905 447.026 795.278 444.109 797.508 442.858C799.722 441.612 801.984 442.48 802.492 444.912C803.006 447.307 801.568 450.295 799.365 451.52C797.146 452.75 794.925 451.783 794.42 449.42ZM766.167 464.103C765.623 461.786 766.972 459.086 769.187 457.962C771.375 456.863 773.603 457.793 774.135 460.13C774.658 462.436 773.285 465.23 771.109 466.308C768.905 467.412 766.701 466.387 766.167 464.103ZM738.509 476.604C737.969 474.356 739.237 471.854 741.407 470.935C743.546 470.025 745.745 471.034 746.29 473.297C746.826 475.529 745.502 478.135 743.379 479.04C741.208 479.959 739.062 478.831 738.509 476.604ZM711.515 486.624C710.968 484.413 712.208 482.112 714.298 481.39C716.408 480.681 718.56 481.825 719.107 484.036C719.65 486.231 718.39 488.643 716.28 489.353C714.206 490.069 712.053 488.803 711.515 486.624ZM685.322 494.036C684.758 491.83 685.961 489.696 688.011 489.196C690.04 488.685 692.154 489.997 692.702 492.208C693.24 494.387 692.034 496.626 690.004 497.138C687.954 497.638 685.876 496.21 685.322 494.036ZM659.174 498.765C658.611 496.559 659.833 494.612 661.871 494.307C663.93 494.014 666.055 495.48 666.618 497.686C667.172 499.86 665.963 501.909 663.892 502.223C661.849 502.512 659.728 500.939 659.174 498.765ZM632.933 501.046C632.358 498.861 633.538 497.065 635.612 496.942C637.654 496.828 639.805 498.443 640.38 500.629C640.945 502.782 639.741 504.672 637.699 504.786C635.641 504.904 633.514 503.194 632.933 501.046ZM606.579 501.231C605.977 499.072 607.178 497.409 609.231 497.449C611.316 497.48 613.468 499.217 614.07 501.377C614.662 503.504 613.468 505.252 611.4 505.217C609.342 505.161 607.172 503.359 606.579 501.231ZM580.146 499.731C579.517 497.596 580.703 496.06 582.789 496.213C584.859 496.37 587.03 498.171 587.659 500.306C588.279 502.408 587.1 504.029 585.047 503.867C582.977 503.71 580.766 501.833 580.146 499.731ZM553.68 496.932C553.011 494.844 554.185 493.381 556.246 493.628C558.344 493.881 560.55 495.743 561.202 497.835C561.85 499.912 560.707 501.418 558.624 501.16C556.568 500.929 554.343 499.004 553.68 496.932ZM527.139 493.23C526.427 491.173 527.587 489.784 529.684 490.09C531.743 490.39 533.995 492.289 534.691 494.352C535.377 496.382 534.247 497.814 532.199 497.494C530.103 497.188 527.841 495.256 527.139 493.23ZM500.611 488.984C499.877 486.968 500.983 485.63 503.052 485.962C505.157 486.3 507.389 488.189 508.123 490.205C508.836 492.21 507.772 493.57 505.699 493.222C503.651 492.902 501.341 490.984 500.611 488.984ZM474.046 484.61C473.269 482.624 474.352 481.327 476.457 481.666C478.526 481.997 480.822 483.867 481.599 485.853C482.352 487.811 481.294 489.135 479.241 488.799C477.147 488.439 474.814 486.563 474.046 484.61ZM447.52 480.485C446.704 478.546 447.766 477.238 449.841 477.533C451.938 477.839 454.235 479.656 455.035 481.6C455.831 483.528 454.838 484.833 452.741 484.527C450.682 484.227 448.327 482.393 447.52 480.485ZM420.988 476.99C420.128 475.081 421.165 473.746 423.263 473.999C425.324 474.246 427.683 475.975 428.527 477.889C429.361 479.771 428.361 481.113 426.311 480.845C424.218 480.608 421.838 478.868 420.988 476.99ZM394.536 474.536C393.653 472.668 394.655 471.274 396.725 471.431C398.81 471.583 401.162 473.227 402.033 475.116C402.894 476.972 401.957 478.348 399.882 478.175C397.824 477.997 395.408 476.372 394.536 474.536ZM368.125 473.465C367.215 471.623 368.193 470.148 370.278 470.179C372.331 470.219 374.718 471.747 375.627 473.589C376.516 475.42 375.577 476.849 373.54 476.804C371.46 476.79 369.03 475.291 368.125 473.465ZM341.815 474.213C340.878 472.396 341.807 470.814 343.881 470.691C345.955 470.567 348.32 471.963 349.262 473.796C350.178 475.601 349.304 477.132 347.225 477.24C345.167 477.358 342.747 476.014 341.815 474.213ZM315.593 477.151C314.644 475.355 315.583 473.63 317.653 473.316C319.692 473.011 322.099 474.255 323.036 476.072C323.964 477.856 323.08 479.53 321.053 479.814C318.978 480.112 316.515 478.919 315.593 477.151ZM289.498 482.65C288.549 480.854 289.441 478.968 291.503 478.448C293.548 477.931 295.941 479.005 296.889 480.801C297.833 482.581 296.991 484.399 294.924 484.904C292.879 485.42 290.437 484.414 289.498 482.65ZM263.857 490.16C262.945 488.371 263.839 486.433 265.824 485.83C267.777 485.236 270.115 486.186 271.047 487.987C271.97 489.756 271.125 491.679 269.135 492.266C267.134 492.874 264.763 491.934 263.857 490.16ZM239.066 498.013C238.265 496.243 239.159 494.305 241.066 493.673C242.988 493.036 245.168 493.98 246.022 495.752C246.855 497.512 245.994 499.441 244.046 500.05C242.091 500.697 239.879 499.762 239.066 498.013ZM214.954 506.154C214.296 504.394 215.29 502.444 217.128 501.815C218.993 501.16 221.037 502.057 221.749 503.819C222.434 505.552 221.472 507.493 219.57 508.142C217.679 508.769 215.592 507.902 214.954 506.154ZM191.405 514.548C190.947 512.816 192.063 510.865 193.871 510.192C195.678 509.519 197.522 510.389 198.038 512.138C198.544 513.855 197.471 515.776 195.595 516.451C193.73 517.106 191.854 516.247 191.405 514.548ZM168.342 523.112C168.116 521.399 169.38 519.474 171.135 518.8C172.906 518.12 174.581 518.952 174.86 520.666C175.15 522.36 173.886 524.285 172.042 524.951C170.235 525.624 168.559 524.792 168.342 523.112ZM145.624 531.836C145.667 530.149 147.11 528.241 148.839 527.539C150.557 526.858 152.011 527.65 152.037 529.334C152.074 530.997 150.615 532.91 148.824 533.578C147.026 534.283 145.592 533.503 145.624 531.836ZM123.177 540.655C123.493 539.009 125.148 537.108 126.845 536.415C128.574 535.714 129.797 536.487 129.553 538.146C129.321 539.784 127.646 541.674 125.843 542.362C124.056 543.046 122.855 542.285 123.177 540.655ZM100.838 549.546C101.445 547.937 103.316 546.059 105.024 545.346C106.721 544.654 107.707 545.392 107.173 547.014C106.652 548.616 104.76 550.482 102.978 551.182C101.175 551.871 100.227 551.139 100.838 549.546ZM78.532 558.428C79.4239 556.839 81.5317 554.996 83.224 554.288C84.9371 553.591 85.6742 554.315 84.8672 555.896C84.0602 557.477 81.9477 559.304 80.1496 560.009C78.3676 560.709 77.6514 559.996 78.532 558.428ZM56.1521 567.296C57.3339 565.744 59.6579 563.925 61.3871 563.223C63.1002 562.526 63.637 563.222 62.5288 564.787C61.432 566.332 59.055 568.149 57.2683 568.833C55.4608 569.506 54.9816 568.828 56.1521 567.296ZM33.5691 576.068C35.02 574.541 37.5811 572.756 39.299 572.075C41.0489 571.385 41.3694 572.058 39.9922 573.598C38.6262 575.117 36.0283 576.895 34.2048 577.572C32.4133 578.24 32.1455 577.569 33.5691 576.068ZM10.6726 584.722C12.3766 583.226 15.1378 581.469 16.9246 580.785C18.6792 580.111 18.8572 580.773 17.2109 582.288C15.5919 583.777 12.7409 585.525 10.9334 586.198C9.08429 586.848 8.99598 586.194 10.6726 584.722ZM-12.6092 593.194C-10.689 591.721 -7.72764 589.993 -5.91538 589.336C-4.08707 588.675 -4.08371 589.336 -5.95105 590.812C-7.78629 592.277 -10.8213 593.993 -12.7025 594.652C-14.5724 595.291 -14.5021 594.642 -12.6092 593.194ZM-36.4398 601.462C-34.3402 600.005 -31.1947 598.31 -29.3248 597.671C-27.471 597.037 -27.5621 597.674 -29.6088 599.133C-31.6282 600.566 -34.8795 602.257 -36.7814 602.905C-38.6881 603.538 -38.5121 602.893 -36.4398 601.462ZM-60.8956 609.442C-58.6695 608.001 -55.388 606.353 -53.4605 605.732C-51.533 605.111 -51.7044 605.772 -53.8984 607.204C-56.0604 608.627 -59.4476 610.271 -61.4072 610.901C-63.3668 611.532 -63.0944 610.858 -60.8956 609.442ZM-86.0985 617.138C-83.7987 615.709 -80.3859 614.092 -78.3847 613.484C-76.411 612.902 -76.5663 613.559 -78.8661 614.987C-81.1177 616.401 -84.6523 618.019 -86.6421 618.606C-88.6433 619.214 -88.3709 618.54 -86.0985 617.138ZM-113.313 623.63C-111.055 622.179 -107.476 620.652 -105.242 620.185C-102.991 619.713 -102.991 620.481 -105.287 621.925C-107.538 623.339 -111.177 624.901 -113.406 625.384C-115.62 625.863 -115.544 625.055 -113.313 623.63ZM-143.499 629.097C-141.37 627.562 -137.706 626.028 -135.258 625.637C-132.793 625.241 -132.484 626.11 -134.655 627.622C-136.798 629.109 -140.537 630.683 -142.956 631.117C-145.363 631.53 -145.601 630.606 -143.499 629.097ZM-176.086 633.877C-174.174 632.196 -170.492 630.605 -167.838 630.258C-165.185 629.911 -164.622 630.932 -166.617 632.566C-168.568 634.171 -172.268 635.821 -174.859 636.201C-177.446 636.598 -177.97 635.531 -176.086 633.877ZM-210.535 638.194C-208.867 636.341 -205.291 634.624 -202.518 634.329C-199.712 634.025 -198.826 635.194 -200.562 636.997C-202.271 638.774 -205.901 640.543 -208.618 640.908C-211.32 641.269 -212.177 640.021 -210.535 638.194ZM-246.412 642.287C-245.053 640.212 -241.621 638.363 -238.71 638.062C-235.846 637.776 -234.649 639.114 -236.096 641.128C-237.536 643.106 -240.992 645.049 -243.768 645.397C-246.591 645.759 -247.759 644.342 -246.412 642.287ZM-283.157 646.392C-282.128 644.083 -278.912 642.036 -275.98 641.746C-273.016 641.448 -271.523 642.961 -272.639 645.209C-273.748 647.42 -276.989 649.562 -279.849 649.917C-282.689 650.284 -284.174 648.681 -283.157 646.392ZM-320.334 650.747C-319.657 648.193 -316.714 645.929 -313.717 645.621C-310.774 645.311 -308.969 646.994 -309.755 649.476C-310.513 651.932 -313.48 654.29 -316.315 654.673C-319.203 655.053 -321.004 653.265 -320.334 650.747ZM-357.383 655.535C-357.079 652.724 -354.429 650.233 -351.516 649.88C-348.555 649.512 -346.491 651.363 -346.888 654.097C-347.295 656.798 -349.927 659.406 -352.78 659.846C-355.596 660.293 -357.681 658.309 -357.383 655.535ZM-393.854 661.042C-393.917 657.99 -391.619 655.254 -388.709 654.832C-385.846 654.424 -383.534 656.41 -383.58 659.389C-383.619 662.331 -385.911 665.205 -388.665 665.686C-391.462 666.197 -393.785 664.056 -393.854 661.042ZM-429.203 667.456C-429.633 664.164 -427.698 661.204 -424.933 660.702C-422.136 660.191 -419.627 662.312 -419.289 665.526C-418.961 668.709 -420.881 671.839 -423.574 672.407C-426.235 672.965 -428.787 670.7 -429.203 667.456ZM-463.004 675.036C-463.777 671.531 -462.209 668.33 -459.562 667.724C-456.947 667.127 -454.26 669.317 -453.597 672.75C-452.927 676.145 -454.438 679.539 -456.969 680.181C-459.528 680.849 -462.251 678.477 -463.004 675.036ZM-494.678 683.977C-495.761 680.302 -494.593 676.87 -492.154 676.151C-489.683 675.422 -486.929 677.662 -485.944 681.297C-484.958 684.878 -486.037 688.493 -488.425 689.267C-490.77 690.011 -493.608 687.604 -494.678 683.977ZM-523.777 694.549C-525.126 690.743 -524.353 687.096 -522.115 686.226C-519.893 685.362 -517.07 687.599 -515.804 691.36C-514.552 695.072 -515.243 698.939 -517.391 699.817C-519.567 700.72 -522.446 698.29 -523.777 694.549ZM-549.774 706.943C-551.337 703.061 -550.981 699.241 -548.998 698.22C-547.014 697.199 -544.263 699.37 -542.741 703.229C-541.249 707.045 -541.522 711.086 -543.449 712.125C-545.375 713.164 -548.213 710.757 -549.774 706.943ZM-572.195 721.406C-573.918 717.518 -573.91 713.522 -572.238 712.331C-570.582 711.145 -567.906 713.181 -566.216 717.078C-564.544 720.911 -564.469 725.128 -566.089 726.32C-567.74 727.523 -570.487 725.246 -572.195 721.406Z" fill="url(#paint0_linear_351_857)"/>
</g>
</g>
<defs>
<linearGradient id="paint0_linear_351_857" x1="1261.48" y1="225.331" x2="224.659" y2="953.686" gradientUnits="userSpaceOnUse">
<stop stop-color="#07EDD2"/>
<stop offset="1" stop-color="#9C63F7"/>
</linearGradient>
</defs>
</svg>
