<svg width="1280" height="805" viewBox="0 0 1280 805" fill="none" xmlns="http://www.w3.org/2000/svg">
<g opacity="0.5484">
<g opacity="0.5484">
<path opacity="0.5484" d="M1462.48 2.85175C1461.42 3.00552 1461.89 3.04292 1463.57 2.87924C1465.25 2.71556 1467.49 2.40227 1468.54 2.24851C1469.58 2.09948 1469.05 2.17069 1467.37 2.33437C1465.69 2.49806 1463.53 2.69799 1462.48 2.85175ZM1438.46 6.74502C1437.37 6.8922 1437.83 6.80778 1439.51 6.46943C1441.19 6.14713 1443.43 5.696 1444.52 5.53277C1445.6 5.36955 1445.1 5.56917 1443.44 5.90279C1441.76 6.24114 1439.55 6.59784 1438.46 6.74502ZM1414.49 12.8531C1413.35 12.9456 1413.77 12.7008 1415.44 12.2246C1417.12 11.7484 1419.42 11.2255 1420.54 11.1057C1421.65 10.9858 1421.18 11.3346 1419.51 11.8268C1417.84 12.319 1415.63 12.7446 1414.49 12.8531ZM1390.57 20.9053C1389.4 20.9015 1389.78 20.4754 1391.45 19.8774C1393.12 19.2794 1395.44 18.7357 1396.6 18.7074C1397.76 18.6791 1397.34 19.2044 1395.67 19.8185C1394.01 20.4485 1391.74 20.9091 1390.57 20.9053ZM1366.67 30.6578C1365.44 30.5304 1365.8 29.9023 1367.48 29.1985C1369.15 28.4948 1371.51 27.9576 1372.72 28.053C1373.93 28.1483 1373.52 28.8643 1371.85 29.6162C1370.2 30.3313 1367.89 30.7853 1366.67 30.6578ZM1342.85 41.853C1341.59 41.5603 1341.91 40.7349 1343.57 39.9462C1345.24 39.1575 1347.61 38.6685 1348.87 38.9082C1350.11 39.1528 1349.76 40.0566 1348.11 40.8935C1346.44 41.735 1344.12 42.1409 1342.85 41.853ZM1319.08 54.2358C1317.78 53.7827 1318.05 52.76 1319.71 51.8863C1321.37 51.0126 1323.79 50.5944 1325.08 50.9994C1326.37 51.4044 1326.02 52.5197 1324.37 53.4415C1322.71 54.368 1320.36 54.6937 1319.08 54.2358ZM1295.31 67.577C1294 66.9539 1294.25 65.7291 1295.9 64.7865C1297.53 63.8694 1299.99 63.5475 1301.31 64.1337C1302.63 64.72 1302.32 66.0165 1300.69 66.9865C1299.02 67.9498 1296.63 68.2 1295.31 67.577ZM1271.61 81.5818C1270.25 80.7775 1270.45 79.3923 1272.12 78.4289C1273.77 77.4542 1276.24 77.2493 1277.6 78.0007C1278.94 78.7569 1278.64 80.2394 1277 81.2462C1275.32 82.2464 1272.95 82.37 1271.61 81.5818ZM1247.92 96.0322C1246.56 95.074 1246.78 93.5254 1248.43 92.5347C1250.09 91.5393 1252.54 91.4448 1253.89 92.3709C1255.25 93.297 1255 94.8872 1253.34 95.9355C1251.7 96.9423 1249.29 96.9904 1247.92 96.0322ZM1224.28 110.664C1222.91 109.568 1223.12 107.902 1224.78 106.907C1226.43 105.895 1228.91 105.897 1230.27 106.961C1231.63 108.025 1231.35 109.746 1229.71 110.79C1228.06 111.818 1225.65 111.76 1224.28 110.664ZM1200.69 125.208C1199.35 124.017 1199.54 122.287 1201.21 121.271C1202.82 120.29 1205.29 120.382 1206.65 121.567C1208.01 122.737 1207.72 124.548 1206.1 125.55C1204.43 126.566 1202.06 126.394 1200.69 125.208ZM1177.12 139.434C1175.79 138.186 1176.04 136.405 1177.66 135.419C1179.31 134.445 1181.76 134.631 1183.08 135.863C1184.41 137.111 1184.11 138.943 1182.47 139.933C1180.84 140.919 1178.45 140.682 1177.12 139.434ZM1153.62 153.065C1152.34 151.803 1152.57 150.059 1154.22 149.121C1155.86 148.183 1158.26 148.415 1159.56 149.689C1160.86 150.963 1160.52 152.772 1158.88 153.694C1157.22 154.636 1154.9 154.327 1153.62 153.065ZM1130.13 165.871C1128.92 164.658 1129.23 162.98 1130.85 162.1C1132.47 161.22 1134.82 161.487 1136.06 162.727C1137.3 163.967 1136.95 165.675 1135.3 166.528C1133.63 167.401 1131.34 167.083 1130.13 165.871ZM1106.39 177.984C1105.24 176.875 1105.66 175.27 1107.33 174.391C1109.03 173.508 1111.35 173.695 1112.51 174.837C1113.66 175.978 1113.19 177.582 1111.5 178.449C1109.78 179.305 1107.52 179.099 1106.39 177.984ZM1081.36 191.7C1080.29 190.672 1080.85 189.024 1082.62 187.996C1084.4 186.983 1086.72 186.995 1087.81 188.034C1088.9 189.073 1088.29 190.735 1086.51 191.731C1084.72 192.749 1082.43 192.727 1081.36 191.7ZM1055.24 207.129C1054.23 206.136 1054.88 204.427 1056.71 203.311C1058.56 202.19 1060.91 202.091 1061.92 203.101C1062.95 204.106 1062.23 205.817 1060.37 206.943C1058.53 208.043 1056.25 208.122 1055.24 207.129ZM1028.15 223.98C1027.19 222.973 1027.95 221.162 1029.86 219.953C1031.77 218.744 1034.1 218.598 1035.08 219.601C1036.05 220.604 1035.27 222.387 1033.34 223.601C1031.42 224.83 1029.11 224.988 1028.15 223.98ZM1000.27 241.937C999.346 240.867 1000.15 238.989 1002.11 237.713C1004.07 236.437 1006.45 236.26 1007.38 237.31C1008.32 238.359 1007.44 240.26 1005.47 241.536C1003.49 242.838 1001.2 243.007 1000.27 241.937ZM971.717 260.738C970.82 259.589 971.711 257.582 973.715 256.276C975.715 254.954 978.065 254.819 978.973 255.946C979.881 257.074 978.965 259.054 976.954 260.397C974.938 261.724 972.614 261.886 971.717 260.738ZM942.678 280.03C941.801 278.771 942.721 276.686 944.748 275.338C946.791 273.985 949.171 273.894 950.055 275.116C950.939 276.338 949.955 278.442 947.9 279.816C945.867 281.2 943.539 281.294 942.678 280.03ZM913.26 299.574C912.398 298.189 913.37 295.983 915.429 294.626C917.493 293.285 919.849 293.287 920.717 294.636C921.586 295.985 920.593 298.179 918.539 299.552C916.453 300.935 914.102 300.948 913.26 299.574ZM883.623 319.025C882.776 317.514 883.752 315.203 885.816 313.861C887.884 312.536 890.289 312.646 891.127 314.126C891.98 315.601 890.952 317.91 888.877 319.273C886.823 320.646 884.471 320.537 883.623 319.025ZM853.969 338.063C853.132 336.409 854.111 333.992 856.173 332.704C858.251 331.41 860.603 331.694 861.446 333.311C862.289 334.929 861.28 337.302 859.216 338.644C857.148 339.969 854.806 339.718 853.969 338.063ZM824.364 356.441C823.517 354.633 824.498 352.163 826.558 350.928C828.618 349.692 830.991 350.109 831.845 351.88C832.683 353.656 831.66 356.103 829.61 357.371C827.543 358.643 825.212 358.25 824.364 356.441ZM795.059 373.824C794.211 371.894 795.173 369.36 797.171 368.212C799.246 367.025 801.575 367.646 802.429 369.539C803.268 371.437 802.292 373.923 800.227 375.143C798.206 376.332 795.891 375.759 795.059 373.824ZM766.09 389.921C765.24 387.869 766.161 385.313 768.183 384.245C770.19 383.183 772.529 383.958 773.385 385.973C774.23 388.009 773.263 390.527 771.25 391.626C769.242 392.742 766.944 391.989 766.09 389.921ZM737.716 404.43C736.87 402.272 737.731 399.751 739.729 398.778C741.668 397.84 743.99 398.794 744.831 400.936C745.688 403.073 744.738 405.586 742.809 406.556C740.795 407.534 738.562 406.588 737.716 404.43ZM710.007 417.051C709.153 414.808 710.008 412.324 711.91 411.501C713.813 410.678 716.087 411.821 716.951 414.043C717.8 416.27 716.904 418.732 714.985 419.56C713.071 420.403 710.86 419.294 710.007 417.051ZM683.168 427.479C682.316 425.183 683.077 422.796 684.926 422.146C686.771 421.48 688.99 422.796 689.853 425.071C690.7 427.35 689.865 429.725 688.005 430.396C686.161 431.062 684.014 429.758 683.168 427.479ZM657.047 435.079C656.195 432.783 656.988 430.561 658.793 430.116C660.614 429.666 662.784 431.171 663.636 433.467C664.487 435.762 663.67 437.957 661.849 438.407C660.044 438.852 657.898 437.374 657.047 435.079ZM631.005 439.812C630.17 437.512 630.936 435.437 632.761 435.178C634.581 434.902 636.746 436.566 637.577 438.85C638.412 441.151 637.584 443.192 635.764 443.467C633.939 443.726 631.825 442.117 631.005 439.812ZM604.884 442.266C604.07 439.977 604.89 438.026 606.72 437.904C608.535 437.788 610.664 439.567 611.479 441.856C612.294 444.145 611.48 446.059 609.65 446.18C607.814 446.286 605.699 444.555 604.884 442.266ZM578.768 442.783C577.99 440.5 578.801 438.639 580.638 438.655C582.453 438.66 584.591 440.524 585.373 442.823C586.151 445.105 585.288 446.912 583.457 446.912C581.62 446.895 579.546 445.065 578.768 442.783ZM552.606 441.725C551.865 439.45 552.737 437.675 554.565 437.781C556.393 437.887 558.468 439.839 559.209 442.115C559.966 444.386 559.08 446.113 557.252 446.006C555.424 445.9 553.347 444.001 552.606 441.725ZM526.438 439.466C525.734 437.197 526.625 435.487 528.439 435.667C530.254 435.846 532.328 437.851 533.037 440.136C533.741 442.406 532.815 444.057 530.984 443.881C529.165 443.686 527.142 441.736 526.438 439.466ZM500.242 436.343C499.591 434.076 500.532 432.42 502.361 432.648C504.19 432.876 506.189 434.921 506.856 437.183C507.524 439.446 506.584 441.049 504.755 440.821C502.926 440.593 500.909 438.606 500.242 436.343ZM474.058 432.729C473.443 430.468 474.411 428.839 476.228 429.088C478.051 429.353 480.054 431.414 480.664 433.658C481.294 435.914 480.292 437.483 478.453 437.223C476.636 436.974 474.672 434.989 474.058 432.729ZM447.852 428.981C447.295 426.738 448.311 425.095 450.133 425.36C451.956 425.625 453.885 427.672 454.463 429.926C455.04 432.18 454.033 433.733 452.195 433.473C450.372 433.209 448.425 431.219 447.852 428.981ZM421.676 425.451C421.155 423.214 422.187 421.567 424.016 421.795C425.845 422.023 427.754 424.059 428.295 426.307C428.831 428.538 427.764 430.126 425.93 429.882C424.081 429.643 422.196 427.687 421.676 425.451ZM395.479 422.502C394.996 420.273 396.103 418.586 397.918 418.766C399.732 418.945 401.595 420.943 402.078 423.172C402.561 425.402 401.483 427.011 399.652 426.836C397.838 426.656 395.962 424.732 395.479 422.502ZM369.302 420.508C368.855 418.285 369.996 416.535 371.808 416.646C373.636 416.752 375.48 418.686 375.926 420.909C376.373 423.132 375.24 424.792 373.412 424.685C371.584 424.579 369.732 422.736 369.302 420.508ZM343.163 419.827C342.754 417.611 343.924 415.783 345.74 415.788C347.539 415.798 349.354 417.635 349.764 419.851C350.174 422.068 349.012 423.806 347.212 423.796C345.38 423.796 343.573 422.044 343.163 419.827ZM317.021 420.788C316.648 418.578 317.822 416.644 319.657 416.539C321.472 416.422 323.259 418.163 323.647 420.368C324.02 422.578 322.85 424.406 321.019 424.527C319.189 424.649 317.398 423.014 317.021 420.788ZM290.955 423.784C290.598 421.569 291.792 419.525 293.601 419.271C295.421 418.995 297.191 420.619 297.543 422.818C297.899 425.032 296.709 426.971 294.889 427.246C293.064 427.505 291.296 426.003 290.955 423.784ZM264.88 429.172C264.544 426.969 265.748 424.782 267.569 424.332C269.39 423.882 271.133 425.357 271.485 427.555C271.821 429.759 270.625 431.856 268.8 432.29C266.979 432.739 265.216 431.376 264.88 429.172ZM240.734 436.608C240.403 434.421 241.43 432.164 243.031 431.622C244.617 431.085 246.189 432.452 246.536 434.635C246.872 436.838 245.822 439.014 244.253 439.547C242.635 440.094 241.07 438.811 240.734 436.608ZM218.704 445.007C218.367 442.857 219.299 440.576 220.808 439.956C222.301 439.341 223.813 440.622 224.155 442.789C224.498 444.955 223.526 447.161 222.028 447.76C220.519 448.379 219.047 447.174 218.704 445.007ZM198.044 454.206C197.688 452.113 198.519 449.844 199.941 449.163C201.351 448.503 202.797 449.681 203.162 451.806C203.507 453.92 202.625 456.134 201.215 456.794C199.788 457.459 198.388 456.319 198.044 454.206ZM178.481 464.11C178.108 462.074 178.874 459.825 180.217 459.115C181.56 458.405 182.983 459.503 183.345 461.559C183.708 463.615 182.89 465.81 181.558 466.499C180.21 467.193 178.855 466.145 178.481 464.11ZM159.826 474.548C159.424 472.592 160.099 470.386 161.379 469.642C162.66 468.898 164.054 469.9 164.446 471.878C164.837 473.855 164.079 476.015 162.814 476.754C161.545 477.478 160.229 476.505 159.826 474.548ZM141.86 485.429C141.433 483.567 142.049 481.397 143.304 480.625C144.554 479.838 145.925 480.759 146.345 482.659C146.766 484.558 146.094 486.657 144.855 487.424C143.623 488.154 142.303 487.287 141.86 485.429ZM124.392 496.582C123.92 494.803 124.474 492.72 125.688 491.926C126.901 491.132 128.308 491.938 128.769 493.738C129.23 495.539 128.581 497.596 127.379 498.37C126.161 499.148 124.865 498.361 124.392 496.582ZM107.172 507.923C106.659 506.243 107.18 504.223 108.393 503.429C109.602 502.619 111.006 503.356 111.507 505.057C112.009 506.758 111.41 508.749 110.224 509.517C109.022 510.29 107.681 509.587 107.172 507.923ZM90.0097 519.282C89.4562 517.701 89.9522 515.775 91.161 514.965C92.3699 514.155 93.8348 514.805 94.377 516.407C94.9192 518.008 94.3334 519.925 93.1359 520.715C91.9337 521.488 90.5632 520.863 90.0097 519.282ZM72.713 530.541C72.119 529.059 72.5859 527.212 73.8155 526.413C75.0291 525.619 76.5278 526.206 77.1106 527.709C77.6933 529.212 77.132 531.034 75.9137 531.812C74.6954 532.59 73.2863 532.012 72.713 530.541ZM55.0329 541.564C54.4143 540.177 54.8615 538.44 56.0959 537.658C57.351 536.886 58.9158 537.401 59.5391 538.805C60.1463 540.213 59.5821 541.967 58.3383 542.717C57.0784 543.473 55.6514 542.952 55.0329 541.564ZM36.7454 552.244C36.0976 550.934 36.5524 549.283 37.8491 548.534C39.1457 547.785 40.77 548.266 41.4225 549.591C42.075 550.916 41.4985 552.568 40.1971 553.301C38.9117 554.029 37.3931 553.553 36.7454 552.244ZM17.6701 562.44C16.9931 561.209 17.4763 559.654 18.8353 558.939C20.199 558.24 21.9102 558.66 22.5758 559.911C23.2415 561.163 22.6252 562.74 21.2567 563.423C19.925 564.112 18.347 563.671 17.6701 562.44ZM-2.41028 572.008C-3.10513 570.835 -2.57757 569.371 -1.13069 568.718C0.30014 568.069 2.08021 568.486 2.77506 569.659C3.47465 570.848 2.81392 572.334 1.37835 572.966C-0.0685253 573.62 -1.71543 573.181 -2.41028 572.008ZM-23.7403 580.829C-24.437 579.709 -23.8537 578.316 -22.3189 577.723C-20.7889 577.115 -18.9031 577.536 -18.2017 578.672C-17.5003 579.808 -18.2536 581.216 -19.7723 581.804C-21.307 582.396 -23.0228 581.96 -23.7403 580.829ZM-46.4636 588.77C-47.1717 587.67 -46.507 586.375 -44.8845 585.844C-43.2619 585.313 -41.2817 585.758 -40.5737 586.858C-39.8656 587.957 -40.7068 589.304 -42.3501 589.824C-43.9888 590.359 -45.7717 589.874 -46.4636 588.77ZM-74.7818 595.779C-75.4738 594.675 -74.3719 593.443 -72.2498 593.009C-70.1277 592.575 -67.7679 593.065 -67.076 594.169C-66.384 595.273 -67.6142 596.543 -69.7316 596.993C-71.8489 597.443 -74.0898 596.883 -74.7818 595.779ZM-107.298 600.974C-107.958 599.86 -106.685 598.735 -104.334 598.425C-101.984 598.116 -99.4691 598.717 -98.7931 599.826C-98.1172 600.935 -99.5505 602.108 -101.917 602.422C-104.263 602.748 -106.638 602.088 -107.298 600.974ZM-142.792 604.588C-143.399 603.476 -141.88 602.418 -139.347 602.194C-136.81 601.986 -134.214 602.686 -133.59 603.793C-132.967 604.9 -134.562 605.998 -137.116 606.211C-139.665 606.439 -142.185 605.7 -142.792 604.588ZM-180.658 606.965C-181.196 605.851 -179.54 604.839 -176.841 604.706C-174.142 604.573 -171.453 605.349 -170.899 606.459C-170.34 607.585 -172.15 608.607 -174.865 608.745C-177.58 608.883 -180.12 608.08 -180.658 606.965ZM-220.382 608.478C-220.84 607.34 -218.964 606.368 -216.161 606.291C-213.363 606.198 -210.692 607.033 -210.202 608.162C-209.728 609.295 -211.652 610.281 -214.488 610.368C-217.323 610.454 -219.929 609.6 -220.382 608.478ZM-261.36 609.471C-261.716 608.32 -259.751 607.357 -256.874 607.293C-253.997 607.229 -251.301 608.091 -250.928 609.237C-250.539 610.378 -252.659 611.352 -255.552 611.421C-258.44 611.505 -261.003 610.621 -261.36 609.471ZM-303.078 610.316C-303.334 609.153 -301.219 608.163 -298.305 608.106C-295.392 608.049 -292.792 608.939 -292.504 610.092C-292.216 611.246 -294.384 612.234 -297.313 612.296C-300.27 612.383 -302.818 611.495 -303.078 610.316ZM-344.926 611.373C-345.085 610.182 -342.931 609.145 -340.023 609.072C-337.114 608.999 -334.551 609.883 -334.375 611.07C-334.183 612.252 -336.464 613.273 -339.4 613.372C-342.325 613.449 -344.766 612.565 -344.926 611.373ZM-386.417 612.988C-386.48 611.769 -384.244 610.656 -381.387 610.528C-378.529 610.4 -376.12 611.294 -376.024 612.505C-375.929 613.715 -378.206 614.805 -381.096 614.942C-383.965 615.091 -386.349 614.224 -386.417 612.988ZM-426.903 615.528C-426.895 614.253 -424.683 613.059 -421.897 612.866C-419.111 612.672 -416.801 613.525 -416.797 614.78C-416.794 616.035 -419.095 617.22 -421.914 617.423C-424.711 617.638 -426.91 616.804 -426.903 615.528ZM-465.909 619.358C-465.831 618.027 -463.641 616.701 -460.973 616.402C-458.305 616.104 -456.19 616.945 -456.241 618.251C-456.308 619.561 -458.524 620.86 -461.208 621.164C-463.903 621.488 -465.992 620.674 -465.909 619.358ZM-502.866 624.817C-502.754 623.423 -500.631 621.925 -498.118 621.515C-495.61 621.089 -493.615 621.879 -493.732 623.256C-493.849 624.634 -496.007 626.073 -498.526 626.519C-501.046 626.966 -502.978 626.21 -502.866 624.817ZM-537.123 632.27C-536.987 630.781 -535.022 629.103 -532.71 628.543C-530.431 627.993 -528.625 628.734 -528.755 630.185C-528.885 631.636 -530.912 633.281 -533.203 633.852C-535.51 634.428 -537.265 633.742 -537.123 632.27ZM-568.244 642.077C-568.12 640.488 -566.36 638.59 -564.275 637.853C-562.19 637.116 -560.577 637.792 -560.711 639.349C-560.845 640.906 -562.656 642.748 -564.732 643.518C-566.808 644.287 -568.369 643.666 -568.244 642.077ZM-595.585 654.589C-595.51 652.892 -594.004 650.721 -592.215 649.81C-590.398 648.873 -588.975 649.499 -589.06 651.164C-589.144 652.829 -590.705 654.929 -592.496 655.893C-594.276 656.837 -595.655 656.302 -595.585 654.589Z" fill="url(#paint0_linear_351_836)"/>
</g>
</g>
<defs>
<linearGradient id="paint0_linear_351_836" x1="1230.11" y1="187.723" x2="278.908" y2="958.646" gradientUnits="userSpaceOnUse">
<stop stop-color="#07EDD2"/>
<stop offset="1" stop-color="#9C63F7"/>
</linearGradient>
</defs>
</svg>
