<svg width="1280" height="630" viewBox="0 0 1280 630" fill="none" xmlns="http://www.w3.org/2000/svg">
<g opacity="0.3871">
<g opacity="0.3871">
<path opacity="0.3871" d="M1388.05 -6.00059C1387.72 -7.54213 1388.65 -9.01854 1390.1 -9.30667C1391.56 -9.59954 1393 -8.57534 1393.35 -7.03853C1393.67 -5.51304 1392.8 -4.05078 1391.31 -3.76923C1389.86 -3.48109 1388.38 -4.49114 1388.05 -6.00059ZM1361.56 -1.79677C1361.23 -3.32226 1362.18 -4.71844 1363.67 -4.93107C1365.13 -5.13424 1366.56 -4.05708 1366.89 -2.53158C1367.21 -1.02214 1366.31 0.343765 1364.85 0.546932C1363.36 0.759566 1361.88 -0.30337 1361.56 -1.79677ZM1335 1.06558C1334.7 -0.416508 1335.69 -1.75322 1337.13 -1.88274C1338.61 -2.02172 1340.01 -0.919109 1340.32 0.579022C1340.61 2.04506 1339.69 3.34678 1338.21 3.48576C1336.75 3.62001 1335.29 2.53161 1335 1.06558ZM1308.42 2.97425C1308.17 1.51479 1309.18 0.274353 1310.65 0.172199C1312.1 0.0747792 1313.48 1.18689 1313.73 2.64635C1314 4.08502 1313.04 5.31129 1311.58 5.39266C1310.11 5.49482 1308.67 4.40161 1308.42 2.97425ZM1281.99 4.30033C1281.78 2.89559 1282.82 1.69854 1284.27 1.6219C1285.73 1.55657 1287.06 2.64607 1287.29 4.06212C1287.51 5.44608 1286.53 6.62418 1285.05 6.69424C1283.58 6.74352 1282.2 5.66824 1281.99 4.30033ZM1255.74 5.37886C1255.58 4.0128 1256.65 2.85921 1258.12 2.79388C1259.54 2.72197 1260.82 3.79357 1260.98 5.15963C1261.15 6.50491 1260.14 7.63959 1258.69 7.70018C1257.23 7.76551 1255.89 6.72888 1255.74 5.37886ZM1229.82 6.62243C1229.71 5.31109 1230.82 4.16402 1232.23 4.09685C1233.67 4.02021 1234.88 5.02576 1234.99 6.35315C1235.09 7.64844 1234.06 8.7558 1232.62 8.83244C1231.21 8.89961 1229.92 7.91772 1229.82 6.62243ZM1204.31 8.37268C1204.27 7.09528 1205.38 5.96423 1206.79 5.84418C1208.17 5.7336 1209.33 6.68441 1209.39 7.95707C1209.44 9.21369 1208.39 10.3258 1206.99 10.4251C1205.58 10.5451 1204.37 9.62929 1204.31 8.37268ZM1179.34 11.0099C1179.34 9.77119 1180.47 8.61944 1181.83 8.44467C1183.18 8.27463 1184.29 9.14995 1184.31 10.4C1184.32 11.6179 1183.24 12.7555 1181.88 12.9142C1180.51 13.089 1179.35 12.2279 1179.34 11.0099ZM1154.99 14.9129C1155.02 13.7015 1156.16 12.4922 1157.5 12.2372C1158.82 11.9869 1159.84 12.7848 1159.82 14.0123C1159.79 15.2076 1158.74 16.3725 1157.42 16.6228C1156.06 16.8664 1154.96 16.1082 1154.99 14.9129ZM1131.39 20.409C1131.45 19.1881 1132.58 17.9306 1133.86 17.5888C1135.13 17.247 1136.13 17.9487 1136.07 19.1695C1136.01 20.3535 1134.95 21.6081 1133.68 21.9499C1132.38 22.2804 1131.33 21.6137 1131.39 20.409ZM1108.59 27.9183C1108.65 26.6975 1109.76 25.3229 1110.99 24.8574C1112.24 24.3825 1113.16 25.0181 1113.08 26.2277C1113.02 27.4324 1112 28.7626 1110.76 29.2328C1109.54 29.6982 1108.53 29.1231 1108.59 27.9183ZM1086.77 37.775C1086.82 36.5221 1087.87 35.0078 1089.05 34.414C1090.24 33.8201 1091.11 34.3482 1091.05 35.6058C1090.99 36.8267 1090.03 38.3125 1088.86 38.9016C1087.67 39.4955 1086.71 38.9958 1086.77 37.775ZM1065.96 50.367C1065.97 49.0546 1066.96 47.3686 1068.09 46.6143C1069.22 45.8647 1070.06 46.3126 1070.04 47.6089C1070.02 48.8892 1069.14 50.526 1068.02 51.2916C1066.87 52.0507 1065.93 51.6473 1065.96 50.367ZM1046.29 66.0588C1046.24 64.6757 1047.13 62.7744 1048.21 61.8275C1049.27 60.9062 1050.11 61.269 1050.14 62.6361C1050.18 63.9872 1049.38 65.844 1048.35 66.7767C1047.25 67.7443 1046.32 67.4259 1046.29 66.0588ZM1027.54 85.0544C1027.43 83.5523 1028.27 81.4907 1029.33 80.4107C1030.4 79.326 1031.27 79.6264 1031.36 81.1011C1031.46 82.555 1030.75 84.6478 1029.7 85.7439C1028.66 86.8512 1027.65 86.5404 1027.54 85.0544ZM1007.18 103.809C1007.03 102.231 1007.94 100.15 1009.12 99.1383C1010.29 98.147 1011.28 98.605 1011.43 100.167C1011.57 101.712 1010.81 103.787 1009.64 104.794C1008.46 105.822 1007.33 105.354 1007.18 103.809ZM984.905 121.003C984.714 119.35 985.66 117.291 986.93 116.394C988.211 115.475 989.34 116.049 989.522 117.67C989.699 119.275 988.88 121.348 987.587 122.287C986.321 123.201 985.082 122.607 984.905 121.003ZM960.881 136.775C960.66 135.079 961.647 133.043 963.021 132.202C964.379 131.365 965.605 132.033 965.81 133.734C966.018 135.382 965.141 137.437 963.799 138.269C962.43 139.127 961.093 138.439 960.881 136.775ZM935.41 151.248C935.163 149.524 936.18 147.532 937.61 146.761C939.072 145.981 940.375 146.731 940.621 148.455C940.859 150.146 939.947 152.142 938.506 152.933C937.072 153.688 935.647 152.939 935.41 151.248ZM908.646 164.532C908.362 162.801 909.421 160.832 910.939 160.123C912.44 159.418 913.831 160.229 914.098 161.964C914.373 163.662 913.42 165.635 911.934 166.335C910.416 167.045 908.92 166.23 908.646 164.532ZM880.894 176.712C880.594 174.986 881.667 173.065 883.203 172.42C884.772 171.765 886.23 172.626 886.529 174.352C886.82 176.045 885.852 177.97 884.268 178.63C882.731 179.275 881.184 178.405 880.894 176.712ZM852.306 187.952C851.99 186.231 853.061 184.363 854.676 183.747C856.264 183.156 857.763 184.04 858.079 185.761C858.385 187.45 857.399 189.311 855.816 189.917C854.217 190.528 852.628 189.636 852.306 187.952ZM823.182 198.321C822.839 196.626 823.94 194.801 825.537 194.243C827.183 193.67 828.728 194.592 829.055 196.293C829.389 197.956 828.372 199.773 826.743 200.341C825.146 200.899 823.516 199.985 823.182 198.321ZM793.687 207.963C793.332 206.288 794.416 204.521 796.075 203.997C797.703 203.482 799.269 204.415 799.607 206.095C799.952 207.737 798.937 209.502 797.31 210.017C795.678 210.515 794.032 209.606 793.687 207.963ZM764.108 216.966C763.747 215.329 764.824 213.598 766.461 213.115C768.081 212.637 769.663 213.566 770.008 215.209C770.365 216.83 769.352 218.542 767.715 219.025C766.111 219.498 764.459 218.572 764.108 216.966ZM734.61 225.475C734.258 223.869 735.313 222.18 736.954 221.714C738.563 221.256 740.146 222.185 740.502 223.807C740.849 225.397 739.854 227.051 738.228 227.513C736.603 227.975 734.973 227.06 734.61 225.475ZM705.469 233.599C705.111 232.03 706.159 230.378 707.773 229.937C709.355 229.505 710.916 230.423 711.279 232.008C711.633 233.561 710.644 235.178 709.051 235.63C707.432 236.055 705.818 235.136 705.469 233.599ZM676.921 241.426C676.568 239.874 677.577 238.268 679.143 237.841C680.725 237.409 682.25 238.32 682.603 239.873C682.947 241.393 681.97 242.99 680.404 243.417C678.833 243.828 677.265 242.947 676.921 241.426ZM649.126 249.084C648.798 247.559 649.791 245.958 651.293 245.549C652.79 245.125 654.278 246.03 654.626 247.566C654.965 249.071 654.016 250.642 652.514 251.05C651.012 251.458 649.465 250.589 649.126 249.084ZM622.401 256.705C622.078 255.196 623.007 253.613 624.456 253.203C625.916 252.773 627.346 253.659 627.674 255.185C627.992 256.678 627.086 258.219 625.626 258.649C624.177 259.059 622.715 258.182 622.401 256.705ZM596.62 263.978C596.297 262.468 597.196 260.965 598.627 260.612C600.038 260.249 601.429 261.181 601.731 262.679C602.045 264.157 601.166 265.672 599.751 266.019C598.325 266.388 596.934 265.455 596.62 263.978ZM571.394 268.994C571.071 267.484 571.951 266.091 573.319 265.879C574.719 265.658 576.07 266.69 576.388 268.183C576.702 269.661 575.859 271.061 574.475 271.277C573.107 271.489 571.708 270.471 571.394 268.994ZM546.749 271.78C546.426 270.27 547.282 268.972 548.646 268.866C549.989 268.748 551.32 269.891 551.639 271.384C551.952 272.862 551.134 274.167 549.802 274.263C548.442 274.385 547.063 273.257 546.749 271.78ZM522.647 272.679C522.34 271.165 523.182 269.94 524.485 269.922C525.825 269.91 527.122 271.115 527.445 272.625C527.759 274.102 526.953 275.334 525.614 275.345C524.311 275.363 522.965 274.173 522.647 272.679ZM498.947 272.047C498.64 270.533 499.481 269.36 500.807 269.423C502.102 269.494 503.37 270.777 503.677 272.292C503.974 273.774 503.182 274.932 501.892 274.876C500.566 274.814 499.25 273.545 498.947 272.047ZM475.58 270.235C475.289 268.716 476.139 267.576 477.411 267.689C478.703 267.814 479.954 269.154 480.245 270.673C480.531 272.176 479.741 273.281 478.448 273.157C477.16 273.048 475.85 271.743 475.58 270.235ZM452.417 267.578C452.154 266.034 452.997 264.93 454.283 265.092C455.553 265.258 456.776 266.624 457.039 268.168C457.309 269.676 456.514 270.765 455.244 270.599C453.958 270.438 452.671 269.09 452.417 267.578ZM429.393 264.444C429.145 262.895 430.004 261.787 431.258 261.958C432.517 262.145 433.749 263.543 433.997 265.092C434.251 266.605 433.419 267.687 432.16 267.5C430.911 267.345 429.652 265.973 429.393 264.444ZM406.399 261.179C406.168 259.625 407.054 258.492 408.329 258.674C409.588 258.861 410.772 260.273 411.003 261.827C411.225 263.349 410.414 264.443 409.156 264.256C407.881 264.074 406.621 262.701 406.399 261.179ZM383.373 258.098C383.173 256.535 384.071 255.38 385.337 255.53C386.623 255.692 387.791 257.109 388.006 258.668C388.217 260.21 387.39 261.309 386.088 261.152C384.822 261.002 383.584 259.641 383.373 258.098ZM360.167 255.593C359.979 254.009 360.9 252.813 362.193 252.938C363.469 253.067 364.628 254.452 364.832 256.031C365.027 257.579 364.161 258.724 362.889 258.61C361.596 258.486 360.362 257.14 360.167 255.593ZM336.74 253.991C336.568 252.402 337.522 251.144 338.817 251.215C340.111 251.287 341.277 252.635 341.449 254.224C341.627 255.776 340.744 256.979 339.454 256.923C338.159 256.852 336.919 255.543 336.74 253.991ZM312.962 253.626C312.806 252.032 313.779 250.716 315.118 250.705C316.421 250.687 317.593 251.998 317.765 253.587C317.928 255.144 317.031 256.42 315.707 256.427C314.367 256.438 313.114 255.203 312.962 253.626ZM288.757 254.887C288.601 253.293 289.582 251.888 290.946 251.782C292.31 251.676 293.458 252.907 293.631 254.496C293.782 256.074 292.883 257.403 291.519 257.509C290.155 257.615 288.925 256.46 288.757 254.887ZM264.013 258.104C263.857 256.51 264.894 255.001 266.262 254.789C267.662 254.568 268.867 255.695 269.023 257.289C269.174 258.867 268.235 260.295 266.835 260.516C265.467 260.728 264.175 259.661 264.013 258.104ZM238.685 263.603C238.513 262.014 239.586 260.39 241.001 260.042C242.412 259.678 243.641 260.711 243.797 262.305C243.964 263.878 242.984 265.405 241.574 265.769C240.175 266.112 238.848 265.16 238.685 263.603ZM213.337 271.516C213.197 269.917 214.226 268.201 215.598 267.709C216.987 267.212 218.188 268.149 218.344 269.743C218.49 271.304 217.532 272.965 216.123 273.45C214.767 273.937 213.489 273.093 213.337 271.516ZM188.696 281.766C188.572 280.163 189.616 278.32 190.955 277.716C192.295 277.112 193.462 277.936 193.602 279.534C193.737 281.117 192.771 282.867 191.432 283.471C190.076 284.08 188.811 283.337 188.696 281.766ZM164.528 294.093C164.388 292.495 165.376 290.581 166.703 289.876C168.041 289.149 169.196 289.873 169.336 291.471C169.472 293.053 168.529 294.884 167.195 295.626C165.868 296.331 164.658 295.659 164.528 294.093ZM140.722 308.179C140.55 306.59 141.503 304.617 142.828 303.79C144.127 302.988 145.295 303.638 145.451 305.231C145.598 306.793 144.7 308.715 143.401 309.517C142.091 310.339 140.868 309.741 140.722 308.179ZM117.242 323.669C117.038 322.089 117.929 320.082 119.22 319.196C120.526 318.304 121.724 318.876 121.928 320.455C122.123 322.002 121.255 323.968 119.948 324.859C118.678 325.757 117.442 325.232 117.242 323.669ZM93.9882 340.278C93.7199 338.718 94.569 336.688 95.8731 335.728C97.1498 334.793 98.3814 335.302 98.6337 336.867C98.8766 338.4 98.0709 340.4 96.7942 341.334C95.5061 342.29 94.2472 341.807 93.9882 340.278ZM70.9152 357.619C70.5827 356.078 71.3629 354.051 72.6462 353.079C73.9408 352.087 75.2318 352.561 75.5436 354.091C75.8506 355.605 75.0818 357.611 73.8032 358.599C72.536 359.566 71.2384 359.129 70.9152 357.619ZM47.9059 375.412C47.5138 373.906 48.2204 371.866 49.515 370.873C50.7775 369.891 52.1232 370.314 52.504 371.841C52.8752 373.336 52.1753 375.339 50.9128 376.322C49.6455 377.289 48.3092 376.898 47.9059 375.412ZM24.9475 393.26C24.4752 391.777 25.1384 389.768 26.4009 388.785C27.6955 387.792 29.0894 388.201 29.5456 389.689C29.9971 391.16 29.3244 393.138 28.0506 394.142C26.8202 395.115 25.415 394.727 24.9475 393.26ZM1.92757 410.899C1.39112 409.436 1.9948 407.461 3.29414 406.485C4.56139 405.518 6.02422 405.923 6.54463 407.392C7.05558 408.829 6.43109 410.792 5.17988 411.754C3.90132 412.742 2.44325 412.352 1.92757 410.899ZM-21.2146 427.947C-21.8152 426.502 -21.2455 424.589 -19.964 423.671C-18.6552 422.727 -17.1348 423.15 -16.5502 424.6C-15.975 426.018 -16.5608 427.935 -17.8536 428.874C-19.1237 429.772 -20.6187 429.376 -21.2146 427.947ZM-44.5642 444.114C-45.2129 442.683 -44.6932 440.837 -43.3815 439.962C-42.0858 439.092 -40.5078 439.533 -39.8751 440.969C-39.2518 442.372 -39.8037 444.227 -41.0833 445.093C-42.3789 445.963 -43.9248 445.512 -44.5642 444.114ZM-68.1611 459.027C-68.842 457.606 -68.3515 455.839 -67.0482 455.054C-65.7449 454.268 -64.0998 454.76 -63.4397 456.17C-62.7683 457.559 -63.3231 459.345 -64.6103 460.126C-65.9136 460.911 -67.4897 460.417 -68.1611 459.027ZM-92.1322 472.377C-92.8244 470.977 -92.3471 469.283 -90.988 468.569C-89.6564 467.879 -87.9924 468.435 -87.3002 469.836C-86.6127 471.22 -87.1543 472.932 -88.486 473.622C-89.8289 474.332 -91.4448 473.762 -92.1322 472.377ZM-116.487 483.834C-117.179 482.434 -116.674 480.837 -115.33 480.249C-113.986 479.66 -112.277 480.308 -111.585 481.708C-110.897 483.093 -111.467 484.709 -112.811 485.297C-114.176 485.874 -115.8 485.219 -116.487 483.834ZM-141.362 493.055C-142.043 491.634 -141.488 490.144 -140.122 489.689C-138.724 489.225 -137.02 489.978 -136.339 491.399C-135.667 492.788 -136.282 494.313 -137.68 494.777C-139.082 495.226 -140.707 494.449 -141.362 493.055ZM-167.686 499.965C-168.367 498.543 -167.757 497.125 -166.236 496.781C-164.747 496.447 -162.961 497.298 -162.275 498.735C-161.615 500.145 -162.311 501.571 -163.795 501.922C-165.32 502.25 -167.031 501.359 -167.686 499.965ZM-195.611 505.114C-196.297 503.677 -195.594 502.335 -194.044 502.088C-192.463 501.831 -190.596 502.78 -189.915 504.201C-189.239 505.607 -190.002 506.983 -191.588 507.224C-193.148 507.492 -194.951 506.524 -195.611 505.114ZM-224.744 508.77C-225.425 507.349 -224.703 506.072 -223.045 505.897C-221.419 505.731 -219.522 506.724 -218.841 508.145C-218.165 509.551 -218.983 510.856 -220.609 511.022C-222.267 511.197 -224.089 510.164 -224.744 508.77ZM-254.944 511.172C-255.609 509.746 -254.799 508.53 -253.118 508.435C-251.409 508.315 -249.476 509.367 -248.812 510.793C-248.156 512.187 -249.026 513.438 -250.723 513.537C-252.405 513.632 -254.289 512.566 -254.944 511.172ZM-285.967 512.56C-286.607 511.161 -285.745 510 -284.002 509.939C-282.29 509.888 -280.337 510.952 -279.697 512.35C-279.063 513.733 -279.967 514.924 -281.695 514.98C-283.443 515.025 -285.337 513.927 -285.967 512.56ZM-317.603 513.17C-318.222 511.782 -317.31 510.676 -315.572 510.652C-313.798 510.635 -311.84 511.714 -311.227 513.085C-310.617 514.441 -311.568 515.593 -313.358 515.616C-315.096 515.639 -316.994 514.525 -317.603 513.17ZM-349.687 513.266C-350.264 511.901 -349.322 510.838 -347.527 510.832C-345.764 510.836 -343.827 511.904 -343.229 513.28C-342.641 514.624 -343.643 515.722 -345.422 515.723C-347.221 515.713 -349.12 514.599 -349.687 513.266ZM-381.974 513.091C-382.525 511.753 -381.541 510.713 -379.758 510.728C-377.958 510.738 -376.037 511.811 -375.485 513.148C-374.939 514.469 -375.966 515.54 -377.782 515.535C-379.57 515.504 -381.448 514.401 -381.974 513.091ZM-414.327 512.865C-414.837 511.551 -413.827 510.538 -412.028 510.548C-410.265 510.551 -408.369 511.597 -407.859 512.911C-407.338 514.205 -408.402 515.269 -410.17 515.25C-411.99 515.229 -413.826 514.148 -414.327 512.865ZM-446.481 512.843C-446.965 511.555 -445.94 510.538 -444.177 510.541C-442.382 510.535 -440.549 511.547 -440.064 512.834C-439.585 514.106 -440.654 515.153 -442.448 515.16C-444.211 515.156 -446.022 514.103 -446.481 512.843ZM-478.311 513.266C-478.77 512.006 -477.729 510.983 -475.959 510.95C-474.227 510.91 -472.424 511.878 -471.965 513.138C-471.511 514.382 -472.591 515.451 -474.324 515.491C-476.098 515.508 -477.857 514.51 -478.311 513.266ZM-509.536 514.382C-509.954 513.145 -508.938 512.095 -507.235 512.011C-505.517 511.923 -503.765 512.837 -503.327 514.086C-502.898 515.302 -503.969 516.403 -505.692 516.475C-507.394 516.559 -509.108 515.599 -509.536 514.382ZM-540.011 516.446C-540.424 515.224 -539.417 514.143 -537.734 513.995C-536.083 513.857 -534.381 514.716 -533.985 515.942C-533.577 517.147 -534.606 518.27 -536.274 518.413C-537.925 518.552 -539.603 517.651 -540.011 516.446ZM-569.483 519.662C-569.88 518.435 -568.903 517.31 -567.324 517.106C-565.728 516.897 -564.099 517.69 -563.687 518.911C-563.295 520.121 -564.294 521.288 -565.873 521.492C-567.485 521.706 -569.091 520.872 -569.483 519.662ZM-597.835 524.309C-598.232 523.083 -597.327 521.891 -595.776 521.591C-594.257 521.3 -592.663 522.033 -592.271 523.243C-591.879 524.453 -592.806 525.686 -594.341 525.982C-595.872 526.294 -597.443 525.519 -597.835 524.309Z" fill="url(#paint0_linear_351_801)"/>
</g>
</g>
<defs>
<linearGradient id="paint0_linear_351_801" x1="1136.28" y1="68.8903" x2="453.901" y2="873.596" gradientUnits="userSpaceOnUse">
<stop stop-color="#07EDD2"/>
<stop offset="1" stop-color="#9C63F7"/>
</linearGradient>
</defs>
</svg>
