<svg width="1280" height="572" viewBox="0 0 1280 572" fill="none" xmlns="http://www.w3.org/2000/svg">
<g opacity="0.3226">
<g opacity="0.3226">
<path opacity="0.3226" d="M1382.16 -71.0348C1382.12 -72.6454 1383.14 -74.1663 1384.38 -74.4619C1385.63 -74.7621 1386.69 -73.714 1386.73 -72.1033C1386.78 -70.5294 1385.8 -69.002 1384.53 -68.697C1383.28 -68.4176 1382.21 -69.4609 1382.16 -71.0348ZM1357.08 -65.7123C1357.09 -67.2843 1358.09 -68.7475 1359.32 -68.9902C1360.54 -69.2281 1361.55 -68.1818 1361.55 -66.5937C1361.55 -65.0425 1360.54 -63.5745 1359.31 -63.3527C1358.07 -63.11 1357.08 -64.1771 1357.08 -65.7123ZM1332.45 -61.2738C1332.52 -62.8118 1333.58 -64.2043 1334.75 -64.412C1335.96 -64.6291 1336.89 -63.5591 1336.83 -62.0258C1336.78 -60.5085 1335.75 -59.1255 1334.54 -58.9244C1333.33 -58.7073 1332.39 -59.7725 1332.45 -61.2738ZM1308.28 -57.4918C1308.41 -58.9799 1309.47 -60.3035 1310.67 -60.4838C1311.84 -60.6707 1312.71 -59.6186 1312.59 -58.1353C1312.46 -56.668 1311.39 -55.3397 1310.2 -55.1641C1309 -54.9838 1308.14 -56.0406 1308.28 -57.4918ZM1284.51 -54.0925C1284.72 -55.5146 1285.84 -56.8042 1287.01 -56.9751C1288.18 -57.1459 1288.95 -56.1344 1288.75 -54.6802C1288.56 -53.2629 1287.45 -51.9941 1286.27 -51.8393C1285.08 -51.6797 1284.29 -52.7026 1284.51 -54.0925ZM1261.15 -50.8645C1261.44 -52.2413 1262.59 -53.4715 1263.75 -53.6376C1264.87 -53.7942 1265.59 -52.8214 1265.32 -51.4493C1265.04 -50.0933 1263.87 -48.8584 1262.73 -48.697C1261.57 -48.5469 1260.86 -49.5246 1261.15 -50.8645ZM1238.14 -47.5499C1238.52 -48.8654 1239.71 -50.0729 1240.85 -50.2343C1241.99 -50.4117 1242.59 -49.4746 1242.24 -48.1478C1241.89 -46.8418 1240.69 -45.6503 1239.53 -45.4842C1238.39 -45.3388 1237.77 -46.2552 1238.14 -47.5499ZM1215.48 -43.9003C1215.94 -45.1706 1217.2 -46.3441 1218.31 -46.5489C1219.4 -46.749 1219.93 -45.8779 1219.49 -44.5964C1219.06 -43.3356 1217.82 -42.1668 1216.7 -41.9941C1215.58 -41.7846 1215.04 -42.6556 1215.48 -43.9003ZM1193.11 -39.6581C1193.64 -40.8783 1194.95 -42.0501 1196.05 -42.287C1197.15 -42.5078 1197.62 -41.7027 1197.11 -40.4712C1196.61 -39.2604 1195.29 -38.1047 1194.19 -37.8839C1193.07 -37.6583 1192.59 -38.4586 1193.11 -39.6581ZM1171.05 -34.6164C1171.64 -35.8027 1173 -36.9886 1174.09 -37.2576C1175.16 -37.5218 1175.56 -36.7829 1174.97 -35.5805C1174.39 -34.399 1173.06 -33.2385 1171.97 -32.9695C1170.88 -32.7166 1170.47 -33.4508 1171.05 -34.6164ZM1149.22 -28.4919C1149.87 -29.6603 1151.26 -30.8717 1152.34 -31.2096C1153.41 -31.5428 1153.77 -30.8633 1153.13 -29.6789C1152.49 -28.5152 1151.12 -27.3245 1150.03 -27.0027C1148.93 -26.6808 1148.58 -27.3442 1149.22 -28.4919ZM1127.63 -21.0779C1128.33 -22.2444 1129.74 -23.5135 1130.81 -23.9156C1131.86 -24.313 1132.15 -23.6834 1131.46 -22.5216C1130.79 -21.3806 1129.38 -20.1275 1128.33 -19.7302C1127.26 -19.3121 1126.96 -19.9368 1127.63 -21.0779ZM1106.23 -12.0958C1106.94 -13.2832 1108.38 -14.6146 1109.44 -15.1016C1110.5 -15.5887 1110.77 -15.0233 1110.06 -13.836C1109.35 -12.6694 1107.95 -11.3475 1106.88 -10.8765C1105.81 -10.3686 1105.52 -10.9293 1106.23 -12.0958ZM1084.99 -1.29735C1085.71 -2.52152 1087.17 -3.9794 1088.22 -4.55142C1089.25 -5.1187 1089.51 -4.60152 1088.79 -3.37735C1088.08 -2.19001 1086.67 -0.762317 1085.63 -0.195032C1084.58 0.393033 1084.28 -0.110005 1084.99 -1.29735ZM1063.93 11.5083C1064.63 10.2199 1066.05 8.64967 1067.09 7.97664C1068.12 7.30834 1068.41 7.77922 1067.71 9.05153C1067.01 10.3031 1065.61 11.8686 1064.57 12.5416C1063.53 13.2307 1063.24 12.7758 1063.93 11.5083ZM1042.79 26.6035C1043.43 25.2283 1044.86 23.4995 1045.93 22.7481C1047.01 21.9759 1047.32 22.442 1046.67 23.7851C1046.02 25.1121 1044.66 26.8381 1043.58 27.6264C1042.54 28.4051 1042.16 27.9419 1042.79 26.6035ZM1020.09 41.8293C1020.67 40.3673 1022.09 38.6223 1023.27 37.8907C1024.42 37.1685 1024.89 37.7091 1024.31 39.155C1023.73 40.5642 1022.32 42.3412 1021.18 43.0795C1020 43.8272 1019.52 43.2544 1020.09 41.8293ZM995.533 56.3814C996.042 54.8534 997.518 53.0574 998.749 52.3805C1000.01 51.678 1000.58 52.312 1000.06 53.824C999.541 55.3039 998.15 57.0922 996.897 57.8108C995.671 58.5038 995.031 57.8726 995.533 56.3814ZM969.447 70.2502C969.91 68.6835 971.349 66.881 972.686 66.2078C973.99 65.544 974.701 66.2411 974.239 67.8078C973.783 69.3377 972.349 71.1563 971.044 71.8201C969.713 72.5094 968.996 71.7961 969.447 70.2502ZM941.971 83.4828C942.371 81.8822 943.842 80.0702 945.209 79.4403C946.608 78.801 947.386 79.5482 946.986 81.1488C946.593 82.7126 945.169 84.5104 943.775 85.1658C942.413 85.8117 941.582 85.0627 941.971 83.4828ZM913.404 96.095C913.746 94.4765 915.19 92.69 916.631 92.0733C918.055 91.4613 918.953 92.2603 918.611 93.8789C918.275 95.4606 916.82 97.2678 915.411 97.8751C913.971 98.4918 913.073 97.6927 913.404 96.095ZM883.936 108.136C884.221 106.499 885.653 104.734 887.14 104.156C888.622 103.561 889.583 104.394 889.277 106.02C888.983 107.624 887.571 109.401 886.1 109.974C884.618 110.568 883.642 109.74 883.936 108.136ZM853.826 119.598C854.063 117.976 855.48 116.215 856.992 115.664C858.488 115.118 859.518 115.948 859.265 117.575C859.019 119.166 857.602 120.926 856.127 121.484C854.619 122.05 853.601 121.2 853.826 119.598ZM823.285 130.543C823.473 128.935 824.863 127.199 826.4 126.676C827.933 126.136 828.993 127.01 828.789 128.623C828.595 130.215 827.217 131.929 825.701 132.464C824.168 133.003 823.108 132.13 823.285 130.543ZM792.592 140.973C792.748 139.375 794.099 137.686 795.637 137.162C797.147 136.665 798.271 137.519 798.12 139.134C797.958 140.716 796.592 142.41 795.097 142.903C793.555 143.411 792.442 142.535 792.592 140.973ZM761.9 150.933C762.008 149.349 763.363 147.676 764.862 147.199C766.393 146.712 767.522 147.583 767.398 149.172C767.28 150.724 765.973 152.383 764.442 152.87C762.959 153.342 761.798 152.481 761.9 150.933ZM731.52 160.417C731.601 158.858 732.865 157.229 734.353 156.773C735.857 156.312 737.002 157.178 736.909 158.758C736.824 160.301 735.555 161.913 734.056 162.39C732.584 162.842 731.451 161.955 731.52 160.417ZM701.621 169.515C701.669 167.966 702.895 166.383 704.382 165.927C705.854 165.476 707.004 166.358 706.939 167.912C706.88 169.429 705.66 171.027 704.184 171.463C702.723 171.894 701.578 171.028 701.621 169.515ZM672.498 178.175C672.52 176.651 673.697 175.083 675.093 174.671C676.537 174.245 677.65 175.12 677.633 176.66C677.607 178.168 676.446 179.731 675.002 180.157C673.606 180.569 672.472 179.682 672.498 178.175ZM644.325 186.502C644.33 184.983 645.432 183.454 646.828 183.042C648.208 182.635 649.309 183.532 649.299 185.035C649.3 186.517 648.188 188.066 646.808 188.473C645.423 188.864 644.326 187.984 644.325 186.502ZM617.35 194.458C617.339 192.944 618.404 191.409 619.688 191.03C621.004 190.642 622.068 191.531 622.079 193.046C622.096 194.523 621.048 196.054 619.732 196.442C618.453 196.837 617.356 195.957 617.35 194.458ZM591.578 201.763C591.568 200.249 592.567 198.785 593.832 198.464C595.098 198.143 596.129 199.095 596.156 200.605C596.173 202.082 595.163 203.566 593.897 203.887C592.615 204.213 591.6 203.257 591.578 201.763ZM566.659 206.636C566.665 205.117 567.655 203.743 568.858 203.563C570.077 203.378 571.051 204.434 571.061 205.948C571.067 207.447 570.093 208.815 568.858 209.005C567.676 209.197 566.661 208.118 566.659 206.636ZM542.635 209.1C542.651 207.56 543.617 206.281 544.796 206.195C545.958 206.114 546.912 207.28 546.891 208.804C546.881 210.307 545.887 211.612 544.725 211.693C543.547 211.779 542.608 210.608 542.635 209.1ZM519.315 209.577C519.363 208.027 520.343 206.796 521.465 206.814C522.619 206.823 523.491 208.066 523.447 209.631C523.405 211.144 522.446 212.386 521.292 212.377C520.186 212.355 519.272 211.089 519.315 209.577ZM496.608 208.407C496.684 206.832 497.646 205.659 498.771 205.746C499.863 205.842 500.722 207.159 500.657 208.713C500.588 210.251 499.61 211.429 498.506 211.353C497.365 211.271 496.538 209.945 496.608 208.407ZM474.348 205.972C474.456 204.388 475.439 203.226 476.529 203.375C477.636 203.52 478.425 204.892 478.316 206.476C478.215 208.024 477.248 209.181 476.141 209.037C475.023 208.913 474.23 207.525 474.348 205.972ZM452.42 202.655C452.572 201.04 453.564 199.91 454.648 200.096C455.711 200.271 456.482 201.701 456.33 203.315C456.185 204.893 455.193 206.023 454.114 205.853C453.041 205.646 452.275 204.232 452.42 202.655ZM430.665 198.797C430.849 197.173 431.868 196.018 432.957 196.22C434.03 196.427 434.757 197.887 434.573 199.511C434.396 201.098 433.392 202.249 432.304 202.047C431.215 201.845 430.488 200.385 430.665 198.797ZM408.989 194.795C409.216 193.14 410.268 191.976 411.341 192.182C412.393 192.378 413.092 193.864 412.881 195.513C412.661 197.131 411.604 198.28 410.536 198.089C409.463 197.882 408.768 196.412 408.989 194.795ZM387.221 191.011C387.48 189.348 388.57 188.136 389.654 188.322C390.738 188.509 391.401 189.987 391.142 191.651C390.894 193.294 389.81 194.469 388.731 194.299C387.631 194.117 386.952 192.643 387.221 191.011ZM365.241 187.813C365.544 186.119 366.678 184.878 367.768 185.027C368.838 185.165 369.501 186.644 369.214 188.333C368.918 189.991 367.796 191.211 366.71 191.078C365.603 190.934 364.945 189.471 365.241 187.813ZM342.9 185.577C343.235 183.873 344.435 182.56 345.527 182.656C346.652 182.743 347.268 184.184 346.938 185.903C346.615 187.586 345.458 188.869 344.334 188.782C343.241 188.686 342.576 187.26 342.9 185.577ZM320.115 184.675C320.477 182.946 321.695 181.575 322.849 181.583C323.97 181.601 324.594 183.005 324.227 184.718C323.871 186.41 322.669 187.776 321.548 187.758C320.394 187.75 319.743 186.372 320.115 184.675ZM296.667 185.486C297.061 183.747 298.319 182.277 299.498 182.191C300.676 182.106 301.301 183.456 300.907 185.195C300.519 186.896 299.272 188.346 298.094 188.431C296.932 188.513 296.279 187.188 296.667 185.486ZM272.501 188.358C272.906 186.598 274.226 185.04 275.461 184.851C276.663 184.67 277.297 185.931 276.887 187.675C276.488 189.397 275.179 190.934 273.997 191.126C272.747 191.32 272.086 190.085 272.501 188.358ZM247.418 193.68C247.839 191.916 249.211 190.238 250.477 189.917C251.743 189.596 252.401 190.763 251.979 192.527C251.564 194.254 250.22 195.906 248.954 196.227C247.672 196.553 246.987 195.412 247.418 193.68ZM221.845 201.659C222.251 199.9 223.61 198.121 224.891 197.673C226.139 197.235 226.833 198.286 226.412 200.05C226.013 201.773 224.665 203.531 223.416 203.969C222.151 204.412 221.446 203.381 221.845 201.659ZM195.946 212.316C196.287 210.575 197.623 208.716 198.93 208.121C200.21 207.552 200.987 208.474 200.63 210.219C200.279 211.927 198.944 213.786 197.664 214.356C196.368 214.93 195.606 214.003 195.946 212.316ZM169.603 225.371C169.869 223.67 171.192 221.71 172.491 221.03C173.818 220.325 174.641 221.164 174.359 222.869C174.089 224.554 172.804 226.467 171.489 227.152C170.205 227.827 169.343 227.035 169.603 225.371ZM142.941 240.421C143.111 238.749 144.339 236.764 145.691 235.965C147.042 235.165 147.954 235.89 147.757 237.588C147.562 239.233 146.365 241.208 145.025 241.987C143.685 242.766 142.762 242.061 142.941 240.421ZM115.931 257.127C115.988 255.488 117.17 253.465 118.507 252.617C119.872 251.743 120.882 252.387 120.808 254.031C120.726 255.643 119.587 257.636 118.254 258.5C116.928 259.327 115.88 258.729 115.931 257.127ZM88.7444 275.071C88.694 273.481 89.7386 271.463 91.1211 270.532C92.4875 269.606 93.6114 270.164 93.6504 271.775C93.68 273.353 92.6307 275.355 91.2803 276.276C89.9252 277.182 88.806 276.64 88.7444 275.071ZM61.3681 293.908C61.1894 292.356 62.1603 290.325 63.522 289.383C64.8998 288.435 66.1218 288.912 66.2845 290.469C66.4377 291.994 65.4941 293.999 64.1372 294.957C62.8076 295.89 61.5534 295.423 61.3681 293.908ZM33.9385 313.214C33.6153 311.704 34.4786 309.723 35.8677 308.755C37.2246 307.797 38.5864 308.215 38.8774 309.734C39.159 311.221 38.2843 313.223 36.9595 314.172C35.5818 315.119 34.2521 314.691 33.9385 313.214ZM6.44087 332.645C5.99411 331.189 6.74512 329.241 8.11812 328.278C9.50716 327.31 10.9492 327.704 11.3638 329.169C11.7898 330.614 11.0388 332.562 9.68184 333.52C8.34094 334.474 6.88289 334.084 6.44087 332.645ZM-20.9672 351.788C-21.5423 350.37 -20.915 348.476 -19.5373 347.529C-18.1869 346.607 -16.6165 346.964 -16.0574 348.386C-15.5078 349.776 -16.1786 351.701 -17.4969 352.613C-18.8425 353.551 -20.3855 353.169 -20.9672 351.788ZM-48.2795 370.309C-48.983 368.929 -48.4538 367.116 -47.0826 366.206C-45.7115 365.296 -44.0674 365.666 -43.38 367.05C-42.702 368.403 -43.2425 370.236 -44.5816 371.137C-45.9414 372.027 -47.5854 371.657 -48.2795 370.309ZM-75.3848 387.758C-76.212 386.432 -75.7856 384.684 -74.4277 383.848C-73.1018 383.021 -71.3359 383.389 -70.5409 384.725C-69.7506 386.044 -70.209 387.801 -71.5189 388.624C-72.8561 389.472 -74.5785 389.073 -75.3848 387.758ZM-102.268 403.833C-103.191 402.536 -102.842 400.88 -101.529 400.127C-100.184 399.364 -98.3883 399.776 -97.4649 401.073C-96.5669 402.344 -96.9112 404.015 -98.24 404.773C-99.5367 405.522 -101.354 405.098 -102.268 403.833ZM-128.796 418.094C-129.815 416.825 -129.571 415.288 -128.251 414.619C-126.962 413.96 -125.079 414.434 -124.096 415.696C-123.117 416.943 -123.373 418.501 -124.645 419.155C-125.95 419.819 -127.801 419.336 -128.796 418.094ZM-154.952 430.187C-156.035 428.937 -155.875 427.529 -154.574 426.971C-153.274 426.413 -151.371 426.951 -150.287 428.201C-149.229 429.424 -149.412 430.873 -150.696 431.426C-152.002 431.968 -153.893 431.41 -154.952 430.187ZM-180.642 439.718C-181.769 438.498 -181.666 437.194 -180.428 436.777C-179.159 436.35 -177.227 436.984 -176.095 438.22C-174.989 439.429 -175.104 440.753 -176.378 441.164C-177.616 441.581 -179.519 440.922 -180.642 439.718ZM-206.813 446.792C-207.936 445.588 -207.776 444.355 -206.457 444.036C-205.123 443.712 -203.152 444.421 -202.029 445.625C-200.927 446.818 -201.087 448.051 -202.422 448.375C-203.756 448.699 -205.711 447.984 -206.813 446.792ZM-234.026 452.464C-235.128 451.271 -234.908 450.125 -233.554 449.865C-232.184 449.6 -230.204 450.342 -229.102 451.534C-228.026 452.7 -228.241 453.862 -229.627 454.131C-230.985 454.375 -232.95 453.629 -234.026 452.464ZM-262.076 456.952C-263.131 455.798 -262.86 454.706 -261.439 454.497C-260.035 454.292 -258.05 455.049 -256.989 456.219C-255.939 457.357 -256.226 458.453 -257.646 458.663C-259.072 458.857 -261.041 458.094 -262.076 456.952ZM-290.785 460.448C-291.794 459.333 -291.419 458.298 -290.016 458.146C-288.581 457.984 -286.607 458.763 -285.593 459.894C-284.605 460.998 -284.943 462.04 -286.399 462.19C-287.806 462.326 -289.796 461.552 -290.785 460.448ZM-320.027 463.143C-320.974 462.062 -320.575 461.107 -319.114 460.972C-317.686 460.848 -315.717 461.61 -314.749 462.703C-313.807 463.768 -314.249 464.753 -315.682 464.862C-317.148 464.98 -319.085 464.208 -320.027 463.143ZM-349.703 465.25C-350.604 464.208 -350.101 463.309 -348.648 463.212C-347.162 463.105 -345.261 463.87 -344.361 464.913C-343.481 465.944 -343.947 466.849 -345.437 466.94C-346.896 467.021 -348.828 466.265 -349.703 465.25ZM-379.63 466.926C-380.463 465.933 -379.931 465.078 -378.435 465.003C-376.976 464.922 -375.07 465.65 -374.236 466.643C-373.407 467.619 -373.972 468.484 -375.452 468.554C-376.947 468.629 -378.806 467.886 -379.63 466.926ZM-409.728 468.372C-410.495 467.43 -409.879 466.62 -408.415 466.555C-406.92 466.48 -405.091 467.179 -404.325 468.122C-403.563 469.048 -404.158 469.869 -405.654 469.944C-407.133 470.014 -408.982 469.304 -409.728 468.372ZM-439.831 469.803C-440.531 468.911 -439.889 468.128 -438.394 468.054C-436.935 467.972 -435.137 468.628 -434.417 469.532C-433.722 470.409 -434.396 471.2 -435.875 471.27C-437.387 471.35 -439.153 470.685 -439.831 469.803ZM-469.855 471.385C-470.487 470.543 -469.799 469.799 -468.325 469.713C-466.834 469.622 -465.135 470.237 -464.482 471.091C-463.85 471.934 -464.537 472.677 -466.033 472.752C-467.528 472.827 -469.227 472.212 -469.855 471.385ZM-499.6 473.321C-500.17 472.512 -499.456 471.796 -497.986 471.694C-496.537 471.58 -494.873 472.136 -494.287 472.94C-493.722 473.733 -494.467 474.458 -495.917 474.572C-497.407 474.663 -499.055 474.102 -499.6 473.321ZM-529.03 475.792C-529.549 475.038 -528.803 474.312 -527.343 474.178C-525.887 474.027 -524.306 474.538 -523.783 475.308C-523.264 476.062 -524.03 476.776 -525.49 476.911C-526.935 477.04 -528.516 476.53 -529.03 475.792ZM-557.914 478.991C-558.37 478.271 -557.604 477.556 -556.195 477.367C-554.801 477.183 -553.244 477.614 -552.767 478.345C-552.294 479.06 -553.108 479.789 -554.506 479.957C-555.937 480.135 -557.462 479.695 -557.914 478.991ZM-586.19 483.127C-586.621 482.435 -585.843 481.699 -584.443 481.478C-583.048 481.241 -581.595 481.615 -581.163 482.308C-580.737 482.984 -581.531 483.724 -582.931 483.945C-584.331 484.166 -585.784 483.793 -586.19 483.127ZM-613.705 488.365C-614.094 487.695 -613.321 486.943 -611.993 486.656C-610.649 486.365 -609.235 486.663 -608.846 487.333C-608.461 487.987 -609.229 488.754 -610.594 489.035C-611.922 489.322 -613.32 489.019 -613.705 488.365Z" fill="url(#paint0_linear_351_787)"/>
</g>
</g>
<defs>
<linearGradient id="paint0_linear_351_787" x1="1127.9" y1="5.39581" x2="433.921" y2="816.085" gradientUnits="userSpaceOnUse">
<stop stop-color="#07EDD2"/>
<stop offset="1" stop-color="#9C63F7"/>
</linearGradient>
</defs>
</svg>
