<svg width="1280" height="870" viewBox="0 0 1280 870" fill="none" xmlns="http://www.w3.org/2000/svg">
<g opacity="0.871">
<g opacity="0.871">
<path opacity="0.871" d="M1499.3 24.1284C1498.35 17.065 1499.81 10.8269 1502.52 9.9581C1505.22 9.08929 1508.18 13.973 1509.12 21.11C1510.07 28.2423 1508.64 34.8204 1505.93 35.6203C1503.22 36.4202 1500.24 31.1758 1499.3 24.1284ZM1470.99 32.234C1470.05 25.4302 1471.59 19.412 1474.42 18.5582C1477.26 17.7204 1480.28 22.4634 1481.24 29.3682C1482.18 36.2777 1480.68 42.5989 1477.84 43.3309C1475.01 44.079 1471.93 39.0378 1470.99 32.234ZM1441.67 40.0977C1440.72 33.6272 1442.33 27.8497 1445.26 27.0204C1448.19 26.191 1451.3 30.7149 1452.24 37.3119C1453.19 43.9041 1451.6 49.9527 1448.69 50.6554C1445.75 51.3469 1442.62 46.5681 1441.67 40.0977ZM1411.66 47.8845C1410.7 41.8002 1412.36 36.3049 1415.32 35.4661C1418.3 34.6226 1421.47 38.8679 1422.42 45.0948C1423.37 51.3216 1421.74 57.035 1418.75 57.7407C1415.8 58.4369 1412.62 53.9688 1411.66 47.8845ZM1381.29 55.8491C1380.34 50.1991 1381.98 45.021 1385 44.1312C1388.01 43.2621 1391.21 47.1486 1392.16 52.9733C1393.11 58.7819 1391.46 64.1507 1388.45 64.8658C1385.43 65.581 1382.24 61.4991 1381.29 55.8491ZM1350.87 64.1564C1349.92 58.9775 1351.58 54.112 1354.57 53.1948C1357.57 52.2729 1360.77 55.7779 1361.72 61.1315C1362.67 66.485 1361.01 71.4931 1358 72.2403C1355.02 72.9989 1351.83 69.3352 1350.87 64.1564ZM1320.71 73.0545C1319.76 68.3628 1321.39 63.8354 1324.35 62.8587C1327.31 61.8613 1330.49 64.9368 1331.42 69.8079C1332.37 74.6742 1330.72 79.3122 1327.74 80.1189C1324.79 80.9208 1321.65 77.7301 1320.71 73.0545ZM1291.13 82.7038C1290.21 78.5266 1291.78 74.3306 1294.67 73.2671C1297.54 72.2132 1300.67 74.7949 1301.61 79.1581C1302.54 83.5051 1300.9 87.7937 1298.02 88.6778C1295.12 89.5665 1292.06 86.8762 1291.13 82.7038ZM1262.43 93.3475C1261.55 89.7009 1263.07 85.8155 1265.85 84.6474C1268.64 83.4745 1271.66 85.5861 1272.55 89.4394C1273.45 93.272 1271.87 97.1924 1269.08 98.1906C1266.27 99.1567 1263.32 96.9941 1262.43 93.3475ZM1234.96 105.183C1234.12 102.046 1235.59 98.4552 1238.24 97.1502C1240.88 95.8661 1243.75 97.4963 1244.61 100.803C1245.46 104.126 1243.96 107.71 1241.3 108.808C1238.62 109.948 1235.78 108.324 1234.96 105.183ZM1209.02 118.4C1208.26 115.764 1209.62 112.45 1212.1 111.001C1214.59 109.569 1217.29 110.69 1218.09 113.508C1218.89 116.326 1217.45 119.611 1214.93 120.878C1212.4 122.129 1209.79 121.032 1209.02 118.4ZM1184.92 133.233C1184.25 131.06 1185.53 127.961 1187.8 126.383C1190.11 124.78 1192.58 125.412 1193.28 127.75C1193.99 130.088 1192.63 133.105 1190.3 134.543C1187.99 135.956 1185.58 135.411 1184.92 133.233ZM1163 149.852C1162.43 148.117 1163.6 145.209 1165.67 143.429C1167.75 141.648 1169.96 141.8 1170.56 143.679C1171.17 145.558 1169.88 148.361 1167.77 149.997C1165.65 151.633 1163.55 151.608 1163 149.852ZM1143.53 168.52C1143.11 167.161 1144.19 164.383 1145.98 162.423C1147.79 160.443 1149.7 160.123 1150.18 161.622C1150.65 163.105 1149.46 165.742 1147.59 167.583C1145.76 169.398 1143.94 169.88 1143.53 168.52ZM1126.88 189.389C1126.65 188.343 1127.6 185.656 1129.11 183.464C1130.63 181.272 1132.19 180.517 1132.49 181.666C1132.79 182.815 1131.71 185.333 1130.12 187.406C1128.53 189.479 1127.13 190.415 1126.88 189.389ZM1110.89 216.348C1110.78 215.629 1112.12 212.442 1113.84 209.336C1115.58 206.189 1117.09 204.383 1117.22 205.235C1117.35 206.086 1116.02 209.163 1114.26 212.178C1112.51 215.155 1110.98 217.071 1110.89 216.348ZM1092.37 246.23C1092.35 245.801 1093.8 243.051 1095.67 240.109C1097.53 237.173 1099.07 235.252 1099.14 235.773C1099.19 236.299 1097.71 238.984 1095.83 241.841C1093.93 244.67 1092.39 246.66 1092.37 246.23ZM1072.69 274.362C1072.71 274.146 1074.32 271.682 1076.27 268.961C1078.23 266.202 1079.84 264.247 1079.83 264.527C1079.83 264.807 1078.21 267.186 1076.23 269.864C1074.27 272.517 1072.66 274.578 1072.69 274.362ZM1051.99 300.717C1052.04 300.65 1053.75 298.47 1055.82 295.89C1057.89 293.326 1059.53 291.377 1059.49 291.492C1059.46 291.608 1057.73 293.723 1055.65 296.255C1053.58 298.782 1051.95 300.8 1051.99 300.717ZM1030.35 325.397C1030.42 325.395 1032.21 323.419 1034.38 321.033C1036.54 318.636 1038.25 316.753 1038.19 316.788C1038.13 316.807 1036.32 318.719 1034.16 321.083C1031.98 323.453 1030.28 325.4 1030.35 325.397ZM1007.87 348.407C1007.94 348.421 1009.8 346.617 1012.05 344.382C1014.3 342.168 1016.07 340.388 1016 340.375C1015.93 340.362 1014.05 342.102 1011.81 344.315C1009.55 346.55 1007.8 348.394 1007.87 348.407ZM984.602 369.818C984.654 369.82 986.572 368.103 988.899 366.056C991.221 363.993 993.062 362.369 992.993 362.372C992.919 362.358 990.994 363.99 988.676 366.069C986.37 368.127 984.549 369.816 984.602 369.818ZM960.706 389.634C960.74 389.572 962.682 387.935 965.072 386.044C967.462 384.153 969.366 382.684 969.311 382.735C969.273 382.782 967.287 384.327 964.922 386.245C962.541 388.168 960.656 389.701 960.706 389.634ZM936.186 407.925C936.192 407.766 938.169 406.189 940.601 404.442C943.034 402.696 945.016 401.431 944.985 401.562C944.97 401.689 942.969 403.186 940.546 404.965C938.123 406.743 936.181 408.084 936.186 407.925ZM911.211 424.728C911.183 424.457 913.197 422.887 915.677 421.301C918.141 419.719 920.195 418.642 920.197 418.886C920.211 419.109 918.173 420.599 915.719 422.213C913.253 423.847 911.222 425.004 911.211 424.728ZM885.852 440.057C885.791 439.674 887.782 438.145 890.3 436.687C892.823 435.245 894.907 434.386 894.958 434.738C895.009 435.089 892.995 436.538 890.486 438.028C887.962 439.522 885.913 440.44 885.852 440.057ZM860.172 453.998C860.089 453.482 862.08 451.953 864.625 450.644C867.153 449.34 869.287 448.711 869.355 449.179C869.424 449.647 867.42 451.075 864.922 452.423C862.387 453.764 860.266 454.494 860.172 453.998ZM834.323 466.541C834.207 465.913 836.155 464.414 838.721 463.238C841.287 462.063 843.462 461.631 843.58 462.206C843.681 462.787 841.694 464.21 839.142 465.434C836.585 466.642 834.439 467.17 834.323 466.541ZM808.33 477.767C808.186 477.042 810.122 475.563 812.721 474.5C815.273 473.451 817.488 473.216 817.623 473.909C817.757 474.602 815.777 475.989 813.251 477.065C810.645 478.165 808.474 478.492 808.33 477.767ZM782.339 487.7C782.176 486.911 784.09 485.474 786.658 484.542C789.227 483.61 791.453 483.529 791.627 484.298C791.785 485.071 789.827 486.416 787.264 487.364C784.689 488.333 782.502 488.489 782.339 487.7ZM756.387 496.402C756.209 495.564 758.11 494.201 760.658 493.38C763.212 492.574 765.455 492.61 765.628 493.432C765.8 494.253 763.86 495.54 761.295 496.367C758.747 497.188 756.575 497.218 756.387 496.402ZM730.714 503.45C730.542 502.629 732.414 501.466 734.923 500.866C737.448 500.261 739.649 500.449 739.842 501.281C740.015 502.103 738.106 503.259 735.576 503.848C733.035 504.458 730.886 504.272 730.714 503.45ZM705.389 507.065C705.221 506.26 707.078 505.398 709.553 505.157C712.045 504.91 714.22 505.367 714.388 506.173C714.556 506.978 712.658 507.817 710.182 508.059C707.707 508.3 705.568 507.85 705.389 507.065ZM680.436 507.448C680.283 506.691 682.109 506.082 684.548 506.13C687.003 506.174 689.144 506.868 689.302 507.641C689.46 508.414 687.583 508.968 685.123 508.909C682.685 508.86 680.611 508.216 680.436 507.448ZM655.753 505.135C655.609 504.41 657.421 504.05 659.846 504.346C662.271 504.643 664.379 505.521 664.539 506.241C664.688 506.982 662.824 507.288 660.395 506.975C657.965 506.663 655.897 505.86 655.753 505.135ZM631.315 500.639C631.19 499.978 632.985 499.797 635.398 500.289C637.811 500.781 639.888 501.791 640.017 502.467C640.152 503.16 638.296 503.254 635.874 502.73C633.472 502.217 631.456 501.295 631.315 500.639ZM607.032 494.422C606.921 493.81 608.727 493.783 611.118 494.438C613.509 495.093 615.573 496.176 615.689 496.805C615.805 497.434 613.949 497.353 611.553 496.682C609.158 496.01 607.143 495.035 607.032 494.422ZM582.896 487.046C582.804 486.498 584.611 486.593 586.994 487.338C589.376 488.083 591.401 489.212 591.519 489.788C591.616 490.352 589.755 490.134 587.367 489.373C584.975 488.596 582.988 487.595 582.896 487.046ZM558.804 478.994C558.715 478.514 560.546 478.69 562.927 479.487C565.308 480.285 567.317 481.42 567.411 481.915C567.505 482.411 565.615 482.096 563.246 481.277C560.86 480.463 558.894 479.474 558.804 478.994ZM534.751 470.774C534.68 470.359 536.526 470.582 538.902 471.364C541.282 472.161 543.277 473.248 543.336 473.684C543.411 474.115 541.523 473.747 539.133 472.918C536.768 472.115 534.826 471.205 534.751 470.774ZM510.642 462.901C510.591 462.55 512.452 462.769 514.835 463.514C517.218 464.259 519.205 465.26 519.249 465.648C519.31 466.031 517.392 465.62 515.005 464.859C512.629 464.077 510.694 463.252 510.642 462.901ZM486.472 455.884C486.44 455.597 488.324 455.774 490.71 456.413C493.081 457.057 495.087 457.948 495.125 458.251C495.166 458.57 493.2 458.173 490.825 457.513C488.439 456.874 486.51 456.187 486.472 455.884ZM462.128 450.226C462.11 449.988 464.023 450.086 466.435 450.578C468.848 451.07 470.824 451.796 470.851 452.067C470.874 452.321 468.916 452.009 466.498 451.502C464.076 450.977 462.146 450.465 462.128 450.226ZM437.623 446.448C437.619 446.257 439.563 446.225 441.987 446.521C444.396 446.822 446.4 447.348 446.409 447.554C446.417 447.761 444.402 447.553 441.994 447.252C439.559 446.923 437.626 446.639 437.623 446.448ZM412.838 445.037C412.849 444.894 414.821 444.661 417.28 444.721C419.735 444.764 421.73 445.083 421.725 445.241C421.719 445.4 419.704 445.366 417.239 445.291C414.78 445.231 412.817 445.2 412.838 445.037ZM387.773 446.516C387.793 446.406 389.789 445.957 392.259 445.699C394.751 445.453 396.787 445.497 396.772 445.624C396.757 445.75 394.677 445.911 392.185 446.157C389.71 446.399 387.742 446.648 387.773 446.516ZM362.319 451.408C362.344 451.313 364.381 450.59 366.906 449.985C369.431 449.38 371.467 449.128 371.447 449.239C371.423 449.333 369.349 449.753 366.824 450.358C364.294 450.947 362.295 451.502 362.319 451.408ZM335.598 458.923C335.622 458.829 337.889 458.055 340.599 457.308C343.325 456.557 345.532 456.115 345.508 456.209C345.483 456.304 343.25 456.893 340.524 457.645C337.83 458.387 335.589 459.013 335.598 458.923ZM305.965 466.442C305.973 466.353 308.435 465.592 311.463 464.856C314.49 464.12 316.888 463.674 316.879 463.764C316.871 463.854 314.442 464.43 311.415 465.166C308.408 465.914 305.957 466.532 305.965 466.442ZM273.714 473.897C273.711 473.828 276.38 473.058 279.602 472.334C282.857 471.601 285.503 471.169 285.49 471.243C285.498 471.328 282.873 471.893 279.619 472.626C276.396 473.35 273.717 473.965 273.714 473.897ZM239.306 481.254C239.287 481.19 242.05 480.445 245.517 479.719C248.983 478.993 251.804 478.562 251.823 478.627C251.842 478.691 249.075 479.245 245.608 479.971C242.147 480.713 239.325 481.318 239.306 481.254ZM203.11 488.581C203.059 488.527 205.949 487.796 209.574 487.076C213.199 486.356 216.173 485.914 216.208 485.974C216.243 486.033 213.366 486.568 209.741 487.288C206.116 488.009 203.161 488.636 203.11 488.581ZM165.604 495.841C165.521 495.796 168.484 495.079 172.231 494.358C175.978 493.636 179.074 493.194 179.141 493.244C179.208 493.294 176.241 493.82 172.51 494.537C168.748 495.263 165.671 495.891 165.604 495.841ZM127.135 503.089C127.019 503.053 130.024 502.359 133.84 501.635C137.66 500.926 140.837 500.46 140.936 500.501C141.035 500.541 138.011 501.05 134.211 501.769C130.39 502.477 127.25 503.125 127.135 503.089ZM88.2053 510.315C88.0788 510.3 91.0514 509.615 94.9199 508.893C98.7724 508.175 102.023 507.722 102.149 507.737C102.276 507.752 99.2512 508.261 95.3987 508.978C91.5414 509.68 88.3479 510.325 88.2053 510.315ZM49.1543 517.542C48.9957 517.537 51.9361 516.861 55.8047 516.139C59.6572 515.421 62.9189 514.948 63.0775 514.953C63.2361 514.959 60.2228 515.446 56.3863 516.159C52.5385 516.893 49.3289 517.543 49.1543 517.542ZM10.4894 524.778C10.2987 524.782 13.191 524.121 16.9907 523.401C20.7582 522.691 24.052 522.208 24.2427 522.204C24.4334 522.2 21.4361 522.683 17.6686 523.393C13.8642 524.096 10.6754 524.758 10.4894 524.778ZM-27.4882 532.037C-27.7062 532.067 -24.9196 531.402 -21.1936 530.669C-17.4629 529.952 -14.2588 529.461 -14.0408 529.432C-13.834 529.423 -16.6982 529.884 -20.4082 530.612C-24.1228 531.324 -27.2653 532.024 -27.4882 532.037ZM-64.2335 539.335C-64.4837 539.373 -61.8189 538.71 -58.2307 537.983C-54.6747 537.265 -51.4961 536.746 -51.2573 536.728C-51.0232 536.694 -53.7976 537.163 -57.3537 537.881C-60.9305 538.587 -63.9834 539.296 -64.2335 539.335ZM-99.4296 546.681C-99.6958 546.724 -97.2009 546.076 -93.7714 545.343C-90.3579 544.615 -87.3219 544.086 -87.067 544.063C-86.8008 544.02 -89.4006 544.49 -92.8141 545.218C-96.2323 545.929 -99.1633 546.637 -99.4296 546.681ZM-132.584 554.087C-132.867 554.136 -130.567 553.475 -127.36 552.756C-124.19 552.03 -121.281 551.486 -120.999 551.438C-120.716 551.389 -123.162 551.849 -126.332 552.575C-129.534 553.31 -132.302 554.039 -132.584 554.087ZM-163.344 561.573C-163.642 561.626 -161.565 560.978 -158.612 560.229C-155.658 559.48 -152.971 558.949 -152.678 558.88C-152.379 558.827 -154.582 559.285 -157.535 560.034C-160.489 560.783 -163.045 561.52 -163.344 561.573ZM-191.232 569.153C-191.546 569.211 -189.718 568.549 -187.077 567.805C-184.419 567.056 -181.933 566.497 -181.619 566.44C-181.304 566.382 -183.311 566.852 -185.952 567.596C-188.593 568.34 -190.917 569.095 -191.232 569.153ZM-216.015 578.033C-216.314 578.086 -214.704 577.158 -212.34 576.181C-209.977 575.205 -207.756 574.515 -207.458 574.462C-207.159 574.409 -208.88 575.021 -211.239 576.013C-213.618 576.994 -215.717 577.98 -216.015 578.033ZM-238.469 590.377C-238.761 590.393 -237.305 589.179 -235.179 587.871C-233.037 586.559 -230.992 585.625 -230.705 585.593C-230.397 585.572 -231.959 586.486 -234.097 587.814C-236.234 589.142 -238.173 590.377 -238.469 590.377ZM-258.87 605.778C-259.16 605.742 -257.864 604.278 -255.913 602.674C-253.962 601.069 -252.08 599.938 -251.795 599.959C-251.494 599.975 -252.886 601.17 -254.848 602.796C-256.815 604.405 -258.58 605.815 -258.87 605.778ZM-277.525 623.787C-277.817 623.682 -276.662 621.98 -274.867 620.143C-273.071 618.305 -271.343 617.01 -271.059 617.084C-270.776 617.157 -272.023 618.606 -273.809 620.476C-275.595 622.346 -277.232 623.893 -277.525 623.787ZM-294.654 643.893C-294.95 643.718 -293.888 641.818 -292.239 639.779C-290.59 637.74 -288.98 636.341 -288.694 636.483C-288.407 636.626 -289.551 638.306 -291.195 640.361C-292.851 642.437 -294.358 644.067 -294.654 643.893ZM-310.544 665.656C-310.827 665.408 -309.849 663.341 -308.328 661.165C-306.791 658.985 -305.289 657.513 -304.995 657.74C-304.722 657.956 -305.761 659.815 -307.305 662.032C-308.842 664.212 -310.262 665.904 -310.544 665.656ZM-325.416 688.567C-325.685 688.245 -324.766 686.038 -323.331 683.749C-321.891 681.475 -320.468 679.973 -320.187 680.274C-319.922 680.58 -320.903 682.579 -322.349 684.889C-323.812 687.204 -325.163 688.894 -325.416 688.567ZM-339.571 712.191C-339.811 711.791 -338.942 709.476 -337.569 707.153C-336.196 704.829 -334.841 703.33 -334.59 703.71C-334.338 704.089 -335.281 706.216 -336.66 708.577C-338.061 710.926 -339.331 712.591 -339.571 712.191ZM-353.252 736.007C-353.463 735.528 -352.591 733.16 -351.255 730.83C-349.924 728.484 -348.619 727.052 -348.397 727.51C-348.175 727.968 -349.114 730.164 -350.457 732.531C-351.804 734.882 -353.041 736.485 -353.252 736.007ZM-366.707 759.581C-366.867 759.035 -365.98 756.663 -364.671 754.358C-363.362 752.054 -362.103 750.705 -361.915 751.225C-361.726 751.745 -362.689 753.983 -364.03 756.297C-365.366 758.627 -366.546 760.127 -366.707 759.581ZM-380.209 782.402C-380.32 781.789 -379.37 779.451 -378.049 777.247C-376.739 775.064 -375.514 773.778 -375.376 774.365C-375.237 774.953 -376.269 777.193 -377.606 779.401C-378.933 781.642 -380.098 783.015 -380.209 782.402ZM-394.009 804.037C-394.045 803.385 -393.018 801.129 -391.643 799.049C-390.284 796.973 -389.097 795.855 -389.034 796.482C-388.971 797.109 -390.058 799.279 -391.449 801.363C-392.846 803.485 -393.974 804.69 -394.009 804.037ZM-408.359 823.986C-408.314 823.31 -407.149 821.17 -405.722 819.266C-404.306 817.383 -403.129 816.408 -403.157 817.079C-403.17 817.746 -404.407 819.82 -405.855 821.712C-407.298 823.621 -408.404 824.662 -408.359 823.986ZM-423.539 841.772C-423.377 841.079 -422.049 839.135 -420.54 837.451C-419.03 835.768 -417.876 835.009 -418.006 835.692C-418.136 836.376 -419.499 838.261 -421.045 839.938C-422.602 841.635 -423.701 842.465 -423.539 841.772ZM-439.791 856.927C-439.503 856.249 -437.966 854.54 -436.371 853.145C-434.733 851.72 -433.607 851.161 -433.859 851.846C-434.111 852.53 -435.678 854.196 -437.357 855.598C-438.988 856.987 -440.079 857.605 -439.791 856.927Z" fill="url(#paint0_linear_351_906)"/>
</g>
</g>
<defs>
<linearGradient id="paint0_linear_351_906" x1="1287.14" y1="235.883" x2="252.597" y2="911.498" gradientUnits="userSpaceOnUse">
<stop stop-color="#07EDD2"/>
<stop offset="1" stop-color="#9C63F7"/>
</linearGradient>
</defs>
</svg>
