<svg width="1280" height="290" viewBox="0 0 1280 290" fill="none" xmlns="http://www.w3.org/2000/svg">
<g opacity="0.0323">
<g opacity="0.0323">
<path opacity="0.0323" d="M1301.83 -310.084C1301.56 -310.612 1301.85 -311.169 1302.47 -311.353C1303.07 -311.528 1303.78 -311.25 1304.03 -310.732C1304.29 -310.231 1304.01 -309.68 1303.42 -309.504C1302.79 -309.32 1302.09 -309.583 1301.83 -310.084ZM1276.06 -302.483C1275.79 -303.011 1276.06 -303.563 1276.67 -303.743C1277.26 -303.918 1277.98 -303.66 1278.26 -303.131C1278.53 -302.635 1278.25 -302.062 1277.65 -301.887C1277.04 -301.723 1276.32 -301.981 1276.06 -302.483ZM1250.54 -294.883C1250.24 -295.407 1250.53 -295.98 1251.1 -296.15C1251.71 -296.33 1252.42 -296.067 1252.71 -295.543C1253 -295.051 1252.75 -294.489 1252.14 -294.309C1251.56 -294.122 1250.83 -294.376 1250.54 -294.883ZM1225.27 -287.291C1224.96 -287.81 1225.19 -288.368 1225.8 -288.548C1226.38 -288.718 1227.11 -288.444 1227.42 -287.925C1227.72 -287.422 1227.49 -286.864 1226.91 -286.694C1226.29 -286.53 1225.57 -286.804 1225.27 -287.291ZM1200.14 -279.704C1199.81 -280.235 1200.04 -280.793 1200.62 -280.963C1201.21 -281.138 1201.96 -280.869 1202.28 -280.355C1202.6 -279.856 1202.38 -279.303 1201.79 -279.128C1201.22 -278.941 1200.46 -279.206 1200.14 -279.704ZM1175.15 -272.123C1174.78 -272.644 1174.98 -273.209 1175.58 -273.384C1176.15 -273.555 1176.9 -273.285 1177.26 -272.764C1177.6 -272.271 1177.41 -271.711 1176.83 -271.54C1176.26 -271.37 1175.5 -271.635 1175.15 -272.123ZM1150.22 -264.545C1149.84 -265.062 1150.01 -265.617 1150.6 -265.808C1151.19 -265.983 1151.97 -265.723 1152.35 -265.191C1152.73 -264.691 1152.56 -264.136 1151.96 -263.96C1151.37 -263.785 1150.6 -264.045 1150.22 -264.545ZM1125.35 -256.966C1124.94 -257.488 1125.09 -258.039 1125.68 -258.214C1126.26 -258.384 1127.05 -258.113 1127.45 -257.602C1127.84 -257.106 1127.7 -256.56 1127.13 -256.374C1126.55 -256.204 1125.74 -256.47 1125.35 -256.966ZM1100.43 -249.388C1100 -249.906 1100.13 -250.467 1100.72 -250.643C1101.31 -250.818 1102.13 -250.551 1102.57 -250.038C1103 -249.536 1102.86 -248.99 1102.27 -248.815C1101.68 -248.624 1100.85 -248.886 1100.43 -249.388ZM1075.49 -241.805C1075.02 -242.329 1075.14 -242.87 1075.73 -243.062C1076.31 -243.232 1077.13 -242.97 1077.6 -242.446C1078.04 -241.948 1077.95 -241.396 1077.37 -241.226C1076.77 -241.05 1075.93 -241.308 1075.49 -241.805ZM1050.41 -234.216C1049.93 -234.736 1050.02 -235.289 1050.62 -235.464C1051.23 -235.644 1052.08 -235.37 1052.56 -234.867C1053.02 -234.374 1052.95 -233.831 1052.34 -233.635C1051.75 -233.46 1050.89 -233.729 1050.41 -234.216ZM1025.21 -226.643C1024.69 -227.153 1024.78 -227.722 1025.36 -227.892C1025.97 -228.072 1026.85 -227.808 1027.35 -227.293C1027.85 -226.794 1027.77 -226.246 1027.17 -226.071C1026.58 -225.88 1025.7 -226.144 1025.21 -226.643ZM999.785 -219.04C999.268 -219.55 999.33 -220.109 999.94 -220.289C1000.52 -220.459 1001.45 -220.21 1001.97 -219.684C1002.48 -219.189 1002.38 -218.637 1001.8 -218.466C1001.19 -218.287 1000.28 -218.541 999.785 -219.04ZM974.135 -211.44C973.598 -211.961 973.68 -212.509 974.29 -212.689C974.884 -212.864 975.785 -212.589 976.318 -212.083C976.83 -211.589 976.779 -211.051 976.19 -210.86C975.576 -210.696 974.648 -210.945 974.135 -211.44ZM948.178 -203.818C947.64 -204.34 947.707 -204.883 948.333 -205.068C948.927 -205.243 949.876 -204.982 950.409 -204.476C950.921 -203.982 950.843 -203.418 950.244 -203.259C949.634 -203.079 948.706 -203.329 948.178 -203.818ZM922.277 -196.301C921.74 -196.823 921.79 -197.361 922.384 -197.536C922.994 -197.716 923.895 -197.441 924.432 -196.919C924.944 -196.425 924.91 -195.891 924.3 -195.711C923.723 -195.541 922.806 -195.811 922.277 -196.301ZM896.7 -188.809C896.163 -189.331 896.229 -189.874 896.839 -190.054C897.433 -190.229 898.334 -189.954 898.867 -189.448C899.379 -188.954 899.333 -188.4 898.739 -188.225C898.125 -188.061 897.213 -188.315 896.7 -188.809ZM870.838 -181.164C870.3 -181.685 870.41 -182.258 871.004 -182.434C871.63 -182.618 872.531 -182.343 873.063 -181.837C873.576 -181.343 873.514 -180.784 872.888 -180.6C872.294 -180.424 871.35 -180.669 870.838 -181.164ZM844.796 -173.413C844.275 -173.939 844.369 -174.508 844.995 -174.692C845.588 -174.867 846.489 -174.592 847.011 -174.066C847.507 -173.567 847.429 -173.003 846.84 -172.812C846.209 -172.644 845.292 -172.914 844.796 -173.413ZM818.529 -165.543C818.023 -166.074 818.161 -166.673 818.77 -166.853C819.396 -167.037 820.281 -166.758 820.787 -166.226C821.271 -165.707 821.177 -165.138 820.551 -164.954C819.946 -164.758 819.013 -165.023 818.529 -165.543ZM792.163 -157.592C791.685 -158.149 791.811 -158.727 792.437 -158.911C793.046 -159.091 793.947 -158.816 794.421 -158.275C794.889 -157.751 794.747 -157.168 794.142 -156.972C793.516 -156.788 792.631 -157.067 792.163 -157.592ZM765.689 -149.592C765.227 -150.153 765.381 -150.756 765.974 -150.932C766.616 -151.121 767.469 -150.832 767.931 -150.27C768.368 -149.736 768.246 -149.142 767.605 -148.953C767 -148.757 766.126 -149.058 765.689 -149.592ZM739.124 -141.547C738.694 -142.118 738.848 -142.721 739.485 -142.927C740.095 -143.106 740.931 -142.813 741.382 -142.23C741.808 -141.675 741.654 -141.072 741.044 -140.892C740.391 -140.682 739.534 -140.987 739.124 -141.547ZM712.532 -133.477C712.113 -134.068 712.299 -134.681 712.941 -134.871C713.583 -135.06 714.408 -134.745 714.806 -134.165C715.199 -133.6 715.03 -132.992 714.393 -132.787C713.767 -132.602 712.925 -132.912 712.532 -133.477ZM685.983 -125.437C685.596 -126.038 685.793 -126.671 686.435 -126.861C687.045 -127.041 687.854 -126.721 688.241 -126.12C688.618 -125.551 688.421 -124.917 687.812 -124.738C687.174 -124.532 686.365 -124.852 685.983 -125.437ZM659.482 -117.411C659.112 -118.017 659.341 -118.66 659.962 -118.861C660.604 -119.05 661.381 -118.721 661.756 -118.099C662.106 -117.504 661.909 -116.871 661.267 -116.681C660.625 -116.492 659.827 -116.832 659.482 -117.411ZM633.08 -109.466C632.736 -110.098 632.965 -110.741 633.575 -110.921C634.201 -111.105 634.983 -110.76 635.321 -110.145C635.655 -109.546 635.426 -108.903 634.805 -108.702C634.195 -108.522 633.418 -108.851 633.08 -109.466ZM606.801 -101.576C606.473 -102.212 606.718 -102.86 607.339 -103.06C607.933 -103.235 608.715 -102.891 609.042 -102.254C609.36 -101.65 609.104 -100.982 608.494 -100.802C607.873 -100.601 607.118 -100.972 606.801 -101.576ZM580.716 -93.7948C580.405 -94.4357 580.645 -95.0996 581.271 -95.2842C581.865 -95.4593 582.599 -95.1001 582.93 -94.448C583.232 -93.8392 582.992 -93.1753 582.398 -93.0002C581.772 -92.8156 581.022 -93.17 580.716 -93.7948ZM554.821 -86.1396C554.51 -86.7804 554.766 -87.4491 555.376 -87.6289C555.986 -87.8088 556.72 -87.4496 557.019 -86.788C557.31 -86.1585 557.065 -85.5106 556.455 -85.3308C555.866 -85.1396 555.127 -85.5148 554.821 -86.1396ZM529.217 -78.6224C528.917 -79.284 529.162 -79.9319 529.74 -80.1023C530.349 -80.2822 531.072 -79.9022 531.367 -79.2567C531.657 -78.6271 531.412 -77.9793 530.803 -77.7994C530.241 -77.6338 529.518 -78.0137 529.217 -78.6224ZM503.454 -70.8144C503.154 -71.476 503.411 -72.1446 504.036 -72.3292C504.657 -72.5298 505.391 -72.1707 505.691 -71.5091C505.982 -70.8795 505.725 -70.2109 505.104 -70.0103C504.478 -69.8257 503.744 -70.1848 503.454 -70.8144ZM477.529 -62.9061C477.218 -63.5469 477.474 -64.2156 478.068 -64.3907C478.678 -64.5706 479.412 -64.2114 479.728 -63.5545C480.018 -62.925 479.773 -62.2771 479.163 -62.0973C478.553 -61.9174 477.819 -62.2766 477.529 -62.9061ZM451.794 -55.42C451.482 -56.0608 451.716 -56.6879 452.342 -56.8725C452.936 -57.0476 453.654 -56.6837 453.965 -56.0429C454.266 -55.4341 454.037 -54.791 453.439 -54.6319C452.829 -54.4521 452.091 -54.8273 451.794 -55.42ZM426.273 -48.3287C425.955 -48.9327 426.173 -49.5551 426.755 -49.7094C427.37 -49.8732 428.099 -49.5301 428.421 -48.9101C428.734 -48.3221 428.512 -47.7158 427.898 -47.552C427.331 -47.4024 426.581 -47.7568 426.273 -48.3287ZM400.89 -41.5397C400.545 -42.1182 400.756 -42.7037 401.371 -42.8675C401.953 -43.0219 402.714 -42.6882 403.059 -42.1097C403.379 -41.5586 403.152 -40.9683 402.569 -40.8139C401.971 -40.6549 401.226 -40.9933 400.89 -41.5397ZM375.627 -34.9952C375.275 -35.5369 375.491 -36.1064 376.073 -36.2607C376.672 -36.4198 377.428 -36.1022 377.796 -35.5653C378.143 -35.0397 377.939 -34.4909 377.34 -34.3319C376.774 -34.1823 375.974 -34.4696 375.627 -34.9952ZM350.486 -28.6265C350.112 -29.1266 350.289 -29.6498 350.888 -29.8089C351.454 -29.9585 352.238 -29.6664 352.612 -29.1663C352.966 -28.6775 352.805 -28.1591 352.217 -28.0208C351.619 -27.8617 350.84 -28.1377 350.486 -28.6265ZM325.359 -22.3315C324.962 -22.79 325.144 -23.2972 325.731 -23.4355C326.329 -23.5945 327.12 -23.3393 327.521 -22.8647C327.898 -22.4174 327.743 -21.9358 327.145 -21.7767C326.569 -21.6592 325.751 -21.8889 325.359 -22.3315ZM300.286 -16.0874C299.867 -16.5044 300.01 -16.9653 300.608 -17.1243C301.191 -17.2787 301.992 -17.0442 302.396 -16.6225C302.795 -16.2168 302.667 -15.7607 302.08 -15.6224C301.498 -15.468 300.685 -15.6817 300.286 -16.0874ZM275.154 -9.80842C274.712 -10.1839 274.876 -10.6334 275.447 -10.7669C276.045 -10.926 276.87 -10.7331 277.301 -10.3369C277.722 -9.97279 277.601 -9.55349 277.003 -9.39441C276.432 -9.26085 275.58 -9.42826 275.154 -9.80842ZM250.002 -3.41893C249.532 -3.76885 249.658 -4.17209 250.261 -4.31512C250.843 -4.46946 251.674 -4.31338 252.128 -3.95873C252.577 -3.62012 252.462 -3.23763 251.88 -3.08329C251.277 -2.94026 250.435 -3.07559 250.002 -3.41893ZM224.732 3.16233C224.256 2.84924 224.37 2.46676 224.968 2.30768C225.583 2.14387 226.425 2.27919 226.901 2.59228C227.357 2.89406 227.27 3.25102 226.656 3.41483C226.052 3.55786 225.183 3.44807 224.732 3.16233ZM199.354 9.9674C198.855 9.69587 198.953 9.31816 199.568 9.15435C200.15 9.00001 201.015 9.09375 201.518 9.38133C201.98 9.64628 201.91 9.9985 201.327 10.1528C200.713 10.3167 199.832 10.2276 199.354 9.9674ZM173.806 17.0842C173.296 16.8335 173.399 16.4718 174.008 16.2919C174.618 16.1121 175.494 16.185 176.009 16.4518C176.482 16.696 176.407 17.0322 175.797 17.212C175.188 17.3919 174.284 17.3444 173.806 17.0842ZM148.075 24.5864C147.565 24.3356 147.657 23.9947 148.25 23.8196C148.876 23.635 149.748 23.6919 150.274 23.9379C150.763 24.1773 150.683 24.4975 150.073 24.6774C149.479 24.8525 148.564 24.8258 148.075 24.5864ZM122.095 32.5457C121.59 32.311 121.677 31.954 122.298 31.7534C122.919 31.5527 123.807 31.6049 124.328 31.8349C124.812 32.0583 124.737 32.3945 124.116 32.5951C123.511 32.791 122.601 32.7804 122.095 32.5457ZM96.5044 39.9892C95.9991 39.7545 96.0744 39.4183 96.6568 39.2639C97.2713 39.1001 98.1428 39.1571 98.6528 39.4078C99.1374 39.6312 99.0734 39.9466 98.4796 40.1217C97.8925 40.26 96.9889 40.2126 96.5044 39.9892ZM70.8962 47.3156C70.3862 47.0649 70.4775 46.724 71.1033 46.5394C71.6971 46.3642 72.6054 46.4277 73.1107 46.6624C73.6 46.9019 73.4878 47.2315 72.9101 47.4019C72.2843 47.5865 71.3808 47.539 70.8962 47.3156ZM44.975 55.1181C44.4763 54.8466 44.5949 54.4802 45.1886 54.3051C45.8145 54.1205 46.6859 54.1774 47.1847 54.4489C47.6626 54.7092 47.5713 55.0501 46.9502 55.2507C46.3404 55.4306 45.4529 55.3784 44.975 55.1181ZM18.7151 63.3694C18.2437 63.0724 18.3737 62.6852 18.9948 62.4845C19.5999 62.2886 20.4921 62.3569 20.9795 62.6492C21.4461 62.9302 21.3001 63.3221 20.695 63.518C20.0532 63.7073 19.1817 63.6504 18.7151 63.3694ZM-7.77872 71.9513C-8.22272 71.6287 -8.05877 71.1792 -7.45372 70.9833C-6.81658 70.7779 -5.96769 70.8764 -5.50764 71.1942C-5.06838 71.5007 -5.20496 71.9248 -5.84211 72.1301C-6.44242 72.3421 -7.33472 72.2739 -7.77872 71.9513ZM-34.4243 80.7873C-34.8457 80.4232 -34.6704 79.9529 -34.0333 79.7475C-33.4122 79.5468 -32.5907 79.6708 -32.1533 80.0302C-31.7527 80.383 -31.9166 80.8326 -32.5169 81.0445C-33.1701 81.2546 -34.0237 81.1401 -34.4243 80.7873ZM-61.2085 89.8037C-61.5912 89.3933 -61.3934 88.8814 -60.7883 88.6855C-60.1559 88.4641 -59.341 88.6249 -58.9422 89.0306C-58.5643 89.425 -58.7508 89.9161 -59.404 90.1262C-60.0156 90.3589 -60.8306 90.1981 -61.2085 89.8037ZM-88.0927 98.9543C-88.4528 98.5023 -88.2115 97.9602 -87.5791 97.7388C-86.9627 97.5221 -86.1704 97.7245 -85.8104 98.1764C-85.4711 98.6171 -85.6803 99.1498 -86.3014 99.3504C-86.9498 99.5765 -87.7534 99.3949 -88.0927 98.9543ZM-114.977 108.105C-115.303 107.591 -115.05 107.028 -114.434 106.811C-113.786 106.585 -113.037 106.817 -112.695 107.327C-112.378 107.809 -112.631 108.372 -113.279 108.598C-113.879 108.81 -114.66 108.587 -114.977 108.105ZM-141.839 117.214C-142.126 116.653 -141.851 116.049 -141.214 115.843C-140.593 115.643 -139.871 115.901 -139.567 116.457C-139.29 116.985 -139.565 117.59 -140.165 117.802C-140.823 117.996 -141.561 117.742 -141.839 117.214ZM-168.616 126.193C-168.881 125.591 -168.578 124.961 -167.946 124.74C-167.309 124.535 -166.594 124.83 -166.329 125.432C-166.074 126.002 -166.376 126.632 -167.009 126.853C-167.646 127.058 -168.361 126.764 -168.616 126.193ZM-195.217 134.946C-195.454 134.319 -195.129 133.647 -194.492 133.442C-193.887 133.246 -193.194 133.582 -192.957 134.21C-192.724 134.822 -193.054 135.477 -193.659 135.673C-194.291 135.894 -194.984 135.558 -195.217 134.946ZM-221.633 143.436C-221.848 142.766 -221.474 142.081 -220.885 141.889C-220.264 141.689 -219.595 142.067 -219.385 142.72C-219.179 143.357 -219.516 144.05 -220.142 144.234C-220.731 144.425 -221.428 144.073 -221.633 143.436ZM-247.761 151.543C-247.948 150.849 -247.612 150.156 -246.986 149.972C-246.392 149.796 -245.755 150.184 -245.551 150.874C-245.373 151.537 -245.71 152.229 -246.299 152.42C-246.924 152.605 -247.583 152.206 -247.761 151.543ZM-273.603 159.2C-273.779 158.485 -273.442 157.793 -272.833 157.613C-272.223 157.433 -271.592 157.857 -271.404 158.552C-271.222 159.231 -271.574 159.928 -272.184 160.108C-272.805 160.308 -273.436 159.884 -273.603 159.2ZM-299.056 166.342C-299.232 165.626 -298.896 164.934 -298.297 164.775C-297.715 164.62 -297.1 165.049 -296.924 165.765C-296.757 166.448 -297.094 167.141 -297.676 167.295C-298.27 167.47 -298.89 167.025 -299.056 166.342ZM-324.702 173.836C-324.878 173.121 -324.542 172.428 -323.921 172.228C-323.311 172.048 -322.669 172.451 -322.492 173.167C-322.326 173.85 -322.674 174.563 -323.283 174.743C-323.893 174.923 -324.519 174.515 -324.702 173.836ZM-350.48 181.474C-350.656 180.759 -350.32 180.066 -349.726 179.891C-349.1 179.707 -348.474 180.115 -348.298 180.831C-348.131 181.514 -348.463 182.222 -349.093 182.391C-349.666 182.577 -350.297 182.153 -350.48 181.474ZM-376.282 189.032C-376.453 188.333 -376.121 187.624 -375.495 187.44C-374.886 187.26 -374.243 187.663 -374.067 188.379C-373.9 189.062 -374.237 189.755 -374.863 189.939C-375.473 190.119 -376.099 189.711 -376.282 189.032ZM-402.043 196.491C-402.23 195.796 -401.877 195.099 -401.284 194.924C-400.674 194.744 -400.032 195.148 -399.855 195.863C-399.677 196.526 -400.03 197.223 -400.64 197.403C-401.25 197.583 -401.876 197.174 -402.043 196.491ZM-427.85 203.911C-428.037 203.216 -427.68 202.535 -427.07 202.355C-426.477 202.18 -425.818 202.579 -425.647 203.279C-425.469 203.941 -425.837 204.643 -426.436 204.802C-427.046 204.982 -427.672 204.574 -427.85 203.911ZM-453.607 211.264C-453.79 210.585 -453.433 209.904 -452.855 209.734C-452.245 209.554 -451.603 209.958 -451.42 210.636C-451.242 211.299 -451.599 211.98 -452.214 212.144C-452.808 212.319 -453.445 211.931 -453.607 211.264ZM-479.406 218.594C-479.589 217.916 -479.243 217.255 -478.617 217.071C-478.023 216.896 -477.365 217.295 -477.187 217.957C-477.014 218.604 -477.387 219.29 -477.985 219.449C-478.611 219.633 -479.233 219.241 -479.406 218.594ZM-505.21 225.909C-505.388 225.246 -505.026 224.581 -504.432 224.406C-503.822 224.226 -503.185 224.614 -503.002 225.292C-502.829 225.939 -503.175 226.599 -503.789 226.763C-504.372 226.917 -505.025 226.534 -505.21 225.909ZM-530.97 233.193C-531.148 232.53 -530.802 231.87 -530.187 231.706C-529.594 231.531 -528.94 231.914 -528.762 232.576C-528.594 233.207 -528.956 233.872 -529.549 234.047C-530.164 234.211 -530.801 233.823 -530.97 233.193ZM-556.769 240.523C-556.942 239.876 -556.58 239.212 -555.982 239.052C-555.372 238.873 -554.739 239.244 -554.545 239.902C-554.376 240.533 -554.711 241.172 -555.337 241.357C-555.94 241.5 -556.589 241.133 -556.769 240.523ZM-582.531 247.86C-582.72 247.218 -582.37 246.574 -581.76 246.394C-581.166 246.219 -580.533 246.591 -580.36 247.237C-580.18 247.847 -580.531 248.491 -581.124 248.666C-581.739 248.83 -582.367 248.475 -582.531 247.86ZM-608.332 255.243C-608.516 254.617 -608.15 253.969 -607.556 253.793C-606.946 253.614 -606.297 253.98 -606.129 254.611C-605.949 255.221 -606.299 255.865 -606.914 256.029C-607.508 256.204 -608.152 255.853 -608.332 255.243ZM-634.097 262.686C-634.282 262.06 -633.931 261.416 -633.317 261.252C-632.723 261.077 -632.095 261.432 -631.91 262.058C-631.735 262.652 -632.086 263.296 -632.68 263.471C-633.294 263.635 -633.938 263.284 -634.097 262.686ZM-659.908 270.212C-660.093 269.586 -659.738 268.958 -659.128 268.778C-658.502 268.593 -657.874 268.949 -657.694 269.559C-657.519 270.152 -657.87 270.797 -658.479 270.976C-659.094 271.14 -659.733 270.806 -659.908 270.212ZM-685.68 277.813C-685.864 277.187 -685.509 276.559 -684.899 276.379C-684.305 276.204 -683.682 276.544 -683.497 277.169C-683.322 277.763 -683.662 278.387 -684.255 278.562C-684.881 278.746 -685.505 278.407 -685.68 277.813Z" fill="url(#paint0_linear_351_724)"/>
</g>
</g>
<defs>
<linearGradient id="paint0_linear_351_724" x1="1045.35" y1="-233.519" x2="1071.25" y2="-44.9636" gradientUnits="userSpaceOnUse">
<stop stop-color="#07EDD2"/>
<stop offset="1" stop-color="#9C63F7"/>
</linearGradient>
</defs>
</svg>
