<svg width="1280" height="821" viewBox="0 0 1280 821" fill="none" xmlns="http://www.w3.org/2000/svg">
<g opacity="0.9355">
<g opacity="0.9355">
<path opacity="0.9355" d="M1519.78 126.628C1518.77 119.007 1520.31 112.428 1523.19 112.052C1526.07 111.671 1529.22 117.721 1530.24 125.427C1531.24 133.138 1529.72 139.411 1526.82 139.691C1523.94 139.982 1520.78 134.25 1519.78 126.628ZM1491.34 128.319C1490.32 120.978 1491.97 114.804 1494.97 114.634C1497.96 114.468 1501.19 120.458 1502.2 127.904C1503.21 135.351 1501.58 141.239 1498.6 141.299C1495.6 141.347 1492.35 135.643 1491.34 128.319ZM1462.01 128.247C1461 121.271 1462.7 115.518 1465.77 115.503C1468.87 115.479 1472.18 121.339 1473.18 128.457C1474.18 135.575 1472.5 141.043 1469.4 140.929C1466.34 140.785 1463.02 135.206 1462.01 128.247ZM1431.98 126.832C1430.97 120.275 1432.72 114.978 1435.89 115.073C1439.02 115.161 1442.38 120.779 1443.4 127.491C1444.41 134.206 1442.67 139.254 1439.54 138.991C1436.36 138.743 1432.98 133.389 1431.98 126.832ZM1401.55 124.556C1400.54 118.47 1402.32 113.62 1405.49 113.783C1408.68 113.958 1412.08 119.233 1413.09 125.494C1414.1 131.755 1412.32 136.378 1409.13 136.028C1405.96 135.69 1402.55 130.626 1401.55 124.556ZM1370.93 121.829C1369.92 116.267 1371.7 111.851 1374.92 112.037C1378.1 112.233 1381.49 117.127 1382.51 122.88C1383.51 128.637 1381.73 132.842 1378.55 132.456C1375.33 132.079 1371.94 127.392 1370.93 121.829ZM1340.44 119.118C1339.45 114.091 1341.19 110.107 1344.38 110.282C1347.57 110.457 1350.96 114.901 1351.94 120.123C1352.94 125.34 1351.16 129.143 1347.96 128.761C1344.78 128.374 1341.43 124.128 1340.44 119.118ZM1310.29 116.814C1309.32 112.355 1311.07 108.769 1314.21 108.873C1317.31 108.987 1320.65 112.92 1321.63 117.587C1322.6 122.253 1320.83 125.669 1317.72 125.349C1314.58 125.037 1311.25 121.274 1310.29 116.814ZM1280.76 115.423C1279.84 111.526 1281.53 108.308 1284.58 108.314C1287.63 108.32 1290.88 111.705 1291.84 115.82C1292.79 119.935 1291.03 122.981 1287.97 122.752C1284.89 122.544 1281.7 119.315 1280.76 115.423ZM1252.08 115.336C1251.2 112.002 1252.88 109.117 1255.84 108.977C1258.76 108.831 1261.89 111.64 1262.8 115.192C1263.69 118.749 1262 121.464 1259.04 121.413C1256.06 121.33 1252.96 118.67 1252.08 115.336ZM1224.54 117.005C1223.75 114.203 1225.38 111.613 1228.2 111.267C1231.03 110.921 1234 113.116 1234.84 116.131C1235.67 119.13 1234.01 121.592 1231.15 121.736C1228.28 121.884 1225.33 119.807 1224.54 117.005ZM1198.39 120.882C1197.69 118.592 1199.26 116.227 1201.9 115.658C1204.58 115.079 1207.34 116.653 1208.09 119.135C1208.83 121.623 1207.22 123.875 1204.51 124.256C1201.83 124.644 1199.1 123.167 1198.39 120.882ZM1173.87 127.415C1173.3 125.595 1174.83 123.383 1177.31 122.528C1179.79 121.656 1182.31 122.623 1182.94 124.619C1183.56 126.616 1182.02 128.727 1179.49 129.422C1176.95 130.101 1174.44 129.235 1173.87 127.415ZM1151.27 137.012C1150.85 135.6 1152.32 133.475 1154.57 132.305C1156.84 131.113 1159.1 131.441 1159.57 132.993C1160.05 134.545 1158.55 136.61 1156.2 137.65C1153.91 138.676 1151.7 138.419 1151.27 137.012ZM1130.81 150.146C1130.57 149.1 1132 146.969 1134.03 145.393C1136.06 143.834 1137.95 143.556 1138.27 144.737C1138.58 145.918 1137.13 147.984 1135.03 149.425C1132.92 150.865 1131.05 151.208 1130.81 150.146ZM1111.69 169.933C1111.6 169.226 1113.21 166.656 1115.23 164.159C1117.26 161.642 1118.99 160.225 1119.1 161.081C1119.23 161.933 1117.68 164.605 1115.62 166.994C1113.55 169.347 1111.77 170.64 1111.69 169.933ZM1091.57 193.465C1091.56 193.068 1093.29 190.762 1095.41 188.252C1097.5 185.753 1099.21 184.06 1099.24 184.575C1099.29 185.085 1097.61 187.498 1095.49 189.886C1093.35 192.294 1091.58 193.863 1091.57 193.465ZM1070.82 216.959C1070.86 216.791 1072.69 214.68 1074.86 212.209C1077.06 209.713 1078.77 207.83 1078.74 208.083C1078.71 208.336 1076.94 210.55 1074.74 212.978C1072.57 215.379 1070.78 217.127 1070.82 216.959ZM1049.42 240.314C1049.5 240.29 1051.41 238.33 1053.65 235.872C1055.88 233.436 1057.63 231.437 1057.56 231.509C1057.5 231.581 1055.65 233.661 1053.39 236.054C1051.14 238.479 1049.34 240.338 1049.42 240.314ZM1027.46 263.327C1027.55 263.388 1029.5 261.556 1031.82 259.143C1034.15 256.731 1035.92 254.692 1035.82 254.667C1035.74 254.638 1033.82 256.619 1031.5 259.011C1029.18 261.407 1027.36 263.286 1027.46 263.327ZM1004.92 285.901C1005.01 285.978 1007.03 284.212 1009.41 281.854C1011.76 279.538 1013.58 277.5 1013.48 277.444C1013.39 277.367 1011.43 279.288 1009.07 281.604C1006.71 283.941 1004.82 285.823 1004.92 285.901ZM981.906 307.828C981.989 307.873 984.045 306.151 986.452 303.905C988.887 301.635 990.751 299.672 990.668 299.627C990.58 299.566 988.587 301.444 986.157 303.731C983.765 305.971 981.839 307.778 981.906 307.828ZM958.412 329.008C958.477 328.989 960.553 327.278 963.038 325.115C965.49 322.961 967.407 321.123 967.349 321.105C967.276 321.091 965.262 322.959 962.815 325.128C960.345 327.339 958.364 329.023 958.412 329.008ZM934.53 349.222C934.566 349.107 936.636 347.432 939.148 345.365C941.677 343.294 943.658 341.611 943.612 341.694C943.567 341.777 941.528 343.617 939.03 345.732C936.51 347.835 934.494 349.337 934.53 349.222ZM910.234 368.389C910.236 368.161 912.323 366.482 914.884 364.523C917.419 362.589 919.456 361.099 919.455 361.273C919.443 361.469 917.404 363.309 914.879 365.274C912.316 367.287 910.231 368.617 910.234 368.389ZM885.589 386.316C885.554 385.96 887.64 384.28 890.244 382.466C892.833 380.656 894.916 379.378 894.937 379.686C894.958 379.994 892.951 381.824 890.361 383.687C887.786 385.545 885.624 386.671 885.589 386.316ZM860.687 402.836C860.614 402.351 862.705 400.688 865.319 399.027C867.923 397.387 870.067 396.318 870.142 396.75C870.201 397.186 868.162 399.026 865.573 400.714C862.956 402.428 860.76 403.32 860.687 402.836ZM835.493 417.837C835.382 417.224 837.471 415.614 840.118 414.118C842.764 412.622 844.947 411.804 845.044 412.368C845.14 412.933 843.135 414.71 840.503 416.254C837.846 417.771 835.599 418.433 835.493 417.837ZM810.106 431.116C809.966 430.407 812.038 428.854 814.688 427.549C817.354 426.239 819.599 425.63 819.729 426.306C819.858 426.983 817.823 428.717 815.171 430.075C812.547 431.408 810.245 431.825 810.106 431.116ZM784.533 442.583C784.37 441.794 786.437 440.347 789.123 439.223C791.778 438.109 794.057 437.733 794.21 438.49C794.364 439.248 792.337 440.892 789.692 442.038C787.022 443.157 784.691 443.356 784.533 442.583ZM758.851 452.025C758.678 451.203 760.747 449.878 763.41 448.971C766.104 448.054 768.408 447.88 768.576 448.685C768.748 449.507 766.716 451.013 764.021 451.93C761.363 452.854 759.023 452.846 758.851 452.025ZM733.091 458.838C732.919 458.016 734.976 457.008 737.665 456.425C740.353 455.841 742.638 455.9 742.81 456.721C742.983 457.542 740.985 458.812 738.297 459.395C735.592 459.984 733.264 459.659 733.091 458.838ZM707.632 461.759C707.469 460.97 709.504 460.3 712.136 460.117C714.8 459.924 717.053 460.289 717.221 461.094C717.388 461.899 715.376 462.824 712.723 462.996C710.091 463.179 707.795 462.549 707.632 461.759ZM682.419 461.26C682.265 460.502 684.284 460.134 686.926 460.279C689.531 460.418 691.775 461.047 691.928 461.804C692.082 462.561 690.097 463.164 687.487 463.009C684.829 462.868 682.567 462.001 682.419 461.26ZM657.45 457.862C657.315 457.169 659.321 457.048 661.91 457.488C664.515 457.923 666.726 458.737 666.87 459.462C667.014 460.187 665.033 460.509 662.423 460.058C659.83 459.602 657.585 458.555 657.45 457.862ZM632.659 452.109C632.538 451.465 634.562 451.583 637.144 452.234C639.709 452.89 641.878 453.856 642.008 454.532C642.133 455.193 640.155 455.288 637.584 454.616C634.988 453.917 632.779 452.754 632.659 452.109ZM608.015 444.551C607.914 443.971 609.937 444.264 612.481 445.083C615.062 445.909 617.21 446.985 617.317 447.582C617.428 448.194 615.441 448.083 612.871 447.236C610.318 446.384 608.117 445.132 608.015 444.551ZM583.458 435.747C583.375 435.231 585.404 435.662 587.965 436.598C590.505 437.523 592.632 438.641 592.724 439.189C592.816 439.738 590.835 439.467 588.285 438.51C585.73 437.537 583.552 436.243 583.458 435.747ZM558.984 426.221C558.92 425.769 560.961 426.3 563.5 427.278C566.064 428.284 568.169 429.39 568.237 429.858C568.306 430.326 566.312 429.955 563.744 428.933C561.216 427.935 559.059 426.652 558.984 426.221ZM534.511 416.52C534.471 416.148 536.521 416.712 539.085 417.717C541.628 418.711 543.72 419.769 543.769 420.173C543.818 420.577 541.806 420.141 539.274 419.126C536.684 418.094 534.551 416.891 534.511 416.52ZM510.009 407.193C509.988 406.885 512.038 407.449 514.599 408.386C517.16 409.322 519.244 410.295 519.274 410.635C519.305 410.975 517.288 410.523 514.717 409.555C512.146 408.586 510.03 407.501 510.009 407.193ZM485.416 398.801C485.413 398.557 487.507 399.091 490.088 399.917C492.632 400.736 494.71 401.571 494.722 401.847C494.733 402.123 492.689 401.696 490.14 400.861C487.561 399.982 485.434 399.04 485.416 398.801ZM460.745 391.861C460.762 391.682 462.855 392.094 465.441 392.761C468.028 393.429 470.102 394.073 470.094 394.284C470.087 394.496 468.018 394.164 465.427 393.481C462.831 392.781 460.728 392.041 460.745 391.861ZM435.867 386.937C435.898 386.805 438.058 387.093 440.659 387.512C443.243 387.936 445.309 388.373 445.282 388.52C445.256 388.668 443.172 388.463 440.583 388.023C437.973 387.572 435.852 387.063 435.867 386.937ZM410.799 384.563C410.828 384.484 413.028 384.551 415.654 384.701C418.28 384.85 420.354 385.024 420.33 385.118C420.305 385.212 418.172 385.196 415.542 385.03C412.9 384.885 410.77 384.641 410.799 384.563ZM385.511 385.288C385.55 385.242 387.785 385.071 390.412 384.872C393.076 384.679 395.151 384.556 395.117 384.618C395.083 384.68 392.915 384.901 390.262 385.073C387.614 385.261 385.473 385.335 385.511 385.288ZM359.938 389.657C359.986 389.642 362.216 389.159 364.899 388.56C367.588 387.976 369.668 387.519 369.62 387.533C369.577 387.564 367.41 388.081 364.721 388.664C362.037 389.264 359.878 389.692 359.938 389.657ZM333.328 397.017C333.376 397.003 335.826 396.437 338.669 395.668C341.544 394.89 343.756 394.168 343.696 394.203C343.648 394.217 341.356 394.963 338.486 395.757C335.642 396.526 333.28 397.031 333.328 397.017ZM303.938 404.412C303.97 404.403 306.635 403.861 309.807 403.082C312.979 402.304 315.411 401.621 315.363 401.635C315.315 401.65 312.844 402.378 309.684 403.136C306.507 403.899 303.905 404.422 303.938 404.412ZM272.096 411.659C272.112 411.654 274.957 411.129 278.329 410.378C281.749 409.614 284.425 408.929 284.409 408.934C284.393 408.938 281.674 409.653 278.27 410.413C274.893 411.148 272.08 411.663 272.096 411.659ZM238.13 418.799C238.114 418.804 241.102 418.289 244.722 417.552C248.305 416.809 251.188 416.116 251.188 416.116C251.188 416.116 248.322 416.805 244.738 417.547C241.118 418.284 238.13 418.799 238.13 418.799ZM202.499 425.854C202.472 425.88 205.55 425.373 209.296 424.652C213.091 423.916 216.112 423.217 216.139 423.192C216.172 423.182 213.178 423.856 209.399 424.587C205.673 425.32 202.548 425.84 202.499 425.854ZM165.579 432.854C165.52 432.889 168.676 432.412 172.576 431.68C176.445 430.958 179.604 430.253 179.663 430.218C179.706 430.188 176.644 430.864 172.792 431.582C168.886 432.298 165.639 432.819 165.579 432.854ZM127.787 439.797C127.696 439.842 130.873 439.376 134.831 438.662C138.821 437.938 142.081 437.221 142.156 437.182C142.232 437.142 139.128 437.796 135.154 438.514C131.211 439.224 127.879 439.753 127.787 439.797ZM89.499 446.713C89.3754 446.766 92.5568 446.316 96.584 445.6C100.574 444.876 103.887 444.161 104.01 444.107C104.118 444.058 100.989 444.684 97.0144 445.403C92.9872 446.12 89.6227 446.659 89.499 446.713ZM51.1577 453.626C51.0067 453.705 54.14 453.269 58.1304 452.546C62.1528 451.813 65.4974 451.088 65.6484 451.009C65.7834 450.934 62.6908 451.567 58.6797 452.279C54.7054 452.998 51.3248 453.542 51.1577 453.626ZM13.1177 460.555C12.9346 460.644 15.9989 460.211 19.9732 459.492C23.9107 458.767 27.2506 458.026 27.4337 457.937C27.6007 457.853 24.5563 458.472 20.6349 459.192C16.6605 459.911 13.3008 460.466 13.1177 460.555ZM-24.1614 467.521C-24.3766 467.619 -21.4454 467.208 -17.5608 466.481C-13.6761 465.754 -10.3779 464.991 -10.1627 464.892C-9.96352 464.799 -12.923 465.41 -16.7915 466.132C-20.6762 466.859 -23.9462 467.423 -24.1614 467.521ZM-60.3528 474.568C-60.5953 474.692 -57.7746 474.261 -54.0165 473.519C-50.3065 472.791 -47.0658 472.009 -46.8393 471.89C-46.6081 471.787 -49.4505 472.381 -53.1605 473.109C-56.8978 473.863 -60.1102 474.444 -60.3528 474.568ZM-95.0108 481.668C-95.2855 481.801 -92.5865 481.371 -89.0399 480.622C-85.4612 479.863 -82.3423 479.083 -82.0837 478.954C-81.8251 478.825 -84.5249 479.43 -88.0876 480.184C-91.6181 480.929 -94.7475 481.555 -95.0108 481.668ZM-127.698 488.885C-127.989 489.023 -125.529 488.611 -122.162 487.845C-118.827 487.088 -115.871 486.286 -115.58 486.148C-115.306 486.014 -117.815 486.615 -121.134 487.367C-124.49 488.113 -127.408 488.747 -127.698 488.885ZM-158.055 496.199C-158.361 496.341 -156.161 495.937 -153.058 495.161C-149.955 494.385 -147.179 493.566 -146.872 493.424C-146.566 493.281 -148.863 493.889 -151.966 494.664C-155.053 495.435 -157.748 496.056 -158.055 496.199ZM-185.691 503.687C-186.013 503.835 -184.029 503.406 -181.26 502.624C-178.458 501.833 -175.898 500.991 -175.591 500.848C-175.285 500.705 -177.334 501.327 -180.124 502.098C-182.91 502.884 -185.389 503.528 -185.691 503.687ZM-210.691 513.015C-211.003 513.141 -209.224 512.372 -206.691 511.259C-204.159 510.146 -201.858 509.136 -201.535 508.988C-201.228 508.846 -203.03 509.656 -205.578 510.774C-208.122 511.908 -210.396 512.893 -210.691 513.015ZM-233.319 526.247C-233.624 526.337 -232.018 525.218 -229.748 523.746C-227.451 522.249 -225.33 520.926 -225.03 520.82C-224.729 520.714 -226.37 521.895 -228.666 523.392C-230.943 524.901 -233.014 526.157 -233.319 526.247ZM-253.879 542.882C-254.166 542.914 -252.735 541.498 -250.638 539.676C-248.547 537.838 -246.597 536.286 -246.304 536.217C-246.005 536.164 -247.482 537.664 -249.569 539.518C-251.677 541.36 -253.592 542.85 -253.879 542.882ZM-272.653 562.321C-272.943 562.285 -271.624 560.605 -269.73 558.511C-267.819 556.413 -266.033 554.665 -265.736 554.665C-265.44 554.664 -266.762 556.45 -268.679 558.585C-270.58 560.716 -272.363 562.358 -272.653 562.321ZM-289.972 584.088C-290.249 583.978 -289.054 582.055 -287.279 579.735C-285.536 577.424 -283.872 575.556 -283.584 575.645C-283.301 575.718 -284.499 577.747 -286.249 580.094C-288.019 582.43 -289.68 584.193 -289.972 584.088ZM-306.087 607.575C-306.355 607.375 -305.233 605.265 -303.591 602.792C-301.937 600.298 -300.381 598.356 -300.111 598.503C-299.836 598.666 -300.941 600.894 -302.602 603.424C-304.246 605.95 -305.819 607.775 -306.087 607.575ZM-321.377 632.318C-321.633 632.045 -320.558 629.774 -318.985 627.182C-317.424 624.611 -315.951 622.624 -315.685 622.877C-315.423 623.114 -316.476 625.518 -318.044 628.126C-319.607 630.75 -321.122 632.592 -321.377 632.318ZM-336.081 657.691C-336.312 657.323 -335.245 654.968 -333.734 652.342C-332.217 649.679 -330.804 647.727 -330.567 648.059C-330.33 648.39 -331.349 650.906 -332.878 653.589C-334.384 656.231 -335.839 658.039 -336.081 657.691ZM-350.53 683.216C-350.732 682.77 -349.647 680.357 -348.146 677.699C-346.652 675.077 -345.293 673.177 -345.085 673.586C-344.877 673.996 -345.894 676.581 -347.395 679.239C-348.924 681.922 -350.329 683.663 -350.53 683.216ZM-365.018 708.316C-365.17 707.803 -364.043 705.412 -362.523 702.818C-361.003 700.225 -359.686 698.423 -359.507 698.911C-359.328 699.399 -360.409 702.003 -361.94 704.617C-363.487 707.237 -364.867 708.83 -365.018 708.316ZM-379.865 732.493C-379.946 731.924 -378.725 729.558 -377.156 727.072C-375.614 724.611 -374.307 722.952 -374.194 723.512C-374.081 724.072 -375.224 726.641 -376.798 729.112C-378.383 731.603 -379.784 733.062 -379.865 732.493ZM-395.353 755.149C-395.362 754.524 -394.019 752.279 -392.377 749.981C-390.739 747.666 -389.433 746.182 -389.391 746.798C-389.354 747.397 -390.61 749.878 -392.275 752.218C-393.949 754.526 -395.347 755.758 -395.353 755.149ZM-411.802 775.787C-411.715 775.134 -410.17 773.038 -408.43 770.955C-406.701 768.893 -405.402 767.62 -405.456 768.264C-405.51 768.908 -406.915 771.241 -408.677 773.313C-410.47 775.394 -411.888 776.44 -411.802 775.787ZM-429.516 793.85C-429.313 793.179 -427.543 791.314 -425.685 789.51C-423.807 787.718 -422.494 786.668 -422.645 787.34C-422.816 788.001 -424.421 790.132 -426.352 791.922C-428.262 793.724 -429.719 794.52 -429.516 793.85ZM-448.778 808.794C-448.432 808.133 -446.419 806.563 -444.388 805.109C-442.341 803.651 -441.001 802.872 -441.294 803.534C-441.588 804.196 -443.452 806.036 -445.551 807.493C-447.619 808.94 -449.129 809.438 -448.778 808.794Z" fill="url(#paint0_linear_351_920)"/>
</g>
</g>
<defs>
<linearGradient id="paint0_linear_351_920" x1="1271.61" y1="209.177" x2="298.067" y2="921.12" gradientUnits="userSpaceOnUse">
<stop stop-color="#07EDD2"/>
<stop offset="1" stop-color="#9C63F7"/>
</linearGradient>
</defs>
</svg>
