<svg width="1280" height="840" viewBox="0 0 1280 840" fill="none" xmlns="http://www.w3.org/2000/svg">
<g opacity="0.5806">
<g opacity="0.5806">
<path opacity="0.5806" d="M1476.76 6.62803C1475.91 5.88375 1476.62 5.25729 1478.31 5.14175C1480.04 5.01674 1482.13 5.44468 1482.97 6.20974C1483.79 6.97953 1483.05 7.7902 1481.34 7.89443C1479.66 8.00524 1477.59 7.37704 1476.76 6.62803ZM1453.3 10.3028C1452.43 9.58402 1453.07 8.81779 1454.78 8.45392C1456.49 8.1061 1458.61 8.30183 1459.48 9.0206C1460.34 9.72806 1459.63 10.7039 1457.94 11.047C1456.21 11.4156 1454.16 11.0102 1453.3 10.3028ZM1429.9 16.9968C1428.98 16.2554 1429.59 15.308 1431.29 14.7534C1433 14.1988 1435.14 14.2472 1436.05 14.9565C1436.94 15.6705 1436.27 16.8276 1434.56 17.3822C1432.89 17.9642 1430.81 17.7221 1429.9 16.9968ZM1406.61 26.2891C1405.66 25.4882 1406.23 24.3435 1407.94 23.6143C1409.64 22.885 1411.8 22.8229 1412.75 23.6077C1413.67 24.3652 1413.03 25.7035 1411.36 26.4601C1409.66 27.2054 1407.56 27.0578 1406.61 26.2891ZM1383.33 37.7784C1382.34 36.886 1382.88 35.5392 1384.58 34.6721C1386.28 33.805 1388.48 33.6966 1389.46 34.5569C1390.43 35.4059 1389.84 36.9416 1388.15 37.8408C1386.45 38.7607 1384.31 38.6595 1383.33 37.7784ZM1360.1 51.0851C1359.07 50.0804 1359.57 48.5363 1361.27 47.5474C1362.95 46.5633 1365.2 46.4568 1366.22 47.4294C1367.22 48.3907 1366.64 50.1331 1364.97 51.1493C1363.28 52.1703 1361.11 52.0785 1360.1 51.0851ZM1336.83 65.8147C1335.78 64.6609 1336.25 62.9516 1337.95 61.8569C1339.65 60.7783 1341.92 60.7039 1342.96 61.8257C1344 62.9154 1343.45 64.8391 1341.75 65.9497C1340.06 67.0765 1337.86 66.9413 1336.83 65.8147ZM1313.53 81.5489C1312.44 80.2666 1312.9 78.3667 1314.61 77.2192C1316.28 76.0811 1318.58 76.0822 1319.65 77.3531C1320.71 78.592 1320.19 80.6648 1318.52 81.8397C1316.82 83.0032 1314.6 82.8198 1313.53 81.5489ZM1290.12 97.9252C1289.01 96.4891 1289.46 94.456 1291.17 93.2717C1292.88 92.0873 1295.19 92.1733 1296.3 93.5727C1297.39 94.9446 1296.87 97.1553 1295.17 98.3877C1293.45 99.5928 1291.21 99.3293 1290.12 97.9252ZM1266.63 114.5C1265.51 112.947 1265.96 110.808 1267.68 109.603C1269.37 108.423 1271.69 108.61 1272.81 110.147C1273.92 111.652 1273.4 113.969 1271.71 115.18C1270 116.402 1267.74 116.021 1266.63 114.5ZM1242.99 130.926C1241.87 129.267 1242.33 127.055 1244.05 125.887C1245.78 124.714 1248.11 125.002 1249.23 126.645C1250.33 128.255 1249.8 130.645 1248.07 131.835C1246.35 133.024 1244.08 132.558 1242.99 130.926ZM1219.16 146.78C1218.06 145.063 1218.57 142.821 1220.28 141.705C1222.03 140.58 1224.36 140.974 1225.45 142.675C1226.54 144.359 1225.99 146.754 1224.25 147.895C1222.53 149.031 1220.26 148.48 1219.16 146.78ZM1195.17 161.654C1194.11 159.907 1194.62 157.717 1196.37 156.677C1198.12 155.621 1200.44 156.105 1201.52 157.863C1202.58 159.573 1201.99 161.945 1200.22 162.99C1198.47 164.029 1196.22 163.384 1195.17 161.654ZM1170.95 175.18C1169.94 173.472 1170.52 171.385 1172.27 170.43C1174.02 169.496 1176.32 170.058 1177.33 171.782C1178.34 173.49 1177.7 175.739 1175.94 176.657C1174.18 177.596 1171.96 176.872 1170.95 175.18ZM1146.45 186.96C1145.52 185.334 1146.14 183.424 1147.93 182.618C1149.71 181.796 1151.96 182.404 1152.92 184.058C1153.87 185.679 1153.16 187.756 1151.35 188.55C1149.55 189.324 1147.37 188.554 1146.45 186.96ZM1121.46 197.156C1120.61 195.681 1121.38 193.866 1123.21 193.099C1125.06 192.311 1127.28 192.876 1128.17 194.394C1129.02 195.885 1128.21 197.747 1126.34 198.492C1124.51 199.222 1122.31 198.599 1121.46 197.156ZM1095.43 209.423C1094.63 208.072 1095.51 206.207 1097.42 205.226C1099.32 204.244 1101.56 204.561 1102.38 205.923C1103.18 207.275 1102.25 209.206 1100.32 210.16C1098.39 211.115 1096.22 210.758 1095.43 209.423ZM1068.45 224.182C1067.71 222.901 1068.67 220.96 1070.65 219.817C1072.64 218.674 1074.88 218.779 1075.64 220.092C1076.38 221.373 1075.35 223.369 1073.36 224.496C1071.37 225.607 1069.19 225.446 1068.45 224.182ZM1040.73 241.011C1040.03 239.753 1041.06 237.703 1043.1 236.44C1045.13 235.161 1047.39 235.14 1048.09 236.414C1048.79 237.656 1047.7 239.74 1045.65 241.024C1043.61 242.271 1041.41 242.258 1040.73 241.011ZM1012.3 259.53C1011.62 258.247 1012.72 256.109 1014.81 254.727C1016.89 253.344 1019.15 253.237 1019.84 254.516C1020.5 255.767 1019.35 257.956 1017.27 259.339C1015.16 260.726 1012.97 260.798 1012.3 259.53ZM983.392 279.325C982.739 278 983.887 275.743 986.003 274.281C988.119 272.82 990.4 272.688 991.047 273.997C991.69 275.29 990.483 277.582 988.372 279.06C986.261 280.537 984.039 280.634 983.392 279.325ZM954.071 300.026C953.432 298.628 954.604 296.276 956.738 294.757C958.871 293.238 961.157 293.122 961.813 294.516C962.442 295.883 961.21 298.269 959.061 299.793C956.932 301.328 954.705 301.409 954.071 300.026ZM924.527 321.212C923.891 319.708 925.072 317.266 927.238 315.738C929.372 314.219 931.688 314.146 932.33 315.614C932.967 317.066 931.678 319.556 929.554 321.107C927.393 322.652 925.153 322.684 924.527 321.212ZM894.841 342.509C894.193 340.904 895.404 338.384 897.564 336.84C899.73 335.311 902.022 335.333 902.66 336.907C903.294 338.464 902.04 341.014 899.868 342.579C897.696 344.144 895.464 344.088 894.841 342.509ZM865.183 363.485C864.538 361.774 865.725 359.173 867.884 357.682C870.011 356.2 872.304 356.343 872.959 358.034C873.589 359.697 872.338 362.316 870.221 363.83C868.055 365.359 865.822 365.18 865.183 363.485ZM835.643 383.797C834.981 381.969 836.159 379.337 838.3 377.903C840.441 376.469 842.739 376.75 843.391 378.546C844.034 380.311 842.797 382.978 840.665 384.444C838.533 385.91 836.295 385.593 835.643 383.797ZM806.433 402.983C805.759 401.054 806.916 398.41 809.001 397.08C811.129 395.72 813.41 396.181 814.074 398.078C814.734 399.959 813.534 402.633 811.411 404.009C809.315 405.36 807.081 404.885 806.433 402.983ZM777.581 420.72C776.9 418.706 778.008 416.077 780.085 414.836C782.165 413.612 784.437 414.215 785.113 416.214C785.78 418.18 784.629 420.839 782.536 422.085C780.465 423.341 778.253 422.702 777.581 420.72ZM749.315 436.54C748.61 434.446 749.685 431.879 751.718 430.791C753.741 429.723 755.979 430.511 756.663 432.594C757.354 434.64 756.232 437.221 754.219 438.321C752.185 439.409 750.011 438.603 749.315 436.54ZM721.706 450.091C721.007 447.96 722.004 445.485 724 444.565C725.997 443.645 728.207 444.633 728.905 446.764C729.594 448.863 728.544 451.336 726.553 452.272C724.556 453.193 722.415 452.202 721.706 450.091ZM694.914 460.976C694.195 458.834 695.166 456.506 697.07 455.805C698.989 455.1 701.162 456.255 701.881 458.398C702.591 460.509 701.588 462.845 699.652 463.556C697.764 464.252 695.624 463.087 694.914 460.976ZM668.847 468.578C668.127 466.435 669.043 464.334 670.944 463.86C672.85 463.403 674.978 464.763 675.713 466.901C676.423 469.012 675.46 471.128 673.57 471.58C671.669 472.054 669.556 470.688 668.847 468.578ZM642.642 473.289C641.922 471.147 642.875 469.174 644.769 468.912C646.674 468.629 648.834 470.155 649.553 472.297C650.263 474.408 649.305 476.365 647.4 476.648C645.506 476.91 643.367 475.395 642.642 473.289ZM616.311 475.683C615.592 473.54 616.551 471.705 618.471 471.592C620.391 471.479 622.552 473.127 623.266 475.254C623.976 477.364 622.996 479.188 621.076 479.301C619.14 479.419 617.016 477.778 616.311 475.683ZM589.805 476.123C589.107 473.991 590.078 472.257 592 472.266C593.921 472.275 596.078 474.029 596.781 476.176C597.47 478.275 596.478 479.998 594.556 479.989C592.63 479.964 590.494 478.222 589.805 476.123ZM563.217 474.982C562.535 472.846 563.534 471.208 565.468 471.318C567.407 471.444 569.534 473.276 570.233 475.407C570.906 477.511 569.885 479.138 567.947 479.012C566.013 478.902 563.906 477.081 563.217 474.982ZM536.529 472.615C535.867 470.49 536.902 468.911 538.843 469.106C540.785 469.301 542.899 471.207 543.561 473.331C544.213 475.424 543.174 476.987 541.232 476.792C539.291 476.597 537.181 474.707 536.529 472.615ZM509.797 469.388C509.172 467.27 510.216 465.724 512.176 465.983C514.1 466.235 516.208 468.178 516.853 470.307C517.489 472.404 516.394 473.896 514.476 473.66C512.515 473.401 510.433 471.486 509.797 469.388ZM483.008 465.673C482.404 463.566 483.489 462.042 485.438 462.322C487.387 462.602 489.451 464.574 490.055 466.681C490.655 468.772 489.571 470.243 487.606 469.968C485.673 469.683 483.602 467.748 483.008 465.673ZM456.245 461.81C455.673 459.694 456.779 458.181 458.728 458.461C460.64 458.734 462.721 460.702 463.293 462.819C463.855 464.903 462.718 466.372 460.785 466.087C458.841 465.824 456.807 463.894 456.245 461.81ZM429.463 458.18C428.928 456.07 430.066 454.548 432.006 454.796C433.945 455.043 435.968 456.993 436.503 459.103C437.045 461.176 435.913 462.661 433.957 462.418C432.013 462.154 429.988 460.257 429.463 458.18ZM402.755 455.155C402.241 453.057 403.397 451.477 405.343 451.688C407.253 451.893 409.241 453.783 409.755 455.882C410.26 457.948 409.105 459.475 407.196 459.27C405.234 459.064 403.244 457.226 402.755 455.155ZM376.067 453.084C375.59 450.993 376.764 449.355 378.698 449.465C380.636 449.591 382.589 451.422 383.083 453.51C383.571 455.581 382.399 457.165 380.461 457.039C378.522 456.913 376.551 455.14 376.067 453.084ZM349.519 452.316C349.058 450.219 350.24 448.492 352.166 448.517C354.072 448.531 356.033 450.272 356.495 452.369C356.963 454.429 355.761 456.091 353.856 456.077C351.93 456.053 349.971 454.38 349.519 452.316ZM323.05 453.233C322.593 451.152 323.795 449.315 325.711 449.186C327.631 449.073 329.544 450.707 330.005 452.804C330.457 454.868 329.284 456.627 327.347 456.745C325.432 456.874 323.502 455.297 323.05 453.233ZM296.752 456.21C296.311 454.125 297.492 452.154 299.402 451.888C301.291 451.61 303.186 453.126 303.626 455.212C304.058 457.265 302.906 459.157 301.017 459.435C299.123 459.697 297.199 458.259 296.752 456.21ZM270.603 461.585C270.162 459.5 271.332 457.376 273.238 456.918C275.144 456.461 277.029 457.824 277.469 459.909C277.921 461.973 276.76 464.008 274.854 464.466C272.948 464.923 271.05 463.634 270.603 461.585ZM246.057 468.965C245.665 466.865 246.715 464.689 248.385 464.144C250.088 463.59 251.807 464.862 252.215 466.957C252.63 469.015 251.571 471.159 249.852 471.718C248.149 472.272 246.44 471.032 246.057 468.965ZM223.558 477.014C223.239 474.928 224.243 472.713 225.83 472.122C227.413 471.516 228.979 472.746 229.319 474.844C229.649 476.909 228.631 479.076 227.016 479.692C225.429 480.282 223.888 479.08 223.558 477.014ZM202.547 485.618C202.286 483.55 203.274 481.34 204.742 480.697C206.225 480.05 207.672 481.229 207.954 483.308C208.226 485.356 207.213 487.539 205.709 488.174C204.236 488.8 202.815 487.65 202.547 485.618ZM182.808 494.685C182.593 492.655 183.532 490.459 184.938 489.783C186.343 489.107 187.681 490.212 187.9 492.258C188.111 494.272 187.113 496.45 185.708 497.126C184.298 497.786 183.008 496.666 182.808 494.685ZM164.066 504.12C163.902 502.145 164.814 499.975 166.157 499.264C167.5 498.554 168.755 499.615 168.919 501.59C169.078 503.549 168.097 505.722 166.749 506.416C165.401 507.11 164.22 506.063 164.066 504.12ZM146.087 513.836C145.979 511.932 146.864 509.787 148.154 509.075C149.44 508.347 150.638 509.336 150.751 511.257C150.876 513.156 149.885 515.297 148.579 516.014C147.305 516.721 146.207 515.719 146.087 513.836ZM128.646 523.777C128.573 521.932 129.461 519.856 130.725 519.117C131.974 518.382 133.117 519.301 133.211 521.157C133.3 522.997 132.295 525.09 131.026 525.813C129.752 526.521 128.726 525.585 128.646 523.777ZM111.509 533.803C111.476 532.033 112.378 530.006 113.605 529.26C114.849 528.509 115.953 529.352 115.996 531.154C116.045 532.918 115.01 534.968 113.761 535.703C112.524 536.416 111.549 535.535 111.509 533.803ZM94.4136 543.851C94.4038 542.162 95.3407 540.194 96.5845 539.443C97.8283 538.693 98.9176 539.488 98.9321 541.193C98.9419 542.882 97.8765 544.888 96.6233 545.607C95.3587 546.346 94.4234 545.54 94.4136 543.851ZM77.1613 553.841C77.1865 552.212 78.1631 550.319 79.4277 549.58C80.681 548.861 81.7466 549.576 81.7261 551.222C81.7009 552.851 80.5798 554.787 79.3218 555.489C78.0364 556.217 77.1314 555.455 77.1613 553.841ZM59.4642 563.684C59.5451 562.125 60.5568 560.291 61.8469 559.579C63.153 558.863 64.2251 559.541 64.1649 561.111C64.1001 562.665 62.9119 564.55 61.601 565.251C60.3109 565.963 59.3945 565.222 59.4642 563.684ZM41.1512 573.271C41.2671 571.772 42.3506 570.005 43.7144 569.306C45.0461 568.616 46.1569 569.248 46.0665 570.775C45.9666 572.27 44.6585 574.103 43.3221 574.776C41.9375 575.464 41.0306 574.755 41.1512 573.271ZM21.9232 582.536C22.0854 581.075 23.2775 579.38 24.6876 578.72C26.1137 578.055 27.2358 578.666 27.0783 580.143C26.9322 581.599 25.5314 583.355 24.1053 584.02C22.6745 584.669 21.7515 583.964 21.9232 582.536ZM1.57224 591.364C1.79679 589.937 3.09283 588.299 4.59731 587.664C6.08575 587.033 7.24469 587.65 7.04092 589.088C6.83241 590.51 5.31172 592.215 3.8025 592.834C2.28197 593.475 1.359 592.77 1.57224 591.364ZM-20.1434 599.705C-19.8451 598.292 -18.4245 596.722 -16.8208 596.126C-15.2172 595.531 -14.0053 596.151 -14.2828 597.576C-14.5536 598.964 -16.2216 600.642 -17.8621 601.23C-19.4865 601.814 -20.4302 601.098 -20.1434 599.705ZM-43.4522 607.435C-43.0851 606.019 -41.4963 604.486 -39.7727 603.943C-38.0652 603.404 -36.8231 604.067 -37.1742 605.479C-37.5139 606.87 -39.35 608.51 -41.0897 609.058C-42.834 609.59 -43.8081 608.831 -43.4522 607.435ZM-71.4947 614.433C-71.1757 613.031 -69.2347 611.569 -67.0323 611.111C-64.83 610.653 -63.2292 611.35 -63.5755 612.777C-63.9153 614.168 -66.062 615.761 -68.2323 616.209C-70.4346 616.667 -71.8184 615.819 -71.4947 614.433ZM-103.952 619.593C-103.681 618.205 -101.537 616.84 -99.101 616.523C-96.6332 616.196 -94.7717 617.008 -95.0586 618.4C-95.3341 619.773 -97.6565 621.242 -100.108 621.564C-102.523 621.893 -104.211 620.96 -103.952 619.593ZM-139.656 623.147C-139.417 621.768 -137.155 620.508 -134.463 620.29C-131.771 620.072 -129.712 620.964 -129.966 622.347C-130.21 623.71 -132.666 625.08 -135.342 625.294C-138.017 625.507 -139.899 624.51 -139.656 623.147ZM-178.086 625.499C-177.864 624.125 -175.456 622.944 -172.587 622.796C-169.734 622.652 -167.517 623.603 -167.74 624.977C-167.967 626.334 -170.553 627.62 -173.406 627.764C-176.275 627.913 -178.314 626.857 -178.086 625.499ZM-218.516 627.046C-218.289 625.688 -215.766 624.542 -212.777 624.446C-209.788 624.349 -207.472 625.34 -207.716 626.703C-207.948 628.045 -210.622 629.27 -213.611 629.366C-216.584 629.458 -218.732 628.383 -218.516 627.046ZM-260.343 628.114C-260.1 626.752 -257.535 625.629 -254.473 625.546C-251.405 625.478 -249.032 626.487 -249.275 627.85C-249.507 629.192 -252.276 630.392 -255.343 630.46C-258.406 630.543 -260.575 629.456 -260.343 628.114ZM-302.984 629.144C-302.724 627.777 -300.059 626.642 -296.959 626.565C-293.844 626.483 -291.466 627.508 -291.73 628.86C-291.978 630.206 -294.783 631.4 -297.883 631.477C-300.998 631.559 -303.232 630.491 -302.984 629.144ZM-345.762 630.476C-345.487 629.104 -342.819 627.916 -339.709 627.818C-336.602 627.705 -334.25 628.703 -334.509 630.07C-334.774 631.421 -337.569 632.647 -340.675 632.761C-343.798 632.879 -346.027 631.827 -345.762 630.476ZM-387.999 632.521C-387.712 631.128 -385.08 629.88 -382.025 629.712C-379.006 629.537 -376.679 630.507 -376.95 631.896C-377.231 633.252 -380.023 634.546 -383.042 634.721C-386.097 634.89 -388.279 633.877 -387.999 632.521ZM-429.156 635.624C-428.874 634.216 -426.311 632.849 -423.365 632.608C-420.407 632.346 -418.195 633.281 -418.477 634.69C-418.748 636.078 -421.416 637.441 -424.369 637.719C-427.311 637.976 -429.422 637.029 -429.156 635.624ZM-468.501 640.2C-468.249 638.748 -465.809 637.26 -462.99 636.883C-460.22 636.519 -458.116 637.381 -458.368 638.833C-458.63 640.254 -461.154 641.748 -463.92 642.128C-466.739 642.506 -468.757 641.636 -468.501 640.2ZM-505.506 646.614C-505.29 645.103 -503.035 643.461 -500.413 642.949C-497.79 642.437 -495.812 643.232 -496.033 644.727C-496.26 646.207 -498.604 647.84 -501.201 648.38C-503.818 648.907 -505.712 648.105 -505.506 646.614ZM-539.434 655.244C-539.289 653.666 -537.271 651.815 -534.875 651.126C-532.512 650.446 -530.658 651.172 -530.813 652.718C-530.972 654.248 -533.096 656.095 -535.439 656.786C-537.809 657.503 -539.568 656.801 -539.434 655.244ZM-569.732 666.482C-569.684 664.811 -567.976 662.738 -565.865 661.853C-563.753 660.969 -562.082 661.609 -562.155 663.253C-562.238 664.865 -564.004 666.921 -566.073 667.828C-568.143 668.735 -569.773 668.117 -569.732 666.482ZM-595.702 680.683C-595.789 678.912 -594.441 676.561 -592.656 675.459C-590.886 674.362 -589.381 674.912 -589.341 676.644C-589.289 678.356 -590.678 680.684 -592.39 681.8C-594.145 682.945 -595.605 682.434 -595.702 680.683Z" fill="url(#paint0_linear_351_843)"/>
</g>
</g>
<defs>
<linearGradient id="paint0_linear_351_843" x1="1246.17" y1="207.627" x2="237.323" y2="956.378" gradientUnits="userSpaceOnUse">
<stop stop-color="#07EDD2"/>
<stop offset="1" stop-color="#9C63F7"/>
</linearGradient>
</defs>
</svg>
