<svg width="1280" height="685" viewBox="0 0 1280 685" fill="none" xmlns="http://www.w3.org/2000/svg">
<g opacity="0.4516">
<g opacity="0.4516">
<path opacity="0.4516" d="M1410.55 23.3299C1409.66 23.3674 1410.23 23.181 1411.79 22.9655C1413.39 22.7565 1415.35 22.6134 1416.23 22.5806C1417.13 22.5431 1416.61 22.6257 1415.03 22.8299C1413.47 23.0293 1411.45 23.2924 1410.55 23.3299ZM1384.79 26.5325C1383.87 26.5794 1384.43 26.4138 1386 26.2304C1387.56 26.047 1389.6 25.9009 1390.51 25.8587C1391.44 25.8117 1390.91 25.8621 1389.35 26.0616C1387.77 26.229 1385.72 26.4855 1384.79 26.5325ZM1358.87 29.5387C1357.91 29.5423 1358.45 29.3493 1360.02 29.1819C1361.61 29.0098 1363.66 28.9119 1364.61 28.8923C1365.56 28.8727 1365.07 28.9666 1363.5 29.15C1361.93 29.3174 1359.83 29.5352 1358.87 29.5387ZM1332.93 32.5337C1331.93 32.4618 1332.41 32.1979 1334.01 32.0211C1335.6 31.849 1337.68 31.8106 1338.67 31.8504C1339.67 31.9063 1339.21 32.0596 1337.62 32.2478C1336.03 32.4567 1333.92 32.6056 1332.93 32.5337ZM1307.01 35.6938C1305.98 35.5096 1306.45 35.1447 1308.02 34.9773C1309.61 34.7892 1311.71 34.831 1312.74 34.9832C1313.76 35.1354 1313.33 35.401 1311.77 35.6005C1310.19 35.8047 1308.05 35.8781 1307.01 35.6938ZM1281.25 39.1928C1280.19 38.8802 1280.58 38.3964 1282.18 38.1875C1283.74 37.988 1285.87 38.094 1286.91 38.3793C1287.97 38.6599 1287.6 39.0491 1286.04 39.2807C1284.46 39.5217 1282.32 39.5054 1281.25 39.1928ZM1255.68 43.1958C1254.58 42.734 1254.97 42.1125 1256.52 41.8649C1258.07 41.6172 1260.23 41.8195 1261.31 42.2492C1262.4 42.6789 1262.05 43.2013 1260.51 43.481C1258.95 43.7655 1256.77 43.6576 1255.68 43.1958ZM1230.43 47.9038C1229.31 47.2929 1229.64 46.5156 1231.19 46.2312C1232.73 45.9354 1234.86 46.2321 1235.97 46.811C1237.1 47.3851 1236.79 48.0679 1235.27 48.3958C1233.72 48.6963 1231.55 48.4987 1230.43 47.9038ZM1205.56 53.4613C1204.41 52.7172 1204.73 51.77 1206.23 51.4148C1207.73 51.0757 1209.89 51.4158 1211.03 52.1438C1212.17 52.8718 1211.89 53.7199 1210.38 54.0959C1208.89 54.4832 1206.71 54.2214 1205.56 53.4613ZM1181.19 60.074C1180.04 59.1921 1180.29 58.0891 1181.78 57.665C1183.25 57.2504 1185.36 57.6736 1186.52 58.5186C1187.68 59.3798 1187.45 60.3882 1185.98 60.8397C1184.49 61.2799 1182.34 60.9559 1181.19 60.074ZM1157.36 67.8862C1156.21 66.8825 1156.45 65.6257 1157.89 65.1147C1159.33 64.6198 1161.43 65.0639 1162.59 66.0307C1163.75 67.0136 1163.54 68.1921 1162.1 68.703C1160.66 69.2508 1158.51 68.8899 1157.36 67.8862ZM1134.21 77.1038C1133.07 76.0104 1133.25 74.6139 1134.65 74.0274C1136.06 73.4362 1138.11 73.8784 1139.26 74.935C1140.41 76.0076 1140.24 77.3305 1138.84 77.9377C1137.43 78.561 1135.37 78.1925 1134.21 77.1038ZM1111.79 87.9032C1110.67 86.7683 1110.86 85.2291 1112.21 84.5351C1113.56 83.841 1115.56 84.2446 1116.69 85.3587C1117.83 86.489 1117.67 87.9496 1116.32 88.6437C1114.96 89.3585 1112.91 89.0382 1111.79 87.9032ZM1090.19 100.431C1089.11 99.2863 1089.29 97.6622 1090.6 96.8398C1091.89 96.0221 1093.81 96.3643 1094.9 97.5087C1095.98 98.6531 1095.87 100.205 1094.57 101.007C1093.25 101.813 1091.28 101.575 1090.19 100.431ZM1069.55 114.876C1068.52 113.782 1068.69 112.077 1069.92 111.136C1071.15 110.199 1073 110.386 1074.04 111.492C1075.08 112.597 1074.94 114.228 1073.71 115.148C1072.45 116.078 1070.57 115.97 1069.55 114.876ZM1049.5 131.428C1048.55 130.437 1048.8 128.741 1050.03 127.678C1051.29 126.61 1053.05 126.613 1054.02 127.637C1055 128.656 1054.82 130.296 1053.54 131.352C1052.31 132.379 1050.46 132.42 1049.5 131.428ZM1027.97 148.193C1027.07 147.272 1027.45 145.676 1028.81 144.649C1030.15 143.642 1031.97 143.595 1032.89 144.527C1033.79 145.464 1033.47 147.041 1032.11 148.036C1030.72 149.057 1028.87 149.114 1027.97 148.193ZM1004.72 164.416C1003.88 163.513 1004.39 161.985 1005.84 160.998C1007.31 160.007 1009.15 159.971 1010.01 160.869C1010.87 161.767 1010.44 163.271 1008.95 164.267C1007.49 165.238 1005.58 165.314 1004.72 164.416ZM980.047 180.049C979.242 179.153 979.829 177.654 981.393 176.687C982.929 175.746 984.825 175.727 985.63 176.624C986.451 177.515 985.885 179.025 984.348 179.967C982.785 180.934 980.857 180.962 980.047 180.049ZM954.073 195.124C953.306 194.181 954.01 192.665 955.609 191.758C957.212 190.866 959.139 190.891 959.921 191.829C960.703 192.767 960.048 194.269 958.449 195.176C956.818 196.093 954.839 196.066 954.073 195.124ZM927.034 209.605C926.281 208.589 927.038 207.075 928.715 206.196C930.38 205.339 932.335 205.46 933.1 206.456C933.864 207.451 933.128 208.976 931.451 209.855C929.774 210.733 927.782 210.605 927.034 209.605ZM899.117 223.474C898.393 222.379 899.216 220.793 900.928 219.974C902.672 219.146 904.623 219.373 905.358 220.447C906.093 221.52 905.335 223.087 903.595 223.932C901.877 224.788 899.841 224.568 899.117 223.474ZM870.544 236.715C869.823 235.515 870.653 233.892 872.443 233.103C874.202 232.322 876.17 232.666 876.901 233.846C877.633 235.026 876.835 236.639 875.087 237.451C873.285 238.262 871.264 237.916 870.544 236.715ZM841.485 249.316C840.764 247.994 841.664 246.315 843.432 245.567C845.204 244.835 847.237 245.282 847.949 246.572C848.661 247.862 847.818 249.558 846.039 250.327C844.26 251.096 842.19 250.643 841.485 249.316ZM812.184 261.272C811.478 259.824 812.343 258.086 814.157 257.376C815.939 256.676 817.946 257.27 818.659 258.682C819.372 260.094 818.527 261.843 816.755 262.575C814.934 263.322 812.89 262.721 812.184 261.272ZM782.779 272.579C782.071 271.009 782.97 269.209 784.746 268.545C786.537 267.877 788.566 268.605 789.28 270.138C789.994 271.672 789.12 273.5 787.333 274.184C785.547 274.868 783.486 274.15 782.779 272.579ZM753.551 283.189C752.831 281.517 753.696 279.657 755.497 279.021C757.27 278.411 759.263 279.254 759.978 280.909C760.693 282.565 759.87 284.447 758.09 285.094C756.273 285.735 754.255 284.865 753.551 283.189ZM724.612 293.12C723.896 291.342 724.742 289.418 726.492 288.85C728.243 288.281 730.249 289.224 730.96 290.986C731.671 292.747 730.847 294.682 729.089 295.288C727.364 295.884 725.328 294.897 724.612 293.12ZM696.249 302.34C695.525 300.478 696.313 298.536 698.036 297.993C699.776 297.445 701.734 298.524 702.453 300.371C703.172 302.217 702.394 304.191 700.659 304.755C698.94 305.314 696.972 304.202 696.249 302.34ZM668.598 310.845C667.872 308.913 668.65 306.94 670.319 306.447C671.988 305.955 673.933 307.108 674.654 309.023C675.376 310.939 674.607 312.945 672.959 313.448C671.279 313.961 669.325 312.776 668.598 310.845ZM641.884 318.619C641.164 316.651 641.873 314.68 643.487 314.239C645.113 313.777 646.992 315.002 647.712 316.97C648.432 318.938 647.748 320.937 646.122 321.399C644.513 321.856 642.604 320.587 641.884 318.619ZM616.248 325.675C615.528 323.707 616.203 321.798 617.742 321.397C619.285 321.011 621.137 322.262 621.862 324.246C622.586 326.23 621.925 328.187 620.371 328.593C618.843 328.974 616.968 327.643 616.248 325.675ZM591.141 330.621C590.437 328.648 591.082 326.871 592.594 326.616C594.143 326.369 595.931 327.76 596.651 329.728C597.371 331.696 596.73 333.542 595.181 333.79C593.652 334.049 591.845 332.594 591.141 330.621ZM566.351 333.328C565.668 331.366 566.304 329.679 567.822 329.562C569.324 329.451 571.104 330.932 571.808 332.904C572.512 334.877 571.853 336.606 570.356 336.734C568.822 336.855 567.039 335.305 566.351 333.328ZM541.848 334.171C541.181 332.205 541.861 330.609 543.339 330.591C544.853 330.581 546.572 332.15 547.255 334.111C547.922 336.077 547.293 337.728 545.778 337.739C544.285 337.761 542.515 336.137 541.848 334.171ZM517.61 333.488C516.98 331.528 517.631 330.011 519.132 330.074C520.602 330.146 522.323 331.784 522.974 333.755C523.621 335.71 522.935 337.29 521.466 337.217C519.96 337.138 518.241 335.448 517.61 333.488ZM493.525 331.609C492.916 329.661 493.634 328.193 495.086 328.323C496.574 328.46 498.24 330.148 498.85 332.097C499.464 334.061 498.792 335.567 497.304 335.431C495.832 335.289 494.135 333.557 493.525 331.609ZM469.597 328.899C469.024 326.957 469.736 325.526 471.201 325.704C472.651 325.887 474.29 327.601 474.863 329.543C475.44 331.501 474.738 332.964 473.289 332.781C471.807 332.607 470.17 330.84 469.597 328.899ZM445.717 325.703C445.181 323.768 445.95 322.355 447.388 322.559C448.843 322.758 450.455 324.497 450.99 326.433C451.531 328.384 450.787 329.824 449.328 329.609C447.874 329.41 446.253 327.638 445.717 325.703ZM421.884 322.371C421.401 320.438 422.154 319.03 423.629 319.24C425.083 319.439 426.675 321.168 427.162 323.117C427.661 325.046 426.881 326.479 425.427 326.28C423.952 326.07 422.383 324.3 421.884 322.371ZM398.007 319.245C397.561 317.318 398.362 315.896 399.828 316.074C401.277 316.257 402.847 317.974 403.31 319.896C403.772 321.818 402.959 323.261 401.494 323.083C400.033 322.921 398.458 321.188 398.007 319.245ZM374.057 316.698C373.647 314.778 374.476 313.33 375.948 313.471C377.399 313.601 378.924 315.28 379.349 317.195C379.774 319.111 378.955 320.591 377.483 320.449C375.995 320.313 374.466 318.618 374.057 316.698ZM349.937 315.056C349.548 313.147 350.448 311.643 351.901 311.72C353.37 311.793 354.896 313.419 355.285 315.327C355.678 317.252 354.795 318.751 353.31 318.683C351.84 318.611 350.326 316.965 349.937 315.056ZM325.647 314.668C325.295 312.765 326.192 311.193 327.69 311.187C329.167 311.17 330.691 312.726 331.042 314.628C331.399 316.547 330.486 318.124 328.988 318.13C327.489 318.136 326.003 316.586 325.647 314.668ZM301.099 315.89C300.763 313.983 301.721 312.323 303.223 312.211C304.725 312.099 306.22 313.56 306.572 315.462C306.907 317.369 305.949 319.03 304.447 319.141C302.929 319.257 301.418 317.802 301.099 315.89ZM276.255 319.067C275.94 317.171 276.902 315.405 278.419 315.166C279.968 314.919 281.45 316.278 281.765 318.174C282.085 320.085 281.119 321.836 279.569 322.083C278.041 322.342 276.575 320.978 276.255 319.067ZM251.033 324.569C250.735 322.669 251.732 320.788 253.275 320.402C254.819 320.017 256.332 321.245 256.647 323.14C256.946 325.041 255.933 326.927 254.389 327.312C252.846 327.698 251.332 326.47 251.033 324.569ZM225.73 332.87C225.399 330.979 226.359 328.969 227.882 328.398C229.422 327.822 230.934 328.928 231.249 330.824C231.564 332.719 230.604 334.729 229.065 335.305C227.569 335.851 226.061 334.761 225.73 332.87ZM201.398 343.222C201.019 341.345 201.907 339.269 203.365 338.595C204.823 337.92 206.334 338.905 206.713 340.782C207.076 342.663 206.173 344.744 204.73 345.413C203.272 346.087 201.777 345.098 201.398 343.222ZM177.962 355.192C177.528 353.367 178.296 351.239 179.71 350.473C181.156 349.698 182.639 350.586 183.061 352.433C183.484 354.279 182.695 356.395 181.265 357.166C179.867 357.927 178.396 357.018 177.962 355.192ZM155.241 368.522C154.752 366.748 155.458 364.586 156.832 363.745C158.206 362.903 159.725 363.676 160.202 365.472C160.679 367.267 159.969 369.413 158.611 370.249C157.253 371.086 155.734 370.313 155.241 368.522ZM133.122 382.948C132.563 381.229 133.199 379.07 134.538 378.17C135.877 377.269 137.437 377.943 137.985 379.682C138.533 381.422 137.891 383.565 136.568 384.461C135.241 385.341 133.681 384.667 133.122 382.948ZM111.488 398.19C110.847 396.548 111.419 394.408 112.723 393.448C114.048 392.499 115.632 393.078 116.246 394.746C116.86 396.414 116.32 398.544 115.011 399.488C113.718 400.428 112.134 399.848 111.488 398.19ZM90.156 414.041C89.4486 412.47 89.9247 410.359 91.224 409.382C92.5507 408.381 94.1524 408.902 94.8485 410.494C95.5446 412.085 95.0959 414.171 93.7965 415.147C92.5293 416.114 90.8842 415.623 90.156 414.041ZM69.0355 430.195C68.246 428.701 68.64 426.666 69.962 425.648C71.2566 424.656 72.9356 425.085 73.7138 426.6C74.492 428.115 74.0819 430.155 72.8194 431.137C71.5088 432.135 69.825 431.689 69.0355 430.195ZM47.9227 446.435C47.0511 445.017 47.4064 443.029 48.7011 442.036C49.9957 441.044 51.7455 441.417 52.601 442.84C53.4613 444.278 53.1219 446.262 51.8386 447.233C50.5601 448.221 48.7943 447.852 47.9227 446.435ZM26.7322 462.47C25.7785 461.13 26.0726 459.229 27.404 458.243C28.7034 457.267 30.524 457.584 31.4503 458.951C32.3766 460.317 32.0986 462.213 30.8105 463.169C29.4904 464.134 27.6698 463.816 26.7322 462.47ZM5.25541 478.067C4.23569 476.798 4.50054 474.976 5.80935 474.032C7.13421 473.083 9.01896 473.381 10.0274 474.671C11.0358 475.961 10.803 477.774 9.50548 478.698C8.20799 479.621 6.2959 479.348 5.25541 478.067ZM-16.5675 492.964C-17.658 491.75 -17.445 490.048 -16.0899 489.142C-14.7461 488.258 -12.7972 488.538 -11.7227 489.756C-10.6483 490.974 -10.8084 492.678 -12.1362 493.558C-13.48 494.443 -15.461 494.172 -16.5675 492.964ZM-38.9501 506.909C-40.1114 505.752 -39.9116 504.123 -38.5167 503.293C-37.138 502.467 -35.0833 502.751 -33.9381 503.913C-32.7929 505.076 -32.9446 506.69 -34.3234 507.515C-35.6861 508.336 -37.7728 508.062 -38.9501 506.909ZM-61.9681 519.646C-63.1841 518.54 -63.0201 517.026 -61.5695 516.267C-60.151 515.517 -58.034 515.835 -56.8293 516.962C-55.6294 518.073 -55.7453 519.573 -57.1478 520.318C-58.587 521.056 -60.7361 520.748 -61.9681 519.646ZM-85.8238 530.904C-87.0992 529.832 -86.8907 528.41 -85.4231 527.768C-83.9394 527.121 -81.7231 527.479 -80.4638 528.555C-79.2044 529.632 -79.344 531.051 -80.8116 531.693C-82.2793 532.335 -84.5484 531.975 -85.8238 530.904ZM-110.62 540.45C-111.928 539.388 -111.739 538.077 -110.19 537.533C-108.657 536.993 -106.38 537.438 -105.073 538.5C-103.765 539.562 -103.89 540.855 -105.423 541.394C-106.956 541.934 -109.297 541.508 -110.62 540.45ZM-137.159 547.284C-138.445 546.233 -138.092 545.065 -136.422 544.694C-134.748 544.34 -132.36 544.926 -131.073 545.977C-129.765 547.039 -130.054 548.188 -131.729 548.543C-133.404 548.897 -135.872 548.334 -137.159 547.284ZM-165.917 552.033C-167.135 550.979 -166.652 549.895 -164.859 549.645C-163.034 549.386 -160.618 550.069 -159.4 551.123C-158.161 552.188 -158.568 553.232 -160.409 553.496C-162.218 553.75 -164.699 553.087 -165.917 552.033ZM-196.6 555.222C-197.728 554.177 -197.068 553.163 -195.162 553.002C-193.272 552.845 -190.804 553.583 -189.655 554.639C-188.506 555.696 -189.107 556.675 -191.029 556.841C-192.951 557.007 -195.467 556.284 -196.6 555.222ZM-228.795 557.131C-229.822 556.073 -229.037 555.126 -227.055 555.048C-225.04 554.959 -222.622 555.764 -221.579 556.816C-220.536 557.869 -221.257 558.797 -223.303 558.895C-225.307 558.963 -227.768 558.188 -228.795 557.131ZM-262.23 558.027C-263.136 556.968 -262.178 556.075 -260.133 556.03C-258.083 556.001 -255.672 556.843 -254.751 557.897C-253.83 558.95 -254.739 559.829 -256.821 559.868C-258.882 559.917 -261.341 559.09 -262.23 558.027ZM-296.563 558.246C-297.331 557.181 -296.247 556.304 -294.151 556.313C-292.059 556.307 -289.703 557.199 -288.903 558.254C-288.104 559.309 -289.156 560.178 -291.284 560.177C-293.401 560.156 -295.796 559.31 -296.563 558.246ZM-331.426 558.028C-332.072 556.963 -330.882 556.088 -328.733 556.1C-326.616 556.121 -324.345 557.021 -323.662 558.093C-322.98 559.165 -324.179 560.007 -326.328 559.996C-328.514 559.977 -330.776 559.11 -331.426 558.028ZM-366.534 557.691C-367.046 556.603 -365.739 555.712 -363.602 555.744C-361.448 555.772 -359.294 556.689 -358.749 557.767C-358.204 558.845 -359.484 559.71 -361.67 559.692C-363.819 559.681 -366.005 558.773 -366.534 557.691ZM-401.488 557.517C-401.883 556.413 -400.517 555.487 -398.368 555.498C-396.256 555.503 -394.187 556.428 -393.775 557.527C-393.359 558.643 -394.756 559.526 -396.9 559.531C-399.044 559.535 -401.088 558.638 -401.488 557.517ZM-436.045 557.803C-436.329 556.665 -434.855 555.69 -432.789 555.656C-430.723 555.622 -428.759 556.543 -428.456 557.692C-428.156 558.825 -429.619 559.779 -431.722 559.807C-433.803 559.845 -435.758 558.956 -436.045 557.803ZM-469.776 558.821C-469.952 557.634 -468.497 556.594 -466.445 556.513C-464.426 556.44 -462.589 557.346 -462.397 558.528C-462.189 559.705 -463.718 560.732 -465.749 560.825C-467.817 560.912 -469.596 560.024 -469.776 558.821ZM-502.448 560.887C-502.553 559.645 -501.041 558.501 -499.098 558.347C-497.155 558.192 -495.44 559.099 -495.324 560.321C-495.208 561.542 -496.74 562.675 -498.699 562.834C-500.669 563.014 -502.343 562.13 -502.448 560.887ZM-533.647 564.281C-533.685 562.967 -532.244 561.704 -530.361 561.463C-528.511 561.231 -526.959 562.116 -526.893 563.405C-526.843 564.699 -528.31 565.934 -530.188 566.191C-532.086 566.437 -533.592 565.59 -533.647 564.281ZM-563.096 569.287C-563.106 567.894 -561.712 566.471 -559.963 566.13C-558.215 565.789 -556.758 566.649 -556.737 568.021C-556.716 569.393 -558.168 570.798 -559.911 571.155C-561.676 571.501 -563.092 570.663 -563.096 569.287ZM-590.42 576.177C-590.422 574.695 -589.164 573.103 -587.555 572.646C-585.913 572.179 -584.598 573.03 -584.591 574.475C-584.578 575.937 -585.893 577.511 -587.53 577.993C-589.13 578.483 -590.399 577.671 -590.42 576.177Z" fill="url(#paint0_linear_351_815)"/>
</g>
</g>
<defs>
<linearGradient id="paint0_linear_351_815" x1="1163.36" y1="121.225" x2="510.305" y2="937.817" gradientUnits="userSpaceOnUse">
<stop stop-color="#07EDD2"/>
<stop offset="1" stop-color="#9C63F7"/>
</linearGradient>
</defs>
</svg>
