<svg width="1280" height="834" viewBox="0 0 1280 834" fill="none" xmlns="http://www.w3.org/2000/svg">
<path d="M1538.98 229.681C1538.06 225.869 1539.76 222.175 1542.77 222.021C1545.81 221.857 1548.98 225.266 1549.87 229.013C1550.78 232.793 1549.11 235.519 1546.09 235.747C1543.1 235.966 1539.9 233.525 1538.98 229.681ZM1510.95 228.702C1509.97 224.787 1511.72 221.375 1514.87 221.617C1517.99 221.848 1521.3 225.649 1522.26 229.536C1523.22 233.455 1521.46 235.982 1518.36 235.779C1515.23 235.553 1511.92 232.637 1510.95 228.702ZM1482.03 224.446C1481.01 220.508 1482.8 217.384 1486.01 217.936C1489.25 218.499 1492.66 222.551 1493.66 226.493C1494.67 230.451 1492.92 232.783 1489.7 232.231C1486.52 231.67 1483.07 228.415 1482.03 224.446ZM1452.5 217.617C1451.42 213.731 1453.19 210.87 1456.5 211.674C1459.77 212.487 1463.3 216.697 1464.37 220.604C1465.42 224.548 1463.65 226.678 1460.38 225.844C1457.1 225.014 1453.58 221.535 1452.5 217.617ZM1422.44 208.864C1421.3 205.066 1423.12 202.472 1426.43 203.466C1429.77 204.451 1433.35 208.716 1434.47 212.556C1435.59 216.428 1433.83 218.378 1430.5 217.335C1427.21 216.283 1423.58 212.678 1422.44 208.864ZM1392.16 198.87C1390.98 195.207 1392.74 192.839 1396.11 193.937C1399.45 195.027 1403.12 199.232 1404.27 202.956C1405.44 206.708 1403.68 208.484 1400.36 207.335C1397 206.181 1393.35 202.548 1392.16 198.87ZM1361.78 188.295C1360.57 184.796 1362.33 182.655 1365.66 183.767C1369.03 184.901 1372.69 188.967 1373.89 192.519C1375.11 196.103 1373.4 197.775 1370.04 196.567C1366.73 195.398 1363.01 191.822 1361.78 188.295ZM1331.56 177.864C1330.32 174.549 1332.02 172.549 1335.36 173.64C1338.66 174.724 1342.36 178.585 1343.6 181.969C1344.83 185.374 1343.15 186.951 1339.85 185.798C1336.5 184.622 1332.8 181.195 1331.56 177.864ZM1301.63 168.184C1300.38 165.064 1302.07 163.17 1305.33 164.147C1308.62 165.146 1312.27 168.709 1313.51 171.902C1314.77 175.123 1313.16 176.681 1309.86 175.613C1306.6 174.567 1302.89 171.335 1301.63 168.184ZM1272.26 159.979C1271.03 157.046 1272.63 155.18 1275.85 155.991C1279.05 156.791 1282.66 160.035 1283.91 163.033C1285.17 166.063 1283.58 167.648 1280.38 166.779C1277.13 165.904 1273.51 162.945 1272.26 159.979ZM1243.59 153.906C1242.38 151.142 1243.96 149.244 1247.07 149.792C1250.18 150.34 1253.69 153.194 1254.93 156.038C1256.16 158.903 1254.64 160.591 1251.51 159.995C1248.38 159.367 1244.8 156.706 1243.59 153.906ZM1215.85 150.628C1214.69 147.988 1216.21 145.971 1219.22 146.198C1222.22 146.43 1225.61 148.867 1226.8 151.551C1228 154.266 1226.5 156.156 1223.49 155.892C1220.45 155.622 1217.02 153.3 1215.85 150.628ZM1189.23 150.841C1188.14 148.283 1189.62 146.069 1192.5 145.9C1195.39 145.726 1198.58 147.716 1199.69 150.302C1200.81 152.903 1199.41 155.093 1196.49 155.224C1193.56 155.371 1190.3 153.42 1189.23 150.841ZM1163.9 155.224C1162.93 152.701 1164.38 150.163 1167.09 149.538C1169.81 148.892 1172.81 150.416 1173.82 152.944C1174.85 155.484 1173.48 158.067 1170.7 158.696C1167.96 159.33 1164.88 157.762 1163.9 155.224ZM1140.14 164.43C1139.32 161.882 1140.71 158.924 1143.26 157.737C1145.79 156.555 1148.54 157.609 1149.43 160.139C1150.32 162.684 1148.96 165.771 1146.38 166.967C1143.77 168.173 1140.97 166.995 1140.14 164.43ZM1118.11 178.917C1117.42 176.521 1118.85 173.273 1121.19 171.449C1123.55 169.621 1125.97 170.076 1126.7 172.616C1127.43 175.172 1126.19 178.749 1123.78 180.418C1121.41 182.061 1118.81 181.308 1118.11 178.917ZM1096.44 196.122C1095.83 194.052 1097.33 190.907 1099.72 188.894C1102.09 186.886 1104.47 186.847 1105.11 189.029C1105.76 191.228 1104.4 194.717 1101.99 196.612C1099.59 198.508 1097.07 198.203 1096.44 196.122ZM1074.57 215.098C1074.01 213.258 1075.61 210.169 1078 207.998C1080.42 205.801 1082.76 205.427 1083.32 207.352C1083.91 209.289 1082.5 212.707 1080.05 214.824C1077.63 216.915 1075.12 216.96 1074.57 215.098ZM1052.48 235.481C1051.97 233.8 1053.58 230.744 1056.03 228.416C1058.45 226.113 1060.79 225.459 1061.32 227.203C1061.85 228.947 1060.38 232.4 1057.93 234.639C1055.48 236.914 1053 237.177 1052.48 235.481ZM1030.15 256.929C1029.65 255.313 1031.33 252.237 1033.78 249.856C1036.26 247.434 1038.57 246.646 1039.09 248.274C1039.59 249.922 1038.09 253.363 1035.61 255.754C1033.15 258.119 1030.64 258.561 1030.15 256.929ZM1007.59 279.089C1007.08 277.494 1008.77 274.414 1011.29 271.945C1013.78 269.502 1016.12 268.583 1016.63 270.178C1017.13 271.773 1015.57 275.287 1013.1 277.726C1010.59 280.211 1008.1 280.701 1007.59 279.089ZM984.777 301.638C984.262 300.011 985.987 296.868 988.503 294.399C991.046 291.905 993.401 291.018 993.907 292.613C994.417 294.225 992.88 297.766 990.341 300.276C987.834 302.777 985.281 303.286 984.777 301.638ZM961.723 324.189C961.206 322.493 962.909 319.339 965.473 316.856C968.01 314.398 970.444 313.541 970.952 315.205C971.481 316.88 969.894 320.488 967.366 322.978C964.812 325.493 962.246 325.901 961.723 324.189ZM938.368 346.427C937.817 344.619 939.555 341.403 942.127 339.004C944.726 336.581 947.181 335.856 947.718 337.617C948.259 339.393 946.713 343.024 944.128 345.496C941.555 347.947 938.924 348.252 938.368 346.427ZM914.777 367.985C914.188 366.048 915.894 362.842 918.533 360.493C921.133 358.191 923.663 357.602 924.233 359.475C924.807 361.364 923.232 365.073 920.646 367.423C918.022 369.819 915.366 369.922 914.777 367.985ZM890.851 388.526C890.225 386.46 891.925 383.238 894.586 381.022C897.252 378.823 899.811 378.452 900.407 380.474C901.024 382.507 899.477 386.191 896.83 388.454C894.205 390.729 891.487 390.623 890.851 388.526ZM866.677 407.691C866.008 405.482 867.718 402.291 870.41 400.241C873.091 398.212 875.689 398.091 876.344 400.253C877.004 402.43 875.451 406.098 872.79 408.191C870.107 410.273 867.335 409.922 866.677 407.691ZM842.159 425.162C841.468 422.819 843.193 419.677 845.893 417.834C848.599 416.006 851.284 416.121 851.977 418.411C852.659 420.722 851.102 424.373 848.394 426.253C845.708 428.145 842.855 427.521 842.159 425.162ZM817.344 440.557C816.62 438.102 818.324 435.07 821.096 433.468C823.836 431.875 826.585 432.267 827.3 434.69C828.015 437.113 826.45 440.68 823.704 442.31C820.946 443.96 818.073 443.029 817.344 440.557ZM792.188 453.559C791.441 451.023 793.156 448.145 795.955 446.814C798.722 445.492 801.525 446.183 802.264 448.686C803.007 451.205 801.416 454.622 798.658 455.977C795.852 457.345 792.925 456.115 792.188 453.559ZM766.685 463.785C765.944 461.212 767.705 458.548 770.509 457.529C773.345 456.5 776.153 457.504 776.906 460.055C777.668 462.639 776.079 465.828 773.248 466.873C770.416 467.917 767.436 466.389 766.685 463.785ZM740.972 470.636C740.221 468.032 741.948 465.726 744.786 465.116C747.608 464.51 750.457 465.833 751.219 468.416C751.97 471.021 750.354 473.939 747.537 474.561C744.704 475.187 741.728 473.257 740.972 470.636ZM715.425 473.322C714.67 470.702 716.391 468.729 719.186 468.567C721.998 468.401 724.839 470.11 725.606 472.709C726.366 475.346 724.784 477.905 721.956 478.077C719.165 478.254 716.19 475.975 715.425 473.322ZM690.112 472.363C689.357 469.743 691.045 468.076 693.844 468.28C696.61 468.493 699.441 470.519 700.196 473.139C700.956 475.776 699.39 478.034 696.619 477.805C693.82 477.602 690.888 474.995 690.112 472.363ZM664.965 468.303C664.21 465.683 665.905 464.276 668.661 464.806C671.437 465.348 674.221 467.631 674.977 470.252C675.737 472.888 674.212 474.873 671.435 474.331C668.675 473.785 665.725 470.94 664.965 468.303ZM639.97 461.739C639.219 459.134 640.886 457.928 643.649 458.718C646.39 459.496 649.172 462.007 649.938 464.607C650.698 467.243 649.155 468.989 646.409 468.195C643.631 467.409 640.73 464.375 639.97 461.739ZM615.057 453.266C614.311 450.678 615.993 449.641 618.727 450.631C621.477 451.617 624.228 454.259 624.974 456.847C625.729 459.468 624.224 461.046 621.469 460.044C618.739 459.07 615.812 455.887 615.057 453.266ZM590.242 443.474C589.506 440.918 591.169 439.991 593.92 441.098C596.634 442.199 599.397 444.942 600.138 447.515C600.884 450.103 599.357 451.548 596.638 450.431C593.898 449.303 591.004 446.057 590.242 443.474ZM565.461 432.904C564.729 430.364 566.432 429.513 569.133 430.687C571.871 431.868 574.585 434.626 575.338 437.177C576.079 439.75 574.565 441.121 571.827 439.94C569.121 438.749 566.213 435.456 565.461 432.904ZM540.701 422.171C539.962 419.668 541.649 418.822 544.403 419.998C547.12 421.167 549.851 423.92 550.594 426.44C551.326 428.98 549.786 430.324 547.069 429.154C544.326 427.957 541.444 424.691 540.701 422.171ZM515.9 411.834C515.167 409.347 516.897 408.47 519.616 409.587C522.351 410.699 525.063 413.388 525.796 415.875C526.539 418.394 525.009 419.77 522.253 418.647C519.55 417.525 516.639 414.337 515.9 411.834ZM491.081 402.496C490.357 400.041 492.074 399.064 494.825 400.049C497.554 401.023 500.285 403.602 500.998 406.078C501.732 408.565 500.172 410.019 497.438 409.029C494.683 408.027 491.794 404.972 491.081 402.496ZM466.128 394.716C465.408 392.277 467.173 391.163 469.898 391.947C472.661 392.737 475.377 395.145 476.08 397.589C476.809 400.06 475.255 401.652 472.493 400.862C469.763 400.063 466.836 397.176 466.128 394.716ZM441.078 389.092C440.359 386.653 442.115 385.333 444.891 385.874C447.646 386.405 450.386 388.597 451.089 391.041C451.814 393.496 450.232 395.288 447.471 394.742C444.695 394.2 441.802 391.547 441.078 389.092ZM415.854 386.188C415.134 383.749 416.92 382.176 419.703 382.384C422.47 382.597 425.223 384.541 425.938 386.964C426.662 389.419 425.066 391.46 422.295 391.231C419.517 391.038 416.562 388.648 415.854 386.188ZM390.444 386.619C389.725 384.179 391.533 382.268 394.329 382.106C397.14 381.94 399.926 383.578 400.629 386.022C401.353 388.477 399.746 390.835 396.919 391.006C394.119 391.151 391.152 389.078 390.444 386.619ZM364.836 390.928C364.107 388.456 365.912 386.18 368.766 385.565C371.603 384.954 374.375 386.248 375.099 388.703C375.828 391.174 374.224 393.897 371.391 394.523C368.521 395.143 365.548 393.403 364.836 390.928ZM338.198 398.313C337.486 395.837 339.522 393.457 342.526 392.641C345.561 391.816 348.416 392.858 349.144 395.329C349.862 397.821 348.164 400.816 345.128 401.642C342.108 402.463 338.916 400.805 338.198 398.313ZM308.927 405.639C308.23 403.158 310.446 400.795 313.783 399.985C317.088 399.185 320.211 400.252 320.924 402.728C321.641 405.22 319.663 408.211 316.358 409.011C313.021 409.821 309.628 408.136 308.927 405.639ZM277.232 412.79C276.535 410.309 278.983 407.965 282.536 407.178C286.122 406.382 289.429 407.483 290.142 409.959C290.843 412.455 288.685 415.429 285.116 416.22C281.542 416.995 277.938 415.302 277.232 412.79ZM243.577 419.803C242.864 417.327 245.455 414.993 249.241 414.225C252.994 413.467 256.524 414.554 257.221 417.035C257.922 419.531 255.553 422.498 251.8 423.256C248.014 424.024 244.279 422.3 243.577 419.803ZM208.265 426.695C207.552 424.219 210.285 421.895 214.213 421.138C218.173 420.371 221.814 421.478 222.511 423.958C223.228 426.45 220.748 429.397 216.788 430.164C212.876 430.917 208.982 429.187 208.265 426.695ZM171.775 433.498C171.046 431.027 173.837 428.721 177.908 427.974C181.946 427.236 185.74 428.333 186.453 430.809C187.171 433.301 184.569 436.248 180.515 436.991C176.455 437.717 172.508 435.986 171.775 433.498ZM134.409 440.229C133.68 437.757 136.54 435.449 140.668 434.719C144.828 433.981 148.66 435.083 149.388 437.555C150.122 440.042 147.479 442.967 143.323 443.722C139.195 444.451 135.142 442.716 134.409 440.229ZM96.6149 446.928C95.87 444.462 98.7025 442.178 102.911 441.425C107.071 440.687 110.987 441.782 111.732 444.248C112.482 446.731 109.77 449.659 105.61 450.397C101.417 451.146 97.3646 449.411 96.6149 446.928ZM58.72 453.64C57.959 451.178 60.8077 448.89 64.968 448.151C69.1603 447.403 73.0605 448.503 73.8215 450.965C74.5712 453.447 71.9072 456.361 67.7148 457.109C63.5658 457.827 59.481 456.102 58.72 453.64ZM21.1745 460.353C20.3974 457.896 23.1611 455.616 27.3006 454.866C31.408 454.125 35.3356 455.2 36.0966 457.661C36.8623 460.139 34.1822 463.058 30.0909 463.793C25.9514 464.543 21.9562 462.826 21.1745 460.353ZM-15.6903 467.128C-16.4673 464.67 -13.7725 462.393 -9.75481 461.644C-5.70499 460.886 -1.86244 461.968 -1.10145 464.429C-0.319682 466.902 -2.89403 469.825 -6.93253 470.562C-10.955 471.295 -14.9085 469.601 -15.6903 467.128ZM-51.4833 473.987C-52.2717 471.551 -49.6921 469.237 -45.7802 468.485C-41.905 467.725 -38.12 468.789 -37.3317 471.226C-36.5499 473.699 -39.0393 476.613 -42.9305 477.377C-46.8377 478.146 -50.6902 476.439 -51.4833 473.987ZM-85.7657 480.941C-86.554 478.505 -84.1331 476.186 -80.4326 475.426C-76.684 474.652 -73.0785 475.699 -72.2854 478.151C-71.4876 480.62 -73.8183 483.54 -77.5622 484.33C-81.2627 485.09 -84.9678 483.41 -85.7657 480.941ZM-118.195 488.029C-118.983 485.593 -116.79 483.272 -113.252 482.49C-109.768 481.707 -106.273 482.734 -105.48 485.186C-104.682 487.655 -106.882 490.606 -110.366 491.389C-113.919 492.176 -117.397 490.498 -118.195 488.029ZM-148.406 495.301C-149.195 492.865 -147.181 490.526 -143.95 489.713C-140.714 488.915 -137.435 489.919 -136.658 492.376C-135.86 494.845 -137.864 497.808 -141.095 498.622C-144.326 499.435 -147.609 497.769 -148.406 495.301ZM-175.978 502.77C-176.755 500.313 -174.99 497.961 -172.055 497.148C-169.093 496.309 -166.074 497.32 -165.281 499.772C-164.499 502.245 -166.271 505.227 -169.233 506.066C-172.183 506.884 -175.197 505.244 -175.978 502.77ZM-200.803 512.221C-201.608 509.789 -200.105 507.078 -197.442 505.874C-194.791 504.691 -191.997 505.472 -191.208 507.908C-190.415 510.36 -191.914 513.558 -194.549 514.737C-197.196 515.936 -199.994 514.668 -200.803 512.221ZM-223.178 525.954C-224.02 523.516 -222.731 520.433 -220.35 518.806C-217.942 517.154 -215.358 517.578 -214.537 520.004C-213.712 522.447 -214.932 525.999 -217.324 527.647C-219.684 529.285 -222.332 528.409 -223.178 525.954ZM-243.401 543.379C-244.295 540.939 -243.218 537.552 -241.046 535.515C-238.884 533.5 -236.436 533.58 -235.558 536.025C-234.675 538.486 -235.69 542.378 -237.851 544.394C-240.008 546.425 -242.502 545.835 -243.401 543.379ZM-261.862 563.878C-262.798 561.415 -261.88 557.725 -259.898 555.397C-257.905 553.047 -255.592 552.906 -254.677 555.357C-253.753 557.84 -254.554 561.984 -256.538 564.365C-258.515 566.71 -260.933 566.377 -261.862 563.878ZM-278.88 586.846C-279.846 584.34 -279.107 580.459 -277.258 577.855C-275.421 575.273 -273.201 574.932 -272.24 577.422C-271.274 579.928 -271.921 584.357 -273.738 586.951C-275.582 589.571 -277.909 589.368 -278.88 586.846ZM-294.836 611.698C-295.848 609.154 -295.186 605.069 -293.454 602.308C-291.715 599.51 -289.577 599.071 -288.586 601.605C-287.589 604.154 -288.084 608.748 -289.806 611.541C-291.513 614.329 -293.814 614.275 -294.836 611.698ZM-310.025 637.79C-311.067 635.202 -310.487 631.019 -308.818 628.103C-307.156 625.223 -305.046 624.687 -304.024 627.264C-302.982 629.852 -303.413 634.602 -305.049 637.509C-306.714 640.442 -308.978 640.395 -310.025 637.79ZM-324.857 664.562C-325.913 661.926 -325.362 657.646 -323.75 654.712C-322.112 651.751 -320.034 651.226 -318.982 653.846C-317.925 656.482 -318.268 661.293 -319.886 664.264C-321.493 667.215 -323.779 667.209 -324.857 664.562ZM-339.62 691.33C-340.691 688.646 -340.15 684.387 -338.507 681.443C-336.875 678.52 -334.792 678.01 -333.71 680.674C-332.623 683.353 -332.968 688.217 -334.595 691.157C-336.234 694.117 -338.528 694.026 -339.62 691.33ZM-354.709 717.585C-355.784 714.884 -355.175 710.623 -353.498 707.791C-351.815 704.922 -349.716 704.53 -348.624 707.225C-347.544 709.942 -347.887 714.752 -349.57 717.621C-351.258 720.474 -353.624 720.317 -354.709 717.585ZM-370.433 742.631C-371.497 739.91 -370.797 735.778 -369.035 733.061C-367.283 730.364 -365.119 730.074 -364.05 732.811C-362.976 735.565 -363.4 740.277 -365.163 742.995C-366.941 745.717 -369.359 745.384 -370.433 742.631ZM-387.177 765.937C-388.193 763.201 -387.356 759.239 -385.49 756.753C-383.613 754.245 -381.403 754.169 -380.355 756.895C-379.313 759.658 -379.837 764.208 -381.735 766.704C-383.617 769.195 -386.14 768.683 -387.177 765.937ZM-405.26 786.829C-406.223 784.096 -405.221 780.399 -403.173 778.173C-401.154 775.972 -398.855 776.079 -397.855 778.819C-396.85 781.575 -397.557 785.918 -399.598 788.107C-401.666 790.322 -404.276 789.574 -405.26 786.829ZM-425.044 804.735C-425.945 802.036 -424.662 798.64 -422.458 796.768C-420.249 794.913 -417.858 795.272 -416.92 797.978C-415.994 800.705 -416.897 804.739 -419.143 806.588C-421.4 808.457 -424.155 807.456 -425.044 804.735ZM-446.868 819.039C-447.665 816.396 -446.125 813.395 -443.66 811.936C-441.211 810.481 -438.714 811.14 -437.892 813.81C-437.048 816.492 -438.219 820.151 -440.71 821.583C-443.216 823.02 -446.066 821.698 -446.868 819.039Z" fill="url(#paint0_linear_351_934)"/>
<defs>
<linearGradient id="paint0_linear_351_934" x1="1264.97" y1="220.646" x2="267.508" y2="908.729" gradientUnits="userSpaceOnUse">
<stop stop-color="#07EDD2"/>
<stop offset="1" stop-color="#9C63F7"/>
</linearGradient>
</defs>
</svg>
