<svg width="1280" height="928" viewBox="0 0 1280 928" fill="none" xmlns="http://www.w3.org/2000/svg">
<g opacity="0.8387">
<g opacity="0.8387">
<path opacity="0.8387" d="M1489.42 22.8623C1488.55 17.4851 1490.03 12.6187 1492.66 11.6678C1495.29 10.7169 1498.12 14.0183 1498.97 19.4163C1499.83 24.8143 1498.42 30.1857 1495.78 31.1206C1493.16 32.0667 1490.29 28.2395 1489.42 22.8623ZM1461.03 33.0667C1460.14 27.8 1461.69 22.9468 1464.45 21.942C1467.21 20.9372 1470.15 24.1687 1471.03 29.4722C1471.92 34.7918 1470.41 40.0859 1467.65 41.0586C1464.9 42.0266 1461.92 38.3334 1461.03 33.0667ZM1431.57 43.779C1430.67 38.6917 1432.25 33.898 1435.11 32.828C1437.97 31.7579 1440.99 34.8439 1441.9 40.0001C1442.8 45.1611 1441.24 50.3476 1438.39 51.3439C1435.53 52.345 1432.48 48.8663 1431.57 43.779ZM1401.46 55.0507C1400.54 50.1956 1402.14 45.519 1405.04 44.3659C1407.95 43.2288 1411.02 46.1259 1411.96 51.0659C1412.87 56.0106 1411.3 61.0272 1408.4 62.0746C1405.49 63.1428 1402.39 59.9057 1401.46 55.0507ZM1370.96 67.0129C1370.01 62.427 1371.62 57.8882 1374.54 56.6774C1377.46 55.4667 1380.61 58.0965 1381.56 62.7882C1382.5 67.4638 1380.89 72.2991 1377.96 73.4088C1375.04 74.5299 1371.91 71.5988 1370.96 67.0129ZM1340.49 79.7332C1339.52 75.4645 1341.1 71.0938 1344.01 69.7981C1346.89 68.5118 1350.06 70.8565 1351.03 75.247C1351.98 79.6215 1350.38 84.2453 1347.5 85.4097C1344.58 86.5837 1341.47 83.9972 1340.49 79.7332ZM1310.34 93.3172C1309.38 89.3978 1310.89 85.1999 1313.76 83.8126C1316.63 82.4254 1319.78 84.4623 1320.75 88.5035C1321.71 92.5446 1320.15 96.9314 1317.27 98.1969C1314.4 99.4624 1311.33 97.2479 1310.34 93.3172ZM1280.92 107.837C1279.96 104.267 1281.41 100.247 1284.2 98.7774C1286.96 97.3175 1290.04 99.008 1291.02 102.695C1291.99 106.387 1290.47 110.532 1287.71 111.87C1284.91 113.238 1281.89 111.407 1280.92 107.837ZM1252.51 123.403C1251.55 120.199 1252.91 116.361 1255.6 114.782C1258.28 113.208 1261.28 114.557 1262.24 117.883C1263.2 121.21 1261.76 125.124 1259.07 126.581C1256.37 128.038 1253.45 126.597 1252.51 123.403ZM1225.51 140.072C1224.58 137.224 1225.84 133.557 1228.37 131.866C1230.91 130.176 1233.74 131.191 1234.68 134.157C1235.61 137.127 1234.29 140.797 1231.75 142.366C1229.2 143.939 1226.44 142.921 1225.51 140.072ZM1200.21 157.965C1199.33 155.468 1200.48 151.956 1202.84 150.143C1205.18 148.335 1207.89 148.985 1208.78 151.616C1209.68 154.231 1208.42 157.707 1206.04 159.403C1203.65 161.103 1201.07 160.484 1200.21 157.965ZM1177 177.16C1176.2 174.972 1177.2 171.608 1179.33 169.671C1181.46 167.734 1183.95 168.064 1184.78 170.365C1185.62 172.665 1184.46 175.954 1182.3 177.779C1180.13 179.604 1177.8 179.348 1177 177.16ZM1156.2 197.756C1155.49 195.837 1156.37 192.543 1158.26 190.486C1160.14 188.429 1162.36 188.438 1163.11 190.449C1163.86 192.461 1162.82 195.611 1160.89 197.576C1158.98 199.553 1156.92 199.672 1156.2 197.756ZM1138.2 219.827C1137.61 218.134 1138.34 214.92 1139.94 212.72C1141.54 210.521 1143.45 210.254 1144.1 212.019C1144.74 213.783 1143.82 216.826 1142.16 218.955C1140.5 221.067 1138.78 221.505 1138.2 219.827ZM1123.29 243.483C1122.84 241.975 1123.45 238.709 1124.75 236.372C1126.05 234.035 1127.59 233.528 1128.09 235.091C1128.58 236.654 1127.79 239.66 1126.44 241.942C1125.09 244.224 1123.72 244.996 1123.29 243.483ZM1108.82 273.428C1108.51 272.141 1109.5 268.306 1111.09 264.889C1112.69 261.488 1114.27 259.923 1114.61 261.322C1114.95 262.721 1113.89 266.453 1112.28 269.737C1110.67 273.021 1109.14 274.71 1108.82 273.428ZM1091.07 306.535C1090.83 305.542 1092.02 302.121 1093.75 298.994C1095.48 295.868 1097.12 294.284 1097.39 295.374C1097.66 296.463 1096.43 299.723 1094.67 302.769C1092.91 305.784 1091.31 307.528 1091.07 306.535ZM1071.97 336.937C1071.77 336.141 1073.1 333.133 1074.96 330.265C1076.82 327.397 1078.52 325.847 1078.72 326.696C1078.92 327.561 1077.54 330.445 1075.67 333.249C1073.81 336.048 1072.17 337.732 1071.97 336.937ZM1051.63 364.828C1051.47 364.177 1052.93 361.427 1054.9 358.823C1056.89 356.214 1058.65 354.735 1058.82 355.434C1058.99 356.134 1057.48 358.707 1055.49 361.284C1053.51 363.856 1051.79 365.496 1051.63 364.828ZM1030.15 390.351C1030.01 389.764 1031.56 387.266 1033.65 384.888C1035.74 382.51 1037.57 381.15 1037.71 381.753C1037.86 382.357 1036.26 384.678 1034.16 387.04C1032.09 389.413 1030.3 390.933 1030.15 390.351ZM1007.7 413.579C1007.56 413.008 1009.19 410.714 1011.36 408.556C1013.55 406.394 1015.46 405.184 1015.59 405.756C1015.73 406.327 1014.05 408.46 1011.87 410.623C1009.69 412.765 1007.83 414.15 1007.7 413.579ZM984.328 434.705C984.169 434.107 985.87 431.948 988.124 430.01C990.389 428.051 992.373 427.03 992.527 427.612C992.682 428.195 990.929 430.177 988.663 432.136C986.398 434.095 984.471 435.309 984.328 434.705ZM960.213 453.836C960.035 453.174 961.769 451.127 964.107 449.356C966.45 447.601 968.479 446.793 968.648 447.424C968.816 448.054 967.047 449.92 964.713 451.707C962.38 453.494 960.375 454.504 960.213 453.836ZM935.405 471.148C935.203 470.406 936.972 468.419 939.362 466.824C941.757 465.246 943.891 464.616 944.068 465.332C944.26 466.042 942.439 467.853 940.037 469.468C937.677 471.106 935.611 471.907 935.405 471.148ZM910.111 486.755C909.892 485.895 911.659 483.961 914.097 482.527C916.507 481.118 918.707 480.713 918.917 481.541C919.137 482.348 917.286 484.115 914.885 485.556C912.473 487.017 910.341 487.594 910.111 486.755ZM884.374 500.8C884.122 499.828 885.889 497.894 888.374 496.62C890.859 495.346 893.105 495.155 893.347 496.095C893.589 497.035 891.745 498.765 889.285 500.066C886.815 501.388 884.626 501.772 884.374 500.8ZM858.348 513.395C858.063 512.31 859.814 510.381 862.321 509.241C864.796 508.11 867.103 508.127 867.379 509.179C867.654 510.232 865.821 511.941 863.345 513.125C860.868 514.309 858.638 514.496 858.348 513.395ZM832.124 524.723C831.806 523.526 833.557 521.597 836.064 520.578C838.588 519.555 840.916 519.758 841.229 520.939C841.538 522.104 839.705 523.813 837.211 524.88C834.713 525.931 832.447 525.936 832.124 524.723ZM805.871 534.891C805.525 533.598 807.243 531.678 809.764 530.76C812.252 529.852 814.631 530.232 814.952 531.498C815.289 532.759 813.472 534.463 810.994 535.404C808.504 536.365 806.222 536.2 805.871 534.891ZM779.642 544.075C779.272 542.702 780.979 540.803 783.491 539.975C785.998 539.131 788.368 539.653 788.733 541.01C789.094 542.351 787.309 544.047 784.802 544.891C782.295 545.735 780.008 545.433 779.642 544.075ZM753.599 552.35C753.219 550.944 754.867 549.08 757.361 548.31C759.855 547.539 762.22 548.167 762.6 549.573C762.975 550.962 761.212 552.616 758.723 553.402C756.229 554.173 753.978 553.755 753.599 552.35ZM727.903 559.44C727.524 558.035 729.166 556.329 731.611 555.748C734.056 555.166 736.397 555.889 736.761 557.299C737.14 558.704 735.402 560.264 732.962 560.861C730.522 561.459 728.272 560.867 727.903 559.44ZM702.656 563.259C702.276 561.853 703.861 560.427 706.263 560.172C708.665 559.917 710.965 560.913 711.344 562.319C711.724 563.724 710.023 564.993 707.621 565.248C705.224 565.519 703.036 564.665 702.656 563.259ZM677.766 563.972C677.391 562.583 678.973 561.383 681.35 561.397C683.726 561.412 685.991 562.645 686.366 564.034C686.741 565.424 685.054 566.445 682.693 566.426C680.317 566.412 678.141 565.362 677.766 563.972ZM653.221 562.072C652.856 560.714 654.394 559.72 656.736 559.971C659.077 560.222 661.326 561.635 661.696 563.008C662.066 564.382 660.397 565.17 658.056 564.919C655.709 564.652 653.571 563.434 653.221 562.072ZM628.888 558.05C628.532 556.725 630.086 555.9 632.411 556.331C634.736 556.762 636.921 558.315 637.281 559.656C637.642 560.998 636.006 561.602 633.693 561.151C631.363 560.704 629.245 559.376 628.888 558.05ZM604.776 552.411C604.434 551.134 605.952 550.425 608.267 550.998C610.565 551.576 612.774 553.21 613.109 554.524C613.456 555.817 611.809 556.268 609.506 555.674C607.203 555.08 605.118 553.689 604.776 552.411ZM580.774 545.606C580.441 544.361 581.992 543.764 584.287 544.448C586.577 545.116 588.731 546.8 589.068 548.061C589.405 549.323 587.779 549.663 585.484 548.979C583.184 548.279 581.106 546.852 580.774 545.606ZM556.862 538.164C556.544 536.967 558.098 536.439 560.386 537.16C562.674 537.88 564.833 539.581 565.156 540.794C565.478 542.007 563.824 542.251 561.531 541.514C559.238 540.778 557.18 539.361 556.862 538.164ZM532.988 530.554C532.684 529.405 534.243 528.893 536.531 529.614C538.819 530.334 540.973 532.019 541.282 533.184C541.59 534.348 539.921 534.544 537.633 533.824C535.34 533.087 533.281 531.723 532.988 530.554ZM509.039 523.28C508.749 522.179 510.324 521.662 512.614 522.33C514.904 522.997 517.055 524.613 517.354 525.746C517.649 526.863 515.979 527.058 513.685 526.375C511.385 525.675 509.333 524.396 509.039 523.28ZM485.019 516.829C484.738 515.76 486.335 515.202 488.65 515.775C490.948 516.353 493.071 517.872 493.351 518.941C493.636 520.026 491.961 520.258 489.657 519.664C487.354 519.07 485.299 517.897 485.019 516.829ZM460.826 511.685C460.559 510.664 462.176 509.996 464.501 510.426C466.826 510.857 468.98 512.245 469.25 513.281C469.521 514.318 467.812 514.613 465.482 514.166C463.157 513.736 461.096 512.721 460.826 511.685ZM436.453 508.355C436.196 507.367 437.844 506.567 440.181 506.802C442.502 507.042 444.661 508.272 444.922 509.276C445.184 510.28 443.438 510.691 441.129 510.43C438.782 510.163 436.709 509.344 436.453 508.355ZM411.773 507.297C411.521 506.325 413.202 505.341 415.562 505.36C417.938 505.374 420.105 506.392 420.373 507.359C420.625 508.332 418.858 508.905 416.481 508.891C414.105 508.877 412.025 508.269 411.773 507.297ZM386.783 509.034C386.536 508.078 388.24 506.877 390.637 506.606C393.018 506.34 395.22 507.121 395.472 508.093C395.719 509.05 393.924 509.823 391.543 510.089C389.141 510.344 387.031 509.99 386.783 509.034ZM361.383 514.049C361.136 513.093 362.882 511.618 365.322 511.021C367.767 510.439 369.993 510.951 370.24 511.907C370.488 512.863 368.662 513.89 366.217 514.472C363.761 515.074 361.626 514.989 361.383 514.049ZM334.667 521.58C334.419 520.624 336.374 519.088 339.003 518.365C341.665 517.632 344.019 517.984 344.267 518.94C344.514 519.897 342.545 521.088 339.899 521.816C337.274 522.555 334.914 522.536 334.667 521.58ZM304.926 529.148C304.679 528.192 306.844 526.664 309.787 525.936C312.729 525.207 315.332 525.573 315.579 526.53C315.826 527.486 313.63 528.674 310.703 529.398C307.761 530.126 305.189 530.1 304.926 529.148ZM272.567 536.652C272.304 535.7 274.628 534.178 277.803 533.468C280.978 532.758 283.787 533.116 284.045 534.051C284.308 535.003 281.917 536.179 278.747 536.905C275.577 537.631 272.831 537.603 272.567 536.652ZM237.949 544.124C237.67 543.177 240.174 541.671 243.555 540.953C246.936 540.235 249.92 540.593 250.183 541.545C250.447 542.496 247.913 543.662 244.531 544.381C241.161 545.078 238.224 545.055 237.949 544.124ZM201.533 551.533C201.243 550.607 203.864 549.084 207.388 548.376C210.928 547.664 214.054 548.032 214.345 548.958C214.624 549.905 211.963 551.056 208.423 551.769C204.904 552.493 201.829 552.475 201.533 551.533ZM163.785 558.917C163.478 557.996 166.172 556.486 169.818 555.777C173.48 555.063 176.723 555.415 177.019 556.357C177.325 557.278 174.564 558.442 170.918 559.151C167.272 559.86 164.096 559.855 163.785 558.917ZM125.057 566.294C124.734 565.377 127.465 563.874 131.201 563.173C134.936 562.473 138.264 562.816 138.587 563.733C138.91 564.649 136.106 565.79 132.376 566.507C128.64 567.208 125.379 567.21 125.057 566.294ZM85.8479 573.637C85.4931 572.73 88.2451 571.238 92.0127 570.528C95.7802 569.818 99.1294 570.173 99.4681 571.085C99.8068 571.997 97.0357 573.128 93.2634 573.822C89.5006 574.548 86.2026 574.544 85.8479 573.637ZM46.5222 580.998C46.1514 580.095 48.8713 578.613 52.6228 577.907C56.3904 577.197 59.7877 577.538 60.1424 578.445C60.4972 579.353 57.7052 580.473 53.9377 581.183C50.2022 581.883 46.893 581.9 46.5222 580.998ZM7.57792 588.35C7.19107 587.453 9.8468 585.989 13.5615 585.277C17.2762 584.565 20.6206 584.905 21.0074 585.802C21.3943 586.7 18.6666 587.801 14.9679 588.508C11.2372 589.225 7.96476 589.248 7.57792 588.35ZM-30.6421 595.734C-31.0403 594.857 -28.4903 593.39 -24.8654 592.669C-21.2356 591.965 -17.8959 592.288 -17.4978 593.165C-17.0996 594.042 -19.7698 595.161 -23.3995 595.865C-27.0245 596.585 -30.244 596.61 -30.6421 595.734ZM-67.6348 603.139C-68.0651 602.271 -65.6208 600.8 -62.1176 600.081C-58.6144 599.362 -55.4126 599.691 -54.9824 600.558C-54.5682 601.43 -57.0844 602.539 -60.5923 603.242C-64.0955 603.961 -67.2206 604.011 -67.6348 603.139ZM-103.067 610.572C-103.497 609.704 -101.223 608.249 -97.8781 607.524C-94.5496 606.804 -91.4214 607.12 -90.9912 607.987C-90.5609 608.854 -92.9714 609.966 -96.3047 610.67C-99.6171 611.386 -102.616 611.45 -103.067 610.572ZM-136.388 618.063C-136.835 617.2 -134.735 615.744 -131.618 615.016C-128.496 614.305 -125.564 614.608 -125.117 615.471C-124.671 616.334 -126.879 617.421 -129.997 618.149C-133.118 618.86 -135.942 618.925 -136.388 618.063ZM-167.271 625.602C-167.734 624.744 -165.846 623.28 -162.972 622.555C-160.099 621.829 -157.325 622.127 -156.862 622.985C-156.416 623.848 -158.445 624.952 -161.319 625.678C-164.197 626.387 -166.825 626.465 -167.271 625.602ZM-195.24 633.206C-195.702 632.348 -194.078 630.875 -191.501 630.15C-188.924 629.424 -186.383 629.704 -185.92 630.562C-185.458 631.42 -187.275 632.531 -189.852 633.257C-192.425 633.998 -194.777 634.064 -195.24 633.206ZM-220.025 641.964C-220.487 641.106 -219.067 639.414 -216.763 638.473C-214.459 637.532 -212.162 637.691 -211.7 638.549C-211.237 639.407 -212.794 640.634 -215.094 641.591C-217.402 642.516 -219.562 642.822 -220.025 641.964ZM-242.493 653.963C-242.96 653.09 -241.754 651.146 -239.661 649.901C-237.569 648.656 -235.428 648.583 -234.961 649.457C-234.494 650.331 -235.864 651.834 -237.957 653.079C-240.028 654.335 -242.021 654.853 -242.493 653.963ZM-262.978 668.901C-263.475 667.984 -262.388 665.815 -260.477 664.309C-258.567 662.804 -256.556 662.524 -256.084 663.414C-255.591 664.316 -256.817 666.073 -258.723 667.594C-260.629 669.116 -262.496 669.824 -262.978 668.901ZM-281.679 686.279C-282.186 685.329 -281.262 682.963 -279.523 681.23C-277.784 679.496 -275.89 679.059 -275.399 680.013C-274.897 680.947 -275.983 682.941 -277.722 684.675C-279.44 686.42 -281.184 687.249 -281.679 686.279ZM-298.87 705.705C-299.395 704.691 -298.565 702.126 -296.963 700.223C-295.361 698.32 -293.569 697.774 -293.068 698.761C-292.552 699.742 -293.513 701.927 -295.109 703.845C-296.702 705.78 -298.36 706.723 -298.87 705.705ZM-314.76 726.7C-315.283 725.634 -314.591 722.953 -313.101 720.909C-311.611 718.864 -309.911 718.241 -309.392 719.291C-308.873 720.342 -309.717 722.684 -311.203 724.744C-312.672 726.8 -314.236 727.767 -314.76 726.7ZM-329.594 748.85C-330.121 747.715 -329.487 744.894 -328.095 742.756C-326.702 740.619 -325.085 739.95 -324.547 741.065C-324.013 742.163 -324.778 744.656 -326.182 746.815C-327.571 748.969 -329.067 749.986 -329.594 748.85ZM-343.606 771.717C-344.131 770.529 -343.559 767.621 -342.233 765.434C-340.907 763.246 -339.343 762.575 -338.823 763.747C-338.287 764.915 -339.007 767.5 -340.328 769.703C-341.649 771.907 -343.082 772.905 -343.606 771.717ZM-357.017 794.79C-357.524 793.544 -356.982 790.593 -355.714 788.388C-354.445 786.182 -352.925 785.542 -352.407 786.767C-351.888 787.992 -352.574 790.636 -353.837 792.858C-355.133 795.089 -356.506 796.052 -357.017 794.79ZM-370.101 817.732C-370.585 816.444 -370.047 813.477 -368.807 811.297C-367.566 809.117 -366.095 808.544 -365.595 809.826C-365.094 811.109 -365.775 813.769 -367.027 815.97C-368.268 818.15 -369.616 819.019 -370.101 817.732ZM-383.066 840.01C-383.511 838.676 -382.943 835.753 -381.716 833.647C-380.488 831.54 -379.042 831.061 -378.58 832.39C-378.118 833.719 -378.808 836.347 -380.052 838.459C-381.296 840.57 -382.604 841.339 -383.066 840.01ZM-396.147 861.242C-396.55 859.878 -395.905 857.036 -394.66 855.047C-393.416 853.058 -391.994 852.673 -391.576 854.033C-391.157 855.392 -391.915 857.97 -393.191 859.969C-394.468 861.968 -395.761 862.611 -396.147 861.242ZM-409.589 880.958C-409.907 879.586 -409.192 876.863 -407.905 875.018C-406.624 873.21 -405.233 872.957 -404.884 874.319C-404.53 875.698 -405.384 878.182 -406.681 879.995C-408.005 881.833 -409.272 882.329 -409.589 880.958ZM-423.657 898.73C-423.884 897.366 -423.049 894.818 -421.7 893.181C-420.351 891.545 -418.971 891.434 -418.702 892.82C-418.437 894.19 -419.403 896.533 -420.789 898.163C-422.158 899.788 -423.408 900.104 -423.657 898.73ZM-438.519 914.102C-438.636 912.759 -437.645 910.443 -436.209 909.043C-434.773 907.642 -433.425 907.716 -433.267 909.082C-433.113 910.432 -434.214 912.553 -435.691 913.931C-437.169 915.309 -438.402 915.446 -438.519 914.102Z" fill="url(#paint0_linear_351_899)"/>
</g>
</g>
<defs>
<linearGradient id="paint0_linear_351_899" x1="1286.7" y1="270.374" x2="203.224" y2="904.666" gradientUnits="userSpaceOnUse">
<stop stop-color="#07EDD2"/>
<stop offset="1" stop-color="#9C63F7"/>
</linearGradient>
</defs>
</svg>
