<svg width="1280" height="914" viewBox="0 0 1280 914" fill="none" xmlns="http://www.w3.org/2000/svg">
<g opacity="0.7419">
<g opacity="0.7419">
<path opacity="0.7419" d="M1476.9 12.1263C1477.14 11.2188 1479.25 10.0219 1481.55 9.43004C1483.87 8.83344 1485.5 9.04934 1485.29 9.93133C1485.07 10.7973 1483.07 12.0508 1480.73 12.6729C1478.42 13.3016 1476.66 13.0338 1476.9 12.1263ZM1449.72 20.5095C1450.05 19.4886 1452.24 18.0566 1454.65 17.2777C1457.02 16.5083 1458.67 16.6666 1458.38 17.6411C1458.1 18.6318 1455.94 20.1233 1453.54 20.9343C1451.11 21.7387 1449.41 21.5257 1449.72 20.5095ZM1421.82 30.8845C1422.23 29.7871 1424.58 28.1331 1427.01 27.1908C1429.44 26.2486 1431.05 26.3313 1430.67 27.4193C1430.29 28.4912 1428.02 30.1905 1425.56 31.1583C1423.11 32.11 1421.41 31.9819 1421.82 30.8845ZM1393.49 43.0603C1394 41.8976 1396.45 40.0934 1398.93 38.9783C1401.38 37.8727 1402.96 37.8961 1402.47 39.0332C1401.99 40.1703 1399.59 42.0454 1397.11 43.1605C1394.59 44.2897 1392.98 44.2229 1393.49 43.0603ZM1364.93 56.8904C1365.56 55.6947 1368.14 53.7307 1370.59 52.4826C1373.06 51.2505 1374.54 51.1804 1373.94 52.3667C1373.35 53.553 1370.86 55.5622 1368.37 56.8198C1365.86 58.0661 1364.29 58.0909 1364.93 56.8904ZM1336.42 72.1726C1337.16 70.9437 1339.77 68.8645 1342.26 67.4851C1344.72 66.1151 1346.11 65.9838 1345.41 67.2032C1344.7 68.4227 1342.12 70.5612 1339.65 71.9199C1337.11 73.3135 1335.69 73.4015 1336.42 72.1726ZM1308.17 88.7556C1309.03 87.5096 1311.72 85.301 1314.14 83.8395C1316.56 82.3733 1317.85 82.1694 1317.03 83.4059C1316.2 84.6424 1313.58 86.8801 1311.12 88.3558C1308.66 89.8315 1307.32 90.0016 1308.17 88.7556ZM1280.45 106.421C1281.38 105.151 1284.1 102.869 1286.49 101.291C1288.86 99.7377 1290.02 99.4658 1289.11 100.726C1288.2 101.991 1285.54 104.328 1283.14 105.89C1280.71 107.494 1279.52 107.691 1280.45 106.421ZM1253.48 125.034C1254.49 123.725 1257.22 121.348 1259.54 119.724C1261.84 118.084 1262.87 117.797 1261.89 119.081C1260.89 120.37 1258.23 122.797 1255.9 124.425C1253.58 126.07 1252.47 126.343 1253.48 125.034ZM1227.53 144.392C1228.6 143.048 1231.29 140.58 1233.53 138.874C1235.73 137.177 1236.65 136.871 1235.61 138.205C1234.56 139.529 1231.93 142.031 1229.69 143.737C1227.45 145.464 1226.47 145.752 1227.53 144.392ZM1202.85 164.318C1203.93 162.916 1206.56 160.361 1208.65 158.629C1210.76 156.892 1211.56 156.603 1210.47 157.989C1209.38 159.374 1206.81 161.947 1204.71 163.7C1202.63 165.465 1201.76 165.72 1202.85 164.318ZM1179.64 184.646C1180.72 183.143 1183.22 180.52 1185.2 178.752C1187.19 176.979 1187.87 176.744 1186.78 178.198C1185.69 179.669 1183.26 182.305 1181.27 184.115C1179.32 185.926 1178.57 186.149 1179.64 184.646ZM1158.21 205.183C1159.24 203.573 1161.58 200.823 1163.4 199.065C1165.22 197.308 1165.83 197.128 1164.77 198.695C1163.72 200.262 1161.43 203.03 1159.65 204.847C1157.84 206.637 1157.19 206.794 1158.21 205.183ZM1138.73 225.773C1139.66 224 1141.78 221.142 1143.43 219.363C1145.08 217.604 1145.6 217.554 1144.64 219.267C1143.68 220.981 1141.6 223.862 1139.99 225.68C1138.37 227.518 1137.8 227.53 1138.73 225.773ZM1121.5 246.204C1122.29 244.246 1124.12 241.229 1125.58 239.506C1127.04 237.768 1127.51 237.89 1126.68 239.794C1125.84 241.697 1124.05 244.72 1122.64 246.513C1121.25 248.302 1120.72 248.161 1121.5 246.204ZM1104.65 271.025C1105.27 268.749 1107.16 264.861 1108.79 262.339C1110.44 259.793 1111.16 259.511 1110.5 261.658C1109.85 263.806 1108.11 267.721 1106.5 270.391C1104.91 273.041 1104.05 273.296 1104.65 271.025ZM1085.13 299.686C1085.59 297.072 1087.46 292.997 1089.22 290.613C1090.97 288.228 1091.93 288.294 1091.42 290.817C1090.91 293.34 1089.16 297.45 1087.45 299.942C1085.76 302.43 1084.67 302.296 1085.13 299.686ZM1064.24 326.813C1064.56 323.944 1066.42 319.769 1068.29 317.489C1070.17 315.209 1071.34 315.631 1070.96 318.429C1070.58 321.227 1068.86 325.45 1067.02 327.789C1065.2 330.139 1063.92 329.681 1064.24 326.813ZM1042.16 352.373C1042.36 349.331 1044.18 345.132 1046.17 342.957C1048.14 340.808 1049.5 341.47 1049.25 344.473C1049 347.477 1047.29 351.731 1045.36 353.924C1043.4 356.159 1041.94 355.42 1042.16 352.373ZM1018.99 376.46C1019.09 373.308 1020.88 369.099 1022.93 367.063C1024.98 365.028 1026.51 365.902 1026.39 369.026C1026.26 372.151 1024.55 376.405 1022.54 378.447C1020.52 380.526 1018.89 379.611 1018.99 376.46ZM994.888 399.022C994.868 395.818 996.643 391.666 998.785 389.761C1000.93 387.856 1002.61 388.878 1002.59 392.059C1002.57 395.256 1000.89 399.433 998.788 401.36C996.671 403.293 994.909 402.225 994.888 399.022ZM969.979 420.131C969.874 416.935 971.625 412.878 973.816 411.08C976.011 409.299 977.825 410.421 977.919 413.638C977.992 416.843 976.336 420.925 974.161 422.718C971.986 424.511 970.084 423.327 969.979 420.131ZM944.427 439.773C944.231 436.622 945.919 432.705 948.195 431.022C950.44 429.348 952.383 430.554 952.553 433.731C952.722 436.908 951.081 440.863 948.847 442.516C946.607 444.206 944.613 442.945 944.427 439.773ZM918.326 458.025C918.059 454.929 919.736 451.155 922.019 449.609C924.302 448.064 926.344 449.311 926.6 452.427C926.841 455.548 925.237 459.335 922.97 460.876C920.699 462.401 918.589 461.104 918.326 458.025ZM891.841 474.855C891.5 471.868 893.141 468.262 895.484 466.803C897.8 465.37 899.893 466.671 900.21 469.7C900.528 472.728 898.978 476.343 896.669 477.739C894.348 479.156 892.181 477.842 891.841 474.855ZM865.118 490.289C864.721 487.406 866.328 483.984 868.661 482.668C870.994 481.352 873.193 482.657 873.567 485.582C873.942 488.507 872.392 491.946 870.071 493.242C867.756 494.5 865.515 493.172 865.118 490.289ZM838.278 504.381C837.825 501.601 839.383 498.368 841.717 497.174C844.078 495.954 846.33 497.261 846.761 500.082C847.192 502.903 845.675 506.158 843.32 507.341C841.004 508.478 838.732 507.16 838.278 504.381ZM811.475 517.118C810.981 514.438 812.486 511.378 814.821 510.305C817.151 509.217 819.44 510.53 819.911 513.252C820.394 515.953 818.915 519.04 816.591 520.092C814.279 521.123 811.969 519.798 811.475 517.118ZM784.808 528.542C784.274 525.961 785.74 523.069 788.035 522.096C790.382 521.124 792.644 522.463 793.171 525.081C793.699 527.698 792.269 530.597 789.949 531.543C787.661 532.48 785.347 531.139 784.808 528.542ZM758.493 538.676C757.925 536.157 759.328 533.406 761.608 532.559C763.887 531.712 766.19 533.074 766.752 535.629C767.309 538.169 765.91 540.936 763.642 541.762C761.353 542.577 759.045 541.199 758.493 538.676ZM732.572 547.542C731.976 545.049 733.328 542.418 735.571 541.686C737.831 540.95 740.105 542.39 740.684 544.888C741.264 547.386 739.944 550.008 737.685 550.744C735.441 551.475 733.147 550.024 732.572 547.542ZM707.037 554.585C706.441 552.092 707.753 549.682 709.974 549.167C712.194 548.651 714.489 550.224 715.085 552.717C715.681 555.21 714.371 557.69 712.151 558.205C709.942 558.7 707.644 557.058 707.037 554.585ZM681.67 558.474C681.047 556.007 682.336 553.812 684.531 553.566C686.758 553.31 689.03 555.1 689.637 557.572C690.245 560.044 688.986 562.282 686.775 562.533C684.591 562.758 682.289 560.926 681.67 558.474ZM656.529 559.575C655.878 557.133 657.128 555.16 659.315 555.125C661.503 555.091 663.806 557.045 664.441 559.492C665.075 561.939 663.824 563.965 661.652 563.995C659.476 564.009 657.174 562.001 656.529 559.575ZM631.532 558.331C630.859 555.931 632.055 554.13 634.23 554.291C636.427 554.463 638.715 556.544 639.388 558.945C640.066 561.361 638.864 563.198 636.683 563.022C634.524 562.856 632.21 560.748 631.532 558.331ZM606.697 555.208C605.98 552.838 607.134 551.19 609.304 551.509C611.458 551.833 613.806 554.001 614.523 556.371C615.239 558.741 614.047 560.436 611.91 560.107C609.751 559.767 607.425 557.558 606.697 555.208ZM581.945 550.595C581.174 548.276 582.296 546.759 584.463 547.184C586.634 547.625 588.981 549.846 589.74 552.186C590.496 554.51 589.388 556.075 587.212 555.618C585.073 555.167 582.717 552.914 581.945 550.595ZM557.277 544.964C556.467 542.691 557.512 541.266 559.686 541.776C561.839 542.275 564.237 544.55 565.047 546.823C565.841 549.101 564.752 550.556 562.627 550.031C560.469 549.517 558.103 547.232 557.277 544.964ZM532.645 538.745C531.78 536.524 532.812 535.173 534.959 535.708C537.105 536.244 539.551 538.505 540.4 540.732C541.249 542.958 540.189 544.335 538.07 543.774C535.956 543.228 533.51 540.967 532.645 538.745ZM508.039 532.38C507.125 530.225 508.092 528.893 510.26 529.44C512.406 529.976 514.896 532.207 515.799 534.382C516.702 536.558 515.682 537.888 513.563 537.327C511.407 536.759 508.959 534.551 508.039 532.38ZM483.397 526.304C482.428 524.201 483.395 522.869 485.537 523.388C487.69 523.887 490.225 526.035 491.167 528.164C492.109 530.293 491.132 531.593 489.011 531.085C486.881 530.545 484.367 528.408 483.397 526.304ZM458.704 520.942C457.696 518.884 458.622 517.53 460.793 517.971C462.943 518.401 465.518 520.449 466.515 522.528C467.512 524.606 466.56 525.933 464.421 525.482C462.266 525.037 459.712 522.999 458.704 520.942ZM433.937 516.752C432.886 514.725 433.782 513.326 435.936 513.651C438.105 513.97 440.712 515.887 441.768 517.931C442.803 519.963 441.903 521.345 439.749 521.02C437.59 520.68 434.989 518.779 433.937 516.752ZM409.035 514.172C407.945 512.191 408.813 510.696 411.004 510.852C413.179 511.013 415.833 512.795 416.923 514.775C417.997 516.761 417.104 518.228 414.961 518.058C412.765 517.886 410.125 516.153 409.035 514.172ZM384.02 513.631C382.886 511.68 383.748 510.048 385.924 510.034C388.112 509.999 390.819 511.608 391.92 513.568C393.038 515.524 392.162 517.108 389.986 517.122C387.825 517.131 385.132 515.57 384.02 513.631ZM358.791 515.56C357.646 513.63 358.481 511.849 360.708 511.593C362.903 511.347 365.65 512.735 366.794 514.665C367.939 516.595 367.058 518.337 364.879 518.579C362.652 518.835 359.935 517.49 358.791 515.56ZM333.38 520.421C332.208 518.517 333.061 516.504 335.266 515.993C337.486 515.478 340.251 516.633 341.407 518.542C342.563 520.451 341.691 522.401 339.487 522.911C337.287 523.438 334.536 522.331 333.38 520.421ZM305.852 527.686C304.717 525.788 305.8 523.725 308.279 523.081C310.774 522.432 313.708 523.45 314.88 525.355C316.036 527.264 314.99 529.334 312.463 529.992C309.968 530.641 306.992 529.6 305.852 527.686ZM276.242 535.164C275.191 533.258 276.449 531.195 279.045 530.534C281.641 529.873 284.644 530.889 285.727 532.785C286.809 534.681 285.566 536.792 282.944 537.426C280.316 538.096 277.292 537.069 276.242 535.164ZM245.214 542.746C244.306 540.85 245.792 538.79 248.489 538.117C251.223 537.45 254.168 538.448 255.129 540.345C256.09 542.242 254.683 544.331 251.896 544.996C249.141 545.652 246.138 544.636 245.214 542.746ZM213.089 550.39C212.36 548.511 214.074 546.454 216.876 545.784C219.663 545.119 222.567 546.094 223.348 547.974C224.129 549.854 222.463 551.951 219.623 552.614C216.747 553.27 213.801 552.273 213.089 550.39ZM179.971 558.099C179.475 556.24 181.432 554.18 184.303 553.508C187.191 552.83 189.936 553.8 190.501 555.656C191.071 557.529 189.204 559.597 186.232 560.282C183.291 560.958 180.467 559.959 179.971 558.099ZM146.185 565.849C145.953 563.999 148.163 561.969 151.083 561.283C153.986 560.601 156.585 561.544 156.906 563.403C157.223 565.245 155.08 567.325 152.087 567.999C149.093 568.672 146.417 567.7 146.185 565.849ZM111.873 573.65C111.911 571.825 114.401 569.8 117.341 569.124C120.282 568.449 122.68 569.364 122.732 571.197C122.784 573.031 120.389 575.08 117.363 575.763C114.312 576.419 111.836 575.475 111.873 573.65ZM77.3178 581.453C77.6402 579.648 80.3465 577.646 83.3351 576.957C86.2917 576.276 88.4573 577.173 88.2245 578.986C87.9918 580.799 85.3479 582.834 82.3016 583.506C79.228 584.203 76.9953 583.257 77.3178 581.453ZM42.6933 589.258C43.3217 587.485 46.2924 585.493 49.2489 584.813C52.2055 584.132 54.1388 585.01 53.6001 586.791C53.0615 588.572 50.206 590.6 47.1597 591.272C44.1022 591.965 42.0697 591.047 42.6933 589.258ZM8.2596 597.059C9.17313 595.307 12.3279 593.348 15.2958 592.647C18.2363 591.971 19.9053 592.84 19.0814 594.6C18.2576 596.361 15.1859 598.366 12.1765 599.044C9.11896 599.736 7.36685 598.823 8.2596 597.059ZM-25.7974 604.837C-24.6195 603.094 -21.2324 601.153 -18.3448 600.476C-15.4411 599.794 -14.0365 600.653 -15.1295 602.388C-16.2224 604.124 -19.4687 606.128 -22.4461 606.797C-25.4234 607.465 -26.9753 606.58 -25.7974 604.837ZM-59.2228 612.568C-57.8127 610.844 -54.2943 608.934 -51.4275 608.245C-48.588 607.582 -47.4365 608.411 -48.7777 610.133C-50.119 611.854 -53.5126 613.832 -56.437 614.502C-59.3615 615.173 -60.633 614.292 -59.2228 612.568ZM-91.8259 620.248C-90.1995 618.547 -86.5434 616.632 -83.7728 615.972C-81.0022 615.311 -80.099 616.126 -81.6518 617.84C-83.2045 619.554 -86.7246 621.517 -89.5481 622.175C-92.3923 622.822 -93.4523 621.949 -91.8259 620.248ZM-123.368 627.86C-121.583 626.164 -117.885 624.271 -115.167 623.609C-112.487 622.941 -111.806 623.769 -113.554 625.471C-115.286 627.168 -118.864 629.113 -121.582 629.775C-124.336 630.43 -125.153 629.555 -123.368 627.86ZM-153.647 635.378C-151.74 633.681 -148.001 631.811 -145.437 631.159C-142.873 630.508 -142.388 631.324 -144.258 633.027C-146.133 634.714 -149.694 636.654 -152.295 637.299C-154.88 637.939 -155.537 637.069 -153.647 635.378ZM-182.419 642.8C-180.459 641.106 -176.772 639.233 -174.31 638.594C-171.863 637.96 -171.553 638.775 -173.496 640.465C-175.44 642.154 -178.937 644.076 -181.379 644.726C-183.874 645.375 -184.378 644.494 -182.419 642.8ZM-206.58 651.897C-204.671 650.148 -201.348 648.052 -199.296 647.202C-197.244 646.353 -197.258 647.072 -199.192 648.794C-201.127 650.516 -204.239 652.62 -206.265 653.497C-208.28 654.353 -208.489 653.646 -206.58 651.897ZM-229.887 662.766C-228.117 660.901 -224.913 658.578 -222.878 657.612C-220.811 656.636 -220.725 657.343 -222.541 659.169C-224.357 660.996 -227.359 663.294 -229.375 664.325C-231.38 665.335 -231.652 664.647 -229.887 662.766ZM-252.909 675.016C-251.355 672.953 -248.359 670.395 -246.321 669.323C-244.298 668.255 -244.055 669.021 -245.686 671.002C-247.312 672.999 -250.159 675.531 -252.109 676.664C-254.055 677.814 -254.464 677.08 -252.909 675.016ZM-275.611 688.532C-274.329 686.253 -271.573 683.417 -269.562 682.248C-267.536 681.075 -267.09 681.938 -268.464 684.139C-269.838 686.341 -272.445 689.151 -274.379 690.402C-276.313 691.652 -276.892 690.812 -275.611 688.532ZM-297.91 703.116C-296.952 700.566 -294.504 697.454 -292.506 696.184C-290.535 694.94 -289.856 695.944 -290.927 698.405C-291.997 700.866 -294.333 703.945 -296.207 705.282C-298.091 706.64 -298.867 705.666 -297.91 703.116ZM-319.755 718.647C-319.147 715.799 -317.016 712.379 -315.085 711.06C-313.138 709.736 -312.195 710.923 -312.921 713.666C-313.647 716.409 -315.67 719.78 -317.504 721.192C-319.337 722.605 -320.367 721.479 -319.755 718.647ZM-341.065 734.927C-340.839 731.79 -339.094 728.066 -337.187 726.667C-335.291 725.288 -334.064 726.67 -334.419 729.723C-334.775 732.775 -336.469 736.432 -338.231 737.911C-340.009 739.395 -341.291 738.064 -341.065 734.927ZM-361.788 751.837C-361.953 748.379 -360.574 744.362 -358.729 742.928C-356.885 741.495 -355.363 743.104 -355.332 746.461C-355.286 749.814 -356.631 753.769 -358.346 755.287C-360.057 756.82 -361.623 755.294 -361.788 751.837ZM-381.818 769.205C-382.386 765.447 -381.399 761.162 -379.59 759.669C-377.807 758.201 -376.013 760.027 -375.564 763.679C-375.13 767.337 -376.103 771.548 -377.768 773.121C-379.464 774.702 -381.271 772.951 -381.818 769.205ZM-401.165 786.877C-402.114 782.831 -401.489 778.268 -399.785 776.772C-398.065 775.27 -395.993 777.328 -395.157 781.285C-394.322 785.242 -394.959 789.704 -396.55 791.289C-398.14 792.875 -400.216 790.923 -401.165 786.877ZM-419.67 804.685C-420.987 800.398 -420.756 795.621 -419.099 794.085C-417.452 792.57 -415.123 794.849 -413.931 799.067C-412.723 803.281 -413.014 807.972 -414.536 809.554C-416.085 811.162 -418.365 808.992 -419.67 804.685ZM-437.35 822.51C-438.997 817.99 -439.088 813.011 -437.542 811.508C-435.981 810.001 -433.425 812.457 -431.887 816.905C-430.348 821.352 -430.295 826.203 -431.764 827.788C-433.201 829.363 -435.703 827.031 -437.35 822.51ZM-454.075 840.142C-455.997 835.459 -456.438 830.356 -454.951 828.836C-453.49 827.341 -450.744 829.967 -448.905 834.605C-447.066 839.244 -446.732 844.221 -448.105 845.777C-449.493 847.338 -452.137 844.821 -454.075 840.142ZM-469.81 857.464C-471.961 852.656 -472.669 847.475 -471.294 845.988C-469.93 844.522 -467.045 847.264 -464.957 852.038C-462.868 856.812 -462.272 861.852 -463.573 863.352C-464.882 864.889 -467.66 862.272 -469.81 857.464ZM-484.485 874.299C-486.804 869.454 -487.745 864.254 -486.466 862.795C-485.198 861.357 -482.248 864.203 -479.982 869.046C-477.7 873.885 -476.908 878.937 -478.139 880.381C-479.36 881.858 -482.167 879.145 -484.485 874.299Z" fill="url(#paint0_linear_351_878)"/>
</g>
</g>
<defs>
<linearGradient id="paint0_linear_351_878" x1="1270.33" y1="262.453" x2="185.655" y2="914.027" gradientUnits="userSpaceOnUse">
<stop stop-color="#07EDD2"/>
<stop offset="1" stop-color="#9C63F7"/>
</linearGradient>
</defs>
</svg>
