<svg width="1280" height="483" viewBox="0 0 1280 483" fill="none" xmlns="http://www.w3.org/2000/svg">
<g opacity="0.2258">
<g opacity="0.2258">
<path opacity="0.2258" d="M1377.61 -172.328C1377.42 -173.51 1378.02 -174.68 1378.97 -174.996C1379.93 -175.296 1380.89 -174.601 1381.09 -173.424C1381.29 -172.242 1380.64 -171.004 1379.68 -170.704C1378.72 -170.404 1377.81 -171.146 1377.61 -172.328ZM1355.11 -165.115C1354.94 -166.286 1355.49 -167.442 1356.4 -167.728C1357.29 -168.025 1358.18 -167.327 1358.35 -166.156C1358.53 -164.99 1357.95 -163.788 1357.04 -163.502C1356.14 -163.221 1355.3 -163.949 1355.11 -165.115ZM1333.92 -158.132C1333.78 -159.275 1334.32 -160.394 1335.16 -160.677C1336 -160.96 1336.83 -160.28 1336.97 -159.137C1337.13 -157.998 1336.56 -156.817 1335.72 -156.534C1334.87 -156.267 1334.07 -156.989 1333.92 -158.132ZM1313.85 -151.305C1313.74 -152.405 1314.3 -153.513 1315.1 -153.803C1315.91 -154.076 1316.66 -153.425 1316.78 -152.309C1316.9 -151.193 1316.33 -150.049 1315.52 -149.775C1314.71 -149.502 1313.97 -150.206 1313.85 -151.305ZM1294.67 -144.601C1294.6 -145.663 1295.14 -146.745 1295.91 -147.025C1296.68 -147.305 1297.37 -146.672 1297.45 -145.595C1297.52 -144.518 1296.96 -143.41 1296.18 -143.146C1295.41 -142.866 1294.74 -143.524 1294.67 -144.601ZM1276.16 -137.937C1276.13 -138.976 1276.71 -140.02 1277.45 -140.29C1278.19 -140.561 1278.84 -139.951 1278.87 -138.928C1278.89 -137.89 1278.3 -136.809 1277.55 -136.534C1276.8 -136.279 1276.18 -136.915 1276.16 -137.937ZM1258.08 -131.28C1258.1 -132.279 1258.69 -133.291 1259.41 -133.557C1260.15 -133.828 1260.74 -133.251 1260.72 -132.251C1260.7 -131.251 1260.09 -130.198 1259.35 -129.928C1258.62 -129.678 1258.06 -130.28 1258.08 -131.28ZM1240.22 -124.545C1240.28 -125.507 1240.91 -126.512 1241.65 -126.782C1242.37 -127.064 1242.93 -126.515 1242.87 -125.554C1242.8 -124.593 1242.15 -123.562 1241.42 -123.296C1240.68 -123.026 1240.15 -123.584 1240.22 -124.545ZM1222.35 -117.706C1222.46 -118.644 1223.11 -119.622 1223.83 -119.904C1224.56 -120.19 1225.08 -119.664 1224.99 -118.73C1224.89 -117.792 1224.21 -116.788 1223.47 -116.502C1222.74 -116.215 1222.24 -116.767 1222.35 -117.706ZM1204.24 -110.673C1204.37 -111.584 1205.08 -112.56 1205.83 -112.851C1206.55 -113.133 1207.08 -112.644 1206.95 -111.732C1206.81 -110.821 1206.06 -109.815 1205.33 -109.528C1204.56 -109.232 1204.09 -109.757 1204.24 -110.673ZM1185.68 -103.418C1185.85 -104.323 1186.57 -105.303 1187.34 -105.599C1188.1 -105.895 1188.61 -105.417 1188.46 -104.517C1188.29 -103.612 1187.52 -102.618 1186.75 -102.306C1185.99 -101.993 1185.53 -102.502 1185.68 -103.418ZM1166.44 -95.8423C1166.62 -96.7517 1167.38 -97.7418 1168.21 -98.0568C1168.99 -98.3576 1169.53 -97.8888 1169.36 -96.9842C1169.19 -96.0795 1168.36 -95.0658 1167.58 -94.7489C1166.73 -94.4292 1166.27 -94.9377 1166.44 -95.8423ZM1146.3 -87.9328C1146.49 -88.8583 1147.28 -89.8786 1148.13 -90.2144C1148.97 -90.5502 1149.53 -90.0701 1149.35 -89.1286C1149.17 -88.2032 1148.33 -87.1687 1147.48 -86.8329C1146.64 -86.497 1146.12 -87.0074 1146.3 -87.9328ZM1125.02 -79.6136C1125.19 -80.5872 1126.01 -81.633 1126.92 -81.9877C1127.79 -82.333 1128.43 -81.8398 1128.26 -80.8823C1128.08 -79.9248 1127.2 -78.8279 1126.33 -78.4827C1125.42 -78.1279 1124.87 -78.6448 1125.02 -79.6136ZM1102.42 -70.8214C1102.54 -71.8497 1103.39 -72.9738 1104.35 -73.3267C1105.31 -73.6957 1105.99 -73.1637 1105.87 -72.1515C1105.73 -71.1345 1104.85 -70.0009 1103.9 -69.6159C1102.93 -69.2422 1102.29 -69.8044 1102.42 -70.8214ZM1077.88 -61.5414C1077.96 -62.6452 1078.85 -63.8317 1079.9 -64.213C1080.96 -64.5943 1081.78 -64.036 1081.71 -62.9322C1081.63 -61.8445 1080.67 -60.6183 1079.61 -60.2209C1078.57 -59.8444 1077.81 -60.4376 1077.88 -61.5414ZM1051.11 -51.7253C1051.15 -52.8885 1052.06 -54.1534 1053.2 -54.5744C1054.33 -54.9794 1055.22 -54.3871 1055.17 -53.2192C1055.12 -52.056 1054.16 -50.7608 1053.03 -50.3398C1051.92 -49.9235 1051.07 -50.562 1051.11 -51.7253ZM1022.67 -41.3159C1022.68 -42.5385 1023.62 -43.8611 1024.82 -44.285C1026.01 -44.7249 1026.98 -44.0874 1026.97 -42.8808C1026.96 -41.6742 1025.99 -40.3214 1024.79 -39.8815C1023.61 -39.4463 1022.68 -40.114 1022.67 -41.3159ZM992.904 -30.4769C992.884 -31.727 993.826 -33.0863 995.07 -33.5404C996.314 -33.9945 997.361 -33.3439 997.376 -32.1099C997.396 -30.8599 996.395 -29.4655 995.167 -29.0161C993.927 -28.5459 992.929 -29.2108 992.904 -30.4769ZM961.945 -19.2347C961.883 -20.5074 962.869 -21.897 964.145 -22.3606C965.421 -22.8242 966.521 -22.1717 966.582 -20.899C966.627 -19.6216 965.635 -18.1952 964.343 -17.7269C963.058 -17.2954 962.001 -17.9781 961.945 -19.2347ZM930.109 -7.76906C930.027 -9.05304 931.008 -10.4587 932.316 -10.9318C933.64 -11.4096 934.777 -10.7505 934.859 -9.46652C934.941 -8.18254 933.922 -6.73062 932.613 -6.25754C931.3 -5.80051 930.191 -6.48508 930.109 -7.76906ZM897.59 3.86329C897.492 2.58404 898.468 1.16235 899.793 0.684533C901.133 0.201988 902.317 0.846881 902.42 2.14217C902.519 3.42142 901.52 4.88464 900.175 5.35114C898.834 5.83368 897.693 5.15858 897.59 3.86329ZM864.651 15.5497C864.521 14.28 865.497 12.8583 866.858 12.3871C868.215 11.8998 869.42 12.556 869.55 13.8258C869.664 15.1003 868.661 16.5475 867.321 17.03C865.96 17.5012 864.786 16.8356 864.651 15.5497ZM831.508 27.192C831.361 25.927 832.326 24.5261 833.687 24.0548C835.048 23.5836 836.265 24.219 836.411 25.4841C836.557 26.7491 835.57 28.1916 834.209 28.6628C832.848 29.1341 831.654 28.4571 831.508 27.192ZM798.406 38.6823C798.248 37.438 799.218 36.0531 800.579 35.5819C801.892 35.1249 803.157 35.7461 803.314 36.9904C803.472 38.2346 802.464 39.6658 801.151 40.1228C799.785 40.578 798.564 39.9265 798.406 38.6823ZM765.605 49.8919C765.436 48.6684 766.363 47.3137 767.692 46.852C769.021 46.3902 770.253 47.0209 770.422 48.2444C770.591 49.4679 769.642 50.8641 768.309 51.3098C766.984 51.7876 765.779 51.1314 765.605 49.8919ZM733.314 60.7593C733.134 59.5566 734.065 58.218 735.335 57.7912C736.636 57.355 737.896 57.9601 738.06 59.1676C738.241 60.3703 737.287 61.7504 735.981 62.1706C734.716 62.6134 733.495 61.962 733.314 60.7593ZM701.808 71.1512C701.632 69.9645 702.492 68.6817 703.766 68.271C705.041 67.8602 706.232 68.4683 706.407 69.6549C706.583 70.8416 705.7 72.166 704.426 72.5767C703.152 72.9874 701.983 72.3378 701.808 71.1512ZM671.268 80.9787C671.081 79.8128 671.898 78.5602 673.145 78.175C674.371 77.7784 675.562 78.3865 675.733 79.5571C675.92 80.723 675.033 82.0313 673.802 82.4118C672.575 82.8084 671.455 82.1445 671.268 80.9787ZM641.996 90.1358C641.814 88.986 642.592 87.7797 643.775 87.4134C644.942 87.0518 646.052 87.6835 646.235 88.8334C646.417 89.9832 645.621 91.2471 644.433 91.5973C643.267 91.9589 642.178 91.2856 641.996 90.1358ZM614.186 98.5129C614.004 97.363 614.739 96.187 615.846 95.8604C616.953 95.5338 618 96.1845 618.177 97.3183C618.359 98.4681 617.602 99.6857 616.495 100.012C615.392 100.355 614.368 99.6627 614.186 98.5129ZM588.345 105.699C588.167 104.565 588.836 103.461 589.84 103.199C590.865 102.949 591.841 103.656 592.019 104.79C592.196 105.923 591.51 107.085 590.484 107.335C589.464 107.601 588.527 106.849 588.345 105.699ZM564.224 110.144C564.047 109.011 564.67 107.99 565.627 107.864C566.585 107.739 567.547 108.519 567.729 109.669C567.907 110.803 567.245 111.87 566.276 112.016C565.319 112.141 564.406 111.294 564.224 110.144ZM541.396 111.994C541.219 110.86 541.813 109.917 542.725 109.875C543.642 109.849 544.527 110.721 544.704 111.855C544.882 112.989 544.27 113.989 543.353 114.015C542.425 114.062 541.574 113.127 541.396 111.994ZM519.609 111.635C519.443 110.48 520.007 109.616 520.874 109.657C521.746 109.714 522.597 110.649 522.763 111.803C522.929 112.958 522.347 113.88 521.475 113.823C520.592 113.786 519.77 112.773 519.609 111.635ZM498.705 109.48C498.554 108.321 499.097 107.498 499.934 107.617C500.772 107.737 501.594 108.75 501.739 109.893C501.889 111.052 501.324 111.917 500.476 111.818C499.638 111.699 498.85 110.623 498.705 109.48ZM478.437 105.934C478.303 104.77 478.838 103.984 479.653 104.145C480.468 104.306 481.252 105.366 481.386 106.53C481.52 107.694 480.966 108.537 480.135 108.381C479.331 108.2 478.571 107.098 478.437 105.934ZM458.664 101.405C458.546 100.237 459.102 99.4619 459.91 99.6596C460.719 99.8572 461.459 100.947 461.582 102.132C461.7 103.301 461.141 104.128 460.333 103.931C459.52 103.717 458.781 102.574 458.664 101.405ZM439.191 96.2992C439.085 95.1097 439.641 94.335 440.438 94.5535C441.235 94.7719 441.964 95.8826 442.071 97.0721C442.177 98.2617 441.598 99.0779 440.801 98.8594C439.988 98.6458 439.277 97.4774 439.191 96.2992ZM419.773 91.0203C419.698 89.8213 420.275 89.058 421.068 89.2603C421.865 89.4788 422.577 90.5942 422.652 91.7932C422.727 92.9922 422.147 93.8084 421.35 93.59C420.558 93.3876 419.847 92.2193 419.773 91.0203ZM400.25 85.9813C400.192 84.7775 400.776 83.9774 401.568 84.1798C402.376 84.3774 403.073 85.4976 403.148 86.6966C403.206 87.9003 402.6 88.742 401.791 88.5444C400.999 88.342 400.325 87.1803 400.25 85.9813ZM380.426 81.5722C380.383 80.3637 381.006 79.5173 381.825 79.6942C382.64 79.855 383.353 80.9704 383.395 82.1789C383.438 83.3874 382.809 84.2706 381.978 84.1145C381.158 83.9377 380.468 82.7807 380.426 81.5722ZM360.104 78.1993C360.073 76.97 360.718 76.082 361.555 76.2013C362.393 76.3205 363.108 77.3831 363.139 78.6124C363.17 79.8416 362.497 80.7551 361.649 80.6566C360.811 80.5374 360.119 79.4332 360.104 78.1993ZM339.064 76.2941C339.049 75.0601 339.749 74.1211 340.615 74.162C341.487 74.2189 342.224 75.2399 342.235 76.4578C342.25 77.6918 341.543 78.6677 340.677 78.6268C339.794 78.5906 339.074 77.512 339.064 76.2941ZM317.139 76.2373C317.14 74.9986 317.853 73.9859 318.765 73.9436C319.682 73.9175 320.432 74.8648 320.447 76.0988C320.462 77.3328 319.711 78.3917 318.794 78.4179C317.866 78.4649 317.149 77.4552 317.139 76.2373ZM294.114 78.4237C294.115 77.1849 294.873 76.0892 295.862 75.9543C296.799 75.8176 297.62 76.7093 297.619 77.948C297.618 79.1867 296.805 80.3335 295.864 80.4541C294.875 80.589 294.113 79.6624 294.114 78.4237ZM269.82 83.2868C269.821 82.048 270.62 80.8531 271.645 80.603C272.67 80.353 273.495 81.1389 273.494 82.3776C273.493 83.6163 272.651 84.8415 271.646 85.1028C270.621 85.3529 269.819 84.5255 269.82 83.2868ZM243.275 91.5175C243.276 90.2788 244.179 88.9657 245.348 88.5513C246.452 88.1558 247.398 88.8188 247.397 90.0575C247.396 91.2962 246.438 92.6603 245.333 93.0558C244.165 93.4702 243.274 92.7562 243.275 91.5175ZM214.403 103.156C214.404 101.917 215.364 100.5 216.585 99.9655C217.805 99.4311 218.791 99.9949 218.79 101.234C218.789 102.472 217.79 103.936 216.586 104.465C215.366 105 214.402 104.394 214.403 103.156ZM183.731 117.679C183.716 116.445 184.722 114.945 185.999 114.307C187.275 113.669 188.371 114.13 188.386 115.364C188.401 116.598 187.341 118.15 186.064 118.788C184.787 119.426 183.747 118.913 183.731 117.679ZM151.605 134.603C151.557 133.379 152.581 131.821 153.919 131.095C155.257 130.369 156.382 130.752 156.429 131.977C156.476 133.201 155.43 134.801 154.092 135.527C152.77 136.248 151.668 135.823 151.605 134.603ZM118.24 153.48C118.144 152.27 119.169 150.659 120.558 149.866C121.941 149.056 123.137 149.384 123.232 150.594C123.327 151.805 122.28 153.457 120.907 154.245C119.524 155.055 118.335 154.69 118.24 153.48ZM83.9753 173.86C83.8157 172.669 84.836 171.042 86.2582 170.187C87.6804 169.331 88.9419 169.587 89.0854 170.783C89.2289 171.979 88.2181 173.638 86.7959 174.493C85.3897 175.344 84.1301 175.035 83.9753 173.86ZM49.028 195.296C48.809 194.14 49.7877 192.491 51.2325 191.594C52.6773 190.697 53.9984 190.917 54.206 192.095C54.409 193.256 53.4237 194.942 51.9949 195.834C50.5775 196.706 49.247 196.453 49.028 195.296ZM13.7592 217.299C13.476 216.161 14.4227 214.521 15.8628 213.608C17.3189 212.69 18.7041 212.892 18.9712 214.034C19.2383 215.177 18.3059 216.865 16.8611 217.762C15.4371 218.67 14.0471 218.452 13.7592 217.299ZM-21.6322 239.477C-21.9795 238.358 -21.097 236.737 -19.6362 235.835C-18.1914 234.938 -16.7467 235.105 -16.3994 236.224C-16.0681 237.347 -16.941 239 -18.3811 239.913C-19.8467 240.799 -21.2848 240.595 -21.6322 239.477ZM-56.7944 261.308C-57.2059 260.208 -56.3829 258.622 -54.9334 257.741C-53.4999 256.865 -52.0231 257.022 -51.6116 258.122C-51.2161 259.226 -52.0296 260.844 -53.4423 261.732C-54.8919 262.613 -56.3828 262.407 -56.7944 261.308ZM-91.5285 282.402C-92.0042 281.321 -91.2359 279.787 -89.8298 278.936C-88.4237 278.085 -86.9054 278.265 -86.4457 279.35C-85.986 280.436 -86.724 282.014 -88.1349 282.849C-89.525 283.695 -91.0575 283.467 -91.5285 282.402ZM-125.494 302.258C-126.013 301.208 -125.288 299.703 -123.916 298.915C-122.544 298.126 -121.016 298.338 -120.513 299.394C-119.994 300.444 -120.661 301.966 -122.033 302.755C-123.406 303.543 -124.975 303.309 -125.494 302.258ZM-158.389 320.421C-158.957 319.384 -158.325 317.977 -157.003 317.256C-155.676 316.55 -154.171 316.804 -153.599 317.856C-153.048 318.897 -153.633 320.343 -154.96 321.049C-156.287 321.754 -157.838 321.461 -158.389 320.421ZM-190.009 336.462C-190.608 335.436 -190.027 334.095 -188.761 333.478C-187.496 332.86 -186.004 333.188 -185.415 334.235C-184.832 335.267 -185.34 336.62 -186.606 337.238C-187.871 337.855 -189.405 337.505 -190.009 336.462ZM-220.003 349.914C-220.618 348.892 -220.125 347.665 -218.932 347.156C-217.735 346.663 -216.288 347.074 -215.688 348.101C-215.089 349.127 -215.536 350.393 -216.733 350.886C-217.906 351.406 -219.387 350.936 -220.003 349.914ZM-248.133 360.339C-248.733 359.312 -248.28 358.185 -247.198 357.831C-246.085 357.467 -244.678 357.977 -244.079 359.004C-243.48 360.031 -243.886 361.197 -245 361.56C-246.097 361.919 -247.534 361.366 -248.133 360.339ZM-273.936 368.072C-274.535 367.045 -274.174 365.962 -273.126 365.67C-272.079 365.379 -270.77 365.97 -270.171 366.996C-269.572 368.023 -269.891 369.129 -270.939 369.42C-271.966 369.723 -273.331 369.115 -273.936 368.072ZM-299.596 374.925C-300.195 373.898 -299.793 372.838 -298.768 372.588C-297.715 372.312 -296.382 372.931 -295.782 373.957C-295.183 374.984 -295.528 376.063 -296.58 376.338C-297.605 376.588 -298.997 375.952 -299.596 374.925ZM-325.38 381.065C-325.979 380.038 -325.583 379.014 -324.521 378.771C-323.459 378.528 -322.153 379.171 -321.559 380.182C-320.959 381.209 -321.313 382.255 -322.364 382.478C-323.437 382.742 -324.78 382.092 -325.38 381.065ZM-351.334 386.627C-351.912 385.612 -351.507 384.62 -350.436 384.409C-349.369 384.181 -348.047 384.82 -347.468 385.836C-346.89 386.851 -347.29 387.859 -348.341 388.082C-349.407 388.309 -350.755 387.643 -351.334 386.627ZM-377.34 391.716C-377.893 390.728 -377.463 389.764 -376.391 389.552C-375.336 389.346 -374.046 389.994 -373.488 390.998C-372.935 391.987 -373.324 392.974 -374.4 393.169C-375.476 393.364 -376.803 392.709 -377.34 391.716ZM-403.492 396.43C-404.009 395.448 -403.569 394.516 -402.492 394.321C-401.432 394.13 -400.131 394.758 -399.598 395.735C-399.066 396.711 -399.518 397.664 -400.578 397.855C-401.654 398.05 -402.96 397.406 -403.492 396.43ZM-429.647 400.9C-430.137 399.945 -429.656 399.036 -428.596 398.845C-427.531 398.671 -426.282 399.297 -425.775 400.246C-425.284 401.2 -425.725 402.132 -426.79 402.307C-427.87 402.486 -429.156 401.854 -429.647 400.9ZM-455.871 405.25C-456.336 404.324 -455.834 403.425 -454.753 403.246C-453.688 403.072 -452.46 403.686 -451.995 404.613C-451.529 405.54 -451.995 406.445 -453.076 406.624C-454.146 406.782 -455.406 406.177 -455.871 405.25ZM-482.056 409.555C-482.48 408.651 -481.952 407.78 -480.892 407.589C-479.827 407.415 -478.625 408.002 -478.201 408.906C-477.777 409.811 -478.268 410.688 -479.349 410.867C-480.41 411.058 -481.633 410.459 -482.056 409.555ZM-508.262 413.97C-508.66 413.093 -508.111 412.234 -507.035 412.039C-505.975 411.848 -504.793 412.424 -504.395 413.301C-503.997 414.178 -504.525 415.048 -505.59 415.223C-506.666 415.418 -507.879 414.852 -508.262 413.97ZM-534.426 418.583C-534.783 417.729 -534.202 416.859 -533.126 416.664C-532.065 416.474 -530.909 417.022 -530.537 417.872C-530.159 418.737 -530.713 419.581 -531.789 419.776C-532.861 419.987 -534.049 419.448 -534.426 418.583ZM-560.475 423.527C-560.811 422.685 -560.225 421.832 -559.17 421.625C-558.098 421.414 -556.984 421.939 -556.632 422.778C-556.28 423.616 -556.85 424.464 -557.921 424.675C-558.997 424.871 -560.144 424.354 -560.475 423.527ZM-586.47 428.892C-586.785 428.061 -586.167 427.198 -585.101 426.971C-584.034 426.743 -582.929 427.237 -582.614 428.069C-582.283 428.896 -582.868 429.749 -583.935 429.976C-585.007 430.187 -586.155 429.724 -586.47 428.892ZM-612.304 434.803C-612.614 433.987 -612.017 433.113 -610.955 432.87C-609.898 432.61 -608.798 433.088 -608.487 433.904C-608.177 434.719 -608.779 435.577 -609.82 435.832C-610.898 436.08 -612.01 435.623 -612.304 434.803ZM-638.029 441.379C-638.334 440.579 -637.731 439.668 -636.662 439.388C-635.61 439.113 -634.524 439.542 -634.229 440.363C-633.924 441.162 -634.516 442.052 -635.569 442.327C-636.632 442.624 -637.719 442.194 -638.029 441.379Z" fill="url(#paint0_linear_351_766)"/>
</g>
</g>
<defs>
<linearGradient id="paint0_linear_351_766" x1="1118.56" y1="-92.8823" x2="406.956" y2="729.85" gradientUnits="userSpaceOnUse">
<stop stop-color="#07EDD2"/>
<stop offset="1" stop-color="#9C63F7"/>
</linearGradient>
</defs>
</svg>
