<svg width="1280" height="602" viewBox="0 0 1280 602" fill="none" xmlns="http://www.w3.org/2000/svg">
<g opacity="0.3548">
<g opacity="0.3548">
<path opacity="0.3548" d="M1383.69 -37.2973C1383.55 -38.9117 1384.57 -40.4694 1385.92 -40.7451C1387.3 -41.0304 1388.52 -39.9607 1388.65 -38.3416C1388.78 -36.7593 1387.79 -35.2111 1386.42 -34.9098C1385.06 -34.65 1383.83 -35.715 1383.69 -37.2973ZM1357.74 -32.6085C1357.64 -34.2003 1358.65 -35.6683 1360.01 -35.8959C1361.35 -36.1141 1362.53 -34.9981 1362.65 -33.4111C1362.76 -31.8562 1361.75 -30.3721 1360.4 -30.1652C1359.01 -29.9489 1357.83 -31.0489 1357.74 -32.6085ZM1331.95 -29.0312C1331.89 -30.5842 1332.96 -31.9815 1334.29 -32.1468C1335.65 -32.3216 1336.75 -31.1979 1336.81 -29.6288C1336.88 -28.0965 1335.86 -26.7135 1334.5 -26.5387C1333.17 -26.3894 1332 -27.5102 1331.95 -29.0312ZM1306.41 -26.2603C1306.42 -27.7634 1307.51 -29.0964 1308.85 -29.2296C1310.17 -29.3742 1311.23 -28.2411 1311.24 -26.7267C1311.25 -25.2444 1310.17 -23.9161 1308.85 -23.7876C1307.47 -23.661 1306.4 -24.7732 1306.41 -26.2603ZM1281.11 -23.9787C1281.19 -25.4318 1282.35 -26.7148 1283.64 -26.8178C1284.97 -26.9302 1285.95 -25.8424 1285.88 -24.3732C1285.81 -22.9409 1284.72 -21.6768 1283.39 -21.5643C1282.06 -21.468 1281.03 -22.5416 1281.11 -23.9787ZM1256.13 -21.8767C1256.27 -23.2798 1257.45 -24.4987 1258.75 -24.6224C1260.03 -24.7367 1260.96 -23.6875 1260.84 -22.2731C1260.71 -20.8908 1259.55 -19.6766 1258.24 -19.5689C1256.93 -19.4612 1255.99 -20.5104 1256.13 -21.8767ZM1231.48 -19.6674C1231.72 -21.0092 1232.95 -22.2101 1234.22 -22.3405C1235.51 -22.4755 1236.34 -21.4669 1236.13 -20.1137C1235.93 -18.7814 1234.75 -17.5946 1233.44 -17.4869C1232.15 -17.3679 1231.26 -18.3624 1231.48 -19.6674ZM1207.19 -17.0381C1207.49 -18.33 1208.78 -19.529 1210.05 -19.6754C1211.29 -19.8331 1212.07 -18.8952 1211.78 -17.5873C1211.49 -16.3003 1210.25 -15.1314 1208.99 -14.985C1207.72 -14.8386 1206.91 -15.7671 1207.19 -17.0381ZM1183.36 -13.6889C1183.72 -14.9468 1185.03 -16.1346 1186.28 -16.3451C1187.53 -16.5396 1188.2 -15.6743 1187.86 -14.4051C1187.51 -13.168 1186.25 -11.9945 1185 -11.7999C1183.74 -11.5847 1183.01 -12.4518 1183.36 -13.6889ZM1159.96 -9.28153C1160.39 -10.5055 1161.74 -11.7236 1162.97 -11.9823C1164.17 -12.2315 1164.8 -11.4417 1164.4 -10.2064C1164 -9.00797 1162.68 -7.7994 1161.48 -7.55016C1160.22 -7.29804 1159.55 -8.07836 1159.96 -9.28153ZM1137.06 -3.53863C1137.52 -4.75599 1138.88 -6.01085 1140.07 -6.34505C1141.26 -6.67925 1141.83 -5.95551 1141.36 -4.73815C1140.92 -3.54157 1139.61 -2.30093 1138.41 -1.98278C1137.2 -1.64384 1136.61 -2.3581 1137.06 -3.53863ZM1114.68 3.84768C1115.18 2.63689 1116.56 1.28759 1117.72 0.857112C1118.87 0.431363 1119.39 1.07955 1118.9 2.29033C1118.41 3.48033 1117.09 4.79464 1115.94 5.22039C1114.76 5.65561 1114.19 5.03768 1114.68 3.84768ZM1092.89 13.1869C1093.4 11.9553 1094.74 10.5145 1095.89 9.98299C1097.02 9.44018 1097.49 10.0337 1096.98 11.2492C1096.48 12.4439 1095.19 13.8706 1094.04 14.4182C1092.91 14.961 1092.4 14.3977 1092.89 13.1869ZM1071.69 24.8124C1072.19 23.5327 1073.53 21.9493 1074.63 21.2942C1075.71 20.6438 1076.18 21.1523 1075.68 22.416C1075.19 23.6589 1073.9 25.2073 1072.81 25.8785C1071.71 26.5336 1071.19 26.0601 1071.69 24.8124ZM1051.14 38.9858C1051.61 37.6419 1052.86 35.8961 1053.95 35.1031C1055.02 34.2988 1055.46 34.764 1054.99 36.0871C1054.52 37.3941 1053.32 39.1096 1052.25 39.9139C1051.18 40.7342 1050.69 40.2881 1051.14 38.9858ZM1031.16 56.0062C1031.57 54.5594 1032.82 52.639 1033.86 51.7384C1034.93 50.8123 1035.42 51.2104 1035 52.625C1034.59 54.0189 1033.43 55.9478 1032.37 56.8899C1031.32 57.8273 1030.76 57.4161 1031.16 56.0062ZM1009.81 73.0314C1010.16 71.4978 1011.43 69.5727 1012.6 68.7032C1013.76 67.8544 1014.38 68.3685 1014.01 69.8908C1013.67 71.3715 1012.46 73.3305 1011.31 74.1953C1010.14 75.0809 1009.47 74.5281 1009.81 73.0314ZM986.549 88.9629C986.844 87.3586 988.156 85.4192 989.401 84.6157C990.679 83.8028 991.392 84.4471 991.088 86.0194C990.796 87.5708 989.574 89.5186 988.317 90.3428C987.092 91.1576 986.262 90.5304 986.549 88.9629ZM961.667 103.837C961.899 102.199 963.211 100.26 964.556 99.4967C965.89 98.7545 966.744 99.4619 966.491 101.089C966.249 102.695 964.991 104.636 963.662 105.394C962.354 106.164 961.442 105.439 961.667 103.837ZM935.364 117.735C935.549 116.059 936.882 114.131 938.283 113.438C939.694 112.725 940.641 113.51 940.439 115.192C940.244 116.837 938.997 118.757 937.585 119.47C936.2 120.158 935.169 119.38 935.364 117.735ZM907.885 130.724C908.029 129.025 909.339 127.138 910.818 126.475C912.265 125.822 913.327 126.643 913.162 128.331C913.02 129.977 911.735 131.891 910.293 132.561C908.83 133.219 907.743 132.371 907.885 130.724ZM879.429 142.885C879.52 141.184 880.867 139.304 882.36 138.689C883.886 138.065 884.982 138.945 884.87 140.635C884.77 142.304 883.508 144.177 881.983 144.801C880.506 145.411 879.324 144.539 879.429 142.885ZM850.243 154.285C850.302 152.593 851.642 150.75 853.193 150.153C854.716 149.581 855.903 150.47 855.844 152.162C855.775 153.822 854.488 155.666 852.964 156.238C851.414 156.835 850.19 155.94 850.243 154.285ZM820.584 164.969C820.611 163.286 821.897 161.494 823.478 160.941C825.059 160.387 826.255 161.308 826.228 162.99C826.207 164.636 824.958 166.435 823.377 166.988C821.812 167.537 820.564 166.614 820.584 164.969ZM790.644 175.055C790.628 173.403 791.934 171.623 793.525 171.101C795.083 170.589 796.353 171.523 796.353 173.18C796.36 174.8 795.107 176.583 793.543 177.078C791.974 177.611 790.651 176.676 790.644 175.055ZM760.698 184.586C760.654 182.959 761.905 181.23 763.485 180.729C765.064 180.228 766.338 181.178 766.366 182.81C766.405 184.42 765.201 186.136 763.618 186.62C762.038 187.121 760.732 186.181 760.698 184.586ZM730.921 193.63C730.866 192.024 732.091 190.32 733.663 189.856C735.204 189.402 736.505 190.326 736.565 191.948C736.632 193.533 735.419 195.217 733.878 195.671C732.322 196.13 730.988 195.215 730.921 193.63ZM701.599 202.262C701.517 200.681 702.686 199.028 704.227 198.574C705.767 198.119 707.037 199.053 707.124 200.649C707.202 202.214 706.064 203.857 704.519 204.296C702.978 204.75 701.677 203.826 701.599 202.262ZM672.897 210.57C672.798 208.995 673.945 207.383 675.453 206.938C676.93 206.503 678.215 207.432 678.314 209.007C678.403 210.551 677.277 212.174 675.812 212.589C674.299 213.018 673.002 212.109 672.897 210.57ZM645.12 218.589C645.011 217.034 646.077 215.446 647.521 215.02C648.966 214.594 650.203 215.537 650.313 217.092C650.413 218.615 649.363 220.198 647.918 220.624C646.469 221.034 645.221 220.112 645.12 218.589ZM618.425 226.428C618.299 224.877 619.35 223.294 620.698 222.897C622.078 222.49 623.29 223.405 623.415 224.956C623.532 226.474 622.513 228.048 621.117 228.459C619.753 228.862 618.541 227.946 618.425 226.428ZM592.667 233.781C592.542 232.23 593.542 230.714 594.888 230.37C596.251 230.02 597.413 231.003 597.518 232.542C597.634 234.06 596.654 235.588 595.308 235.932C593.962 236.277 592.779 235.283 592.667 233.781ZM567.485 238.766C567.375 237.211 568.368 235.785 569.683 235.571C570.966 235.367 572.087 236.45 572.197 238.004C572.313 239.523 571.358 240.956 570.075 241.16C568.744 241.378 567.586 240.289 567.485 238.766ZM543.06 241.47C542.967 239.91 543.913 238.567 545.193 238.469C546.44 238.38 547.553 239.552 547.647 241.112C547.747 242.634 546.784 243.983 545.537 244.071C544.246 244.19 543.145 242.998 543.06 241.47ZM519.228 242.22C519.15 240.656 520.116 239.377 521.339 239.382C522.577 239.383 523.613 240.648 523.695 242.228C523.764 243.76 522.851 245.041 521.596 245.045C520.369 245.023 519.296 243.752 519.228 242.22ZM495.922 241.385C495.871 239.795 496.819 238.573 498.045 238.648C499.234 238.716 500.261 240.07 500.307 241.644C500.363 243.197 499.415 244.418 498.206 244.339C496.985 244.28 495.958 242.926 495.922 241.385ZM472.982 239.307C472.964 237.708 473.937 236.514 475.124 236.634C476.332 236.767 477.304 238.172 477.323 239.771C477.347 241.334 476.39 242.523 475.182 242.391C474 242.286 472.996 240.89 472.982 239.307ZM450.315 236.382C450.325 234.757 451.324 233.59 452.509 233.764C453.673 233.926 454.628 235.389 454.614 236.998C454.611 238.586 453.644 239.743 452.464 239.585C451.279 239.412 450.297 237.974 450.315 236.382ZM427.831 232.949C427.872 231.315 428.866 230.132 430.056 230.322C431.246 230.511 432.136 231.993 432.095 233.627C432.06 235.225 431.098 236.398 429.909 236.208C428.703 236.023 427.78 234.551 427.831 232.949ZM405.409 229.376C405.499 227.727 406.52 226.519 407.694 226.713C408.847 226.896 409.742 228.394 409.657 230.059C409.579 231.687 408.581 232.853 407.412 232.675C406.217 232.469 405.326 230.987 405.409 229.376ZM382.875 226.01C382.991 224.336 384.061 223.113 385.241 223.271C386.426 223.445 387.269 224.941 387.152 226.615C387.042 228.252 386.036 229.456 384.835 229.287C383.671 229.124 382.764 227.647 382.875 226.01ZM360.177 223.216C360.326 221.532 361.429 220.247 362.637 220.38C363.808 220.505 364.65 222.001 364.518 223.68C364.375 225.326 363.315 226.581 362.128 226.46C360.904 226.333 360.019 224.867 360.177 223.216ZM337.182 221.364C337.358 219.655 338.5 218.324 339.705 218.387C340.931 218.462 341.727 219.919 341.567 221.623C341.397 223.295 340.319 224.608 339.093 224.533C337.9 224.449 337.012 223.036 337.182 221.364ZM313.777 220.784C313.969 219.071 315.173 217.652 316.411 217.652C317.634 217.658 318.469 219.069 318.277 220.783C318.091 222.46 316.947 223.844 315.708 223.843C314.453 223.847 313.58 222.482 313.777 220.784ZM289.858 221.891C290.077 220.152 291.294 218.659 292.557 218.566C293.836 218.468 294.652 219.814 294.433 221.554C294.22 223.256 293.062 224.714 291.783 224.812C290.499 224.894 289.64 223.578 289.858 221.891ZM265.271 224.992C265.506 223.248 266.78 221.651 268.079 221.443C269.394 221.229 270.239 222.497 270.019 224.237C269.79 225.944 268.571 227.489 267.256 227.703C265.957 227.912 265.042 226.699 265.271 224.992ZM239.971 230.466C240.206 228.722 241.516 227.01 242.862 226.665C244.224 226.316 245.072 227.478 244.837 229.222C244.608 230.929 243.353 232.59 242.007 232.935C240.629 233.289 239.726 232.178 239.971 230.466ZM214.719 238.35C214.954 236.606 216.235 234.798 217.544 234.325C218.84 233.872 219.661 234.939 219.441 236.678C219.212 238.385 218.002 240.137 216.71 240.606C215.381 241.068 214.49 240.057 214.719 238.35ZM189.833 248.655C190.036 246.921 191.256 245.026 192.58 244.426C193.903 243.827 194.759 244.778 194.555 246.512C194.358 248.21 193.161 250.063 191.854 250.658C190.551 251.269 189.652 250.348 189.833 248.655ZM164.952 261.227C165.091 259.511 166.288 257.536 167.582 256.84C168.909 256.135 169.833 256.961 169.678 258.682C169.529 260.365 168.355 262.299 167.049 263.016C165.781 263.686 164.819 262.906 164.952 261.227ZM140.096 275.658C140.16 273.982 141.273 271.961 142.604 271.15C143.907 270.365 144.892 271.103 144.812 272.784C144.728 274.448 143.621 276.432 142.338 277.229C141.04 278.03 140.043 277.313 140.096 275.658ZM115.244 291.639C115.211 289.992 116.274 287.917 117.574 287.062C118.902 286.182 119.937 286.854 119.954 288.506C119.961 290.126 118.937 292.155 117.641 293.026C116.357 293.875 115.267 293.255 115.244 291.639ZM90.3994 308.77C90.2707 307.151 91.2321 305.088 92.5456 304.16C93.8479 303.253 94.9926 303.822 95.1053 305.446C95.2085 307.038 94.247 309.101 92.9608 310.003C91.6633 310.927 90.5186 310.357 90.3994 308.77ZM65.5415 326.742C65.3004 325.156 66.193 323.097 67.497 322.136C68.8172 321.171 70.0374 321.701 70.2624 323.292C70.4779 324.85 69.6128 326.885 68.3247 327.84C67.032 328.78 65.7844 328.275 65.5415 326.742ZM40.7217 345.139C40.373 343.602 41.1324 341.564 42.4639 340.579C43.768 339.618 45.1071 340.078 45.4237 341.624C45.7468 343.134 44.9553 345.181 43.6833 346.132C42.3887 347.125 41.0608 346.644 40.7217 345.139ZM15.8708 363.667C15.4098 362.164 16.1051 360.145 17.3931 359.189C18.7245 358.203 20.1326 358.66 20.5775 360.169C21.013 361.645 20.3451 363.639 19.0458 364.615C17.753 365.554 16.3223 365.139 15.8708 363.667ZM-8.98687 381.936C-9.56015 380.465 -8.96777 378.512 -7.64764 377.547C-6.35488 376.607 -4.81844 377.026 -4.26594 378.485C-3.71817 379.928 -4.32658 381.887 -5.60329 382.822C-6.89132 383.777 -8.40701 383.37 -8.98687 381.936ZM-33.8063 399.565C-34.4872 398.144 -33.9817 396.251 -32.6794 395.343C-31.3612 394.431 -29.7558 394.847 -29.1022 396.294C-28.4469 397.688 -28.9525 399.581 -30.2547 400.489C-31.5409 401.391 -33.1462 400.975 -33.8063 399.565ZM-58.6728 416.267C-59.4499 414.874 -59.0264 413.057 -57.7261 412.202C-56.4096 411.343 -54.6938 411.779 -53.9327 413.177C-53.181 414.542 -53.6366 416.368 -54.937 417.223C-56.2213 418.073 -57.9051 417.627 -58.6728 416.267ZM-83.5185 431.619C-84.392 430.254 -84.0619 428.535 -82.7218 427.756C-81.3977 426.981 -79.6517 427.461 -78.7943 428.83C-77.9624 430.172 -78.3246 431.901 -79.6326 432.67C-80.9406 433.44 -82.6753 432.94 -83.5185 431.619ZM-108.39 445.286C-109.328 443.941 -109.022 442.316 -107.707 441.631C-106.407 440.951 -104.578 441.476 -103.656 442.826C-102.744 444.144 -103.077 445.795 -104.365 446.454C-105.676 447.155 -107.478 446.605 -108.39 445.286ZM-133.265 456.932C-134.246 455.616 -133.997 454.095 -132.697 453.537C-131.38 452.974 -129.527 453.579 -128.541 454.91C-127.581 456.215 -127.862 457.745 -129.163 458.303C-130.468 458.845 -132.31 458.22 -133.265 456.932ZM-158.167 466.178C-159.165 464.867 -158.935 463.457 -157.629 463.036C-156.343 462.605 -154.425 463.313 -153.428 464.623C-152.441 465.902 -152.713 467.343 -154.02 467.763C-155.326 468.183 -157.18 467.457 -158.167 466.178ZM-184.458 473.025C-185.455 471.715 -185.16 470.407 -183.72 470.087C-182.284 469.75 -180.321 470.549 -179.324 471.86C-178.337 473.139 -178.675 474.477 -180.115 474.797C-181.556 475.117 -183.486 474.309 -184.458 473.025ZM-212.244 478.291C-213.22 476.991 -212.833 475.761 -211.374 475.505C-209.877 475.255 -207.868 476.093 -206.876 477.388C-205.909 478.655 -206.335 479.932 -207.836 480.165C-209.275 480.432 -211.277 479.558 -212.244 478.291ZM-241 482.22C-241.95 480.948 -241.528 479.776 -239.976 479.598C-238.461 479.412 -236.422 480.294 -235.471 481.566C-234.525 482.822 -235.027 484.016 -236.531 484.181C-238.079 484.376 -240.069 483.48 -241 482.22ZM-270.643 485.032C-271.552 483.783 -271.037 482.689 -269.487 482.563C-267.905 482.428 -265.893 483.335 -264.968 484.579C-264.063 485.813 -264.589 486.927 -266.176 487.046C-267.726 487.172 -269.743 486.25 -270.643 485.032ZM-300.937 486.938C-301.8 485.727 -301.25 484.693 -299.638 484.601C-298.057 484.519 -296.03 485.421 -295.146 486.643C-294.288 487.838 -294.897 488.907 -296.498 488.978C-298.115 489.054 -300.095 488.138 -300.937 486.938ZM-331.8 488.157C-332.617 486.985 -331.968 485.991 -330.362 485.936C-328.724 485.872 -326.745 486.788 -325.928 487.96C-325.116 489.116 -325.76 490.126 -327.403 490.174C-329.009 490.229 -330.988 489.313 -331.8 488.157ZM-362.976 488.91C-363.746 487.777 -363.062 486.842 -361.415 486.81C-359.804 486.771 -357.813 487.666 -357.043 488.8C-356.277 489.917 -357.004 490.882 -358.636 490.909C-360.304 490.93 -362.231 490.016 -362.976 488.91ZM-394.385 489.401C-395.093 488.301 -394.342 487.417 -392.711 487.389C-391.063 487.357 -389.151 488.223 -388.427 489.318C-387.723 490.401 -388.465 491.317 -390.133 491.338C-391.769 491.35 -393.687 490.468 -394.385 489.401ZM-425.783 489.87C-426.44 488.826 -425.669 487.953 -424 487.932C-422.369 487.904 -420.487 488.727 -419.825 489.787C-419.173 490.816 -420.008 491.708 -421.64 491.736C-423.313 491.741 -425.152 490.888 -425.783 489.87ZM-457.081 490.502C-457.676 489.492 -456.842 488.653 -455.215 488.609C-453.573 488.56 -451.773 489.338 -451.158 490.36C-450.568 491.355 -451.393 492.226 -453.04 492.258C-454.671 492.286 -456.491 491.497 -457.081 490.502ZM-488.034 491.538C-488.582 490.566 -487.743 489.743 -486.11 489.663C-484.509 489.592 -482.74 490.326 -482.191 491.298C-481.648 492.254 -482.53 493.107 -484.131 493.178C-485.769 493.243 -487.506 492.499 -488.034 491.538ZM-518.558 493.198C-519.06 492.265 -518.173 491.427 -516.597 491.329C-515.005 491.226 -513.308 491.894 -512.806 492.827C-512.309 493.745 -513.191 494.598 -514.783 494.701C-516.374 494.804 -518.076 494.12 -518.558 493.198ZM-548.454 495.684C-548.915 494.773 -548.028 493.936 -546.455 493.769C-544.93 493.616 -543.273 494.208 -542.812 495.119C-542.356 496.014 -543.271 496.876 -544.795 497.03C-546.368 497.197 -547.998 496.579 -548.454 495.684ZM-577.498 499.227C-577.917 498.339 -577.04 497.47 -575.55 497.257C-574.044 497.04 -572.475 497.571 -572.056 498.459C-571.641 499.331 -572.493 500.228 -574.02 500.434C-575.526 500.651 -577.089 500.083 -577.498 499.227ZM-605.628 504.036C-606.022 503.175 -605.179 502.246 -603.708 501.969C-602.274 501.686 -600.761 502.146 -600.346 503.019C-599.958 503.863 -600.811 504.813 -602.25 505.08C-603.721 505.357 -605.239 504.88 -605.628 504.036Z" fill="url(#paint0_linear_351_794)"/>
</g>
</g>
<defs>
<linearGradient id="paint0_linear_351_794" x1="1131" y1="38.2098" x2="443.671" y2="844.959" gradientUnits="userSpaceOnUse">
<stop stop-color="#07EDD2"/>
<stop offset="1" stop-color="#9C63F7"/>
</linearGradient>
</defs>
</svg>
