<svg width="119" height="108" viewBox="0 0 119 108" fill="none" xmlns="http://www.w3.org/2000/svg">
<g filter="url(#filter0_d_314_774)">
<circle cx="29.132" cy="103.811" r="0.669807" fill="white"/>
</g>
<g filter="url(#filter1_d_314_774)">
<circle cx="10.3773" cy="86.3958" r="0.669807" fill="white"/>
</g>
<g filter="url(#filter2_d_314_774)">
<circle cx="12.3867" cy="28.7924" r="0.669807" fill="white"/>
</g>
<g filter="url(#filter3_d_314_774)">
<circle cx="60.6129" cy="2.66981" r="0.669807" fill="white"/>
</g>
<circle cx="107.499" cy="28.7924" r="0.669807" fill="#D9D9D9"/>
<circle cx="109.509" cy="86.3958" r="0.669807" fill="#D9D9D9"/>
<path d="M0.620219 62V61.48C0.764219 61.1707 0.953552 60.8933 1.18822 60.648C1.42289 60.3973 1.67889 60.1493 1.95622 59.904C2.16422 59.7173 2.33489 59.5627 2.46822 59.44C2.60155 59.3173 2.70555 59.208 2.78022 59.112C2.85489 59.016 2.90822 58.9173 2.94022 58.816C2.97222 58.7147 2.98822 58.5893 2.98822 58.44C2.98822 57.944 2.67355 57.696 2.04422 57.696C1.83089 57.696 1.61755 57.72 1.40422 57.768C1.19622 57.8107 0.996219 57.8693 0.804219 57.944V56.992C1.00689 56.9227 1.24155 56.8693 1.50822 56.832C1.78022 56.7893 2.03889 56.768 2.28422 56.768C2.88155 56.768 3.32955 56.9173 3.62822 57.216C3.93222 57.5093 4.08422 57.9093 4.08422 58.416C4.08422 58.768 3.99622 59.0693 3.82022 59.32C3.64955 59.5653 3.42555 59.808 3.14822 60.048C2.92955 60.24 2.72155 60.4267 2.52422 60.608C2.32689 60.784 2.16155 60.9707 2.02822 61.168H4.13222V62H0.620219ZM7.04978 62.208C6.48445 62.208 6.03111 62.1013 5.68978 61.888C5.34845 61.6747 5.10045 61.3653 4.94578 60.96C4.79645 60.5493 4.72178 60.0587 4.72178 59.488C4.72178 58.912 4.79645 58.4213 4.94578 58.016C5.10045 57.6107 5.34845 57.3013 5.68978 57.088C6.03111 56.8747 6.48445 56.768 7.04978 56.768C7.61511 56.768 8.06845 56.8747 8.40978 57.088C8.75111 57.3013 8.99645 57.6107 9.14578 58.016C9.30045 58.4213 9.37778 58.912 9.37778 59.488C9.37778 60.0587 9.30045 60.5493 9.14578 60.96C8.99645 61.3653 8.75111 61.6747 8.40978 61.888C8.06845 62.1013 7.61511 62.208 7.04978 62.208ZM7.04978 61.28C7.51378 61.28 7.83378 61.1253 8.00978 60.816C8.19111 60.5067 8.28178 60.064 8.28178 59.488C8.28178 58.912 8.19111 58.4693 8.00978 58.16C7.83378 57.8507 7.51378 57.696 7.04978 57.696C6.58578 57.696 6.26311 57.8507 6.08178 58.16C5.90578 58.4693 5.81778 58.912 5.81778 59.488C5.81778 60.064 5.90578 60.5067 6.08178 60.816C6.26311 61.1253 6.58578 61.28 7.04978 61.28Z" fill="white"/>
<path d="M29.8273 12V10.92H27.3313V10.184L29.9633 6.848H30.9073V10.048H31.4113V10.92H30.9073V12H29.8273ZM28.3633 10.088H30.0113V8.04L28.3633 10.088ZM34.1787 12.208C33.6134 12.208 33.16 12.1013 32.8187 11.888C32.4774 11.6747 32.2294 11.3653 32.0747 10.96C31.9254 10.5493 31.8507 10.0587 31.8507 9.488C31.8507 8.912 31.9254 8.42133 32.0747 8.016C32.2294 7.61067 32.4774 7.30133 32.8187 7.088C33.16 6.87467 33.6134 6.768 34.1787 6.768C34.744 6.768 35.1974 6.87467 35.5387 7.088C35.88 7.30133 36.1254 7.61067 36.2747 8.016C36.4294 8.42133 36.5067 8.912 36.5067 9.488C36.5067 10.0587 36.4294 10.5493 36.2747 10.96C36.1254 11.3653 35.88 11.6747 35.5387 11.888C35.1974 12.1013 34.744 12.208 34.1787 12.208ZM34.1787 11.28C34.6427 11.28 34.9627 11.1253 35.1387 10.816C35.32 10.5067 35.4107 10.064 35.4107 9.488C35.4107 8.912 35.32 8.46933 35.1387 8.16C34.9627 7.85067 34.6427 7.696 34.1787 7.696C33.7147 7.696 33.392 7.85067 33.2107 8.16C33.0347 8.46933 32.9467 8.912 32.9467 9.488C32.9467 10.064 33.0347 10.5067 33.2107 10.816C33.392 11.1253 33.7147 11.28 34.1787 11.28Z" fill="white"/>
<path d="M85.3825 12.08C84.7105 12.08 84.2038 11.9147 83.8625 11.584C83.5265 11.2533 83.3585 10.744 83.3585 10.056V8.952C83.3585 8.52533 83.4492 8.14933 83.6305 7.824C83.8172 7.49333 84.0812 7.23467 84.4225 7.048C84.7638 6.86133 85.1665 6.768 85.6305 6.768C85.8972 6.768 86.1292 6.784 86.3265 6.816C86.5238 6.848 86.7132 6.896 86.8945 6.96V7.888C86.5585 7.75467 86.1612 7.688 85.7025 7.688C85.2652 7.688 84.9345 7.784 84.7105 7.976C84.4865 8.168 84.3745 8.42133 84.3745 8.736V8.984C84.5452 8.86133 84.7452 8.77067 84.9745 8.712C85.2038 8.648 85.4145 8.616 85.6065 8.616C86.2198 8.616 86.6705 8.76533 86.9585 9.064C87.2465 9.36267 87.3905 9.784 87.3905 10.328C87.3905 10.6693 87.3185 10.9733 87.1745 11.24C87.0358 11.5013 86.8198 11.7067 86.5265 11.856C86.2332 12.0053 85.8518 12.08 85.3825 12.08ZM85.3905 11.28C85.7372 11.28 85.9958 11.1973 86.1665 11.032C86.3372 10.8667 86.4225 10.6453 86.4225 10.368C86.4225 10.0693 86.3478 9.84 86.1985 9.68C86.0492 9.52 85.7852 9.44 85.4065 9.44C85.2305 9.44 85.0518 9.472 84.8705 9.536C84.6892 9.6 84.5238 9.68267 84.3745 9.784V10.272C84.3745 10.944 84.7132 11.28 85.3905 11.28ZM90.3115 12.208C89.7462 12.208 89.2928 12.1013 88.9515 11.888C88.6102 11.6747 88.3622 11.3653 88.2075 10.96C88.0582 10.5493 87.9835 10.0587 87.9835 9.488C87.9835 8.912 88.0582 8.42133 88.2075 8.016C88.3622 7.61067 88.6102 7.30133 88.9515 7.088C89.2928 6.87467 89.7462 6.768 90.3115 6.768C90.8768 6.768 91.3302 6.87467 91.6715 7.088C92.0128 7.30133 92.2582 7.61067 92.4075 8.016C92.5622 8.42133 92.6395 8.912 92.6395 9.488C92.6395 10.0587 92.5622 10.5493 92.4075 10.96C92.2582 11.3653 92.0128 11.6747 91.6715 11.888C91.3302 12.1013 90.8768 12.208 90.3115 12.208ZM90.3115 11.28C90.7755 11.28 91.0955 11.1253 91.2715 10.816C91.4528 10.5067 91.5435 10.064 91.5435 9.488C91.5435 8.912 91.4528 8.46933 91.2715 8.16C91.0955 7.85067 90.7755 7.696 90.3115 7.696C89.8475 7.696 89.5248 7.85067 89.3435 8.16C89.1675 8.46933 89.0795 8.912 89.0795 9.488C89.0795 10.064 89.1675 10.5067 89.3435 10.816C89.5248 11.1253 89.8475 11.28 90.3115 11.28Z" fill="white"/>
<path d="M110.872 62.08C109.48 62.08 108.784 61.576 108.784 60.568C108.784 60.2907 108.856 60.04 109 59.816C109.15 59.592 109.355 59.432 109.616 59.336C109.376 59.2293 109.2 59.08 109.088 58.888C108.976 58.696 108.92 58.4907 108.92 58.272C108.92 57.8133 109.078 57.448 109.392 57.176C109.707 56.904 110.2 56.768 110.872 56.768C111.56 56.768 112.056 56.904 112.36 57.176C112.67 57.448 112.824 57.8133 112.824 58.272C112.824 58.5013 112.768 58.7173 112.656 58.92C112.55 59.1227 112.366 59.28 112.104 59.392C112.675 59.5947 112.96 59.9867 112.96 60.568C112.96 61.576 112.264 62.08 110.872 62.08ZM111.08 59.064C111.331 58.9947 111.512 58.9067 111.624 58.8C111.742 58.688 111.8 58.52 111.8 58.296C111.8 58.056 111.723 57.8827 111.568 57.776C111.419 57.6693 111.187 57.616 110.872 57.616C110.563 57.616 110.331 57.6693 110.176 57.776C110.022 57.8773 109.944 58.0507 109.944 58.296C109.944 58.6587 110.147 58.88 110.552 58.96L111.08 59.064ZM110.872 61.24C111.235 61.24 111.502 61.1867 111.672 61.08C111.848 60.9733 111.936 60.7973 111.936 60.552C111.936 60.3333 111.878 60.176 111.76 60.08C111.643 59.9787 111.451 59.9013 111.184 59.848L110.568 59.72C110.339 59.7733 110.155 59.8587 110.016 59.976C109.878 60.088 109.808 60.2693 109.808 60.52C109.808 60.7813 109.896 60.968 110.072 61.08C110.248 61.1867 110.515 61.24 110.872 61.24ZM115.886 62.208C115.32 62.208 114.867 62.1013 114.526 61.888C114.184 61.6747 113.936 61.3653 113.782 60.96C113.632 60.5493 113.558 60.0587 113.558 59.488C113.558 58.912 113.632 58.4213 113.782 58.016C113.936 57.6107 114.184 57.3013 114.526 57.088C114.867 56.8747 115.32 56.768 115.886 56.768C116.451 56.768 116.904 56.8747 117.246 57.088C117.587 57.3013 117.832 57.6107 117.982 58.016C118.136 58.4213 118.214 58.912 118.214 59.488C118.214 60.0587 118.136 60.5493 117.982 60.96C117.832 61.3653 117.587 61.6747 117.246 61.888C116.904 62.1013 116.451 62.208 115.886 62.208ZM115.886 61.28C116.35 61.28 116.67 61.1253 116.846 60.816C117.027 60.5067 117.118 60.064 117.118 59.488C117.118 58.912 117.027 58.4693 116.846 58.16C116.67 57.8507 116.35 57.696 115.886 57.696C115.422 57.696 115.099 57.8507 114.918 58.16C114.742 58.4693 114.654 58.912 114.654 59.488C114.654 60.064 114.742 60.5067 114.918 60.816C115.099 61.1253 115.422 61.28 115.886 61.28Z" fill="white"/>
<path d="M84.6157 106.792V102.616L83.7757 102.752V101.848L85.6957 101.56V106.792H84.6157ZM88.7756 107C88.2103 107 87.7569 106.893 87.4156 106.68C87.0743 106.466 86.8263 106.157 86.6716 105.752C86.5223 105.341 86.4476 104.85 86.4476 104.28C86.4476 103.704 86.5223 103.213 86.6716 102.808C86.8263 102.402 87.0743 102.093 87.4156 101.88C87.7569 101.666 88.2103 101.56 88.7756 101.56C89.3409 101.56 89.7943 101.666 90.1356 101.88C90.4769 102.093 90.7223 102.402 90.8716 102.808C91.0263 103.213 91.1036 103.704 91.1036 104.28C91.1036 104.85 91.0263 105.341 90.8716 105.752C90.7223 106.157 90.4769 106.466 90.1356 106.68C89.7943 106.893 89.3409 107 88.7756 107ZM88.7756 106.072C89.2396 106.072 89.5596 105.917 89.7356 105.608C89.9169 105.298 90.0076 104.856 90.0076 104.28C90.0076 103.704 89.9169 103.261 89.7356 102.952C89.5596 102.642 89.2396 102.488 88.7756 102.488C88.3116 102.488 87.9889 102.642 87.8076 102.952C87.6316 103.261 87.5436 103.704 87.5436 104.28C87.5436 104.856 87.6316 105.298 87.8076 105.608C87.9889 105.917 88.3116 106.072 88.7756 106.072ZM94.0256 107C93.4603 107 93.0069 106.893 92.6656 106.68C92.3243 106.466 92.0763 106.157 91.9216 105.752C91.7723 105.341 91.6976 104.85 91.6976 104.28C91.6976 103.704 91.7723 103.213 91.9216 102.808C92.0763 102.402 92.3243 102.093 92.6656 101.88C93.0069 101.666 93.4603 101.56 94.0256 101.56C94.5909 101.56 95.0443 101.666 95.3856 101.88C95.7269 102.093 95.9723 102.402 96.1216 102.808C96.2763 103.213 96.3536 103.704 96.3536 104.28C96.3536 104.85 96.2763 105.341 96.1216 105.752C95.9723 106.157 95.7269 106.466 95.3856 106.68C95.0443 106.893 94.5909 107 94.0256 107ZM94.0256 106.072C94.4896 106.072 94.8096 105.917 94.9856 105.608C95.1669 105.298 95.2576 104.856 95.2576 104.28C95.2576 103.704 95.1669 103.261 94.9856 102.952C94.8096 102.642 94.4896 102.488 94.0256 102.488C93.5616 102.488 93.2389 102.642 93.0576 102.952C92.8816 103.261 92.7936 103.704 92.7936 104.28C92.7936 104.856 92.8816 105.298 93.0576 105.608C93.2389 105.917 93.5616 106.072 94.0256 106.072Z" fill="white"/>
<defs>
<filter id="filter0_d_314_774" x="28.4622" y="101.801" width="2.67921" height="2.67921" filterUnits="userSpaceOnUse" color-interpolation-filters="sRGB">
<feFlood flood-opacity="0" result="BackgroundImageFix"/>
<feColorMatrix in="SourceAlpha" type="matrix" values="0 0 0 0 0 0 0 0 0 0 0 0 0 0 0 0 0 0 127 0" result="hardAlpha"/>
<feOffset dx="0.669807" dy="-0.669807"/>
<feGaussianBlur stdDeviation="0.334904"/>
<feComposite in2="hardAlpha" operator="out"/>
<feColorMatrix type="matrix" values="0 0 0 0 0 0 0 0 0 0 0 0 0 0 0 0 0 0 0.5 0"/>
<feBlend mode="normal" in2="BackgroundImageFix" result="effect1_dropShadow_314_774"/>
<feBlend mode="normal" in="SourceGraphic" in2="effect1_dropShadow_314_774" result="shape"/>
</filter>
<filter id="filter1_d_314_774" x="9.70752" y="84.3863" width="2.67921" height="2.67921" filterUnits="userSpaceOnUse" color-interpolation-filters="sRGB">
<feFlood flood-opacity="0" result="BackgroundImageFix"/>
<feColorMatrix in="SourceAlpha" type="matrix" values="0 0 0 0 0 0 0 0 0 0 0 0 0 0 0 0 0 0 127 0" result="hardAlpha"/>
<feOffset dx="0.669807" dy="-0.669807"/>
<feGaussianBlur stdDeviation="0.334904"/>
<feComposite in2="hardAlpha" operator="out"/>
<feColorMatrix type="matrix" values="0 0 0 0 0 0 0 0 0 0 0 0 0 0 0 0 0 0 0.5 0"/>
<feBlend mode="normal" in2="BackgroundImageFix" result="effect1_dropShadow_314_774"/>
<feBlend mode="normal" in="SourceGraphic" in2="effect1_dropShadow_314_774" result="shape"/>
</filter>
<filter id="filter2_d_314_774" x="11.7169" y="26.7829" width="2.67921" height="2.67921" filterUnits="userSpaceOnUse" color-interpolation-filters="sRGB">
<feFlood flood-opacity="0" result="BackgroundImageFix"/>
<feColorMatrix in="SourceAlpha" type="matrix" values="0 0 0 0 0 0 0 0 0 0 0 0 0 0 0 0 0 0 127 0" result="hardAlpha"/>
<feOffset dx="0.669807" dy="-0.669807"/>
<feGaussianBlur stdDeviation="0.334904"/>
<feComposite in2="hardAlpha" operator="out"/>
<feColorMatrix type="matrix" values="0 0 0 0 0 0 0 0 0 0 0 0 0 0 0 0 0 0 0.5 0"/>
<feBlend mode="normal" in2="BackgroundImageFix" result="effect1_dropShadow_314_774"/>
<feBlend mode="normal" in="SourceGraphic" in2="effect1_dropShadow_314_774" result="shape"/>
</filter>
<filter id="filter3_d_314_774" x="59.9431" y="0.660385" width="2.67921" height="2.67921" filterUnits="userSpaceOnUse" color-interpolation-filters="sRGB">
<feFlood flood-opacity="0" result="BackgroundImageFix"/>
<feColorMatrix in="SourceAlpha" type="matrix" values="0 0 0 0 0 0 0 0 0 0 0 0 0 0 0 0 0 0 127 0" result="hardAlpha"/>
<feOffset dx="0.669807" dy="-0.669807"/>
<feGaussianBlur stdDeviation="0.334904"/>
<feComposite in2="hardAlpha" operator="out"/>
<feColorMatrix type="matrix" values="0 0 0 0 0 0 0 0 0 0 0 0 0 0 0 0 0 0 0.5 0"/>
<feBlend mode="normal" in2="BackgroundImageFix" result="effect1_dropShadow_314_774"/>
<feBlend mode="normal" in="SourceGraphic" in2="effect1_dropShadow_314_774" result="shape"/>
</filter>
</defs>
</svg>
