<svg width="118" height="108" viewBox="0 0 118 108" fill="none" xmlns="http://www.w3.org/2000/svg">
<g filter="url(#filter0_d_377_1098)">
<circle cx="28.132" cy="103.811" r="0.669807" fill="white"/>
</g>
<g filter="url(#filter1_d_377_1098)">
<circle cx="9.37733" cy="86.3958" r="0.669807" fill="white"/>
</g>
<g filter="url(#filter2_d_377_1098)">
<circle cx="11.3867" cy="28.7924" r="0.669807" fill="white"/>
</g>
<g filter="url(#filter3_d_377_1098)">
<circle cx="59.6128" cy="2.66981" r="0.669807" fill="white"/>
</g>
<circle cx="106.499" cy="28.7924" r="0.669807" fill="#D9D9D9"/>
<circle cx="108.509" cy="86.3958" r="0.669807" fill="#D9D9D9"/>
<path d="M1.17506 62V57.824L0.335063 57.96V57.056L2.25506 56.768V62H1.17506ZM5.33494 62.208C4.7696 62.208 4.31627 62.1013 3.97494 61.888C3.6336 61.6747 3.3856 61.3653 3.23094 60.96C3.0816 60.5493 3.00694 60.0587 3.00694 59.488C3.00694 58.912 3.0816 58.4213 3.23094 58.016C3.3856 57.6107 3.6336 57.3013 3.97494 57.088C4.31627 56.8747 4.7696 56.768 5.33494 56.768C5.90027 56.768 6.3536 56.8747 6.69494 57.088C7.03627 57.3013 7.2816 57.6107 7.43094 58.016C7.5856 58.4213 7.66294 58.912 7.66294 59.488C7.66294 60.0587 7.5856 60.5493 7.43094 60.96C7.2816 61.3653 7.03627 61.6747 6.69494 61.888C6.3536 62.1013 5.90027 62.208 5.33494 62.208ZM5.33494 61.28C5.79894 61.28 6.11894 61.1253 6.29494 60.816C6.47627 60.5067 6.56694 60.064 6.56694 59.488C6.56694 58.912 6.47627 58.4693 6.29494 58.16C6.11894 57.8507 5.79894 57.696 5.33494 57.696C4.87094 57.696 4.54827 57.8507 4.36694 58.16C4.19094 58.4693 4.10294 58.912 4.10294 59.488C4.10294 60.064 4.19094 60.5067 4.36694 60.816C4.54827 61.1253 4.87094 61.28 5.33494 61.28Z" fill="white"/>
<path d="M26.6202 12V11.48C26.7642 11.1707 26.9536 10.8933 27.1882 10.648C27.4229 10.3973 27.6789 10.1493 27.9562 9.904C28.1642 9.71733 28.3349 9.56267 28.4682 9.44C28.6016 9.31733 28.7056 9.208 28.7802 9.112C28.8549 9.016 28.9082 8.91733 28.9402 8.816C28.9722 8.71467 28.9882 8.58933 28.9882 8.44C28.9882 7.944 28.6736 7.696 28.0442 7.696C27.8309 7.696 27.6176 7.72 27.4042 7.768C27.1962 7.81067 26.9962 7.86933 26.8042 7.944V6.992C27.0069 6.92267 27.2416 6.86933 27.5082 6.832C27.7802 6.78933 28.0389 6.768 28.2842 6.768C28.8816 6.768 29.3296 6.91733 29.6282 7.216C29.9322 7.50933 30.0842 7.90933 30.0842 8.416C30.0842 8.768 29.9962 9.06933 29.8202 9.32C29.6496 9.56533 29.4256 9.808 29.1482 10.048C28.9296 10.24 28.7216 10.4267 28.5242 10.608C28.3269 10.784 28.1616 10.9707 28.0282 11.168H30.1322V12H26.6202ZM33.0498 12.208C32.4844 12.208 32.0311 12.1013 31.6898 11.888C31.3484 11.6747 31.1004 11.3653 30.9458 10.96C30.7964 10.5493 30.7218 10.0587 30.7218 9.488C30.7218 8.912 30.7964 8.42133 30.9458 8.016C31.1004 7.61067 31.3484 7.30133 31.6898 7.088C32.0311 6.87467 32.4844 6.768 33.0498 6.768C33.6151 6.768 34.0684 6.87467 34.4098 7.088C34.7511 7.30133 34.9964 7.61067 35.1458 8.016C35.3004 8.42133 35.3778 8.912 35.3778 9.488C35.3778 10.0587 35.3004 10.5493 35.1458 10.96C34.9964 11.3653 34.7511 11.6747 34.4098 11.888C34.0684 12.1013 33.6151 12.208 33.0498 12.208ZM33.0498 11.28C33.5138 11.28 33.8338 11.1253 34.0098 10.816C34.1911 10.5067 34.2818 10.064 34.2818 9.488C34.2818 8.912 34.1911 8.46933 34.0098 8.16C33.8338 7.85067 33.5138 7.696 33.0498 7.696C32.5858 7.696 32.2631 7.85067 32.0818 8.16C31.9058 8.46933 31.8178 8.912 31.8178 9.488C31.8178 10.064 31.9058 10.5067 32.0818 10.816C32.2631 11.1253 32.5858 11.28 33.0498 11.28Z" fill="white"/>
<path d="M84.1093 12.08C83.9547 12.08 83.7813 12.0693 83.5893 12.048C83.3973 12.0267 83.2107 11.9973 83.0293 11.96C82.848 11.9227 82.696 11.88 82.5733 11.832V10.888C82.792 10.9787 83.0187 11.0453 83.2533 11.088C83.4933 11.1307 83.7253 11.152 83.9493 11.152C84.328 11.152 84.608 11.1013 84.7893 11C84.976 10.8933 85.0693 10.7013 85.0693 10.424C85.0693 10.1947 84.9867 10.032 84.8213 9.936C84.6613 9.84 84.4293 9.792 84.1253 9.792H83.3173L83.3973 9H84.0693C84.3787 9 84.6053 8.94933 84.7493 8.848C84.8933 8.74133 84.9653 8.576 84.9653 8.352C84.9653 8.128 84.8827 7.96267 84.7173 7.856C84.5573 7.744 84.2987 7.688 83.9413 7.688C83.712 7.688 83.4827 7.712 83.2533 7.76C83.0293 7.808 82.832 7.86933 82.6613 7.944V7.024C82.832 6.94933 83.0507 6.888 83.3173 6.84C83.5893 6.792 83.8587 6.768 84.1253 6.768C84.7653 6.768 85.248 6.90133 85.5733 7.168C85.8987 7.43467 86.0613 7.77867 86.0613 8.2C86.0613 8.45067 86.0027 8.688 85.8853 8.912C85.7733 9.13067 85.5973 9.29067 85.3573 9.392C85.6347 9.47733 85.8373 9.62133 85.9653 9.824C86.0987 10.0213 86.1653 10.2587 86.1653 10.536C86.1653 10.888 86.0773 11.1787 85.9013 11.408C85.7307 11.6373 85.4907 11.808 85.1813 11.92C84.8773 12.0267 84.52 12.08 84.1093 12.08ZM89.0967 12.208C88.5313 12.208 88.078 12.1013 87.7367 11.888C87.3953 11.6747 87.1473 11.3653 86.9927 10.96C86.8433 10.5493 86.7687 10.0587 86.7687 9.488C86.7687 8.912 86.8433 8.42133 86.9927 8.016C87.1473 7.61067 87.3953 7.30133 87.7367 7.088C88.078 6.87467 88.5313 6.768 89.0967 6.768C89.662 6.768 90.1153 6.87467 90.4567 7.088C90.798 7.30133 91.0433 7.61067 91.1927 8.016C91.3473 8.42133 91.4247 8.912 91.4247 9.488C91.4247 10.0587 91.3473 10.5493 91.1927 10.96C91.0433 11.3653 90.798 11.6747 90.4567 11.888C90.1153 12.1013 89.662 12.208 89.0967 12.208ZM89.0967 11.28C89.5607 11.28 89.8807 11.1253 90.0567 10.816C90.238 10.5067 90.3287 10.064 90.3287 9.488C90.3287 8.912 90.238 8.46933 90.0567 8.16C89.8807 7.85067 89.5607 7.696 89.0967 7.696C88.6327 7.696 88.31 7.85067 88.1287 8.16C87.9527 8.46933 87.8647 8.912 87.8647 9.488C87.8647 10.064 87.9527 10.5067 88.1287 10.816C88.31 11.1253 88.6327 11.28 89.0967 11.28Z" fill="white"/>
<path d="M110.327 62V60.92H107.831V60.184L110.463 56.848H111.407V60.048H111.911V60.92H111.407V62H110.327ZM108.863 60.088H110.511V58.04L108.863 60.088ZM114.679 62.208C114.113 62.208 113.66 62.1013 113.319 61.888C112.977 61.6747 112.729 61.3653 112.575 60.96C112.425 60.5493 112.351 60.0587 112.351 59.488C112.351 58.912 112.425 58.4213 112.575 58.016C112.729 57.6107 112.977 57.3013 113.319 57.088C113.66 56.8747 114.113 56.768 114.679 56.768C115.244 56.768 115.697 56.8747 116.039 57.088C116.38 57.3013 116.625 57.6107 116.775 58.016C116.929 58.4213 117.007 58.912 117.007 59.488C117.007 60.0587 116.929 60.5493 116.775 60.96C116.625 61.3653 116.38 61.6747 116.039 61.888C115.697 62.1013 115.244 62.208 114.679 62.208ZM114.679 61.28C115.143 61.28 115.463 61.1253 115.639 60.816C115.82 60.5067 115.911 60.064 115.911 59.488C115.911 58.912 115.82 58.4693 115.639 58.16C115.463 57.8507 115.143 57.696 114.679 57.696C114.215 57.696 113.892 57.8507 113.711 58.16C113.535 58.4693 113.447 58.912 113.447 59.488C113.447 60.064 113.535 60.5067 113.711 60.816C113.892 61.1253 114.215 61.28 114.679 61.28Z" fill="white"/>
<path d="M86.1864 106.872C86.0317 106.872 85.861 106.861 85.6744 106.84C85.493 106.824 85.3144 106.797 85.1384 106.76C84.9677 106.722 84.8184 106.677 84.6904 106.624V105.688C84.877 105.768 85.0957 105.832 85.3464 105.88C85.6024 105.922 85.8317 105.944 86.0344 105.944C86.397 105.944 86.6664 105.885 86.8424 105.768C87.0237 105.65 87.1144 105.45 87.1144 105.168C87.1144 104.917 87.053 104.733 86.9304 104.616C86.813 104.498 86.5757 104.44 86.2184 104.44H84.6664V103.832L84.8024 101.64H87.8664L87.7864 102.472H85.7224L85.6504 103.608H86.4264C87.0504 103.608 87.5037 103.744 87.7864 104.016C88.069 104.288 88.2104 104.685 88.2104 105.208C88.2104 105.714 88.0397 106.12 87.6984 106.424C87.3624 106.722 86.8584 106.872 86.1864 106.872ZM91.135 107C90.5697 107 90.1163 106.893 89.775 106.68C89.4337 106.466 89.1857 106.157 89.031 105.752C88.8817 105.341 88.807 104.85 88.807 104.28C88.807 103.704 88.8817 103.213 89.031 102.808C89.1857 102.402 89.4337 102.093 89.775 101.88C90.1163 101.666 90.5697 101.56 91.135 101.56C91.7003 101.56 92.1537 101.666 92.495 101.88C92.8363 102.093 93.0817 102.402 93.231 102.808C93.3857 103.213 93.463 103.704 93.463 104.28C93.463 104.85 93.3857 105.341 93.231 105.752C93.0817 106.157 92.8363 106.466 92.495 106.68C92.1537 106.893 91.7003 107 91.135 107ZM91.135 106.072C91.599 106.072 91.919 105.917 92.095 105.608C92.2763 105.298 92.367 104.856 92.367 104.28C92.367 103.704 92.2763 103.261 92.095 102.952C91.919 102.642 91.599 102.488 91.135 102.488C90.671 102.488 90.3483 102.642 90.167 102.952C89.991 103.261 89.903 103.704 89.903 104.28C89.903 104.856 89.991 105.298 90.167 105.608C90.3483 105.917 90.671 106.072 91.135 106.072Z" fill="white"/>
<defs>
<filter id="filter0_d_377_1098" x="27.4622" y="101.801" width="2.67921" height="2.67921" filterUnits="userSpaceOnUse" color-interpolation-filters="sRGB">
<feFlood flood-opacity="0" result="BackgroundImageFix"/>
<feColorMatrix in="SourceAlpha" type="matrix" values="0 0 0 0 0 0 0 0 0 0 0 0 0 0 0 0 0 0 127 0" result="hardAlpha"/>
<feOffset dx="0.669807" dy="-0.669807"/>
<feGaussianBlur stdDeviation="0.334904"/>
<feComposite in2="hardAlpha" operator="out"/>
<feColorMatrix type="matrix" values="0 0 0 0 0 0 0 0 0 0 0 0 0 0 0 0 0 0 0.5 0"/>
<feBlend mode="normal" in2="BackgroundImageFix" result="effect1_dropShadow_377_1098"/>
<feBlend mode="normal" in="SourceGraphic" in2="effect1_dropShadow_377_1098" result="shape"/>
</filter>
<filter id="filter1_d_377_1098" x="8.70752" y="84.3863" width="2.67921" height="2.67921" filterUnits="userSpaceOnUse" color-interpolation-filters="sRGB">
<feFlood flood-opacity="0" result="BackgroundImageFix"/>
<feColorMatrix in="SourceAlpha" type="matrix" values="0 0 0 0 0 0 0 0 0 0 0 0 0 0 0 0 0 0 127 0" result="hardAlpha"/>
<feOffset dx="0.669807" dy="-0.669807"/>
<feGaussianBlur stdDeviation="0.334904"/>
<feComposite in2="hardAlpha" operator="out"/>
<feColorMatrix type="matrix" values="0 0 0 0 0 0 0 0 0 0 0 0 0 0 0 0 0 0 0.5 0"/>
<feBlend mode="normal" in2="BackgroundImageFix" result="effect1_dropShadow_377_1098"/>
<feBlend mode="normal" in="SourceGraphic" in2="effect1_dropShadow_377_1098" result="shape"/>
</filter>
<filter id="filter2_d_377_1098" x="10.7169" y="26.7829" width="2.67921" height="2.67921" filterUnits="userSpaceOnUse" color-interpolation-filters="sRGB">
<feFlood flood-opacity="0" result="BackgroundImageFix"/>
<feColorMatrix in="SourceAlpha" type="matrix" values="0 0 0 0 0 0 0 0 0 0 0 0 0 0 0 0 0 0 127 0" result="hardAlpha"/>
<feOffset dx="0.669807" dy="-0.669807"/>
<feGaussianBlur stdDeviation="0.334904"/>
<feComposite in2="hardAlpha" operator="out"/>
<feColorMatrix type="matrix" values="0 0 0 0 0 0 0 0 0 0 0 0 0 0 0 0 0 0 0.5 0"/>
<feBlend mode="normal" in2="BackgroundImageFix" result="effect1_dropShadow_377_1098"/>
<feBlend mode="normal" in="SourceGraphic" in2="effect1_dropShadow_377_1098" result="shape"/>
</filter>
<filter id="filter3_d_377_1098" x="58.943" y="0.660385" width="2.67921" height="2.67921" filterUnits="userSpaceOnUse" color-interpolation-filters="sRGB">
<feFlood flood-opacity="0" result="BackgroundImageFix"/>
<feColorMatrix in="SourceAlpha" type="matrix" values="0 0 0 0 0 0 0 0 0 0 0 0 0 0 0 0 0 0 127 0" result="hardAlpha"/>
<feOffset dx="0.669807" dy="-0.669807"/>
<feGaussianBlur stdDeviation="0.334904"/>
<feComposite in2="hardAlpha" operator="out"/>
<feColorMatrix type="matrix" values="0 0 0 0 0 0 0 0 0 0 0 0 0 0 0 0 0 0 0.5 0"/>
<feBlend mode="normal" in2="BackgroundImageFix" result="effect1_dropShadow_377_1098"/>
<feBlend mode="normal" in="SourceGraphic" in2="effect1_dropShadow_377_1098" result="shape"/>
</filter>
</defs>
</svg>
