<svg width="29" height="29" viewBox="0 0 29 29" fill="none" xmlns="http://www.w3.org/2000/svg">
<path d="M10.375 14.5L15.875 20L15.875 9L10.375 14.5ZM0.749999 14.5C0.749999 12.5979 1.11117 10.8104 1.8335 9.1375C2.55583 7.46458 3.53529 6.00937 4.77187 4.77187C6.00937 3.53437 7.46458 2.55492 9.1375 1.8335C10.8104 1.11208 12.5979 0.750916 14.5 0.749999C16.4021 0.749999 18.1896 1.11117 19.8625 1.8335C21.5354 2.55583 22.9906 3.53529 24.2281 4.77188C25.4656 6.00938 26.4451 7.46458 27.1665 9.1375C27.8879 10.8104 28.2491 12.5979 28.25 14.5C28.25 16.4021 27.8888 18.1896 27.1665 19.8625C26.4442 21.5354 25.4647 22.9906 24.2281 24.2281C22.9906 25.4656 21.5354 26.4455 19.8625 27.1679C18.1896 27.8902 16.4021 28.2509 14.5 28.25C12.5979 28.25 10.8104 27.8888 9.1375 27.1665C7.46458 26.4442 6.00937 25.4647 4.77187 24.2281C3.53437 22.9906 2.55446 21.5354 1.83213 19.8625C1.10979 18.1896 0.749083 16.4021 0.749999 14.5ZM3.5 14.5C3.5 17.5708 4.56563 20.1719 6.69688 22.3031C8.82812 24.4344 11.4292 25.5 14.5 25.5C17.5708 25.5 20.1719 24.4344 22.3031 22.3031C24.4344 20.1719 25.5 17.5708 25.5 14.5C25.5 11.4292 24.4344 8.82812 22.3031 6.69687C20.1719 4.56562 17.5708 3.5 14.5 3.5C11.4292 3.5 8.82813 4.56562 6.69688 6.69687C4.56563 8.82812 3.5 11.4292 3.5 14.5Z" fill="#E2DCFF"/>
</svg>
