<svg width="780" height="244" viewBox="0 0 780 244" fill="none" xmlns="http://www.w3.org/2000/svg">
<g clip-path="url(#clip0_0_365)">
<path d="M490.041 133.697C495.554 133.697 500.034 129.209 500.034 123.662C500.034 118.126 495.564 113.627 490.041 113.627C484.527 113.627 480.047 118.115 480.047 123.662C480.047 129.198 484.527 133.697 490.041 133.697Z" fill="#887DC1"/>
<path d="M345.683 133.697C351.196 133.697 355.676 129.209 355.676 123.662C355.676 118.126 351.207 113.627 345.683 113.627C340.169 113.627 335.689 118.115 335.689 123.662C335.7 129.198 340.169 133.697 345.683 133.697Z" fill="#887DC1"/>
<path d="M557.718 133.697C563.231 133.697 567.712 129.209 567.712 123.662C567.712 118.126 563.242 113.627 557.718 113.627C552.205 113.627 547.725 118.115 547.725 123.662C547.725 129.198 552.205 133.697 557.718 133.697Z" fill="#887DC1"/>
<path d="M240.192 134.226V36.7641H283.592C293.544 36.7641 302.03 38.4049 309.061 41.6864C316.092 44.968 321.468 50.2185 325.19 57.4273C328.911 64.6362 330.766 74.2056 330.766 86.104C330.766 102.85 326.697 115.066 318.559 122.73C310.421 130.405 298.762 134.237 283.592 134.237H240.192V134.226ZM268.528 112.431H279.987C284.71 112.431 288.673 111.753 291.889 110.388C295.104 109.022 297.56 106.45 299.278 102.671C300.986 98.8915 301.84 93.3657 301.84 86.104C301.84 78.8422 301.06 73.2212 299.5 69.2304C297.939 65.2502 295.557 62.4767 292.342 60.91C289.127 59.3433 285.005 58.56 279.987 58.56H268.528V112.431Z" fill="#887DC1"/>
<path d="M365.754 134.226L402.977 36.7641H432.968L470.19 134.226H440.653L432.515 113.489H403.272L395.281 134.226H365.754ZM407.046 93.0587H428.751L417.904 64.4562L407.046 93.0587Z" fill="#887DC1"/>
<path d="M509.869 134.226V36.7641H538.205V134.226H509.869Z" fill="#887DC1"/>
<path d="M597.165 134.226L574.553 36.7641H602.288L613.294 88.3693L623.994 51.4464V36.7641H647.206L661.975 88.5175L673.582 36.7641H701.317L678.863 134.226H653.247L638.615 83.828L622.792 134.226H597.165Z" fill="#887DC1"/>
<path d="M737.96 133.316C723.686 133.316 713.166 130.14 706.387 123.778C699.609 117.427 696.215 108.143 696.215 95.9275C696.215 83.8174 699.63 74.5656 706.461 68.1612C713.292 61.7569 723.792 58.5494 737.96 58.5494C752.223 58.5494 762.796 61.7569 769.68 68.1612C776.563 74.5656 780 83.828 780 95.9275C780 108.133 776.585 117.416 769.753 123.778C762.922 130.14 752.328 133.316 737.96 133.316ZM737.96 112.579C742.577 112.579 745.919 111.266 747.985 108.641C750.041 106.016 751.074 101.781 751.074 95.9275C751.074 90.1794 750.041 85.9663 747.985 83.2882C745.929 80.6206 742.588 79.2762 737.96 79.2762C733.437 79.2762 730.169 80.61 728.167 83.2882C726.153 85.9663 725.152 90.1689 725.152 95.9275C725.152 101.781 726.153 106.016 728.167 108.641C730.169 111.277 733.437 112.579 737.96 112.579Z" fill="#887DC1"/>
<path d="M252.768 171.35V162.257L244.019 146.855H248.299L254.814 158.764L261.328 146.855H265.608L256.859 162.257V171.35H252.768Z" fill="#887DC1"/>
<path d="M274.779 171.732C271.543 171.732 269.182 170.916 267.674 169.297C266.167 167.677 265.418 165.359 265.418 162.331C265.418 159.315 266.177 156.996 267.695 155.366C269.213 153.746 271.575 152.931 274.779 152.931C278.016 152.931 280.388 153.746 281.906 155.366C283.424 156.986 284.183 159.304 284.183 162.331C284.183 165.348 283.434 167.667 281.927 169.297C280.419 170.927 278.037 171.732 274.779 171.732ZM274.779 168.238C276.677 168.238 278.016 167.772 278.817 166.852C279.608 165.931 280.008 164.427 280.008 162.342C280.008 160.267 279.608 158.764 278.817 157.854C278.026 156.943 276.677 156.488 274.779 156.488C272.914 156.488 271.575 156.943 270.784 157.854C269.994 158.764 269.593 160.267 269.593 162.342C269.593 164.427 269.994 165.92 270.784 166.852C271.575 167.772 272.903 168.238 274.779 168.238Z" fill="#887DC1"/>
<path d="M294.819 171.732C292.669 171.732 291.024 171.139 289.875 169.943C288.726 168.746 288.157 167 288.157 164.692V153.323H292.289V164.692C292.289 166.036 292.616 167.021 293.27 167.656C293.923 168.291 294.935 168.609 296.306 168.609C297.318 168.609 298.245 168.418 299.11 168.037C299.964 167.656 300.712 167.148 301.345 166.513V153.312H305.435V171.34H301.682L301.492 169.477C300.68 170.112 299.721 170.641 298.614 171.075C297.497 171.52 296.232 171.732 294.819 171.732Z" fill="#887DC1"/>
<path d="M310.379 171.35V153.323H314.163L314.395 155.419C315.249 154.858 316.272 154.35 317.463 153.895C318.654 153.439 319.824 153.122 320.984 152.942V156.096C320.277 156.224 319.508 156.403 318.696 156.647C317.874 156.89 317.104 157.155 316.366 157.441C315.639 157.737 315.017 158.034 314.511 158.33V171.34H310.379V171.35Z" fill="#887DC1"/>
<path d="M333.001 179.565V153.323H336.564L336.796 155.112C337.608 154.371 338.483 153.831 339.442 153.471C340.401 153.122 341.54 152.942 342.847 152.942C345.419 152.942 347.433 153.641 348.866 155.048C350.3 156.456 351.027 158.785 351.027 162.024C351.027 165.274 350.279 167.698 348.793 169.307C347.306 170.916 345.272 171.721 342.689 171.721C340.517 171.721 338.662 171.213 337.123 170.197V179.554H333.001V179.565ZM341.635 168.619C345.124 168.619 346.863 166.418 346.863 162.003C346.863 159.876 346.473 158.362 345.693 157.462C344.913 156.562 343.596 156.118 341.751 156.118C339.906 156.118 338.367 156.753 337.134 158.023V167.042C337.713 167.529 338.367 167.91 339.084 168.207C339.801 168.471 340.644 168.619 341.635 168.619Z" fill="#887DC1"/>
<path d="M364.289 171.732C361.158 171.732 358.733 170.959 357.015 169.413C355.297 167.868 354.443 165.497 354.443 162.3C354.443 159.41 355.181 157.123 356.636 155.451C358.101 153.778 360.325 152.942 363.298 152.942C366.028 152.942 368.073 153.662 369.454 155.091C370.825 156.52 371.52 158.372 371.52 160.627V163.972H358.375C358.575 165.719 359.208 166.926 360.272 167.582C361.337 168.238 362.95 168.566 365.122 168.566C366.028 168.566 366.966 168.482 367.926 168.302C368.885 168.122 369.718 167.9 370.424 167.614V170.662C369.612 171.022 368.685 171.287 367.641 171.456C366.587 171.647 365.47 171.732 364.289 171.732ZM358.375 161.273H367.884V160.013C367.884 158.775 367.546 157.801 366.861 157.102C366.176 156.403 365.027 156.054 363.414 156.054C361.495 156.054 360.178 156.478 359.461 157.314C358.733 158.15 358.375 159.473 358.375 161.273Z" fill="#887DC1"/>
<path d="M375.684 171.35V153.323H379.469L379.701 155.419C380.555 154.858 381.577 154.35 382.768 153.895C383.96 153.439 385.13 153.122 386.289 152.942V156.096C385.583 156.224 384.814 156.403 384.002 156.647C383.19 156.89 382.41 157.155 381.672 157.441C380.945 157.737 380.323 158.034 379.817 158.33V171.34H375.684V171.35Z" fill="#887DC1"/>
<path d="M395.229 171.732C393.995 171.732 392.815 171.647 391.687 171.467C390.559 171.287 389.631 171.075 388.904 170.821V167.317C389.758 167.645 390.706 167.9 391.739 168.079C392.773 168.259 393.763 168.344 394.691 168.344C396.104 168.344 397.116 168.217 397.717 167.963C398.328 167.709 398.623 167.211 398.623 166.481C398.623 165.952 398.444 165.528 398.075 165.221C397.706 164.914 397.168 164.639 396.441 164.385C395.724 164.131 394.807 163.824 393.7 163.475C392.635 163.125 391.718 162.734 390.938 162.31C390.158 161.887 389.547 161.358 389.125 160.691C388.693 160.034 388.482 159.166 388.482 158.108C388.482 156.456 389.072 155.186 390.264 154.286C391.455 153.387 393.363 152.942 395.988 152.942C397.021 152.942 398.012 153.016 398.939 153.175C399.878 153.323 400.668 153.514 401.322 153.746V157.208C400.616 156.933 399.835 156.71 398.992 156.562C398.149 156.414 397.358 156.329 396.62 156.329C395.313 156.329 394.322 156.446 393.647 156.668C392.983 156.901 392.646 157.356 392.646 158.034C392.646 158.743 392.994 159.24 393.69 159.537C394.385 159.823 395.503 160.225 397.042 160.733C398.454 161.167 399.582 161.622 400.415 162.099C401.248 162.586 401.849 163.157 402.218 163.835C402.587 164.502 402.766 165.38 402.766 166.439C402.766 168.217 402.123 169.54 400.837 170.408C399.551 171.298 397.685 171.732 395.229 171.732Z" fill="#887DC1"/>
<path d="M415.005 171.732C411.769 171.732 409.407 170.916 407.9 169.297C406.392 167.677 405.644 165.359 405.644 162.331C405.644 159.315 406.403 156.996 407.921 155.366C409.439 153.746 411.8 152.931 415.005 152.931C418.241 152.931 420.613 153.746 422.131 155.366C423.649 156.986 424.408 159.304 424.408 162.331C424.408 165.348 423.66 167.667 422.152 169.297C420.645 170.927 418.262 171.732 415.005 171.732ZM415.005 168.238C416.902 168.238 418.241 167.772 419.042 166.852C419.833 165.931 420.234 164.427 420.234 162.342C420.234 160.267 419.833 158.764 419.042 157.854C418.252 156.943 416.902 156.488 415.005 156.488C413.139 156.488 411.8 156.943 411.01 157.854C410.219 158.764 409.818 160.267 409.818 162.342C409.818 164.427 410.219 165.92 411.01 166.852C411.8 167.772 413.139 168.238 415.005 168.238Z" fill="#887DC1"/>
<path d="M428.562 171.35V153.323H432.346L432.536 155.228C433.347 154.593 434.307 154.053 435.435 153.609C436.563 153.164 437.807 152.942 439.166 152.942C441.486 152.942 443.183 153.482 444.248 154.572C445.312 155.662 445.839 157.367 445.839 159.674V171.35H441.749V159.865C441.749 158.468 441.465 157.494 440.895 156.933C440.326 156.372 439.261 156.096 437.691 156.096C436.752 156.096 435.835 156.287 434.939 156.668C434.043 157.049 433.295 157.547 432.683 158.15V171.35H428.562Z" fill="#887DC1"/>
<path d="M455.643 171.732C454.505 171.732 453.45 171.53 452.481 171.128C451.511 170.726 450.731 170.101 450.151 169.286C449.571 168.461 449.276 167.444 449.276 166.227C449.276 164.502 449.866 163.115 451.036 162.067C452.206 161.008 454.02 160.49 456.476 160.49H462.232V159.696C462.232 158.838 462.095 158.15 461.831 157.642C461.567 157.134 461.083 156.763 460.387 156.541C459.691 156.308 458.679 156.202 457.34 156.202C455.221 156.202 453.24 156.52 451.395 157.155V154.075C452.206 153.746 453.187 153.482 454.346 153.281C455.506 153.08 456.76 152.974 458.099 152.974C460.724 152.974 462.727 153.503 464.097 154.572C465.478 155.641 466.164 157.377 466.164 159.78V171.382H462.643L462.379 169.561C461.652 170.271 460.745 170.821 459.67 171.202C458.605 171.541 457.266 171.732 455.643 171.732ZM456.75 168.768C457.983 168.768 459.069 168.556 459.986 168.143C460.903 167.72 461.662 167.159 462.242 166.449V163.295H456.56C455.348 163.295 454.473 163.528 453.925 163.993C453.377 164.459 453.113 165.179 453.113 166.142C453.113 167.084 453.429 167.751 454.062 168.154C454.684 168.566 455.58 168.768 456.75 168.768Z" fill="#887DC1"/>
<path d="M475.388 171.732C473.922 171.732 472.815 171.372 472.056 170.652C471.297 169.932 470.918 168.736 470.918 167.053V145.712H475.05V166.672C475.05 167.381 475.177 167.868 475.43 168.122C475.683 168.376 476.062 168.503 476.568 168.503C477.18 168.503 477.759 168.429 478.308 168.27V171.276C477.823 171.456 477.369 171.573 476.927 171.636C476.473 171.7 475.967 171.732 475.388 171.732Z" fill="#887DC1"/>
<path d="M497.957 171.732C496.345 171.732 494.911 171.456 493.678 170.895C492.444 170.334 491.485 169.413 490.8 168.122C490.114 166.83 489.777 165.094 489.777 162.914C489.777 160.754 490.146 158.933 490.873 157.451C491.611 155.969 492.623 154.847 493.92 154.085C495.217 153.323 496.692 152.942 498.337 152.942C499.423 152.942 500.393 153.069 501.236 153.323C502.079 153.577 502.891 153.969 503.682 154.498V145.712H507.814V171.35H504.293L504.029 169.561C503.218 170.302 502.343 170.842 501.383 171.192C500.414 171.552 499.275 171.732 497.957 171.732ZM499.054 168.619C500.899 168.619 502.438 167.984 503.671 166.714V157.695C502.48 156.626 500.993 156.096 499.201 156.096C497.462 156.096 496.144 156.679 495.259 157.843C494.373 159.008 493.931 160.712 493.931 162.945C493.931 165.105 494.342 166.587 495.164 167.391C495.997 168.207 497.293 168.619 499.054 168.619Z" fill="#887DC1"/>
<path d="M514.592 171.35V156.478H511.862L512.241 153.323H518.714V171.35H514.592ZM514.244 149.555V146.135H518.756V149.555H514.244Z" fill="#887DC1"/>
<path d="M530.953 178.051C529.614 178.051 528.275 177.966 526.936 177.808C525.598 177.638 524.459 177.395 523.531 177.067V173.87C524.543 174.198 525.703 174.452 527.021 174.632C528.328 174.812 529.582 174.897 530.774 174.897C532.587 174.897 533.915 174.791 534.748 174.59C535.581 174.389 536.002 173.933 536.002 173.224C536.002 172.695 535.802 172.314 535.391 172.102C534.99 171.89 534.221 171.784 533.082 171.784H528.233C524.976 171.784 523.342 170.631 523.342 168.323C523.342 167.582 523.553 166.904 523.985 166.269C524.417 165.634 525.092 165.158 526.03 164.819C524.997 164.311 524.227 163.612 523.742 162.723C523.247 161.834 523.004 160.775 523.004 159.526C523.004 157.219 523.69 155.546 525.071 154.509C526.452 153.471 528.507 152.953 531.259 152.953C531.838 152.953 532.45 152.995 533.072 153.09C533.704 153.175 534.2 153.26 534.548 153.334H541.136L541.02 156.033H537.995C538.48 156.435 538.827 156.943 539.059 157.557C539.291 158.161 539.397 158.828 539.397 159.537C539.397 161.463 538.817 162.977 537.657 164.078C536.498 165.179 534.737 165.729 532.397 165.729C531.996 165.729 531.617 165.708 531.28 165.677C530.942 165.645 530.563 165.592 530.162 165.539C529.403 165.613 528.718 165.814 528.117 166.153C527.516 166.481 527.211 166.926 527.211 167.487C527.211 167.868 527.358 168.143 527.664 168.302C527.97 168.471 528.476 168.545 529.182 168.545H534.221C536.013 168.545 537.394 168.937 538.364 169.71C539.333 170.482 539.818 171.605 539.818 173.076C539.818 174.854 539.049 176.125 537.531 176.897C535.992 177.66 533.81 178.051 530.953 178.051ZM531.259 163.104C532.903 163.104 534.042 162.829 534.685 162.268C535.328 161.707 535.654 160.754 535.654 159.42C535.654 158.076 535.328 157.102 534.685 156.488C534.042 155.874 532.893 155.578 531.259 155.578C529.719 155.578 528.592 155.874 527.885 156.456C527.179 157.039 526.821 158.023 526.821 159.42C526.821 160.712 527.158 161.654 527.822 162.236C528.497 162.808 529.635 163.104 531.259 163.104Z" fill="#887DC1"/>
<path d="M545.722 171.35V156.478H543.002L543.381 153.323H549.854V171.35H545.722ZM545.384 149.555V146.135H549.896V149.555H545.384Z" fill="#887DC1"/>
<path d="M561.671 171.732C559.753 171.732 558.319 171.213 557.37 170.186C556.422 169.159 555.947 167.762 555.947 165.984V156.562H553.301V153.334H555.947V149.184L560.037 147.924V153.323H564.813L564.549 156.552H560.037V165.761C560.037 166.799 560.28 167.529 560.754 167.952C561.229 168.376 562.019 168.577 563.105 168.577C563.79 168.577 564.507 168.45 565.266 168.196V171.128C564.286 171.53 563.084 171.732 561.671 171.732Z" fill="#887DC1"/>
<path d="M574.174 171.732C573.035 171.732 571.981 171.53 571.011 171.128C570.041 170.726 569.261 170.101 568.682 169.286C568.102 168.461 567.807 167.444 567.807 166.227C567.807 164.502 568.397 163.115 569.567 162.067C570.737 161.008 572.55 160.49 575.007 160.49H580.762V159.696C580.762 158.838 580.625 158.15 580.362 157.642C580.098 157.134 579.613 156.763 578.917 156.541C578.222 156.308 577.21 156.202 575.871 156.202C573.752 156.202 571.77 156.52 569.925 157.155V154.075C570.737 153.746 571.717 153.482 572.877 153.281C574.037 153.08 575.291 152.974 576.63 152.974C579.255 152.974 581.258 153.503 582.628 154.572C584.009 155.641 584.694 157.377 584.694 159.78V171.382H581.173L580.91 169.561C580.182 170.271 579.276 170.821 578.201 171.202C577.136 171.541 575.787 171.732 574.174 171.732ZM575.27 168.768C576.503 168.768 577.589 168.556 578.506 168.143C579.423 167.72 580.182 167.159 580.762 166.449V163.295H575.08C573.868 163.295 572.993 163.528 572.445 163.993C571.897 164.459 571.633 165.179 571.633 166.142C571.633 167.084 571.949 167.751 572.582 168.154C573.214 168.566 574.11 168.768 575.27 168.768Z" fill="#887DC1"/>
<path d="M593.908 171.732C592.442 171.732 591.335 171.372 590.576 170.652C589.817 169.932 589.438 168.736 589.438 167.053V145.712H593.57V166.672C593.57 167.381 593.697 167.868 593.95 168.122C594.203 168.376 594.582 168.503 595.088 168.503C595.7 168.503 596.28 168.429 596.828 168.27V171.276C596.343 171.456 595.889 171.573 595.447 171.636C595.004 171.7 594.487 171.732 593.908 171.732Z" fill="#887DC1"/>
<path d="M608.339 171.35L617.658 146.855H622.275L631.521 171.35H627.283L624.858 165.041H615.044L612.619 171.35H608.339ZM615.687 161.845H624.173L619.935 150.624L615.687 161.845Z" fill="#887DC1"/>
<path d="M634.968 171.35V168.122H638.457V171.35H634.968Z" fill="#887DC1"/>
<path d="M642.652 171.35V146.855H646.785V171.35H642.652Z" fill="#887DC1"/>
<path d="M650.949 171.35V168.122H654.438V171.35H650.949Z" fill="#887DC1"/>
<path d="M671.484 171.35L666.751 153.323H670.883L673.993 166.449L677.514 155.535V153.334H680.655L684.556 166.46L687.665 153.334H691.756L687.054 171.361H683.154L679.327 159.569L675.427 171.361H671.484V171.35Z" fill="#887DC1"/>
<path d="M702.803 171.732C699.567 171.732 697.206 170.916 695.698 169.297C694.191 167.677 693.442 165.359 693.442 162.331C693.442 159.315 694.201 156.996 695.719 155.366C697.237 153.746 699.599 152.931 702.803 152.931C706.04 152.931 708.411 153.746 709.929 155.366C711.447 156.986 712.206 159.304 712.206 162.331C712.206 165.348 711.458 167.667 709.951 169.297C708.443 170.927 706.061 171.732 702.803 171.732ZM702.803 168.238C704.701 168.238 706.04 167.772 706.841 166.852C707.631 165.931 708.032 164.427 708.032 162.342C708.032 160.267 707.631 158.764 706.841 157.854C706.05 156.943 704.701 156.488 702.803 156.488C700.937 156.488 699.599 156.943 698.808 157.854C698.017 158.764 697.617 160.267 697.617 162.342C697.617 164.427 698.017 165.92 698.808 166.852C699.609 167.772 700.937 168.238 702.803 168.238Z" fill="#887DC1"/>
<path d="M716.37 171.35V153.323H720.155L720.387 155.419C721.241 154.858 722.263 154.35 723.454 153.895C724.646 153.439 725.816 153.122 726.975 152.942V156.096C726.269 156.224 725.499 156.403 724.688 156.647C723.876 156.89 723.096 157.155 722.358 157.441C721.631 157.737 721.009 158.034 720.503 158.33V171.34H716.37V171.35Z" fill="#887DC1"/>
<path d="M730.117 171.35V145.712H734.249V160.542L741.786 153.312H746.52L739.214 160.574L746.941 171.34H742.588L736.642 162.787L734.26 165.073V171.35H730.117Z" fill="#887DC1"/>
<path d="M757.24 171.732C754.11 171.732 751.685 170.959 749.967 169.413C748.248 167.868 747.395 165.497 747.395 162.3C747.395 159.41 748.132 157.123 749.587 155.451C751.053 153.778 753.277 152.942 756.25 152.942C758.98 152.942 761.025 153.662 762.406 155.091C763.776 156.52 764.472 158.372 764.472 160.627V163.972H751.327C751.527 165.719 752.159 166.926 753.224 167.582C754.289 168.238 755.902 168.566 758.073 168.566C758.98 168.566 759.918 168.482 760.877 168.302C761.837 168.122 762.669 167.9 763.376 167.614V170.662C762.564 171.022 761.636 171.287 760.593 171.456C759.549 171.647 758.432 171.732 757.24 171.732ZM751.327 161.273H760.835V160.013C760.835 158.775 760.498 157.801 759.813 157.102C759.127 156.403 757.978 156.054 756.366 156.054C754.447 156.054 753.129 156.478 752.412 157.314C751.696 158.15 751.327 159.473 751.327 161.273Z" fill="#887DC1"/>
<path d="M768.636 171.35V153.323H772.42L772.652 155.419C773.506 154.858 774.529 154.35 775.72 153.895C776.911 153.439 778.081 153.122 779.241 152.942V156.096C778.535 156.224 777.765 156.403 776.953 156.647C776.142 156.89 775.362 157.155 774.624 157.441C773.896 157.737 773.274 158.034 772.768 158.33V171.34H768.636V171.35Z" fill="#887DC1"/>
<path d="M162.447 9.14603H114.525C112.975 3.89553 109.844 0 102.992 0C96.1401 0 92.5981 3.89553 91.0485 9.14603H43.5266C20.6617 9.14603 2.12939 27.7557 2.12939 50.716V141.075C2.12939 164.036 20.6617 182.645 43.5266 182.645H67.5827V227.751C67.5827 236.728 74.8248 244 83.7642 244H98.1325V213.323H107.841V244H122.21C131.149 244 138.391 236.728 138.391 227.751V182.645H162.447C185.312 182.645 203.844 164.036 203.844 141.075V50.716C203.844 27.7557 185.312 9.14603 162.447 9.14603ZM173.695 148.612C173.695 150.91 171.829 152.783 169.521 152.783H36.1369C33.8282 152.783 31.9624 150.92 31.9624 148.612V43.5813C31.9624 41.2842 33.8282 39.4105 36.1369 39.4105H169.521C171.829 39.4105 173.695 41.2736 173.695 43.5813V148.612Z" fill="url(#paint0_linear_0_365)"/>
<path d="M32.1521 209.353V224.872C32.1521 232.536 38.3401 238.76 45.9828 238.76C53.6255 238.76 59.8135 232.546 59.8135 224.872V195.475H45.9722C38.3401 195.475 32.1521 201.689 32.1521 209.353Z" fill="url(#paint1_linear_0_365)"/>
<path d="M159.865 217.112H175.319C182.951 217.112 189.149 210.899 189.149 203.224C189.149 195.549 182.961 189.336 175.319 189.336H146.044V203.224C146.034 210.899 152.232 217.112 159.865 217.112Z" fill="url(#paint2_linear_0_365)"/>
<path d="M67.2559 104.491C73.9046 104.491 79.2945 99.0789 79.2945 92.4024C79.2945 85.7259 73.9046 80.3136 67.2559 80.3136C60.6072 80.3136 55.2173 85.7259 55.2173 92.4024C55.2173 99.0789 60.6072 104.491 67.2559 104.491Z" fill="url(#paint3_linear_0_365)"/>
<path d="M147.035 79.8266C145.517 78.5352 143.536 77.8895 141.543 77.8895C140.478 77.8895 139.403 78.08 138.402 78.4611L138.391 78.4717L135.45 80.3559L116.58 92.4236L135.25 104.587L138.391 106.63L138.402 106.64C141.248 107.72 144.695 107.265 147.035 105.264C150.071 102.681 150.546 98.0023 147.52 95.4088L143.103 92.54L147.035 89.883C150.071 87.3001 150.071 82.4095 147.035 79.8266Z" fill="url(#paint4_linear_0_365)"/>
<path d="M90.7849 117.935C90.7849 124.615 96.1717 130.024 102.824 130.024C109.475 130.024 114.862 124.615 114.862 117.935" fill="url(#paint5_linear_0_365)"/>
</g>
<defs>
<linearGradient id="paint0_linear_0_365" x1="2.1329" y1="121.998" x2="203.843" y2="121.998" gradientUnits="userSpaceOnUse">
<stop stop-color="#7DD1C1"/>
<stop offset="0.4732" stop-color="#887DC1"/>
</linearGradient>
<linearGradient id="paint1_linear_0_365" x1="32.1487" y1="217.114" x2="59.8012" y2="217.114" gradientUnits="userSpaceOnUse">
<stop stop-color="#7DD1C1"/>
<stop offset="0.8972" stop-color="#887DC1"/>
</linearGradient>
<linearGradient id="paint2_linear_0_365" x1="146.038" y1="203.23" x2="189.141" y2="203.23" gradientUnits="userSpaceOnUse">
<stop stop-color="#7DD1C1"/>
<stop offset="0.8972" stop-color="#887DC1"/>
</linearGradient>
<linearGradient id="paint3_linear_0_365" x1="55.2194" y1="92.4011" x2="79.2951" y2="92.4011" gradientUnits="userSpaceOnUse">
<stop stop-color="#7DD1C1"/>
<stop offset="2.77045e-07" stop-color="#81ADC0"/>
<stop offset="0.5754" stop-color="#887DC1"/>
</linearGradient>
<linearGradient id="paint4_linear_0_365" x1="116.589" y1="92.5489" x2="149.566" y2="92.5489" gradientUnits="userSpaceOnUse">
<stop stop-color="#7DD1C1"/>
<stop offset="2.77045e-07" stop-color="#81ADC0"/>
<stop offset="0.5754" stop-color="#887DC1"/>
</linearGradient>
<linearGradient id="paint5_linear_0_365" x1="90.7894" y1="123.979" x2="114.865" y2="123.979" gradientUnits="userSpaceOnUse">
<stop stop-color="#7DD1C1"/>
<stop offset="2.77045e-07" stop-color="#81ADC0"/>
<stop offset="0.5754" stop-color="#887DC1"/>
</linearGradient>
<clipPath id="clip0_0_365">
<rect width="780" height="244" fill="white"/>
</clipPath>
</defs>
</svg>
