<svg width="111" height="30" viewBox="0 0 111 30" fill="none" xmlns="http://www.w3.org/2000/svg">
<path d="M51.2509 19.8633C52.3819 19.8633 53.3009 18.9436 53.3009 17.8069C53.3009 16.6725 52.384 15.7505 51.2509 15.7505C50.12 15.7505 49.201 16.6703 49.201 17.8069C49.201 18.9414 50.12 19.8633 51.2509 19.8633Z" fill="#887DC1"/>
<path d="M21.6391 19.8633C22.77 19.8633 23.689 18.9436 23.689 17.8069C23.689 16.6725 22.7722 15.7505 21.6391 15.7505C20.5082 15.7505 19.5891 16.6703 19.5891 17.8069C19.5913 18.9414 20.5082 19.8633 21.6391 19.8633Z" fill="#887DC1"/>
<path d="M65.1335 19.8633C66.2644 19.8633 67.1835 18.9436 67.1835 17.8069C67.1835 16.6725 66.2666 15.7505 65.1335 15.7505C64.0026 15.7505 63.0836 16.6703 63.0836 17.8069C63.0836 18.9414 64.0026 19.8633 65.1335 19.8633Z" fill="#887DC1"/>
<path d="M0 19.9718V0H8.90258C10.9439 0 12.6846 0.336226 14.1269 1.00868C15.5693 1.68113 16.6721 2.75705 17.4354 4.23427C18.1987 5.7115 18.5793 7.67245 18.5793 10.1106C18.5793 13.5423 17.7446 16.0456 16.0752 17.6161C14.4059 19.1887 12.0143 19.974 8.90258 19.974H0V19.9718ZM5.81252 15.5054H8.16304C9.1318 15.5054 9.94486 15.3666 10.6044 15.0868C11.2639 14.8069 11.7678 14.2798 12.1202 13.5054C12.4705 12.731 12.6457 11.5987 12.6457 10.1106C12.6457 8.62256 12.4857 7.47072 12.1656 6.65293C11.8456 5.83731 11.3569 5.26898 10.6974 4.94794C10.0378 4.6269 9.19234 4.46638 8.16304 4.46638H5.81252V15.5054Z" fill="#887DC1"/>
<path d="M25.7563 19.9718L33.3917 0H39.5437L47.1791 19.9718H41.1201L39.4507 15.7223H33.4523L31.8132 19.9718H25.7563ZM34.2264 11.5358H38.6788L36.4537 5.67462L34.2264 11.5358Z" fill="#887DC1"/>
<path d="M55.3184 19.9718V0H61.1309V19.9718H55.3184Z" fill="#887DC1"/>
<path d="M73.2252 19.9718L68.5869 0H74.2761L76.5337 10.5748L78.7285 3.00868V0H83.4901L86.5196 10.6052L88.9004 0H94.5897L89.9838 19.9718H84.7291L81.7277 9.64425L78.482 19.9718H73.2252Z" fill="#887DC1"/>
<path d="M102.106 19.7852C99.1783 19.7852 97.0202 19.1345 95.6298 17.8308C94.2394 16.5293 93.5431 14.6269 93.5431 12.1236C93.5431 9.64208 94.2437 7.7462 95.6449 6.43384C97.0462 5.12147 99.1999 4.4642 102.106 4.4642C105.032 4.4642 107.201 5.12147 108.613 6.43384C110.025 7.7462 110.73 9.64425 110.73 12.1236C110.73 14.6247 110.029 16.5271 108.628 17.8308C107.227 19.1345 105.054 19.7852 102.106 19.7852ZM102.106 15.5358C103.053 15.5358 103.739 15.2668 104.163 14.7288C104.584 14.1909 104.796 13.3232 104.796 12.1236C104.796 10.9458 104.584 10.0824 104.163 9.53362C103.741 8.98698 103.055 8.71149 102.106 8.71149C101.179 8.71149 100.508 8.98481 100.097 9.53362C99.6843 10.0824 99.4789 10.9436 99.4789 12.1236C99.4789 13.3232 99.6843 14.1909 100.097 14.7288C100.508 15.269 101.179 15.5358 102.106 15.5358Z" fill="#887DC1"/>
<path d="M2.57973 27.5792V25.7158L0.784943 22.5596H1.66287L2.99923 25L4.3356 22.5596H5.21353L3.41874 25.7158V27.5792H2.57973Z" fill="#887DC1"/>
<path d="M7.09483 27.6573C6.43097 27.6573 5.94659 27.4902 5.63737 27.1583C5.32815 26.8265 5.17462 26.3514 5.17462 25.731C5.17462 25.1128 5.33031 24.6377 5.6417 24.3037C5.95308 23.9718 6.43746 23.8048 7.09483 23.8048C7.75869 23.8048 8.24522 23.9718 8.55661 24.3037C8.86799 24.6356 9.02369 25.1106 9.02369 25.731C9.02369 26.3492 8.87015 26.8243 8.56093 27.1583C8.25171 27.4924 7.76301 27.6573 7.09483 27.6573ZM7.09483 26.9414C7.48406 26.9414 7.75868 26.846 7.92302 26.6573C8.0852 26.4685 8.16738 26.1605 8.16738 25.7332C8.16738 25.308 8.0852 25 7.92302 24.8134C7.76084 24.6269 7.48406 24.5336 7.09483 24.5336C6.71209 24.5336 6.43746 24.6269 6.27528 24.8134C6.1131 25 6.03093 25.308 6.03093 25.7332C6.03093 26.1605 6.1131 26.4664 6.27528 26.6573C6.43746 26.846 6.70992 26.9414 7.09483 26.9414Z" fill="#887DC1"/>
<path d="M11.2055 27.6573C10.7644 27.6573 10.4271 27.5358 10.1914 27.2907C9.95567 27.0455 9.8389 26.6876 9.8389 26.2147V23.885H10.6866V26.2147C10.6866 26.4902 10.7536 26.692 10.8877 26.8221C11.0217 26.9523 11.2293 27.0173 11.5104 27.0173C11.718 27.0173 11.9083 26.9783 12.0856 26.9002C12.2608 26.8221 12.4143 26.718 12.5441 26.5878V23.8829H13.3831V27.577H12.6133L12.5743 27.1952C12.4078 27.3254 12.211 27.4338 11.984 27.5228C11.7548 27.6139 11.4953 27.6573 11.2055 27.6573Z" fill="#887DC1"/>
<path d="M14.3972 27.5792V23.885H15.1735L15.2211 24.3145C15.3962 24.1996 15.606 24.0954 15.8503 24.0022C16.0947 23.9089 16.3347 23.8438 16.5726 23.8069V24.4534C16.4277 24.4794 16.2698 24.5163 16.1033 24.5662C15.9347 24.6161 15.7768 24.6703 15.6255 24.7289C15.4763 24.7896 15.3487 24.8503 15.2449 24.9111V27.577H14.3972V27.5792Z" fill="#887DC1"/>
<path d="M19.0377 29.2625V23.885H19.7686L19.8162 24.2516C19.9827 24.0998 20.1622 23.9892 20.3589 23.9154C20.5557 23.8438 20.7893 23.8069 21.0574 23.8069C21.585 23.8069 21.998 23.9501 22.2921 24.2386C22.5862 24.5271 22.7354 25.0043 22.7354 25.6681C22.7354 26.3341 22.5819 26.8308 22.277 27.1605C21.9721 27.4902 21.5548 27.6551 21.025 27.6551C20.5795 27.6551 20.1989 27.551 19.8832 27.3427V29.2603H19.0377V29.2625ZM20.8087 27.0195C21.5245 27.0195 21.8813 26.5683 21.8813 25.6638C21.8813 25.2278 21.8013 24.9176 21.6412 24.7332C21.4812 24.5488 21.2109 24.4577 20.8325 24.4577C20.4541 24.4577 20.1384 24.5879 19.8854 24.8482V26.6963C20.0043 26.7961 20.1384 26.8742 20.2854 26.9349C20.4325 26.9892 20.6055 27.0195 20.8087 27.0195Z" fill="#887DC1"/>
<path d="M25.4557 27.6573C24.8135 27.6573 24.3161 27.4989 23.9637 27.1822C23.6112 26.8655 23.436 26.3796 23.436 25.7245C23.436 25.1323 23.5874 24.6638 23.8858 24.321C24.1864 23.9783 24.6427 23.8069 25.2524 23.8069C25.8125 23.8069 26.232 23.9544 26.5153 24.2473C26.7964 24.5401 26.9391 24.9197 26.9391 25.3818V26.0672H24.2426C24.2837 26.4252 24.4134 26.6725 24.6318 26.8069C24.8502 26.9414 25.1811 27.0087 25.6265 27.0087C25.8125 27.0087 26.005 26.9913 26.2017 26.9545C26.3985 26.9176 26.5693 26.872 26.7142 26.8135V27.4382C26.5477 27.5119 26.3574 27.5662 26.1434 27.6009C25.9271 27.6399 25.6979 27.6573 25.4557 27.6573ZM24.2426 25.5141H26.1931V25.256C26.1931 25.0022 26.1239 24.8026 25.9833 24.6594C25.8428 24.5163 25.6071 24.4447 25.2762 24.4447C24.8827 24.4447 24.6124 24.5315 24.4653 24.7028C24.3161 24.8742 24.2426 25.1453 24.2426 25.5141Z" fill="#887DC1"/>
<path d="M27.7933 27.5792V23.885H28.5696L28.6171 24.3145C28.7923 24.1996 29.0021 24.0954 29.2464 24.0022C29.4908 23.9089 29.7308 23.8438 29.9686 23.8069V24.4534C29.8238 24.4794 29.6659 24.5163 29.4994 24.5662C29.3329 24.6161 29.1729 24.6703 29.0215 24.7289C28.8723 24.7896 28.7447 24.8503 28.6409 24.9111V27.577H27.7933V27.5792Z" fill="#887DC1"/>
<path d="M31.8024 27.6573C31.5494 27.6573 31.3072 27.6399 31.0758 27.603C30.8444 27.5662 30.6541 27.5228 30.5049 27.4707V26.7527C30.6801 26.82 30.8747 26.872 31.0866 26.9089C31.2985 26.9458 31.5018 26.9631 31.6921 26.9631C31.9818 26.9631 32.1894 26.9371 32.3127 26.885C32.4381 26.833 32.4987 26.731 32.4987 26.5813C32.4987 26.4729 32.4619 26.3861 32.3862 26.3232C32.3105 26.2603 32.2002 26.2039 32.051 26.1518C31.904 26.0998 31.7159 26.0369 31.4888 25.9653C31.2704 25.8937 31.0823 25.8135 30.9223 25.7267C30.7622 25.6399 30.6368 25.5315 30.5503 25.3948C30.4617 25.2603 30.4184 25.0824 30.4184 24.8655C30.4184 24.5271 30.5395 24.2668 30.7839 24.0824C31.0282 23.8981 31.4196 23.8069 31.9581 23.8069C32.17 23.8069 32.3732 23.8221 32.5635 23.8547C32.756 23.885 32.9182 23.9241 33.0522 23.9718V24.6811C32.9073 24.6247 32.7473 24.5792 32.5743 24.5488C32.4013 24.5184 32.2392 24.5011 32.0878 24.5011C31.8197 24.5011 31.6164 24.5249 31.478 24.5705C31.3418 24.6182 31.2726 24.7115 31.2726 24.8503C31.2726 24.9957 31.3439 25.0976 31.4867 25.1584C31.6294 25.2169 31.8586 25.2994 32.1743 25.4035C32.4641 25.4924 32.6954 25.5857 32.8663 25.6833C33.0371 25.7831 33.1603 25.9002 33.236 26.039C33.3117 26.1757 33.3485 26.3558 33.3485 26.5727C33.3485 26.9371 33.2166 27.2082 32.9528 27.3861C32.6889 27.5683 32.3062 27.6573 31.8024 27.6573Z" fill="#887DC1"/>
<path d="M35.859 27.6573C35.1951 27.6573 34.7108 27.4902 34.4015 27.1583C34.0923 26.8265 33.9388 26.3514 33.9388 25.731C33.9388 25.1128 34.0945 24.6377 34.4059 24.3037C34.7172 23.9718 35.2016 23.8048 35.859 23.8048C36.5228 23.8048 37.0094 23.9718 37.3208 24.3037C37.6322 24.6356 37.7878 25.1106 37.7878 25.731C37.7878 26.3492 37.6343 26.8243 37.3251 27.1583C37.0159 27.4924 36.5272 27.6573 35.859 27.6573ZM35.859 26.9414C36.2482 26.9414 36.5228 26.846 36.6872 26.6573C36.8494 26.4685 36.9315 26.1605 36.9315 25.7332C36.9315 25.308 36.8494 25 36.6872 24.8134C36.525 24.6269 36.2482 24.5336 35.859 24.5336C35.4762 24.5336 35.2016 24.6269 35.0394 24.8134C34.8773 25 34.7951 25.308 34.7951 25.7332C34.7951 26.1605 34.8773 26.4664 35.0394 26.6573C35.2016 26.846 35.4762 26.9414 35.859 26.9414Z" fill="#887DC1"/>
<path d="M38.6398 27.5792V23.885H39.4161L39.4551 24.2755C39.6216 24.1453 39.8183 24.0347 40.0497 23.9436C40.2811 23.8525 40.5363 23.8069 40.8152 23.8069C41.2909 23.8069 41.6391 23.9176 41.8575 24.141C42.0759 24.3644 42.184 24.7137 42.184 25.1866V27.5792H41.345V25.2256C41.345 24.9393 41.2866 24.7397 41.1698 24.6247C41.0531 24.5098 40.8347 24.4534 40.5125 24.4534C40.32 24.4534 40.1319 24.4924 39.9481 24.5705C39.7643 24.6486 39.6107 24.7505 39.4853 24.8742V27.5792H38.6398Z" fill="#887DC1"/>
<path d="M44.195 27.6573C43.9615 27.6573 43.7453 27.616 43.5463 27.5336C43.3474 27.4512 43.1874 27.3232 43.0684 27.1562C42.9495 26.987 42.8889 26.7787 42.8889 26.5293C42.8889 26.1757 43.01 25.8915 43.2501 25.6768C43.4901 25.4599 43.862 25.3536 44.3659 25.3536H45.5465V25.1909C45.5465 25.0152 45.5184 24.8742 45.4644 24.7701C45.4103 24.6659 45.3108 24.59 45.1681 24.5445C45.0254 24.4967 44.8178 24.4751 44.5432 24.4751C44.1085 24.4751 43.702 24.5401 43.3236 24.6703V24.039C43.4901 23.9718 43.6912 23.9176 43.9291 23.8764C44.1669 23.8351 44.4243 23.8134 44.6989 23.8134C45.2373 23.8134 45.6482 23.9219 45.9293 24.141C46.2126 24.3601 46.3531 24.7158 46.3531 25.2082V27.5857H45.6309L45.5768 27.2126C45.4276 27.3579 45.2416 27.4707 45.0211 27.5488C44.8027 27.6182 44.528 27.6573 44.195 27.6573ZM44.4221 27.0499C44.6751 27.0499 44.8978 27.0065 45.0859 26.9219C45.2741 26.8351 45.4298 26.7202 45.5487 26.5748V25.9284H44.3832C44.1345 25.9284 43.955 25.9761 43.8426 26.0716C43.7301 26.167 43.6761 26.3145 43.6761 26.5119C43.6761 26.705 43.7409 26.8416 43.8707 26.9241C43.9983 27.0087 44.1821 27.0499 44.4221 27.0499Z" fill="#887DC1"/>
<path d="M48.2452 27.6573C47.9446 27.6573 47.7176 27.5835 47.5619 27.436C47.4062 27.2885 47.3284 27.0434 47.3284 26.6985V22.3254H48.176V26.6204C48.176 26.7657 48.202 26.8655 48.2539 26.9176C48.3058 26.9696 48.3836 26.9957 48.4874 26.9957C48.6128 26.9957 48.7318 26.9805 48.8442 26.9479V27.564C48.7447 27.6009 48.6518 27.6247 48.5609 27.6377C48.468 27.6508 48.3642 27.6573 48.2452 27.6573Z" fill="#887DC1"/>
<path d="M52.8749 27.6573C52.544 27.6573 52.25 27.6009 51.997 27.4859C51.744 27.3709 51.5472 27.1822 51.4066 26.9176C51.2661 26.6529 51.1969 26.2972 51.1969 25.8503C51.1969 25.4078 51.2726 25.0347 51.4218 24.731C51.5731 24.4273 51.7807 24.1974 52.0467 24.0412C52.3127 23.885 52.6154 23.8069 52.9527 23.8069C53.1755 23.8069 53.3744 23.833 53.5474 23.885C53.7204 23.9371 53.8869 24.0174 54.0491 24.1258V22.3254H54.8967V27.5792H54.1745L54.1204 27.2126C53.9539 27.3644 53.7744 27.4751 53.5777 27.5466C53.3787 27.6204 53.1452 27.6573 52.8749 27.6573ZM53.0998 27.0195C53.4782 27.0195 53.7939 26.8894 54.0469 26.6291V24.7809C53.8026 24.5618 53.4977 24.4534 53.13 24.4534C52.7733 24.4534 52.503 24.5727 52.3213 24.8113C52.1397 25.0499 52.0489 25.3991 52.0489 25.8568C52.0489 26.2993 52.1332 26.603 52.3019 26.7679C52.4727 26.9349 52.7387 27.0195 53.0998 27.0195Z" fill="#887DC1"/>
<path d="M56.2872 27.5792V24.5314H55.7271L55.805 23.885H57.1327V27.5792H56.2872ZM56.2158 23.1128V22.4121H57.1413V23.1128H56.2158Z" fill="#887DC1"/>
<path d="M59.6432 28.9523C59.3686 28.9523 59.094 28.9349 58.8193 28.9024C58.5447 28.8677 58.3112 28.8178 58.1209 28.7505V28.0954C58.3285 28.1627 58.5663 28.2148 58.8366 28.2516C59.1048 28.2885 59.3621 28.3059 59.6064 28.3059C59.9784 28.3059 60.2508 28.2842 60.4217 28.243C60.5925 28.2017 60.679 28.1085 60.679 27.9631C60.679 27.8547 60.6379 27.7766 60.5536 27.7332C60.4714 27.6898 60.3135 27.6681 60.08 27.6681H59.0853C58.4171 27.6681 58.082 27.4317 58.082 26.9588C58.082 26.8069 58.1252 26.6681 58.2139 26.538C58.3025 26.4078 58.4409 26.3102 58.6334 26.2408C58.4215 26.1367 58.2636 25.9935 58.1641 25.8113C58.0625 25.6291 58.0128 25.4121 58.0128 25.1562C58.0128 24.6833 58.1533 24.3406 58.4366 24.128C58.7199 23.9154 59.1415 23.8091 59.7059 23.8091C59.8249 23.8091 59.9503 23.8178 60.0778 23.8373C60.2076 23.8547 60.3092 23.872 60.3806 23.8872H61.7321L61.7083 24.4403H61.0877C61.1872 24.5228 61.2585 24.6269 61.3061 24.7527C61.3537 24.8764 61.3753 25.013 61.3753 25.1584C61.3753 25.5531 61.2564 25.8633 61.0185 26.0889C60.7806 26.3145 60.4195 26.4273 59.9395 26.4273C59.8573 26.4273 59.7794 26.423 59.7102 26.4165C59.641 26.41 59.5632 26.3991 59.481 26.3883C59.3253 26.4035 59.1848 26.4447 59.0615 26.5141C58.9383 26.5813 58.8756 26.6725 58.8756 26.7874C58.8756 26.8655 58.9058 26.9219 58.9685 26.9544C59.0312 26.9892 59.135 27.0043 59.2799 27.0043H60.3136C60.6812 27.0043 60.9644 27.0846 61.1634 27.243C61.3623 27.4013 61.4618 27.6312 61.4618 27.9328C61.4618 28.2972 61.3039 28.5575 60.9925 28.7158C60.6768 28.872 60.2292 28.9523 59.6432 28.9523ZM59.7059 25.8894C60.0433 25.8894 60.2768 25.833 60.4087 25.718C60.5406 25.603 60.6076 25.4078 60.6076 25.1345C60.6076 24.859 60.5406 24.6594 60.4087 24.5336C60.2768 24.4078 60.0411 24.3471 59.7059 24.3471C59.3902 24.3471 59.1588 24.4078 59.014 24.5271C58.8691 24.6464 58.7955 24.8482 58.7955 25.1345C58.7955 25.3991 58.8647 25.5922 59.001 25.7115C59.1394 25.8286 59.3729 25.8894 59.7059 25.8894Z" fill="#887DC1"/>
<path d="M62.6727 27.5792V24.5314H62.1148L62.1927 23.885H63.5204V27.5792H62.6727ZM62.6035 23.1128V22.4121H63.529V23.1128H62.6035Z" fill="#887DC1"/>
<path d="M65.9444 27.6573C65.5509 27.6573 65.2568 27.551 65.0622 27.3406C64.8675 27.1302 64.7702 26.8438 64.7702 26.4794V24.5488H64.2275V23.8872H64.7702V23.0369L65.6092 22.7787V23.885H66.5888L66.5347 24.5466H65.6092V26.4338C65.6092 26.6464 65.659 26.7961 65.7563 26.8829C65.8536 26.9696 66.0158 27.0109 66.2385 27.0109C66.3791 27.0109 66.5261 26.9848 66.6818 26.9328V27.5336C66.4807 27.6161 66.2342 27.6573 65.9444 27.6573Z" fill="#887DC1"/>
<path d="M68.509 27.6573C68.2755 27.6573 68.0593 27.616 67.8603 27.5336C67.6614 27.4512 67.5014 27.3232 67.3824 27.1562C67.2635 26.987 67.2029 26.7787 67.2029 26.5293C67.2029 26.1757 67.324 25.8915 67.5641 25.6768C67.8041 25.4599 68.176 25.3536 68.6799 25.3536H69.8605V25.1909C69.8605 25.0152 69.8324 24.8742 69.7784 24.7701C69.7243 24.6659 69.6248 24.59 69.4821 24.5445C69.3394 24.4967 69.1318 24.4751 68.8572 24.4751C68.4225 24.4751 68.016 24.5401 67.6376 24.6703V24.039C67.8041 23.9718 68.0052 23.9176 68.2431 23.8764C68.4809 23.8351 68.7382 23.8134 69.0129 23.8134C69.5513 23.8134 69.9622 23.9219 70.2433 24.141C70.5265 24.3601 70.6671 24.7158 70.6671 25.2082V27.5857H69.9449L69.8908 27.2126C69.7416 27.3579 69.5556 27.4707 69.3351 27.5488C69.1167 27.6182 68.8399 27.6573 68.509 27.6573ZM68.7339 27.0499C68.9869 27.0499 69.2096 27.0065 69.3978 26.9219C69.5859 26.8351 69.7416 26.7202 69.8605 26.5748V25.9284H68.695C68.4463 25.9284 68.2668 25.9761 68.1544 26.0716C68.042 26.167 67.9879 26.3145 67.9879 26.5119C67.9879 26.705 68.0528 26.8416 68.1825 26.9241C68.3123 27.0087 68.4961 27.0499 68.7339 27.0499Z" fill="#887DC1"/>
<path d="M72.557 27.6573C72.2564 27.6573 72.0294 27.5835 71.8737 27.436C71.718 27.2885 71.6402 27.0434 71.6402 26.6985V22.3254H72.4878V26.6204C72.4878 26.7657 72.5138 26.8655 72.5657 26.9176C72.6176 26.9696 72.6954 26.9957 72.7992 26.9957C72.9246 26.9957 73.0436 26.9805 73.156 26.9479V27.564C73.0565 27.6009 72.9636 27.6247 72.8727 27.6377C72.7819 27.6508 72.676 27.6573 72.557 27.6573Z" fill="#887DC1"/>
<path d="M75.5173 27.5792L77.4289 22.5596H78.376L80.2725 27.5792H79.4032L78.9058 26.2863H76.8926L76.3953 27.5792H75.5173ZM77.0245 25.6312H78.7653L77.896 23.3319L77.0245 25.6312Z" fill="#887DC1"/>
<path d="M80.9796 27.5792V26.9176H81.6953V27.5792H80.9796Z" fill="#887DC1"/>
<path d="M82.5559 27.5792V22.5596H83.4036V27.5792H82.5559Z" fill="#887DC1"/>
<path d="M84.2578 27.5792V26.9176H84.9735V27.5792H84.2578Z" fill="#887DC1"/>
<path d="M88.4701 27.5792L87.4992 23.885H88.3468L88.9847 26.5748L89.707 24.3384V23.8872H90.3514L91.1515 26.577L91.7894 23.8872H92.6284L91.664 27.5813H90.8639L90.0789 25.1649L89.2788 27.5813H88.4701V27.5792Z" fill="#887DC1"/>
<path d="M94.8946 27.6573C94.2307 27.6573 93.7463 27.4902 93.4371 27.1583C93.1279 26.8265 92.9744 26.3514 92.9744 25.731C92.9744 25.1128 93.1301 24.6377 93.4414 24.3037C93.7528 23.9718 94.2372 23.8048 94.8946 23.8048C95.5584 23.8048 96.045 23.9718 96.3564 24.3037C96.6677 24.6356 96.8234 25.1106 96.8234 25.731C96.8234 26.3492 96.6699 26.8243 96.3607 27.1583C96.0515 27.4924 95.5627 27.6573 94.8946 27.6573ZM94.8946 26.9414C95.2838 26.9414 95.5584 26.846 95.7228 26.6573C95.885 26.4685 95.9671 26.1605 95.9671 25.7332C95.9671 25.308 95.885 25 95.7228 24.8134C95.5606 24.6269 95.2838 24.5336 94.8946 24.5336C94.5118 24.5336 94.2372 24.6269 94.075 24.8134C93.9128 25 93.8307 25.308 93.8307 25.7332C93.8307 26.1605 93.9128 26.4664 94.075 26.6573C94.2394 26.846 94.5118 26.9414 94.8946 26.9414Z" fill="#887DC1"/>
<path d="M97.6776 27.5792V23.885H98.4539L98.5015 24.3145C98.6766 24.1996 98.8864 24.0954 99.1307 24.0022C99.3751 23.9089 99.6151 23.8438 99.853 23.8069V24.4534C99.7081 24.4794 99.5502 24.5163 99.3837 24.5662C99.2172 24.6161 99.0572 24.6703 98.9058 24.7289C98.7566 24.7896 98.629 24.8503 98.5252 24.9111V27.577H97.6776V27.5792Z" fill="#887DC1"/>
<path d="M100.497 27.5792V22.3254H101.345V25.3644L102.891 23.8829H103.862L102.363 25.3709L103.949 27.577H103.055L101.836 25.8243L101.347 26.2928V27.5792H100.497Z" fill="#887DC1"/>
<path d="M106.061 27.6573C105.419 27.6573 104.922 27.4989 104.569 27.1822C104.217 26.8655 104.042 26.3796 104.042 25.7245C104.042 25.1323 104.193 24.6638 104.491 24.321C104.792 23.9783 105.248 23.8069 105.858 23.8069C106.418 23.8069 106.837 23.9544 107.121 24.2473C107.402 24.5401 107.545 24.9197 107.545 25.3818V26.0672H104.848C104.889 26.4252 105.019 26.6725 105.237 26.8069C105.456 26.9414 105.787 27.0087 106.232 27.0087C106.418 27.0087 106.61 26.9913 106.807 26.9545C107.004 26.9176 107.175 26.872 107.32 26.8135V27.4382C107.153 27.5119 106.963 27.5662 106.749 27.6009C106.535 27.6399 106.306 27.6573 106.061 27.6573ZM104.848 25.5141H106.799V25.256C106.799 25.0022 106.729 24.8026 106.589 24.6594C106.448 24.5163 106.213 24.4447 105.882 24.4447C105.488 24.4447 105.218 24.5315 105.071 24.7028C104.924 24.8742 104.848 25.1453 104.848 25.5141Z" fill="#887DC1"/>
<path d="M108.399 27.5792V23.885H109.175L109.223 24.3145C109.398 24.1996 109.608 24.0954 109.852 24.0022C110.096 23.9089 110.336 23.8438 110.574 23.8069V24.4534C110.429 24.4794 110.271 24.5163 110.105 24.5662C109.938 24.6161 109.778 24.6703 109.627 24.7289C109.478 24.7896 109.35 24.8503 109.246 24.9111V27.577H108.399V27.5792Z" fill="#887DC1"/>
</svg>
