<svg width="546" height="501" viewBox="0 0 546 501" fill="none" xmlns="http://www.w3.org/2000/svg">
<path d="M243.806 447.19C232.053 445.126 227.924 439.064 225.113 431.965L213.288 402.023L237.411 406.277C249.172 408.341 253.293 414.458 256.095 421.502L267.92 451.444L243.806 447.19ZM239.53 459.506C225.486 456.207 218 460.988 211.514 467.523L186.045 493.156L214.862 499.927C228.915 503.227 236.392 498.446 242.887 491.901L268.356 466.278L239.53 459.506ZM277.589 466.278L303.058 491.901C309.553 498.446 317.039 503.227 331.084 499.927L359.91 493.192L334.44 467.559C327.946 461.024 320.469 456.243 306.415 459.542L277.589 466.278ZM212.851 441.827L207.093 411.004C205.62 403.151 202.591 396.061 190.902 391.58L166.915 382.381L172.673 413.204C174.147 421.066 177.167 428.138 188.865 432.628L212.851 441.827ZM181.015 442.49C168.917 436.064 160.885 438.645 153.326 443.081L123.699 460.47L148.532 473.659C160.63 480.094 168.671 477.512 176.212 473.077L205.847 455.697L181.015 442.49ZM156.919 418.857L159.266 388.025C159.875 380.181 158.802 372.673 148.823 365.42L128.338 350.549L125.982 381.39C125.373 389.243 126.446 396.761 136.425 403.996L156.919 418.857ZM125.61 410.213C116.113 401.36 108.136 401.751 100.14 403.96L68.7673 412.604L88.2514 430.783C97.757 439.627 105.734 439.236 113.721 437.027L145.085 428.383L125.61 410.213ZM110.046 383.208L119.242 355.539C121.589 348.477 122.326 341.341 114.831 332.424L99.4943 314.127L90.2708 341.805C87.9149 348.868 87.1872 355.994 94.6824 364.911L110.046 383.208ZM83.3668 368.174C76.681 357.894 69.2767 356.43 61.4358 356.63L30.7179 357.384L44.4168 378.481C51.1025 388.762 58.5068 390.216 66.3478 390.016L97.0656 389.262L83.3668 368.174ZM73.934 338.178L88.6608 314.991C92.4084 309.082 94.7097 302.738 89.8978 292.894L80.0285 272.679L65.3017 295.857C61.545 301.774 59.2527 308.119 64.0646 317.963L73.934 338.178ZM53.0127 318.372C49.2469 307.464 42.8158 304.438 35.6117 302.829L7.4134 296.539L15.127 318.917C18.8928 329.825 25.3147 332.843 32.5098 334.451L60.7081 340.741L53.0127 318.372ZM51.1025 286.04L69.7679 268.288C74.5252 263.744 78.0364 258.517 75.9079 248.464L71.5144 227.849L52.8399 245.583C48.0826 250.127 44.5623 255.363 46.6999 265.407L51.1025 286.04ZM36.5486 263.271C35.5935 252.5 30.4359 248.3 24.2505 245.21L0 233.084L1.9011 255.181C2.81073 265.952 8.00466 270.152 14.1901 273.251L38.4406 285.368L36.5486 263.271ZM42.3792 235.093L62.8457 222.522C68.0669 219.314 72.2967 215.205 72.2967 205.616V185.964L51.8211 198.544C46.5908 201.753 42.361 205.87 42.361 215.46L42.3792 235.093ZM34.1926 211.069C35.4297 201.071 31.5184 196.217 26.4882 192.19L6.7039 176.42L4.16607 196.98C2.94717 206.979 6.84035 211.833 11.8796 215.86L31.673 231.621L34.1926 211.069ZM44.1985 185.928L65.1198 178.092C70.4501 176.084 75.0346 173.084 76.7356 164.349L80.2286 146.415L59.3073 154.259C53.9769 156.259 49.3924 159.25 47.6914 167.994L44.1985 185.928ZM41.2331 162.84C44.1348 153.932 41.4332 148.824 37.5946 144.261L22.2766 126.4L16.3277 144.688C13.426 153.605 16.1185 158.695 19.9662 163.267L35.2114 181.137L41.2331 162.84ZM54.8774 143.243L75.1347 139.462C80.3104 138.498 84.9586 136.507 87.8694 128.836L93.9184 113.084L73.6247 116.883C68.4581 117.847 63.8099 119.837 60.89 127.509L54.8774 143.243ZM55.0412 121.628C59.1072 113.993 57.4789 108.902 54.6773 104.149L43.6891 85.4603L35.3479 101.14C31.2819 108.775 32.9192 113.865 35.7208 118.61L46.6999 137.307L55.0412 121.628ZM70.3956 107.53L89.2793 107.003C94.0912 106.875 98.5847 105.73 102.36 99.2129L110.091 85.8239L91.2077 86.3511C86.3958 86.4784 81.8932 87.6146 78.1182 94.1409L70.3956 107.53ZM72.988 87.9781C77.7635 81.6154 77.0085 76.8252 75.162 72.1077L67.885 53.6104L58.0247 66.6085C53.2492 72.9712 54.0042 77.7705 55.8507 82.488L63.1277 100.985L72.988 87.9781ZM86.8324 79.9066L103.897 81.8245C108.254 82.3153 112.447 81.8699 116.632 76.4707L125.291 65.3996L108.218 63.4726C103.87 62.9908 99.6672 63.4726 95.4829 68.8355L86.8324 79.9066ZM90.9712 62.7273C96.0742 57.628 96.0105 53.1923 94.9371 48.7111L90.7438 31.1409L80.2831 41.594C75.1711 46.6932 75.2438 51.138 76.3081 55.6192L80.5106 73.1894L90.9712 62.7273ZM107.19 56.8917L122.162 60.7366C125.982 61.7183 129.776 61.8456 134.205 57.5553L143.302 48.7747L128.338 44.9117C124.527 43.93 120.734 43.8118 116.286 48.093L107.19 56.8917ZM112.975 42.2484C118.151 38.349 118.651 34.3859 118.26 30.2593L116.723 14.0798L106.089 22.0877C100.895 25.9871 100.395 29.9502 100.795 34.0769L102.332 50.2745L112.975 42.2484ZM128.02 39.1034L139.909 42.4847C142.947 43.3482 145.976 43.53 149.614 40.1851L157.073 33.3497L145.185 29.9684C142.146 29.1049 139.117 28.9322 135.479 32.2589L128.02 39.1034ZM148.223 25.0782L156.409 28.0505C157.547 28.5605 158.809 28.7255 160.04 28.5251C161.27 28.3248 162.415 27.7678 163.332 26.9234L168.908 22.5058L160.721 19.5335C159.584 19.0224 158.322 18.8558 157.092 19.0546C155.861 19.2533 154.716 19.8086 153.799 20.6515L148.223 25.0782ZM151.37 14.8251C152.466 14.2477 153.368 13.3606 153.964 12.2744C154.559 11.1882 154.821 9.95098 154.717 8.71691L154.608 0.0363523L148.596 3.83581C147.495 4.42241 146.591 5.31919 145.996 6.41481C145.401 7.51042 145.141 8.75659 145.248 9.99855L145.367 18.6882L151.37 14.8251ZM392.128 20.6697C391.211 19.8268 390.066 19.2715 388.835 19.0728C387.605 18.874 386.343 19.0405 385.206 19.5517L377.02 22.524L382.596 26.9415C383.512 27.786 384.657 28.3429 385.888 28.5433C387.118 28.7437 388.38 28.5786 389.518 28.0686L397.704 25.0964L392.128 20.6697ZM400.579 18.6518L400.688 9.96218C400.796 8.72119 400.538 7.4757 399.944 6.38019C399.351 5.28467 398.449 4.38733 397.35 3.79944L391.328 0L391.219 8.71691C391.111 9.95791 391.369 11.2034 391.962 12.2989C392.556 13.3944 393.458 14.2918 394.557 14.8797L400.579 18.6518ZM133.996 25.7781C138.453 23.1057 139.172 19.988 139.208 16.6885L139.345 3.69037L130.249 9.14412C125.791 11.8165 125.064 14.9251 125.036 18.2337L124.9 31.2409L133.996 25.7781ZM302.14 447.19C313.892 445.126 318.013 439.064 320.832 431.965L332.657 402.023L308.534 406.277C296.773 408.341 292.643 414.458 289.842 421.502L278.017 451.444L302.14 447.19ZM357.081 432.646C368.76 428.156 371.798 421.084 373.263 413.222L379.03 382.399L355.043 391.598C343.345 396.079 340.326 403.169 338.852 411.022L333.085 441.845L357.081 432.646ZM340.098 455.688L369.715 473.068C377.274 477.503 385.306 480.085 397.413 473.649L422.246 460.47L392.62 443.09C385.061 438.655 377.038 436.073 364.94 442.499L340.098 455.688ZM409.511 403.96C419.517 396.688 420.572 389.207 419.963 381.354L417.598 350.549L397.113 365.42C387.107 372.691 386.052 380.181 386.662 388.025L389.045 418.83L409.511 403.96ZM400.815 428.365L432.152 437.009C440.156 439.218 448.134 439.609 457.621 430.765L477.114 412.586L445.796 403.96C437.791 401.751 429.814 401.36 420.327 410.213L400.815 428.365ZM451.254 364.911C458.749 355.994 458.021 348.868 455.665 341.805L446.451 314.127L431.069 332.424C423.583 341.341 424.311 348.477 426.667 355.539L435.89 383.208L451.254 364.911ZM448.88 389.262L479.598 390.016C487.429 390.216 494.834 388.762 501.51 378.481L515.228 357.384L484.51 356.63C476.669 356.43 469.264 357.894 462.579 368.174L448.88 389.262ZM481.881 317.954C486.693 308.11 484.4 301.765 480.644 295.848L465.917 272.669L456.048 292.885C451.236 302.729 453.528 309.073 457.285 314.982L472.021 338.169L481.881 317.954ZM485.255 340.732L513.454 334.442C520.649 332.833 527.098 329.816 530.837 318.908L538.577 296.53L510.379 302.82C503.175 304.429 496.735 307.446 492.996 318.363L485.255 340.732ZM499.255 265.407C501.383 255.408 497.863 250.109 493.115 245.583L474.44 227.84L470.065 248.455C467.918 258.508 471.447 263.753 476.205 268.279L494.861 286.031L499.255 265.407ZM507.487 285.404L531.737 273.224C537.922 270.124 543.089 265.952 544.026 255.154L545.964 233.048L521.713 245.174C515.537 248.264 510.37 252.445 509.424 263.234L507.487 285.404ZM503.593 215.469C503.593 205.879 499.355 201.762 494.124 198.553L473.649 185.964V205.643C473.649 215.232 477.888 219.341 483.109 222.55L503.593 235.13V215.469ZM514.291 231.666L534.075 215.905C539.123 211.878 543.016 207.043 541.788 197.026L539.26 176.465L519.475 192.199C514.427 196.226 510.534 201.062 511.762 211.078L514.291 231.666ZM498.29 168.039C496.589 159.295 491.996 156.305 486.665 154.305L465.744 146.461L469.219 164.394C470.929 173.129 475.513 176.129 480.844 178.138L501.765 185.973L498.29 168.039ZM510.698 181.174L525.934 163.24C529.818 158.695 532.51 153.578 529.572 144.661L523.623 126.373L508.387 144.243C504.503 148.787 501.801 153.914 504.703 162.822L510.698 181.174ZM485.083 127.545C482.135 119.874 477.487 117.883 472.348 116.919L452.082 113.129L458.14 128.881C461.087 136.553 465.735 138.544 470.874 139.507L491.141 143.243L485.083 127.545ZM499.309 137.353L510.297 118.656C513.099 113.883 514.736 108.821 510.67 101.185L502.329 85.5058L491.341 104.158C488.539 108.939 486.911 114.002 490.968 121.637L499.309 137.353ZM467.891 94.1591C464.116 87.6327 459.622 86.4965 454.81 86.3693L435.918 85.8421L443.649 99.231C447.424 105.748 451.927 106.894 456.739 107.021L475.623 107.548L467.891 94.1591ZM482.827 100.994L490.104 82.4971C491.923 77.7796 492.696 72.9621 487.93 66.6176L478.115 53.6195L470.838 72.1168C469.019 76.8343 468.227 81.6609 473.012 87.9872L482.827 100.994ZM450.517 68.8536C446.296 63.4635 442.112 63.009 437.782 63.4908L420.718 65.4178L429.377 76.4889C433.598 81.8881 437.791 82.3335 442.112 81.8427L459.177 79.9248L450.517 68.8536ZM465.508 73.2076L469.701 55.6374C470.774 51.1562 470.829 46.7114 465.735 41.6121L455.265 31.1591L451.072 48.7111C450.008 53.1923 449.935 57.628 455.047 62.7273L465.508 73.2076ZM429.65 48.1021C425.211 43.8209 421.464 43.9391 417.607 44.9207L402.625 48.7656L411.722 57.5462C416.161 61.8365 419.954 61.7092 423.774 60.7275L438.756 56.8917L429.65 48.1021ZM443.613 50.2654L445.15 34.0678C445.541 29.9411 445.041 25.978 439.856 22.0786L429.214 14.0707L427.676 30.2502C427.285 34.3768 427.786 38.3399 432.97 42.2393L443.613 50.2654ZM410.466 32.2499C406.828 28.9231 403.79 29.0958 400.761 29.9593L388.863 33.3406L396.331 40.176C399.969 43.5209 402.998 43.3392 406.028 42.4757L417.916 39.0943L410.466 32.2499ZM421.064 31.2682L420.927 18.261C420.927 14.9433 420.172 11.8346 415.715 9.17139L406.619 3.71764L406.746 16.7158C406.746 20.0335 407.51 23.1512 411.958 25.8053L421.064 31.2682Z" fill="url(#paint0_linear_560_2848)"/>
<path d="M205.365 356.957L196.033 370.482C194.978 372.036 194.45 373.018 194.45 373.418C194.45 374.045 195.023 374.454 196.169 374.636V375.708H179.532V374.636C180.536 374.602 181.499 374.226 182.261 373.572C183.548 372.253 184.705 370.813 185.718 369.273L194.659 356.548C186.321 355.263 182.149 350.87 182.143 343.368C182.13 341.235 182.554 339.122 183.389 337.16C184.222 335.219 185.608 333.566 187.373 332.406C189.009 331.353 190.836 330.631 192.749 330.279C195.508 329.825 198.303 329.624 201.099 329.679H229.916V330.751C229.278 330.89 228.692 331.205 228.224 331.66C227.88 332.113 227.712 332.675 227.751 333.242V372.218C227.716 372.773 227.884 373.323 228.224 373.763C228.692 374.219 229.278 374.534 229.916 374.672V375.745H215.544V374.672C216.177 374.54 216.756 374.224 217.209 373.763C217.56 373.32 217.735 372.764 217.7 372.2V356.929L205.365 356.957ZM217.654 337.296H202.136C200.509 337.263 198.881 337.327 197.261 337.487C196.354 337.607 195.477 337.897 194.677 338.341C192.973 339.268 192.121 340.932 192.121 343.331C192.121 345.731 192.973 347.394 194.677 348.321C195.487 348.755 196.368 349.042 197.279 349.167C198.892 349.333 200.515 349.4 202.136 349.367H217.654V337.296Z" fill="#2F3E63"/>
<path d="M273.023 343.304L262.489 369.9C262.059 370.704 261.752 371.568 261.58 372.463C261.58 373.49 262.407 374.227 264.072 374.654V375.726H249.245V374.654C250.755 374.363 251.51 373.59 251.51 372.354C251.316 371.325 251.011 370.319 250.6 369.355L237.402 335.414C236.994 334.186 236.395 333.03 235.628 331.987C235.006 331.346 234.192 330.925 233.309 330.787V329.715H249.318V330.787C247.908 331.106 247.199 331.769 247.199 332.778C247.256 333.544 247.437 334.296 247.735 335.005L256.831 359.356L266.692 334.869C267.008 334.207 267.225 333.503 267.338 332.778C267.338 331.742 266.583 331.087 265.073 330.787V329.715H281.81V330.787C280.281 331.196 279.517 331.924 279.517 332.978C279.606 333.678 279.799 334.362 280.09 335.005L289.496 359.356L298.592 335.414C298.977 334.572 299.217 333.672 299.302 332.751C299.302 331.763 298.492 331.109 296.873 330.787V329.715H312.709V330.787C311.832 330.969 311.023 331.391 310.372 332.005C309.657 333.059 309.091 334.206 308.689 335.414L295.49 369.355C295.03 370.383 294.724 371.473 294.581 372.59C294.581 373.699 295.372 374.408 296.973 374.654V375.726H281.864V374.654C283.447 374.399 284.229 373.654 284.229 372.39C284.029 371.333 283.677 370.311 283.183 369.355L273.023 343.304Z" fill="#2F3E63"/>
<path d="M328.283 356.956V372.227C328.248 372.791 328.423 373.348 328.774 373.79C329.227 374.251 329.806 374.567 330.438 374.699V375.772H316.066V374.699C316.704 374.561 317.291 374.246 317.758 373.79C318.099 373.35 318.267 372.801 318.231 372.245V333.214C318.271 332.647 318.103 332.085 317.758 331.633C317.291 331.177 316.704 330.863 316.066 330.724V329.651H344.883C347.679 329.597 350.474 329.797 353.234 330.251C355.147 330.604 356.973 331.326 358.609 332.378C360.375 333.539 361.76 335.192 362.594 337.132C363.429 339.095 363.853 341.208 363.84 343.34C363.84 350.842 359.668 355.236 351.323 356.52L360.265 369.246C361.277 370.786 362.435 372.225 363.721 373.545C364.484 374.199 365.446 374.574 366.45 374.608V375.681H349.768V374.608C350.914 374.427 351.487 374.018 351.487 373.39C351.487 372.991 350.959 372.009 349.904 370.455L340.572 356.911L328.283 356.956ZM328.283 349.367H343.801C345.422 349.4 347.045 349.333 348.658 349.167C349.569 349.042 350.45 348.755 351.26 348.321C352.958 347.406 353.81 345.743 353.816 343.331C353.822 340.919 352.97 339.256 351.26 338.341C350.46 337.896 349.584 337.607 348.676 337.487C347.056 337.327 345.428 337.263 343.801 337.296H328.283V349.367Z" fill="#2F3E63"/>
<path d="M225.94 131.145C229.452 129.563 233.845 131.263 238.511 133.945C233.427 139.789 234.691 147.279 242.768 151.06C240.34 148.643 236.71 144.252 240.649 140.907C241.559 148.679 247.926 146.061 254.348 147.152C257.714 147.715 247.28 157.378 255.958 163.795C251.719 153.842 262.835 148.87 262.762 144.707C265.564 143.798 267.874 141.016 269.393 135.308C256.285 147.015 243.169 117.229 225.94 131.145ZM243.469 136.072L247.971 138.935C246.944 139.02 245.91 138.943 244.906 138.708C245.288 144.089 250.009 144.161 251.947 144.243C244.297 145.661 242.814 141.025 243.469 136.072Z" fill="#2F3E63"/>
<path d="M305.196 140.907C309.135 144.252 305.515 148.643 303.086 151.061C311.163 147.279 312.428 139.789 307.334 133.945C312.009 131.263 316.43 129.564 319.905 131.145C302.677 117.229 289.569 147.016 276.452 135.281C277.98 140.989 280.282 143.762 283.092 144.68C283.02 148.87 294.135 153.842 289.896 163.768C298.574 157.351 288.141 147.688 291.506 147.125C297.937 146.061 304.314 148.697 305.196 140.907ZM293.89 144.243C295.827 144.198 300.548 144.089 300.93 138.708C299.926 138.943 298.892 139.02 297.865 138.935L302.358 136.072C303.04 141.026 301.558 145.661 293.89 144.243Z" fill="#2F3E63"/>
<path d="M344.346 107.512C344.689 107.513 345.028 107.435 345.337 107.285C345.842 107.041 346.24 106.62 346.454 106.101C346.668 105.583 346.684 105.004 346.498 104.475C346.312 103.946 345.937 103.503 345.446 103.233C344.954 102.962 344.38 102.882 343.833 103.007C343.286 103.132 342.805 103.455 342.48 103.912C342.156 104.37 342.012 104.931 342.075 105.488C342.139 106.045 342.405 106.56 342.824 106.933C343.243 107.307 343.784 107.513 344.346 107.512Z" fill="#2F3E63"/>
<path d="M335.441 114.155L335.059 113.801L335.577 114.301L335.441 114.155Z" fill="#2F3E63"/>
<path d="M232.217 90.1316C232.694 90.1377 233.162 89.996 233.555 89.726C233.948 89.456 234.248 89.0709 234.414 88.6236C234.579 88.1763 234.602 87.6888 234.479 87.2281C234.356 86.7673 234.093 86.3559 233.727 86.0503C233.432 85.7913 233.074 85.6129 232.69 85.5322C232.535 85.4987 232.376 85.4834 232.217 85.4868C231.887 85.4859 231.561 85.5572 231.262 85.6958C230.775 85.9121 230.378 86.2891 230.137 86.7636C229.895 87.238 229.825 87.781 229.937 88.3013C230.049 88.8216 230.337 89.2875 230.752 89.6208C231.167 89.9541 231.684 90.1345 232.217 90.1316Z" fill="#2F3E63"/>
<path d="M202.472 102.867C202.012 102.867 201.561 103.004 201.178 103.259C200.796 103.515 200.497 103.878 200.321 104.304C200.145 104.729 200.098 105.197 200.188 105.648C200.278 106.099 200.5 106.514 200.826 106.84C201.151 107.165 201.566 107.387 202.018 107.476C202.47 107.566 202.938 107.52 203.363 107.344C203.789 107.168 204.153 106.87 204.408 106.487C204.664 106.104 204.801 105.654 204.801 105.194C204.802 104.888 204.743 104.585 204.626 104.302C204.509 104.019 204.338 103.762 204.121 103.546C203.905 103.33 203.648 103.158 203.365 103.042C203.082 102.925 202.778 102.866 202.472 102.867Z" fill="#2F3E63"/>
<path d="M314.601 90.1324C315.062 90.1324 315.512 89.9959 315.895 89.7402C316.278 89.4845 316.576 89.1211 316.752 88.6959C316.929 88.2707 316.975 87.8029 316.885 87.3515C316.795 86.9001 316.573 86.4855 316.248 86.1601C315.922 85.8346 315.507 85.613 315.055 85.5232C314.604 85.4334 314.135 85.4795 313.71 85.6557C313.284 85.8318 312.921 86.13 312.665 86.5127C312.409 86.8953 312.272 87.3452 312.272 87.8055C312.272 88.4226 312.518 89.0145 312.954 89.4509C313.391 89.8872 313.983 90.1324 314.601 90.1324Z" fill="#2F3E63"/>
<path d="M361.265 147.014C363.712 127.426 364.321 107.229 359.027 88.4135C352.931 67.0108 338.902 48.7339 319.795 37.3028C318.777 36.6938 317.74 36.112 316.694 35.5485C303.391 27.8555 288.293 23.8047 272.923 23.8047C257.553 23.8047 242.455 27.8555 229.152 35.5485C228.106 36.112 227.078 36.6938 226.059 37.3028C206.953 48.7364 192.922 67.0118 186.818 88.4135C181.506 107.302 182.142 127.581 184.607 147.232C170.645 200.297 191.048 242.673 207.585 258.262C198.006 233.892 209.995 215.032 200.135 189.381C220.792 211.905 197.824 262.597 251.201 291.62C242.741 278.686 232.799 263.997 235.401 233.665C239.176 267.215 260.224 280.177 272.968 307.582C285.703 280.177 306.76 267.215 310.535 233.665C313.137 263.997 303.204 278.686 294.744 291.62C348.112 262.597 325.144 211.905 345.801 189.381C335.95 215.032 347.939 233.92 338.352 258.262C354.916 242.618 375.355 200.179 361.265 147.014ZM314.601 83.2507C315.501 83.2507 316.38 83.5172 317.128 84.0166C317.876 84.516 318.459 85.2258 318.803 86.0562C319.148 86.8867 319.238 87.8005 319.062 88.6821C318.887 89.5637 318.453 90.3735 317.817 91.0091C317.181 91.6447 316.371 92.0776 315.489 92.2529C314.606 92.4283 313.692 92.3383 312.861 91.9943C312.03 91.6503 311.32 91.0678 310.82 90.3204C310.32 89.573 310.053 88.6943 310.053 87.7955C310.053 86.5901 310.532 85.4341 311.385 84.5818C312.238 83.7295 313.395 83.2507 314.601 83.2507ZM232.217 83.2507C233.117 83.2507 233.996 83.5172 234.744 84.0166C235.492 84.516 236.075 85.2258 236.419 86.0562C236.763 86.8867 236.853 87.8005 236.678 88.6821C236.502 89.5637 236.069 90.3735 235.433 91.0091C234.797 91.6447 233.987 92.0776 233.104 92.2529C232.222 92.4283 231.308 92.3383 230.477 91.9943C229.646 91.6503 228.935 91.0678 228.435 90.3204C227.936 89.573 227.669 88.6943 227.669 87.7955C227.669 86.5901 228.148 85.4341 229.001 84.5818C229.854 83.7295 231.011 83.2507 232.217 83.2507ZM190.575 94.2763C195.55 72.3613 208.631 55.9637 227.951 43.82C211.578 59.1087 198.743 75.8427 190.593 94.5581C190.584 94.4581 190.584 94.3581 190.575 94.2672V94.2763ZM217.991 108.183C217.39 108.556 216.808 108.938 216.235 109.338C216.481 109.174 216.708 109.001 216.954 108.847L217.463 108.511L217.991 108.183ZM202.482 109.765C201.582 109.765 200.703 109.498 199.955 108.999C199.207 108.5 198.624 107.79 198.28 106.959C197.935 106.129 197.845 105.215 198.021 104.334C198.196 103.452 198.629 102.642 199.266 102.007C199.902 101.371 200.712 100.938 201.594 100.763C202.476 100.587 203.391 100.677 204.222 101.021C205.053 101.365 205.763 101.948 206.263 102.695C206.763 103.443 207.03 104.321 207.03 105.22C207.027 106.424 206.547 107.578 205.694 108.428C204.842 109.278 203.686 109.756 202.482 109.756V109.765ZM203.591 123.327C203.409 123.654 203.227 123.99 203.055 124.336V124.272L203.227 123.954L203.346 123.727L203.546 123.372L203.591 123.327ZM202.791 124.845C202.554 125.299 202.327 125.754 202.109 126.244L202.19 126.072C202.19 125.981 202.272 125.89 202.318 125.799C202.363 125.708 202.427 125.581 202.472 125.472L202.673 125.072L202.791 124.845ZM198.798 135.543C198.716 135.843 198.634 136.143 198.561 136.452C198.561 136.452 198.561 136.407 198.561 136.388L198.798 135.543ZM207.475 117.464L207.639 117.264L207.839 117.018C207.867 116.977 207.898 116.938 207.93 116.9C207.612 117.282 207.303 117.682 207.021 118.091C207.166 117.882 207.321 117.664 207.475 117.464ZM197.861 139.552V139.642V139.552ZM197.006 144.769L196.842 146.032L196.896 145.614V145.351L197.006 144.769ZM214.934 173.547C218.509 169.911 222.211 169.502 224.667 168.093C220.829 172.658 217.876 177.898 215.962 183.545C215.456 180.231 215.116 176.894 214.943 173.547H214.934ZM224.231 205.797C224.403 209.932 225.077 213.977 225.04 218.149C224.992 222.499 224.688 226.842 224.131 231.156C223.648 226.866 222.893 222.621 222.102 218.367C221.265 213.868 220.055 209.796 220.419 205.169C220.582 202.362 221.196 199.6 222.239 196.989C223.448 196.598 224.622 196.234 225.777 195.898C224.613 199.063 224.091 202.428 224.24 205.797H224.231ZM233.763 215.05V214.977C232.472 209.796 231.726 204.978 233.472 201.479C233.936 201.297 234.382 201.134 234.846 200.97C233.618 210.705 241.213 226.048 245.507 240.237C240.595 232.32 237.174 223.676 233.763 215.05ZM297.437 225.203C293.298 222.821 296.454 217.568 293.58 216.659C295.126 219.249 289.259 226.712 284.484 230.293C284.811 226.23 284.62 223.567 283.929 222.303C282.11 234.747 276.361 228.03 272.841 239.319C269.33 228.03 263.572 234.774 261.762 222.303C261.061 223.567 260.852 226.23 261.198 230.293C256.477 226.748 250.61 219.285 252.156 216.659C249.282 217.568 252.429 222.821 248.299 225.203C249.345 218.549 243.806 216.45 249.764 211.359C255.149 206.76 265.928 201.024 272.841 200.924C279.754 201.024 290.533 206.76 295.918 211.359C301.967 216.468 296.418 218.567 297.473 225.221L297.437 225.203ZM312.082 214.995C311.954 215.386 311.845 215.768 311.718 216.159C308.407 224.521 305.023 232.92 300.238 240.582C304.532 226.303 312.245 210.796 311.008 200.988L312.373 201.497C314.147 205.051 313.401 209.814 312.082 214.995ZM324.816 213.377C324.162 216.104 323.579 218.786 323.106 221.558C322.633 224.33 321.36 228.311 321.724 231.193C320.881 224.995 320.619 218.733 320.941 212.486C320.987 211.577 321.078 210.75 321.178 209.878C321.418 208.127 321.555 206.364 321.587 204.597C321.587 203.397 321.342 196.307 320.005 195.916C321.151 196.252 322.333 196.616 323.543 197.007C325.716 202.184 326.178 207.919 324.862 213.377H324.816ZM327.636 197.925L327.4 197.816H327.318L326.79 197.598L326.699 197.552L326.181 197.334H326.072L325.571 197.125L325.453 197.08L324.971 196.88L324.807 196.816L324.362 196.634L324.171 196.561L323.752 196.389L323.543 196.307L323.161 196.162C321.96 195.689 320.76 195.253 319.522 194.816L319.095 194.671L318.931 194.607L318.449 194.444L318.285 194.389L317.867 194.244L317.712 194.189L317.258 194.035L317.057 193.971L316.603 193.826L316.43 193.762L315.984 193.626L315.848 193.58L315.402 193.435L315.229 193.38L314.838 193.253L314.611 193.18L314.219 193.062L313.974 192.989L313.601 192.88L313.346 192.798L313 192.698L312.728 192.626L312.355 192.517L312.118 192.444L311.736 192.335L311.563 192.28L311.154 192.171L310.899 192.098L310.563 192.008L310.308 191.944L309.917 191.835L309.626 191.762L309.335 191.689L309.053 191.617L308.671 191.517L308.407 191.453C302.985 190.099 297.469 189.148 291.906 188.608C292.889 190.081 294.28 190.644 296.282 190.962C300.639 191.671 304.395 192.308 307.916 192.998C307.419 194.44 306.779 195.829 306.005 197.143C307.552 197.749 309.144 198.467 310.781 199.297C313.795 200.847 316.712 202.581 319.513 204.488L318.695 204.033L317.867 203.588L317.458 203.37L317.066 203.161L316.657 202.951L316.257 202.751L315.875 202.552L315.475 202.361L315.065 202.161L314.665 201.97L314.274 201.779L313.865 201.597L313.464 201.415H313.41L313.037 201.252H312.982L312.618 201.088L312.255 200.924L311.245 200.479L311.054 200.397L310.836 200.306L310.626 200.225L310.399 200.125L310.208 200.052L309.944 199.943H309.853L309.535 199.806H309.453L309.125 199.67H309.035L308.689 199.525H308.598L308.334 199.425H308.243H308.161L307.898 199.325H307.807L306.569 198.879H306.488L306.142 198.761H306.051L305.705 198.643C301.287 196.927 296.724 195.61 292.07 194.707C292.397 195.21 292.832 195.634 293.343 195.949C293.855 196.263 294.43 196.46 295.026 196.525C298.665 197.37 301.767 198.107 304.659 198.916C293.798 212.55 271.185 193.18 276.161 185.281C280.5 178.4 294.126 172.092 295.836 165.884C296.232 164.485 296.178 162.997 295.681 161.63C295.147 162.918 294.326 164.066 293.281 164.989C292.236 165.912 290.995 166.585 289.651 166.957C283.547 156.358 277.825 167.184 272.95 164.593C268.102 167.184 262.362 156.358 256.258 166.957C254.914 166.585 253.672 165.912 252.627 164.989C251.582 164.066 250.762 162.918 250.228 161.63C249.731 162.997 249.677 164.485 250.073 165.884C251.783 172.092 265.409 178.4 269.748 185.281C274.724 193.171 252.101 212.55 241.25 198.916C244.142 198.107 247.198 197.37 250.882 196.525C251.478 196.46 252.052 196.263 252.561 195.949C253.071 195.634 253.505 195.21 253.83 194.707C249.327 195.444 244.896 196.566 240.586 198.061L240.24 198.179H240.149L239.803 198.298H239.712L238.484 198.743H238.393L238.13 198.843H238.039H237.957L237.693 198.943H237.602L237.247 199.088H237.165L236.838 199.225H236.747L236.429 199.361H236.338L236.074 199.47L235.883 199.543L235.655 199.643L235.446 199.725L235.228 199.816L235.037 199.897L234.018 200.343L233.672 200.497H233.609L233.245 200.661H233.19L232.817 200.825H232.763L232.39 200.997L232.008 201.179H231.962L231.598 201.361H231.526L231.171 201.533L230.771 201.724L230.38 201.915L229.998 202.115L229.606 202.315L229.197 202.524L228.797 202.733L227.56 203.397L226.741 203.851C229.54 201.94 232.457 200.207 235.473 198.661C237.111 197.837 238.703 197.119 240.249 196.507C239.475 195.192 238.836 193.804 238.339 192.362C241.859 191.671 245.616 191.035 249.973 190.326C251.974 190.008 253.366 189.417 254.339 187.972C248.644 188.693 243.013 189.844 237.493 191.417L237.238 191.48L236.856 191.58L236.565 191.653L236.274 191.726L235.992 191.799L235.601 191.908L235.337 191.971L235.01 192.062L234.755 192.135L234.336 192.244L234.155 192.298L233.772 192.408L233.545 192.48L233.163 192.589L232.89 192.662L232.554 192.762L232.29 192.844L231.917 192.953L231.68 193.026L231.289 193.144L231.062 193.217L230.662 193.344L230.48 193.398L230.034 193.544L229.898 193.589L229.452 193.726L229.279 193.789L228.833 193.935L228.633 193.998L228.178 194.153L228.024 194.207L227.605 194.353L227.432 194.407L226.959 194.571L226.796 194.634L226.359 194.78C225.158 195.207 223.958 195.689 222.766 196.125L222.384 196.271L222.175 196.352L221.756 196.525L221.565 196.598L221.12 196.78L220.956 196.843L220.474 197.043L220.346 197.089L219.855 197.298H219.737L219.228 197.516L219.137 197.561L218.609 197.779H218.527L218.291 197.889C218.291 197.743 218.291 197.607 218.291 197.461C220.037 196.522 221.747 195.653 223.421 194.853C225.058 192.105 227.365 189.817 230.125 188.199C228.964 189.772 227.942 191.441 227.069 193.189C230.362 191.759 233.755 190.568 237.22 189.626C236.82 187.948 236.516 186.249 236.31 184.536C240.504 183.509 244.87 182.664 250.282 181.682C252.056 181.364 253.284 180.837 254.121 179.519C248.185 180.209 242.322 181.426 236.601 183.154L236.056 183.318L235.519 183.491L235.019 183.645H234.955L234.437 183.809L233.9 183.981L233.39 184.154H233.336L232.845 184.318H232.772L232.335 184.463L232.208 184.509L231.799 184.654L231.644 184.709L231.398 184.8L231.116 184.9L230.725 185.036L230.552 185.1L230.307 185.19L229.998 185.309L229.761 185.399L229.434 185.518L229.215 185.599L228.87 185.736L228.67 185.818L228.324 185.945L228.133 186.027L227.769 186.172L227.578 186.245L227.205 186.39L227.05 186.463L226.641 186.627L226.505 186.681L226.095 186.854L225.977 186.899L225.55 187.081L225.413 187.136L224.995 187.317L224.886 187.363L224.449 187.554L224.34 187.599L223.885 187.799H223.821L223.33 188.017H223.275L222.784 188.235H222.73L222.239 188.463L221.72 188.699L221.183 188.944L220.647 189.208L220.119 189.463L219.601 189.717L219.055 189.981C225.111 186.228 231.61 183.242 238.402 181.091C240.839 179.01 243.423 177.108 246.134 175.401C238.648 167.484 240.422 157.285 249.855 150.45C242.578 152.841 235.201 160.23 234.091 168.356C233.118 151.65 222.066 150.695 229.243 136.107C220.71 139.306 224.221 154.286 217.499 156.304C219.528 151.995 221.138 147.214 219.428 142.478C221.82 135.879 225.64 129.553 231.489 125.263C240.485 118.664 251.683 118.9 262.489 118.291C264.994 118.146 267.495 118.052 269.994 118.009V118.064H278.007C279.827 118.118 281.546 118.191 283.32 118.291C294.126 118.909 305.323 118.664 314.319 125.263C320.159 129.553 323.989 135.879 326.381 142.478C324.707 147.214 326.281 151.995 328.309 156.304C321.578 154.286 325.098 139.306 316.557 136.107C323.743 150.695 312.682 151.65 311.709 168.356C310.599 160.23 303.258 152.841 295.954 150.45C305.387 157.285 307.161 167.484 299.675 175.401C302.385 177.106 304.966 179.008 307.397 181.091C314.325 183.314 320.943 186.408 327.09 190.299L326.554 190.035L326.035 189.781L325.517 189.526L324.98 189.263L324.444 189.017L323.925 188.781L323.425 188.554H323.37L322.879 188.335H322.824L322.333 188.117H322.279L321.824 187.917L321.715 187.872L321.278 187.681L321.169 187.635L320.741 187.454L320.614 187.399L320.186 187.217L320.068 187.172L319.65 186.999L319.513 186.945L319.113 186.781L318.949 186.708L318.576 186.563L318.395 186.49L318.022 186.345L317.84 186.263L317.494 186.136L317.285 186.054L316.939 185.918L316.721 185.836L316.402 185.718L316.157 185.627L315.857 185.509L315.602 185.418L315.429 185.354L315.047 185.218L314.774 185.118L314.529 185.027L314.374 184.972L313.965 184.827L313.837 184.781L313.401 184.636H313.328L312.837 184.472H312.782L312.273 184.3L311.736 184.127L311.218 183.963H311.154L310.654 183.809L310.126 183.636L309.58 183.472C303.857 181.743 297.991 180.526 292.052 179.837C292.898 181.155 294.126 181.655 295.9 182C301.357 182.982 305.669 183.818 309.871 184.854C309.666 186.567 309.362 188.266 308.962 189.944C312.355 190.806 315.684 191.905 318.922 193.235C318.049 191.485 317.023 189.815 315.857 188.245C318.619 189.862 320.928 192.151 322.57 194.898C324.243 195.698 325.95 196.568 327.691 197.507C327.691 197.689 327.682 197.825 327.682 197.97L327.636 197.925ZM329.838 183.536C327.92 177.889 324.964 172.648 321.123 168.084C323.625 169.456 327.291 169.902 330.865 173.492C330.726 176.849 330.398 180.212 329.883 183.582L329.838 183.536ZM341.353 168.693C341.353 168.366 341.353 168.038 341.353 167.711C340.444 151.723 337.224 137.715 330.438 126.999C330.029 126.363 329.601 125.754 329.164 125.181C328.728 124.608 328.255 124.072 327.782 123.563C327.564 123.318 313.073 106.902 277.207 108.111H268.802C266.273 108.02 263.845 108.029 261.525 108.111C230.98 109.165 218.454 123.354 218.254 123.563C217.781 124.072 217.345 124.608 216.881 125.181C216.417 125.754 215.971 126.372 215.598 126.999C208.785 137.734 205.592 151.723 204.683 167.711C204.683 167.966 204.683 168.229 204.683 168.493C201.954 161.685 200.226 155.522 200.626 149.068L200.489 149.332C203.573 122.909 216.444 100.112 272.477 102.557H273.714V102.602L275.269 102.539L283.811 102.439C331.184 103.048 342.745 124.49 345.665 149.141C345.892 155.567 344.119 161.785 341.353 168.693ZM348.63 176.692C348.257 167.602 348.166 159.567 348.166 159.421C348.385 128.171 337.324 113.237 320.778 106.266C320.778 106.266 308.489 99.3847 285.093 99.2938H261.943C237.784 99.1574 225.095 106.266 225.095 106.266C208.54 113.237 197.488 128.171 197.697 159.421C197.697 159.549 197.615 167.457 197.251 176.464C196.724 175.083 196.26 173.704 195.86 172.329V171.692C195.86 171.147 195.859 170.602 195.905 170.074C195.95 169.547 195.905 169.275 195.905 168.893C195.905 168.511 195.905 168.366 195.905 168.102C196.032 163.457 196.078 160.058 196.078 159.449C196.078 159.149 196.078 158.849 196.078 158.54C196.078 158.231 196.078 157.913 196.078 157.631C196.078 156.967 196.078 156.304 196.078 155.658C196.078 155.413 196.078 155.167 196.078 154.922C196.078 154.677 196.078 154.213 196.078 153.859C196.078 153.504 196.078 153.277 196.078 152.995C196.078 152.695 196.078 152.404 196.123 152.086C196.123 151.95 196.123 151.804 196.123 151.668C196.123 151.332 196.169 150.995 196.187 150.659V150.314L196.296 149.023C196.296 148.832 196.296 148.641 196.342 148.459C196.387 148.278 196.387 148.014 196.405 147.787V147.741C196.405 147.623 196.405 147.505 196.405 147.396C196.405 147.287 196.46 146.914 196.478 146.678C196.478 146.56 196.478 146.451 196.478 146.342C196.482 146.308 196.482 146.275 196.478 146.242C196.587 145.333 196.705 144.424 196.842 143.515C196.842 143.715 196.778 143.915 196.751 144.115V144.06C196.751 143.824 196.815 143.587 196.851 143.351C196.855 143.405 196.855 143.46 196.851 143.515C196.851 143.406 196.851 143.296 196.851 143.187C196.855 143.233 196.855 143.278 196.851 143.324V143.151C196.851 143.042 196.851 142.933 196.896 142.824L196.842 143.187C196.987 142.278 197.142 141.369 197.306 140.461C197.479 139.552 197.661 138.715 197.852 137.861C197.852 137.997 197.788 138.125 197.761 138.261C197.761 138.088 197.833 137.906 197.879 137.734V137.861C197.879 137.77 197.879 137.679 197.943 137.588V137.706C197.943 137.561 198.006 137.406 198.043 137.261C198.043 137.37 198.043 137.488 197.97 137.597C198.161 136.77 198.361 135.952 198.579 135.161C198.584 135.134 198.584 135.107 198.579 135.079L198.634 134.889C198.725 134.58 198.807 134.28 198.898 133.98C199.07 133.389 199.252 132.807 199.434 132.234C199.907 130.798 200.429 129.408 200.999 128.062L201.19 127.617L201.417 127.099C201.508 126.899 201.599 126.69 201.699 126.49C201.963 125.926 202.227 125.372 202.509 124.826V124.772C202.782 124.245 203.064 123.736 203.346 123.227L203.437 123.072L203.609 122.772L203.473 123.009L203.528 122.909L203.719 122.581L203.937 122.209L204.173 121.818C204.384 121.719 204.578 121.587 204.746 121.427L204.064 122.572C204.349 122.081 204.652 121.6 204.974 121.127L205.574 120.218L205.338 120.545C205.42 120.409 205.501 120.282 205.592 120.154L205.793 119.864C205.711 119.973 205.638 120.1 205.565 120.218C205.783 119.882 206.011 119.554 206.238 119.227L205.902 119.709V119.664C205.938 119.604 205.977 119.546 206.02 119.491L206.347 119.027L206.466 118.864C206.384 118.982 206.302 119.109 206.211 119.227C206.429 118.936 206.629 118.636 206.848 118.318C207.221 117.818 207.612 117.328 208.012 116.846L208.076 116.773C208.294 116.5 208.521 116.246 208.749 115.991C208.658 116.1 208.549 116.2 208.458 116.319L208.531 116.228L208.885 115.819L209.131 115.546L208.749 115.991C209.004 115.7 209.249 115.419 209.513 115.146L209.231 115.437C209.358 115.301 209.477 115.155 209.613 115.028L209.695 114.928L209.477 115.182C209.731 114.901 209.986 114.628 210.25 114.364L210.141 114.473L210.359 114.246L210.25 114.364C210.413 114.192 210.595 114.028 210.768 113.855L210.413 114.192L210.877 113.737C210.977 113.628 211.087 113.528 211.196 113.428L211.341 113.292L211.487 113.155C211.241 113.383 211.005 113.628 210.768 113.855C211.187 113.446 211.614 113.028 212.06 112.637L211.978 112.701L212.087 112.601L212.033 112.665L212.469 112.283L212.105 112.592L212.187 112.519L212.551 112.201L212.888 111.91L213.06 111.765L213.315 111.556L212.469 112.283C212.878 111.928 213.288 111.583 213.706 111.247L214.034 110.983L214.407 110.701L214.079 110.947L214.298 110.774L214.67 110.483L214.752 110.429L215.107 110.165L215.18 110.11L215.526 109.856C215.134 110.138 214.743 110.438 214.361 110.765C214.798 110.429 215.271 110.101 215.689 109.783C215.817 109.683 215.953 109.601 216.08 109.51C216.672 109.101 217.272 108.701 217.9 108.32L218.263 108.102L218.618 107.893L218.736 107.82L219.046 107.638C220.77 106.651 222.553 105.771 224.385 105.002C224.549 104.911 224.722 104.82 224.904 104.738C225.44 104.466 226.05 104.193 226.723 103.911C229.021 102.949 231.375 102.127 233.772 101.448C241.43 99.2683 249.328 98.041 257.286 97.794V34.5759H268.138V97.4759C271.358 97.4092 274.578 97.4092 277.798 97.4759V34.5759H288.65V97.794C296.546 97.9986 304.387 99.1646 312 101.266C314.395 101.943 316.746 102.766 319.04 103.73C319.704 104.011 320.314 104.284 320.86 104.557C321.032 104.638 321.214 104.729 321.369 104.82C323.204 105.589 324.99 106.469 326.718 107.456L327.027 107.638L327.145 107.711L327.5 107.92L327.864 108.138C328.564 108.574 329.237 109.047 329.901 109.483H329.956C330.447 109.829 330.92 110.183 331.393 110.547C331.002 110.247 330.611 109.947 330.201 109.638L330.274 109.683L330.538 109.883L330.893 110.138L331.429 110.547L331.575 110.665L331.739 110.783L331.848 110.874L331.393 110.529L331.902 110.91H331.948C332.43 111.301 332.903 111.71 333.376 112.11C333.048 111.828 332.721 111.537 332.375 111.256H332.43L332.73 111.501L332.921 111.665L333.221 111.928L333.585 112.237L333.649 112.301L333.312 112.01L333.749 112.392C334.195 112.783 334.659 113.201 335.041 113.619C334.804 113.383 334.568 113.137 334.313 112.901L334.377 112.955L334.704 113.255L335.404 113.946L335.541 114.092C335.805 114.355 336.059 114.628 336.314 114.91L336.423 115.028L336.314 114.91C336.569 115.182 336.823 115.464 337.069 115.746C337.315 116.028 337.551 116.291 337.788 116.573C338.197 117.064 338.588 117.573 338.979 118.082L339.625 118.991C339.853 119.309 340.08 119.636 340.298 119.973L340.489 120.263L340.899 120.872C341.199 121.345 341.49 121.836 341.808 122.318C342.509 123.527 343.173 124.772 343.773 126.072L343.7 125.926L343.773 126.072L344.055 126.681L344.282 127.199L344.473 127.644C345.037 128.989 345.565 130.371 346.029 131.816C346.217 132.386 346.399 132.968 346.575 133.562C346.666 133.862 346.747 134.161 346.829 134.471L346.893 134.661C347.874 138.343 348.582 142.092 349.012 145.878C349.008 145.911 349.008 145.945 349.012 145.978C349.067 146.469 349.122 146.978 349.167 147.478C349.167 147.705 349.213 147.923 349.231 148.15L349.285 148.714C349.285 149.141 349.358 149.568 349.385 150.005L349.494 151.777C349.494 152.077 349.494 152.368 349.54 152.686C349.54 152.968 349.54 153.259 349.54 153.55C349.54 153.84 349.54 154.259 349.54 154.613V155.349C349.54 155.995 349.54 156.658 349.54 157.322V159.14C349.54 159.749 349.595 163.148 349.713 167.793V168.584C349.713 168.965 349.713 169.365 349.713 169.765C349.713 170.165 349.713 170.838 349.713 171.383V172.292C349.595 173.956 349.131 175.319 348.612 176.673L348.63 176.692ZM327.882 108.192L328.3 108.456H328.373L328.619 108.611L329.301 109.065L329.61 109.274L329.81 109.41C329.198 109.017 328.549 108.605 327.864 108.174L327.882 108.192ZM339.789 105.211C339.789 104.312 340.056 103.434 340.555 102.686C341.055 101.939 341.765 101.356 342.596 101.012C343.427 100.668 344.342 100.578 345.224 100.754C346.106 100.929 346.917 101.362 347.553 101.997C348.189 102.633 348.622 103.443 348.798 104.324C348.973 105.206 348.883 106.12 348.539 106.95C348.195 107.781 347.612 108.491 346.864 108.99C346.116 109.489 345.236 109.756 344.337 109.756C343.737 109.758 343.142 109.642 342.587 109.413C342.032 109.185 341.527 108.849 341.103 108.425C340.678 108.001 340.342 107.497 340.113 106.942C339.885 106.387 339.768 105.793 339.771 105.193L339.789 105.211ZM316.948 43.8291C336.469 56.1001 349.622 72.7067 354.479 94.9581C346.32 76.0699 333.385 59.1996 316.93 43.8109L316.948 43.8291Z" fill="#2F3E63"/>
<defs>
<linearGradient id="paint0_linear_560_2848" x1="144" y1="22" x2="128" y2="307.5" gradientUnits="userSpaceOnUse">
<stop offset="0.00520833" stop-color="#2F3E63"/>
<stop offset="0.432292" stop-color="white"/>
<stop offset="1" stop-color="#2F3E63"/>
</linearGradient>
</defs>
</svg>
